<svg class="main-svg" xmlns="http://www.w3.org/2000/svg" xmlns:xlink="http://www.w3.org/1999/xlink" width="720" height="360" style=""><rect x="0" y="0" width="720" height="360" style="fill: rgb(255, 255, 255); fill-opacity: 1;"/><defs id="defs-95c020"><g class="clips"><clipPath id="clip95c020xyplot" class="plotclip"><rect width="652.4037620297463" height="91.12993398883454"/></clipPath><clipPath id="clip95c020xy2plot" class="plotclip"><rect width="652.4037620297463" height="91.1299339888345"/></clipPath><clipPath class="axesclip" id="clip95c020x"><rect x="63.65923009623797" y="0" width="652.4037620297463" height="360"/></clipPath><clipPath class="axesclip" id="clip95c020y"><rect x="0" y="35.84524156702635" width="720" height="91.12993398883454"/></clipPath><clipPath class="axesclip" id="clip95c020xy"><rect x="63.65923009623797" y="35.84524156702635" width="652.4037620297463" height="91.12993398883454"/></clipPath><clipPath class="axesclip" id="clip95c020y2"><rect x="0" y="172.24590560349384" width="720" height="91.1299339888345"/></clipPath><clipPath class="axesclip" id="clip95c020xy2"><rect x="63.65923009623797" y="172.24590560349384" width="652.4037620297463" height="91.1299339888345"/></clipPath></g><g class="gradients"/><g class="patterns"/></defs><g class="bglayer"/><g class="layer-below"><g class="imagelayer"/><g class="shapelayer"/></g><g class="cartesianlayer"><g class="subplot xy"><g class="layer-subplot"><g class="shapelayer"/><g class="imagelayer"/></g><g class="gridlayer"><g class="x"><path class="xgrid crisp" transform="translate(82.11923009623797,0)" d="M0,35.84524156702635v91.12993398883454" style="stroke: rgb(0, 0, 0); stroke-opacity: 0.1; stroke-width: 0.5px;"/><path class="xgrid crisp" transform="translate(107.76923009623798,0)" d="M0,35.84524156702635v91.12993398883454" style="stroke: rgb(0, 0, 0); stroke-opacity: 0.1; stroke-width: 0.5px;"/><path class="xgrid crisp" transform="translate(133.40923009623796,0)" d="M0,35.84524156702635v91.12993398883454" style="stroke: rgb(0, 0, 0); stroke-opacity: 0.1; stroke-width: 0.5px;"/><path class="xgrid crisp" transform="translate(159.05923009623797,0)" d="M0,35.84524156702635v91.12993398883454" style="stroke: rgb(0, 0, 0); stroke-opacity: 0.1; stroke-width: 0.5px;"/><path class="xgrid crisp" transform="translate(184.69923009623798,0)" d="M0,35.84524156702635v91.12993398883454" style="stroke: rgb(0, 0, 0); stroke-opacity: 0.1; stroke-width: 0.5px;"/><path class="xgrid crisp" transform="translate(210.34923009623796,0)" d="M0,35.84524156702635v91.12993398883454" style="stroke: rgb(0, 0, 0); stroke-opacity: 0.1; stroke-width: 0.5px;"/><path class="xgrid crisp" transform="translate(235.98923009623797,0)" d="M0,35.84524156702635v91.12993398883454" style="stroke: rgb(0, 0, 0); stroke-opacity: 0.1; stroke-width: 0.5px;"/><path class="xgrid crisp" transform="translate(261.63923009623795,0)" d="M0,35.84524156702635v91.12993398883454" style="stroke: rgb(0, 0, 0); stroke-opacity: 0.1; stroke-width: 0.5px;"/><path class="xgrid crisp" transform="translate(287.279230096238,0)" d="M0,35.84524156702635v91.12993398883454" style="stroke: rgb(0, 0, 0); stroke-opacity: 0.1; stroke-width: 0.5px;"/><path class="xgrid crisp" transform="translate(312.929230096238,0)" d="M0,35.84524156702635v91.12993398883454" style="stroke: rgb(0, 0, 0); stroke-opacity: 0.1; stroke-width: 0.5px;"/><path class="xgrid crisp" transform="translate(338.569230096238,0)" d="M0,35.84524156702635v91.12993398883454" style="stroke: rgb(0, 0, 0); stroke-opacity: 0.1; stroke-width: 0.5px;"/><path class="xgrid crisp" transform="translate(364.219230096238,0)" d="M0,35.84524156702635v91.12993398883454" style="stroke: rgb(0, 0, 0); stroke-opacity: 0.1; stroke-width: 0.5px;"/><path class="xgrid crisp" transform="translate(389.859230096238,0)" d="M0,35.84524156702635v91.12993398883454" style="stroke: rgb(0, 0, 0); stroke-opacity: 0.1; stroke-width: 0.5px;"/><path class="xgrid crisp" transform="translate(415.509230096238,0)" d="M0,35.84524156702635v91.12993398883454" style="stroke: rgb(0, 0, 0); stroke-opacity: 0.1; stroke-width: 0.5px;"/><path class="xgrid crisp" transform="translate(441.149230096238,0)" d="M0,35.84524156702635v91.12993398883454" style="stroke: rgb(0, 0, 0); stroke-opacity: 0.1; stroke-width: 0.5px;"/><path class="xgrid crisp" transform="translate(466.799230096238,0)" d="M0,35.84524156702635v91.12993398883454" style="stroke: rgb(0, 0, 0); stroke-opacity: 0.1; stroke-width: 0.5px;"/><path class="xgrid crisp" transform="translate(492.43923009623796,0)" d="M0,35.84524156702635v91.12993398883454" style="stroke: rgb(0, 0, 0); stroke-opacity: 0.1; stroke-width: 0.5px;"/><path class="xgrid crisp" transform="translate(518.089230096238,0)" d="M0,35.84524156702635v91.12993398883454" style="stroke: rgb(0, 0, 0); stroke-opacity: 0.1; stroke-width: 0.5px;"/><path class="xgrid crisp" transform="translate(543.729230096238,0)" d="M0,35.84524156702635v91.12993398883454" style="stroke: rgb(0, 0, 0); stroke-opacity: 0.1; stroke-width: 0.5px;"/><path class="xgrid crisp" transform="translate(569.379230096238,0)" d="M0,35.84524156702635v91.12993398883454" style="stroke: rgb(0, 0, 0); stroke-opacity: 0.1; stroke-width: 0.5px;"/><path class="xgrid crisp" transform="translate(595.019230096238,0)" d="M0,35.84524156702635v91.12993398883454" style="stroke: rgb(0, 0, 0); stroke-opacity: 0.1; stroke-width: 0.5px;"/><path class="xgrid crisp" transform="translate(620.6692300962379,0)" d="M0,35.84524156702635v91.12993398883454" style="stroke: rgb(0, 0, 0); stroke-opacity: 0.1; stroke-width: 0.5px;"/><path class="xgrid crisp" transform="translate(646.3092300962379,0)" d="M0,35.84524156702635v91.12993398883454" style="stroke: rgb(0, 0, 0); stroke-opacity: 0.1; stroke-width: 0.5px;"/><path class="xgrid crisp" transform="translate(671.9492300962379,0)" d="M0,35.84524156702635v91.12993398883454" style="stroke: rgb(0, 0, 0); stroke-opacity: 0.1; stroke-width: 0.5px;"/><path class="xgrid crisp" transform="translate(697.599230096238,0)" d="M0,35.84524156702635v91.12993398883454" style="stroke: rgb(0, 0, 0); stroke-opacity: 0.1; stroke-width: 0.5px;"/></g><g class="y"><path class="ygrid crisp" transform="translate(0,124.39524156702635)" d="M63.65923009623797,0h652.4037620297463" style="stroke: rgb(0, 0, 0); stroke-opacity: 0.1; stroke-width: 0.5px;"/><path class="ygrid crisp" transform="translate(0,108.26524156702635)" d="M63.65923009623797,0h652.4037620297463" style="stroke: rgb(0, 0, 0); stroke-opacity: 0.1; stroke-width: 0.5px;"/><path class="ygrid crisp" transform="translate(0,92.13524156702636)" d="M63.65923009623797,0h652.4037620297463" style="stroke: rgb(0, 0, 0); stroke-opacity: 0.1; stroke-width: 0.5px;"/><path class="ygrid crisp" transform="translate(0,76.00524156702635)" d="M63.65923009623797,0h652.4037620297463" style="stroke: rgb(0, 0, 0); stroke-opacity: 0.1; stroke-width: 0.5px;"/><path class="ygrid crisp" transform="translate(0,59.87524156702635)" d="M63.65923009623797,0h652.4037620297463" style="stroke: rgb(0, 0, 0); stroke-opacity: 0.1; stroke-width: 0.5px;"/><path class="ygrid crisp" transform="translate(0,43.74524156702635)" d="M63.65923009623797,0h652.4037620297463" style="stroke: rgb(0, 0, 0); stroke-opacity: 0.1; stroke-width: 0.5px;"/></g></g><g class="zerolinelayer"/><path class="xlines-below"/><path class="ylines-below"/><g class="overlines-below"/><g class="xaxislayer-below"/><g class="yaxislayer-below"/><g class="overaxes-below"/><g class="plot" transform="translate(63.65923009623797,35.84524156702635)" clip-path="url(#clip95c020xyplot)"><g class="scatterlayer mlayer"><g class="trace scatter tracee2f89f" style="stroke-miterlimit: 2; opacity: 1;"><g class="fills"/><g class="errorbars"/><g class="lines"><path class="js-line" d="M18.61,57.58L18.61,57.42L19.55,57.42L19.55,57.26L20.4,57.26L20.4,56.78L21.72,56.78L22.42,55.48L23.59,55.48L23.59,54.36L24.42,54.36L24.42,52.74L25.26,52.74L25.26,51.77L26.12,51.77L26.12,50L26.94,50L26.94,47.9L27.81,47.9L27.81,45.81L28.69,45.81L28.69,43.39L29.53,43.39L29.53,41.61L30.33,41.61L30.33,39.84L31.24,39.84L31.93,37.58L32.95,37.58L33.36,36.77L34.53,36.77L34.53,36.61L39.22,36.61L39.22,88.55L51.3,88.55L51.3,88.07L52.15,88.07L52.15,88.55L62.52,88.55L62.52,88.23L63.38,88.23L63.38,88.07L69.65,88.07L69.65,87.91L72.32,87.91L72.32,87.58L73.86,87.58L73.86,87.26L75.22,87.26L75.22,87.1L76.19,87.1L76.19,86.62L77.45,86.62L77.45,85.81L78.28,85.81L78.94,83.55L80,83.55L80,82.1L80.84,82.1L80.84,80.32L81.68,80.32L81.68,78.23L82.48,78.23L82.48,76.45L83.4,76.45L83.4,74.52L84.19,74.52L84.19,72.58L85.11,72.58L85.11,70.65L85.95,70.65L85.95,69.52L86.75,69.52L86.75,68.39L87.55,68.39L87.55,67.26L88.42,67.26L88.42,66.13L89.23,66.13L89.92,64.84L90.87,64.84L91.49,64.19L92.22,64.19L92.22,64.03L93.2,64.03L93.2,63.87L94.48,63.87L94.48,63.71L96.23,63.71L96.23,63.23L98.14,63.23L98.14,63.07L100.24,63.07L100.24,62.74L102.5,62.74L102.5,62.58L104.6,62.58L104.6,62.26L106.32,62.26L106.32,61.94L107.65,61.94L107.65,61.61L108.71,61.61L108.71,61.29L109.52,61.29L109.52,60.81L110.73,60.81L110.73,60.16L111.61,60.16L111.61,59.52L112.49,59.52L113.21,57.1L114.13,57.1L114.13,55.32L115.04,55.32L115.04,53.23L115.91,53.23L115.91,50.97L116.71,50.97L116.71,48.87L117.59,48.87L117.59,46.77L118.43,46.77L118.43,45L119.31,45L119.31,42.9L120.18,42.9L120.18,41.45L120.94,41.45L121.53,40.32L122.08,40.32L122.08,40.16L125.8,40.16L125.8,40L130.36,40L130.36,39.68L134.78,39.68L134.78,39.36L139.59,39.36L139.59,88.55L143.83,88.55L143.83,88.23L144.69,88.23L144.69,87.91L147.74,87.91L147.74,87.74L150.73,87.74L150.73,87.58L153.86,87.58L153.86,87.42L156.53,87.42L156.53,87.26L158.09,87.26L158.09,87.1L159.4,87.1L159.4,86.94L160.36,86.94L160.9,85.81L162.05,85.81L162.65,84.36L163.75,84.36L163.75,83.55L164.55,83.55L164.55,82.42L165.43,82.42L165.43,81.13L166.26,81.13L166.26,79.68L167.19,79.68L167.19,78.07L168.05,78.07L168.05,76.61L168.86,76.61L168.86,75.16L169.7,75.16L169.7,74.03L170.46,74.03L170.46,72.9L171.41,72.9L171.41,72.1L172.28,72.1L172.28,71.61L173.09,71.61L173.09,71.29L173.85,71.29L174.51,70.81L175.28,70.81L175.28,70.65L176.29,70.65L176.29,70.49L177.72,70.49L177.72,70.32L179.11,70.32L179.36,70L181.12,70L181.12,69.84L182.94,69.84L182.94,69.68L184.58,69.68L184.58,69.52L185.97,69.52L188.48,68.87L188.48,68.71L190.2,68.23L190.2,67.74L191.8,67.26L191.8,66.78L193.63,66.13L193.63,65.65L195.29,65.16L195.29,64.19L199.1,63.55L199.1,63.39L204.75,62.74L204.75,62.58L210.26,61.94L210.26,61.61L214.2,60.97L214.2,60.81L220.32,60.16L220.32,60L224.09,59.36L224.09,58.71L226.15,58.23L226.15,57.26L227.01,57.26L227.01,56.29L227.88,56.29L227.88,55.32L228.69,55.32L228.69,54.03L229.61,54.03L229.61,52.74L230.3,52.74L230.3,51.61L231.28,51.61L231.28,50.81L232.9,50.16L232.9,49.52L234.42,49.19L234.42,48.71L238.36,48.07L238.36,47.9L246.24,47.26L246.24,47.1L249.56,46.61L249.56,45.97L251.6,45.48L251.6,44.84L254.38,44.19L254.38,44.03L259.15,43.39L259.15,43.23L264.11,42.58L264.11,42.42L267.87,41.77L267.87,41.61L270.47,40.97L270.47,40.65L271.96,40.32L271.96,39.84L272.91,39.84L272.91,38.71L274.04,38.71L274.04,37.42L274.84,37.42L274.84,35.81L275.76,35.81L275.76,34.68L277.36,34.03L277.36,33.06L280.84,32.42L280.84,32.26L280.9,32.1L282.43,32.1L282.43,31.94L284.73,31.94L284.73,31.77L286.73,31.77L286.73,31.61L288.08,31.61L288.08,31.45L289.17,31.45L289.17,31.13L289.98,31.13L289.98,30.81L291,30.81L291,30.32L291.87,30.32L291.87,29.68L292.82,29.68L292.82,29.19L293.72,29.19L293.72,28.55L294.5,28.55L294.5,28.06L295.4,28.06L295.4,27.42L296.18,27.42L296.18,26.13L297.05,26.13L297.05,25.32L297.9,25.32L297.9,24.84L298.66,24.84L298.66,24.35L299.5,24.35L299.5,23.71L300.52,23.71L301.14,23.06L302.17,23.06L302.17,22.74L303,22.74L303,22.58L303.76,22.58L303.76,22.42L304.75,22.42L304.75,22.26L305.99,22.26L305.99,22.1L307.6,22.1L307.6,21.93L309.38,21.93L309.38,21.77L311.17,21.77L311.17,21.61L312.52,21.61L313.03,21.29L313.94,21.29L313.94,21.13L318.06,21.13L318.06,20.97L322.11,20.97L322.11,20.64L325.8,20.64L325.8,20.32L329.48,20.32L329.48,20L333.13,20L333.13,19.84L336.52,19.84L336.52,19.52L338.63,19.52L338.63,19.35L340.42,19.35L340.42,19.19L342.1,19.19L342.1,18.87L344.14,18.87L344.87,18.06L345.78,18.06L345.78,17.58L346.72,17.58L346.72,16.93L347.57,16.93L347.57,16.45L348.33,16.45L348.33,15.81L349.25,15.81L349.97,14.84L350.71,14.84L350.71,14.35L351.65,14.35L351.65,13.71L352.6,13.71L352.6,13.39L353.37,13.39L353.37,13.22L354.3,13.22L354.3,13.06L355.17,13.06L355.37,12.74L356.61,12.74L356.61,12.58L358.18,12.58L358.18,12.42L360.7,12.42L360.7,12.26L362.96,12.26L362.96,12.1L364.49,12.1L364.49,11.93L365.51,11.93L365.73,11.45L366.61,11.45L366.61,11.13L367.95,11.13L367.95,10.64L368.79,10.64L368.79,10.16L369.67,10.16L369.67,9.68L370.55,9.68L370.55,9.19L371.35,9.19L371.35,8.71L372.18,8.71L372.18,8.22L373.05,8.22L373.05,7.58L374.07,7.58L374.07,7.1L374.85,7.1L374.85,6.29L375.74,6.29L375.74,5.64L376.53,5.64L377.19,4.84L378.2,4.84L378.2,4.35L379.2,4.35L379.85,3.71L380.87,3.71L381.59,3.39L382.51,3.39L388.93,2.74L388.93,2.58L390.93,2.58L390.93,88.55L426.94,88.23L426.94,87.58L432.89,87.1L432.89,86.29L433.72,86.29L433.72,85.16L434.67,85.16L434.67,83.39L435.62,83.39L435.62,81.29L436.42,81.29L436.42,79.03L437.29,79.03L437.29,76.45L438.18,76.45L438.18,74.2L439.03,74.2L439.03,71.94L439.87,71.94L439.87,70L440.74,70L440.74,68.55L441.54,68.55L441.54,67.58L444.28,66.94L444.28,66.61L452.49,65.97L452.49,65.65L455.04,65.32L455.04,64.36L456.1,64.36L456.1,63.07L456.94,63.07L456.94,60.32L457.82,60.32L457.82,59.03L458.6,59.03L458.6,56.94L459.55,56.94L459.55,54.03L460.36,54.03L460.36,52.1L461.24,52.1L461.24,49.68L462.02,49.68L462.02,47.9L463.78,47.26L463.78,46.77L465.4,46.29L465.4,45.97L468.11,45.32L468.11,45L472.97,44.52L472.97,88.55L515.86,87.91L515.86,87.58L518.43,86.94L518.43,86.29L520.11,85.81L520.11,85.16L521.02,85.16L521.02,84.2L521.94,84.2L521.94,83.07L522.74,83.07L522.74,82.26L523.62,82.26L523.62,80.97L524.49,80.97L524.49,79.2L525.36,79.2L525.36,77.91L526.13,77.91L526.13,76.94L527.67,76.45L527.67,76.13L534.12,75.49L534.12,75.32L539.63,74.84L539.63,74.52L541.53,73.87L541.53,73.55L543.21,72.9L543.21,71.94L544.09,71.94L544.09,70.97L544.97,70.97L544.97,70L545.88,70L545.88,69.2L546.68,69.2L546.68,68.07L548.22,67.42L548.22,66.61L550.08,65.97L550.08,65.49L551.5,65.16L551.5,64.68L554.82,64.19L554.82,88.55L602.97,87.91L602.97,87.74L605.67,87.1L605.67,86.78L607.43,86.13L607.43,85.81L608.01,85.81L608.01,84.68L609.1,84.68L609.1,83.07L609.98,83.07L609.98,81.29L610.82,81.29L610.82,79.84L611.59,79.84L611.59,78.23L613.3,77.58L613.3,77.1L615.02,76.61L615.02,76.13L617.39,75.49L617.39,75.32L625.53,74.68L625.53,74.36L628.56,73.87L628.56,72.26L629.62,72.26L629.62,70.65L630.35,70.65L630.35,68.39L631.3,68.39L631.3,66.45L632.17,66.45L632.17,65L633.01,65L633.01,63.55L633.89,63.55" style="vector-effect: non-scaling-stroke; fill: none; stroke: rgb(0, 154, 250); stroke-opacity: 1; stroke-width: 1px; opacity: 1;"/></g><g class="points"/><g class="text"/></g><g class="trace scatter tracef50a07" style="stroke-miterlimit: 2; opacity: 1;"><g class="fills"/><g class="errorbars"/><g class="lines"><path class="js-line" d="M18.95,88.55L166.35,88.07L166.35,86.62L179.11,86.45L179.11,88.55L227.88,87.91L227.88,87.42L235.78,87.42L235.78,88.55L526.09,88.55L526.09,87.74L551.91,87.26L551.91,88.55L633.78,88.55" style="vector-effect: non-scaling-stroke; fill: none; stroke: rgb(227, 111, 71); stroke-opacity: 1; stroke-width: 1px; opacity: 1;"/></g><g class="points"/><g class="text"/></g><g class="trace scatter trace6121e0" style="stroke-miterlimit: 2; opacity: 1;"><g class="fills"/><g class="errorbars"/><g class="lines"><path class="js-line" d="M19.48,88.55L167.2,88.55L167.2,87.42L179.11,87.42L179.11,88.55L457.82,88.39L457.82,86.78L462.96,86.13L462.96,85.97L471.91,85.97L471.91,88.55L541.53,88.39L541.53,87.74L544.12,87.1L544.12,86.94L554.11,86.29L554.11,88.55L633.08,88.55L633.08,87.26L633.93,87.26" style="vector-effect: non-scaling-stroke; fill: none; stroke: rgb(62, 164, 78); stroke-opacity: 1; stroke-width: 1px; opacity: 1;"/></g><g class="points"/><g class="text"/></g><g class="trace scatter tracea14245" style="stroke-miterlimit: 2; opacity: 1;"><g class="fills"/><g class="errorbars"/><g class="lines"><path class="js-line" d="M19.72,86.13L33.27,86.13L33.27,88.55L84.74,88.55L84.74,87.1L85.98,87.1L85.98,86.13L87.38,86.13L87.38,88.55L162,88.07L162,87.26L165.43,86.78L165.43,85.97L177.5,85.97L177.5,88.55L224.24,88.23L224.24,87.74L235.77,87.74L235.77,88.55L443.51,87.91L443.51,87.74L445.3,87.74L445.3,88.55L545.88,88.39L545.88,87.58L551.93,86.94L551.93,88.55L633.78,88.55" style="vector-effect: non-scaling-stroke; fill: none; stroke: rgb(195, 113, 210); stroke-opacity: 1; stroke-width: 1px; opacity: 1;"/></g><g class="points"/><g class="text"/></g><g class="trace scatter tracea6ee79" style="stroke-miterlimit: 2; opacity: 1;"><g class="fills"/><g class="errorbars"/><g class="lines"><path class="js-line" d="M20.95,88.55L167.85,88.55L167.85,87.74L179.1,87.26L179.1,88.55L374.88,88.23L374.88,87.74L384.95,87.58L384.95,88.55L543.61,88.55L543.61,87.74L554.78,87.74L554.78,88.55L632.21,88.23L632.21,87.26L633.79,87.26" style="vector-effect: non-scaling-stroke; fill: none; stroke: rgb(172, 142, 24); stroke-opacity: 1; stroke-width: 1px; opacity: 1;"/></g><g class="points"/><g class="text"/></g><g class="trace scatter trace1a9070" style="stroke-miterlimit: 2; opacity: 1;"><g class="fills"/><g class="errorbars"/><g class="lines"><path class="js-line" d="M20.95,88.55L75.2,88.55L75.2,87.74L77.23,87.26L77.23,86.29L91.44,86.29L91.44,88.55L225.3,88.39L225.3,87.74L229.61,87.1L229.61,86.78L240.97,86.78L240.97,88.55L297.97,88.23L297.97,87.74L307.37,87.74L307.37,88.55L373.64,87.91L373.64,87.58L395.93,87.42L395.93,88.55L633.78,88.23" style="vector-effect: non-scaling-stroke; fill: none; stroke: rgb(0, 170, 174); stroke-opacity: 1; stroke-width: 1px; opacity: 1;"/></g><g class="points"/><g class="text"/></g><g class="trace scatter trace2600c7" style="stroke-miterlimit: 2; opacity: 1;"><g class="fills"/><g class="errorbars"/><g class="lines"><path class="js-line" d="M21.49,88.55L79.61,88.55L79.61,87.42L80.84,87.42L80.84,85.65L84.76,85.65L84.76,83.87L85.98,83.87L85.98,82.91L89.16,82.91L89.16,88.55L165.43,88.39L165.43,87.58L173.83,87.58L173.83,88.55L227.48,88.55L227.48,87.58L231.28,86.94L231.28,86.45L240.98,86.45L240.98,88.55L633.78,88.55" style="vector-effect: non-scaling-stroke; fill: none; stroke: rgb(237, 94, 147); stroke-opacity: 1; stroke-width: 1px; opacity: 1;"/></g><g class="points"/><g class="text"/></g><g class="trace scatter tracee8855f" style="stroke-miterlimit: 2; opacity: 1;"><g class="fills"/><g class="errorbars"/><g class="lines"><path class="js-line" d="M21.95,88.55L84.02,88.55L84.02,87.26L85.11,87.26L85.11,85.81L91.43,85.81L91.43,88.55L546.35,88.55L546.35,87.74L551.92,87.58L551.92,88.55L633.78,88.55" style="vector-effect: non-scaling-stroke; fill: none; stroke: rgb(198, 130, 37); stroke-opacity: 1; stroke-width: 1px; opacity: 1;"/></g><g class="points"/><g class="text"/></g><g class="trace scatter traceed74cb" style="stroke-miterlimit: 2; opacity: 1;"><g class="fills"/><g class="errorbars"/><g class="lines"><path class="js-line" d="M21.96,88.55L82.7,88.55L82.7,87.42L84.27,87.42L84.27,85.32L89.16,85.32L89.16,88.55L168.05,88.07L168.05,86.78L173.84,86.78L173.84,88.55L372.36,88.07L372.36,87.58L390.71,87.58L390.71,88.55L541.53,88.39L541.53,87.74L547.61,87.1L547.61,86.45L551.92,86.29L551.92,88.55L633.78,88.55" style="vector-effect: non-scaling-stroke; fill: none; stroke: rgb(0, 169, 141); stroke-opacity: 1; stroke-width: 1px; opacity: 1;"/></g><g class="points"/><g class="text"/></g><g class="trace scatter trace6f7335" style="stroke-miterlimit: 2; opacity: 1;"><g class="fills"/><g class="errorbars"/><g class="lines"><path class="js-line" d="M21.96,80.81L33.27,80.81L33.27,88.55L82.06,88.55L82.06,86.62L91.44,86.62L91.44,88.55L227.88,88.07L227.88,87.58L230.38,87.58L230.38,85.97L235.74,85.49L235.74,88.55L290.15,88.55L290.15,87.58L293.14,86.94L293.14,86.78L296.58,86.45L296.58,85.97L307.37,85.81L307.37,88.55L371.41,88.23L371.41,87.58L384.96,87.58L384.96,88.55L544.09,87.91L544.09,87.42L551.9,86.94L551.9,88.55L633.89,88.23" style="vector-effect: non-scaling-stroke; fill: none; stroke: rgb(142, 151, 30); stroke-opacity: 1; stroke-width: 1px; opacity: 1;"/></g><g class="points"/><g class="text"/></g><g class="trace scatter trace529f23" style="stroke-miterlimit: 2; opacity: 1;"><g class="fills"/><g class="errorbars"/><g class="lines"><path class="js-line" d="M21.96,88.55L163.2,88.55L163.2,87.58L168.54,87.42L168.54,86.45L173.84,85.97L173.84,88.55L373.08,88.07L373.08,87.58L390.71,87.1L390.71,88.55L443.51,87.91L443.51,87.74L445.3,87.74L445.3,88.55L630.46,88.23L630.46,87.42L633.78,87.42" style="vector-effect: non-scaling-stroke; fill: none; stroke: rgb(0, 169, 204); stroke-opacity: 1; stroke-width: 1px; opacity: 1;"/></g><g class="points"/><g class="text"/></g><g class="trace scatter trace4e9019" style="stroke-miterlimit: 2; opacity: 1;"><g class="fills"/><g class="errorbars"/><g class="lines"><path class="js-line" d="M21.96,88.55L75.2,88.55L75.2,85.49L79.12,85.49L79.12,82.91L79.97,82.91L79.97,80.81L91.42,80.81L91.42,88.55L163.19,88.55L163.19,87.58L164.63,87.58L164.63,86.29L168.55,86.29L168.55,85.32L173.82,84.84L173.82,88.55L229.61,87.91L229.61,87.58L235.77,87.58L235.77,88.55L626.62,88.55L626.62,87.74L628.7,87.26L628.7,86.62L633.78,86.62" style="vector-effect: non-scaling-stroke; fill: none; stroke: rgb(155, 127, 233); stroke-opacity: 1; stroke-width: 1px; opacity: 1;"/></g><g class="points"/><g class="text"/></g><g class="trace scatter tracebeee4e" style="stroke-miterlimit: 2; opacity: 1;"><g class="fills"/><g class="errorbars"/><g class="lines"><path class="js-line" d="M21.97,88.55L78.26,88.55L78.26,87.42L79.97,87.42L79.97,85.32L98.01,85.32L98.01,88.55L296.58,88.07L296.58,87.58L307.36,87.42L307.36,88.55L456.07,88.39L456.07,87.42L460.03,87.26L460.03,85.32L461.24,85.32L461.24,84.2L471.89,84.2L471.89,88.55L630.88,88.55L630.88,87.58L632.1,87.58L632.1,86.78L633.78,86.45" style="vector-effect: non-scaling-stroke; fill: none; stroke: rgb(97, 141, 246); stroke-opacity: 1; stroke-width: 1px; opacity: 1;"/></g><g class="points"/><g class="text"/></g><g class="trace scatter tracef20032" style="stroke-miterlimit: 2; opacity: 1;"><g class="fills"/><g class="errorbars"/><g class="lines"><path class="js-line" d="M21.97,86.13L33.27,86.13L33.27,88.55L225.3,88.39L225.3,87.74L228.69,87.58L228.69,86.78L240.98,86.78L240.98,88.55L544.97,88.23L544.97,87.74L546.36,87.74L546.36,86.94L551.9,86.78L551.9,88.55L633.78,88.55" style="vector-effect: non-scaling-stroke; fill: none; stroke: rgb(240, 96, 115); stroke-opacity: 1; stroke-width: 1px; opacity: 1;"/></g><g class="points"/><g class="text"/></g><g class="trace scatter trace898e9f" style="stroke-miterlimit: 2; opacity: 1;"><g class="fills"/><g class="errorbars"/><g class="lines"><path class="js-line" d="M21.97,88.55L83.37,88.55L83.37,87.42L84.27,87.42L84.27,85.16L89.16,85.16L89.16,88.55L166.26,88.07L166.26,87.42L167.19,87.42L167.19,86.62L179.11,86.13L179.11,88.55L370.62,88.07L370.62,87.74L395.91,87.26L395.91,88.55L456.07,88.55L456.07,87.74L458.6,87.42L458.6,86.78L459.52,86.78L459.52,85.16L462.94,84.52L462.94,84.36L466.59,84.36L466.59,88.55L633.78,88.55" style="vector-effect: non-scaling-stroke; fill: none; stroke: rgb(221, 101, 182); stroke-opacity: 1; stroke-width: 1px; opacity: 1;"/></g><g class="points"/><g class="text"/></g><g class="trace scatter traceb390ca" style="stroke-miterlimit: 2; opacity: 1;"><g class="fills"/><g class="errorbars"/><g class="lines"><path class="js-line" d="M21.97,88.55L80.5,88.55L80.5,87.26L81.71,87.26L81.71,86.13L82.04,86.13L82.04,84.2L89.18,84.2L89.18,88.55L460.03,88.39L460.03,86.94L471.89,86.94L471.89,88.55L633.2,88.55" style="vector-effect: non-scaling-stroke; fill: none; stroke: rgb(108, 159, 51); stroke-opacity: 1; stroke-width: 1px; opacity: 1;"/></g><g class="points"/><g class="text"/></g><g class="trace scatter tracef26f67" style="stroke-miterlimit: 2; opacity: 1;"><g class="fills"/><g class="errorbars"/><g class="lines"><path class="js-line" d="M21.97,85.49L33.27,85.49L33.27,88.55L80.52,88.55L80.52,87.1L81.71,87.1L81.71,86.13L83.43,85.97L83.43,83.71L91.44,83.71L91.44,88.55L459.45,88.55L459.45,87.42L471.89,86.94L471.89,88.55L632.66,88.55L632.66,87.26L633.85,87.26" style="vector-effect: non-scaling-stroke; fill: none; stroke: rgb(0, 154, 250); stroke-opacity: 1; stroke-width: 1px; opacity: 1;"/></g><g class="points"/><g class="text"/></g><g class="trace scatter tracecee943" style="stroke-miterlimit: 2; opacity: 1;"><g class="fills"/><g class="errorbars"/><g class="lines"><path class="js-line" d="M21.97,88.55L76.41,87.91L76.41,87.26L77.23,87.26L77.23,86.29L98,86.29L98,88.55L162.91,87.91L162.91,87.58L164.64,87.58L164.64,86.62L166.61,86.62L166.61,85.49L173.84,85.49L173.84,88.55L224.24,88.23L224.24,87.74L226.17,87.74L226.17,86.78L235.76,86.78L235.76,88.55L293.7,88.07L293.7,87.58L302.16,87.58L302.16,88.55L543.63,88.55L543.63,87.74L551.92,87.74L551.92,88.55L632.21,88.07L632.21,87.1L633.79,87.1" style="vector-effect: non-scaling-stroke; fill: none; stroke: rgb(227, 111, 71); stroke-opacity: 1; stroke-width: 1px; opacity: 1;"/></g><g class="points"/><g class="text"/></g><g class="trace scatter trace41f88f" style="stroke-miterlimit: 2; opacity: 1;"><g class="fills"/><g class="errorbars"/><g class="lines"><path class="js-line" d="M21.97,88.55L81.35,88.55L81.35,87.26L85.5,86.78L85.5,85L91.43,84.68L91.43,88.55L168.05,88.07L168.05,86.78L179.11,86.78L179.11,88.55L226.17,88.55L226.17,87.58L235.77,86.94L235.77,88.55L296.18,87.91L296.18,87.58L302.15,87.58L302.15,88.55L457.82,88.39L457.82,86.78L461.09,86.78L461.09,85.81L471.89,85.16L471.89,88.55L618.27,88.55L618.27,87.58L629.62,87.58L629.62,86.62L633.78,86.62" style="vector-effect: non-scaling-stroke; fill: none; stroke: rgb(62, 164, 78); stroke-opacity: 1; stroke-width: 1px; opacity: 1;"/></g><g class="points"/><g class="text"/></g><g class="trace scatter trace1f4e8b" style="stroke-miterlimit: 2; opacity: 1;"><g class="fills"/><g class="errorbars"/><g class="lines"><path class="js-line" d="M22.71,88.55L83.4,88.55L83.4,86.29L91.43,86.29L91.43,88.55L229.24,88.55L229.24,87.58L235.77,87.42L235.77,88.55L630.88,88.55L630.88,87.74L633.79,87.42" style="vector-effect: non-scaling-stroke; fill: none; stroke: rgb(195, 113, 210); stroke-opacity: 1; stroke-width: 1px; opacity: 1;"/></g><g class="points"/><g class="text"/></g><g class="trace scatter traced5ea4c" style="stroke-miterlimit: 2; opacity: 1;"><g class="fills"/><g class="errorbars"/><g class="lines"><path class="js-line" d="M23.55,88.55L81.34,88.55L81.34,87.1L85.5,86.62L85.5,84.68L91.44,84.52L91.44,88.55L456.06,88.55L456.06,87.74L458.39,87.42L458.39,85.97L466.59,85.97L466.59,88.55L546.99,88.07L546.99,87.42L551.92,87.26L551.92,88.55L630.16,88.55L630.16,87.74L633.79,87.26" style="vector-effect: non-scaling-stroke; fill: none; stroke: rgb(172, 142, 24); stroke-opacity: 1; stroke-width: 1px; opacity: 1;"/></g><g class="points"/><g class="text"/></g><g class="trace scatter tracec9e9d3" style="stroke-miterlimit: 2; opacity: 1;"><g class="fills"/><g class="errorbars"/><g class="lines"><path class="js-line" d="M23.55,88.55L78.27,88.55L78.27,85.49L79.12,85.49L79.12,84.2L79.6,84.2L79.6,83.07L80.84,83.07L80.84,81.13L98,81.13L98,88.55L165.98,87.91L165.98,87.1L170.74,86.94L170.74,88.55L228.69,88.55L228.69,87.74L240.98,87.74L240.98,88.55L627.87,87.91L627.87,87.42L629.18,86.78L629.18,86.45L630.46,86.45L630.46,85.65L633.79,85.65" style="vector-effect: non-scaling-stroke; fill: none; stroke: rgb(0, 170, 174); stroke-opacity: 1; stroke-width: 1px; opacity: 1;"/></g><g class="points"/><g class="text"/></g><g class="trace scatter tracec548c8" style="stroke-miterlimit: 2; opacity: 1;"><g class="fills"/><g class="errorbars"/><g class="lines"><path class="js-line" d="M23.56,88.55L227.48,88.55L227.48,87.58L240.98,87.58L240.98,88.55L458.6,88.23L458.6,86.29L461.24,85.81L461.24,84.68L466.58,84.68L466.58,88.55L544.76,87.91L544.76,87.74L545.88,87.74L545.88,86.78L549.02,86.13L549.02,88.55L633.78,88.55" style="vector-effect: non-scaling-stroke; fill: none; stroke: rgb(237, 94, 147); stroke-opacity: 1; stroke-width: 1px; opacity: 1;"/></g><g class="points"/><g class="text"/></g><g class="trace scatter traceeaf259" style="stroke-miterlimit: 2; opacity: 1;"><g class="fills"/><g class="errorbars"/><g class="lines"><path class="js-line" d="M23.56,88.55L84.02,88.55L84.02,87.1L85.11,87.1L85.11,85.65L96,85.65L96,88.55L229.23,88.55L229.23,87.58L240.97,87.42L240.97,88.55L375.72,88.07L375.72,87.74L395.93,87.58L395.93,88.55L459.45,88.55L459.45,87.58L466.59,87.1L466.59,88.55L630.16,88.55L630.16,87.58L633.19,87.58" style="vector-effect: non-scaling-stroke; fill: none; stroke: rgb(198, 130, 37); stroke-opacity: 1; stroke-width: 1px; opacity: 1;"/></g><g class="points"/><g class="text"/></g></g></g><g class="overplot"/><path class="xlines-above crisp" d="M0,0" style="fill: none;"/><path class="ylines-above crisp" d="M63.15923009623797,35.84524156702635V126.97517555586089" style="fill: none; stroke-width: 1px; stroke: rgb(0, 0, 0); stroke-opacity: 1;"/><g class="overlines-above"/><g class="xaxislayer-above"/><g class="yaxislayer-above"><path class="ytick ticks crisp" d="M63.65923009623797,0h5" transform="translate(0,124.39524156702635)" style="stroke: rgb(0, 0, 0); stroke-opacity: 1; stroke-width: 1px;"/><path class="ytick ticks crisp" d="M63.65923009623797,0h5" transform="translate(0,108.26524156702635)" style="stroke: rgb(0, 0, 0); stroke-opacity: 1; stroke-width: 1px;"/><path class="ytick ticks crisp" d="M63.65923009623797,0h5" transform="translate(0,92.13524156702636)" style="stroke: rgb(0, 0, 0); stroke-opacity: 1; stroke-width: 1px;"/><path class="ytick ticks crisp" d="M63.65923009623797,0h5" transform="translate(0,76.00524156702635)" style="stroke: rgb(0, 0, 0); stroke-opacity: 1; stroke-width: 1px;"/><path class="ytick ticks crisp" d="M63.65923009623797,0h5" transform="translate(0,59.87524156702635)" style="stroke: rgb(0, 0, 0); stroke-opacity: 1; stroke-width: 1px;"/><path class="ytick ticks crisp" d="M63.65923009623797,0h5" transform="translate(0,43.74524156702635)" style="stroke: rgb(0, 0, 0); stroke-opacity: 1; stroke-width: 1px;"/><g class="ytick"><text text-anchor="end" x="59.85923009623797" y="4.8999999999999995" transform="translate(0,124.39524156702635)" style="font-family: sans-serif; font-size: 14px; fill: rgb(0, 0, 0); fill-opacity: 1; white-space: pre; opacity: 1;">0</text></g><g class="ytick"><text text-anchor="end" x="59.85923009623797" y="4.8999999999999995" style="font-family: sans-serif; font-size: 14px; fill: rgb(0, 0, 0); fill-opacity: 1; white-space: pre; opacity: 1;" transform="translate(0,108.26524156702635)">100</text></g><g class="ytick"><text text-anchor="end" x="59.85923009623797" y="4.8999999999999995" style="font-family: sans-serif; font-size: 14px; fill: rgb(0, 0, 0); fill-opacity: 1; white-space: pre; opacity: 1;" transform="translate(0,92.13524156702636)">200</text></g><g class="ytick"><text text-anchor="end" x="59.85923009623797" y="4.8999999999999995" style="font-family: sans-serif; font-size: 14px; fill: rgb(0, 0, 0); fill-opacity: 1; white-space: pre; opacity: 1;" transform="translate(0,76.00524156702635)">300</text></g><g class="ytick"><text text-anchor="end" x="59.85923009623797" y="4.8999999999999995" style="font-family: sans-serif; font-size: 14px; fill: rgb(0, 0, 0); fill-opacity: 1; white-space: pre; opacity: 1;" transform="translate(0,59.87524156702635)">400</text></g><g class="ytick"><text text-anchor="end" x="59.85923009623797" y="4.8999999999999995" style="font-family: sans-serif; font-size: 14px; fill: rgb(0, 0, 0); fill-opacity: 1; white-space: pre; opacity: 1;" transform="translate(0,43.74524156702635)">500</text></g></g><g class="overaxes-above"/></g><g class="subplot xy2"><g class="layer-subplot"><g class="shapelayer"/><g class="imagelayer"/></g><g class="gridlayer"><g class="x"><path class="xgrid crisp" transform="translate(82.11923009623797,0)" d="M0,172.24590560349384v91.1299339888345" style="stroke: rgb(0, 0, 0); stroke-opacity: 0.1; stroke-width: 0.5px;"/><path class="xgrid crisp" transform="translate(107.76923009623798,0)" d="M0,172.24590560349384v91.1299339888345" style="stroke: rgb(0, 0, 0); stroke-opacity: 0.1; stroke-width: 0.5px;"/><path class="xgrid crisp" transform="translate(133.40923009623796,0)" d="M0,172.24590560349384v91.1299339888345" style="stroke: rgb(0, 0, 0); stroke-opacity: 0.1; stroke-width: 0.5px;"/><path class="xgrid crisp" transform="translate(159.05923009623797,0)" d="M0,172.24590560349384v91.1299339888345" style="stroke: rgb(0, 0, 0); stroke-opacity: 0.1; stroke-width: 0.5px;"/><path class="xgrid crisp" transform="translate(184.69923009623798,0)" d="M0,172.24590560349384v91.1299339888345" style="stroke: rgb(0, 0, 0); stroke-opacity: 0.1; stroke-width: 0.5px;"/><path class="xgrid crisp" transform="translate(210.34923009623796,0)" d="M0,172.24590560349384v91.1299339888345" style="stroke: rgb(0, 0, 0); stroke-opacity: 0.1; stroke-width: 0.5px;"/><path class="xgrid crisp" transform="translate(235.98923009623797,0)" d="M0,172.24590560349384v91.1299339888345" style="stroke: rgb(0, 0, 0); stroke-opacity: 0.1; stroke-width: 0.5px;"/><path class="xgrid crisp" transform="translate(261.63923009623795,0)" d="M0,172.24590560349384v91.1299339888345" style="stroke: rgb(0, 0, 0); stroke-opacity: 0.1; stroke-width: 0.5px;"/><path class="xgrid crisp" transform="translate(287.279230096238,0)" d="M0,172.24590560349384v91.1299339888345" style="stroke: rgb(0, 0, 0); stroke-opacity: 0.1; stroke-width: 0.5px;"/><path class="xgrid crisp" transform="translate(312.929230096238,0)" d="M0,172.24590560349384v91.1299339888345" style="stroke: rgb(0, 0, 0); stroke-opacity: 0.1; stroke-width: 0.5px;"/><path class="xgrid crisp" transform="translate(338.569230096238,0)" d="M0,172.24590560349384v91.1299339888345" style="stroke: rgb(0, 0, 0); stroke-opacity: 0.1; stroke-width: 0.5px;"/><path class="xgrid crisp" transform="translate(364.219230096238,0)" d="M0,172.24590560349384v91.1299339888345" style="stroke: rgb(0, 0, 0); stroke-opacity: 0.1; stroke-width: 0.5px;"/><path class="xgrid crisp" transform="translate(389.859230096238,0)" d="M0,172.24590560349384v91.1299339888345" style="stroke: rgb(0, 0, 0); stroke-opacity: 0.1; stroke-width: 0.5px;"/><path class="xgrid crisp" transform="translate(415.509230096238,0)" d="M0,172.24590560349384v91.1299339888345" style="stroke: rgb(0, 0, 0); stroke-opacity: 0.1; stroke-width: 0.5px;"/><path class="xgrid crisp" transform="translate(441.149230096238,0)" d="M0,172.24590560349384v91.1299339888345" style="stroke: rgb(0, 0, 0); stroke-opacity: 0.1; stroke-width: 0.5px;"/><path class="xgrid crisp" transform="translate(466.799230096238,0)" d="M0,172.24590560349384v91.1299339888345" style="stroke: rgb(0, 0, 0); stroke-opacity: 0.1; stroke-width: 0.5px;"/><path class="xgrid crisp" transform="translate(492.43923009623796,0)" d="M0,172.24590560349384v91.1299339888345" style="stroke: rgb(0, 0, 0); stroke-opacity: 0.1; stroke-width: 0.5px;"/><path class="xgrid crisp" transform="translate(518.089230096238,0)" d="M0,172.24590560349384v91.1299339888345" style="stroke: rgb(0, 0, 0); stroke-opacity: 0.1; stroke-width: 0.5px;"/><path class="xgrid crisp" transform="translate(543.729230096238,0)" d="M0,172.24590560349384v91.1299339888345" style="stroke: rgb(0, 0, 0); stroke-opacity: 0.1; stroke-width: 0.5px;"/><path class="xgrid crisp" transform="translate(569.379230096238,0)" d="M0,172.24590560349384v91.1299339888345" style="stroke: rgb(0, 0, 0); stroke-opacity: 0.1; stroke-width: 0.5px;"/><path class="xgrid crisp" transform="translate(595.019230096238,0)" d="M0,172.24590560349384v91.1299339888345" style="stroke: rgb(0, 0, 0); stroke-opacity: 0.1; stroke-width: 0.5px;"/><path class="xgrid crisp" transform="translate(620.6692300962379,0)" d="M0,172.24590560349384v91.1299339888345" style="stroke: rgb(0, 0, 0); stroke-opacity: 0.1; stroke-width: 0.5px;"/><path class="xgrid crisp" transform="translate(646.3092300962379,0)" d="M0,172.24590560349384v91.1299339888345" style="stroke: rgb(0, 0, 0); stroke-opacity: 0.1; stroke-width: 0.5px;"/><path class="xgrid crisp" transform="translate(671.9492300962379,0)" d="M0,172.24590560349384v91.1299339888345" style="stroke: rgb(0, 0, 0); stroke-opacity: 0.1; stroke-width: 0.5px;"/><path class="xgrid crisp" transform="translate(697.599230096238,0)" d="M0,172.24590560349384v91.1299339888345" style="stroke: rgb(0, 0, 0); stroke-opacity: 0.1; stroke-width: 0.5px;"/></g><g class="y2"><path class="y2grid crisp" transform="translate(0,260.79590560349385)" d="M63.65923009623797,0h652.4037620297463" style="stroke: rgb(0, 0, 0); stroke-opacity: 0.1; stroke-width: 0.5px;"/><path class="y2grid crisp" transform="translate(0,233.36590560349384)" d="M63.65923009623797,0h652.4037620297463" style="stroke: rgb(0, 0, 0); stroke-opacity: 0.1; stroke-width: 0.5px;"/><path class="y2grid crisp" transform="translate(0,205.93590560349384)" d="M63.65923009623797,0h652.4037620297463" style="stroke: rgb(0, 0, 0); stroke-opacity: 0.1; stroke-width: 0.5px;"/><path class="y2grid crisp" transform="translate(0,178.50590560349383)" d="M63.65923009623797,0h652.4037620297463" style="stroke: rgb(0, 0, 0); stroke-opacity: 0.1; stroke-width: 0.5px;"/></g></g><g class="zerolinelayer"/><path class="xlines-below"/><path class="ylines-below"/><g class="overlines-below"/><g class="xaxislayer-below"/><g class="yaxislayer-below"/><g class="overaxes-below"/><g class="plot" transform="translate(63.65923009623797,172.24590560349384)" clip-path="url(#clip95c020xy2plot)"><g class="scatterlayer mlayer"><g class="trace scatter traceb38398" style="stroke-miterlimit: 2; opacity: 1;"><g class="fills"/><g class="errorbars"/><g class="lines"><path class="js-line" d="M18.46,85.11L19.32,85.11L19.32,84.07L20.17,84.07L20.17,80.8L21.03,80.8L21.03,79.21L21.88,79.21L21.88,74.03L22.74,74.03L22.74,68.37L23.59,68.37L23.59,55.27L24.45,55.27L24.45,43.02L25.3,43.02L25.3,60.29L26.16,60.29L26.16,35.58L27.01,35.58L27.01,30.13L28.72,30.08L28.72,19.77L29.58,19.77L29.58,35.88L30.43,35.88L30.43,41.5L31.29,41.5L31.29,48.68L32.14,48.68L32.14,66.2L33,66.2L33,76.77L33.85,76.77L33.85,77.78L34.71,77.78L34.71,87.72L39.83,88.31L39.83,88.55L50.95,88.55L50.95,80.44L51.8,80.44L51.8,82.95L52.66,82.95L52.66,88.55L62.06,88.55L62.06,84.36L62.92,84.36L62.92,83.31L63.77,83.31L63.77,87.93L69.75,87.83L69.75,87.08L72.32,87.08L72.32,83.49L74.88,82.81L74.88,83.83L75.74,83.83L75.74,82.04L76.59,82.04L76.59,79.2L77.45,79.2L77.45,64.96L78.3,64.96L78.3,58.15L79.16,58.15L79.16,55.34L80.01,55.34L80.01,46.05L80.87,46.05L80.87,36.81L81.72,36.81L81.72,27.17L82.58,27.17L82.58,40.92L83.43,40.92L83.43,30.57L84.29,30.57L84.29,36.94L85.14,36.94L85.14,34.03L86,34.03L86,54.53L87.71,54.83L87.71,56.89L89.41,57.03L89.41,68.43L90.27,68.43L90.27,73.22L91.12,73.22L91.12,77.07L91.98,77.07L91.98,82.68L92.83,82.68L92.83,85.09L94.54,85.55L94.54,86.32L96.25,86.22L96.25,82.41L97.96,82.41L97.96,85.8L98.82,85.8L98.82,86.69L100.53,86.16L100.53,85.09L102.24,85.09L102.24,86.2L104.8,86.06L104.8,84L106.51,83.7L106.51,82.68L107.37,82.68L107.37,81.65L108.22,81.65L108.22,80.22L109.08,80.22L109.08,78.92L110.79,78.28L110.79,70.85L112.5,70.55L112.5,51.43L113.35,51.43L113.35,53.08L114.2,53.08L114.2,41.13L115.06,41.13L115.06,30.57L115.91,30.57L115.91,20.68L116.77,20.68L116.77,30.47L117.62,30.47L117.62,28.78L118.48,28.78L118.48,39.19L119.33,39.19L119.33,30.67L120.19,30.67L120.19,43.11L121.04,43.11L121.04,62.72L121.9,62.72L121.9,86.24L122.75,86.24L122.75,87.5L130.45,87.6L130.45,86.78L139.85,87.41L139.85,88.55L143.27,88.55L143.27,85.43L144.12,85.43L144.12,81.66L144.98,81.66L144.98,85.99L147.54,85.99L147.54,86.96L156.95,86.58L156.95,86.06L159.51,85.43L159.51,84.37L160.37,84.37L160.37,73.14L161.22,73.14L161.22,71.22L162.08,71.22L162.08,65.34L162.93,65.34L162.93,70.47L163.78,70.47L163.78,63.58L164.64,63.58L164.64,56.86L165.49,56.86L165.49,50.99L167.2,50.45L167.2,43.23L168.06,43.23L168.06,44.98L168.91,44.98L168.91,47.2L169.77,47.2L169.77,54.01L170.62,54.01L170.62,60.22L171.48,60.22L171.48,66.7L172.33,66.7L172.33,74.49L173.19,74.49L173.19,79.28L174.04,79.28L174.04,80.69L174.9,80.69L174.9,81.88L175.75,81.88L175.75,85.12L178.32,85.76L178.32,84.81L179.17,84.81L179.17,83.39L180.03,83.39L180.03,86.32L186.01,85.88L186.01,87.57L186.87,87.57L186.87,78.4L187.72,78.4L187.72,80.67L189.43,80.3L189.43,77.62L190.28,77.62L190.28,73.1L191.14,73.1L191.14,74.9L191.99,74.9L191.99,73.76L194.56,73.3L194.56,73.93L195.41,73.93L195.41,63.44L196.27,63.44L196.27,79.99L197.12,79.99L197.12,85.08L206.53,85.46L206.53,86.35L207.38,86.35L207.38,84.29L209.09,84.02L209.09,84.93L209.95,84.93L209.95,83.57L210.8,83.57L210.8,82.74L214.22,82.27L214.22,83.33L215.07,83.33L215.07,84.15L216.78,84.51L216.78,85.94L220.2,86.67L220.2,85.81L221.06,85.81L221.06,84.49L221.91,84.49L221.91,81.38L222.77,81.38L222.77,82.62L223.62,82.62L223.62,78.59L224.48,78.59L224.48,74.49L225.33,74.49L225.33,76.22L226.19,76.22L226.19,61.15L227.9,61.75L227.9,59.32L228.75,59.32L228.75,54.26L229.61,54.26L229.61,46.64L230.46,46.64L230.46,60.91L231.32,60.91L231.32,65.49L232.17,65.49L232.17,68.74L233.03,68.74L233.03,71.37L233.88,71.37L233.88,77.05L234.74,77.05L234.74,78.03L235.59,78.03L235.59,81.27L236.45,81.27L236.45,82.45L237.3,82.45L237.3,85.21L239.86,85.62L239.86,86.11L247.56,85.72L247.56,85.04L248.41,85.04L248.41,81.31L249.27,81.31L249.27,77.07L250.12,77.07L250.12,75.51L250.98,75.51L250.98,73.71L252.69,73.13L252.69,77.41L253.54,77.41L253.54,82.68L254.4,82.68L254.4,86.22L255.25,86.22L255.25,85.19L256.11,85.19L256.11,81.82L256.96,81.82L256.96,84.43L264.65,84.58L264.65,82.39L265.51,82.39L265.51,81.62L266.36,81.62L266.36,84.25L268.93,84.39L268.93,79.92L269.78,79.92L269.78,77.87L270.64,77.87L270.64,80.81L271.49,80.81L271.49,73.98L272.35,73.98L272.35,72.15L273.2,72.15L273.2,64.15L274.06,64.15L274.06,49.09L274.91,49.09L274.91,46.09L275.77,46.09L275.77,55.37L276.62,55.37L276.62,66.98L277.48,66.98L277.48,61.86L278.33,61.86L278.33,77.75L279.19,77.75L279.19,85.09L280.04,85.09L280.04,83.98L280.9,83.98L280.9,86L282.61,86.18L282.61,86.85L286.88,86.43L286.88,85.66L288.59,85.25L288.59,83.03L289.44,83.03L289.44,79.6L291.15,79.83L291.15,74.68L292.01,74.68L292.01,72.22L292.86,72.22L292.86,75.49L293.72,75.49L293.72,69.18L294.57,69.18L294.57,75.25L295.43,75.25L295.43,66.48L296.28,66.48L296.28,54.13L297.14,54.13L297.14,66.33L297.99,66.33L297.99,73.45L299.7,74.2L299.7,73.42L300.56,73.42L300.56,77.52L301.41,77.52L301.41,80.73L302.27,80.73L302.27,79.78L303.12,79.78L303.12,83.72L303.98,83.72L303.98,84.68L305.69,85.4L305.69,85.86L311.67,85.95L311.67,85.61L312.52,85.61L312.52,82.29L313.38,82.29L313.38,85.4L314.23,85.4L314.23,87.6L321.93,87.59L321.93,86.68L333.04,86.41L333.04,87.3L336.46,87.4L336.46,85.03L339.02,85.55L339.02,86.37L342.44,85.62L342.44,84.71L344.15,84.6L344.15,77.55L345.01,77.55L345.01,75.72L346.72,75.99L346.72,70.14L347.57,70.14L347.57,73.11L348.43,73.11L348.43,71.45L349.28,71.45L349.28,72.45L350.14,72.45L350.14,73.77L350.99,73.77L350.99,75.25L351.85,75.25L351.85,72.79L352.7,72.79L352.7,79.69L353.56,79.69L353.56,84.32L354.41,84.32L354.41,82.42L355.27,82.42L355.27,83.34L356.12,83.34L356.12,85.68L357.83,86.06L357.83,86.62L362.96,86.82L362.96,86L364.67,85.73L364.67,84.19L365.52,84.19L365.52,76.62L366.38,76.62L366.38,83.08L367.23,83.08L367.23,81.38L368.09,81.38L368.09,74.8L370.65,75.02L370.65,74.08L373.22,74.6L373.22,73.21L374.93,72.95L374.93,66.72L375.78,66.72L375.78,69.76L376.64,69.76L376.64,76.77L379.2,76.8L379.2,77.55L380.06,77.55L380.06,80.99L380.91,80.99L380.91,83.39L381.77,83.39L381.77,84.84L382.62,84.84L382.62,88.39L383.48,88.39L383.48,82.13L384.33,82.13L384.33,85.98L385.18,85.98L385.18,88.55L386.04,88.55L386.04,84.55L386.89,84.55L386.89,86.1L390.31,86.6L390.31,87.14L391.17,87.14L391.17,88.55L394.59,88.55L394.59,87.75L395.44,87.75L395.44,84.78L396.3,84.78L396.3,88.55L407.41,88.55L407.41,83.98L408.27,83.98L408.27,88.21L427.07,88.07L427.07,85.54L431.35,85.54L431.35,84.51L432.2,84.51L432.2,71.62L433.06,71.62L433.06,63.88L433.91,63.88L433.91,57.6L434.76,57.6L434.76,43.52L435.62,43.52L435.62,25.45L437.33,25.29L437.33,18.33L438.18,18.33L438.18,24L439.89,23.31L439.89,35.11L440.75,35.11L440.75,45.77L441.6,45.77L441.6,62.68L442.46,62.68L442.46,78.04L443.31,78.04L443.31,81.9L445.02,81.45L445.02,84.18L445.88,84.18L445.88,85.94L447.59,86.69L447.59,86.79L451.01,86.64L451.01,85.84L451.86,85.84L451.86,84.7L452.72,84.7L452.72,81.86L453.57,81.86L453.57,82.79L454.43,82.79L454.43,78.24L455.28,78.24L455.28,65.83L456.14,65.83L456.14,49.14L456.99,49.14L456.99,14.21L457.85,14.21L457.85,46.77L458.7,46.77L458.7,35.33L459.55,35.33L459.55,3.16L460.41,3.16L460.41,34.9L461.26,34.9L461.26,16.41L462.12,16.41L462.12,42.95L462.97,42.95L462.97,70.11L463.83,70.11L463.83,73.11L464.68,73.11L464.68,76.08L465.54,76.08L465.54,79.74L466.39,79.74L466.39,75.83L467.25,75.83L467.25,84.09L468.1,84.09L468.1,80.33L468.96,80.33L468.96,85.01L469.81,85.01L469.81,85.83L472.38,85.53L472.38,85.47L473.23,85.47L473.23,88.55L488.62,88.55L488.62,84.86L489.47,84.86L489.47,87.67L490.33,87.67L490.33,88.55L512.55,88.55L512.55,87.12L513.41,87.12L513.41,84.39L515.12,84.67L515.12,83.13L515.97,83.13L515.97,79.87L517.68,79.98L517.68,77.03L518.54,77.03L518.54,69.97L519.39,69.97L519.39,74.93L520.25,74.93L520.25,70.62L521.1,70.62L521.1,62.63L521.96,62.63L521.96,55.54L522.81,55.54L522.81,65.47L523.67,65.47L523.67,52.41L524.52,52.41L524.52,39.23L525.38,39.23L525.38,49.4L526.23,49.4L526.23,62.14L527.09,62.14L527.09,74.73L527.94,74.73L527.94,81.28L528.8,81.28L528.8,84.45L529.65,84.45L529.65,88.41L530.51,88.41L530.51,82.1L531.36,82.1L531.36,85.85L533.92,86.57L533.92,86.84L536.49,86.93L536.49,85.78L538.2,85.48L538.2,84.85L539.05,84.85L539.05,81.73L539.91,81.73L539.91,79.12L540.76,79.12L540.76,71.87L541.62,71.87L541.62,75.22L542.47,75.22L542.47,72.13L543.33,72.13L543.33,61.79L545.04,61.88L545.04,62.86L545.89,62.86L545.89,63.85L546.75,63.85L546.75,58.59L547.6,58.59L547.6,64.02L548.46,64.02L548.46,67.57L549.31,67.57L549.31,72.83L551.02,72.94L551.02,78.74L552.73,78.75L552.73,83.14L554.44,83.4L554.44,86.05L555.3,86.05L555.3,88.55L572.39,88.55L572.39,87.1L573.25,87.1L573.25,85.43L574.1,85.43L574.1,88.55L597.18,88.45L597.18,86.45L602.31,86.48L602.31,84.55L603.17,84.55L603.17,82.93L604.88,82.74L604.88,80.38L605.73,80.38L605.73,76.36L606.59,76.36L606.59,73.85L607.44,73.85L607.44,71.26L608.29,71.26L608.29,62.31L609.15,62.31L609.15,43.73L610,43.73L610,37.68L610.86,37.68L610.86,43.26L611.71,43.26L611.71,47.63L612.57,47.63L612.57,69.38L613.42,69.38L613.42,73.55L614.28,73.55L614.28,75.55L615.13,75.55L615.13,71.69L615.99,71.69L615.99,79.46L616.84,79.46L616.84,84.31L618.55,85.03L618.55,85.74L621.12,86.41L621.12,86.62L624.54,86.63L624.54,85.32L625.39,85.32L625.39,82.6L627.96,82.17L627.96,72.69L628.81,72.69L628.81,50.54L629.67,50.54L629.67,34.39L630.52,34.39L630.52,31.19L631.38,31.19L631.38,35.81L632.23,35.81L632.23,46.85L633.08,46.85L633.08,50.75L633.94,50.75L633.94,88.55" style="vector-effect: non-scaling-stroke; fill: none; stroke: rgb(0, 154, 250); stroke-opacity: 1; stroke-width: 1px; opacity: 1;"/></g><g class="points"/><g class="text"/></g><g class="trace scatter trace11d7c6" style="stroke-miterlimit: 2; opacity: 1;"><g class="fills"/><g class="errorbars"/><g class="lines"><path class="js-line" d="M18.46,88.55L164.64,88.55L164.64,86.85L165.49,86.85L165.49,76.54L166.35,76.54L166.35,47.31L167.2,47.31L167.2,84.08L168.06,84.08L168.06,88.55L226.19,88.55L226.19,85.57L227.04,85.57L227.04,72.99L227.9,72.99L227.9,75.09L228.75,75.09L228.75,88.55L290.3,88.31L290.3,87.02L292.01,87.02L292.01,84.94L292.86,84.94L292.86,81.75L293.72,81.75L293.72,88.55L365.52,88.55L365.52,83.09L366.38,83.09L366.38,84.18L368.94,84.1L368.94,88.55L525.38,88.55L525.38,86.66L526.23,86.66L526.23,77.22L527.09,77.22L527.09,78.92L527.94,78.92L527.94,88.55L530.51,88.27L530.51,79.68L531.36,79.68L531.36,88.55L539.05,88.55L539.05,87.25L539.91,87.25L539.91,86.47L540.76,86.47L540.76,87.36L541.62,87.36L541.62,88.55L633.94,88.55L633.94,88.55" style="vector-effect: non-scaling-stroke; fill: none; stroke: rgb(227, 111, 71); stroke-opacity: 1; stroke-width: 1px; opacity: 1;"/></g><g class="points"/><g class="text"/></g><g class="trace scatter trace022fa9" style="stroke-miterlimit: 2; opacity: 1;"><g class="fills"/><g class="errorbars"/><g class="lines"><path class="js-line" d="M19.32,88.55L167.2,88.55L167.2,56.55L168.06,56.55L168.06,88.55L368.94,88.1L368.94,84.2L369.8,84.2L369.8,75.07L370.65,75.07L370.65,88.55L456.99,88.16L456.99,83.15L457.85,83.15L457.85,44.06L458.7,44.06L458.7,88.55L461.26,88.55L461.26,87.39L462.12,87.39L462.12,71.34L462.97,71.34L462.97,84.07L463.83,84.07L463.83,88.55L540.76,87.84L540.76,82.98L541.62,82.98L541.62,71.98L542.47,71.98L542.47,87.04L543.33,87.04L543.33,71.44L544.18,71.44L544.18,83.43L545.04,83.43L545.04,71.15L545.89,71.15L545.89,88.55L633.08,88.55L633.08,51.98L633.94,51.98L633.94,88.55" style="vector-effect: non-scaling-stroke; fill: none; stroke: rgb(62, 164, 78); stroke-opacity: 1; stroke-width: 1px; opacity: 1;"/></g><g class="points"/><g class="text"/></g><g class="trace scatter trace2b800b" style="stroke-miterlimit: 2; opacity: 1;"><g class="fills"/><g class="errorbars"/><g class="lines"><path class="js-line" d="M19.32,88.55L84.29,88.55L84.29,75.31L85.14,75.31L85.14,59.12L86,59.12L86,62.64L86.85,62.64L86.85,88.55L159.51,87.92L159.51,86.12L160.37,86.12L160.37,84.36L161.22,84.36L161.22,80.11L162.08,80.11L162.08,67.21L162.93,67.21L162.93,79.86L163.78,79.86L163.78,88.55L164.64,88.55L164.64,81.31L165.49,81.31L165.49,68.36L166.35,68.36L166.35,88.55L223.62,88.05L223.62,76.27L224.48,76.27L224.48,78.48L225.33,78.48L225.33,88.55L440.75,88.55L440.75,81.16L442.46,81.31L442.46,85.59L444.17,86.18L444.17,86.37L445.02,86.37L445.02,87.84L544.18,88.55L544.18,86.28L545.89,85.84L545.89,64.82L546.75,64.82L546.75,71.54L547.6,71.54L547.6,88.55L633.94,88.55L633.94,88.55" style="vector-effect: non-scaling-stroke; fill: none; stroke: rgb(195, 113, 210); stroke-opacity: 1; stroke-width: 1px; opacity: 1;"/></g><g class="points"/><g class="text"/></g><g class="trace scatter tracee70f57" style="stroke-miterlimit: 2; opacity: 1;"><g class="fills"/><g class="errorbars"/><g class="lines"><path class="js-line" d="M20.17,88.55L167.2,88.55L167.2,83.72L168.06,83.72L168.06,68.37L168.91,68.37L168.91,76.99L169.77,76.99L169.77,88.55L295.43,88.55L295.43,84.33L296.28,84.33L296.28,78.61L297.14,78.61L297.14,84.43L297.99,84.43L297.99,88.55L373.22,88.55L373.22,87.13L374.07,87.13L374.07,80.14L374.93,80.14L374.93,75.25L375.78,75.25L375.78,84.25L376.64,84.25L376.64,88.55L543.33,88.55L543.33,77.73L544.18,77.73L544.18,76.51L545.04,76.51L545.04,88.55L630.52,88.55L630.52,85.16L631.38,85.16L631.38,81.66L632.23,81.66L632.23,62.26L633.08,62.26L633.08,88.55L633.94,88.55L633.94,88.55" style="vector-effect: non-scaling-stroke; fill: none; stroke: rgb(172, 142, 24); stroke-opacity: 1; stroke-width: 1px; opacity: 1;"/></g><g class="points"/><g class="text"/></g><g class="trace scatter traceccc068" style="stroke-miterlimit: 2; opacity: 1;"><g class="fills"/><g class="errorbars"/><g class="lines"><path class="js-line" d="M20.17,88.55L74.88,88.55L74.88,78.75L75.74,78.75L75.74,72.97L76.59,72.97L76.59,71.57L77.45,71.57L77.45,66.91L78.3,66.91L78.3,88.55L224.48,88.14L224.48,87.38L225.33,87.38L225.33,71.04L226.19,71.04L226.19,88.55L227.9,88.55L227.9,86.76L228.75,86.76L228.75,72.05L229.61,72.05L229.61,79.41L230.46,79.41L230.46,88.55L295.43,88.07L295.43,79.89L296.28,79.89L296.28,88.55L297.99,88.13L297.99,75.26L298.85,75.26L298.85,88.55L367.23,88.55L367.23,87.47L368.94,86.79L368.94,86.57L369.8,86.57L369.8,75.09L370.65,75.09L370.65,88.55L373.22,88.55L373.22,85.4L374.07,85.4L374.07,82.34L374.93,82.34L374.93,84.2L375.78,84.2L375.78,88.55L633.94,88.55L633.94,88.55" style="vector-effect: non-scaling-stroke; fill: none; stroke: rgb(0, 170, 174); stroke-opacity: 1; stroke-width: 1px; opacity: 1;"/></g><g class="points"/><g class="text"/></g><g class="trace scatter trace2e5a12" style="stroke-miterlimit: 2; opacity: 1;"><g class="fills"/><g class="errorbars"/><g class="lines"><path class="js-line" d="M21.03,88.55L79.16,88.55L79.16,78.13L80.01,78.13L80.01,64.05L80.87,64.05L80.87,41.18L81.72,41.18L81.72,88.55L84.29,88.55L84.29,72.96L85.14,72.96L85.14,52.33L86,52.33L86,62.64L86.85,62.64L86.85,88.55L164.64,88.55L164.64,81.31L165.49,81.31L165.49,68.36L166.35,68.36L166.35,88.55L227.04,88.55L227.04,79.19L227.9,79.19L227.9,70.48L228.75,70.48L228.75,88.55L229.61,88.55L229.61,86.32L230.46,86.32L230.46,71.18L231.32,71.18L231.32,76.15L232.17,76.15L232.17,88.55L275.77,88.55L275.77,87.56L276.62,87.56L276.62,82.62L277.48,82.62L277.48,86.33L278.33,86.33L278.33,88.55L280.04,88.55L280.04,83.98L280.9,83.98L280.9,88.55L294.57,88.55L294.57,86.62L295.43,86.62L295.43,83.7L296.28,83.7L296.28,81.62L297.14,81.62L297.14,88.55L368.94,88.55L368.94,87.53L369.8,87.53L369.8,85.83L372.36,85.81L372.36,84.03L373.22,84.03L373.22,88.55L539.05,88.1L539.05,86.95L541.62,87.63L541.62,88.55L633.94,88.55L633.94,88.55" style="vector-effect: non-scaling-stroke; fill: none; stroke: rgb(237, 94, 147); stroke-opacity: 1; stroke-width: 1px; opacity: 1;"/></g><g class="points"/><g class="text"/></g><g class="trace scatter tracecb7ebe" style="stroke-miterlimit: 2; opacity: 1;"><g class="fills"/><g class="errorbars"/><g class="lines"><path class="js-line" d="M21.88,88.55L83.43,88.55L83.43,79.47L84.29,79.47L84.29,57.39L85.14,57.39L85.14,51.08L86,51.08L86,88.55L225.33,88.05L225.33,86.47L226.19,86.47L226.19,85.61L227.04,85.61L227.04,75.79L227.9,75.79L227.9,88.55L292.01,88.55L292.01,85.52L292.86,85.52L292.86,82.38L293.72,82.38L293.72,84.03L294.57,84.03L294.57,88.55L372.36,88.43L372.36,74.96L373.22,74.96L373.22,88.55L545.89,88.55L545.89,81.24L546.75,81.24L546.75,72.7L547.6,72.7L547.6,84.28L548.46,84.28L548.46,88.55L633.94,88.55L633.94,88.55" style="vector-effect: non-scaling-stroke; fill: none; stroke: rgb(198, 130, 37); stroke-opacity: 1; stroke-width: 1px; opacity: 1;"/></g><g class="points"/><g class="text"/></g><g class="trace scatter traceff6e76" style="stroke-miterlimit: 2; opacity: 1;"><g class="fills"/><g class="errorbars"/><g class="lines"><path class="js-line" d="M21.88,88.55L82.58,88.55L82.58,73.71L83.43,73.71L83.43,69.61L84.29,69.61L84.29,30.89L85.14,30.89L85.14,88.55L167.2,88.21L167.2,74.64L168.06,74.64L168.06,52.52L168.91,52.52L168.91,88.55L351.85,88.55L351.85,86L352.7,86L352.7,77.32L353.56,77.32L353.56,87.29L356.98,87.83L356.98,88.55L368.94,88.55L368.94,86.38L369.8,86.38L369.8,85.56L370.65,85.56L370.65,80L371.51,80L371.51,88.55L372.36,88.55L372.36,74.84L373.22,74.84L373.22,88.55L539.05,88.13L539.05,87.12L540.76,87.12L540.76,85.23L541.62,85.23L541.62,72.3L542.47,72.3L542.47,88.55L544.18,88.55L544.18,84.1L545.04,84.1L545.04,74.72L545.89,74.72L545.89,88.55L547.6,88.55L547.6,69.13L548.46,69.13L548.46,85.11L549.31,85.11L549.31,88.55L633.94,88.55L633.94,88.55" style="vector-effect: non-scaling-stroke; fill: none; stroke: rgb(0, 169, 141); stroke-opacity: 1; stroke-width: 1px; opacity: 1;"/></g><g class="points"/><g class="text"/></g><g class="trace scatter trace4b377e" style="stroke-miterlimit: 2; opacity: 1;"><g class="fills"/><g class="errorbars"/><g class="lines"><path class="js-line" d="M21.88,88.55L81.72,88.55L81.72,66.85L82.58,66.85L82.58,55.39L83.43,55.39L83.43,88.55L226.19,88.55L226.19,86.31L227.04,86.31L227.04,76.82L227.9,76.82L227.9,75.09L228.75,75.09L228.75,88.55L229.61,88.55L229.61,84.23L230.46,84.23L230.46,46.6L231.32,46.6L231.32,75.39L232.17,75.39L232.17,88.55L289.44,88.55L289.44,84.12L290.3,84.12L290.3,62.91L291.15,62.91L291.15,72.91L292.01,72.91L292.01,88.55L292.86,88.55L292.86,86.61L293.72,86.61L293.72,85.2L294.57,85.2L294.57,80.13L295.43,80.13L295.43,88.55L296.28,88.55L296.28,82.86L297.14,82.86L297.14,80.01L297.99,80.01L297.99,84.5L298.85,84.5L298.85,88.55L369.8,88.55L369.8,85.74L370.65,85.74L370.65,80.29L371.51,80.29L371.51,72.19L372.36,72.19L372.36,88.55L542.47,88.55L542.47,82.89L543.33,82.89L543.33,74.48L545.04,75.1L545.04,76.02L545.89,76.02L545.89,88.55L632.23,88.55L632.23,85.28L633.08,85.28L633.08,82.68L633.94,82.68L633.94,88.55" style="vector-effect: non-scaling-stroke; fill: none; stroke: rgb(142, 151, 30); stroke-opacity: 1; stroke-width: 1px; opacity: 1;"/></g><g class="points"/><g class="text"/></g><g class="trace scatter tracea49c91" style="stroke-miterlimit: 2; opacity: 1;"><g class="fills"/><g class="errorbars"/><g class="lines"><path class="js-line" d="M21.88,88.55L162.93,88.55L162.93,77.36L163.78,77.36L163.78,72.27L164.64,72.27L164.64,84.02L165.49,84.02L165.49,88.55L168.06,88.55L168.06,79.75L168.91,79.75L168.91,66.12L169.77,66.12L169.77,78.65L170.62,78.65L170.62,88.55L370.65,88.55L370.65,84.88L371.51,84.88L371.51,82.52L373.22,81.93L373.22,77.44L374.07,77.44L374.07,88.55L375.78,88.19L375.78,78.88L376.64,78.88L376.64,84.87L377.49,84.87L377.49,88.55L440.75,88.55L440.75,81.2L442.46,81.28L442.46,85.59L444.17,86.18L444.17,86.37L445.02,86.37L445.02,87.84L541.62,88.55L541.62,87.61L542.47,87.61L542.47,81.87L543.33,81.87L543.33,77.88L544.18,77.88L544.18,88.55L628.81,88.55L628.81,84.67L629.67,84.67L629.67,80.43L630.52,80.43L630.52,68.55L631.38,68.55L631.38,88.55L633.94,88.55L633.94,88.55" style="vector-effect: non-scaling-stroke; fill: none; stroke: rgb(0, 169, 204); stroke-opacity: 1; stroke-width: 1px; opacity: 1;"/></g><g class="points"/><g class="text"/></g><g class="trace scatter trace3b6348" style="stroke-miterlimit: 2; opacity: 1;"><g class="fills"/><g class="errorbars"/><g class="lines"><path class="js-line" d="M21.88,88.55L74.88,88.55L74.88,76.71L75.74,76.71L75.74,69.6L78.3,69.6L78.3,67.32L79.16,67.32L79.16,13.79L80.01,13.79L80.01,33.81L80.87,33.81L80.87,88.55L162.93,88.55L162.93,77.22L163.78,77.22L163.78,71.75L164.64,71.75L164.64,52.67L165.49,52.67L165.49,88.55L168.06,88.55L168.06,79.86L168.91,79.86L168.91,66L169.77,66L169.77,78.65L170.62,78.65L170.62,88.55L227.9,88.55L227.9,86.89L228.75,86.89L228.75,71.93L229.61,71.93L229.61,79.41L230.46,79.41L230.46,88.55L288.59,88.55L288.59,87.07L289.44,87.07L289.44,85.85L292.01,85.4L292.01,84.87L292.86,84.87L292.86,88.55L297.14,88.39L297.14,84.14L297.99,84.14L297.99,88.55L459.55,88.27L459.55,86.16L461.26,86.65L461.26,88.55L540.76,88.55L540.76,85.82L541.62,85.82L541.62,82.25L542.47,82.25L542.47,83.87L543.33,83.87L543.33,88.55L626.25,88.55L626.25,79.8L627.1,79.8L627.1,73.04L627.96,73.04L627.96,72.15L628.81,72.15L628.81,74.36L629.67,74.36L629.67,88.55L633.94,88.55L633.94,88.55" style="vector-effect: non-scaling-stroke; fill: none; stroke: rgb(155, 127, 233); stroke-opacity: 1; stroke-width: 1px; opacity: 1;"/></g><g class="points"/><g class="text"/></g><g class="trace scatter tracec501ef" style="stroke-miterlimit: 2; opacity: 1;"><g class="fills"/><g class="errorbars"/><g class="lines"><path class="js-line" d="M21.88,88.55L77.45,88.55L77.45,87.75L78.3,87.75L78.3,72.55L79.16,72.55L79.16,68.72L80.01,68.72L80.01,33.75L80.87,33.75L80.87,88.55L162.08,88.43L162.08,83.72L162.93,83.72L162.93,81.25L163.78,81.25L163.78,82.52L164.64,82.52L164.64,88.55L226.19,88.29L226.19,83.29L227.04,83.29L227.04,75.79L227.9,75.79L227.9,88.55L293.72,88.55L293.72,86.28L294.57,86.28L294.57,81.56L295.43,81.56L295.43,84.1L296.28,84.1L296.28,82.76L297.14,82.76L297.14,80.03L297.99,80.03L297.99,84.58L298.85,84.58L298.85,88.55L363.81,88.55L363.81,87.66L364.67,87.66L364.67,86.5L366.38,86.91L366.38,87.72L367.23,87.72L367.23,83.78L368.09,83.78L368.09,85.02L368.94,85.02L368.94,88.55L451.86,88.55L451.86,87.46L452.72,87.46L452.72,85.1L453.57,85.1L453.57,88.52L455.28,88.55L455.28,86.61L456.14,86.61L456.14,62.98L456.99,62.98L456.99,84.06L457.85,84.06L457.85,88.55L459.55,88.55L459.55,71.23L460.41,71.23L460.41,49.6L461.26,49.6L461.26,57.96L462.12,57.96L462.12,88.55L630.52,88.55L630.52,77.48L631.38,77.48L631.38,69.1L632.23,69.1L632.23,68.34L633.08,68.34L633.08,79.86L633.94,79.86L633.94,88.55" style="vector-effect: non-scaling-stroke; fill: none; stroke: rgb(97, 141, 246); stroke-opacity: 1; stroke-width: 1px; opacity: 1;"/></g><g class="points"/><g class="text"/></g><g class="trace scatter trace13061e" style="stroke-miterlimit: 2; opacity: 1;"><g class="fills"/><g class="errorbars"/><g class="lines"><path class="js-line" d="M21.88,88.55L222.77,88.38L222.77,87.06L225.33,86.35L225.33,71.04L226.19,71.04L226.19,88.55L227.04,88.55L227.04,87.01L227.9,87.01L227.9,83.42L228.75,83.42L228.75,67.79L229.61,67.79L229.61,88.55L293.72,88.55L293.72,86.24L294.57,86.24L294.57,81.72L295.43,81.72L295.43,88.55L372.36,88.55L372.36,87.58L373.22,87.58L373.22,83.42L374.07,83.42L374.07,80.94L374.93,80.94L374.93,88.55L543.33,88.55L543.33,84.7L544.18,84.7L544.18,80.81L545.04,80.81L545.04,77.28L545.89,77.28L545.89,81.33L546.75,81.33L546.75,72.87L547.6,72.87L547.6,84.03L548.46,84.03L548.46,88.55L633.94,88.55L633.94,88.55" style="vector-effect: non-scaling-stroke; fill: none; stroke: rgb(240, 96, 115); stroke-opacity: 1; stroke-width: 1px; opacity: 1;"/></g><g class="points"/><g class="text"/></g><g class="trace scatter traceaba640" style="stroke-miterlimit: 2; opacity: 1;"><g class="fills"/><g class="errorbars"/><g class="lines"><path class="js-line" d="M21.88,88.55L82.58,88.55L82.58,86.28L83.43,86.28L83.43,56.88L84.29,56.88L84.29,26.49L85.14,26.49L85.14,88.55L164.64,88.55L164.64,86.59L165.49,86.59L165.49,75.11L166.35,75.11L166.35,71.76L167.2,71.76L167.2,76.83L168.06,76.83L168.06,75.46L168.91,75.46L168.91,76.99L169.77,76.99L169.77,88.55L288.59,88.55L288.59,87.07L289.44,87.07L289.44,85.85L292.01,85.44L292.01,84.82L292.86,84.82L292.86,88.55L363.81,88.55L363.81,87.13L364.67,87.13L364.67,84.98L366.38,84.41L366.38,88.55L368.94,88.55L368.94,87.27L369.8,87.27L369.8,84.77L370.65,84.77L370.65,79.9L371.51,79.9L371.51,88.55L372.36,88.55L372.36,87.7L373.22,87.7L373.22,84.68L374.07,84.68L374.07,79.56L374.93,79.56L374.93,88.55L455.28,88.55L455.28,87.68L456.14,87.68L456.14,76.98L457.85,77.2L457.85,78.35L458.7,78.35L458.7,69.32L459.55,69.32L459.55,45.76L460.41,45.76L460.41,88.55L461.26,88.55L461.26,82.01L462.12,82.01L462.12,75.6L462.97,75.6L462.97,85.18L463.83,85.18L463.83,88.55L633.94,88.55L633.94,88.55" style="vector-effect: non-scaling-stroke; fill: none; stroke: rgb(221, 101, 182); stroke-opacity: 1; stroke-width: 1px; opacity: 1;"/></g><g class="points"/><g class="text"/></g><g class="trace scatter trace3bbc4c" style="stroke-miterlimit: 2; opacity: 1;"><g class="fills"/><g class="errorbars"/><g class="lines"><path class="js-line" d="M21.88,88.55L80.01,88.55L80.01,77.43L80.87,77.43L80.87,62.4L81.72,62.4L81.72,35L82.58,35L82.58,55.93L83.43,55.93L83.43,88.55L230.46,88.55L230.46,83.9L231.32,83.9L231.32,79.33L232.17,79.33L232.17,84.13L233.03,84.13L233.03,88.55L276.62,87.89L276.62,84.41L278.33,84.21L278.33,88.55L292.86,88.55L292.86,82.5L293.72,82.5L293.72,80.89L294.57,80.89L294.57,88.55L459.55,88.55L459.55,73.84L460.41,73.84L460.41,62.12L461.26,62.12L461.26,88.55L633.94,88.55L633.94,88.55" style="vector-effect: non-scaling-stroke; fill: none; stroke: rgb(108, 159, 51); stroke-opacity: 1; stroke-width: 1px; opacity: 1;"/></g><g class="points"/><g class="text"/></g><g class="trace scatter traceff0e59" style="stroke-miterlimit: 2; opacity: 1;"><g class="fills"/><g class="errorbars"/><g class="lines"><path class="js-line" d="M21.88,88.55L80.01,88.55L80.01,76.72L80.87,76.72L80.87,58.66L81.72,58.66L81.72,59.96L82.58,59.96L82.58,85.71L83.43,85.71L83.43,24.55L84.29,24.55L84.29,88.55L295.43,88.35L295.43,79.61L296.28,79.61L296.28,88.55L351.85,88.55L351.85,86.13L352.7,86.13L352.7,81.76L353.56,81.76L353.56,87.29L356.98,87.83L356.98,88.55L458.7,88.55L458.7,84.94L459.55,84.94L459.55,58.79L460.41,58.79L460.41,76.21L461.26,76.21L461.26,88.55L614.28,88.55L614.28,86.7L615.13,86.7L615.13,81.26L615.99,81.26L615.99,88.55L632.23,88.55L632.23,75.49L633.08,75.49L633.08,65.04L633.94,65.04L633.94,88.55" style="vector-effect: non-scaling-stroke; fill: none; stroke: rgb(0, 154, 250); stroke-opacity: 1; stroke-width: 1px; opacity: 1;"/></g><g class="points"/><g class="text"/></g><g class="trace scatter tracedd1ac2" style="stroke-miterlimit: 2; opacity: 1;"><g class="fills"/><g class="errorbars"/><g class="lines"><path class="js-line" d="M21.88,88.55L74.88,88.55L74.88,80.48L75.74,80.48L75.74,74.32L76.59,74.32L76.59,68.33L77.45,68.33L77.45,67.07L78.3,67.07L78.3,88.55L162.08,88.09L162.08,70.27L162.93,70.27L162.93,79.86L163.78,79.86L163.78,88.55L164.64,88.55L164.64,61.12L165.49,61.12L165.49,88.55L166.35,88.55L166.35,73.11L167.2,73.11L167.2,71.99L168.06,71.99L168.06,88.55L223.62,88.05L223.62,76.27L224.48,76.27L224.48,78.48L225.33,78.48L225.33,88.08L226.19,88.08L226.19,61.59L227.04,61.59L227.04,88.55L291.15,88.55L291.15,86.47L292.01,86.47L292.01,84.67L292.86,84.67L292.86,80.42L293.72,80.42L293.72,75.22L294.57,75.22L294.57,88.55L543.33,88.55L543.33,77.87L544.18,77.87L544.18,76.37L545.04,76.37L545.04,88.55L623.68,88.55L623.68,87.75L626.25,87.01L626.25,87.86L630.52,88.55L630.52,85.16L631.38,85.16L631.38,81.66L632.23,81.66L632.23,62.26L633.08,62.26L633.08,88.55L633.94,88.55L633.94,88.55" style="vector-effect: non-scaling-stroke; fill: none; stroke: rgb(227, 111, 71); stroke-opacity: 1; stroke-width: 1px; opacity: 1;"/></g><g class="points"/><g class="text"/></g><g class="trace scatter traced1112d" style="stroke-miterlimit: 2; opacity: 1;"><g class="fills"/><g class="errorbars"/><g class="lines"><path class="js-line" d="M21.88,88.55L80.87,88.55L80.87,77.3L81.72,77.3L81.72,62.87L82.58,62.87L82.58,75.2L83.43,75.2L83.43,88.55L85.14,88.55L85.14,69.79L86,69.79L86,55.61L86.85,55.61L86.85,80.81L87.71,80.81L87.71,88.55L167.2,88.21L167.2,74.63L168.06,74.63L168.06,52.52L168.91,52.52L168.91,88.55L226.19,88.08L226.19,61.59L227.04,61.59L227.04,88.55L230.46,88.55L230.46,83.74L231.32,83.74L231.32,79.36L232.17,79.36L232.17,84.27L233.03,84.27L233.03,88.55L292.01,88.55L292.01,85.43L292.86,85.43L292.86,82.41L293.72,82.41L293.72,84.09L294.57,84.09L294.57,88.47L295.43,88.47L295.43,82.16L296.28,82.16L296.28,81.31L297.14,81.31L297.14,88.55L351.85,88.55L351.85,84.95L352.7,84.95L352.7,87.58L353.56,87.58L353.56,88.55L456.14,88.37L456.14,86.33L456.99,86.33L456.99,84.83L457.85,84.83L457.85,44.39L458.7,44.39L458.7,88.55L460.41,88.55L460.41,83.32L461.26,83.32L461.26,64.36L462.12,64.36L462.12,72.26L462.97,72.26L462.97,88.55L618.55,87.88L618.55,86.48L628.81,86.48L628.81,84.26L629.67,84.26L629.67,63.46L630.52,63.46L630.52,88.55L633.94,88.55L633.94,88.55" style="vector-effect: non-scaling-stroke; fill: none; stroke: rgb(62, 164, 78); stroke-opacity: 1; stroke-width: 1px; opacity: 1;"/></g><g class="points"/><g class="text"/></g><g class="trace scatter trace5961ca" style="stroke-miterlimit: 2; opacity: 1;"><g class="fills"/><g class="errorbars"/><g class="lines"><path class="js-line" d="M21.88,88.55L82.58,88.55L82.58,85.57L83.43,85.57L83.43,27.52L84.29,27.52L84.29,88.55L228.75,88.55L228.75,79.29L229.61,79.29L229.61,67.22L230.46,67.22L230.46,87.14L231.32,87.14L231.32,88.55L293.72,88.47L293.72,83.33L294.57,83.33L294.57,80.14L295.43,80.14L295.43,88.55L630.52,88.55L630.52,83.36L631.38,83.36L631.38,79.53L633.94,79.85L633.94,88.55" style="vector-effect: non-scaling-stroke; fill: none; stroke: rgb(195, 113, 210); stroke-opacity: 1; stroke-width: 1px; opacity: 1;"/></g><g class="points"/><g class="text"/></g><g class="trace scatter trace020ccd" style="stroke-miterlimit: 2; opacity: 1;"><g class="fills"/><g class="errorbars"/><g class="lines"><path class="js-line" d="M22.74,88.55L80.87,88.55L80.87,75.72L81.72,75.72L81.72,59.87L82.58,59.87L82.58,75.2L83.43,75.2L83.43,88.55L85.14,88.55L85.14,67.9L86,67.9L86,53.63L86.85,53.63L86.85,84.68L87.71,84.68L87.71,88.55L276.62,87.95L276.62,84.58L277.48,84.58L277.48,88.55L455.28,88.55L455.28,86.76L456.14,86.76L456.14,67.32L456.99,67.32L456.99,79.57L457.85,79.57L457.85,76.48L458.7,76.48L458.7,59.48L459.55,59.48L459.55,88.55L540.76,88.55L540.76,85.86L541.62,85.86L541.62,82.22L542.47,82.22L542.47,83.86L543.33,83.86L543.33,88.55L546.75,88.55L546.75,79.81L547.6,79.81L547.6,77.88L548.46,77.88L548.46,85.1L549.31,85.1L549.31,88.55L629.67,88.55L629.67,81.26L630.52,81.26L630.52,71.66L631.38,71.66L631.38,76.16L632.23,76.16L632.23,88.55L633.94,88.55L633.94,88.55" style="vector-effect: non-scaling-stroke; fill: none; stroke: rgb(172, 142, 24); stroke-opacity: 1; stroke-width: 1px; opacity: 1;"/></g><g class="points"/><g class="text"/></g><g class="trace scatter trace489030" style="stroke-miterlimit: 2; opacity: 1;"><g class="fills"/><g class="errorbars"/><g class="lines"><path class="js-line" d="M22.74,88.55L77.45,88.55L77.45,84.93L78.3,84.93L78.3,2.58L79.16,2.58L79.16,44.04L80.01,44.04L80.01,64.17L80.87,64.17L80.87,36.74L81.72,36.74L81.72,88.55L162.08,88.43L162.08,83.72L162.93,83.72L162.93,81.25L163.78,81.25L163.78,82.52L164.64,82.52L164.64,88.55L165.49,88.55L165.49,81.56L166.35,81.56L166.35,72.58L167.2,72.58L167.2,84.08L168.06,84.08L168.06,88.55L227.9,88.55L227.9,86.45L228.75,86.45L228.75,67.79L229.61,67.79L229.61,88.55L368.09,88.55L368.09,87.14L368.94,87.14L368.94,76.25L369.8,76.25L369.8,88.55L614.28,88.55L614.28,86.7L615.13,86.7L615.13,80.55L615.99,80.55L615.99,87.23L618.55,87.34L618.55,88.55L626.25,88.55L626.25,83.98L627.1,83.98L627.1,73.43L627.96,73.43L627.96,72.15L628.81,72.15L628.81,70.88L629.67,70.88L629.67,80.02L630.52,80.02L630.52,68.55L631.38,68.55L631.38,88.55L633.94,88.55L633.94,88.55" style="vector-effect: non-scaling-stroke; fill: none; stroke: rgb(0, 170, 174); stroke-opacity: 1; stroke-width: 1px; opacity: 1;"/></g><g class="points"/><g class="text"/></g><g class="trace scatter trace03f5be" style="stroke-miterlimit: 2; opacity: 1;"><g class="fills"/><g class="errorbars"/><g class="lines"><path class="js-line" d="M22.74,88.55L227.04,88.55L227.04,79.09L227.9,79.09L227.9,70.58L228.75,70.58L228.75,88.55L368.09,88.55L368.09,87.14L368.94,87.14L368.94,76.25L369.8,76.25L369.8,88.55L456.99,88.55L456.99,87.69L457.85,87.69L457.85,73.81L458.7,73.81L458.7,40.14L459.55,40.14L459.55,84.01L460.41,84.01L460.41,77.97L461.26,77.97L461.26,57.96L462.12,57.96L462.12,88.55L541.62,88.55L541.62,87.61L542.47,87.61L542.47,81.87L543.33,81.87L543.33,77.88L544.18,77.88L544.18,87.42L545.04,87.42L545.04,84.63L545.89,84.63L545.89,58.38L546.75,58.38L546.75,73.49L547.6,73.49L547.6,88.55L633.94,88.55L633.94,88.55" style="vector-effect: non-scaling-stroke; fill: none; stroke: rgb(237, 94, 147); stroke-opacity: 1; stroke-width: 1px; opacity: 1;"/></g><g class="points"/><g class="text"/></g><g class="trace scatter trace5cb52b" style="stroke-miterlimit: 2; opacity: 1;"><g class="fills"/><g class="errorbars"/><g class="lines"><path class="js-line" d="M22.74,88.55L83.43,88.55L83.43,78.33L84.29,78.33L84.29,53.67L85.14,53.67L85.14,51.36L86,51.36L86,88.55L228.75,88.55L228.75,78.86L229.61,78.86L229.61,69.56L230.46,69.56L230.46,85.23L231.32,85.23L231.32,88.55L297.99,88.13L297.99,75.26L298.85,75.26L298.85,88.55L372.36,88.55L372.36,85.94L373.22,85.94L373.22,77.44L374.07,77.44L374.07,88.55L375.78,87.85L375.78,79.25L376.64,79.25L376.64,84.83L377.49,84.83L377.49,88.55L458.7,88.55L458.7,85.46L459.55,85.46L459.55,63.93L460.41,63.93L460.41,75.12L461.26,75.12L461.26,88.55L629.67,88.55L629.67,83.43L630.52,83.43L630.52,76.49L631.38,76.49L631.38,78.3L632.23,78.3L632.23,88.55L633.94,88.55L633.94,88.55" style="vector-effect: non-scaling-stroke; fill: none; stroke: rgb(198, 130, 37); stroke-opacity: 1; stroke-width: 1px; opacity: 1;"/></g><g class="points"/><g class="text"/></g></g></g><g class="overplot"/><path class="xlines-above crisp" d="M62.65923009623797,263.87583959232836H716.0629921259842" style="fill: none; stroke-width: 1px; stroke: rgb(0, 0, 0); stroke-opacity: 1;"/><path class="ylines-above crisp" d="M63.15923009623797,172.24590560349384V263.37583959232836" style="fill: none; stroke-width: 1px; stroke: rgb(0, 0, 0); stroke-opacity: 1;"/><g class="overlines-above"/><g class="xaxislayer-above"><path class="xtick ticks crisp" d="M0,263.37583959232836v-5" transform="translate(82.11923009623797,0)" style="stroke: rgb(0, 0, 0); stroke-opacity: 1; stroke-width: 1px;"/><path class="xtick ticks crisp" d="M0,263.37583959232836v-5" transform="translate(107.76923009623798,0)" style="stroke: rgb(0, 0, 0); stroke-opacity: 1; stroke-width: 1px;"/><path class="xtick ticks crisp" d="M0,263.37583959232836v-5" transform="translate(133.40923009623796,0)" style="stroke: rgb(0, 0, 0); stroke-opacity: 1; stroke-width: 1px;"/><path class="xtick ticks crisp" d="M0,263.37583959232836v-5" transform="translate(159.05923009623797,0)" style="stroke: rgb(0, 0, 0); stroke-opacity: 1; stroke-width: 1px;"/><path class="xtick ticks crisp" d="M0,263.37583959232836v-5" transform="translate(184.69923009623798,0)" style="stroke: rgb(0, 0, 0); stroke-opacity: 1; stroke-width: 1px;"/><path class="xtick ticks crisp" d="M0,263.37583959232836v-5" transform="translate(210.34923009623796,0)" style="stroke: rgb(0, 0, 0); stroke-opacity: 1; stroke-width: 1px;"/><path class="xtick ticks crisp" d="M0,263.37583959232836v-5" transform="translate(235.98923009623797,0)" style="stroke: rgb(0, 0, 0); stroke-opacity: 1; stroke-width: 1px;"/><path class="xtick ticks crisp" d="M0,263.37583959232836v-5" transform="translate(261.63923009623795,0)" style="stroke: rgb(0, 0, 0); stroke-opacity: 1; stroke-width: 1px;"/><path class="xtick ticks crisp" d="M0,263.37583959232836v-5" transform="translate(287.279230096238,0)" style="stroke: rgb(0, 0, 0); stroke-opacity: 1; stroke-width: 1px;"/><path class="xtick ticks crisp" d="M0,263.37583959232836v-5" transform="translate(312.929230096238,0)" style="stroke: rgb(0, 0, 0); stroke-opacity: 1; stroke-width: 1px;"/><path class="xtick ticks crisp" d="M0,263.37583959232836v-5" transform="translate(338.569230096238,0)" style="stroke: rgb(0, 0, 0); stroke-opacity: 1; stroke-width: 1px;"/><path class="xtick ticks crisp" d="M0,263.37583959232836v-5" transform="translate(364.219230096238,0)" style="stroke: rgb(0, 0, 0); stroke-opacity: 1; stroke-width: 1px;"/><path class="xtick ticks crisp" d="M0,263.37583959232836v-5" transform="translate(389.859230096238,0)" style="stroke: rgb(0, 0, 0); stroke-opacity: 1; stroke-width: 1px;"/><path class="xtick ticks crisp" d="M0,263.37583959232836v-5" transform="translate(415.509230096238,0)" style="stroke: rgb(0, 0, 0); stroke-opacity: 1; stroke-width: 1px;"/><path class="xtick ticks crisp" d="M0,263.37583959232836v-5" transform="translate(441.149230096238,0)" style="stroke: rgb(0, 0, 0); stroke-opacity: 1; stroke-width: 1px;"/><path class="xtick ticks crisp" d="M0,263.37583959232836v-5" transform="translate(466.799230096238,0)" style="stroke: rgb(0, 0, 0); stroke-opacity: 1; stroke-width: 1px;"/><path class="xtick ticks crisp" d="M0,263.37583959232836v-5" transform="translate(492.43923009623796,0)" style="stroke: rgb(0, 0, 0); stroke-opacity: 1; stroke-width: 1px;"/><path class="xtick ticks crisp" d="M0,263.37583959232836v-5" transform="translate(518.089230096238,0)" style="stroke: rgb(0, 0, 0); stroke-opacity: 1; stroke-width: 1px;"/><path class="xtick ticks crisp" d="M0,263.37583959232836v-5" transform="translate(543.729230096238,0)" style="stroke: rgb(0, 0, 0); stroke-opacity: 1; stroke-width: 1px;"/><path class="xtick ticks crisp" d="M0,263.37583959232836v-5" transform="translate(569.379230096238,0)" style="stroke: rgb(0, 0, 0); stroke-opacity: 1; stroke-width: 1px;"/><path class="xtick ticks crisp" d="M0,263.37583959232836v-5" transform="translate(595.019230096238,0)" style="stroke: rgb(0, 0, 0); stroke-opacity: 1; stroke-width: 1px;"/><path class="xtick ticks crisp" d="M0,263.37583959232836v-5" transform="translate(620.6692300962379,0)" style="stroke: rgb(0, 0, 0); stroke-opacity: 1; stroke-width: 1px;"/><path class="xtick ticks crisp" d="M0,263.37583959232836v-5" transform="translate(646.3092300962379,0)" style="stroke: rgb(0, 0, 0); stroke-opacity: 1; stroke-width: 1px;"/><path class="xtick ticks crisp" d="M0,263.37583959232836v-5" transform="translate(671.9492300962379,0)" style="stroke: rgb(0, 0, 0); stroke-opacity: 1; stroke-width: 1px;"/><path class="xtick ticks crisp" d="M0,263.37583959232836v-5" transform="translate(697.599230096238,0)" style="stroke: rgb(0, 0, 0); stroke-opacity: 1; stroke-width: 1px;"/><g class="xtick"><text text-anchor="start" x="0" y="281.1758395923284" transform="translate(82.11923009623797,0) rotate(22,0,274.1758395923284)" style="font-family: sans-serif; font-size: 14px; fill: rgb(0, 0, 0); fill-opacity: 1; white-space: pre; opacity: 1;">00 2022-10-27</text></g><g class="xtick"><text text-anchor="start" x="0" y="281.1758395923284" style="font-family: sans-serif; font-size: 14px; fill: rgb(0, 0, 0); fill-opacity: 1; white-space: pre; opacity: 1;" transform="translate(107.76923009623798,0) rotate(22,0,274.1758395923284)">01</text></g><g class="xtick"><text text-anchor="start" x="0" y="281.1758395923284" style="font-family: sans-serif; font-size: 14px; fill: rgb(0, 0, 0); fill-opacity: 1; white-space: pre; opacity: 1;" transform="translate(133.40923009623796,0) rotate(22,0,274.1758395923284)">02</text></g><g class="xtick"><text text-anchor="start" x="0" y="281.1758395923284" style="font-family: sans-serif; font-size: 14px; fill: rgb(0, 0, 0); fill-opacity: 1; white-space: pre; opacity: 1;" transform="translate(159.05923009623797,0) rotate(22,0,274.1758395923284)">03</text></g><g class="xtick"><text text-anchor="start" x="0" y="281.1758395923284" style="font-family: sans-serif; font-size: 14px; fill: rgb(0, 0, 0); fill-opacity: 1; white-space: pre; opacity: 1;" transform="translate(184.69923009623798,0) rotate(22,0,274.1758395923284)">04</text></g><g class="xtick"><text text-anchor="start" x="0" y="281.1758395923284" style="font-family: sans-serif; font-size: 14px; fill: rgb(0, 0, 0); fill-opacity: 1; white-space: pre; opacity: 1;" transform="translate(210.34923009623796,0) rotate(22,0,274.1758395923284)">05</text></g><g class="xtick"><text text-anchor="start" x="0" y="281.1758395923284" style="font-family: sans-serif; font-size: 14px; fill: rgb(0, 0, 0); fill-opacity: 1; white-space: pre; opacity: 1;" transform="translate(235.98923009623797,0) rotate(22,0,274.1758395923284)">06</text></g><g class="xtick"><text text-anchor="start" x="0" y="281.1758395923284" style="font-family: sans-serif; font-size: 14px; fill: rgb(0, 0, 0); fill-opacity: 1; white-space: pre; opacity: 1;" transform="translate(261.63923009623795,0) rotate(22,0,274.1758395923284)">07</text></g><g class="xtick"><text text-anchor="start" x="0" y="281.1758395923284" style="font-family: sans-serif; font-size: 14px; fill: rgb(0, 0, 0); fill-opacity: 1; white-space: pre; opacity: 1;" transform="translate(287.279230096238,0) rotate(22,0,274.1758395923284)">08</text></g><g class="xtick"><text text-anchor="start" x="0" y="281.1758395923284" style="font-family: sans-serif; font-size: 14px; fill: rgb(0, 0, 0); fill-opacity: 1; white-space: pre; opacity: 1;" transform="translate(312.929230096238,0) rotate(22,0,274.1758395923284)">09</text></g><g class="xtick"><text text-anchor="start" x="0" y="281.1758395923284" style="font-family: sans-serif; font-size: 14px; fill: rgb(0, 0, 0); fill-opacity: 1; white-space: pre; opacity: 1;" transform="translate(338.569230096238,0) rotate(22,0,274.1758395923284)">10</text></g><g class="xtick"><text text-anchor="start" x="0" y="281.1758395923284" style="font-family: sans-serif; font-size: 14px; fill: rgb(0, 0, 0); fill-opacity: 1; white-space: pre; opacity: 1;" transform="translate(364.219230096238,0) rotate(22,0,274.1758395923284)">11</text></g><g class="xtick"><text text-anchor="start" x="0" y="281.1758395923284" style="font-family: sans-serif; font-size: 14px; fill: rgb(0, 0, 0); fill-opacity: 1; white-space: pre; opacity: 1;" transform="translate(389.859230096238,0) rotate(22,0,274.1758395923284)">12</text></g><g class="xtick"><text text-anchor="start" x="0" y="281.1758395923284" style="font-family: sans-serif; font-size: 14px; fill: rgb(0, 0, 0); fill-opacity: 1; white-space: pre; opacity: 1;" transform="translate(415.509230096238,0) rotate(22,0,274.1758395923284)">13</text></g><g class="xtick"><text text-anchor="start" x="0" y="281.1758395923284" style="font-family: sans-serif; font-size: 14px; fill: rgb(0, 0, 0); fill-opacity: 1; white-space: pre; opacity: 1;" transform="translate(441.149230096238,0) rotate(22,0,274.1758395923284)">14</text></g><g class="xtick"><text text-anchor="start" x="0" y="281.1758395923284" style="font-family: sans-serif; font-size: 14px; fill: rgb(0, 0, 0); fill-opacity: 1; white-space: pre; opacity: 1;" transform="translate(466.799230096238,0) rotate(22,0,274.1758395923284)">15</text></g><g class="xtick"><text text-anchor="start" x="0" y="281.1758395923284" style="font-family: sans-serif; font-size: 14px; fill: rgb(0, 0, 0); fill-opacity: 1; white-space: pre; opacity: 1;" transform="translate(492.43923009623796,0) rotate(22,0,274.1758395923284)">16</text></g><g class="xtick"><text text-anchor="start" x="0" y="281.1758395923284" style="font-family: sans-serif; font-size: 14px; fill: rgb(0, 0, 0); fill-opacity: 1; white-space: pre; opacity: 1;" transform="translate(518.089230096238,0) rotate(22,0,274.1758395923284)">17</text></g><g class="xtick"><text text-anchor="start" x="0" y="281.1758395923284" style="font-family: sans-serif; font-size: 14px; fill: rgb(0, 0, 0); fill-opacity: 1; white-space: pre; opacity: 1;" transform="translate(543.729230096238,0) rotate(22,0,274.1758395923284)">18</text></g><g class="xtick"><text text-anchor="start" x="0" y="281.1758395923284" style="font-family: sans-serif; font-size: 14px; fill: rgb(0, 0, 0); fill-opacity: 1; white-space: pre; opacity: 1;" transform="translate(569.379230096238,0) rotate(22,0,274.1758395923284)">19</text></g><g class="xtick"><text text-anchor="start" x="0" y="281.1758395923284" style="font-family: sans-serif; font-size: 14px; fill: rgb(0, 0, 0); fill-opacity: 1; white-space: pre; opacity: 1;" transform="translate(595.019230096238,0) rotate(22,0,274.1758395923284)">20</text></g><g class="xtick"><text text-anchor="start" x="0" y="281.1758395923284" style="font-family: sans-serif; font-size: 14px; fill: rgb(0, 0, 0); fill-opacity: 1; white-space: pre; opacity: 1;" transform="translate(620.6692300962379,0) rotate(22,0,274.1758395923284)">21</text></g><g class="xtick"><text text-anchor="start" x="0" y="281.1758395923284" style="font-family: sans-serif; font-size: 14px; fill: rgb(0, 0, 0); fill-opacity: 1; white-space: pre; opacity: 1;" transform="translate(646.3092300962379,0) rotate(22,0,274.1758395923284)">22</text></g><g class="xtick"><text text-anchor="start" x="0" y="281.1758395923284" style="font-family: sans-serif; font-size: 14px; fill: rgb(0, 0, 0); fill-opacity: 1; white-space: pre; opacity: 1;" transform="translate(671.9492300962379,0) rotate(22,0,274.1758395923284)">23</text></g><g class="xtick"><text text-anchor="start" x="0" y="281.1758395923284" style="font-family: sans-serif; font-size: 14px; fill: rgb(0, 0, 0); fill-opacity: 1; white-space: pre; opacity: 0;" transform="translate(697.599230096238,0) rotate(22,0,274.1758395923284)">00 2022-10-28</text></g></g><g class="yaxislayer-above"><path class="y2tick ticks crisp" d="M63.65923009623797,0h5" transform="translate(0,260.79590560349385)" style="stroke: rgb(0, 0, 0); stroke-opacity: 1; stroke-width: 1px;"/><path class="y2tick ticks crisp" d="M63.65923009623797,0h5" transform="translate(0,233.36590560349384)" style="stroke: rgb(0, 0, 0); stroke-opacity: 1; stroke-width: 1px;"/><path class="y2tick ticks crisp" d="M63.65923009623797,0h5" transform="translate(0,205.93590560349384)" style="stroke: rgb(0, 0, 0); stroke-opacity: 1; stroke-width: 1px;"/><path class="y2tick ticks crisp" d="M63.65923009623797,0h5" transform="translate(0,178.50590560349383)" style="stroke: rgb(0, 0, 0); stroke-opacity: 1; stroke-width: 1px;"/><g class="y2tick"><text text-anchor="end" x="59.85923009623797" y="4.8999999999999995" transform="translate(0,260.79590560349385)" style="font-family: sans-serif; font-size: 14px; fill: rgb(0, 0, 0); fill-opacity: 1; white-space: pre; opacity: 1;">0.00</text></g><g class="y2tick"><text text-anchor="end" x="59.85923009623797" y="4.8999999999999995" style="font-family: sans-serif; font-size: 14px; fill: rgb(0, 0, 0); fill-opacity: 1; white-space: pre; opacity: 1;" transform="translate(0,233.36590560349384)">0.05</text></g><g class="y2tick"><text text-anchor="end" x="59.85923009623797" y="4.8999999999999995" style="font-family: sans-serif; font-size: 14px; fill: rgb(0, 0, 0); fill-opacity: 1; white-space: pre; opacity: 1;" transform="translate(0,205.93590560349384)">0.10</text></g><g class="y2tick"><text text-anchor="end" x="59.85923009623797" y="4.8999999999999995" style="font-family: sans-serif; font-size: 14px; fill: rgb(0, 0, 0); fill-opacity: 1; white-space: pre; opacity: 1;" transform="translate(0,178.50590560349383)">0.15</text></g></g><g class="overaxes-above"/></g></g><g class="polarlayer"/><g class="ternarylayer"/><g class="geolayer"/><g class="funnelarealayer"/><g class="pielayer"/><g class="iciclelayer"/><g class="treemaplayer"/><g class="sunburstlayer"/><g class="glimages"/><defs id="topdefs-95c020"><g class="clips"/></defs><g class="layer-above"><g class="imagelayer"/><g class="shapelayer"/></g><g class="infolayer"><g class="g-gtitle"/><g class="g-xtitle"><text class="xtitle" x="389.86111111111114" y="318.37583959232836" text-anchor="middle" style="font-family: sans-serif; font-size: 15px; fill: rgb(0, 0, 0); opacity: 1; font-weight: normal; white-space: pre;">time</text></g><g class="g-ytitle"><text class="ytitle" transform="rotate(-90,23.65923009623797,81.41020856144362)" x="23.65923009623797" y="81.41020856144362" text-anchor="middle" style="font-family: sans-serif; font-size: 15px; fill: rgb(0, 0, 0); opacity: 1; font-weight: normal; white-space: pre;">ops</text></g><g class="g-y2title"><text class="y2title" transform="rotate(-90,23.65923009623797,217.8108725979111)" x="23.65923009623797" y="217.8108725979111" text-anchor="middle" style="font-family: sans-serif; font-size: 15px; fill: rgb(0, 0, 0); opacity: 1; font-weight: normal; white-space: pre;">ops/sec</text></g><g class="annotation" data-index="0" style="opacity: 1;"><g class="annotation-text-g" transform="rotate(0,389.86111111111114,30.000000000000004)"><g class="cursor-pointer" transform="translate(338,20)"><rect class="bg" x="0.5" y="0.5" width="102" height="19" style="stroke-width: 1px; stroke: rgb(0, 0, 0); stroke-opacity: 0; fill: rgb(0, 0, 0); fill-opacity: 0;"/><text class="annotation-text" text-anchor="middle" x="51.275390625" y="14.7314453125" style="font-family: sans-serif; font-size: 14px; fill: rgb(0, 0, 0); fill-opacity: 1; white-space: pre;">l_write | counter</text></g></g></g><g class="annotation" data-index="1" style="opacity: 1;"><g class="annotation-text-g" transform="rotate(0,389.86111111111114,166.40066403646745)"><g class="cursor-pointer" transform="translate(350,156)"><rect class="bg" x="0.5" y="0.5" width="79" height="19" style="stroke-width: 1px; stroke: rgb(0, 0, 0); stroke-opacity: 0; fill: rgb(0, 0, 0); fill-opacity: 0;"/><text class="annotation-text" text-anchor="middle" x="39.9912109375" y="14.7314453125" style="font-family: sans-serif; font-size: 14px; fill: rgb(0, 0, 0); fill-opacity: 1; white-space: pre;">l_write | rate</text></g></g></g></g></svg>