<svg class="main-svg" xmlns="http://www.w3.org/2000/svg" xmlns:xlink="http://www.w3.org/1999/xlink" width="720" height="360" style=""><rect x="0" y="0" width="720" height="360" style="fill: rgb(255, 255, 255); fill-opacity: 1;"/><defs id="defs-040c6e"><g class="clips"><clipPath id="clip040c6exyplot" class="plotclip"><rect width="667.681539807524" height="101.68323421352031"/></clipPath><clipPath id="clip040c6exy2plot" class="plotclip"><rect width="667.681539807524" height="101.68323421352031"/></clipPath><clipPath class="axesclip" id="clip040c6ex"><rect x="48.38145231846019" y="0" width="667.681539807524" height="360"/></clipPath><clipPath class="axesclip" id="clip040c6ey"><rect x="0" y="35.84524156702635" width="720" height="101.68323421352031"/></clipPath><clipPath class="axesclip" id="clip040c6exy"><rect x="48.38145231846019" y="35.84524156702635" width="667.681539807524" height="101.68323421352031"/></clipPath><clipPath class="axesclip" id="clip040c6ey2"><rect x="0" y="182.7992058281796" width="720" height="101.68323421352031"/></clipPath><clipPath class="axesclip" id="clip040c6exy2"><rect x="48.38145231846019" y="182.7992058281796" width="667.681539807524" height="101.68323421352031"/></clipPath></g><g class="gradients"/><g class="patterns"/></defs><g class="bglayer"/><g class="layer-below"><g class="imagelayer"/><g class="shapelayer"/></g><g class="cartesianlayer"><g class="subplot xy"><g class="layer-subplot"><g class="shapelayer"/><g class="imagelayer"/></g><g class="gridlayer"><g class="x"><path class="xgrid crisp" transform="translate(67.2814523184602,0)" d="M0,35.84524156702635v101.68323421352031" style="stroke: rgb(0, 0, 0); stroke-opacity: 0.1; stroke-width: 0.5px;"/><path class="xgrid crisp" transform="translate(93.52145231846019,0)" d="M0,35.84524156702635v101.68323421352031" style="stroke: rgb(0, 0, 0); stroke-opacity: 0.1; stroke-width: 0.5px;"/><path class="xgrid crisp" transform="translate(119.77145231846019,0)" d="M0,35.84524156702635v101.68323421352031" style="stroke: rgb(0, 0, 0); stroke-opacity: 0.1; stroke-width: 0.5px;"/><path class="xgrid crisp" transform="translate(146.0114523184602,0)" d="M0,35.84524156702635v101.68323421352031" style="stroke: rgb(0, 0, 0); stroke-opacity: 0.1; stroke-width: 0.5px;"/><path class="xgrid crisp" transform="translate(172.2614523184602,0)" d="M0,35.84524156702635v101.68323421352031" style="stroke: rgb(0, 0, 0); stroke-opacity: 0.1; stroke-width: 0.5px;"/><path class="xgrid crisp" transform="translate(198.5014523184602,0)" d="M0,35.84524156702635v101.68323421352031" style="stroke: rgb(0, 0, 0); stroke-opacity: 0.1; stroke-width: 0.5px;"/><path class="xgrid crisp" transform="translate(224.7514523184602,0)" d="M0,35.84524156702635v101.68323421352031" style="stroke: rgb(0, 0, 0); stroke-opacity: 0.1; stroke-width: 0.5px;"/><path class="xgrid crisp" transform="translate(250.9914523184602,0)" d="M0,35.84524156702635v101.68323421352031" style="stroke: rgb(0, 0, 0); stroke-opacity: 0.1; stroke-width: 0.5px;"/><path class="xgrid crisp" transform="translate(277.24145231846023,0)" d="M0,35.84524156702635v101.68323421352031" style="stroke: rgb(0, 0, 0); stroke-opacity: 0.1; stroke-width: 0.5px;"/><path class="xgrid crisp" transform="translate(303.4814523184602,0)" d="M0,35.84524156702635v101.68323421352031" style="stroke: rgb(0, 0, 0); stroke-opacity: 0.1; stroke-width: 0.5px;"/><path class="xgrid crisp" transform="translate(329.73145231846024,0)" d="M0,35.84524156702635v101.68323421352031" style="stroke: rgb(0, 0, 0); stroke-opacity: 0.1; stroke-width: 0.5px;"/><path class="xgrid crisp" transform="translate(355.98145231846024,0)" d="M0,35.84524156702635v101.68323421352031" style="stroke: rgb(0, 0, 0); stroke-opacity: 0.1; stroke-width: 0.5px;"/><path class="xgrid crisp" transform="translate(382.22145231846014,0)" d="M0,35.84524156702635v101.68323421352031" style="stroke: rgb(0, 0, 0); stroke-opacity: 0.1; stroke-width: 0.5px;"/><path class="xgrid crisp" transform="translate(408.47145231846014,0)" d="M0,35.84524156702635v101.68323421352031" style="stroke: rgb(0, 0, 0); stroke-opacity: 0.1; stroke-width: 0.5px;"/><path class="xgrid crisp" transform="translate(434.71145231846015,0)" d="M0,35.84524156702635v101.68323421352031" style="stroke: rgb(0, 0, 0); stroke-opacity: 0.1; stroke-width: 0.5px;"/><path class="xgrid crisp" transform="translate(460.96145231846015,0)" d="M0,35.84524156702635v101.68323421352031" style="stroke: rgb(0, 0, 0); stroke-opacity: 0.1; stroke-width: 0.5px;"/><path class="xgrid crisp" transform="translate(487.20145231846016,0)" d="M0,35.84524156702635v101.68323421352031" style="stroke: rgb(0, 0, 0); stroke-opacity: 0.1; stroke-width: 0.5px;"/><path class="xgrid crisp" transform="translate(513.4514523184602,0)" d="M0,35.84524156702635v101.68323421352031" style="stroke: rgb(0, 0, 0); stroke-opacity: 0.1; stroke-width: 0.5px;"/><path class="xgrid crisp" transform="translate(539.6914523184602,0)" d="M0,35.84524156702635v101.68323421352031" style="stroke: rgb(0, 0, 0); stroke-opacity: 0.1; stroke-width: 0.5px;"/><path class="xgrid crisp" transform="translate(565.9414523184602,0)" d="M0,35.84524156702635v101.68323421352031" style="stroke: rgb(0, 0, 0); stroke-opacity: 0.1; stroke-width: 0.5px;"/><path class="xgrid crisp" transform="translate(592.1814523184602,0)" d="M0,35.84524156702635v101.68323421352031" style="stroke: rgb(0, 0, 0); stroke-opacity: 0.1; stroke-width: 0.5px;"/><path class="xgrid crisp" transform="translate(618.4314523184602,0)" d="M0,35.84524156702635v101.68323421352031" style="stroke: rgb(0, 0, 0); stroke-opacity: 0.1; stroke-width: 0.5px;"/><path class="xgrid crisp" transform="translate(644.6714523184602,0)" d="M0,35.84524156702635v101.68323421352031" style="stroke: rgb(0, 0, 0); stroke-opacity: 0.1; stroke-width: 0.5px;"/><path class="xgrid crisp" transform="translate(670.9214523184602,0)" d="M0,35.84524156702635v101.68323421352031" style="stroke: rgb(0, 0, 0); stroke-opacity: 0.1; stroke-width: 0.5px;"/><path class="xgrid crisp" transform="translate(697.1614523184602,0)" d="M0,35.84524156702635v101.68323421352031" style="stroke: rgb(0, 0, 0); stroke-opacity: 0.1; stroke-width: 0.5px;"/></g><g class="y"><path class="ygrid crisp" transform="translate(0,134.65524156702634)" d="M48.38145231846019,0h667.681539807524" style="stroke: rgb(0, 0, 0); stroke-opacity: 0.1; stroke-width: 0.5px;"/><path class="ygrid crisp" transform="translate(0,116.65524156702635)" d="M48.38145231846019,0h667.681539807524" style="stroke: rgb(0, 0, 0); stroke-opacity: 0.1; stroke-width: 0.5px;"/><path class="ygrid crisp" transform="translate(0,98.65524156702635)" d="M48.38145231846019,0h667.681539807524" style="stroke: rgb(0, 0, 0); stroke-opacity: 0.1; stroke-width: 0.5px;"/><path class="ygrid crisp" transform="translate(0,80.65524156702635)" d="M48.38145231846019,0h667.681539807524" style="stroke: rgb(0, 0, 0); stroke-opacity: 0.1; stroke-width: 0.5px;"/><path class="ygrid crisp" transform="translate(0,62.65524156702635)" d="M48.38145231846019,0h667.681539807524" style="stroke: rgb(0, 0, 0); stroke-opacity: 0.1; stroke-width: 0.5px;"/><path class="ygrid crisp" transform="translate(0,44.66524156702635)" d="M48.38145231846019,0h667.681539807524" style="stroke: rgb(0, 0, 0); stroke-opacity: 0.1; stroke-width: 0.5px;"/></g></g><g class="zerolinelayer"/><path class="xlines-below"/><path class="ylines-below"/><g class="overlines-below"/><g class="xaxislayer-below"/><g class="yaxislayer-below"/><g class="overaxes-below"/><g class="plot" transform="translate(48.38145231846019,35.84524156702635)" clip-path="url(#clip040c6exyplot)"><g class="scatterlayer mlayer"><g class="trace scatter trace48b530" style="stroke-miterlimit: 2; opacity: 1;"><g class="fills"/><g class="errorbars"/><g class="lines"><path class="js-line" d="M19.04,64.25L19.04,64.07L20.01,64.07L20.01,63.89L20.88,63.89L20.88,63.35L22.23,63.35L22.94,61.91L24.14,61.91L24.14,60.65L24.99,60.65L24.99,58.85L25.85,58.85L25.85,57.77L26.73,57.77L26.73,55.79L27.57,55.79L27.57,53.45L28.46,53.45L28.46,51.11L29.36,51.11L29.36,48.41L30.22,48.41L30.22,46.43L31.04,46.43L31.04,44.45L31.98,44.45L32.68,41.93L33.73,41.93L34.14,41.03L35.34,41.03L35.34,40.85L40.14,40.85L40.14,98.81L52.5,98.81L52.5,98.27L53.37,98.27L53.37,98.81L63.99,98.81L63.99,98.45L64.86,98.45L64.86,98.27L71.29,98.27L71.29,98.09L74.01,98.09L74.01,97.73L75.59,97.73L75.59,97.37L76.99,97.37L76.99,97.19L77.98,97.19L77.98,96.65L79.26,96.65L79.26,95.75L80.11,95.75L80.79,93.23L81.88,93.23L81.88,91.61L82.73,91.61L82.73,89.63L83.59,89.63L83.59,87.29L84.42,87.29L84.42,85.31L85.35,85.31L85.35,83.15L86.16,83.15L86.16,80.99L87.1,80.99L87.1,78.83L87.96,78.83L87.96,77.57L88.78,77.57L88.78,76.31L89.6,76.31L89.6,75.05L90.5,75.05L90.5,73.79L91.32,73.79L92.03,72.35L93,72.35L93.63,71.63L94.38,71.63L94.38,71.45L95.39,71.45L95.39,71.27L96.69,71.27L96.69,71.09L98.49,71.09L98.49,70.55L100.44,70.55L100.44,70.37L102.59,70.37L102.59,70.01L104.9,70.01L104.9,69.83L107.05,69.83L107.05,69.47L108.81,69.47L108.81,69.11L110.17,69.11L110.17,68.75L111.25,68.75L111.25,68.39L112.09,68.39L112.09,67.85L113.32,67.85L113.32,67.13L114.23,67.13L114.23,66.41L115.12,66.41L115.87,63.71L116.8,63.71L116.8,61.73L117.73,61.73L117.73,59.39L118.63,59.39L118.63,56.87L119.45,56.87L119.45,54.53L120.34,54.53L120.34,52.19L121.2,52.19L121.2,50.21L122.1,50.21L122.1,47.87L123,47.87L123,46.25L123.78,46.25L124.37,44.99L124.94,44.99L124.94,44.81L128.75,44.81L128.75,44.63L133.41,44.63L133.41,44.27L137.94,44.27L137.94,43.91L142.86,43.91L142.86,98.81L147.2,98.81L147.2,98.45L148.07,98.45L148.07,98.09L151.2,98.09L151.2,97.91L154.26,97.91L154.26,97.73L157.46,97.73L157.46,97.55L160.19,97.55L160.19,97.37L161.8,97.37L161.8,97.19L163.14,97.19L163.14,97.01L164.11,97.01L164.67,95.75L165.84,95.75L166.46,94.13L167.58,94.13L167.58,93.23L168.41,93.23L168.41,91.97L169.3,91.97L169.3,90.53L170.16,90.53L170.16,88.91L171.11,88.91L171.11,87.11L171.99,87.11L171.99,85.49L172.81,85.49L172.81,83.87L173.67,83.87L173.67,82.61L174.45,82.61L174.45,81.35L175.42,81.35L175.42,80.45L176.32,80.45L176.32,79.91L177.14,79.91L177.14,79.55L177.92,79.55L178.6,79.01L179.38,79.01L179.38,78.83L180.42,78.83L180.42,78.65L181.88,78.65L181.88,78.47L183.3,78.47L183.56,78.11L185.36,78.11L185.36,77.93L187.22,77.93L187.22,77.75L188.9,77.75L188.9,77.57L190.32,77.57L192.9,76.85L192.9,76.67L194.65,76.13L194.65,75.59L196.29,75.05L196.29,74.51L198.16,73.79L198.16,73.25L199.87,72.71L199.87,71.63L203.76,70.91L203.76,70.73L209.55,70.01L209.55,69.83L215.18,69.11L215.18,68.75L219.21,68.03L219.21,67.85L225.48,67.13L225.48,66.95L229.33,66.23L229.33,65.51L231.45,64.97L231.45,63.89L232.32,63.89L232.32,62.81L233.22,62.81L233.22,61.73L234.05,61.73L234.05,60.29L234.98,60.29L234.98,58.85L235.69,58.85L235.69,57.59L236.7,57.59L236.7,56.69L238.35,55.97L238.35,55.25L239.91,54.89L239.91,54.35L243.94,53.63L243.94,53.45L252.01,52.73L252.01,52.55L255.4,52.01L255.4,51.29L257.49,50.75L257.49,50.03L260.33,49.31L260.33,49.13L265.22,48.41L265.22,48.23L270.3,47.51L270.3,47.33L274.15,46.61L274.15,46.43L276.8,45.71L276.8,45.35L278.33,44.99L278.33,44.45L279.3,44.45L279.3,43.19L280.46,43.19L280.46,41.75L281.28,41.75L281.28,39.95L282.22,39.95L282.22,38.69L283.85,37.97L283.85,36.89L287.42,36.17L287.42,35.99L287.47,35.81L289.04,35.81L289.04,35.63L291.4,35.63L291.4,35.45L293.44,35.45L293.44,35.27L294.83,35.27L294.83,35.09L295.95,35.09L295.95,34.73L296.77,34.73L296.77,34.37L297.81,34.37L297.81,33.83L298.71,33.83L298.71,33.11L299.68,33.11L299.68,32.57L300.6,32.57L300.6,31.85L301.4,31.85L301.4,31.31L302.32,31.31L302.32,30.59L303.11,30.59L303.11,29.15L304.01,29.15L304.01,28.25L304.88,28.25L304.88,27.71L305.66,27.71L305.66,27.17L306.51,27.17L306.51,26.45L307.56,26.45L308.19,25.73L309.24,25.73L309.24,25.37L310.1,25.37L310.1,25.19L310.88,25.19L310.88,25.01L311.89,25.01L311.89,24.83L313.16,24.83L313.16,24.66L314.8,24.66L314.8,24.48L316.63,24.48L316.63,24.3L318.46,24.3L318.46,24.12L319.84,24.12L320.36,23.76L321.29,23.76L321.29,23.58L325.51,23.58L325.51,23.4L329.66,23.4L329.66,23.04L333.43,23.04L333.43,22.68L337.19,22.68L337.19,22.32L340.93,22.32L340.93,22.14L344.4,22.14L344.4,21.78L346.56,21.78L346.56,21.6L348.39,21.6L348.39,21.42L350.11,21.42L350.11,21.06L352.2,21.06L352.95,20.16L353.88,20.16L353.88,19.62L354.84,19.62L354.84,18.9L355.7,18.9L355.7,18.36L356.49,18.36L356.49,17.64L357.43,17.64L358.17,16.56L358.92,16.56L358.92,16.02L359.89,16.02L359.89,15.3L360.86,15.3L360.86,14.94L361.65,14.94L361.65,14.76L362.6,14.76L362.6,14.58L363.49,14.58L363.69,14.22L364.96,14.22L364.96,14.04L366.57,14.04L366.57,13.86L369.15,13.86L369.15,13.68L371.46,13.68L371.46,13.5L373.03,13.5L373.03,13.32L374.07,13.32L374.3,12.78L375.19,12.78L375.19,12.42L376.56,12.42L376.56,11.88L377.43,11.88L377.43,11.34L378.33,11.34L378.33,10.8L379.22,10.8L379.22,10.26L380.05,10.26L380.05,9.72L380.9,9.72L380.9,9.18L381.78,9.18L381.78,8.46L382.82,8.46L382.82,7.92L383.63,7.92L383.63,7.02L384.54,7.02L384.54,6.3L385.35,6.3L386.02,5.4L387.06,5.4L387.06,4.86L388.08,4.86L388.74,4.14L389.79,4.14L390.53,3.78L391.46,3.78L398.04,3.06L398.04,2.88L400.09,2.88L400.09,98.81L436.93,98.45L436.93,97.73L443.03,97.19L443.03,96.29L443.88,96.29L443.88,95.03L444.84,95.03L444.84,93.05L445.82,93.05L445.82,90.71L446.64,90.71L446.64,88.19L447.53,88.19L447.53,85.31L448.45,85.31L448.45,82.79L449.31,82.79L449.31,80.27L450.17,80.27L450.17,78.11L451.06,78.11L451.06,76.49L451.88,76.49L451.88,75.41L454.69,74.69L454.69,74.33L463.08,73.61L463.08,73.25L465.69,72.89L465.69,71.81L466.78,71.81L466.78,70.37L467.64,70.37L467.64,67.31L468.54,67.31L468.54,65.87L469.34,65.87L469.34,63.53L470.32,63.53L470.32,60.29L471.14,60.29L471.14,58.13L472.04,58.13L472.04,55.43L472.84,55.43L472.84,53.45L474.64,52.73L474.64,52.19L476.29,51.65L476.29,51.29L479.07,50.57L479.07,50.21L484.04,49.67L484.04,98.81L527.94,98.09L527.94,97.73L530.57,97.01L530.57,96.29L532.29,95.75L532.29,95.03L533.23,95.03L533.23,93.95L534.16,93.95L534.16,92.69L534.98,92.69L534.98,91.79L535.88,91.79L535.88,90.35L536.78,90.35L536.78,88.37L537.67,88.37L537.67,86.93L538.45,86.93L538.45,85.85L540.03,85.31L540.03,84.95L546.63,84.23L546.63,84.05L552.27,83.51L552.27,83.15L554.21,82.43L554.21,82.07L555.93,81.35L555.93,80.27L556.83,80.27L556.83,79.19L557.73,79.19L557.73,78.11L558.66,78.11L558.66,77.21L559.49,77.21L559.49,75.95L561.06,75.23L561.06,74.33L562.96,73.61L562.96,73.07L564.41,72.71L564.41,72.17L567.81,71.63L567.81,98.81L617.09,98.09L617.09,97.91L619.86,97.19L619.86,96.83L621.65,96.11L621.65,95.75L622.25,95.75L622.25,94.49L623.36,94.49L623.36,92.69L624.26,92.69L624.26,90.71L625.12,90.71L625.12,89.09L625.91,89.09L625.91,87.29L627.66,86.57L627.66,86.03L629.42,85.49L629.42,84.95L631.85,84.23L631.85,84.05L640.18,83.33L640.18,82.97L643.28,82.43L643.28,80.63L644.36,80.63L644.36,78.83L645.11,78.83L645.11,76.31L646.08,76.31L646.08,74.15L646.98,74.15L646.98,72.53L647.84,72.53L647.84,70.91L648.73,70.91" style="vector-effect: non-scaling-stroke; fill: none; stroke: rgb(0, 154, 250); stroke-opacity: 1; stroke-width: 1px; opacity: 1;"/></g><g class="points"/><g class="text"/></g><g class="trace scatter trace5f5343" style="stroke-miterlimit: 2; opacity: 1;"><g class="fills"/><g class="errorbars"/><g class="lines"><path class="js-line" d="M19.39,98.81L170.24,98.27L170.24,96.65L183.31,96.47L183.31,98.81L233.22,98.09L233.22,97.55L241.3,97.55L241.3,98.81L538.41,98.81L538.41,97.91L564.84,97.37L564.84,98.81L648.62,98.81" style="vector-effect: non-scaling-stroke; fill: none; stroke: rgb(227, 111, 71); stroke-opacity: 1; stroke-width: 1px; opacity: 1;"/></g><g class="points"/><g class="text"/></g><g class="trace scatter trace5a343d" style="stroke-miterlimit: 2; opacity: 1;"><g class="fills"/><g class="errorbars"/><g class="lines"><path class="js-line" d="M19.93,98.81L171.12,98.81L171.12,97.55L183.3,97.55L183.3,98.81L468.54,98.63L468.54,96.83L473.8,96.11L473.8,95.93L482.97,95.93L482.97,98.81L554.21,98.63L554.21,97.91L556.86,97.19L556.86,97.01L567.08,96.29L567.08,98.81L647.91,98.81L647.91,97.37L648.77,97.37" style="vector-effect: non-scaling-stroke; fill: none; stroke: rgb(62, 164, 78); stroke-opacity: 1; stroke-width: 1px; opacity: 1;"/></g><g class="points"/><g class="text"/></g><g class="trace scatter tracef51ee9" style="stroke-miterlimit: 2; opacity: 1;"><g class="fills"/><g class="errorbars"/><g class="lines"><path class="js-line" d="M20.18,96.11L34.05,96.11L34.05,98.81L86.73,98.81L86.73,97.19L87.99,97.19L87.99,96.11L89.42,96.11L89.42,98.81L165.79,98.27L165.79,97.37L169.3,96.83L169.3,95.93L181.66,95.93L181.66,98.81L229.49,98.45L229.49,97.91L241.29,97.91L241.29,98.81L453.9,98.09L453.9,97.91L455.73,97.91L455.73,98.81L558.66,98.63L558.66,97.73L564.85,97.01L564.85,98.81L648.62,98.81" style="vector-effect: non-scaling-stroke; fill: none; stroke: rgb(195, 113, 210); stroke-opacity: 1; stroke-width: 1px; opacity: 1;"/></g><g class="points"/><g class="text"/></g><g class="trace scatter tracee8e8d0" style="stroke-miterlimit: 2; opacity: 1;"><g class="fills"/><g class="errorbars"/><g class="lines"><path class="js-line" d="M21.44,98.81L171.78,98.81L171.78,97.91L183.29,97.37L183.29,98.81L383.66,98.45L383.66,97.91L393.96,97.73L393.96,98.81L556.34,98.81L556.34,97.91L567.77,97.91L567.77,98.81L647.01,98.45L647.01,97.37L648.63,97.37" style="vector-effect: non-scaling-stroke; fill: none; stroke: rgb(172, 142, 24); stroke-opacity: 1; stroke-width: 1px; opacity: 1;"/></g><g class="points"/><g class="text"/></g><g class="trace scatter traced054b8" style="stroke-miterlimit: 2; opacity: 1;"><g class="fills"/><g class="errorbars"/><g class="lines"><path class="js-line" d="M21.44,98.81L76.96,98.81L76.96,97.91L79.03,97.37L79.03,96.29L93.58,96.29L93.58,98.81L230.57,98.63L230.57,97.91L234.98,97.19L234.98,96.83L246.61,96.83L246.61,98.81L304.95,98.45L304.95,97.91L314.57,97.91L314.57,98.81L382.39,98.09L382.39,97.73L405.2,97.55L405.2,98.81L648.62,98.45" style="vector-effect: non-scaling-stroke; fill: none; stroke: rgb(0, 170, 174); stroke-opacity: 1; stroke-width: 1px; opacity: 1;"/></g><g class="points"/><g class="text"/></g><g class="trace scatter trace0268b0" style="stroke-miterlimit: 2; opacity: 1;"><g class="fills"/><g class="errorbars"/><g class="lines"><path class="js-line" d="M22,98.81L81.48,98.81L81.48,97.55L82.73,97.55L82.73,95.57L86.75,95.57L86.75,93.59L87.99,93.59L87.99,92.51L91.25,92.51L91.25,98.81L169.3,98.63L169.3,97.73L177.9,97.73L177.9,98.81L232.81,98.81L232.81,97.73L236.7,97.01L236.7,96.47L246.62,96.47L246.62,98.81L648.62,98.81" style="vector-effect: non-scaling-stroke; fill: none; stroke: rgb(237, 94, 147); stroke-opacity: 1; stroke-width: 1px; opacity: 1;"/></g><g class="points"/><g class="text"/></g><g class="trace scatter trace82b18a" style="stroke-miterlimit: 2; opacity: 1;"><g class="fills"/><g class="errorbars"/><g class="lines"><path class="js-line" d="M22.46,98.81L85.98,98.81L85.98,97.37L87.1,97.37L87.1,95.75L93.57,95.75L93.57,98.81L559.14,98.81L559.14,97.91L564.84,97.73L564.84,98.81L648.62,98.81" style="vector-effect: non-scaling-stroke; fill: none; stroke: rgb(198, 130, 37); stroke-opacity: 1; stroke-width: 1px; opacity: 1;"/></g><g class="points"/><g class="text"/></g><g class="trace scatter trace882124" style="stroke-miterlimit: 2; opacity: 1;"><g class="fills"/><g class="errorbars"/><g class="lines"><path class="js-line" d="M22.48,98.81L84.64,98.81L84.64,97.55L86.25,97.55L86.25,95.21L91.25,95.21L91.25,98.81L171.99,98.27L171.99,96.83L177.91,96.83L177.91,98.81L381.08,98.27L381.08,97.73L399.86,97.73L399.86,98.81L554.21,98.63L554.21,97.91L560.43,97.19L560.43,96.47L564.84,96.29L564.84,98.81L648.62,98.81" style="vector-effect: non-scaling-stroke; fill: none; stroke: rgb(0, 169, 141); stroke-opacity: 1; stroke-width: 1px; opacity: 1;"/></g><g class="points"/><g class="text"/></g><g class="trace scatter trace45007b" style="stroke-miterlimit: 2; opacity: 1;"><g class="fills"/><g class="errorbars"/><g class="lines"><path class="js-line" d="M22.48,90.17L34.05,90.17L34.05,98.81L83.99,98.81L83.99,96.65L93.58,96.65L93.58,98.81L233.22,98.27L233.22,97.73L235.77,97.73L235.77,95.93L241.26,95.39L241.26,98.81L296.94,98.81L296.94,97.73L300.01,97.01L300.01,96.83L303.53,96.47L303.53,95.93L314.57,95.75L314.57,98.81L380.11,98.45L380.11,97.73L393.97,97.73L393.97,98.81L556.83,98.09L556.83,97.55L564.83,97.01L564.83,98.81L648.73,98.45" style="vector-effect: non-scaling-stroke; fill: none; stroke: rgb(142, 151, 30); stroke-opacity: 1; stroke-width: 1px; opacity: 1;"/></g><g class="points"/><g class="text"/></g><g class="trace scatter tracec3b0f6" style="stroke-miterlimit: 2; opacity: 1;"><g class="fills"/><g class="errorbars"/><g class="lines"><path class="js-line" d="M22.48,98.81L167.02,98.81L167.02,97.73L172.49,97.55L172.49,96.47L177.91,95.93L177.91,98.81L381.82,98.27L381.82,97.73L399.86,97.19L399.86,98.81L453.9,98.09L453.9,97.91L455.73,97.91L455.73,98.81L645.22,98.45L645.22,97.55L648.62,97.55" style="vector-effect: non-scaling-stroke; fill: none; stroke: rgb(0, 169, 204); stroke-opacity: 1; stroke-width: 1px; opacity: 1;"/></g><g class="points"/><g class="text"/></g><g class="trace scatter trace38f350" style="stroke-miterlimit: 2; opacity: 1;"><g class="fills"/><g class="errorbars"/><g class="lines"><path class="js-line" d="M22.48,98.81L76.96,98.81L76.96,95.39L80.97,95.39L80.97,92.51L81.84,92.51L81.84,90.17L93.56,90.17L93.56,98.81L167.02,98.81L167.02,97.73L168.48,97.73L168.48,96.29L172.5,96.29L172.5,95.21L177.89,94.67L177.89,98.81L234.98,98.09L234.98,97.73L241.29,97.73L241.29,98.81L641.3,98.81L641.3,97.91L643.43,97.37L643.43,96.65L648.62,96.65" style="vector-effect: non-scaling-stroke; fill: none; stroke: rgb(155, 127, 233); stroke-opacity: 1; stroke-width: 1px; opacity: 1;"/></g><g class="points"/><g class="text"/></g><g class="trace scatter tracea07410" style="stroke-miterlimit: 2; opacity: 1;"><g class="fills"/><g class="errorbars"/><g class="lines"><path class="js-line" d="M22.48,98.81L80.09,98.81L80.09,97.55L81.84,97.55L81.84,95.21L100.3,95.21L100.3,98.81L303.52,98.27L303.52,97.73L314.56,97.55L314.56,98.81L466.75,98.63L466.75,97.55L470.8,97.37L470.8,95.21L472.04,95.21L472.04,93.95L482.94,93.95L482.94,98.81L645.66,98.81L645.66,97.73L646.9,97.73L646.9,96.83L648.62,96.47" style="vector-effect: non-scaling-stroke; fill: none; stroke: rgb(97, 141, 246); stroke-opacity: 1; stroke-width: 1px; opacity: 1;"/></g><g class="points"/><g class="text"/></g><g class="trace scatter trace6fb1cc" style="stroke-miterlimit: 2; opacity: 1;"><g class="fills"/><g class="errorbars"/><g class="lines"><path class="js-line" d="M22.48,96.11L34.05,96.11L34.05,98.81L230.57,98.63L230.57,97.91L234.05,97.73L234.05,96.83L246.63,96.83L246.63,98.81L557.73,98.45L557.73,97.91L559.15,97.91L559.15,97.01L564.82,96.83L564.82,98.81L648.62,98.81" style="vector-effect: non-scaling-stroke; fill: none; stroke: rgb(240, 96, 115); stroke-opacity: 1; stroke-width: 1px; opacity: 1;"/></g><g class="points"/><g class="text"/></g><g class="trace scatter traced6cc50" style="stroke-miterlimit: 2; opacity: 1;"><g class="fills"/><g class="errorbars"/><g class="lines"><path class="js-line" d="M22.48,98.81L85.32,98.81L85.32,97.55L86.25,97.55L86.25,95.03L91.25,95.03L91.25,98.81L170.16,98.27L170.16,97.55L171.11,97.55L171.11,96.65L183.31,96.11L183.31,98.81L379.3,98.27L379.3,97.91L405.18,97.37L405.18,98.81L466.75,98.81L466.75,97.91L469.34,97.55L469.34,96.83L470.28,96.83L470.28,95.03L473.78,94.31L473.78,94.13L477.52,94.13L477.52,98.81L648.62,98.81" style="vector-effect: non-scaling-stroke; fill: none; stroke: rgb(221, 101, 182); stroke-opacity: 1; stroke-width: 1px; opacity: 1;"/></g><g class="points"/><g class="text"/></g><g class="trace scatter trace2481ee" style="stroke-miterlimit: 2; opacity: 1;"><g class="fills"/><g class="errorbars"/><g class="lines"><path class="js-line" d="M22.48,98.81L82.38,98.81L82.38,97.37L83.63,97.37L83.63,96.11L83.96,96.11L83.96,93.95L91.27,93.95L91.27,98.81L470.8,98.63L470.8,97.01L482.94,97.01L482.94,98.81L648.03,98.81" style="vector-effect: non-scaling-stroke; fill: none; stroke: rgb(108, 159, 51); stroke-opacity: 1; stroke-width: 1px; opacity: 1;"/></g><g class="points"/><g class="text"/></g><g class="trace scatter tracef2bfb4" style="stroke-miterlimit: 2; opacity: 1;"><g class="fills"/><g class="errorbars"/><g class="lines"><path class="js-line" d="M22.48,95.39L34.05,95.39L34.05,98.81L82.41,98.81L82.41,97.19L83.63,97.19L83.63,96.11L85.38,95.93L85.38,93.41L93.58,93.41L93.58,98.81L470.21,98.81L470.21,97.55L482.94,97.01L482.94,98.81L647.47,98.81L647.47,97.37L648.7,97.37" style="vector-effect: non-scaling-stroke; fill: none; stroke: rgb(0, 154, 250); stroke-opacity: 1; stroke-width: 1px; opacity: 1;"/></g><g class="points"/><g class="text"/></g><g class="trace scatter trace60bd6f" style="stroke-miterlimit: 2; opacity: 1;"><g class="fills"/><g class="errorbars"/><g class="lines"><path class="js-line" d="M22.48,98.81L78.2,98.09L78.2,97.37L79.03,97.37L79.03,96.29L100.29,96.29L100.29,98.81L166.72,98.09L166.72,97.73L168.5,97.73L168.5,96.65L170.51,96.65L170.51,95.39L177.91,95.39L177.91,98.81L229.49,98.45L229.49,97.91L231.47,97.91L231.47,96.83L241.28,96.83L241.28,98.81L300.57,98.27L300.57,97.73L309.24,97.73L309.24,98.81L556.36,98.81L556.36,97.91L564.84,97.91L564.84,98.81L647.01,98.27L647.01,97.19L648.63,97.19" style="vector-effect: non-scaling-stroke; fill: none; stroke: rgb(227, 111, 71); stroke-opacity: 1; stroke-width: 1px; opacity: 1;"/></g><g class="points"/><g class="text"/></g><g class="trace scatter tracea7ad12" style="stroke-miterlimit: 2; opacity: 1;"><g class="fills"/><g class="errorbars"/><g class="lines"><path class="js-line" d="M22.48,98.81L83.26,98.81L83.26,97.37L87.51,96.83L87.51,94.85L93.57,94.49L93.57,98.81L171.99,98.27L171.99,96.83L183.3,96.83L183.3,98.81L231.47,98.81L231.47,97.73L241.29,97.01L241.29,98.81L303.11,98.09L303.11,97.73L309.22,97.73L309.22,98.81L468.54,98.63L468.54,96.83L471.88,96.83L471.88,95.75L482.94,95.03L482.94,98.81L632.75,98.81L632.75,97.73L644.36,97.73L644.36,96.65L648.62,96.65" style="vector-effect: non-scaling-stroke; fill: none; stroke: rgb(62, 164, 78); stroke-opacity: 1; stroke-width: 1px; opacity: 1;"/></g><g class="points"/><g class="text"/></g><g class="trace scatter tracee229d9" style="stroke-miterlimit: 2; opacity: 1;"><g class="fills"/><g class="errorbars"/><g class="lines"><path class="js-line" d="M23.24,98.81L85.36,98.81L85.36,96.29L93.57,96.29L93.57,98.81L234.6,98.81L234.6,97.73L241.29,97.55L241.29,98.81L645.66,98.81L645.66,97.91L648.63,97.55" style="vector-effect: non-scaling-stroke; fill: none; stroke: rgb(195, 113, 210); stroke-opacity: 1; stroke-width: 1px; opacity: 1;"/></g><g class="points"/><g class="text"/></g><g class="trace scatter tracecdc932" style="stroke-miterlimit: 2; opacity: 1;"><g class="fills"/><g class="errorbars"/><g class="lines"><path class="js-line" d="M24.1,98.81L83.25,98.81L83.25,97.19L87.5,96.65L87.5,94.49L93.58,94.31L93.58,98.81L466.74,98.81L466.74,97.91L469.12,97.55L469.12,95.93L477.51,95.93L477.51,98.81L559.8,98.27L559.8,97.55L564.84,97.37L564.84,98.81L644.91,98.81L644.91,97.91L648.63,97.37" style="vector-effect: non-scaling-stroke; fill: none; stroke: rgb(172, 142, 24); stroke-opacity: 1; stroke-width: 1px; opacity: 1;"/></g><g class="points"/><g class="text"/></g><g class="trace scatter traceb59182" style="stroke-miterlimit: 2; opacity: 1;"><g class="fills"/><g class="errorbars"/><g class="lines"><path class="js-line" d="M24.1,98.81L80.1,98.81L80.1,95.39L80.97,95.39L80.97,93.95L81.46,93.95L81.46,92.69L82.73,92.69L82.73,90.53L100.29,90.53L100.29,98.81L169.87,98.09L169.87,97.19L174.74,97.01L174.74,98.81L234.05,98.81L234.05,97.91L246.63,97.91L246.63,98.81L642.57,98.09L642.57,97.55L643.91,96.83L643.91,96.47L645.22,96.47L645.22,95.57L648.63,95.57" style="vector-effect: non-scaling-stroke; fill: none; stroke: rgb(0, 170, 174); stroke-opacity: 1; stroke-width: 1px; opacity: 1;"/></g><g class="points"/><g class="text"/></g><g class="trace scatter tracecb22a6" style="stroke-miterlimit: 2; opacity: 1;"><g class="fills"/><g class="errorbars"/><g class="lines"><path class="js-line" d="M24.11,98.81L232.8,98.81L232.8,97.73L246.62,97.73L246.62,98.81L469.34,98.45L469.34,96.29L472.04,95.75L472.04,94.49L477.5,94.49L477.5,98.81L557.52,98.09L557.52,97.91L558.66,97.91L558.66,96.83L561.88,96.11L561.88,98.81L648.62,98.81" style="vector-effect: non-scaling-stroke; fill: none; stroke: rgb(237, 94, 147); stroke-opacity: 1; stroke-width: 1px; opacity: 1;"/></g><g class="points"/><g class="text"/></g><g class="trace scatter trace2f75d0" style="stroke-miterlimit: 2; opacity: 1;"><g class="fills"/><g class="errorbars"/><g class="lines"><path class="js-line" d="M24.11,98.81L85.98,98.81L85.98,97.19L87.1,97.19L87.1,95.57L98.25,95.57L98.25,98.81L234.6,98.81L234.6,97.73L246.61,97.55L246.61,98.81L384.52,98.27L384.52,97.91L405.2,97.73L405.2,98.81L470.21,98.81L470.21,97.73L477.52,97.19L477.52,98.81L644.91,98.81L644.91,97.73L648.02,97.73" style="vector-effect: non-scaling-stroke; fill: none; stroke: rgb(198, 130, 37); stroke-opacity: 1; stroke-width: 1px; opacity: 1;"/></g><g class="points"/><g class="text"/></g></g></g><g class="overplot"/><path class="xlines-above crisp" d="M0,0" style="fill: none;"/><path class="ylines-above crisp" d="M47.88145231846019,35.84524156702635V137.52847578054667" style="fill: none; stroke-width: 1px; stroke: rgb(0, 0, 0); stroke-opacity: 1;"/><g class="overlines-above"/><g class="xaxislayer-above"/><g class="yaxislayer-above"><path class="ytick ticks crisp" d="M48.38145231846019,0h5" transform="translate(0,134.65524156702634)" style="stroke: rgb(0, 0, 0); stroke-opacity: 1; stroke-width: 1px;"/><path class="ytick ticks crisp" d="M48.38145231846019,0h5" transform="translate(0,116.65524156702635)" style="stroke: rgb(0, 0, 0); stroke-opacity: 1; stroke-width: 1px;"/><path class="ytick ticks crisp" d="M48.38145231846019,0h5" transform="translate(0,98.65524156702635)" style="stroke: rgb(0, 0, 0); stroke-opacity: 1; stroke-width: 1px;"/><path class="ytick ticks crisp" d="M48.38145231846019,0h5" transform="translate(0,80.65524156702635)" style="stroke: rgb(0, 0, 0); stroke-opacity: 1; stroke-width: 1px;"/><path class="ytick ticks crisp" d="M48.38145231846019,0h5" transform="translate(0,62.65524156702635)" style="stroke: rgb(0, 0, 0); stroke-opacity: 1; stroke-width: 1px;"/><path class="ytick ticks crisp" d="M48.38145231846019,0h5" transform="translate(0,44.66524156702635)" style="stroke: rgb(0, 0, 0); stroke-opacity: 1; stroke-width: 1px;"/><g class="ytick"><text text-anchor="end" x="44.581452318460194" y="4.8999999999999995" transform="translate(0,134.65524156702634)" style="font-family: sans-serif; font-size: 14px; fill: rgb(0, 0, 0); fill-opacity: 1; white-space: pre; opacity: 1;">0</text></g><g class="ytick"><text text-anchor="end" x="44.581452318460194" y="4.8999999999999995" style="font-family: sans-serif; font-size: 14px; fill: rgb(0, 0, 0); fill-opacity: 1; white-space: pre; opacity: 1;" transform="translate(0,116.65524156702635)">100</text></g><g class="ytick"><text text-anchor="end" x="44.581452318460194" y="4.8999999999999995" style="font-family: sans-serif; font-size: 14px; fill: rgb(0, 0, 0); fill-opacity: 1; white-space: pre; opacity: 1;" transform="translate(0,98.65524156702635)">200</text></g><g class="ytick"><text text-anchor="end" x="44.581452318460194" y="4.8999999999999995" style="font-family: sans-serif; font-size: 14px; fill: rgb(0, 0, 0); fill-opacity: 1; white-space: pre; opacity: 1;" transform="translate(0,80.65524156702635)">300</text></g><g class="ytick"><text text-anchor="end" x="44.581452318460194" y="4.8999999999999995" style="font-family: sans-serif; font-size: 14px; fill: rgb(0, 0, 0); fill-opacity: 1; white-space: pre; opacity: 1;" transform="translate(0,62.65524156702635)">400</text></g><g class="ytick"><text text-anchor="end" x="44.581452318460194" y="4.8999999999999995" style="font-family: sans-serif; font-size: 14px; fill: rgb(0, 0, 0); fill-opacity: 1; white-space: pre; opacity: 1;" transform="translate(0,44.66524156702635)">500</text></g></g><g class="overaxes-above"/></g><g class="subplot xy2"><g class="layer-subplot"><g class="shapelayer"/><g class="imagelayer"/></g><g class="gridlayer"><g class="x"><path class="xgrid crisp" transform="translate(67.2814523184602,0)" d="M0,182.7992058281796v101.68323421352031" style="stroke: rgb(0, 0, 0); stroke-opacity: 0.1; stroke-width: 0.5px;"/><path class="xgrid crisp" transform="translate(93.52145231846019,0)" d="M0,182.7992058281796v101.68323421352031" style="stroke: rgb(0, 0, 0); stroke-opacity: 0.1; stroke-width: 0.5px;"/><path class="xgrid crisp" transform="translate(119.77145231846019,0)" d="M0,182.7992058281796v101.68323421352031" style="stroke: rgb(0, 0, 0); stroke-opacity: 0.1; stroke-width: 0.5px;"/><path class="xgrid crisp" transform="translate(146.0114523184602,0)" d="M0,182.7992058281796v101.68323421352031" style="stroke: rgb(0, 0, 0); stroke-opacity: 0.1; stroke-width: 0.5px;"/><path class="xgrid crisp" transform="translate(172.2614523184602,0)" d="M0,182.7992058281796v101.68323421352031" style="stroke: rgb(0, 0, 0); stroke-opacity: 0.1; stroke-width: 0.5px;"/><path class="xgrid crisp" transform="translate(198.5014523184602,0)" d="M0,182.7992058281796v101.68323421352031" style="stroke: rgb(0, 0, 0); stroke-opacity: 0.1; stroke-width: 0.5px;"/><path class="xgrid crisp" transform="translate(224.7514523184602,0)" d="M0,182.7992058281796v101.68323421352031" style="stroke: rgb(0, 0, 0); stroke-opacity: 0.1; stroke-width: 0.5px;"/><path class="xgrid crisp" transform="translate(250.9914523184602,0)" d="M0,182.7992058281796v101.68323421352031" style="stroke: rgb(0, 0, 0); stroke-opacity: 0.1; stroke-width: 0.5px;"/><path class="xgrid crisp" transform="translate(277.24145231846023,0)" d="M0,182.7992058281796v101.68323421352031" style="stroke: rgb(0, 0, 0); stroke-opacity: 0.1; stroke-width: 0.5px;"/><path class="xgrid crisp" transform="translate(303.4814523184602,0)" d="M0,182.7992058281796v101.68323421352031" style="stroke: rgb(0, 0, 0); stroke-opacity: 0.1; stroke-width: 0.5px;"/><path class="xgrid crisp" transform="translate(329.73145231846024,0)" d="M0,182.7992058281796v101.68323421352031" style="stroke: rgb(0, 0, 0); stroke-opacity: 0.1; stroke-width: 0.5px;"/><path class="xgrid crisp" transform="translate(355.98145231846024,0)" d="M0,182.7992058281796v101.68323421352031" style="stroke: rgb(0, 0, 0); stroke-opacity: 0.1; stroke-width: 0.5px;"/><path class="xgrid crisp" transform="translate(382.22145231846014,0)" d="M0,182.7992058281796v101.68323421352031" style="stroke: rgb(0, 0, 0); stroke-opacity: 0.1; stroke-width: 0.5px;"/><path class="xgrid crisp" transform="translate(408.47145231846014,0)" d="M0,182.7992058281796v101.68323421352031" style="stroke: rgb(0, 0, 0); stroke-opacity: 0.1; stroke-width: 0.5px;"/><path class="xgrid crisp" transform="translate(434.71145231846015,0)" d="M0,182.7992058281796v101.68323421352031" style="stroke: rgb(0, 0, 0); stroke-opacity: 0.1; stroke-width: 0.5px;"/><path class="xgrid crisp" transform="translate(460.96145231846015,0)" d="M0,182.7992058281796v101.68323421352031" style="stroke: rgb(0, 0, 0); stroke-opacity: 0.1; stroke-width: 0.5px;"/><path class="xgrid crisp" transform="translate(487.20145231846016,0)" d="M0,182.7992058281796v101.68323421352031" style="stroke: rgb(0, 0, 0); stroke-opacity: 0.1; stroke-width: 0.5px;"/><path class="xgrid crisp" transform="translate(513.4514523184602,0)" d="M0,182.7992058281796v101.68323421352031" style="stroke: rgb(0, 0, 0); stroke-opacity: 0.1; stroke-width: 0.5px;"/><path class="xgrid crisp" transform="translate(539.6914523184602,0)" d="M0,182.7992058281796v101.68323421352031" style="stroke: rgb(0, 0, 0); stroke-opacity: 0.1; stroke-width: 0.5px;"/><path class="xgrid crisp" transform="translate(565.9414523184602,0)" d="M0,182.7992058281796v101.68323421352031" style="stroke: rgb(0, 0, 0); stroke-opacity: 0.1; stroke-width: 0.5px;"/><path class="xgrid crisp" transform="translate(592.1814523184602,0)" d="M0,182.7992058281796v101.68323421352031" style="stroke: rgb(0, 0, 0); stroke-opacity: 0.1; stroke-width: 0.5px;"/><path class="xgrid crisp" transform="translate(618.4314523184602,0)" d="M0,182.7992058281796v101.68323421352031" style="stroke: rgb(0, 0, 0); stroke-opacity: 0.1; stroke-width: 0.5px;"/><path class="xgrid crisp" transform="translate(644.6714523184602,0)" d="M0,182.7992058281796v101.68323421352031" style="stroke: rgb(0, 0, 0); stroke-opacity: 0.1; stroke-width: 0.5px;"/><path class="xgrid crisp" transform="translate(670.9214523184602,0)" d="M0,182.7992058281796v101.68323421352031" style="stroke: rgb(0, 0, 0); stroke-opacity: 0.1; stroke-width: 0.5px;"/><path class="xgrid crisp" transform="translate(697.1614523184602,0)" d="M0,182.7992058281796v101.68323421352031" style="stroke: rgb(0, 0, 0); stroke-opacity: 0.1; stroke-width: 0.5px;"/></g><g class="y2"><path class="y2grid crisp" transform="translate(0,281.6092058281796)" d="M48.38145231846019,0h667.681539807524" style="stroke: rgb(0, 0, 0); stroke-opacity: 0.1; stroke-width: 0.5px;"/><path class="y2grid crisp" transform="translate(0,250.99920582817958)" d="M48.38145231846019,0h667.681539807524" style="stroke: rgb(0, 0, 0); stroke-opacity: 0.1; stroke-width: 0.5px;"/><path class="y2grid crisp" transform="translate(0,220.3892058281796)" d="M48.38145231846019,0h667.681539807524" style="stroke: rgb(0, 0, 0); stroke-opacity: 0.1; stroke-width: 0.5px;"/><path class="y2grid crisp" transform="translate(0,189.7892058281796)" d="M48.38145231846019,0h667.681539807524" style="stroke: rgb(0, 0, 0); stroke-opacity: 0.1; stroke-width: 0.5px;"/></g></g><g class="zerolinelayer"/><path class="xlines-below"/><path class="ylines-below"/><g class="overlines-below"/><g class="xaxislayer-below"/><g class="yaxislayer-below"/><g class="overaxes-below"/><g class="plot" transform="translate(48.38145231846019,182.7992058281796)" clip-path="url(#clip040c6exy2plot)"><g class="scatterlayer mlayer"><g class="trace scatter trace218676" style="stroke-miterlimit: 2; opacity: 1;"><g class="fills"/><g class="errorbars"/><g class="lines"><path class="js-line" d="M18.9,94.97L19.77,94.97L19.77,93.81L20.65,93.81L20.65,90.15L21.52,90.15L21.52,88.39L22.4,88.39L22.4,82.6L23.27,82.6L23.27,76.29L24.15,76.29L24.15,61.67L25.02,61.67L25.02,48.01L25.9,48.01L25.9,67.28L26.77,67.28L26.77,39.7L27.65,39.7L27.65,33.61L29.39,33.56L29.39,22.06L30.27,22.06L30.27,40.03L31.14,40.03L31.14,46.31L32.02,46.31L32.02,54.31L32.89,54.31L32.89,73.87L33.77,73.87L33.77,85.66L34.64,85.66L34.64,86.79L35.52,86.79L35.52,97.88L40.77,98.54L40.77,98.81L52.14,98.81L52.14,89.75L53.02,89.75L53.02,92.56L53.89,92.56L53.89,98.81L63.51,98.81L63.51,94.13L64.39,94.13L64.39,92.96L65.26,92.96L65.26,98.11L71.39,98L71.39,97.17L74.01,97.17L74.01,93.16L75.76,93.02L75.76,92.4L76.64,92.4L76.64,93.54L77.51,93.54L77.51,91.54L78.39,91.54L78.39,88.37L79.26,88.37L79.26,72.48L80.14,72.48L80.14,64.88L81.01,64.88L81.01,61.75L81.89,61.75L81.89,51.39L82.76,51.39L82.76,41.07L83.64,41.07L83.64,30.31L84.51,30.31L84.51,45.66L85.38,45.66L85.38,34.11L86.26,34.11L86.26,41.22L87.13,41.22L87.13,37.97L88.01,37.97L88.01,60.85L89.76,61.17L89.76,63.48L91.51,63.63L91.51,76.35L92.38,76.35L92.38,81.7L93.26,81.7L93.26,85.99L94.13,85.99L94.13,92.26L95.01,92.26L95.01,94.95L96.76,95.46L96.76,96.32L98.51,96.21L98.51,91.95L100.26,91.95L100.26,95.74L101.13,95.74L101.13,96.73L102.88,96.13L102.88,94.94L104.63,94.94L104.63,96.18L107.26,96.03L107.26,93.73L109.01,93.4L109.01,92.26L109.88,92.26L109.88,91.11L110.76,91.11L110.76,89.5L111.63,89.5L111.63,88.05L113.38,87.35L113.38,79.05L115.13,78.71L115.13,57.39L116,57.39L116,59.23L116.88,59.23L116.88,45.9L117.75,45.9L117.75,34.11L118.63,34.11L118.63,23.08L119.5,23.08L119.5,33.99L120.38,33.99L120.38,32.11L121.25,32.11L121.25,43.73L122.13,43.73L122.13,34.22L123,34.22L123,48.1L123.88,48.1L123.88,69.98L124.75,69.98L124.75,96.22L125.63,96.22L125.63,97.63L133.5,97.75L133.5,96.83L143.12,97.54L143.12,98.81L146.62,98.81L146.62,95.32L147.5,95.32L147.5,91.11L148.37,91.11L148.37,95.94L151,95.94L151,97.03L159.75,97.17L159.75,96.61L161.5,96.02L161.5,95.66L163.25,95.32L163.25,94.14L164.12,94.14L164.12,81.61L165,81.61L165,79.47L165.87,79.47L165.87,72.9L166.75,72.9L166.75,78.63L167.62,78.63L167.62,70.94L168.5,70.94L168.5,63.44L169.37,63.44L169.37,56.9L171.12,56.29L171.12,48.23L171.99,48.23L171.99,50.19L172.87,50.19L172.87,52.67L173.74,52.67L173.74,60.26L174.62,60.26L174.62,67.2L175.49,67.2L175.49,74.43L176.37,74.43L176.37,83.12L177.24,83.12L177.24,88.46L178.12,88.46L178.12,90.04L178.99,90.04L178.99,91.36L179.87,91.36L179.87,94.97L180.74,94.97L180.74,95.74L182.49,95.69L182.49,94.63L183.37,94.63L183.37,93.05L184.24,93.05L184.24,96.32L190.37,95.82L190.37,97.71L191.24,97.71L191.24,87.48L192.12,87.48L192.12,90.01L193.87,89.6L193.87,86.61L194.74,86.61L194.74,81.57L195.62,81.57L195.62,83.58L196.49,83.58L196.49,82.31L199.11,81.79L199.11,82.49L199.99,82.49L199.99,70.79L200.86,70.79L200.86,89.26L201.74,89.26L201.74,94.93L211.36,95.36L211.36,96.35L212.24,96.35L212.24,94.06L213.99,93.75L213.99,94.76L214.86,94.76L214.86,93.25L215.74,93.25L215.74,92.32L219.24,91.8L219.24,92.98L220.11,92.98L220.11,93.89L221.86,94.29L221.86,95.89L223.61,96.12L223.61,96.7L225.36,96.7L225.36,95.74L226.23,95.74L226.23,94.27L227.11,94.27L227.11,90.8L227.98,90.8L227.98,92.19L228.86,92.19L228.86,87.69L229.73,87.69L229.73,83.11L230.61,83.11L230.61,85.05L231.48,85.05L231.48,68.23L233.23,68.91L233.23,66.19L234.11,66.19L234.11,60.55L234.98,60.55L234.98,52.05L235.86,52.05L235.86,67.97L236.73,67.97L236.73,73.07L237.61,73.07L237.61,76.7L238.48,76.7L238.48,79.64L239.36,79.64L239.36,85.98L240.23,85.98L240.23,87.07L241.11,87.07L241.11,90.68L241.98,90.68L241.98,92L242.86,92L242.86,95.07L245.48,95.53L245.48,96.08L253.36,95.65L253.36,94.89L254.23,94.89L254.23,90.72L255.1,90.72L255.1,86L255.98,86L255.98,84.25L256.85,84.25L256.85,82.24L258.6,81.6L258.6,86.37L259.48,86.37L259.48,92.25L260.35,92.25L260.35,96.2L261.23,96.2L261.23,95.06L262.1,95.06L262.1,91.3L262.98,91.3L262.98,94.2L270.85,94.37L270.85,91.93L271.73,91.93L271.73,91.07L272.6,91.07L272.6,94L275.23,94.17L275.23,89.17L276.1,89.17L276.1,86.89L276.98,86.89L276.98,90.16L277.85,90.16L277.85,82.54L278.73,82.54L278.73,80.51L279.6,80.51L279.6,71.58L280.48,71.58L280.48,54.77L281.35,54.77L281.35,51.43L282.22,51.43L282.22,61.78L283.1,61.78L283.1,74.73L283.97,74.73L283.97,69.02L284.85,69.02L284.85,86.75L285.72,86.75L285.72,94.94L286.6,94.94L286.6,93.7L287.47,93.7L287.47,95.96L289.22,96.16L289.22,96.91L293.6,96.44L293.6,95.58L295.35,95.12L295.35,92.64L296.22,92.64L296.22,88.82L297.97,89.08L297.97,83.32L298.85,83.32L298.85,80.59L299.72,80.59L299.72,84.23L300.6,84.23L300.6,77.19L301.47,77.19L301.47,83.97L302.35,83.97L302.35,74.17L303.22,74.17L303.22,60.4L304.1,60.4L304.1,74.01L304.97,74.01L304.97,81.96L305.85,81.96L305.85,82.79L306.72,82.79L306.72,81.92L307.6,81.92L307.6,86.5L308.47,86.5L308.47,90.07L309.35,90.07L309.35,89.01L310.22,89.01L310.22,93.41L311.09,93.41L311.09,94.48L311.97,94.48L311.97,95.29L313.72,95.8L313.72,96.08L318.97,95.9L318.97,95.52L319.84,95.52L319.84,91.82L320.72,91.82L320.72,95.3L321.59,95.3L321.59,97.75L329.47,97.73L329.47,96.72L340.84,96.41L340.84,97.41L344.34,97.52L344.34,94.87L346.09,94.68L346.09,95.45L346.96,95.45L346.96,96.37L349.59,96.21L349.59,95.54L350.46,95.54L350.46,94.52L352.21,94.4L352.21,86.53L353.09,86.53L353.09,84.49L354.84,84.79L354.84,78.26L355.71,78.26L355.71,81.57L356.59,81.57L356.59,79.72L357.46,79.72L357.46,80.84L358.34,80.84L358.34,82.32L359.21,82.32L359.21,83.96L360.09,83.96L360.09,81.22L360.96,81.22L360.96,88.91L361.84,88.91L361.84,94.09L362.71,94.09L362.71,91.96L363.59,91.96L363.59,92.99L364.46,92.99L364.46,95.6L366.21,96.02L366.21,96.65L371.46,96.87L371.46,95.96L373.21,95.66L373.21,93.94L374.08,93.94L374.08,85.49L374.96,85.49L374.96,92.7L375.83,92.7L375.83,90.81L376.71,90.81L376.71,83.46L379.33,83.71L379.33,82.66L381.96,83.24L381.96,81.69L383.71,81.4L383.71,74.44L384.58,74.44L384.58,77.84L385.46,77.84L385.46,85.66L388.08,85.69L388.08,86.53L388.96,86.53L388.96,90.37L389.83,90.37L389.83,93.05L390.71,93.05L390.71,94.66L391.58,94.66L391.58,98.63L392.46,98.63L392.46,91.65L393.33,91.65L393.33,95.94L394.21,95.94L394.21,98.81L395.08,98.81L395.08,94.34L395.95,94.34L395.95,96.07L399.45,96.63L399.45,97.23L400.33,97.23L400.33,98.81L403.83,98.81L403.83,97.91L404.7,97.91L404.7,94.6L405.58,94.6L405.58,98.81L416.95,98.81L416.95,93.7L417.83,93.7L417.83,98.43L437.07,98.27L437.07,95.45L441.45,95.45L441.45,94.3L442.32,94.3L442.32,79.92L443.2,79.92L443.2,71.28L444.07,71.28L444.07,64.27L444.95,64.27L444.95,48.56L445.82,48.56L445.82,28.39L447.57,28.22L447.57,20.45L448.45,20.45L448.45,26.78L449.32,26.78L449.32,26.01L450.2,26.01L450.2,39.17L451.07,39.17L451.07,51.07L451.94,51.07L451.94,69.94L452.82,69.94L452.82,87.08L453.69,87.08L453.69,91.39L455.44,90.88L455.44,93.93L456.32,93.93L456.32,95.89L457.19,95.89L457.19,96.73L461.57,96.67L461.57,95.78L462.44,95.78L462.44,94.51L463.32,94.51L463.32,91.34L464.19,91.34L464.19,92.38L465.07,92.38L465.07,87.3L465.94,87.3L465.94,73.45L466.82,73.45L466.82,54.83L467.69,54.83L467.69,15.86L468.57,15.86L468.57,52.19L469.44,52.19L469.44,39.42L470.32,39.42L470.32,3.53L471.19,3.53L471.19,38.94L472.07,38.94L472.07,18.31L472.94,18.31L472.94,47.92L473.82,47.92L473.82,78.23L474.69,78.23L474.69,81.58L475.57,81.58L475.57,84.89L476.44,84.89L476.44,88.98L477.32,88.98L477.32,84.61L478.19,84.61L478.19,93.83L479.07,93.83L479.07,89.64L479.94,89.64L479.94,94.86L480.81,94.86L480.81,95.77L482.56,96.23L482.56,95.43L484.31,95.36L484.31,98.81L500.06,98.81L500.06,94.68L500.94,94.68L500.94,97.83L501.81,97.83L501.81,98.81L524.56,98.81L524.56,97.21L525.43,97.21L525.43,94.16L527.18,94.47L527.18,92.75L528.06,92.75L528.06,89.12L529.81,89.24L529.81,85.95L530.68,85.95L530.68,78.08L531.56,78.08L531.56,83.61L532.43,83.61L532.43,78.8L533.31,78.8L533.31,69.88L534.18,69.88L534.18,61.97L535.06,61.97L535.06,73.05L535.93,73.05L535.93,58.48L536.8,58.48L536.8,43.78L537.68,43.78L537.68,55.12L538.55,55.12L538.55,69.33L539.43,69.33L539.43,83.38L540.3,83.38L540.3,90.7L541.18,90.7L541.18,94.23L542.05,94.23L542.05,98.65L542.93,98.65L542.93,91.6L543.8,91.6L543.8,95.79L544.68,95.79L544.68,96.6L549.05,96.99L549.05,95.72L550.8,95.38L550.8,94.68L551.68,94.68L551.68,91.19L552.55,91.19L552.55,88.28L553.43,88.28L553.43,80.2L554.3,80.2L554.3,83.93L555.18,83.93L555.18,80.49L556.05,80.49L556.05,68.95L557.8,69.04L557.8,70.14L558.68,70.14L558.68,71.24L559.55,71.24L559.55,65.38L560.43,65.38L560.43,71.44L561.3,71.44L561.3,75.39L562.18,75.39L562.18,81.26L563.92,81.38L563.92,87.86L565.67,87.87L565.67,92.77L567.42,93.06L567.42,96.02L568.3,96.02L568.3,98.81L585.8,98.81L585.8,97.19L586.67,97.19L586.67,95.32L587.55,95.32L587.55,98.81L611.17,98.69L611.17,96.46L616.42,96.5L616.42,94.34L617.29,94.34L617.29,92.53L619.04,92.32L619.04,89.68L619.92,89.68L619.92,85.2L620.79,85.2L620.79,82.4L621.66,82.4L621.66,79.52L622.54,79.52L622.54,69.53L623.41,69.53L623.41,48.8L624.29,48.8L624.29,42.05L625.16,42.05L625.16,48.27L626.04,48.27L626.04,53.15L626.91,53.15L626.91,77.41L627.79,77.41L627.79,82.06L628.66,82.06L628.66,84.3L629.54,84.3L629.54,79.99L630.41,79.99L630.41,88.66L631.29,88.66L631.29,94.07L632.16,94.07L632.16,94.88L633.04,94.88L633.04,95.67L635.66,96.41L635.66,96.65L639.16,96.66L639.16,95.2L640.04,95.2L640.04,92.17L642.66,91.68L642.66,81.11L643.54,81.11L643.54,56.39L644.41,56.39L644.41,38.37L645.29,38.37L645.29,34.8L646.16,34.8L646.16,39.95L647.04,39.95L647.04,52.28L647.91,52.28L647.91,56.63L648.78,56.63L648.78,98.81" style="vector-effect: non-scaling-stroke; fill: none; stroke: rgb(0, 154, 250); stroke-opacity: 1; stroke-width: 1px; opacity: 1;"/></g><g class="points"/><g class="text"/></g><g class="trace scatter trace21f1ce" style="stroke-miterlimit: 2; opacity: 1;"><g class="fills"/><g class="errorbars"/><g class="lines"><path class="js-line" d="M18.9,98.81L168.5,98.81L168.5,96.91L169.37,96.91L169.37,85.4L170.24,85.4L170.24,52.78L171.12,52.78L171.12,93.82L171.99,93.82L171.99,98.81L231.48,98.81L231.48,95.48L232.36,95.48L232.36,81.45L233.23,81.45L233.23,83.79L234.11,83.79L234.11,98.81L297.1,98.53L297.1,97.1L298.85,97.1L298.85,94.78L299.72,94.78L299.72,91.22L300.6,91.22L300.6,98.81L374.08,98.81L374.08,92.71L374.96,92.71L374.96,93.92L377.58,93.84L377.58,98.81L537.68,98.81L537.68,96.7L538.55,96.7L538.55,86.16L539.43,86.16L539.43,88.06L540.3,88.06L540.3,98.81L542.93,98.5L542.93,88.91L543.8,88.91L543.8,98.81L551.68,98.81L551.68,97.36L552.55,97.36L552.55,96.49L553.43,96.49L553.43,97.47L554.3,97.47L554.3,98.81L648.78,98.81L648.78,98.81" style="vector-effect: non-scaling-stroke; fill: none; stroke: rgb(227, 111, 71); stroke-opacity: 1; stroke-width: 1px; opacity: 1;"/></g><g class="points"/><g class="text"/></g><g class="trace scatter trace47cb2e" style="stroke-miterlimit: 2; opacity: 1;"><g class="fills"/><g class="errorbars"/><g class="lines"><path class="js-line" d="M19.77,98.81L171.12,98.81L171.12,63.1L171.99,63.1L171.99,98.81L377.58,98.3L377.58,93.95L378.46,93.95L378.46,83.76L379.33,83.76L379.33,98.81L467.69,98.37L467.69,92.78L468.57,92.78L468.57,49.16L469.44,49.16L469.44,98.81L472.07,98.81L472.07,97.51L472.94,97.51L472.94,79.6L473.82,79.6L473.82,93.8L474.69,93.8L474.69,98.81L552.55,98.81L552.55,98.01L553.43,98.01L553.43,92.59L554.3,92.59L554.3,80.31L555.18,80.31L555.18,97.12L556.05,97.12L556.05,79.71L556.93,79.71L556.93,93.09L557.8,93.09L557.8,79.39L558.68,79.39L558.68,98.81L647.91,98.81L647.91,58L648.78,58L648.78,98.81" style="vector-effect: non-scaling-stroke; fill: none; stroke: rgb(62, 164, 78); stroke-opacity: 1; stroke-width: 1px; opacity: 1;"/></g><g class="points"/><g class="text"/></g><g class="trace scatter traceab0bec" style="stroke-miterlimit: 2; opacity: 1;"><g class="fills"/><g class="errorbars"/><g class="lines"><path class="js-line" d="M19.77,98.81L86.26,98.81L86.26,84.03L87.13,84.03L87.13,65.97L88.01,65.97L88.01,69.9L88.88,69.9L88.88,98.81L163.25,98.11L163.25,96.1L164.12,96.1L164.12,94.13L165,94.13L165,89.39L165.87,89.39L165.87,74.99L166.75,74.99L166.75,89.1L167.62,89.1L167.62,98.81L168.5,98.81L168.5,90.72L169.37,90.72L169.37,76.28L170.24,76.28L170.24,98.81L228.86,98.24L228.86,85.1L229.73,85.1L229.73,87.57L230.61,87.57L230.61,98.81L451.07,98.81L451.07,90.56L452.82,90.73L452.82,95.5L454.57,96.16L454.57,96.37L455.44,96.37L455.44,98.01L456.32,98.01L456.32,98.81L556.93,98.81L556.93,96.28L558.68,95.78L558.68,72.33L559.55,72.33L559.55,79.82L560.43,79.82L560.43,98.81L648.78,98.81L648.78,98.81" style="vector-effect: non-scaling-stroke; fill: none; stroke: rgb(195, 113, 210); stroke-opacity: 1; stroke-width: 1px; opacity: 1;"/></g><g class="points"/><g class="text"/></g><g class="trace scatter trace2722e5" style="stroke-miterlimit: 2; opacity: 1;"><g class="fills"/><g class="errorbars"/><g class="lines"><path class="js-line" d="M20.65,98.81L171.12,98.81L171.12,93.42L171.99,93.42L171.99,76.29L172.87,76.29L172.87,85.9L173.74,85.9L173.74,98.81L302.35,98.81L302.35,94.1L303.22,94.1L303.22,87.71L304.1,87.71L304.1,94.21L304.97,94.21L304.97,98.81L381.96,98.81L381.96,97.22L382.83,97.22L382.83,89.43L383.71,89.43L383.71,83.97L384.58,83.97L384.58,94L385.46,94L385.46,98.81L556.05,98.81L556.05,86.73L556.93,86.73L556.93,85.37L557.8,85.37L557.8,98.81L645.29,98.81L645.29,95.02L646.16,95.02L646.16,91.11L647.04,91.11L647.04,69.47L647.91,69.47L647.91,98.81L648.78,98.81L648.78,98.81" style="vector-effect: non-scaling-stroke; fill: none; stroke: rgb(172, 142, 24); stroke-opacity: 1; stroke-width: 1px; opacity: 1;"/></g><g class="points"/><g class="text"/></g><g class="trace scatter trace54401b" style="stroke-miterlimit: 2; opacity: 1;"><g class="fills"/><g class="errorbars"/><g class="lines"><path class="js-line" d="M20.65,98.81L76.64,98.81L76.64,87.87L77.51,87.87L77.51,81.42L78.39,81.42L78.39,79.86L79.26,79.86L79.26,74.65L80.14,74.65L80.14,98.81L229.73,98.35L229.73,97.5L230.61,97.5L230.61,79.27L231.48,79.27L231.48,98.81L233.23,98.81L233.23,96.81L234.11,96.81L234.11,80.4L234.98,80.4L234.98,88.6L235.86,88.6L235.86,98.81L302.35,98.27L302.35,89.14L303.22,89.14L303.22,98.81L304.97,98.33L304.97,83.98L305.85,83.98L305.85,98.81L375.83,98.81L375.83,97.6L376.71,97.6L376.71,96.84L378.46,96.59L378.46,83.79L379.33,83.79L379.33,98.81L381.96,98.81L381.96,95.29L382.83,95.29L382.83,91.87L383.71,91.87L383.71,93.96L384.58,93.96L384.58,98.81L629.54,98.71L629.54,98.05L641.79,98.47L641.79,98.81L648.78,98.81L648.78,98.81" style="vector-effect: non-scaling-stroke; fill: none; stroke: rgb(0, 170, 174); stroke-opacity: 1; stroke-width: 1px; opacity: 1;"/></g><g class="points"/><g class="text"/></g><g class="trace scatter trace82a9e8" style="stroke-miterlimit: 2; opacity: 1;"><g class="fills"/><g class="errorbars"/><g class="lines"><path class="js-line" d="M21.52,98.81L81.01,98.81L81.01,87.18L81.89,87.18L81.89,71.47L82.76,71.47L82.76,45.95L83.64,45.95L83.64,98.81L86.26,98.81L86.26,81.41L87.13,81.41L87.13,58.38L88.01,58.38L88.01,69.9L88.88,69.9L88.88,98.81L168.5,98.81L168.5,90.72L169.37,90.72L169.37,76.28L170.24,76.28L170.24,98.81L232.36,98.81L232.36,88.36L233.23,88.36L233.23,78.64L234.11,78.64L234.11,98.81L234.98,98.81L234.98,96.31L235.86,96.31L235.86,79.42L236.73,79.42L236.73,84.97L237.61,84.97L237.61,98.81L282.22,98.81L282.22,97.7L283.1,97.7L283.1,92.19L283.97,92.19L283.97,96.32L284.85,96.32L284.85,98.81L286.6,98.81L286.6,93.7L287.47,93.7L287.47,98.81L301.47,98.81L301.47,96.65L302.35,96.65L302.35,93.39L303.22,93.39L303.22,91.07L304.1,91.07L304.1,98.81L377.58,98.81L377.58,97.67L378.46,97.67L378.46,95.78L381.08,95.75L381.08,93.76L381.96,93.76L381.96,98.81L551.68,98.3L551.68,97.02L553.43,97.02L553.43,97.78L554.3,97.78L554.3,98.81L648.78,98.81L648.78,98.81" style="vector-effect: non-scaling-stroke; fill: none; stroke: rgb(237, 94, 147); stroke-opacity: 1; stroke-width: 1px; opacity: 1;"/></g><g class="points"/><g class="text"/></g><g class="trace scatter traceaf5b64" style="stroke-miterlimit: 2; opacity: 1;"><g class="fills"/><g class="errorbars"/><g class="lines"><path class="js-line" d="M22.4,98.81L85.38,98.81L85.38,88.67L86.26,88.67L86.26,64.03L87.13,64.03L87.13,56.99L88.01,56.99L88.01,98.81L230.61,98.25L230.61,96.49L231.48,96.49L231.48,95.52L232.36,95.52L232.36,84.56L233.23,84.56L233.23,98.81L298.85,98.81L298.85,95.42L299.72,95.42L299.72,91.92L300.6,91.92L300.6,93.77L301.47,93.77L301.47,98.81L381.08,98.67L381.08,83.64L381.96,83.64L381.96,98.81L558.68,98.81L558.68,90.64L559.55,90.64L559.55,81.12L560.43,81.12L560.43,94.04L561.3,94.04L561.3,98.81L648.78,98.81L648.78,98.81" style="vector-effect: non-scaling-stroke; fill: none; stroke: rgb(198, 130, 37); stroke-opacity: 1; stroke-width: 1px; opacity: 1;"/></g><g class="points"/><g class="text"/></g><g class="trace scatter trace9c50d3" style="stroke-miterlimit: 2; opacity: 1;"><g class="fills"/><g class="errorbars"/><g class="lines"><path class="js-line" d="M22.4,98.81L84.51,98.81L84.51,82.25L85.38,82.25L85.38,77.67L86.26,77.67L86.26,34.47L87.13,34.47L87.13,98.81L171.12,98.43L171.12,83.28L171.99,83.28L171.99,58.6L172.87,58.6L172.87,98.81L360.09,98.81L360.09,95.96L360.96,95.96L360.96,86.27L361.84,86.27L361.84,97.4L365.34,98L365.34,98.81L377.58,98.81L377.58,96.38L378.46,96.38L378.46,95.46L379.33,95.46L379.33,89.27L380.21,89.27L380.21,98.81L381.08,98.81L381.08,83.5L381.96,83.5L381.96,98.81L551.68,98.34L551.68,97.21L553.43,97.21L553.43,95.1L554.3,95.1L554.3,80.67L555.18,80.67L555.18,98.81L556.93,98.81L556.93,93.84L557.8,93.84L557.8,83.37L558.68,83.37L558.68,98.81L560.43,98.81L560.43,77.14L561.3,77.14L561.3,94.97L562.18,94.97L562.18,98.81L648.78,98.81L648.78,98.81" style="vector-effect: non-scaling-stroke; fill: none; stroke: rgb(0, 169, 141); stroke-opacity: 1; stroke-width: 1px; opacity: 1;"/></g><g class="points"/><g class="text"/></g><g class="trace scatter trace7825a9" style="stroke-miterlimit: 2; opacity: 1;"><g class="fills"/><g class="errorbars"/><g class="lines"><path class="js-line" d="M22.4,98.81L83.64,98.81L83.64,74.59L84.51,74.59L84.51,61.81L85.38,61.81L85.38,98.81L231.48,98.81L231.48,96.31L232.36,96.31L232.36,85.72L233.23,85.72L233.23,83.78L234.11,83.78L234.11,98.81L234.98,98.81L234.98,93.99L235.86,93.99L235.86,52L236.73,52L236.73,84.12L237.61,84.12L237.61,98.81L296.22,98.81L296.22,93.86L297.1,93.86L297.1,70.19L297.97,70.19L297.97,81.35L298.85,81.35L298.85,98.81L299.72,98.81L299.72,96.64L300.6,96.64L300.6,95.06L301.47,95.06L301.47,89.41L302.35,89.41L302.35,98.81L303.22,98.81L303.22,92.46L304.1,92.46L304.1,89.27L304.97,89.27L304.97,94.28L305.85,94.28L305.85,98.81L378.46,98.81L378.46,95.67L379.33,95.67L379.33,89.59L380.21,89.59L380.21,80.55L381.08,80.55L381.08,98.81L555.18,98.81L555.18,92.49L556.05,92.49L556.05,83.1L557.8,83.8L557.8,84.82L558.68,84.82L558.68,98.81L647.04,98.81L647.04,95.15L647.91,95.15L647.91,92.26L648.78,92.26L648.78,98.81" style="vector-effect: non-scaling-stroke; fill: none; stroke: rgb(142, 151, 30); stroke-opacity: 1; stroke-width: 1px; opacity: 1;"/></g><g class="points"/><g class="text"/></g><g class="trace scatter trace14fab7" style="stroke-miterlimit: 2; opacity: 1;"><g class="fills"/><g class="errorbars"/><g class="lines"><path class="js-line" d="M22.4,98.81L166.75,98.81L166.75,86.32L167.62,86.32L167.62,80.64L168.5,80.64L168.5,93.75L169.37,93.75L169.37,98.81L171.99,98.81L171.99,88.98L172.87,88.98L172.87,73.77L173.74,73.77L173.74,87.75L174.62,87.75L174.62,98.81L379.33,98.81L379.33,94.71L380.21,94.71L380.21,92.07L381.96,91.42L381.96,86.41L382.83,86.41L382.83,98.81L384.58,98.4L384.58,88.02L385.46,88.02L385.46,94.7L386.33,94.7L386.33,98.81L451.07,98.81L451.07,90.6L452.82,90.69L452.82,95.5L454.57,96.16L454.57,96.37L455.44,96.37L455.44,98.01L456.32,98.01L456.32,98.81L554.3,98.81L554.3,97.75L555.18,97.75L555.18,91.35L556.05,91.35L556.05,86.9L556.93,86.9L556.93,98.81L643.54,98.81L643.54,94.47L644.41,94.47L644.41,89.75L645.29,89.75L645.29,76.49L646.16,76.49L646.16,98.81L648.78,98.81L648.78,98.81" style="vector-effect: non-scaling-stroke; fill: none; stroke: rgb(0, 169, 204); stroke-opacity: 1; stroke-width: 1px; opacity: 1;"/></g><g class="points"/><g class="text"/></g><g class="trace scatter trace26d6e3" style="stroke-miterlimit: 2; opacity: 1;"><g class="fills"/><g class="errorbars"/><g class="lines"><path class="js-line" d="M22.4,98.81L76.64,98.81L76.64,85.59L77.51,85.59L77.51,77.66L80.14,77.66L80.14,75.11L81.01,75.11L81.01,15.38L81.89,15.38L81.89,37.73L82.76,37.73L82.76,98.81L166.75,98.81L166.75,86.17L167.62,86.17L167.62,80.06L168.5,80.06L168.5,58.77L169.37,58.77L169.37,98.81L171.99,98.81L171.99,89.11L172.87,89.11L172.87,73.64L173.74,73.64L173.74,87.75L174.62,87.75L174.62,98.81L233.23,98.81L233.23,96.95L234.11,96.95L234.11,80.26L234.98,80.26L234.98,88.6L235.86,88.6L235.86,98.81L295.35,98.81L295.35,97.15L296.22,97.15L296.22,95.8L298.85,95.28L298.85,94.69L299.72,94.69L299.72,98.81L304.1,98.62L304.1,93.88L304.97,93.88L304.97,98.81L470.32,98.49L470.32,96.13L472.07,96.69L472.07,98.81L553.43,98.81L553.43,95.76L554.3,95.76L554.3,91.77L555.18,91.77L555.18,93.59L556.05,93.59L556.05,98.81L640.91,98.81L640.91,89.04L641.79,89.04L641.79,81.5L642.66,81.5L642.66,80.5L643.54,80.5L643.54,82.97L644.41,82.97L644.41,98.81L648.78,98.81L648.78,98.81" style="vector-effect: non-scaling-stroke; fill: none; stroke: rgb(155, 127, 233); stroke-opacity: 1; stroke-width: 1px; opacity: 1;"/></g><g class="points"/><g class="text"/></g><g class="trace scatter trace02aa18" style="stroke-miterlimit: 2; opacity: 1;"><g class="fills"/><g class="errorbars"/><g class="lines"><path class="js-line" d="M22.4,98.81L79.26,98.81L79.26,97.91L80.14,97.91L80.14,80.95L81.01,80.95L81.01,76.68L81.89,76.68L81.89,37.66L82.76,37.66L82.76,98.81L165.87,98.67L165.87,93.41L166.75,93.41L166.75,90.66L167.62,90.66L167.62,92.08L168.5,92.08L168.5,98.81L231.48,98.51L231.48,92.93L232.36,92.93L232.36,84.56L233.23,84.56L233.23,98.81L300.6,98.81L300.6,96.27L301.47,96.27L301.47,91L302.35,91L302.35,93.84L303.22,93.84L303.22,92.34L304.1,92.34L304.1,89.29L304.97,89.29L304.97,94.38L305.85,94.38L305.85,98.81L372.33,98.81L372.33,97.82L373.21,97.82L373.21,96.52L374.96,96.98L374.96,97.87L375.83,97.87L375.83,93.48L376.71,93.48L376.71,94.86L377.58,94.86L377.58,98.81L462.44,98.81L462.44,97.59L463.32,97.59L463.32,94.96L464.19,94.96L464.19,98.77L465.94,98.81L465.94,96.64L466.82,96.64L466.82,70.28L467.69,70.28L467.69,93.8L468.57,93.8L468.57,98.81L470.32,98.81L470.32,79.47L471.19,79.47L471.19,55.35L472.07,55.35L472.07,64.67L472.94,64.67L472.94,98.81L645.29,98.81L645.29,86.46L646.16,86.46L646.16,77.1L647.04,77.1L647.04,76.25L647.91,76.25L647.91,89.1L648.78,89.1L648.78,98.81" style="vector-effect: non-scaling-stroke; fill: none; stroke: rgb(97, 141, 246); stroke-opacity: 1; stroke-width: 1px; opacity: 1;"/></g><g class="points"/><g class="text"/></g><g class="trace scatter trace49a65f" style="stroke-miterlimit: 2; opacity: 1;"><g class="fills"/><g class="errorbars"/><g class="lines"><path class="js-line" d="M22.4,98.81L227.98,98.61L227.98,97.15L229.73,97.15L229.73,96.35L230.61,96.35L230.61,79.27L231.48,79.27L231.48,98.81L232.36,98.81L232.36,97.08L233.23,97.08L233.23,93.08L234.11,93.08L234.11,75.65L234.98,75.65L234.98,98.81L300.6,98.81L300.6,96.22L301.47,96.22L301.47,91.19L302.35,91.19L302.35,98.81L381.08,98.81L381.08,97.72L381.96,97.72L381.96,93.08L382.83,93.08L382.83,90.32L383.71,90.32L383.71,98.81L556.05,98.81L556.05,94.51L556.93,94.51L556.93,90.17L557.8,90.17L557.8,86.23L558.68,86.23L558.68,90.74L559.55,90.74L559.55,81.31L560.43,81.31L560.43,93.76L561.3,93.76L561.3,98.81L648.78,98.81L648.78,98.81" style="vector-effect: non-scaling-stroke; fill: none; stroke: rgb(240, 96, 115); stroke-opacity: 1; stroke-width: 1px; opacity: 1;"/></g><g class="points"/><g class="text"/></g><g class="trace scatter trace9cbcc7" style="stroke-miterlimit: 2; opacity: 1;"><g class="fills"/><g class="errorbars"/><g class="lines"><path class="js-line" d="M22.4,98.81L84.51,98.81L84.51,96.27L85.38,96.27L85.38,63.46L86.26,63.46L86.26,29.55L87.13,29.55L87.13,98.81L168.5,98.81L168.5,96.62L169.37,96.62L169.37,83.8L170.24,83.8L170.24,80.07L171.12,80.07L171.12,85.73L171.99,85.73L171.99,84.2L172.87,84.2L172.87,85.9L173.74,85.9L173.74,98.81L295.35,98.81L295.35,97.15L296.22,97.15L296.22,95.8L298.85,95.33L298.85,94.65L299.72,94.65L299.72,98.81L372.33,98.81L372.33,97.22L373.21,97.22L373.21,94.82L374.96,94.18L374.96,98.81L377.58,98.81L377.58,97.37L378.46,97.37L378.46,94.58L379.33,94.58L379.33,89.16L380.21,89.16L380.21,98.81L381.08,98.81L381.08,97.86L381.96,97.86L381.96,94.49L382.83,94.49L382.83,88.77L383.71,88.77L383.71,98.81L465.94,98.81L465.94,97.84L466.82,97.84L466.82,85.89L468.57,86.15L468.57,87.43L469.44,87.43L469.44,77.35L470.32,77.35L470.32,51.06L471.19,51.06L471.19,98.81L472.07,98.81L472.07,91.51L472.94,91.51L472.94,84.35L473.82,84.35L473.82,95.05L474.69,95.05L474.69,98.81L648.78,98.81L648.78,98.81" style="vector-effect: non-scaling-stroke; fill: none; stroke: rgb(221, 101, 182); stroke-opacity: 1; stroke-width: 1px; opacity: 1;"/></g><g class="points"/><g class="text"/></g><g class="trace scatter trace3bfe58" style="stroke-miterlimit: 2; opacity: 1;"><g class="fills"/><g class="errorbars"/><g class="lines"><path class="js-line" d="M22.4,98.81L81.89,98.81L81.89,86.4L82.76,86.4L82.76,69.63L83.64,69.63L83.64,39.06L84.51,39.06L84.51,62.41L85.38,62.41L85.38,98.81L235.86,98.81L235.86,93.62L236.73,93.62L236.73,88.52L237.61,88.52L237.61,93.87L238.48,93.87L238.48,98.81L283.1,98.07L283.1,94.18L284.85,93.96L284.85,98.81L299.72,98.81L299.72,92.05L300.6,92.05L300.6,90.26L301.47,90.26L301.47,98.81L470.32,98.81L470.32,82.39L471.19,82.39L471.19,69.31L472.07,69.31L472.07,98.81L648.78,98.81L648.78,98.81" style="vector-effect: non-scaling-stroke; fill: none; stroke: rgb(108, 159, 51); stroke-opacity: 1; stroke-width: 1px; opacity: 1;"/></g><g class="points"/><g class="text"/></g><g class="trace scatter trace26fe80" style="stroke-miterlimit: 2; opacity: 1;"><g class="fills"/><g class="errorbars"/><g class="lines"><path class="js-line" d="M22.4,98.81L81.89,98.81L81.89,85.61L82.76,85.61L82.76,65.45L83.64,65.45L83.64,66.91L84.51,66.91L84.51,95.63L85.38,95.63L85.38,27.39L86.26,27.39L86.26,98.81L302.35,98.58L302.35,88.83L303.22,88.83L303.22,98.81L360.09,98.81L360.09,96.11L360.96,96.11L360.96,91.23L361.84,91.23L361.84,97.4L365.34,98L365.34,98.81L469.44,98.81L469.44,94.78L470.32,94.78L470.32,65.59L471.19,65.59L471.19,85.03L472.07,85.03L472.07,98.81L628.66,98.81L628.66,96.74L629.54,96.74L629.54,90.67L630.41,90.67L630.41,98.81L647.04,98.81L647.04,84.23L647.91,84.23L647.91,72.57L648.78,72.57L648.78,98.81" style="vector-effect: non-scaling-stroke; fill: none; stroke: rgb(0, 154, 250); stroke-opacity: 1; stroke-width: 1px; opacity: 1;"/></g><g class="points"/><g class="text"/></g><g class="trace scatter trace55fb55" style="stroke-miterlimit: 2; opacity: 1;"><g class="fills"/><g class="errorbars"/><g class="lines"><path class="js-line" d="M22.4,98.81L76.64,98.81L76.64,89.8L77.51,89.8L77.51,82.93L78.39,82.93L78.39,76.24L79.26,76.24L79.26,74.83L80.14,74.83L80.14,98.81L165.87,98.3L165.87,78.41L166.75,78.41L166.75,89.1L167.62,89.1L167.62,98.81L168.5,98.81L168.5,68.2L169.37,68.2L169.37,98.81L170.24,98.81L170.24,81.57L171.12,81.57L171.12,80.33L171.99,80.33L171.99,98.81L228.86,98.24L228.86,85.1L229.73,85.1L229.73,87.57L230.61,87.57L230.61,98.28L231.48,98.28L231.48,68.72L232.36,68.72L232.36,98.81L297.97,98.81L297.97,96.48L298.85,96.48L298.85,94.48L299.72,94.48L299.72,89.73L300.6,89.73L300.6,83.93L301.47,83.93L301.47,98.81L556.05,98.81L556.05,86.89L556.93,86.89L556.93,85.21L557.8,85.21L557.8,98.81L638.29,98.81L638.29,97.92L639.16,97.92L639.16,97.09L640.91,97.09L640.91,98.03L641.79,98.03L641.79,98.81L645.29,98.81L645.29,95.02L646.16,95.02L646.16,91.11L647.04,91.11L647.04,69.47L647.91,69.47L647.91,98.81L648.78,98.81L648.78,98.81" style="vector-effect: non-scaling-stroke; fill: none; stroke: rgb(227, 111, 71); stroke-opacity: 1; stroke-width: 1px; opacity: 1;"/></g><g class="points"/><g class="text"/></g><g class="trace scatter trace9187d4" style="stroke-miterlimit: 2; opacity: 1;"><g class="fills"/><g class="errorbars"/><g class="lines"><path class="js-line" d="M22.4,98.81L82.76,98.81L82.76,86.25L83.64,86.25L83.64,70.15L84.51,70.15L84.51,83.9L85.38,83.9L85.38,98.81L87.13,98.81L87.13,77.88L88.01,77.88L88.01,62.05L88.88,62.05L88.88,90.17L89.76,90.17L89.76,98.81L171.12,98.43L171.12,83.27L171.99,83.27L171.99,58.61L172.87,58.61L172.87,98.81L231.48,98.28L231.48,68.72L232.36,68.72L232.36,98.81L235.86,98.81L235.86,93.44L236.73,93.44L236.73,88.55L237.61,88.55L237.61,94.03L238.48,94.03L238.48,98.81L298.85,98.81L298.85,95.33L299.72,95.33L299.72,91.95L300.6,91.95L300.6,93.83L301.47,93.83L301.47,98.71L302.35,98.71L302.35,91.67L303.22,91.67L303.22,90.73L304.1,90.73L304.1,98.81L360.09,98.81L360.09,94.79L360.96,94.79L360.96,97.72L361.84,97.72L361.84,98.81L466.82,98.6L466.82,96.33L467.69,96.33L467.69,94.65L468.57,94.65L468.57,49.53L469.44,49.53L469.44,98.81L471.19,98.81L471.19,92.96L472.07,92.96L472.07,71.81L472.94,71.81L472.94,80.63L473.82,80.63L473.82,98.81L633.04,98.06L633.04,96.5L643.54,96.5L643.54,94.02L644.41,94.02L644.41,70.81L645.29,70.81L645.29,98.81L648.78,98.81L648.78,98.81" style="vector-effect: non-scaling-stroke; fill: none; stroke: rgb(62, 164, 78); stroke-opacity: 1; stroke-width: 1px; opacity: 1;"/></g><g class="points"/><g class="text"/></g><g class="trace scatter trace43baef" style="stroke-miterlimit: 2; opacity: 1;"><g class="fills"/><g class="errorbars"/><g class="lines"><path class="js-line" d="M22.4,98.81L84.51,98.81L84.51,95.48L85.38,95.48L85.38,30.71L86.26,30.71L86.26,98.81L234.11,98.81L234.11,88.47L234.98,88.47L234.98,75L235.86,75L235.86,97.24L236.73,97.24L236.73,98.81L300.6,98.71L300.6,92.98L301.47,92.98L301.47,89.42L302.35,89.42L302.35,98.81L645.29,98.81L645.29,93.02L646.16,93.02L646.16,88.74L648.78,89.09L648.78,98.81" style="vector-effect: non-scaling-stroke; fill: none; stroke: rgb(195, 113, 210); stroke-opacity: 1; stroke-width: 1px; opacity: 1;"/></g><g class="points"/><g class="text"/></g><g class="trace scatter traced8b242" style="stroke-miterlimit: 2; opacity: 1;"><g class="fills"/><g class="errorbars"/><g class="lines"><path class="js-line" d="M23.27,98.81L82.76,98.81L82.76,84.49L83.64,84.49L83.64,66.81L84.51,66.81L84.51,83.9L85.38,83.9L85.38,98.81L87.13,98.81L87.13,75.77L88.01,75.77L88.01,59.84L88.88,59.84L88.88,94.49L89.76,94.49L89.76,98.81L283.1,98.14L283.1,94.37L283.97,94.37L283.97,98.81L465.94,98.81L465.94,96.81L466.82,96.81L466.82,75.11L467.69,75.11L467.69,88.79L468.57,88.79L468.57,85.34L469.44,85.34L469.44,66.36L470.32,66.36L470.32,98.81L553.43,98.81L553.43,95.8L554.3,95.8L554.3,91.74L555.18,91.74L555.18,93.57L556.05,93.57L556.05,98.81L559.55,98.81L559.55,89.06L560.43,89.06L560.43,86.9L561.3,86.9L561.3,94.96L562.18,94.96L562.18,98.81L644.41,98.81L644.41,90.68L645.29,90.68L645.29,79.95L646.16,79.95L646.16,84.98L647.04,84.98L647.04,98.81L648.78,98.81L648.78,98.81" style="vector-effect: non-scaling-stroke; fill: none; stroke: rgb(172, 142, 24); stroke-opacity: 1; stroke-width: 1px; opacity: 1;"/></g><g class="points"/><g class="text"/></g><g class="trace scatter trace692577" style="stroke-miterlimit: 2; opacity: 1;"><g class="fills"/><g class="errorbars"/><g class="lines"><path class="js-line" d="M23.27,98.81L79.26,98.81L79.26,94.77L80.14,94.77L80.14,2.88L81.01,2.88L81.01,49.14L81.89,49.14L81.89,71.6L82.76,71.6L82.76,40.99L83.64,40.99L83.64,98.81L165.87,98.67L165.87,93.41L166.75,93.41L166.75,90.66L167.62,90.66L167.62,92.08L168.5,92.08L168.5,98.81L169.37,98.81L169.37,91L170.24,91L170.24,80.99L171.12,80.99L171.12,93.82L171.99,93.82L171.99,98.81L233.23,98.81L233.23,96.46L234.11,96.46L234.11,75.65L234.98,75.65L234.98,98.81L376.71,98.81L376.71,97.23L377.58,97.23L377.58,85.08L378.46,85.08L378.46,98.81L628.66,98.81L628.66,96.74L629.54,96.74L629.54,89.87L630.41,89.87L630.41,97.33L633.04,97.45L633.04,98.81L640.91,98.81L640.91,93.7L641.79,93.7L641.79,81.93L642.66,81.93L642.66,80.5L643.54,80.5L643.54,79.09L644.41,79.09L644.41,89.29L645.29,89.29L645.29,76.49L646.16,76.49L646.16,98.81L648.78,98.81L648.78,98.81" style="vector-effect: non-scaling-stroke; fill: none; stroke: rgb(0, 170, 174); stroke-opacity: 1; stroke-width: 1px; opacity: 1;"/></g><g class="points"/><g class="text"/></g><g class="trace scatter trace67d7b1" style="stroke-miterlimit: 2; opacity: 1;"><g class="fills"/><g class="errorbars"/><g class="lines"><path class="js-line" d="M23.27,98.81L232.36,98.81L232.36,88.25L233.23,88.25L233.23,78.76L234.11,78.76L234.11,98.81L376.71,98.81L376.71,97.23L377.58,97.23L377.58,85.08L378.46,85.08L378.46,98.81L467.69,98.81L467.69,97.85L468.57,97.85L468.57,82.36L469.44,82.36L469.44,44.79L470.32,44.79L470.32,93.73L471.19,93.73L471.19,87L472.07,87L472.07,64.67L472.94,64.67L472.94,98.81L554.3,98.81L554.3,97.75L555.18,97.75L555.18,91.35L556.05,91.35L556.05,86.9L556.93,86.9L556.93,97.54L557.8,97.54L557.8,94.43L558.68,94.43L558.68,65.14L559.55,65.14L559.55,82L560.43,82L560.43,98.81L648.78,98.81L648.78,98.81" style="vector-effect: non-scaling-stroke; fill: none; stroke: rgb(237, 94, 147); stroke-opacity: 1; stroke-width: 1px; opacity: 1;"/></g><g class="points"/><g class="text"/></g><g class="trace scatter traced2e5cf" style="stroke-miterlimit: 2; opacity: 1;"><g class="fills"/><g class="errorbars"/><g class="lines"><path class="js-line" d="M23.27,98.81L85.38,98.81L85.38,87.4L86.26,87.4L86.26,59.88L87.13,59.88L87.13,57.31L88.01,57.31L88.01,98.81L234.11,98.81L234.11,87.99L234.98,87.99L234.98,77.62L235.86,77.62L235.86,95.1L236.73,95.1L236.73,98.81L304.97,98.33L304.97,83.98L305.85,83.98L305.85,98.81L381.08,98.81L381.08,95.9L381.96,95.9L381.96,86.41L382.83,86.41L382.83,98.81L383.71,98.81L383.71,98.03L384.58,98.03L384.58,88.43L385.46,88.43L385.46,94.66L386.33,94.66L386.33,98.81L469.44,98.81L469.44,95.35L470.32,95.35L470.32,71.34L471.19,71.34L471.19,83.82L472.07,83.82L472.07,98.81L644.41,98.81L644.41,93.09L645.29,93.09L645.29,85.35L646.16,85.35L646.16,87.37L647.04,87.37L647.04,98.81L648.78,98.81L648.78,98.81" style="vector-effect: non-scaling-stroke; fill: none; stroke: rgb(198, 130, 37); stroke-opacity: 1; stroke-width: 1px; opacity: 1;"/></g><g class="points"/><g class="text"/></g></g></g><g class="overplot"/><path class="xlines-above crisp" d="M47.38145231846019,284.9824400416999H716.0629921259842" style="fill: none; stroke-width: 1px; stroke: rgb(0, 0, 0); stroke-opacity: 1;"/><path class="ylines-above crisp" d="M47.88145231846019,182.7992058281796V284.4824400416999" style="fill: none; stroke-width: 1px; stroke: rgb(0, 0, 0); stroke-opacity: 1;"/><g class="overlines-above"/><g class="xaxislayer-above"><path class="xtick ticks crisp" d="M0,284.4824400416999v-5" transform="translate(67.2814523184602,0)" style="stroke: rgb(0, 0, 0); stroke-opacity: 1; stroke-width: 1px;"/><path class="xtick ticks crisp" d="M0,284.4824400416999v-5" transform="translate(93.52145231846019,0)" style="stroke: rgb(0, 0, 0); stroke-opacity: 1; stroke-width: 1px;"/><path class="xtick ticks crisp" d="M0,284.4824400416999v-5" transform="translate(119.77145231846019,0)" style="stroke: rgb(0, 0, 0); stroke-opacity: 1; stroke-width: 1px;"/><path class="xtick ticks crisp" d="M0,284.4824400416999v-5" transform="translate(146.0114523184602,0)" style="stroke: rgb(0, 0, 0); stroke-opacity: 1; stroke-width: 1px;"/><path class="xtick ticks crisp" d="M0,284.4824400416999v-5" transform="translate(172.2614523184602,0)" style="stroke: rgb(0, 0, 0); stroke-opacity: 1; stroke-width: 1px;"/><path class="xtick ticks crisp" d="M0,284.4824400416999v-5" transform="translate(198.5014523184602,0)" style="stroke: rgb(0, 0, 0); stroke-opacity: 1; stroke-width: 1px;"/><path class="xtick ticks crisp" d="M0,284.4824400416999v-5" transform="translate(224.7514523184602,0)" style="stroke: rgb(0, 0, 0); stroke-opacity: 1; stroke-width: 1px;"/><path class="xtick ticks crisp" d="M0,284.4824400416999v-5" transform="translate(250.9914523184602,0)" style="stroke: rgb(0, 0, 0); stroke-opacity: 1; stroke-width: 1px;"/><path class="xtick ticks crisp" d="M0,284.4824400416999v-5" transform="translate(277.24145231846023,0)" style="stroke: rgb(0, 0, 0); stroke-opacity: 1; stroke-width: 1px;"/><path class="xtick ticks crisp" d="M0,284.4824400416999v-5" transform="translate(303.4814523184602,0)" style="stroke: rgb(0, 0, 0); stroke-opacity: 1; stroke-width: 1px;"/><path class="xtick ticks crisp" d="M0,284.4824400416999v-5" transform="translate(329.73145231846024,0)" style="stroke: rgb(0, 0, 0); stroke-opacity: 1; stroke-width: 1px;"/><path class="xtick ticks crisp" d="M0,284.4824400416999v-5" transform="translate(355.98145231846024,0)" style="stroke: rgb(0, 0, 0); stroke-opacity: 1; stroke-width: 1px;"/><path class="xtick ticks crisp" d="M0,284.4824400416999v-5" transform="translate(382.22145231846014,0)" style="stroke: rgb(0, 0, 0); stroke-opacity: 1; stroke-width: 1px;"/><path class="xtick ticks crisp" d="M0,284.4824400416999v-5" transform="translate(408.47145231846014,0)" style="stroke: rgb(0, 0, 0); stroke-opacity: 1; stroke-width: 1px;"/><path class="xtick ticks crisp" d="M0,284.4824400416999v-5" transform="translate(434.71145231846015,0)" style="stroke: rgb(0, 0, 0); stroke-opacity: 1; stroke-width: 1px;"/><path class="xtick ticks crisp" d="M0,284.4824400416999v-5" transform="translate(460.96145231846015,0)" style="stroke: rgb(0, 0, 0); stroke-opacity: 1; stroke-width: 1px;"/><path class="xtick ticks crisp" d="M0,284.4824400416999v-5" transform="translate(487.20145231846016,0)" style="stroke: rgb(0, 0, 0); stroke-opacity: 1; stroke-width: 1px;"/><path class="xtick ticks crisp" d="M0,284.4824400416999v-5" transform="translate(513.4514523184602,0)" style="stroke: rgb(0, 0, 0); stroke-opacity: 1; stroke-width: 1px;"/><path class="xtick ticks crisp" d="M0,284.4824400416999v-5" transform="translate(539.6914523184602,0)" style="stroke: rgb(0, 0, 0); stroke-opacity: 1; stroke-width: 1px;"/><path class="xtick ticks crisp" d="M0,284.4824400416999v-5" transform="translate(565.9414523184602,0)" style="stroke: rgb(0, 0, 0); stroke-opacity: 1; stroke-width: 1px;"/><path class="xtick ticks crisp" d="M0,284.4824400416999v-5" transform="translate(592.1814523184602,0)" style="stroke: rgb(0, 0, 0); stroke-opacity: 1; stroke-width: 1px;"/><path class="xtick ticks crisp" d="M0,284.4824400416999v-5" transform="translate(618.4314523184602,0)" style="stroke: rgb(0, 0, 0); stroke-opacity: 1; stroke-width: 1px;"/><path class="xtick ticks crisp" d="M0,284.4824400416999v-5" transform="translate(644.6714523184602,0)" style="stroke: rgb(0, 0, 0); stroke-opacity: 1; stroke-width: 1px;"/><path class="xtick ticks crisp" d="M0,284.4824400416999v-5" transform="translate(670.9214523184602,0)" style="stroke: rgb(0, 0, 0); stroke-opacity: 1; stroke-width: 1px;"/><path class="xtick ticks crisp" d="M0,284.4824400416999v-5" transform="translate(697.1614523184602,0)" style="stroke: rgb(0, 0, 0); stroke-opacity: 1; stroke-width: 1px;"/><g class="xtick"><text text-anchor="start" x="0" y="302.2824400416999" transform="translate(67.2814523184602,0) rotate(35,0,295.2824400416999)" style="font-family: sans-serif; font-size: 14px; fill: rgb(0, 0, 0); fill-opacity: 1; white-space: pre; opacity: 1;">00:00</text></g><g class="xtick"><text text-anchor="start" x="0" y="302.2824400416999" style="font-family: sans-serif; font-size: 14px; fill: rgb(0, 0, 0); fill-opacity: 1; white-space: pre; opacity: 1;" transform="translate(93.52145231846019,0) rotate(35,0,295.2824400416999)">01:00</text></g><g class="xtick"><text text-anchor="start" x="0" y="302.2824400416999" style="font-family: sans-serif; font-size: 14px; fill: rgb(0, 0, 0); fill-opacity: 1; white-space: pre; opacity: 1;" transform="translate(119.77145231846019,0) rotate(35,0,295.2824400416999)">02:00</text></g><g class="xtick"><text text-anchor="start" x="0" y="302.2824400416999" style="font-family: sans-serif; font-size: 14px; fill: rgb(0, 0, 0); fill-opacity: 1; white-space: pre; opacity: 1;" transform="translate(146.0114523184602,0) rotate(35,0,295.2824400416999)">03:00</text></g><g class="xtick"><text text-anchor="start" x="0" y="302.2824400416999" style="font-family: sans-serif; font-size: 14px; fill: rgb(0, 0, 0); fill-opacity: 1; white-space: pre; opacity: 1;" transform="translate(172.2614523184602,0) rotate(35,0,295.2824400416999)">04:00</text></g><g class="xtick"><text text-anchor="start" x="0" y="302.2824400416999" style="font-family: sans-serif; font-size: 14px; fill: rgb(0, 0, 0); fill-opacity: 1; white-space: pre; opacity: 1;" transform="translate(198.5014523184602,0) rotate(35,0,295.2824400416999)">05:00</text></g><g class="xtick"><text text-anchor="start" x="0" y="302.2824400416999" style="font-family: sans-serif; font-size: 14px; fill: rgb(0, 0, 0); fill-opacity: 1; white-space: pre; opacity: 1;" transform="translate(224.7514523184602,0) rotate(35,0,295.2824400416999)">06:00</text></g><g class="xtick"><text text-anchor="start" x="0" y="302.2824400416999" style="font-family: sans-serif; font-size: 14px; fill: rgb(0, 0, 0); fill-opacity: 1; white-space: pre; opacity: 1;" transform="translate(250.9914523184602,0) rotate(35,0,295.2824400416999)">07:00</text></g><g class="xtick"><text text-anchor="start" x="0" y="302.2824400416999" style="font-family: sans-serif; font-size: 14px; fill: rgb(0, 0, 0); fill-opacity: 1; white-space: pre; opacity: 1;" transform="translate(277.24145231846023,0) rotate(35,0,295.2824400416999)">08:00</text></g><g class="xtick"><text text-anchor="start" x="0" y="302.2824400416999" style="font-family: sans-serif; font-size: 14px; fill: rgb(0, 0, 0); fill-opacity: 1; white-space: pre; opacity: 1;" transform="translate(303.4814523184602,0) rotate(35,0,295.2824400416999)">09:00</text></g><g class="xtick"><text text-anchor="start" x="0" y="302.2824400416999" style="font-family: sans-serif; font-size: 14px; fill: rgb(0, 0, 0); fill-opacity: 1; white-space: pre; opacity: 1;" transform="translate(329.73145231846024,0) rotate(35,0,295.2824400416999)">10:00</text></g><g class="xtick"><text text-anchor="start" x="0" y="302.2824400416999" style="font-family: sans-serif; font-size: 14px; fill: rgb(0, 0, 0); fill-opacity: 1; white-space: pre; opacity: 1;" transform="translate(355.98145231846024,0) rotate(35,0,295.2824400416999)">11:00</text></g><g class="xtick"><text text-anchor="start" x="0" y="302.2824400416999" style="font-family: sans-serif; font-size: 14px; fill: rgb(0, 0, 0); fill-opacity: 1; white-space: pre; opacity: 1;" transform="translate(382.22145231846014,0) rotate(35,0,295.2824400416999)">12:00</text></g><g class="xtick"><text text-anchor="start" x="0" y="302.2824400416999" style="font-family: sans-serif; font-size: 14px; fill: rgb(0, 0, 0); fill-opacity: 1; white-space: pre; opacity: 1;" transform="translate(408.47145231846014,0) rotate(35,0,295.2824400416999)">13:00</text></g><g class="xtick"><text text-anchor="start" x="0" y="302.2824400416999" style="font-family: sans-serif; font-size: 14px; fill: rgb(0, 0, 0); fill-opacity: 1; white-space: pre; opacity: 1;" transform="translate(434.71145231846015,0) rotate(35,0,295.2824400416999)">14:00</text></g><g class="xtick"><text text-anchor="start" x="0" y="302.2824400416999" style="font-family: sans-serif; font-size: 14px; fill: rgb(0, 0, 0); fill-opacity: 1; white-space: pre; opacity: 1;" transform="translate(460.96145231846015,0) rotate(35,0,295.2824400416999)">15:00</text></g><g class="xtick"><text text-anchor="start" x="0" y="302.2824400416999" style="font-family: sans-serif; font-size: 14px; fill: rgb(0, 0, 0); fill-opacity: 1; white-space: pre; opacity: 1;" transform="translate(487.20145231846016,0) rotate(35,0,295.2824400416999)">16:00</text></g><g class="xtick"><text text-anchor="start" x="0" y="302.2824400416999" style="font-family: sans-serif; font-size: 14px; fill: rgb(0, 0, 0); fill-opacity: 1; white-space: pre; opacity: 1;" transform="translate(513.4514523184602,0) rotate(35,0,295.2824400416999)">17:00</text></g><g class="xtick"><text text-anchor="start" x="0" y="302.2824400416999" style="font-family: sans-serif; font-size: 14px; fill: rgb(0, 0, 0); fill-opacity: 1; white-space: pre; opacity: 1;" transform="translate(539.6914523184602,0) rotate(35,0,295.2824400416999)">18:00</text></g><g class="xtick"><text text-anchor="start" x="0" y="302.2824400416999" style="font-family: sans-serif; font-size: 14px; fill: rgb(0, 0, 0); fill-opacity: 1; white-space: pre; opacity: 1;" transform="translate(565.9414523184602,0) rotate(35,0,295.2824400416999)">19:00</text></g><g class="xtick"><text text-anchor="start" x="0" y="302.2824400416999" style="font-family: sans-serif; font-size: 14px; fill: rgb(0, 0, 0); fill-opacity: 1; white-space: pre; opacity: 1;" transform="translate(592.1814523184602,0) rotate(35,0,295.2824400416999)">20:00</text></g><g class="xtick"><text text-anchor="start" x="0" y="302.2824400416999" style="font-family: sans-serif; font-size: 14px; fill: rgb(0, 0, 0); fill-opacity: 1; white-space: pre; opacity: 1;" transform="translate(618.4314523184602,0) rotate(35,0,295.2824400416999)">21:00</text></g><g class="xtick"><text text-anchor="start" x="0" y="302.2824400416999" style="font-family: sans-serif; font-size: 14px; fill: rgb(0, 0, 0); fill-opacity: 1; white-space: pre; opacity: 1;" transform="translate(644.6714523184602,0) rotate(35,0,295.2824400416999)">22:00</text></g><g class="xtick"><text text-anchor="start" x="0" y="302.2824400416999" style="font-family: sans-serif; font-size: 14px; fill: rgb(0, 0, 0); fill-opacity: 1; white-space: pre; opacity: 1;" transform="translate(670.9214523184602,0) rotate(35,0,295.2824400416999)">23:00</text></g><g class="xtick"><text text-anchor="start" x="0" y="302.2824400416999" style="font-family: sans-serif; font-size: 14px; fill: rgb(0, 0, 0); fill-opacity: 1; white-space: pre; opacity: 0;" transform="translate(697.1614523184602,0) rotate(35,0,295.2824400416999)">00:00</text></g></g><g class="yaxislayer-above"><path class="y2tick ticks crisp" d="M48.38145231846019,0h5" transform="translate(0,281.6092058281796)" style="stroke: rgb(0, 0, 0); stroke-opacity: 1; stroke-width: 1px;"/><path class="y2tick ticks crisp" d="M48.38145231846019,0h5" transform="translate(0,250.99920582817958)" style="stroke: rgb(0, 0, 0); stroke-opacity: 1; stroke-width: 1px;"/><path class="y2tick ticks crisp" d="M48.38145231846019,0h5" transform="translate(0,220.3892058281796)" style="stroke: rgb(0, 0, 0); stroke-opacity: 1; stroke-width: 1px;"/><path class="y2tick ticks crisp" d="M48.38145231846019,0h5" transform="translate(0,189.7892058281796)" style="stroke: rgb(0, 0, 0); stroke-opacity: 1; stroke-width: 1px;"/><g class="y2tick"><text text-anchor="end" x="44.581452318460194" y="4.8999999999999995" transform="translate(0,281.6092058281796)" style="font-family: sans-serif; font-size: 14px; fill: rgb(0, 0, 0); fill-opacity: 1; white-space: pre; opacity: 1;">0.00</text></g><g class="y2tick"><text text-anchor="end" x="44.581452318460194" y="4.8999999999999995" style="font-family: sans-serif; font-size: 14px; fill: rgb(0, 0, 0); fill-opacity: 1; white-space: pre; opacity: 1;" transform="translate(0,250.99920582817958)">0.05</text></g><g class="y2tick"><text text-anchor="end" x="44.581452318460194" y="4.8999999999999995" style="font-family: sans-serif; font-size: 14px; fill: rgb(0, 0, 0); fill-opacity: 1; white-space: pre; opacity: 1;" transform="translate(0,220.3892058281796)">0.10</text></g><g class="y2tick"><text text-anchor="end" x="44.581452318460194" y="4.8999999999999995" style="font-family: sans-serif; font-size: 14px; fill: rgb(0, 0, 0); fill-opacity: 1; white-space: pre; opacity: 1;" transform="translate(0,189.7892058281796)">0.15</text></g></g><g class="overaxes-above"/></g></g><g class="polarlayer"/><g class="ternarylayer"/><g class="geolayer"/><g class="funnelarealayer"/><g class="pielayer"/><g class="iciclelayer"/><g class="treemaplayer"/><g class="sunburstlayer"/><g class="glimages"/><defs id="topdefs-040c6e"><g class="clips"/></defs><g class="layer-above"><g class="imagelayer"/><g class="shapelayer"/></g><g class="infolayer"><g class="g-gtitle"/><g class="g-xtitle"><text class="xtitle" x="382.2222222222222" y="339.4824400416999" text-anchor="middle" style="font-family: sans-serif; font-size: 15px; fill: rgb(0, 0, 0); opacity: 1; font-weight: normal; white-space: pre;">Timestamps of samples taken on 2022-10-27 every 2 minutes.</text></g><g class="g-ytitle"/><g class="g-y2title"/><g class="annotation" data-index="0" style="opacity: 1;"><g class="annotation-text-g" transform="rotate(0,382.22222222222223,30.000000000000018)"><g class="cursor-pointer" transform="translate(104,20)"><rect class="bg" x="0.5" y="0.5" width="556" height="19" style="stroke-width: 1px; stroke: rgb(0, 0, 0); stroke-opacity: 0; fill: rgb(0, 0, 0); fill-opacity: 0;"/><text class="annotation-text" text-anchor="middle" x="278.5888671875" y="14.7314453125" style="font-family: sans-serif; font-size: 14px; fill: rgb(0, 0, 0); fill-opacity: 1; white-space: pre;">The write counter (number of accumulated operations) from compute nodes to each OST.</text></g></g></g><g class="annotation" data-index="1" style="opacity: 1;"><g class="annotation-text-g" transform="rotate(0,382.22222222222223,176.95396426115326)"><g class="cursor-pointer" transform="translate(153,167)"><rect class="bg" x="0.5" y="0.5" width="457" height="19" style="stroke-width: 1px; stroke: rgb(0, 0, 0); stroke-opacity: 0; fill: rgb(0, 0, 0); fill-opacity: 0;"/><text class="annotation-text" text-anchor="middle" x="228.79296875" y="14.7314453125" style="font-family: sans-serif; font-size: 14px; fill: rgb(0, 0, 0); fill-opacity: 1; white-space: pre;">The write rate (operations per second) from compute nodes to each OST.</text></g></g></g></g></svg>