<svg class="main-svg" xmlns="http://www.w3.org/2000/svg" xmlns:xlink="http://www.w3.org/1999/xlink" width="720" height="360" style=""><rect x="0" y="0" width="720" height="360" style="fill: rgb(255, 255, 255); fill-opacity: 1;"/><defs id="defs-247a94"><g class="clips"><clipPath id="clip247a94xyplot" class="plotclip"><rect width="623.2370953630796" height="101.68323421352031"/></clipPath><clipPath id="clip247a94xy2plot" class="plotclip"><rect width="623.2370953630796" height="101.68323421352031"/></clipPath><clipPath class="axesclip" id="clip247a94x"><rect x="92.82589676290463" y="0" width="623.2370953630796" height="360"/></clipPath><clipPath class="axesclip" id="clip247a94y"><rect x="0" y="35.84524156702635" width="720" height="101.68323421352031"/></clipPath><clipPath class="axesclip" id="clip247a94xy"><rect x="92.82589676290463" y="35.84524156702635" width="623.2370953630796" height="101.68323421352031"/></clipPath><clipPath class="axesclip" id="clip247a94y2"><rect x="0" y="182.7992058281796" width="720" height="101.68323421352031"/></clipPath><clipPath class="axesclip" id="clip247a94xy2"><rect x="92.82589676290463" y="182.7992058281796" width="623.2370953630796" height="101.68323421352031"/></clipPath></g><g class="gradients"/><g class="patterns"/></defs><g class="bglayer"/><g class="layer-below"><g class="imagelayer"/><g class="shapelayer"/></g><g class="cartesianlayer"><g class="subplot xy"><g class="layer-subplot"><g class="shapelayer"/><g class="imagelayer"/></g><g class="gridlayer"><g class="x"><path class="xgrid crisp" transform="translate(110.46589676290463,0)" d="M0,35.84524156702635v101.68323421352031" style="stroke: rgb(0, 0, 0); stroke-opacity: 0.1; stroke-width: 0.5px;"/><path class="xgrid crisp" transform="translate(134.96589676290463,0)" d="M0,35.84524156702635v101.68323421352031" style="stroke: rgb(0, 0, 0); stroke-opacity: 0.1; stroke-width: 0.5px;"/><path class="xgrid crisp" transform="translate(159.46589676290463,0)" d="M0,35.84524156702635v101.68323421352031" style="stroke: rgb(0, 0, 0); stroke-opacity: 0.1; stroke-width: 0.5px;"/><path class="xgrid crisp" transform="translate(183.95589676290462,0)" d="M0,35.84524156702635v101.68323421352031" style="stroke: rgb(0, 0, 0); stroke-opacity: 0.1; stroke-width: 0.5px;"/><path class="xgrid crisp" transform="translate(208.45589676290462,0)" d="M0,35.84524156702635v101.68323421352031" style="stroke: rgb(0, 0, 0); stroke-opacity: 0.1; stroke-width: 0.5px;"/><path class="xgrid crisp" transform="translate(232.95589676290462,0)" d="M0,35.84524156702635v101.68323421352031" style="stroke: rgb(0, 0, 0); stroke-opacity: 0.1; stroke-width: 0.5px;"/><path class="xgrid crisp" transform="translate(257.4558967629046,0)" d="M0,35.84524156702635v101.68323421352031" style="stroke: rgb(0, 0, 0); stroke-opacity: 0.1; stroke-width: 0.5px;"/><path class="xgrid crisp" transform="translate(281.9558967629046,0)" d="M0,35.84524156702635v101.68323421352031" style="stroke: rgb(0, 0, 0); stroke-opacity: 0.1; stroke-width: 0.5px;"/><path class="xgrid crisp" transform="translate(306.4558967629046,0)" d="M0,35.84524156702635v101.68323421352031" style="stroke: rgb(0, 0, 0); stroke-opacity: 0.1; stroke-width: 0.5px;"/><path class="xgrid crisp" transform="translate(330.9458967629046,0)" d="M0,35.84524156702635v101.68323421352031" style="stroke: rgb(0, 0, 0); stroke-opacity: 0.1; stroke-width: 0.5px;"/><path class="xgrid crisp" transform="translate(355.4458967629046,0)" d="M0,35.84524156702635v101.68323421352031" style="stroke: rgb(0, 0, 0); stroke-opacity: 0.1; stroke-width: 0.5px;"/><path class="xgrid crisp" transform="translate(379.9458967629046,0)" d="M0,35.84524156702635v101.68323421352031" style="stroke: rgb(0, 0, 0); stroke-opacity: 0.1; stroke-width: 0.5px;"/><path class="xgrid crisp" transform="translate(404.4458967629046,0)" d="M0,35.84524156702635v101.68323421352031" style="stroke: rgb(0, 0, 0); stroke-opacity: 0.1; stroke-width: 0.5px;"/><path class="xgrid crisp" transform="translate(428.9458967629046,0)" d="M0,35.84524156702635v101.68323421352031" style="stroke: rgb(0, 0, 0); stroke-opacity: 0.1; stroke-width: 0.5px;"/><path class="xgrid crisp" transform="translate(453.4458967629046,0)" d="M0,35.84524156702635v101.68323421352031" style="stroke: rgb(0, 0, 0); stroke-opacity: 0.1; stroke-width: 0.5px;"/><path class="xgrid crisp" transform="translate(477.93589676290463,0)" d="M0,35.84524156702635v101.68323421352031" style="stroke: rgb(0, 0, 0); stroke-opacity: 0.1; stroke-width: 0.5px;"/><path class="xgrid crisp" transform="translate(502.43589676290463,0)" d="M0,35.84524156702635v101.68323421352031" style="stroke: rgb(0, 0, 0); stroke-opacity: 0.1; stroke-width: 0.5px;"/><path class="xgrid crisp" transform="translate(526.9358967629047,0)" d="M0,35.84524156702635v101.68323421352031" style="stroke: rgb(0, 0, 0); stroke-opacity: 0.1; stroke-width: 0.5px;"/><path class="xgrid crisp" transform="translate(551.4358967629047,0)" d="M0,35.84524156702635v101.68323421352031" style="stroke: rgb(0, 0, 0); stroke-opacity: 0.1; stroke-width: 0.5px;"/><path class="xgrid crisp" transform="translate(575.9358967629047,0)" d="M0,35.84524156702635v101.68323421352031" style="stroke: rgb(0, 0, 0); stroke-opacity: 0.1; stroke-width: 0.5px;"/><path class="xgrid crisp" transform="translate(600.4358967629047,0)" d="M0,35.84524156702635v101.68323421352031" style="stroke: rgb(0, 0, 0); stroke-opacity: 0.1; stroke-width: 0.5px;"/><path class="xgrid crisp" transform="translate(624.9258967629047,0)" d="M0,35.84524156702635v101.68323421352031" style="stroke: rgb(0, 0, 0); stroke-opacity: 0.1; stroke-width: 0.5px;"/><path class="xgrid crisp" transform="translate(649.4258967629047,0)" d="M0,35.84524156702635v101.68323421352031" style="stroke: rgb(0, 0, 0); stroke-opacity: 0.1; stroke-width: 0.5px;"/><path class="xgrid crisp" transform="translate(673.9258967629047,0)" d="M0,35.84524156702635v101.68323421352031" style="stroke: rgb(0, 0, 0); stroke-opacity: 0.1; stroke-width: 0.5px;"/><path class="xgrid crisp" transform="translate(698.4258967629047,0)" d="M0,35.84524156702635v101.68323421352031" style="stroke: rgb(0, 0, 0); stroke-opacity: 0.1; stroke-width: 0.5px;"/></g><g class="y"><path class="ygrid crisp" transform="translate(0,134.65524156702634)" d="M92.82589676290463,0h623.2370953630796" style="stroke: rgb(0, 0, 0); stroke-opacity: 0.1; stroke-width: 0.5px;"/><path class="ygrid crisp" transform="translate(0,114.32524156702635)" d="M92.82589676290463,0h623.2370953630796" style="stroke: rgb(0, 0, 0); stroke-opacity: 0.1; stroke-width: 0.5px;"/><path class="ygrid crisp" transform="translate(0,94.00524156702635)" d="M92.82589676290463,0h623.2370953630796" style="stroke: rgb(0, 0, 0); stroke-opacity: 0.1; stroke-width: 0.5px;"/><path class="ygrid crisp" transform="translate(0,73.67524156702635)" d="M92.82589676290463,0h623.2370953630796" style="stroke: rgb(0, 0, 0); stroke-opacity: 0.1; stroke-width: 0.5px;"/><path class="ygrid crisp" transform="translate(0,53.355241567026354)" d="M92.82589676290463,0h623.2370953630796" style="stroke: rgb(0, 0, 0); stroke-opacity: 0.1; stroke-width: 0.5px;"/></g></g><g class="zerolinelayer"/><path class="xlines-below"/><path class="ylines-below"/><g class="overlines-below"/><g class="xaxislayer-below"/><g class="yaxislayer-below"/><g class="overaxes-below"/><g class="plot" transform="translate(92.82589676290463,35.84524156702635)" clip-path="url(#clip247a94xyplot)"><g class="scatterlayer mlayer"><g class="trace scatter traceef88f0" style="stroke-miterlimit: 2; opacity: 1;"><g class="fills"/><g class="errorbars"/><g class="lines"><path class="js-line" d="M17.83,98.81L597.24,98.81" style="vector-effect: non-scaling-stroke; fill: none; stroke: rgb(0, 154, 250); stroke-opacity: 1; stroke-width: 1px; opacity: 1;"/></g><g class="points"/><g class="text"/></g><g class="trace scatter trace8fbb7b" style="stroke-miterlimit: 2; opacity: 1;"><g class="fills"/><g class="errorbars"/><g class="lines"><path class="js-line" d="M18.34,75.03L180.82,74.28L180.82,74.27L345.08,73.52L345.08,73.51L511.59,72.76L511.59,72.75L605.52,72.32" style="vector-effect: non-scaling-stroke; fill: none; stroke: rgb(227, 111, 71); stroke-opacity: 1; stroke-width: 1px; opacity: 1;"/></g><g class="points"/><g class="text"/></g><g class="trace scatter tracea21399" style="stroke-miterlimit: 2; opacity: 1;"><g class="fills"/><g class="errorbars"/><g class="lines"><path class="js-line" d="M18.34,75.5L133.54,74.97L133.54,74.97L134.26,74.97L253.62,74.42L253.62,74.42L254.36,74.42L424.16,73.67L424.16,73.66L590.01,72.91L590.01,72.9L605.52,72.84" style="vector-effect: non-scaling-stroke; fill: none; stroke: rgb(62, 164, 78); stroke-opacity: 1; stroke-width: 1px; opacity: 1;"/></g><g class="points"/><g class="text"/></g><g class="trace scatter traceba24a9" style="stroke-miterlimit: 2; opacity: 1;"><g class="fills"/><g class="errorbars"/><g class="lines"><path class="js-line" d="M18.45,14.07L126.22,11.97L126.22,11.95L165.42,11.2L165.42,11.18L204.63,10.43L204.63,10.42L243.81,9.67L243.81,9.65L283.04,8.91L283.04,8.89L322.21,8.14L322.21,8.13L370.33,7.4L370.33,7.38L409.6,6.63L409.6,6.61L452.87,5.87L452.87,5.85L492.07,5.1L492.07,5.08L531.27,4.33L531.27,4.32L569.67,3.58L569.67,3.56L605.58,2.88" style="vector-effect: non-scaling-stroke; fill: none; stroke: rgb(195, 113, 210); stroke-opacity: 1; stroke-width: 1px; opacity: 1;"/></g><g class="points"/><g class="text"/></g><g class="trace scatter tracea38854" style="stroke-miterlimit: 2; opacity: 1;"><g class="fills"/><g class="errorbars"/><g class="lines"><path class="js-line" d="M23.68,98.81L372.8,98.8" style="vector-effect: non-scaling-stroke; fill: none; stroke: rgb(172, 142, 24); stroke-opacity: 1; stroke-width: 1px; opacity: 1;"/></g><g class="points"/><g class="text"/></g><g class="trace scatter trace66d52f" style="stroke-miterlimit: 2; opacity: 1;"><g class="fills"/><g class="errorbars"/><g class="lines"><path class="js-line" d="M23.71,98.8L605.52,98.8" style="vector-effect: non-scaling-stroke; fill: none; stroke: rgb(0, 170, 174); stroke-opacity: 1; stroke-width: 1px; opacity: 1;"/></g><g class="points"/><g class="text"/></g><g class="trace scatter trace92db3c" style="stroke-miterlimit: 2; opacity: 1;"><g class="fills"/><g class="errorbars"/><g class="lines"><path class="js-line" d="M34.11,98.81L593.29,98.8" style="vector-effect: non-scaling-stroke; fill: none; stroke: rgb(237, 94, 147); stroke-opacity: 1; stroke-width: 1px; opacity: 1;"/></g><g class="points"/><g class="text"/></g><g class="trace scatter trace4dd74e" style="stroke-miterlimit: 2; opacity: 1;"><g class="fills"/><g class="errorbars"/><g class="lines"><path class="js-line" d="M34.11,98.81L602.2,98.81" style="vector-effect: non-scaling-stroke; fill: none; stroke: rgb(198, 130, 37); stroke-opacity: 1; stroke-width: 1px; opacity: 1;"/></g><g class="points"/><g class="text"/></g><g class="trace scatter trace8a6054" style="stroke-miterlimit: 2; opacity: 1;"><g class="fills"/><g class="errorbars"/><g class="lines"><path class="js-line" d="M34.11,98.81L146.17,98.81L146.17,98.81L216.83,98.81L555.75,98.81" style="vector-effect: non-scaling-stroke; fill: none; stroke: rgb(0, 169, 141); stroke-opacity: 1; stroke-width: 1px; opacity: 1;"/></g><g class="points"/><g class="text"/></g><g class="trace scatter trace0563f9" style="stroke-miterlimit: 2; opacity: 1;"><g class="fills"/><g class="errorbars"/><g class="lines"><path class="js-line" d="M34.46,98.81L588.62,98.81" style="vector-effect: non-scaling-stroke; fill: none; stroke: rgb(142, 151, 30); stroke-opacity: 1; stroke-width: 1px; opacity: 1;"/></g><g class="points"/><g class="text"/></g><g class="trace scatter trace3f0d6e" style="stroke-miterlimit: 2; opacity: 1;"><g class="fills"/><g class="errorbars"/><g class="lines"><path class="js-line" d="M60.78,98.81L588.59,98.81" style="vector-effect: non-scaling-stroke; fill: none; stroke: rgb(0, 169, 204); stroke-opacity: 1; stroke-width: 1px; opacity: 1;"/></g><g class="points"/><g class="text"/></g><g class="trace scatter trace49514f" style="stroke-miterlimit: 2; opacity: 1;"><g class="fills"/><g class="errorbars"/><g class="lines"><path class="js-line" d="M87.36,98.81L571.56,98.81" style="vector-effect: non-scaling-stroke; fill: none; stroke: rgb(155, 127, 233); stroke-opacity: 1; stroke-width: 1px; opacity: 1;"/></g><g class="points"/><g class="text"/></g></g></g><g class="overplot"/><path class="xlines-above crisp" d="M0,0" style="fill: none;"/><path class="ylines-above crisp" d="M92.32589676290463,35.84524156702635V137.52847578054667" style="fill: none; stroke-width: 1px; stroke: rgb(0, 0, 0); stroke-opacity: 1;"/><g class="overlines-above"/><g class="xaxislayer-above"/><g class="yaxislayer-above"><path class="ytick ticks crisp" d="M92.82589676290463,0h5" transform="translate(0,134.65524156702634)" style="stroke: rgb(0, 0, 0); stroke-opacity: 1; stroke-width: 1px;"/><path class="ytick ticks crisp" d="M92.82589676290463,0h5" transform="translate(0,114.32524156702635)" style="stroke: rgb(0, 0, 0); stroke-opacity: 1; stroke-width: 1px;"/><path class="ytick ticks crisp" d="M92.82589676290463,0h5" transform="translate(0,94.00524156702635)" style="stroke: rgb(0, 0, 0); stroke-opacity: 1; stroke-width: 1px;"/><path class="ytick ticks crisp" d="M92.82589676290463,0h5" transform="translate(0,73.67524156702635)" style="stroke: rgb(0, 0, 0); stroke-opacity: 1; stroke-width: 1px;"/><path class="ytick ticks crisp" d="M92.82589676290463,0h5" transform="translate(0,53.355241567026354)" style="stroke: rgb(0, 0, 0); stroke-opacity: 1; stroke-width: 1px;"/><g class="ytick"><text text-anchor="end" x="89.02589676290464" y="4.8999999999999995" transform="translate(0,134.65524156702634)" style="font-family: sans-serif; font-size: 14px; fill: rgb(0, 0, 0); fill-opacity: 1; white-space: pre; opacity: 1;">0</text></g><g class="ytick"><text text-anchor="end" x="89.02589676290464" y="4.8999999999999995" style="font-family: sans-serif; font-size: 14px; fill: rgb(0, 0, 0); fill-opacity: 1; white-space: pre; opacity: 1;" transform="translate(0,114.32524156702635)">3.00×10⁴</text></g><g class="ytick"><text text-anchor="end" x="89.02589676290464" y="4.8999999999999995" style="font-family: sans-serif; font-size: 14px; fill: rgb(0, 0, 0); fill-opacity: 1; white-space: pre; opacity: 1;" transform="translate(0,94.00524156702635)">6.00×10⁴</text></g><g class="ytick"><text text-anchor="end" x="89.02589676290464" y="4.8999999999999995" style="font-family: sans-serif; font-size: 14px; fill: rgb(0, 0, 0); fill-opacity: 1; white-space: pre; opacity: 1;" transform="translate(0,73.67524156702635)">9.00×10⁴</text></g><g class="ytick"><text text-anchor="end" x="89.02589676290464" y="4.8999999999999995" style="font-family: sans-serif; font-size: 14px; fill: rgb(0, 0, 0); fill-opacity: 1; white-space: pre; opacity: 1;" transform="translate(0,53.355241567026354)">1.20×10⁵</text></g></g><g class="overaxes-above"/></g><g class="subplot xy2"><g class="layer-subplot"><g class="shapelayer"/><g class="imagelayer"/></g><g class="gridlayer"><g class="x"><path class="xgrid crisp" transform="translate(110.46589676290463,0)" d="M0,182.7992058281796v101.68323421352031" style="stroke: rgb(0, 0, 0); stroke-opacity: 0.1; stroke-width: 0.5px;"/><path class="xgrid crisp" transform="translate(134.96589676290463,0)" d="M0,182.7992058281796v101.68323421352031" style="stroke: rgb(0, 0, 0); stroke-opacity: 0.1; stroke-width: 0.5px;"/><path class="xgrid crisp" transform="translate(159.46589676290463,0)" d="M0,182.7992058281796v101.68323421352031" style="stroke: rgb(0, 0, 0); stroke-opacity: 0.1; stroke-width: 0.5px;"/><path class="xgrid crisp" transform="translate(183.95589676290462,0)" d="M0,182.7992058281796v101.68323421352031" style="stroke: rgb(0, 0, 0); stroke-opacity: 0.1; stroke-width: 0.5px;"/><path class="xgrid crisp" transform="translate(208.45589676290462,0)" d="M0,182.7992058281796v101.68323421352031" style="stroke: rgb(0, 0, 0); stroke-opacity: 0.1; stroke-width: 0.5px;"/><path class="xgrid crisp" transform="translate(232.95589676290462,0)" d="M0,182.7992058281796v101.68323421352031" style="stroke: rgb(0, 0, 0); stroke-opacity: 0.1; stroke-width: 0.5px;"/><path class="xgrid crisp" transform="translate(257.4558967629046,0)" d="M0,182.7992058281796v101.68323421352031" style="stroke: rgb(0, 0, 0); stroke-opacity: 0.1; stroke-width: 0.5px;"/><path class="xgrid crisp" transform="translate(281.9558967629046,0)" d="M0,182.7992058281796v101.68323421352031" style="stroke: rgb(0, 0, 0); stroke-opacity: 0.1; stroke-width: 0.5px;"/><path class="xgrid crisp" transform="translate(306.4558967629046,0)" d="M0,182.7992058281796v101.68323421352031" style="stroke: rgb(0, 0, 0); stroke-opacity: 0.1; stroke-width: 0.5px;"/><path class="xgrid crisp" transform="translate(330.9458967629046,0)" d="M0,182.7992058281796v101.68323421352031" style="stroke: rgb(0, 0, 0); stroke-opacity: 0.1; stroke-width: 0.5px;"/><path class="xgrid crisp" transform="translate(355.4458967629046,0)" d="M0,182.7992058281796v101.68323421352031" style="stroke: rgb(0, 0, 0); stroke-opacity: 0.1; stroke-width: 0.5px;"/><path class="xgrid crisp" transform="translate(379.9458967629046,0)" d="M0,182.7992058281796v101.68323421352031" style="stroke: rgb(0, 0, 0); stroke-opacity: 0.1; stroke-width: 0.5px;"/><path class="xgrid crisp" transform="translate(404.4458967629046,0)" d="M0,182.7992058281796v101.68323421352031" style="stroke: rgb(0, 0, 0); stroke-opacity: 0.1; stroke-width: 0.5px;"/><path class="xgrid crisp" transform="translate(428.9458967629046,0)" d="M0,182.7992058281796v101.68323421352031" style="stroke: rgb(0, 0, 0); stroke-opacity: 0.1; stroke-width: 0.5px;"/><path class="xgrid crisp" transform="translate(453.4458967629046,0)" d="M0,182.7992058281796v101.68323421352031" style="stroke: rgb(0, 0, 0); stroke-opacity: 0.1; stroke-width: 0.5px;"/><path class="xgrid crisp" transform="translate(477.93589676290463,0)" d="M0,182.7992058281796v101.68323421352031" style="stroke: rgb(0, 0, 0); stroke-opacity: 0.1; stroke-width: 0.5px;"/><path class="xgrid crisp" transform="translate(502.43589676290463,0)" d="M0,182.7992058281796v101.68323421352031" style="stroke: rgb(0, 0, 0); stroke-opacity: 0.1; stroke-width: 0.5px;"/><path class="xgrid crisp" transform="translate(526.9358967629047,0)" d="M0,182.7992058281796v101.68323421352031" style="stroke: rgb(0, 0, 0); stroke-opacity: 0.1; stroke-width: 0.5px;"/><path class="xgrid crisp" transform="translate(551.4358967629047,0)" d="M0,182.7992058281796v101.68323421352031" style="stroke: rgb(0, 0, 0); stroke-opacity: 0.1; stroke-width: 0.5px;"/><path class="xgrid crisp" transform="translate(575.9358967629047,0)" d="M0,182.7992058281796v101.68323421352031" style="stroke: rgb(0, 0, 0); stroke-opacity: 0.1; stroke-width: 0.5px;"/><path class="xgrid crisp" transform="translate(600.4358967629047,0)" d="M0,182.7992058281796v101.68323421352031" style="stroke: rgb(0, 0, 0); stroke-opacity: 0.1; stroke-width: 0.5px;"/><path class="xgrid crisp" transform="translate(624.9258967629047,0)" d="M0,182.7992058281796v101.68323421352031" style="stroke: rgb(0, 0, 0); stroke-opacity: 0.1; stroke-width: 0.5px;"/><path class="xgrid crisp" transform="translate(649.4258967629047,0)" d="M0,182.7992058281796v101.68323421352031" style="stroke: rgb(0, 0, 0); stroke-opacity: 0.1; stroke-width: 0.5px;"/><path class="xgrid crisp" transform="translate(673.9258967629047,0)" d="M0,182.7992058281796v101.68323421352031" style="stroke: rgb(0, 0, 0); stroke-opacity: 0.1; stroke-width: 0.5px;"/><path class="xgrid crisp" transform="translate(698.4258967629047,0)" d="M0,182.7992058281796v101.68323421352031" style="stroke: rgb(0, 0, 0); stroke-opacity: 0.1; stroke-width: 0.5px;"/></g><g class="y2"><path class="y2grid crisp" transform="translate(0,281.6092058281796)" d="M92.82589676290463,0h623.2370953630796" style="stroke: rgb(0, 0, 0); stroke-opacity: 0.1; stroke-width: 0.5px;"/><path class="y2grid crisp" transform="translate(0,259.76920582817957)" d="M92.82589676290463,0h623.2370953630796" style="stroke: rgb(0, 0, 0); stroke-opacity: 0.1; stroke-width: 0.5px;"/><path class="y2grid crisp" transform="translate(0,237.93920582817958)" d="M92.82589676290463,0h623.2370953630796" style="stroke: rgb(0, 0, 0); stroke-opacity: 0.1; stroke-width: 0.5px;"/><path class="y2grid crisp" transform="translate(0,216.1092058281796)" d="M92.82589676290463,0h623.2370953630796" style="stroke: rgb(0, 0, 0); stroke-opacity: 0.1; stroke-width: 0.5px;"/><path class="y2grid crisp" transform="translate(0,194.27920582817958)" d="M92.82589676290463,0h623.2370953630796" style="stroke: rgb(0, 0, 0); stroke-opacity: 0.1; stroke-width: 0.5px;"/></g></g><g class="zerolinelayer"/><path class="xlines-below"/><path class="ylines-below"/><g class="overlines-below"/><g class="xaxislayer-below"/><g class="yaxislayer-below"/><g class="overaxes-below"/><g class="plot" transform="translate(92.82589676290463,182.7992058281796)" clip-path="url(#clip247a94xy2plot)"><g class="scatterlayer mlayer"><g class="trace scatter trace3ef312" style="stroke-miterlimit: 2; opacity: 1;"><g class="fills"/><g class="errorbars"/><g class="lines"><path class="js-line" d="M17.64,98.81L97.67,98.66L97.67,97.78L103.38,97.85L103.38,98.81L216.89,98.63L216.89,96.73L219.34,96.73L219.34,97.94L220.16,97.94L220.16,98.81L347.55,98.6L347.55,96.32L348.37,96.32L348.37,97.46L349.18,97.46L349.18,98.81L597.43,98.81L597.43,98.81" style="vector-effect: non-scaling-stroke; fill: none; stroke: rgb(0, 154, 250); stroke-opacity: 1; stroke-width: 1px; opacity: 1;"/></g><g class="points"/><g class="text"/></g><g class="trace scatter trace8415a4" style="stroke-miterlimit: 2; opacity: 1;"><g class="fills"/><g class="errorbars"/><g class="lines"><path class="js-line" d="M17.64,96.02L18.46,96.02L18.46,79.09L22.54,78.4L22.54,79.19L23.36,79.19L23.36,78.41L24.17,78.41L24.17,79.35L24.99,79.35L24.99,78.34L29.07,78.96L29.07,75.89L29.89,75.89L29.89,78.34L33.15,78.66L33.15,79.1L34.79,78.56L34.79,78.17L35.6,78.17L35.6,75.78L36.42,75.78L36.42,78.41L37.24,78.41L37.24,79.35L38.05,79.35L38.05,78.34L40.5,79.08L40.5,78.18L41.32,78.18L41.32,75.94L42.14,75.94L42.14,78.67L47.04,79.1L47.04,78.25L47.85,78.25L47.85,75.87L48.67,75.87L48.67,78.39L50.3,78.41L50.3,79.35L51.12,79.35L51.12,78.34L53.57,78.94L53.57,76.06L54.39,76.06L54.39,78.2L56.02,78.67L56.02,79.09L58.47,78.43L58.47,79.33L59.29,79.33L59.29,78.16L60.1,78.16L60.1,75.96L60.92,75.96L60.92,78.35L65,79.08L65,78.18L65.82,78.18L65.82,75.93L66.64,75.93L66.64,78.39L68.27,78.43L68.27,79.32L69.09,79.32L69.09,78.36L72.35,78.34L72.35,75.63L73.17,75.63L73.17,78.68L77.25,79.16L77.25,78.2L78.07,78.2L78.07,76.85L79.7,77.5L79.7,79.17L81.33,78.43L81.33,79.32L82.15,79.32L82.15,78.43L82.97,78.43L82.97,79.44L84.6,78.99L84.6,74.86L85.42,74.86L85.42,78.42L86.23,78.42L86.23,79.34L87.05,79.34L87.05,78.41L87.87,78.41L87.87,79.35L88.68,79.35L88.68,78.39L90.32,78.8L90.32,75.16L91.13,75.16L91.13,79.36L91.95,79.36L91.95,78.39L92.77,78.39L92.77,79.37L93.58,79.37L93.58,78.37L94.4,78.37L94.4,79.22L95.22,79.22L95.22,78.38L96.85,79.07L96.85,75.04L97.67,75.04L97.67,79.25L102.57,78.88L102.57,75.16L103.38,75.16L103.38,78.55L105.83,79.19L105.83,78.41L106.65,78.41L106.65,79.35L107.47,79.35L107.47,78.39L108.28,78.39L108.28,79.2L109.1,79.2L109.1,78.4L109.92,78.4L109.92,79.36L110.73,79.36L110.73,78.39L111.55,78.39L111.55,79.47L113.18,79.15L113.18,78.45L114.82,78.91L114.82,76.01L115.63,76.01L115.63,79.36L116.45,79.36L116.45,78.38L117.27,78.38L117.27,79.33L118.9,79.3L118.9,78.45L119.72,78.45L119.72,79.3L120.53,79.3L120.53,78.07L121.35,78.07L121.35,76L122.16,76L122.16,79.08L126.25,79.09L126.25,78.04L127.06,78.04L127.06,75.95L127.88,75.95L127.88,79.4L130.33,79.05L130.33,78.54L133.6,78.75L133.6,75.23L134.41,75.23L134.41,79.2L138.5,79.07L138.5,78L139.31,78L139.31,76.13L140.13,76.13L140.13,78.67L145.03,78.43L145.03,79.33L145.85,79.33L145.85,78.42L146.66,78.42L146.66,79.34L147.48,79.34L147.48,78.4L148.3,78.4L148.3,79.19L149.11,79.19L149.11,78.41L149.93,78.41L149.93,79.35L150.75,79.35L150.75,78.21L151.56,78.21L151.56,76.06L152.38,76.06L152.38,78.19L154.01,78.51L154.01,79.09L158.1,78.96L158.1,75.16L158.91,75.16L158.91,79.1L163.81,78.8L163.81,75.16L164.63,75.16L164.63,79.36L165.45,79.36L165.45,78.35L169.53,79.09L169.53,78.22L170.34,78.22L170.34,75.89L171.16,75.89L171.16,78.66L176.06,79.07L176.06,75.19L176.88,75.19L176.88,78.96L178.51,78.52L178.51,79.3L179.33,79.3L179.33,78.44L180.96,79.15L180.96,78.36L182.59,78.04L182.59,76.08L183.41,76.08L183.41,78.69L188.31,78.91L188.31,76.54L189.13,76.54L189.13,77.8L189.94,77.8L189.94,79.57L191.58,79.88L191.58,78.43L192.39,78.43L192.39,79.32L193.21,79.32L193.21,78.36L194.84,78.11L194.84,76L195.66,76L195.66,78.53L200.56,78.94L200.56,76.04L201.38,76.04L201.38,78.04L203.01,78.67L203.01,79.12L204.64,79.37L204.64,78.37L205.46,78.37L205.46,79.22L206.28,79.22L206.28,78.25L207.09,78.25L207.09,75.87L207.91,75.87L207.91,78.36L208.73,78.36L208.73,79.22L209.54,79.22L209.54,78.37L210.36,78.37L210.36,79.39L211.18,79.39L211.18,78.36L211.99,78.36L211.99,79.26L212.81,79.26L212.81,76.52L213.63,76.52L213.63,77.57L214.44,77.57L214.44,78.35L215.26,78.35L215.26,79.43L218.52,79.35L218.52,78.14L219.34,78.14L219.34,75.08L220.16,75.08L220.16,79.13L222.61,79.11L222.61,78.57L225.06,78.9L225.06,76.99L226.69,77.29L226.69,78.69L229.14,78.36L229.14,79.23L229.96,79.23L229.96,78.36L230.77,78.36L230.77,79.14L231.59,79.14L231.59,74.97L232.41,74.97L232.41,79.43L233.22,79.43L233.22,78.55L237.31,78.62L237.31,75.35L238.12,75.35L238.12,79.34L238.94,79.34L238.94,78.52L240.57,78.88L240.57,79.37L243.02,79.1L243.02,78.59L243.84,78.59L243.84,75.85L244.66,75.85L244.66,78.71L245.47,78.71L245.47,79.47L246.29,79.47L246.29,78.52L247.92,78.89L247.92,79.35L248.74,79.35L248.74,78.02L249.56,78.02L249.56,76.11L250.37,76.11L250.37,78.56L252.01,78.41L252.01,79.31L254.46,78.74L254.46,78.54L256.09,79.05L256.09,75.2L256.91,75.2L256.91,78.67L258.54,79.26L258.54,79.77L259.36,79.77L259.36,78.82L260.99,79.09L260.99,78.22L261.81,78.22L261.81,75.89L262.62,75.89L262.62,78.66L268.34,78.91L268.34,75.15L269.15,75.15L269.15,79.59L269.97,79.59L269.97,78.67L273.24,79.09L273.24,78.22L274.05,78.22L274.05,75.89L274.87,75.89L274.87,78.66L280.59,78.69L280.59,75.45L281.4,75.45L281.4,79.2L283.04,78.5L283.04,79.44L285.49,79.09L285.49,78.1L286.3,78.1L286.3,75.39L287.12,75.39L287.12,79.29L291.2,79.4L291.2,78.35L292.02,78.35L292.02,79.14L292.84,79.14L292.84,75.19L293.65,75.19L293.65,79.22L295.29,78.55L295.29,78.44L296.1,78.44L296.1,79.36L297.74,78.65L297.74,78.16L298.55,78.16L298.55,76.13L299.37,76.13L299.37,78.69L301.82,78.56L301.82,78.42L302.64,78.42L302.64,79.34L303.45,79.34L303.45,78.4L305.09,78.77L305.09,75.14L305.9,75.14L305.9,78.7L310.8,78.72L310.8,75.58L311.62,75.58L311.62,78.96L314.88,79.36L314.88,78.58L316.52,78.57L316.52,79.38L320.6,79.16L320.6,79.48L321.42,79.48L321.42,78.57L323.05,79L323.05,75.89L323.87,75.89L323.87,78.58L325.5,78.56L325.5,79.54L326.32,79.54L326.32,78.5L327.95,78.86L327.95,79.29L328.77,79.29L328.77,78.04L329.58,78.04L329.58,76.13L330.4,76.13L330.4,78.72L332.03,79.35L332.03,78.56L332.85,78.56L332.85,79.48L334.48,79.4L334.48,78.44L335.3,78.44L335.3,75.17L336.12,75.17L336.12,78.87L337.75,79.47L337.75,78.54L338.57,78.54L338.57,80.08L339.38,80.08L339.38,85.31L340.2,85.31L340.2,79.35L341.02,79.35L341.02,78.15L341.83,78.15L341.83,75.26L342.65,75.26L342.65,79.41L343.47,79.41L343.47,83.68L344.28,83.68L344.28,77.53L345.1,77.53L345.1,78.67L346.73,79.26L346.73,79.44L347.55,79.44L347.55,76.92L348.37,76.92L348.37,85.19L349.18,85.19L349.18,88.31L350,88.31L350,83.51L350.82,83.51L350.82,80.32L351.63,80.32L351.63,77.71L352.45,77.71L352.45,79.64L354.9,79.1L354.9,78.65L357.35,78.5L357.35,79.26L358.98,79.25L358.98,78.34L359.8,78.34L359.8,75.8L360.62,75.8L360.62,78.67L364.7,79.15L364.7,83.27L366.33,82.61L366.33,76.73L367.15,76.73L367.15,78.36L367.96,78.36L367.96,80.28L369.6,79.91L369.6,84.19L370.41,84.19L370.41,77.54L372.05,78.04L372.05,75.92L372.86,75.92L372.86,78.66L377.76,79.25L377.76,78.1L378.58,78.1L378.58,75.85L379.4,75.85L379.4,78.65L381.03,79.11L381.03,79.48L383.48,80.14L383.48,79.03L384.3,79.03L384.3,76.79L385.11,76.79L385.11,80.24L385.93,80.24L385.93,79.45L390.83,79.64L390.83,76.46L391.65,76.46L391.65,79.81L394.1,80.18L394.1,79.41L396.55,79.24L396.55,77.16L397.36,77.16L397.36,78.82L398.18,78.82L398.18,80.28L399,80.28L399,79.33L400.63,79.61L400.63,80.22L402.26,79.82L402.26,79.26L403.08,79.26L403.08,76.72L403.9,76.72L403.9,79.54L407.16,80.22L407.16,79.34L408.8,78.9L408.8,76.82L409.61,76.82L409.61,79.58L411.25,80.15L411.25,79.11L415.33,79.2L415.33,69.96L416.14,69.96L416.14,79.28L423.49,79.41L423.49,78.56L427.58,78.92L427.58,75.13L428.39,75.13L428.39,78.52L430.03,79.13L430.03,79.35L430.84,79.35L430.84,78.4L431.66,78.4L431.66,79.36L432.48,79.36L432.48,78.23L433.29,78.23L433.29,75.88L434.11,75.88L434.11,78.23L434.93,78.23L434.93,79.4L437.38,79.04L437.38,78.54L439.83,78.94L439.83,75.94L440.64,75.94L440.64,78.67L449.63,79.05L449.63,78.35L450.44,78.35L450.44,79.47L452.89,79.1L452.89,78.66L455.34,79.4L455.34,78.35L456.16,78.35L456.16,79.33L457.79,78.88L457.79,75.23L458.61,75.23L458.61,79.44L460.24,79.1L460.24,78.49L461.87,79.11L461.87,79.41L462.69,79.41L462.69,78.56L464.32,79L464.32,75.91L465.14,75.91L465.14,79.1L467.59,78.4L467.59,79.19L468.41,79.19L468.41,78.41L470.04,78.95L470.04,75.16L470.86,75.16L470.86,79.36L471.67,79.36L471.67,78.38L472.49,78.38L472.49,79.21L473.31,79.21L473.31,78.35L475.76,79.09L475.76,78.22L476.57,78.22L476.57,75.89L477.39,75.89L477.39,78.5L482.29,79.22L482.29,75.1L483.11,75.1L483.11,78.09L483.92,78.09L483.92,79.36L484.74,79.36L484.74,78.38L485.56,78.38L485.56,79.21L486.37,79.21L486.37,78.35L488.82,78.96L488.82,75.16L489.64,75.16L489.64,79.11L491.27,79.22L491.27,78.35L492.91,78.66L492.91,79.11L494.54,79.14L494.54,74.96L495.36,74.96L495.36,79.24L496.17,79.24L496.17,78.35L496.99,78.35L496.99,79.41L497.81,79.41L497.81,78.55L499.44,79.21L499.44,78.39L501.07,78.07L501.07,76.17L501.89,76.17L501.89,79.07L505.97,79.09L505.97,78.07L506.79,78.07L506.79,75.26L507.61,75.26L507.61,79.18L509.24,78.43L509.24,79.44L510.87,79.1L510.87,78.56L513.32,78.77L513.32,75.14L514.14,75.14L514.14,78.67L519.04,78.96L519.04,75.89L519.85,75.89L519.85,78.34L523.12,78.66L523.12,79.1L525.57,79.03L525.57,74.92L526.39,74.92L526.39,79.1L531.29,78.99L531.29,75.12L532.1,75.12L532.1,79.37L532.92,79.37L532.92,78.37L533.74,78.37L533.74,79.22L534.55,79.22L534.55,78.35L537,79.1L537,78.25L537.82,78.25L537.82,75.87L538.64,75.87L538.64,78.49L541.9,78.39L541.9,79.2L542.72,79.2L542.72,78.21L543.54,78.21L543.54,76.06L544.35,76.06L544.35,78.2L546.8,78.41L546.8,79.18L548.44,78.43L548.44,79.33L549.25,79.33L549.25,78.16L550.07,78.16L550.07,75.96L550.89,75.96L550.89,78.34L554.97,79.07L554.97,77.99L555.79,77.99L555.79,75.96L556.6,75.96L556.6,78.55L558.23,78.43L558.23,79.32L559.05,79.32L559.05,78.34L562.32,78.32L562.32,75.8L563.13,75.8L563.13,78.34L563.95,78.34L563.95,79.42L564.77,79.42L564.77,78.39L566.4,78.45L566.4,79.43L568.03,78.94L568.03,75.96L568.85,75.96L568.85,77.37L569.67,77.37L569.67,79.31L570.48,79.31L570.48,78.43L571.3,78.43L571.3,79.32L572.12,79.32L572.12,78.34L574.57,78.77L574.57,75.35L575.38,75.35L575.38,79.13L577.02,79.34L577.02,78.4L577.83,78.4L577.83,79.19L578.65,79.19L578.65,78.41L580.28,78.95L580.28,75.15L581.1,75.15L581.1,79.31L582.73,79.26L582.73,78.52L583.55,78.52L583.55,79.3L584.37,79.3L584.37,78.44L586,79.15L586,77.96L586.82,77.96L586.82,75.46L587.63,75.46L587.63,79.06L591.72,78.49L591.72,79.11L594.98,79.41L594.98,78.34L595.8,78.34L595.8,79.27L599.07,78.77L599.07,75.19L599.88,75.19L599.88,79.35L600.7,79.35L600.7,78.35L602.33,78.67L602.33,79.12L603.97,79.21L603.97,78.39L604.78,78.39L604.78,81.42L605.6,81.42L605.6,98.81" style="vector-effect: non-scaling-stroke; fill: none; stroke: rgb(227, 111, 71); stroke-opacity: 1; stroke-width: 1px; opacity: 1;"/></g><g class="points"/><g class="text"/></g><g class="trace scatter tracec07071" style="stroke-miterlimit: 2; opacity: 1;"><g class="fills"/><g class="errorbars"/><g class="lines"><path class="js-line" d="M17.64,96.02L18.46,96.02L18.46,79.09L22.54,78.4L22.54,79.19L23.36,79.19L23.36,78.41L24.17,78.41L24.17,79.35L24.99,79.35L24.99,78.34L28.25,78.67L28.25,79.12L29.89,79.37L29.89,78.34L33.15,78.66L33.15,79.1L35.6,78.4L35.6,79.19L36.42,79.19L36.42,78.41L37.24,78.41L37.24,79.35L38.05,79.35L38.05,78.34L40.5,79.08L40.5,77.68L41.32,77.68L41.32,72.8L42.14,72.8L42.14,78.67L50.3,78.41L50.3,79.35L51.12,79.35L51.12,78.34L53.57,78.8L53.57,73.21L54.39,73.21L54.39,77.55L55.2,77.55L55.2,78.67L58.47,78.43L58.47,79.33L59.29,79.33L59.29,78.42L60.1,78.42L60.1,79.34L60.92,79.34L60.92,78.35L68.27,78.43L68.27,79.32L69.09,79.32L69.09,78.36L72.35,78.34L72.35,79.27L75.62,78.55L75.62,78.43L78.07,78.53L78.07,80.15L78.88,80.15L78.88,77.5L79.7,77.5L79.7,79.17L81.33,78.43L81.33,79.32L82.15,79.32L82.15,78.43L82.97,78.43L82.97,79.44L84.6,79.09L84.6,78.39L86.23,78.42L86.23,79.34L87.05,79.34L87.05,78.41L87.87,78.41L87.87,79.35L88.68,79.35L88.68,78.39L90.32,78.4L90.32,71.92L91.13,71.92L91.13,79.36L91.95,79.36L91.95,78.39L92.77,78.39L92.77,79.37L93.58,79.37L93.58,78.37L94.4,78.37L94.4,79.22L95.22,79.22L95.22,78.38L96.03,78.38L96.03,79.38L96.85,79.38L96.85,78.36L97.67,78.36L97.67,79.25L102.57,79.33L102.57,78.34L104.2,78.55L104.2,79.26L105.83,79.19L105.83,78.41L106.65,78.41L106.65,79.35L107.47,79.35L107.47,78.39L108.28,78.39L108.28,79.2L109.1,79.2L109.1,78.4L109.92,78.4L109.92,79.36L110.73,79.36L110.73,78.39L111.55,78.39L111.55,79.47L113.18,79.15L113.18,78.45L114,78.45L114,79.43L116.45,79.36L116.45,78.38L117.27,78.38L117.27,79.33L118.9,79.3L118.9,78.45L119.72,78.45L119.72,79.3L120.53,79.3L120.53,78.43L121.35,78.43L121.35,79.28L126.25,79.09L126.25,78.5L127.88,79.12L127.88,79.4L130.33,79.05L130.33,78.54L143.4,79.09L143.4,78.39L145.03,78.43L145.03,79.33L145.85,79.33L145.85,78.42L146.66,78.42L146.66,79.34L147.48,79.34L147.48,78.4L148.3,78.4L148.3,79.19L149.11,79.19L149.11,78.41L149.93,78.41L149.93,79.35L150.75,79.35L150.75,78.41L151.56,78.41L151.56,79.51L152.38,79.51L152.38,78.19L154.01,78.51L154.01,79.09L163,78.39L163,79.2L163.81,79.2L163.81,78.4L164.63,78.4L164.63,79.36L165.45,79.36L165.45,78.35L175.24,78.65L175.24,79.11L178.51,78.52L178.51,79.3L179.33,79.3L179.33,78.44L180.96,79.15L180.96,78.36L187.49,78.53L187.49,79.19L189.13,79.9L189.13,77.8L189.94,77.8L189.94,79.57L191.58,79.88L191.58,78.43L192.39,78.43L192.39,79.32L193.21,79.32L193.21,78.36L199.74,78.67L199.74,79.14L201.38,79.49L201.38,78.04L203.01,78.67L203.01,79.12L204.64,79.37L204.64,78.37L205.46,78.37L205.46,79.22L206.28,79.22L206.28,78.38L207.09,78.38L207.09,79.38L207.91,79.38L207.91,78.36L208.73,78.36L208.73,79.22L209.54,79.22L209.54,78.37L210.36,78.37L210.36,79.39L211.18,79.39L211.18,78.36L211.99,78.36L211.99,79.54L213.63,79.88L213.63,77.57L214.44,77.57L214.44,78.35L215.26,78.35L215.26,79.54L216.89,80.07L216.89,77.62L217.71,77.62L217.71,79.35L218.52,79.35L218.52,78.34L220.16,78.51L220.16,79.13L223.42,79.04L223.42,78.55L225.06,79.26L225.06,80.27L225.87,80.27L225.87,77.29L226.69,77.29L226.69,78.69L229.14,78.36L229.14,79.23L229.96,79.23L229.96,78.36L230.77,78.36L230.77,79.4L231.59,79.4L231.59,78.35L232.41,78.35L232.41,79.43L233.22,79.43L233.22,78.55L238.12,78.44L238.12,79.34L238.94,79.34L238.94,78.52L240.57,78.88L240.57,79.37L245.47,78.71L245.47,79.47L246.29,79.47L246.29,78.52L247.92,78.89L247.92,79.35L248.74,79.35L248.74,78.54L251.19,78.56L251.19,78.41L252.01,78.41L252.01,79.31L254.46,78.74L254.46,78.54L255.27,78.54L255.27,79.39L256.09,79.39L256.09,78.5L257.72,78.67L257.72,79.26L259.36,79.77L259.36,78.82L265.89,79.26L265.89,78.44L269.15,78.52L269.15,80.59L269.97,80.59L269.97,77.67L270.79,77.67L270.79,79.09L283.04,78.5L283.04,79.44L285.49,79.09L285.49,78.58L290.39,78.67L290.39,79.4L291.2,79.4L291.2,78.35L292.02,78.35L292.02,79.41L292.84,79.41L292.84,78.34L293.65,78.34L293.65,79.43L294.47,79.43L294.47,78.55L296.1,78.44L296.1,79.36L301,79.23L301,78.56L302.64,78.42L302.64,79.34L303.45,79.34L303.45,78.4L304.27,78.4L304.27,79.19L305.09,79.19L305.09,78.35L306.72,78.7L306.72,79.22L314.07,78.89L314.07,79.36L314.88,79.36L314.88,78.58L316.52,78.57L316.52,79.38L320.6,79.16L320.6,79.48L321.42,79.48L321.42,78.57L322.23,78.57L322.23,79.44L323.87,79.1L323.87,78.58L325.5,78.56L325.5,79.54L326.32,79.54L326.32,78.5L327.95,78.86L327.95,79.29L328.77,79.29L328.77,78.46L329.58,78.46L329.58,79.35L332.03,79.35L332.03,78.56L332.85,78.56L332.85,79.48L335.3,78.75L335.3,78.5L336.93,78.87L336.93,79.47L337.75,79.47L337.75,78.54L338.57,78.54L338.57,80.08L339.38,80.08L339.38,85.31L340.2,85.31L340.2,79.35L341.02,79.35L341.02,78.35L342.65,78.69L342.65,79.41L343.47,79.41L343.47,83.68L344.28,83.68L344.28,77.53L345.1,77.53L345.1,78.67L346.73,79.26L346.73,79.67L348.37,80.33L348.37,85.19L349.18,85.19L349.18,88.31L350,88.31L350,83.51L350.82,83.51L350.82,80.32L351.63,80.32L351.63,77.71L352.45,77.71L352.45,79.64L354.9,79.1L354.9,78.65L357.35,78.5L357.35,79.26L358.98,79.25L358.98,78.34L359.8,78.34L359.8,79.43L360.62,79.43L360.62,78.67L364.7,79.15L364.7,83.27L366.33,82.83L366.33,80.16L367.15,80.16L367.15,78.36L367.96,78.36L367.96,80.28L369.6,79.91L369.6,84.19L370.41,84.19L370.41,77.54L371.23,77.54L371.23,78.5L377.76,79.25L377.76,78.49L381.03,79.11L381.03,79.48L383.48,80.14L383.48,79.15L384.3,79.15L384.3,80.3L385.93,80.24L385.93,79.45L394.1,80.18L394.1,79.41L396.55,79.6L396.55,80.43L397.36,80.43L397.36,78.82L398.18,78.82L398.18,80.28L399,80.28L399,79.33L400.63,79.99L400.63,82.82L401.45,82.82L401.45,76.84L402.26,76.84L402.26,79.54L407.16,80.22L407.16,79.34L410.43,79.58L410.43,80.15L411.25,80.15L411.25,79.11L415.33,79.53L415.33,80.23L416.14,80.23L416.14,79.28L423.49,79.41L423.49,78.56L426.76,79.13L426.76,79.34L427.58,79.34L427.58,78.34L429.21,78.52L429.21,79.13L430.84,79.35L430.84,78.4L431.66,78.4L431.66,79.36L432.48,79.36L432.48,78.39L433.29,78.39L433.29,79.36L434.11,79.36L434.11,78.23L434.93,78.23L434.93,79.4L437.38,79.04L437.38,78.54L439.01,79.14L439.01,79.43L440.64,79.09L440.64,78.67L449.63,79.05L449.63,78.35L450.44,78.35L450.44,79.47L452.89,79.1L452.89,78.66L455.34,79.4L455.34,78.35L456.16,78.35L456.16,79.33L457.79,79.33L457.79,78.42L458.61,78.42L458.61,79.44L460.24,79.1L460.24,78.49L461.87,79.11L461.87,79.41L462.69,79.41L462.69,78.56L466.77,78.56L466.77,78.4L467.59,78.4L467.59,79.19L468.41,79.19L468.41,78.41L470.04,78.56L470.04,71.92L470.86,71.92L470.86,79.36L471.67,79.36L471.67,78.38L472.49,78.38L472.49,79.21L473.31,79.21L473.31,78.35L481.47,78.51L481.47,79.25L483.11,78.7L483.11,78.09L483.92,78.09L483.92,79.36L484.74,79.36L484.74,78.38L485.56,78.38L485.56,79.21L486.37,79.21L486.37,78.35L489.64,78.66L489.64,79.11L491.27,79.22L491.27,78.35L492.91,78.66L492.91,79.11L494.54,79.4L494.54,78.35L495.36,78.35L495.36,79.24L496.17,79.24L496.17,78.35L496.99,78.35L496.99,79.41L497.81,79.41L497.81,78.34L498.62,78.34L498.62,79.42L499.44,79.42L499.44,78.39L501.07,78.45L501.07,79.43L502.71,79.07L502.71,78.51L507.61,78.41L507.61,79.18L509.24,78.43L509.24,79.44L510.87,79.1L510.87,78.56L512.5,78.4L512.5,79.19L513.32,79.19L513.32,78.35L518.22,78.67L518.22,79.12L519.85,79.37L519.85,78.34L523.12,78.66L523.12,79.1L530.47,78.4L530.47,79.36L531.29,79.36L531.29,78.39L532.1,78.39L532.1,79.37L532.92,79.37L532.92,78.37L533.74,78.37L533.74,79.22L534.55,79.22L534.55,78.35L541.9,78.39L541.9,79.2L542.72,79.2L542.72,78.41L543.54,78.41L543.54,79.51L544.35,79.51L544.35,78.2L546.8,78.41L546.8,79.18L548.44,78.43L548.44,79.33L549.25,79.33L549.25,78.42L550.07,78.42L550.07,79.34L550.89,79.34L550.89,78.34L558.23,78.43L558.23,79.32L559.05,79.32L559.05,78.34L562.32,78.35L562.32,79.41L563.13,79.41L563.13,78.34L563.95,78.34L563.95,79.42L564.77,79.42L564.77,78.39L566.4,78.45L566.4,79.43L568.85,79.41L568.85,77.37L569.67,77.37L569.67,79.31L570.48,79.31L570.48,78.43L571.3,78.43L571.3,79.32L572.12,79.32L572.12,78.34L574.57,78.46L574.57,72.01L575.38,72.01L575.38,79.13L577.02,79.34L577.02,78.4L577.83,78.4L577.83,79.19L578.65,79.19L578.65,78.41L579.47,78.41L579.47,79.35L580.28,79.35L580.28,78.39L581.1,78.39L581.1,79.31L582.73,79.26L582.73,78.48L586,79.15L586,78.36L591.72,78.49L591.72,79.11L594.98,79.41L594.98,78.34L595.8,78.34L595.8,79.27L599.07,79.19L599.07,78.41L599.88,78.41L599.88,79.35L600.7,79.35L600.7,78.35L602.33,78.67L602.33,79.12L603.97,79.21L603.97,78.39L604.78,78.39L604.78,81.42L605.6,81.42L605.6,98.81" style="vector-effect: non-scaling-stroke; fill: none; stroke: rgb(62, 164, 78); stroke-opacity: 1; stroke-width: 1px; opacity: 1;"/></g><g class="points"/><g class="text"/></g><g class="trace scatter trace75a9d8" style="stroke-miterlimit: 2; opacity: 1;"><g class="fills"/><g class="errorbars"/><g class="lines"><path class="js-line" d="M17.64,98.09L18.46,98.09L18.46,13L22.54,13.69L22.54,12.85L23.36,12.85L23.36,10.12L24.17,10.12L24.17,13.7L29.07,13.55L29.07,10.12L29.89,10.12L29.89,13.7L35.6,13.63L35.6,9.43L36.42,9.43L36.42,13.61L40.5,13.61L40.5,12.9L41.32,12.9L41.32,10.15L42.14,10.15L42.14,13.61L47.85,13.61L47.85,10.05L48.67,10.05L48.67,13L53.57,13.61L53.57,9.35L54.39,9.35L54.39,13.61L60.1,13.61L60.1,10.06L60.92,10.06L60.92,13.7L64.19,13.68L64.19,12.92L65.82,13.61L65.82,10.06L66.64,10.06L66.64,13.7L68.27,13.68L68.27,12.93L69.09,12.93L69.09,13.7L72.35,13.61L72.35,9.35L73.17,9.35L73.17,13.61L77.25,13.68L77.25,12.89L78.07,12.89L78.07,10.09L78.88,10.09L78.88,13.61L81.33,13.68L81.33,12.93L82.15,12.93L82.15,13.7L84.6,13.61L84.6,10.06L85.42,10.06L85.42,12.99L90.32,13.59L90.32,9.37L91.13,9.37L91.13,13.7L94.4,13.68L94.4,12.93L95.22,12.93L95.22,13.7L96.85,13.58L96.85,10.09L97.67,10.09L97.67,13.61L102.57,13.58L102.57,10.1L103.38,10.1L103.38,13.7L109.1,13.61L109.1,10.06L109.92,10.06L109.92,12.99L114,13.61L114,12.88L114.82,12.88L114.82,10.09L115.63,10.09L115.63,13.7L121.35,13.58L121.35,10.09L122.16,10.09L122.16,13.61L127.06,13.58L127.06,9.39L127.88,9.39L127.88,13.61L133.6,13.58L133.6,10.09L134.41,10.09L134.41,13.7L139.31,13.58L139.31,10.09L140.13,10.09L140.13,13.7L145.85,13.58L145.85,10.09L146.66,10.09L146.66,13.61L149.11,13.68L149.11,12.93L149.93,12.93L149.93,13.7L151.56,13.58L151.56,10.09L152.38,10.09L152.38,13.61L157.28,13.61L157.28,12.88L158.1,12.88L158.1,10.09L158.91,10.09L158.91,13.7L163.81,13.61L163.81,10.06L164.63,10.06L164.63,12.99L170.34,13.58L170.34,10.09L171.16,10.09L171.16,13.61L176.06,13.58L176.06,10.09L176.88,10.09L176.88,13.61L181.78,13.61L181.78,12.88L182.59,12.88L182.59,10.09L183.41,10.09L183.41,13.7L188.31,13.59L188.31,9.37L189.13,9.37L189.13,13.7L192.39,13.68L192.39,12.93L193.21,12.93L193.21,13.7L194.84,13.58L194.84,10.09L195.66,10.09L195.66,13.61L200.56,13.58L200.56,10.08L201.38,10.08L201.38,12.92L202.19,12.92L202.19,13.7L205.46,13.68L205.46,12.93L207.09,13.58L207.09,10.09L207.91,10.09L207.91,13.7L212.81,13.58L212.81,10.09L213.63,10.09L213.63,13.68L214.44,13.68L214.44,12.92L215.26,12.92L215.26,13.72L216.89,14.3L216.89,9.36L217.71,9.36L217.71,13.7L219.34,13.58L219.34,10.09L220.16,10.09L220.16,13.61L225.06,13.58L225.06,9.39L225.87,9.39L225.87,13.61L230.77,13.63L230.77,14.29L231.59,14.29L231.59,9.37L232.41,9.37L232.41,13.7L237.31,13.61L237.31,10.06L238.12,10.06L238.12,13.01L238.94,13.01L238.94,14.44L240.57,15.09L240.57,14.3L243.02,13.75L243.02,14.95L243.84,14.95L243.84,10.09L244.66,10.09L244.66,13.72L246.29,14.44L246.29,15.09L247.11,15.09L247.11,14.3L248.74,14.41L248.74,12.9L249.56,12.9L249.56,10.78L250.37,10.78L250.37,13.7L253.64,13.72L253.64,14.41L256.09,14.38L256.09,10.11L256.91,10.11L256.91,14.39L257.72,14.39L257.72,13.63L258.54,13.63L258.54,15.12L260.17,14.41L260.17,13.7L261.81,13.58L261.81,10.1L262.62,10.1L262.62,13.7L266.7,13.71L266.7,14.4L267.52,14.4L267.52,13.58L268.34,13.58L268.34,10.81L269.15,10.81L269.15,14.41L270.79,13.7L270.79,13.62L271.6,13.62L271.6,14.41L273.24,13.7L273.24,13.58L274.05,13.58L274.05,10.09L274.87,10.09L274.87,13.61L278.14,13.62L278.14,14.42L279.77,14.38L279.77,12.98L280.59,12.98L280.59,20.94L281.4,20.94L281.4,14.41L284.67,14.4L284.67,13.61L285.49,13.61L285.49,14.38L286.3,14.38L286.3,10.09L287.12,10.09L287.12,13.61L287.94,13.61L287.94,15.21L288.75,15.21L288.75,13.64L289.57,13.64L289.57,15.1L290.39,15.1L290.39,13.7L292.84,13.61L292.84,10.06L293.65,10.06L293.65,13.7L297.74,14.4L297.74,13.32L298.55,13.32L298.55,4.5L299.37,4.5L299.37,13.01L300.19,13.01L300.19,14.39L301,14.39L301,13.61L304.27,13.64L304.27,10.06L305.9,10.03L305.9,13.7L308.35,13.01L308.35,14.44L309.99,15.14L309.99,15.69L310.8,15.69L310.8,10.87L311.62,10.87L311.62,14.3L312.44,14.3L312.44,15.27L314.88,15.12L314.88,13.7L317.33,13.59L317.33,11.5L318.15,11.5L318.15,13.72L319.78,14.39L319.78,13.61L321.42,13.72L321.42,14.39L322.23,14.39L322.23,13.58L323.05,13.58L323.05,10.11L323.87,10.11L323.87,14.39L324.68,14.39L324.68,13.62L325.5,13.62L325.5,14.42L328.77,14.3L328.77,13.64L329.58,13.64L329.58,10.15L330.4,10.15L330.4,14.41L335.3,14.39L335.3,10.81L336.12,10.81L336.12,14.44L338.57,14.43L338.57,21.92L339.38,21.92L339.38,71.99L340.2,71.99L340.2,38.74L341.02,38.74L341.02,13.59L341.83,13.59L341.83,10.8L342.65,10.8L342.65,15.31L343.47,15.31L343.47,61.7L344.28,61.7L344.28,59.38L345.1,59.38L345.1,44.99L345.92,44.99L345.92,48.01L346.73,48.01L346.73,45.66L347.55,45.66L347.55,55.72L348.37,55.72L348.37,78.25L349.18,78.25L349.18,79.64L350,79.64L350,62.67L350.82,62.67L350.82,60.6L351.63,60.6L351.63,32.13L352.45,32.13L352.45,45.15L354.08,44.5L354.08,42.51L354.9,42.51L354.9,13.7L359.8,13.61L359.8,10.77L360.62,10.77L360.62,13L363.88,13.61L363.88,14.37L364.7,14.37L364.7,57.24L365.51,57.24L365.51,69.71L366.33,69.71L366.33,59.64L367.15,59.64L367.15,56.26L367.96,56.26L367.96,61.86L368.78,61.86L368.78,65.08L369.6,65.08L369.6,71.27L370.41,71.27L370.41,23.3L371.23,23.3L371.23,13.01L372.05,13.01L372.05,10.12L372.86,10.12L372.86,13.61L376.13,13.01L376.13,14.3L377.76,13.7L377.76,12.88L378.58,12.88L378.58,10.09L379.4,10.09L379.4,13.7L384.3,13.58L384.3,10.09L385.11,10.09L385.11,13.7L390.83,13.66L390.83,9.39L391.65,9.39L391.65,13.61L395.73,13.61L395.73,12.93L396.55,12.93L396.55,10.12L397.36,10.12L397.36,13.61L403.08,13.58L403.08,10.09L403.9,10.09L403.9,13L408.8,13.61L408.8,9.35L409.61,9.35L409.61,13.7L415.33,13.64L415.33,10.48L416.14,10.48L416.14,24.17L416.96,24.17L416.96,13L420.23,13.61L420.23,28.25L421.04,28.25L421.04,15.64L421.86,15.64L421.86,44.4L422.68,44.4L422.68,54.23L423.49,54.23L423.49,49.11L424.31,49.11L424.31,50.25L425.13,50.25L425.13,73.41L425.94,73.41L425.94,65.79L426.76,65.79L426.76,24.26L427.58,24.26L427.58,46.51L428.39,46.51L428.39,17.75L429.21,17.75L429.21,27.72L430.03,27.72L430.03,18.67L430.84,18.67L430.84,29.89L431.66,29.89L431.66,32L432.48,32L432.48,24.26L433.29,24.26L433.29,10.05L434.11,10.05L434.11,13L435.74,13.61L435.74,13.82L436.56,13.82L436.56,17.13L437.38,17.13L437.38,13.79L438.19,13.79L438.19,17.16L439.01,17.16L439.01,23.91L439.83,23.91L439.83,13.61L440.64,13.61L440.64,17.34L441.46,17.34L441.46,13.7L443.09,13.7L443.09,23.82L443.91,23.82L443.91,13.61L445.54,13.61L445.54,10.06L446.36,10.06L446.36,13.69L452.08,13.61L452.08,9.35L452.89,9.35L452.89,13.61L457.79,13.58L457.79,10.09L458.61,10.09L458.61,13.61L464.32,13.61L464.32,10.06L465.14,10.06L465.14,12.99L469.22,13.61L469.22,12.88L470.04,12.88L470.04,10.09L470.86,10.09L470.86,13.7L476.57,13.55L476.57,6.49L477.39,6.49L477.39,13.61L482.29,13.66L482.29,9.39L483.11,9.39L483.11,13.61L488.82,13.58L488.82,10.09L489.64,10.09L489.64,13.7L494.54,13.58L494.54,10.09L495.36,10.09L495.36,13L501.07,13.55L501.07,10.12L501.89,10.12L501.89,13.61L506.79,13.64L506.79,10.12L507.61,10.12L507.61,13.61L513.32,13.61L513.32,9.35L514.14,9.35L514.14,13.7L525.57,13.64L525.57,10.06L526.39,10.06L526.39,12.96L530.47,13.61L530.47,12.9L531.29,12.9L531.29,10.06L532.1,10.06L532.1,13.7L537.82,13.61L537.82,10.05L538.64,10.05L538.64,13L543.54,13.61L543.54,9.35L544.35,9.35L544.35,13.61L550.07,13.61L550.07,10.06L550.89,10.06L550.89,13.69L555.79,13.61L555.79,10.06L556.6,10.06L556.6,12.99L562.32,13.58L562.32,10.09L563.13,10.09L563.13,13.61L568.03,13.52L568.03,2.88L568.85,2.88L568.85,13.61L573.75,13.61L573.75,12.88L574.57,12.88L574.57,10.09L575.38,10.09L575.38,13.7L580.28,13.58L580.28,10.09L581.1,10.09L581.1,13.7L586.82,13.58L586.82,9.39L587.63,9.39L587.63,13.61L592.53,13.55L592.53,10.12L593.35,10.12L593.35,13.61L599.07,13.58L599.07,10.09L599.88,10.09L599.88,13L603.97,13.69L603.97,12.85L604.78,12.85L604.78,11.54L605.6,11.54L605.6,98.81" style="vector-effect: non-scaling-stroke; fill: none; stroke: rgb(195, 113, 210); stroke-opacity: 1; stroke-width: 1px; opacity: 1;"/></g><g class="points"/><g class="text"/></g><g class="trace scatter traced6dc99" style="stroke-miterlimit: 2; opacity: 1;"><g class="fills"/><g class="errorbars"/><g class="lines"><path class="js-line" d="M23.36,98.79L372.86,98.72L372.86,98.81" style="vector-effect: non-scaling-stroke; fill: none; stroke: rgb(172, 142, 24); stroke-opacity: 1; stroke-width: 1px; opacity: 1;"/></g><g class="points"/><g class="text"/></g><g class="trace scatter tracefaf280" style="stroke-miterlimit: 2; opacity: 1;"><g class="fills"/><g class="errorbars"/><g class="lines"><path class="js-line" d="M23.36,98.81L305.9,98.25L305.9,97.83L311.62,97.91L311.62,98.81L316.52,98.81L316.52,96.71L318.15,97.26L318.15,98.81L347.55,98.81L347.55,96.51L348.37,96.51L348.37,97.46L349.18,97.46L349.18,98.81L495.36,98.71L495.36,97.84L501.89,98.41L501.89,98.81L506.79,98.53L506.79,95.44L507.61,95.44L507.61,98.81L514.14,98.26L514.14,97.84L519.85,97.89L519.85,98.81L524.75,98.81L524.75,96.65L526.39,97.32L526.39,98.81L598.25,98.81L598.25,96.74L599.88,97.23L599.88,98.81L605.6,98.81L605.6,98.81" style="vector-effect: non-scaling-stroke; fill: none; stroke: rgb(0, 170, 174); stroke-opacity: 1; stroke-width: 1px; opacity: 1;"/></g><g class="points"/><g class="text"/></g><g class="trace scatter tracee5b4a6" style="stroke-miterlimit: 2; opacity: 1;"><g class="fills"/><g class="errorbars"/><g class="lines"><path class="js-line" d="M33.97,98.81L590.08,98.81L590.08,97.79L590.9,97.79L590.9,96.67L593.35,96.83L593.35,98.81" style="vector-effect: non-scaling-stroke; fill: none; stroke: rgb(237, 94, 147); stroke-opacity: 1; stroke-width: 1px; opacity: 1;"/></g><g class="points"/><g class="text"/></g><g class="trace scatter trace82b115" style="stroke-miterlimit: 2; opacity: 1;"><g class="fills"/><g class="errorbars"/><g class="lines"><path class="js-line" d="M33.97,98.81L140.95,98.16L140.95,97.77L146.66,98.37L146.66,98.81L602.33,98.81L602.33,98.81" style="vector-effect: non-scaling-stroke; fill: none; stroke: rgb(198, 130, 37); stroke-opacity: 1; stroke-width: 1px; opacity: 1;"/></g><g class="points"/><g class="text"/></g><g class="trace scatter tracebf967a" style="stroke-miterlimit: 2; opacity: 1;"><g class="fills"/><g class="errorbars"/><g class="lines"><path class="js-line" d="M33.97,96.12L35.6,95.55L35.6,97.47L36.42,97.47L36.42,98.81L475.76,98.81L475.76,94.31L476.57,94.31L476.57,96.03L477.39,96.03L477.39,98.81L555.79,98.81L555.79,98.81" style="vector-effect: non-scaling-stroke; fill: none; stroke: rgb(0, 169, 141); stroke-opacity: 1; stroke-width: 1px; opacity: 1;"/></g><g class="points"/><g class="text"/></g><g class="trace scatter tracee3680b" style="stroke-miterlimit: 2; opacity: 1;"><g class="fills"/><g class="errorbars"/><g class="lines"><path class="js-line" d="M33.97,98.71L358.98,98.14L358.98,95.33L360.62,95.67L360.62,98.81L482.29,98.59L482.29,97.97L489.64,98.44L489.64,98.81L589.27,98.81L589.27,98.81" style="vector-effect: non-scaling-stroke; fill: none; stroke: rgb(142, 151, 30); stroke-opacity: 1; stroke-width: 1px; opacity: 1;"/></g><g class="points"/><g class="text"/></g><g class="trace scatter tracef966d0" style="stroke-miterlimit: 2; opacity: 1;"><g class="fills"/><g class="errorbars"/><g class="lines"><path class="js-line" d="M60.1,98.79L589.27,98.81L589.27,98.81" style="vector-effect: non-scaling-stroke; fill: none; stroke: rgb(0, 169, 204); stroke-opacity: 1; stroke-width: 1px; opacity: 1;"/></g><g class="points"/><g class="text"/></g><g class="trace scatter trace119384" style="stroke-miterlimit: 2; opacity: 1;"><g class="fills"/><g class="errorbars"/><g class="lines"><path class="js-line" d="M87.05,98.68L545.17,98.54L545.17,97.71L550.89,98.37L550.89,98.81L572.12,98.81L572.12,98.81" style="vector-effect: non-scaling-stroke; fill: none; stroke: rgb(155, 127, 233); stroke-opacity: 1; stroke-width: 1px; opacity: 1;"/></g><g class="points"/><g class="text"/></g></g></g><g class="overplot"/><path class="xlines-above crisp" d="M91.82589676290463,284.9824400416999H716.0629921259842" style="fill: none; stroke-width: 1px; stroke: rgb(0, 0, 0); stroke-opacity: 1;"/><path class="ylines-above crisp" d="M92.32589676290463,182.7992058281796V284.4824400416999" style="fill: none; stroke-width: 1px; stroke: rgb(0, 0, 0); stroke-opacity: 1;"/><g class="overlines-above"/><g class="xaxislayer-above"><path class="xtick ticks crisp" d="M0,284.4824400416999v-5" transform="translate(110.46589676290463,0)" style="stroke: rgb(0, 0, 0); stroke-opacity: 1; stroke-width: 1px;"/><path class="xtick ticks crisp" d="M0,284.4824400416999v-5" transform="translate(134.96589676290463,0)" style="stroke: rgb(0, 0, 0); stroke-opacity: 1; stroke-width: 1px;"/><path class="xtick ticks crisp" d="M0,284.4824400416999v-5" transform="translate(159.46589676290463,0)" style="stroke: rgb(0, 0, 0); stroke-opacity: 1; stroke-width: 1px;"/><path class="xtick ticks crisp" d="M0,284.4824400416999v-5" transform="translate(183.95589676290462,0)" style="stroke: rgb(0, 0, 0); stroke-opacity: 1; stroke-width: 1px;"/><path class="xtick ticks crisp" d="M0,284.4824400416999v-5" transform="translate(208.45589676290462,0)" style="stroke: rgb(0, 0, 0); stroke-opacity: 1; stroke-width: 1px;"/><path class="xtick ticks crisp" d="M0,284.4824400416999v-5" transform="translate(232.95589676290462,0)" style="stroke: rgb(0, 0, 0); stroke-opacity: 1; stroke-width: 1px;"/><path class="xtick ticks crisp" d="M0,284.4824400416999v-5" transform="translate(257.4558967629046,0)" style="stroke: rgb(0, 0, 0); stroke-opacity: 1; stroke-width: 1px;"/><path class="xtick ticks crisp" d="M0,284.4824400416999v-5" transform="translate(281.9558967629046,0)" style="stroke: rgb(0, 0, 0); stroke-opacity: 1; stroke-width: 1px;"/><path class="xtick ticks crisp" d="M0,284.4824400416999v-5" transform="translate(306.4558967629046,0)" style="stroke: rgb(0, 0, 0); stroke-opacity: 1; stroke-width: 1px;"/><path class="xtick ticks crisp" d="M0,284.4824400416999v-5" transform="translate(330.9458967629046,0)" style="stroke: rgb(0, 0, 0); stroke-opacity: 1; stroke-width: 1px;"/><path class="xtick ticks crisp" d="M0,284.4824400416999v-5" transform="translate(355.4458967629046,0)" style="stroke: rgb(0, 0, 0); stroke-opacity: 1; stroke-width: 1px;"/><path class="xtick ticks crisp" d="M0,284.4824400416999v-5" transform="translate(379.9458967629046,0)" style="stroke: rgb(0, 0, 0); stroke-opacity: 1; stroke-width: 1px;"/><path class="xtick ticks crisp" d="M0,284.4824400416999v-5" transform="translate(404.4458967629046,0)" style="stroke: rgb(0, 0, 0); stroke-opacity: 1; stroke-width: 1px;"/><path class="xtick ticks crisp" d="M0,284.4824400416999v-5" transform="translate(428.9458967629046,0)" style="stroke: rgb(0, 0, 0); stroke-opacity: 1; stroke-width: 1px;"/><path class="xtick ticks crisp" d="M0,284.4824400416999v-5" transform="translate(453.4458967629046,0)" style="stroke: rgb(0, 0, 0); stroke-opacity: 1; stroke-width: 1px;"/><path class="xtick ticks crisp" d="M0,284.4824400416999v-5" transform="translate(477.93589676290463,0)" style="stroke: rgb(0, 0, 0); stroke-opacity: 1; stroke-width: 1px;"/><path class="xtick ticks crisp" d="M0,284.4824400416999v-5" transform="translate(502.43589676290463,0)" style="stroke: rgb(0, 0, 0); stroke-opacity: 1; stroke-width: 1px;"/><path class="xtick ticks crisp" d="M0,284.4824400416999v-5" transform="translate(526.9358967629047,0)" style="stroke: rgb(0, 0, 0); stroke-opacity: 1; stroke-width: 1px;"/><path class="xtick ticks crisp" d="M0,284.4824400416999v-5" transform="translate(551.4358967629047,0)" style="stroke: rgb(0, 0, 0); stroke-opacity: 1; stroke-width: 1px;"/><path class="xtick ticks crisp" d="M0,284.4824400416999v-5" transform="translate(575.9358967629047,0)" style="stroke: rgb(0, 0, 0); stroke-opacity: 1; stroke-width: 1px;"/><path class="xtick ticks crisp" d="M0,284.4824400416999v-5" transform="translate(600.4358967629047,0)" style="stroke: rgb(0, 0, 0); stroke-opacity: 1; stroke-width: 1px;"/><path class="xtick ticks crisp" d="M0,284.4824400416999v-5" transform="translate(624.9258967629047,0)" style="stroke: rgb(0, 0, 0); stroke-opacity: 1; stroke-width: 1px;"/><path class="xtick ticks crisp" d="M0,284.4824400416999v-5" transform="translate(649.4258967629047,0)" style="stroke: rgb(0, 0, 0); stroke-opacity: 1; stroke-width: 1px;"/><path class="xtick ticks crisp" d="M0,284.4824400416999v-5" transform="translate(673.9258967629047,0)" style="stroke: rgb(0, 0, 0); stroke-opacity: 1; stroke-width: 1px;"/><path class="xtick ticks crisp" d="M0,284.4824400416999v-5" transform="translate(698.4258967629047,0)" style="stroke: rgb(0, 0, 0); stroke-opacity: 1; stroke-width: 1px;"/><g class="xtick"><text text-anchor="start" x="0" y="302.2824400416999" transform="translate(110.46589676290463,0) rotate(35,0,295.2824400416999)" style="font-family: sans-serif; font-size: 14px; fill: rgb(0, 0, 0); fill-opacity: 1; white-space: pre; opacity: 1;">00:00</text></g><g class="xtick"><text text-anchor="start" x="0" y="302.2824400416999" style="font-family: sans-serif; font-size: 14px; fill: rgb(0, 0, 0); fill-opacity: 1; white-space: pre; opacity: 1;" transform="translate(134.96589676290463,0) rotate(35,0,295.2824400416999)">01:00</text></g><g class="xtick"><text text-anchor="start" x="0" y="302.2824400416999" style="font-family: sans-serif; font-size: 14px; fill: rgb(0, 0, 0); fill-opacity: 1; white-space: pre; opacity: 1;" transform="translate(159.46589676290463,0) rotate(35,0,295.2824400416999)">02:00</text></g><g class="xtick"><text text-anchor="start" x="0" y="302.2824400416999" style="font-family: sans-serif; font-size: 14px; fill: rgb(0, 0, 0); fill-opacity: 1; white-space: pre; opacity: 1;" transform="translate(183.95589676290462,0) rotate(35,0,295.2824400416999)">03:00</text></g><g class="xtick"><text text-anchor="start" x="0" y="302.2824400416999" style="font-family: sans-serif; font-size: 14px; fill: rgb(0, 0, 0); fill-opacity: 1; white-space: pre; opacity: 1;" transform="translate(208.45589676290462,0) rotate(35,0,295.2824400416999)">04:00</text></g><g class="xtick"><text text-anchor="start" x="0" y="302.2824400416999" style="font-family: sans-serif; font-size: 14px; fill: rgb(0, 0, 0); fill-opacity: 1; white-space: pre; opacity: 1;" transform="translate(232.95589676290462,0) rotate(35,0,295.2824400416999)">05:00</text></g><g class="xtick"><text text-anchor="start" x="0" y="302.2824400416999" style="font-family: sans-serif; font-size: 14px; fill: rgb(0, 0, 0); fill-opacity: 1; white-space: pre; opacity: 1;" transform="translate(257.4558967629046,0) rotate(35,0,295.2824400416999)">06:00</text></g><g class="xtick"><text text-anchor="start" x="0" y="302.2824400416999" style="font-family: sans-serif; font-size: 14px; fill: rgb(0, 0, 0); fill-opacity: 1; white-space: pre; opacity: 1;" transform="translate(281.9558967629046,0) rotate(35,0,295.2824400416999)">07:00</text></g><g class="xtick"><text text-anchor="start" x="0" y="302.2824400416999" style="font-family: sans-serif; font-size: 14px; fill: rgb(0, 0, 0); fill-opacity: 1; white-space: pre; opacity: 1;" transform="translate(306.4558967629046,0) rotate(35,0,295.2824400416999)">08:00</text></g><g class="xtick"><text text-anchor="start" x="0" y="302.2824400416999" style="font-family: sans-serif; font-size: 14px; fill: rgb(0, 0, 0); fill-opacity: 1; white-space: pre; opacity: 1;" transform="translate(330.9458967629046,0) rotate(35,0,295.2824400416999)">09:00</text></g><g class="xtick"><text text-anchor="start" x="0" y="302.2824400416999" style="font-family: sans-serif; font-size: 14px; fill: rgb(0, 0, 0); fill-opacity: 1; white-space: pre; opacity: 1;" transform="translate(355.4458967629046,0) rotate(35,0,295.2824400416999)">10:00</text></g><g class="xtick"><text text-anchor="start" x="0" y="302.2824400416999" style="font-family: sans-serif; font-size: 14px; fill: rgb(0, 0, 0); fill-opacity: 1; white-space: pre; opacity: 1;" transform="translate(379.9458967629046,0) rotate(35,0,295.2824400416999)">11:00</text></g><g class="xtick"><text text-anchor="start" x="0" y="302.2824400416999" style="font-family: sans-serif; font-size: 14px; fill: rgb(0, 0, 0); fill-opacity: 1; white-space: pre; opacity: 1;" transform="translate(404.4458967629046,0) rotate(35,0,295.2824400416999)">12:00</text></g><g class="xtick"><text text-anchor="start" x="0" y="302.2824400416999" style="font-family: sans-serif; font-size: 14px; fill: rgb(0, 0, 0); fill-opacity: 1; white-space: pre; opacity: 1;" transform="translate(428.9458967629046,0) rotate(35,0,295.2824400416999)">13:00</text></g><g class="xtick"><text text-anchor="start" x="0" y="302.2824400416999" style="font-family: sans-serif; font-size: 14px; fill: rgb(0, 0, 0); fill-opacity: 1; white-space: pre; opacity: 1;" transform="translate(453.4458967629046,0) rotate(35,0,295.2824400416999)">14:00</text></g><g class="xtick"><text text-anchor="start" x="0" y="302.2824400416999" style="font-family: sans-serif; font-size: 14px; fill: rgb(0, 0, 0); fill-opacity: 1; white-space: pre; opacity: 1;" transform="translate(477.93589676290463,0) rotate(35,0,295.2824400416999)">15:00</text></g><g class="xtick"><text text-anchor="start" x="0" y="302.2824400416999" style="font-family: sans-serif; font-size: 14px; fill: rgb(0, 0, 0); fill-opacity: 1; white-space: pre; opacity: 1;" transform="translate(502.43589676290463,0) rotate(35,0,295.2824400416999)">16:00</text></g><g class="xtick"><text text-anchor="start" x="0" y="302.2824400416999" style="font-family: sans-serif; font-size: 14px; fill: rgb(0, 0, 0); fill-opacity: 1; white-space: pre; opacity: 1;" transform="translate(526.9358967629047,0) rotate(35,0,295.2824400416999)">17:00</text></g><g class="xtick"><text text-anchor="start" x="0" y="302.2824400416999" style="font-family: sans-serif; font-size: 14px; fill: rgb(0, 0, 0); fill-opacity: 1; white-space: pre; opacity: 1;" transform="translate(551.4358967629047,0) rotate(35,0,295.2824400416999)">18:00</text></g><g class="xtick"><text text-anchor="start" x="0" y="302.2824400416999" style="font-family: sans-serif; font-size: 14px; fill: rgb(0, 0, 0); fill-opacity: 1; white-space: pre; opacity: 1;" transform="translate(575.9358967629047,0) rotate(35,0,295.2824400416999)">19:00</text></g><g class="xtick"><text text-anchor="start" x="0" y="302.2824400416999" style="font-family: sans-serif; font-size: 14px; fill: rgb(0, 0, 0); fill-opacity: 1; white-space: pre; opacity: 1;" transform="translate(600.4358967629047,0) rotate(35,0,295.2824400416999)">20:00</text></g><g class="xtick"><text text-anchor="start" x="0" y="302.2824400416999" style="font-family: sans-serif; font-size: 14px; fill: rgb(0, 0, 0); fill-opacity: 1; white-space: pre; opacity: 1;" transform="translate(624.9258967629047,0) rotate(35,0,295.2824400416999)">21:00</text></g><g class="xtick"><text text-anchor="start" x="0" y="302.2824400416999" style="font-family: sans-serif; font-size: 14px; fill: rgb(0, 0, 0); fill-opacity: 1; white-space: pre; opacity: 1;" transform="translate(649.4258967629047,0) rotate(35,0,295.2824400416999)">22:00</text></g><g class="xtick"><text text-anchor="start" x="0" y="302.2824400416999" style="font-family: sans-serif; font-size: 14px; fill: rgb(0, 0, 0); fill-opacity: 1; white-space: pre; opacity: 1;" transform="translate(673.9258967629047,0) rotate(35,0,295.2824400416999)">23:00</text></g><g class="xtick"><text text-anchor="start" x="0" y="302.2824400416999" style="font-family: sans-serif; font-size: 14px; fill: rgb(0, 0, 0); fill-opacity: 1; white-space: pre; opacity: 0;" transform="translate(698.4258967629047,0) rotate(35,0,295.2824400416999)">00:00</text></g></g><g class="yaxislayer-above"><path class="y2tick ticks crisp" d="M92.82589676290463,0h5" transform="translate(0,281.6092058281796)" style="stroke: rgb(0, 0, 0); stroke-opacity: 1; stroke-width: 1px;"/><path class="y2tick ticks crisp" d="M92.82589676290463,0h5" transform="translate(0,259.76920582817957)" style="stroke: rgb(0, 0, 0); stroke-opacity: 1; stroke-width: 1px;"/><path class="y2tick ticks crisp" d="M92.82589676290463,0h5" transform="translate(0,237.93920582817958)" style="stroke: rgb(0, 0, 0); stroke-opacity: 1; stroke-width: 1px;"/><path class="y2tick ticks crisp" d="M92.82589676290463,0h5" transform="translate(0,216.1092058281796)" style="stroke: rgb(0, 0, 0); stroke-opacity: 1; stroke-width: 1px;"/><path class="y2tick ticks crisp" d="M92.82589676290463,0h5" transform="translate(0,194.27920582817958)" style="stroke: rgb(0, 0, 0); stroke-opacity: 1; stroke-width: 1px;"/><g class="y2tick"><text text-anchor="end" x="89.02589676290464" y="4.8999999999999995" transform="translate(0,281.6092058281796)" style="font-family: sans-serif; font-size: 14px; fill: rgb(0, 0, 0); fill-opacity: 1; white-space: pre; opacity: 1;">0.00</text></g><g class="y2tick"><text text-anchor="end" x="89.02589676290464" y="4.8999999999999995" style="font-family: sans-serif; font-size: 14px; fill: rgb(0, 0, 0); fill-opacity: 1; white-space: pre; opacity: 1;" transform="translate(0,259.76920582817957)">0.05</text></g><g class="y2tick"><text text-anchor="end" x="89.02589676290464" y="4.8999999999999995" style="font-family: sans-serif; font-size: 14px; fill: rgb(0, 0, 0); fill-opacity: 1; white-space: pre; opacity: 1;" transform="translate(0,237.93920582817958)">0.10</text></g><g class="y2tick"><text text-anchor="end" x="89.02589676290464" y="4.8999999999999995" style="font-family: sans-serif; font-size: 14px; fill: rgb(0, 0, 0); fill-opacity: 1; white-space: pre; opacity: 1;" transform="translate(0,216.1092058281796)">0.15</text></g><g class="y2tick"><text text-anchor="end" x="89.02589676290464" y="4.8999999999999995" style="font-family: sans-serif; font-size: 14px; fill: rgb(0, 0, 0); fill-opacity: 1; white-space: pre; opacity: 1;" transform="translate(0,194.27920582817958)">0.20</text></g></g><g class="overaxes-above"/></g></g><g class="polarlayer"/><g class="ternarylayer"/><g class="geolayer"/><g class="funnelarealayer"/><g class="pielayer"/><g class="iciclelayer"/><g class="treemaplayer"/><g class="sunburstlayer"/><g class="glimages"/><defs id="topdefs-247a94"><g class="clips"/></defs><g class="layer-above"><g class="imagelayer"/><g class="shapelayer"/></g><g class="infolayer"><g class="g-gtitle"/><g class="g-xtitle"><text class="xtitle" x="404.4444444444444" y="339.4824400416999" text-anchor="middle" style="font-family: sans-serif; font-size: 15px; fill: rgb(0, 0, 0); opacity: 1; font-weight: normal; white-space: pre;">Timestamps of samples taken on 2022-10-27 every 2 minutes.</text></g><g class="g-ytitle"/><g class="g-y2title"/><g class="annotation" data-index="0" style="opacity: 1;"><g class="annotation-text-g" transform="rotate(0,404.44444444444446,30.000000000000018)"><g class="cursor-pointer" transform="translate(126,20)"><rect class="bg" x="0.5" y="0.5" width="556" height="19" style="stroke-width: 1px; stroke: rgb(0, 0, 0); stroke-opacity: 0; fill: rgb(0, 0, 0); fill-opacity: 0;"/><text class="annotation-text" text-anchor="middle" x="278.5888671875" y="14.7314453125" style="font-family: sans-serif; font-size: 14px; fill: rgb(0, 0, 0); fill-opacity: 1; white-space: pre;">The write counter (number of accumulated operations) from compute nodes to each OST.</text></g></g></g><g class="annotation" data-index="1" style="opacity: 1;"><g class="annotation-text-g" transform="rotate(0,404.44444444444446,176.95396426115326)"><g class="cursor-pointer" transform="translate(175,167)"><rect class="bg" x="0.5" y="0.5" width="457" height="19" style="stroke-width: 1px; stroke: rgb(0, 0, 0); stroke-opacity: 0; fill: rgb(0, 0, 0); fill-opacity: 0;"/><text class="annotation-text" text-anchor="middle" x="228.79296875" y="14.7314453125" style="font-family: sans-serif; font-size: 14px; fill: rgb(0, 0, 0); fill-opacity: 1; white-space: pre;">The write rate (operations per second) from compute nodes to each OST.</text></g></g></g></g></svg>