<svg class="main-svg" xmlns="http://www.w3.org/2000/svg" xmlns:xlink="http://www.w3.org/1999/xlink" width="720" height="400" style=""><rect x="0" y="0" width="720" height="400" style="fill: rgb(255, 255, 255); fill-opacity: 1;"/><defs id="defs-813b82"><g class="clips"><clipPath id="clip813b82xyplot" class="plotclip"><rect width="676.5704286964129" height="117.30736545432843"/></clipPath><clipPath id="clip813b82xy2plot" class="plotclip"><rect width="676.5704286964129" height="117.30736545432843"/></clipPath><clipPath class="axesclip" id="clip813b82x"><rect x="39.4925634295713" y="0" width="676.5704286964129" height="400"/></clipPath><clipPath class="axesclip" id="clip813b82y"><rect x="0" y="41.043307086614185" width="720" height="117.30736545432843"/></clipPath><clipPath class="axesclip" id="clip813b82xy"><rect x="39.4925634295713" y="41.043307086614185" width="676.5704286964129" height="117.30736545432843"/></clipPath><clipPath class="axesclip" id="clip813b82y2"><rect x="0" y="192.93728671417094" width="720" height="117.30736545432843"/></clipPath><clipPath class="axesclip" id="clip813b82xy2"><rect x="39.4925634295713" y="192.93728671417094" width="676.5704286964129" height="117.30736545432843"/></clipPath></g><g class="gradients"/><g class="patterns"/></defs><g class="bglayer"/><g class="layer-below"><g class="imagelayer"/><g class="shapelayer"/></g><g class="cartesianlayer"><g class="subplot xy"><g class="layer-subplot"><g class="shapelayer"/><g class="imagelayer"/></g><g class="gridlayer"><g class="x"><path class="xgrid crisp" transform="translate(58.6425634295713,0)" d="M0,41.043307086614185v117.30736545432843" style="stroke: rgb(0, 0, 0); stroke-opacity: 0.1; stroke-width: 0.5px;"/><path class="xgrid crisp" transform="translate(85.2325634295713,0)" d="M0,41.043307086614185v117.30736545432843" style="stroke: rgb(0, 0, 0); stroke-opacity: 0.1; stroke-width: 0.5px;"/><path class="xgrid crisp" transform="translate(111.83256342957131,0)" d="M0,41.043307086614185v117.30736545432843" style="stroke: rgb(0, 0, 0); stroke-opacity: 0.1; stroke-width: 0.5px;"/><path class="xgrid crisp" transform="translate(138.4225634295713,0)" d="M0,41.043307086614185v117.30736545432843" style="stroke: rgb(0, 0, 0); stroke-opacity: 0.1; stroke-width: 0.5px;"/><path class="xgrid crisp" transform="translate(165.0225634295713,0)" d="M0,41.043307086614185v117.30736545432843" style="stroke: rgb(0, 0, 0); stroke-opacity: 0.1; stroke-width: 0.5px;"/><path class="xgrid crisp" transform="translate(191.6125634295713,0)" d="M0,41.043307086614185v117.30736545432843" style="stroke: rgb(0, 0, 0); stroke-opacity: 0.1; stroke-width: 0.5px;"/><path class="xgrid crisp" transform="translate(218.2125634295713,0)" d="M0,41.043307086614185v117.30736545432843" style="stroke: rgb(0, 0, 0); stroke-opacity: 0.1; stroke-width: 0.5px;"/><path class="xgrid crisp" transform="translate(244.8025634295713,0)" d="M0,41.043307086614185v117.30736545432843" style="stroke: rgb(0, 0, 0); stroke-opacity: 0.1; stroke-width: 0.5px;"/><path class="xgrid crisp" transform="translate(271.4025634295713,0)" d="M0,41.043307086614185v117.30736545432843" style="stroke: rgb(0, 0, 0); stroke-opacity: 0.1; stroke-width: 0.5px;"/><path class="xgrid crisp" transform="translate(297.9925634295713,0)" d="M0,41.043307086614185v117.30736545432843" style="stroke: rgb(0, 0, 0); stroke-opacity: 0.1; stroke-width: 0.5px;"/><path class="xgrid crisp" transform="translate(324.5925634295713,0)" d="M0,41.043307086614185v117.30736545432843" style="stroke: rgb(0, 0, 0); stroke-opacity: 0.1; stroke-width: 0.5px;"/><path class="xgrid crisp" transform="translate(351.1825634295713,0)" d="M0,41.043307086614185v117.30736545432843" style="stroke: rgb(0, 0, 0); stroke-opacity: 0.1; stroke-width: 0.5px;"/><path class="xgrid crisp" transform="translate(377.7825634295713,0)" d="M0,41.043307086614185v117.30736545432843" style="stroke: rgb(0, 0, 0); stroke-opacity: 0.1; stroke-width: 0.5px;"/><path class="xgrid crisp" transform="translate(404.3725634295713,0)" d="M0,41.043307086614185v117.30736545432843" style="stroke: rgb(0, 0, 0); stroke-opacity: 0.1; stroke-width: 0.5px;"/><path class="xgrid crisp" transform="translate(430.96256342957133,0)" d="M0,41.043307086614185v117.30736545432843" style="stroke: rgb(0, 0, 0); stroke-opacity: 0.1; stroke-width: 0.5px;"/><path class="xgrid crisp" transform="translate(457.5625634295713,0)" d="M0,41.043307086614185v117.30736545432843" style="stroke: rgb(0, 0, 0); stroke-opacity: 0.1; stroke-width: 0.5px;"/><path class="xgrid crisp" transform="translate(484.15256342957133,0)" d="M0,41.043307086614185v117.30736545432843" style="stroke: rgb(0, 0, 0); stroke-opacity: 0.1; stroke-width: 0.5px;"/><path class="xgrid crisp" transform="translate(510.7525634295713,0)" d="M0,41.043307086614185v117.30736545432843" style="stroke: rgb(0, 0, 0); stroke-opacity: 0.1; stroke-width: 0.5px;"/><path class="xgrid crisp" transform="translate(537.3425634295713,0)" d="M0,41.043307086614185v117.30736545432843" style="stroke: rgb(0, 0, 0); stroke-opacity: 0.1; stroke-width: 0.5px;"/><path class="xgrid crisp" transform="translate(563.9425634295714,0)" d="M0,41.043307086614185v117.30736545432843" style="stroke: rgb(0, 0, 0); stroke-opacity: 0.1; stroke-width: 0.5px;"/><path class="xgrid crisp" transform="translate(590.5325634295713,0)" d="M0,41.043307086614185v117.30736545432843" style="stroke: rgb(0, 0, 0); stroke-opacity: 0.1; stroke-width: 0.5px;"/><path class="xgrid crisp" transform="translate(617.1325634295713,0)" d="M0,41.043307086614185v117.30736545432843" style="stroke: rgb(0, 0, 0); stroke-opacity: 0.1; stroke-width: 0.5px;"/><path class="xgrid crisp" transform="translate(643.7225634295713,0)" d="M0,41.043307086614185v117.30736545432843" style="stroke: rgb(0, 0, 0); stroke-opacity: 0.1; stroke-width: 0.5px;"/><path class="xgrid crisp" transform="translate(670.3225634295713,0)" d="M0,41.043307086614185v117.30736545432843" style="stroke: rgb(0, 0, 0); stroke-opacity: 0.1; stroke-width: 0.5px;"/><path class="xgrid crisp" transform="translate(696.9125634295713,0)" d="M0,41.043307086614185v117.30736545432843" style="stroke: rgb(0, 0, 0); stroke-opacity: 0.1; stroke-width: 0.5px;"/></g><g class="y"><path class="ygrid crisp" transform="translate(0,155.03330708661417)" d="M39.4925634295713,0h676.5704286964129" style="stroke: rgb(0, 0, 0); stroke-opacity: 0.1; stroke-width: 0.5px;"/><path class="ygrid crisp" transform="translate(0,133.33330708661418)" d="M39.4925634295713,0h676.5704286964129" style="stroke: rgb(0, 0, 0); stroke-opacity: 0.1; stroke-width: 0.5px;"/><path class="ygrid crisp" transform="translate(0,111.6333070866142)" d="M39.4925634295713,0h676.5704286964129" style="stroke: rgb(0, 0, 0); stroke-opacity: 0.1; stroke-width: 0.5px;"/><path class="ygrid crisp" transform="translate(0,89.93330708661418)" d="M39.4925634295713,0h676.5704286964129" style="stroke: rgb(0, 0, 0); stroke-opacity: 0.1; stroke-width: 0.5px;"/><path class="ygrid crisp" transform="translate(0,68.23330708661419)" d="M39.4925634295713,0h676.5704286964129" style="stroke: rgb(0, 0, 0); stroke-opacity: 0.1; stroke-width: 0.5px;"/><path class="ygrid crisp" transform="translate(0,46.53330708661419)" d="M39.4925634295713,0h676.5704286964129" style="stroke: rgb(0, 0, 0); stroke-opacity: 0.1; stroke-width: 0.5px;"/></g></g><g class="zerolinelayer"/><path class="xlines-below"/><path class="ylines-below"/><g class="overlines-below"/><g class="xaxislayer-below"/><g class="yaxislayer-below"/><g class="overaxes-below"/><g class="plot" transform="translate(39.4925634295713,41.043307086614185)" clip-path="url(#clip813b82xyplot)"><g class="scatterlayer mlayer"><g class="trace scatter traceb61ba8" style="stroke-miterlimit: 2; opacity: 1;"><g class="fills"/><g class="errorbars"/><g class="lines"><path class="js-line" d="M19.25,113.99L652.07,113.55L652.07,112.47L657.02,112.47" style="vector-effect: non-scaling-stroke; fill: none; stroke: rgb(0, 154, 250); stroke-opacity: 1; stroke-width: 1px; opacity: 1;"/></g><g class="points"/><g class="text"/></g><g class="trace scatter tracec6ac2b" style="stroke-miterlimit: 2; opacity: 1;"><g class="fills"/><g class="errorbars"/><g class="lines"><path class="js-line" d="M19.25,113.99L72.27,113.34L72.27,112.47L93.13,112.47L93.13,113.99L161.75,113.99L161.75,113.12L173.16,112.9L173.16,113.99L382.45,113.77L382.45,112.9L402.91,112.9L402.91,113.99L468.58,113.34L468.58,110.3L469.47,110.3L469.47,109.43L470.9,109.43L470.9,108.56L475.29,108.56L475.29,113.99L556.21,113.77L556.21,113.12L565.74,113.12L565.74,113.99L650.65,113.99L650.65,112.69L657.02,112.69" style="vector-effect: non-scaling-stroke; fill: none; stroke: rgb(227, 111, 71); stroke-opacity: 1; stroke-width: 1px; opacity: 1;"/></g><g class="points"/><g class="text"/></g><g class="trace scatter trace3dcf2d" style="stroke-miterlimit: 2; opacity: 1;"><g class="fills"/><g class="errorbars"/><g class="lines"><path class="js-line" d="M19.25,113.99L72.27,113.34L72.27,112.47L77.97,112.47L77.97,110.73L83.99,110.73L83.99,113.99L163.47,113.55L163.47,112.69L179.32,112.69L179.32,113.99L227.24,113.99L227.24,112.9L238.46,112.69L238.46,113.99L296.41,113.99L296.41,113.12L299.09,112.69L299.09,112.25L301.9,111.6L301.9,110.73L307.58,110.08L307.58,113.99L467.24,113.99L467.24,112.47L472.09,112.25L472.09,111.17L482.74,110.52L482.74,113.99L646.77,113.34L646.77,112.9L647.64,112.9L647.64,110.73L657.02,110.73" style="vector-effect: non-scaling-stroke; fill: none; stroke: rgb(62, 164, 78); stroke-opacity: 1; stroke-width: 1px; opacity: 1;"/></g><g class="points"/><g class="text"/></g><g class="trace scatter trace887410" style="stroke-miterlimit: 2; opacity: 1;"><g class="fills"/><g class="errorbars"/><g class="lines"><path class="js-line" d="M19.25,111.82L30.89,111.82L30.89,113.99L76.77,113.77L76.77,111.82L86.34,111.82L86.34,113.99L162.69,113.99L162.69,113.12L164.52,112.69L164.52,112.25L166.3,112.03L166.3,111.38L169.87,111.38L169.87,113.99L645.77,113.99L645.77,113.12L652.07,112.69L652.07,111.6L657.02,111.6" style="vector-effect: non-scaling-stroke; fill: none; stroke: rgb(195, 113, 210); stroke-opacity: 1; stroke-width: 1px; opacity: 1;"/></g><g class="points"/><g class="text"/></g><g class="trace scatter trace1655b3" style="stroke-miterlimit: 2; opacity: 1;"><g class="fills"/><g class="errorbars"/><g class="lines"><path class="js-line" d="M19.26,113.99L77.64,113.34L77.64,112.25L116.02,112.25L116.02,113.99L167.09,113.55L167.09,113.12L173.16,113.12L173.16,113.99L380.64,113.55L380.64,113.12L386.95,113.12L386.95,113.99L470.35,113.34L470.35,112.25L482.73,112.25L482.73,113.99L561.59,113.55L561.59,112.9L565.76,112.9L565.76,113.99L646.77,113.34L646.77,113.12L655.09,113.12" style="vector-effect: non-scaling-stroke; fill: none; stroke: rgb(172, 142, 24); stroke-opacity: 1; stroke-width: 1px; opacity: 1;"/></g><g class="points"/><g class="text"/></g><g class="trace scatter trace3e8e83" style="stroke-miterlimit: 2; opacity: 1;"><g class="fills"/><g class="errorbars"/><g class="lines"><path class="js-line" d="M19.92,113.99L76.67,113.99L76.67,111.17L86.33,110.73L86.33,113.99L233.64,113.55L233.64,112.9L238.44,112.9L238.44,113.99L464.18,113.34L464.18,113.12L470.34,112.47L470.34,111.38L470.99,111.38L470.99,110.3L482.73,110.3L482.73,113.99L637.53,113.34L637.53,113.12L643.19,112.47L643.19,112.25L650.02,112.25L650.02,110.95L657.01,110.52" style="vector-effect: non-scaling-stroke; fill: none; stroke: rgb(0, 170, 174); stroke-opacity: 1; stroke-width: 1px; opacity: 1;"/></g><g class="points"/><g class="text"/></g><g class="trace scatter trace7144e2" style="stroke-miterlimit: 2; opacity: 1;"><g class="fills"/><g class="errorbars"/><g class="lines"><path class="js-line" d="M19.92,113.99L80.12,113.99L80.12,112.69L81.18,112.69L81.18,110.73L86.33,110.73L86.33,113.99L382.47,113.34L382.47,112.69L402.91,112.69L402.91,113.99L559.52,113.34L559.52,112.9L560.77,112.9L560.77,109.86L565.74,109.86L565.74,113.99L657.02,113.99" style="vector-effect: non-scaling-stroke; fill: none; stroke: rgb(237, 94, 147); stroke-opacity: 1; stroke-width: 1px; opacity: 1;"/></g><g class="points"/><g class="text"/></g><g class="trace scatter trace3cc6d4" style="stroke-miterlimit: 2; opacity: 1;"><g class="fills"/><g class="errorbars"/><g class="lines"><path class="js-line" d="M19.92,72.32L20.63,70.37L21.69,70.37L21.69,67.98L22.64,67.98L22.64,65.81L23.51,65.81L23.51,64.3L24.42,64.3L24.42,62.56L25.21,62.56L25.21,61.26L26.2,61.26L26.2,60.82L26.99,60.82L26.99,60.17L27.78,60.17L27.78,59.52L30.96,59.52L30.96,113.77L45.2,113.77L68.49,113.12L68.49,112.9L72.23,112.25L72.23,111.82L73.11,111.82L73.11,110.95L74.81,110.52L74.81,109.21L75.83,109.21L75.83,107.48L76.73,107.48L76.73,104.87L77.62,104.87L77.62,102.7L78.44,102.7L78.44,99.67L79.4,99.67L79.4,96.19L80.32,96.19L80.32,90.99L81.14,90.99L81.14,89.03L81.98,89.03L81.98,87.3L82.97,87.3L82.97,86L83.72,86L83.72,84.91L85.24,84.26L85.24,83.39L87.16,82.96L87.16,82.52L91.09,81.87L91.09,81.44L95.45,81L95.45,80.57L103.15,79.92L103.15,79.7L105.78,79.05L105.78,78.18L106.82,78.18L106.82,77.32L107.57,77.32L107.57,76.01L108.63,76.01L108.63,74.93L109.51,74.93L109.51,72.76L110.33,72.76L110.33,70.81L111.34,70.81L111.34,68.2L112.14,68.2L112.14,65.16L113.04,65.16L113.04,62.56L114,62.56L114,59.52L114.79,59.52L114.79,56.92L115.75,56.92L115.75,54.75L116.57,54.75L116.57,53.23L117.41,53.23L117.41,52.36L121.34,51.93L121.34,51.49L131.03,51.28L131.03,113.77L145.03,113.12L145.03,112.69L145.1,112.25L148.08,112.25L148.08,111.82L151.42,111.82L151.42,111.38L154.26,111.38L154.26,111.17L156.12,111.17L158.65,110.52L158.65,109.65L160.66,109L160.66,108.35L161.7,108.35L161.7,107.48L162.63,107.48L162.63,106.61L164.29,105.96L164.29,105.09L165.31,105.09L165.31,104.22L166.3,104.22L166.3,103.35L167.13,103.35L167.13,102.49L168,102.49L168,100.75L168.94,100.75L168.94,99.88L169.73,99.88L169.73,98.8L170.53,98.8L170.53,97.93L172.16,97.28L172.16,96.84L174.85,96.19L174.85,95.98L177.5,95.54L177.5,95.11L183.25,94.46L183.25,94.24L187.63,93.81L187.63,93.37L190.17,92.94L190.17,92.5L190.93,92.5L190.93,91.64L192.89,90.99L192.89,90.33L194.59,89.68L194.59,88.82L195.46,88.82L195.46,87.95L197.21,87.3L197.21,86.86L202.61,86.21L202.61,86L205.22,85.34L205.22,84.91L208.78,84.26L208.78,84.04L212.98,83.39L212.98,83.17L215.93,82.52L215.93,82.31L218.5,81.66L218.5,81.44L224.78,80.79L224.78,80.35L227.28,79.7L227.28,78.62L228.3,78.62L228.3,77.53L229.13,77.53L229.13,76.45L230.04,76.45L230.04,74.71L231.02,74.71L231.02,73.84L231.71,73.84L231.71,72.98L232.79,72.98L232.79,71.46L233.64,71.46L233.64,70.59L234.4,70.59L234.4,69.29L235.42,69.29L235.42,68.2L236.32,68.2L236.32,67.33L238.04,66.68L238.04,66.47L241.18,65.81L241.18,65.6L247.87,64.95L247.87,64.73L252.98,64.08L252.98,63.64L254.9,62.99L254.9,62.34L255.74,62.34L255.74,61.04L258.42,60.39L258.42,59.96L262.28,59.3L262.28,58.87L266.41,58.22L266.41,58L270.38,57.35L270.38,57.13L273.18,56.7L273.18,56.27L275.18,55.83L275.18,55.4L276.97,54.96L276.97,53.66L277.99,53.66L277.99,51.71L278.82,51.71L278.82,49.97L279.73,49.97L279.73,48.67L280.56,48.67L280.56,47.59L281.54,47.59L281.54,46.5L283.47,45.85L283.47,45.63L286.8,44.98L286.8,44.77L286.88,44.33L289.26,44.33L289.26,44.12L291.3,44.12L291.3,43.9L292.93,43.9L295.46,43.25L295.46,42.6L297.47,41.95L297.47,41.29L299.13,40.64L299.13,39.78L300.76,39.12L300.76,38.26L301.87,38.26L301.87,37.17L302.69,37.17L302.69,36.3L304.5,35.65L304.5,35L306.2,34.35L306.2,33.7L309.27,33.05L309.27,32.83L315.1,32.18L315.1,31.96L319.48,31.31L319.48,31.1L334.72,30.44L334.72,30.01L344.41,29.36L344.41,29.14L349.32,28.49L349.32,26.32L350.64,26.32L350.64,24.8L351.55,24.8L351.55,23.28L353.22,22.63L353.22,21.76L354.88,21.11L354.88,20.25L356.85,19.59L356.85,19.16L358.44,18.51L358.44,17.86L361.61,17.21L361.61,16.99L369.45,16.34L369.45,16.12L373.23,15.69L373.23,15.25L374.44,15.25L374.44,14.39L375.5,14.39L375.5,13.08L377.05,12.65L377.05,11.78L379.04,11.13L379.04,10.48L380.56,9.83L380.56,8.96L382.57,8.31L382.57,7.66L384.35,7.01L384.35,6.36L386.04,5.92L386.04,5.49L388.47,4.84L388.47,4.62L394.07,3.97L394.07,3.75L403.13,3.32L403.13,113.77L435.41,113.34L435.41,112.9L441.92,112.25L441.92,111.38L442.86,111.38L442.86,109.86L443.62,109.86L443.62,108.13L444.61,108.13L444.61,105.52L445.52,105.52L445.52,103.14L446.43,103.14L446.43,100.1L447.29,100.1L447.29,96.41L448.21,96.41L448.21,93.59L449.04,93.59L449.04,91.64L449.91,91.64L449.91,89.47L450.82,89.47L450.82,88.6L451.5,88.6L451.5,87.3L453.99,86.65L453.99,86.21L456.57,85.78L456.57,85.34L463.69,84.69L463.69,84.48L465.69,84.04L465.69,82.74L466.75,82.74L466.75,81.44L467.58,81.44L467.58,79.7L468.59,79.7L468.59,77.75L469.47,77.75L469.47,74.93L470.34,74.93L470.34,73.19L471.18,73.19L471.18,71.89L472.09,71.89L472.09,69.29L473.03,69.29L473.03,66.68L473.9,66.68L473.9,65.16L474.63,65.16L474.63,64.3L476.28,63.64L476.28,62.99L478.68,62.34L478.68,61.91L483.86,61.26L483.86,113.77L527.62,113.12L527.62,112.69L529.7,112.25L529.7,111.6L531.26,110.95L531.26,109.86L532.29,109.86L532.29,109L533.23,109L533.23,107.69L534.14,107.69L534.14,106.83L534.97,106.83L534.97,105.52L536.64,104.87L536.64,103.57L537.68,103.57L537.68,102.7L539.27,102.05L539.27,100.97L540.32,100.97L540.32,100.1L542.63,99.67L542.63,99.23L549.94,98.58L549.94,98.36L553.38,97.93L553.38,97.5L555.34,96.84L555.34,96.19L556.33,96.19L556.33,95.33L557.23,95.33L557.23,94.46L558.11,94.46L558.11,93.59L558.98,93.59L558.98,92.5L559.85,92.5L559.85,90.77L560.77,90.77L560.77,88.82L561.59,88.82L561.59,87.3L563.19,86.86L563.19,85.56L564.89,85.13L564.89,84.69L568.11,84.04L568.11,83.83L568.94,83.83L568.94,113.99L616.3,113.34L616.3,113.12L619.79,112.69L619.79,112.25L621.87,111.82L621.87,111.17L623.61,110.52L623.61,109.86L625.27,109.21L625.27,108.35L627.13,107.69L627.13,107.04L628.83,106.39L628.83,105.31L630.68,104.87L630.68,103.57L632.12,103.35L632.12,102.7L636.28,102.05L636.28,101.84L643.4,101.18L643.4,100.75L645.79,100.1L645.79,99.01L646.54,99.01L646.54,98.15L647.64,98.15L647.64,96.84L648.44,96.84L648.44,95.54L649.42,95.54L649.42,93.59L650.29,93.59L650.29,92.29L651.09,92.29L651.09,90.77L652.07,90.77L652.07,89.25L652.86,89.25L652.86,87.73L653.7,87.73L653.7,86.43L655.41,85.78L655.41,84.91L657.07,84.26" style="vector-effect: non-scaling-stroke; fill: none; stroke: rgb(198, 130, 37); stroke-opacity: 1; stroke-width: 1px; opacity: 1;"/></g><g class="points"/><g class="text"/></g><g class="trace scatter traceac1f52" style="stroke-miterlimit: 2; opacity: 1;"><g class="fills"/><g class="errorbars"/><g class="lines"><path class="js-line" d="M19.92,113.99L79.41,113.99L79.41,110.08L93.12,110.08L93.12,113.99L231.66,113.55L231.66,112.9L232.76,112.9L232.76,111.6L238.47,111.6L238.47,113.99L297.45,113.99L297.45,112.69L305.7,112.69L305.7,113.99L472.08,113.99L472.08,111.17L482.72,111.17L482.72,113.99L657.02,113.99" style="vector-effect: non-scaling-stroke; fill: none; stroke: rgb(0, 169, 141); stroke-opacity: 1; stroke-width: 1px; opacity: 1;"/></g><g class="points"/><g class="text"/></g><g class="trace scatter tracebd517b" style="stroke-miterlimit: 2; opacity: 1;"><g class="fills"/><g class="errorbars"/><g class="lines"><path class="js-line" d="M19.93,113.99L74.5,113.55L74.5,112.9L84.01,112.9L84.01,113.99L165.31,113.55L165.31,112.69L177.45,112.69L177.45,113.99L232.16,113.99L232.16,112.9L238.46,112.9L238.46,113.99L467.96,113.99L467.96,112.25L477.19,112.03L477.19,113.99L649.43,113.99L649.43,113.12L650.33,113.12L650.33,111.82L657.02,111.82" style="vector-effect: non-scaling-stroke; fill: none; stroke: rgb(142, 151, 30); stroke-opacity: 1; stroke-width: 1px; opacity: 1;"/></g><g class="points"/><g class="text"/></g><g class="trace scatter trace7ebd3c" style="stroke-miterlimit: 2; opacity: 1;"><g class="fills"/><g class="errorbars"/><g class="lines"><path class="js-line" d="M19.93,113.99L77.96,113.99L77.96,112.03L86.33,112.03L86.33,113.99L159.94,113.34L159.94,112.9L163.47,112.9L163.47,112.03L171.05,112.03L171.05,113.99L298.87,113.34L298.87,112.69L307.6,112.03L307.6,113.99L451.58,113.77L451.58,113.12L477.19,112.9L477.19,113.99L645.77,113.99L645.77,113.12L650.29,112.47L650.29,110.95L650.71,110.95L650.71,109.65L654.02,109.65" style="vector-effect: non-scaling-stroke; fill: none; stroke: rgb(0, 169, 204); stroke-opacity: 1; stroke-width: 1px; opacity: 1;"/></g><g class="points"/><g class="text"/></g><g class="trace scatter trace79d40e" style="stroke-miterlimit: 2; opacity: 1;"><g class="fills"/><g class="errorbars"/><g class="lines"><path class="js-line" d="M19.93,113.99L167.92,113.55L167.92,113.12L202.62,113.12L202.62,113.99L300.64,113.55L300.64,112.9L305.68,112.9L305.68,113.99L375.31,113.55L375.31,113.12L391.93,112.47L391.93,113.99L550.88,113.55L550.88,113.12L555.08,112.69L555.08,112.03L559.54,111.82L559.54,110.52L565.74,110.52L565.74,113.99L651.93,113.99L651.93,113.12L657.02,112.47" style="vector-effect: non-scaling-stroke; fill: none; stroke: rgb(155, 127, 233); stroke-opacity: 1; stroke-width: 1px; opacity: 1;"/></g><g class="points"/><g class="text"/></g><g class="trace scatter trace057f62" style="stroke-miterlimit: 2; opacity: 1;"><g class="fills"/><g class="errorbars"/><g class="lines"><path class="js-line" d="M19.93,113.99L75.23,113.99L75.23,111.82L82.7,111.82L82.7,113.99L380.5,113.34L380.5,112.9L402.89,112.69L402.89,113.99L556.21,113.77L556.21,113.12L558.99,113.12L558.99,112.25L559.89,112.25L559.89,111.38L565.74,111.38L565.74,113.99L631.66,113.34L631.66,112.69L639.15,112.03L639.15,111.82L643.2,111.38L643.2,110.95L644.53,110.52L644.53,110.08L647.64,109.86L647.64,107.69L657.02,107.69" style="vector-effect: non-scaling-stroke; fill: none; stroke: rgb(97, 141, 246); stroke-opacity: 1; stroke-width: 1px; opacity: 1;"/></g><g class="points"/><g class="text"/></g><g class="trace scatter trace04eadb" style="stroke-miterlimit: 2; opacity: 1;"><g class="fills"/><g class="errorbars"/><g class="lines"><path class="js-line" d="M19.93,113.99L73.14,113.77L73.14,112.9L86.34,112.69L86.34,113.99L161.75,113.77L161.75,112.9L179.3,112.69L179.3,113.99L299.09,113.55L299.09,113.12L301.9,112.47L301.9,111.82L307.6,111.82L307.6,113.99L472.09,113.55L472.09,112.69L483.77,112.25L483.77,113.99L558.45,113.34L558.45,112.47L559.89,112.47L559.89,110.3L565.76,110.3L565.76,113.99L657.02,113.99" style="vector-effect: non-scaling-stroke; fill: none; stroke: rgb(240, 96, 115); stroke-opacity: 1; stroke-width: 1px; opacity: 1;"/></g><g class="points"/><g class="text"/></g><g class="trace scatter traceacdda8" style="stroke-miterlimit: 2; opacity: 1;"><g class="fills"/><g class="errorbars"/><g class="lines"><path class="js-line" d="M19.94,113.99L227.24,113.99L227.24,112.9L230.04,112.47L230.04,111.6L238.44,111.6L238.44,113.99L550.88,113.55L550.88,113.12L556.67,113.12L556.67,112.25L565.76,111.6L565.76,113.99L649.43,113.99L649.43,112.69L657.01,112.25" style="vector-effect: non-scaling-stroke; fill: none; stroke: rgb(221, 101, 182); stroke-opacity: 1; stroke-width: 1px; opacity: 1;"/></g><g class="points"/><g class="text"/></g><g class="trace scatter traceda77fe" style="stroke-miterlimit: 2; opacity: 1;"><g class="fills"/><g class="errorbars"/><g class="lines"><path class="js-line" d="M19.94,113.99L74.21,113.99L74.21,112.47L86.34,112.25L86.34,113.99L230.48,113.55L230.48,111.82L243.93,111.82L243.93,113.99L467.95,113.99L467.95,111.82L469.25,111.82L469.25,110.08L471.18,109.43L471.18,109L477.21,109L477.21,113.99L556.68,113.99L556.68,113.12L565.76,113.12L565.76,113.99L657.01,113.99" style="vector-effect: non-scaling-stroke; fill: none; stroke: rgb(108, 159, 51); stroke-opacity: 1; stroke-width: 1px; opacity: 1;"/></g><g class="points"/><g class="text"/></g><g class="trace scatter trace7bbd20" style="stroke-miterlimit: 2; opacity: 1;"><g class="fills"/><g class="errorbars"/><g class="lines"><path class="js-line" d="M19.94,113.99L74.2,113.99L74.2,112.47L84,112.25L84,113.99L167.09,113.55L167.09,113.12L173.16,113.12L173.16,113.99L227.47,113.55L227.47,111.82L233.64,111.17L233.64,110.52L243.92,110.52L243.92,113.99L631.66,113.34L631.66,112.69L634.65,112.47L634.65,113.99L644.53,113.34L644.53,112.9L649.42,112.9L649.42,111.38L655.1,111.38" style="vector-effect: non-scaling-stroke; fill: none; stroke: rgb(0, 154, 250); stroke-opacity: 1; stroke-width: 1px; opacity: 1;"/></g><g class="points"/><g class="text"/></g><g class="trace scatter trace8db353" style="stroke-miterlimit: 2; opacity: 1;"><g class="fills"/><g class="errorbars"/><g class="lines"><path class="js-line" d="M19.94,113.99L79.41,113.77L79.41,109.86L80.12,109.86L80.12,108.56L81.18,108.56L81.18,106.61L86.34,106.61L86.34,113.99L232.76,113.34L232.76,113.12L238.46,113.12L238.46,113.99L296.41,113.99L296.41,113.12L313.03,113.12L313.03,113.99L472.09,113.77L472.09,111.17L477.21,111.17L477.21,113.99L649.43,113.99L649.43,112.47L657.02,112.47" style="vector-effect: non-scaling-stroke; fill: none; stroke: rgb(227, 111, 71); stroke-opacity: 1; stroke-width: 1px; opacity: 1;"/></g><g class="points"/><g class="text"/></g><g class="trace scatter trace1d5c60" style="stroke-miterlimit: 2; opacity: 1;"><g class="fills"/><g class="errorbars"/><g class="lines"><path class="js-line" d="M19.94,113.99L77.32,113.99L77.32,111.38L89.38,110.73L89.38,113.99L227.47,113.55L227.47,111.82L229.23,111.6L229.23,110.73L229.89,110.73L229.89,109.86L236.55,109.43L236.55,113.99L451.93,113.34L451.93,113.12L455.1,113.12L455.1,113.99L557.91,113.99L557.91,112.69L565.76,112.69L565.76,113.99L657.02,113.99" style="vector-effect: non-scaling-stroke; fill: none; stroke: rgb(62, 164, 78); stroke-opacity: 1; stroke-width: 1px; opacity: 1;"/></g><g class="points"/><g class="text"/></g><g class="trace scatter trace982fc6" style="stroke-miterlimit: 2; opacity: 1;"><g class="fills"/><g class="errorbars"/><g class="lines"><path class="js-line" d="M19.94,113.99L73.14,113.77L73.14,112.9L76.77,112.47L76.77,110.52L86.34,110.52L86.34,113.99L298.87,113.34L298.87,112.69L307.6,112.03L307.6,113.99L648.48,113.34L648.48,112.47L657,112.47" style="vector-effect: non-scaling-stroke; fill: none; stroke: rgb(195, 113, 210); stroke-opacity: 1; stroke-width: 1px; opacity: 1;"/></g><g class="points"/><g class="text"/></g><g class="trace scatter trace235ea4" style="stroke-miterlimit: 2; opacity: 1;"><g class="fills"/><g class="errorbars"/><g class="lines"><path class="js-line" d="M19.95,113.99L167.92,113.55L167.92,112.9L173.16,112.9L173.16,113.99L229.23,113.99L229.23,112.9L230.04,112.9L230.04,112.03L243.93,112.03L243.93,113.99L469.47,113.34L469.47,112.47L482.73,112.47L482.73,113.99L654.01,113.99" style="vector-effect: non-scaling-stroke; fill: none; stroke: rgb(172, 142, 24); stroke-opacity: 1; stroke-width: 1px; opacity: 1;"/></g><g class="points"/><g class="text"/></g><g class="trace scatter trace8ec600" style="stroke-miterlimit: 2; opacity: 1;"><g class="fills"/><g class="errorbars"/><g class="lines"><path class="js-line" d="M19.95,113.99L162.69,113.99L162.69,113.12L173.15,113.12L173.15,113.99L302.69,113.77L302.69,113.12L313.03,113.12L313.03,113.99L466.18,113.99L466.18,112.47L477.21,112.25L477.21,113.99L556.02,113.34L556.02,112.69L558.99,112.03L558.99,111.17L563.85,111.17L563.85,113.99L648.26,113.99L648.26,111.82L651.91,111.38L651.91,110.52L657.02,110.08" style="vector-effect: non-scaling-stroke; fill: none; stroke: rgb(0, 170, 174); stroke-opacity: 1; stroke-width: 1px; opacity: 1;"/></g><g class="points"/><g class="text"/></g><g class="trace scatter tracec984e0" style="stroke-miterlimit: 2; opacity: 1;"><g class="fills"/><g class="errorbars"/><g class="lines"><path class="js-line" d="M19.95,113.99L166.3,113.77L166.3,113.12L168.68,112.47L168.68,112.25L173.15,112.25L173.15,113.99L229.88,113.99L229.88,113.12L231.71,112.47L231.71,112.03L238.45,112.03L238.45,113.99L470.34,113.34L470.34,112.9L477.2,112.47L477.2,113.99L655.09,113.99" style="vector-effect: non-scaling-stroke; fill: none; stroke: rgb(237, 94, 147); stroke-opacity: 1; stroke-width: 1px; opacity: 1;"/></g><g class="points"/><g class="text"/></g><g class="trace scatter trace2396bc" style="stroke-miterlimit: 2; opacity: 1;"><g class="fills"/><g class="errorbars"/><g class="lines"><path class="js-line" d="M19.96,113.99L75.07,113.99L75.07,111.38L77.6,110.73L77.6,109.65L79.4,109.65L79.4,108.56L80.32,108.56L80.32,105.52L93.11,105.52L93.11,113.99L379.85,113.34L379.85,113.12L483.79,112.47L483.79,113.99L648.48,113.34L648.48,112.47L657.04,112.47" style="vector-effect: non-scaling-stroke; fill: none; stroke: rgb(198, 130, 37); stroke-opacity: 1; stroke-width: 1px; opacity: 1;"/></g><g class="points"/><g class="text"/></g></g></g><g class="overplot"/><path class="xlines-above crisp" d="M0,0" style="fill: none;"/><path class="ylines-above crisp" d="M38.9925634295713,41.043307086614185V158.3506725409426" style="fill: none; stroke-width: 1px; stroke: rgb(0, 0, 0); stroke-opacity: 1;"/><g class="overlines-above"/><g class="xaxislayer-above"/><g class="yaxislayer-above"><path class="ytick ticks crisp" d="M39.4925634295713,0h5" transform="translate(0,155.03330708661417)" style="stroke: rgb(0, 0, 0); stroke-opacity: 1; stroke-width: 1px;"/><path class="ytick ticks crisp" d="M39.4925634295713,0h5" transform="translate(0,133.33330708661418)" style="stroke: rgb(0, 0, 0); stroke-opacity: 1; stroke-width: 1px;"/><path class="ytick ticks crisp" d="M39.4925634295713,0h5" transform="translate(0,111.6333070866142)" style="stroke: rgb(0, 0, 0); stroke-opacity: 1; stroke-width: 1px;"/><path class="ytick ticks crisp" d="M39.4925634295713,0h5" transform="translate(0,89.93330708661418)" style="stroke: rgb(0, 0, 0); stroke-opacity: 1; stroke-width: 1px;"/><path class="ytick ticks crisp" d="M39.4925634295713,0h5" transform="translate(0,68.23330708661419)" style="stroke: rgb(0, 0, 0); stroke-opacity: 1; stroke-width: 1px;"/><path class="ytick ticks crisp" d="M39.4925634295713,0h5" transform="translate(0,46.53330708661419)" style="stroke: rgb(0, 0, 0); stroke-opacity: 1; stroke-width: 1px;"/><g class="ytick"><text text-anchor="end" x="36.292563429571295" y="3.8499999999999996" transform="translate(0,155.03330708661417)" style="font-family: sans-serif; font-size: 11px; fill: rgb(0, 0, 0); fill-opacity: 1; white-space: pre; opacity: 1;">0</text></g><g class="ytick"><text text-anchor="end" x="36.292563429571295" y="3.8499999999999996" style="font-family: sans-serif; font-size: 11px; fill: rgb(0, 0, 0); fill-opacity: 1; white-space: pre; opacity: 1;" transform="translate(0,133.33330708661418)">100</text></g><g class="ytick"><text text-anchor="end" x="36.292563429571295" y="3.8499999999999996" style="font-family: sans-serif; font-size: 11px; fill: rgb(0, 0, 0); fill-opacity: 1; white-space: pre; opacity: 1;" transform="translate(0,111.6333070866142)">200</text></g><g class="ytick"><text text-anchor="end" x="36.292563429571295" y="3.8499999999999996" style="font-family: sans-serif; font-size: 11px; fill: rgb(0, 0, 0); fill-opacity: 1; white-space: pre; opacity: 1;" transform="translate(0,89.93330708661418)">300</text></g><g class="ytick"><text text-anchor="end" x="36.292563429571295" y="3.8499999999999996" style="font-family: sans-serif; font-size: 11px; fill: rgb(0, 0, 0); fill-opacity: 1; white-space: pre; opacity: 1;" transform="translate(0,68.23330708661419)">400</text></g><g class="ytick"><text text-anchor="end" x="36.292563429571295" y="3.8499999999999996" style="font-family: sans-serif; font-size: 11px; fill: rgb(0, 0, 0); fill-opacity: 1; white-space: pre; opacity: 1;" transform="translate(0,46.53330708661419)">500</text></g></g><g class="overaxes-above"/></g><g class="subplot xy2"><g class="layer-subplot"><g class="shapelayer"/><g class="imagelayer"/></g><g class="gridlayer"><g class="x"><path class="xgrid crisp" transform="translate(58.6425634295713,0)" d="M0,192.93728671417094v117.30736545432843" style="stroke: rgb(0, 0, 0); stroke-opacity: 0.1; stroke-width: 0.5px;"/><path class="xgrid crisp" transform="translate(85.2325634295713,0)" d="M0,192.93728671417094v117.30736545432843" style="stroke: rgb(0, 0, 0); stroke-opacity: 0.1; stroke-width: 0.5px;"/><path class="xgrid crisp" transform="translate(111.83256342957131,0)" d="M0,192.93728671417094v117.30736545432843" style="stroke: rgb(0, 0, 0); stroke-opacity: 0.1; stroke-width: 0.5px;"/><path class="xgrid crisp" transform="translate(138.4225634295713,0)" d="M0,192.93728671417094v117.30736545432843" style="stroke: rgb(0, 0, 0); stroke-opacity: 0.1; stroke-width: 0.5px;"/><path class="xgrid crisp" transform="translate(165.0225634295713,0)" d="M0,192.93728671417094v117.30736545432843" style="stroke: rgb(0, 0, 0); stroke-opacity: 0.1; stroke-width: 0.5px;"/><path class="xgrid crisp" transform="translate(191.6125634295713,0)" d="M0,192.93728671417094v117.30736545432843" style="stroke: rgb(0, 0, 0); stroke-opacity: 0.1; stroke-width: 0.5px;"/><path class="xgrid crisp" transform="translate(218.2125634295713,0)" d="M0,192.93728671417094v117.30736545432843" style="stroke: rgb(0, 0, 0); stroke-opacity: 0.1; stroke-width: 0.5px;"/><path class="xgrid crisp" transform="translate(244.8025634295713,0)" d="M0,192.93728671417094v117.30736545432843" style="stroke: rgb(0, 0, 0); stroke-opacity: 0.1; stroke-width: 0.5px;"/><path class="xgrid crisp" transform="translate(271.4025634295713,0)" d="M0,192.93728671417094v117.30736545432843" style="stroke: rgb(0, 0, 0); stroke-opacity: 0.1; stroke-width: 0.5px;"/><path class="xgrid crisp" transform="translate(297.9925634295713,0)" d="M0,192.93728671417094v117.30736545432843" style="stroke: rgb(0, 0, 0); stroke-opacity: 0.1; stroke-width: 0.5px;"/><path class="xgrid crisp" transform="translate(324.5925634295713,0)" d="M0,192.93728671417094v117.30736545432843" style="stroke: rgb(0, 0, 0); stroke-opacity: 0.1; stroke-width: 0.5px;"/><path class="xgrid crisp" transform="translate(351.1825634295713,0)" d="M0,192.93728671417094v117.30736545432843" style="stroke: rgb(0, 0, 0); stroke-opacity: 0.1; stroke-width: 0.5px;"/><path class="xgrid crisp" transform="translate(377.7825634295713,0)" d="M0,192.93728671417094v117.30736545432843" style="stroke: rgb(0, 0, 0); stroke-opacity: 0.1; stroke-width: 0.5px;"/><path class="xgrid crisp" transform="translate(404.3725634295713,0)" d="M0,192.93728671417094v117.30736545432843" style="stroke: rgb(0, 0, 0); stroke-opacity: 0.1; stroke-width: 0.5px;"/><path class="xgrid crisp" transform="translate(430.96256342957133,0)" d="M0,192.93728671417094v117.30736545432843" style="stroke: rgb(0, 0, 0); stroke-opacity: 0.1; stroke-width: 0.5px;"/><path class="xgrid crisp" transform="translate(457.5625634295713,0)" d="M0,192.93728671417094v117.30736545432843" style="stroke: rgb(0, 0, 0); stroke-opacity: 0.1; stroke-width: 0.5px;"/><path class="xgrid crisp" transform="translate(484.15256342957133,0)" d="M0,192.93728671417094v117.30736545432843" style="stroke: rgb(0, 0, 0); stroke-opacity: 0.1; stroke-width: 0.5px;"/><path class="xgrid crisp" transform="translate(510.7525634295713,0)" d="M0,192.93728671417094v117.30736545432843" style="stroke: rgb(0, 0, 0); stroke-opacity: 0.1; stroke-width: 0.5px;"/><path class="xgrid crisp" transform="translate(537.3425634295713,0)" d="M0,192.93728671417094v117.30736545432843" style="stroke: rgb(0, 0, 0); stroke-opacity: 0.1; stroke-width: 0.5px;"/><path class="xgrid crisp" transform="translate(563.9425634295714,0)" d="M0,192.93728671417094v117.30736545432843" style="stroke: rgb(0, 0, 0); stroke-opacity: 0.1; stroke-width: 0.5px;"/><path class="xgrid crisp" transform="translate(590.5325634295713,0)" d="M0,192.93728671417094v117.30736545432843" style="stroke: rgb(0, 0, 0); stroke-opacity: 0.1; stroke-width: 0.5px;"/><path class="xgrid crisp" transform="translate(617.1325634295713,0)" d="M0,192.93728671417094v117.30736545432843" style="stroke: rgb(0, 0, 0); stroke-opacity: 0.1; stroke-width: 0.5px;"/><path class="xgrid crisp" transform="translate(643.7225634295713,0)" d="M0,192.93728671417094v117.30736545432843" style="stroke: rgb(0, 0, 0); stroke-opacity: 0.1; stroke-width: 0.5px;"/><path class="xgrid crisp" transform="translate(670.3225634295713,0)" d="M0,192.93728671417094v117.30736545432843" style="stroke: rgb(0, 0, 0); stroke-opacity: 0.1; stroke-width: 0.5px;"/><path class="xgrid crisp" transform="translate(696.9125634295713,0)" d="M0,192.93728671417094v117.30736545432843" style="stroke: rgb(0, 0, 0); stroke-opacity: 0.1; stroke-width: 0.5px;"/></g><g class="y2"><path class="y2grid crisp" transform="translate(0,306.9272867141709)" d="M39.4925634295713,0h676.5704286964129" style="stroke: rgb(0, 0, 0); stroke-opacity: 0.1; stroke-width: 0.5px;"/><path class="y2grid crisp" transform="translate(0,279.97728671417093)" d="M39.4925634295713,0h676.5704286964129" style="stroke: rgb(0, 0, 0); stroke-opacity: 0.1; stroke-width: 0.5px;"/><path class="y2grid crisp" transform="translate(0,253.01728671417095)" d="M39.4925634295713,0h676.5704286964129" style="stroke: rgb(0, 0, 0); stroke-opacity: 0.1; stroke-width: 0.5px;"/><path class="y2grid crisp" transform="translate(0,226.06728671417093)" d="M39.4925634295713,0h676.5704286964129" style="stroke: rgb(0, 0, 0); stroke-opacity: 0.1; stroke-width: 0.5px;"/><path class="y2grid crisp" transform="translate(0,199.11728671417094)" d="M39.4925634295713,0h676.5704286964129" style="stroke: rgb(0, 0, 0); stroke-opacity: 0.1; stroke-width: 0.5px;"/></g></g><g class="zerolinelayer"/><path class="xlines-below"/><path class="ylines-below"/><g class="overlines-below"/><g class="xaxislayer-below"/><g class="yaxislayer-below"/><g class="overaxes-below"/><g class="plot" transform="translate(39.4925634295713,192.93728671417094)" clip-path="url(#clip813b82xy2plot)"><g class="scatterlayer mlayer"><g class="trace scatter trace926d34" style="stroke-miterlimit: 2; opacity: 1;"><g class="fills"/><g class="errorbars"/><g class="lines"><path class="js-line" d="M19.15,113.99L358.67,113.35L358.67,110.14L359.56,110.14L359.56,113.99L377.29,113.74L377.29,105.25L378.18,105.25L378.18,113.99L551.93,113.99L551.93,111.38L553.7,110.88L553.7,111.89L554.59,111.89L554.59,112.82L555.48,112.82L555.48,113.99L650.33,113.99L650.33,110.35L651.22,110.35L651.22,107.28L652.1,107.28L652.1,92.89L652.99,92.89L652.99,113.99L657.42,113.99L657.42,113.99" style="vector-effect: non-scaling-stroke; fill: none; stroke: rgb(0, 154, 250); stroke-opacity: 1; stroke-width: 1px; opacity: 1;"/></g><g class="points"/><g class="text"/></g><g class="trace scatter tracef04b81" style="stroke-miterlimit: 2; opacity: 1;"><g class="fills"/><g class="errorbars"/><g class="lines"><path class="js-line" d="M19.15,113.99L70.56,113.7L70.56,110.92L71.45,110.92L71.45,106.15L72.34,106.15L72.34,97.78L73.22,97.78L73.22,113.99L160.99,113.99L160.99,111.5L161.87,111.5L161.87,97.91L162.76,97.91L162.76,110.09L163.65,110.09L163.65,113.99L380.84,113.85L380.84,111.6L381.72,111.6L381.72,109.18L382.61,109.18L382.61,98.86L383.5,98.86L383.5,113.99L465.94,113.99L465.94,105.75L466.83,105.75L466.83,108.75L467.71,108.75L467.71,112.94L468.6,112.94L468.6,51.84L469.49,51.84L469.49,96.32L470.37,96.32L470.37,108.68L471.26,108.68L471.26,101.32L472.15,101.32L472.15,113.99L554.59,113.99L554.59,111.96L555.48,111.96L555.48,108.42L556.36,108.42L556.36,103.61L557.25,103.61L557.25,113.99L650.33,113.99L650.33,102.58L651.22,102.58L651.22,98.44L652.1,98.44L652.1,113.99L657.42,113.99L657.42,113.99" style="vector-effect: non-scaling-stroke; fill: none; stroke: rgb(227, 111, 71); stroke-opacity: 1; stroke-width: 1px; opacity: 1;"/></g><g class="points"/><g class="text"/></g><g class="trace scatter tracecfffa9" style="stroke-miterlimit: 2; opacity: 1;"><g class="fills"/><g class="errorbars"/><g class="lines"><path class="js-line" d="M19.15,113.99L69.68,113.99L69.68,111.13L70.56,111.13L70.56,109.45L71.45,109.45L71.45,106.15L72.34,106.15L72.34,97.78L73.22,97.78L73.22,113.99L77.66,113.99L77.66,99.31L78.54,99.31L78.54,92.73L79.43,92.73L79.43,113.99L157.44,113.81L157.44,112.88L160.99,112.53L160.99,109.97L161.87,109.97L161.87,113.99L162.76,113.99L162.76,110.1L163.65,110.1L163.65,99.9L164.53,99.9L164.53,113.99L226.59,113.99L226.59,111.28L227.47,111.28L227.47,103.82L229.25,104.08L229.25,109.83L230.13,109.83L230.13,113.99L295.73,113.99L295.73,110.49L296.62,110.49L296.62,99.52L297.51,99.52L297.51,111.62L298.39,111.62L298.39,105.6L299.28,105.6L299.28,104.16L300.17,104.16L300.17,103.12L301.05,103.12L301.05,113.14L301.94,113.14L301.94,93.92L302.83,93.92L302.83,103.45L303.71,103.45L303.71,113.99L375.52,113.99L375.52,111.72L376.4,111.72L376.4,107.27L377.29,107.27L377.29,113.99L466.83,113.99L466.83,102.99L467.71,102.99L467.71,93.49L468.6,93.49L468.6,109.55L469.49,109.55L469.49,113.99L471.26,113.99L471.26,112.7L472.15,112.7L472.15,91.65L473.03,91.65L473.03,101.67L473.92,101.67L473.92,113.99L645.01,113.99L645.01,112.2L645.9,112.2L645.9,102.14L646.78,102.14L646.78,103.2L647.67,103.2L647.67,71.02L648.56,71.02L648.56,113.99L657.42,113.99L657.42,113.99" style="vector-effect: non-scaling-stroke; fill: none; stroke: rgb(62, 164, 78); stroke-opacity: 1; stroke-width: 1px; opacity: 1;"/></g><g class="points"/><g class="text"/></g><g class="trace scatter traced80414" style="stroke-miterlimit: 2; opacity: 1;"><g class="fills"/><g class="errorbars"/><g class="lines"><path class="js-line" d="M19.15,113.99L75,113.99L75,111.83L76.77,111.65L76.77,73.56L77.66,73.56L77.66,113.99L161.87,113.99L161.87,112.63L162.76,112.63L162.76,96.68L163.65,96.68L163.65,105.27L164.53,105.27L164.53,103.62L165.42,103.62L165.42,111.14L166.31,111.14L166.31,100.69L167.19,100.69L167.19,113.99L230.13,113.99L230.13,112.04L231.02,112.04L231.02,109.79L231.91,109.79L231.91,106.65L232.79,106.65L232.79,113.99L281.55,113.99L281.55,110L282.44,110L282.44,112.19L285.1,112.62L285.1,113.52L293.96,113.56L293.96,111.17L296.62,111.18L296.62,113.99L357.79,113.99L357.79,112.93L358.67,112.93L358.67,106.57L359.56,106.57L359.56,112.33L362.22,112.76L362.22,113.1L363.11,113.1L363.11,113.99L645.01,113.99L645.01,112.78L645.9,112.78L645.9,105.47L647.67,105.75L647.67,113.99L650.33,113.99L650.33,110.35L651.22,110.35L651.22,107.28L652.1,107.28L652.1,92.89L652.99,92.89L652.99,113.99L657.42,113.99L657.42,113.99" style="vector-effect: non-scaling-stroke; fill: none; stroke: rgb(195, 113, 210); stroke-opacity: 1; stroke-width: 1px; opacity: 1;"/></g><g class="points"/><g class="text"/></g><g class="trace scatter traceccfe2e" style="stroke-miterlimit: 2; opacity: 1;"><g class="fills"/><g class="errorbars"/><g class="lines"><path class="js-line" d="M19.15,113.99L75.88,113.99L75.88,112.56L76.77,112.56L76.77,100.94L77.66,100.94L77.66,92.53L78.54,92.53L78.54,113.99L165.42,113.99L165.42,111.95L166.31,111.95L166.31,104.79L167.19,104.79L167.19,107.25L168.08,107.25L168.08,113.99L374.63,113.66L374.63,109.82L375.52,109.82L375.52,113.99L379.95,113.99L379.95,106.42L380.84,106.42L380.84,108.08L381.72,108.08L381.72,113.99L465.94,113.99L465.94,112.03L466.83,112.03L466.83,110.95L467.71,110.95L467.71,105.5L468.6,105.5L468.6,113.99L469.49,113.99L469.49,113.2L470.37,113.2L470.37,92.31L471.26,92.31L471.26,113.99L559.91,113.99L559.91,113.16L560.79,113.16L560.79,103.59L561.68,103.59L561.68,102.76L562.57,102.76L562.57,113.99L645.01,113.99L645.01,112.12L645.9,112.12L645.9,102.29L646.78,102.29L646.78,109.58L647.67,109.58L647.67,113.99L655.65,113.99L655.65,113.99" style="vector-effect: non-scaling-stroke; fill: none; stroke: rgb(172, 142, 24); stroke-opacity: 1; stroke-width: 1px; opacity: 1;"/></g><g class="points"/><g class="text"/></g><g class="trace scatter trace377484" style="stroke-miterlimit: 2; opacity: 1;"><g class="fills"/><g class="errorbars"/><g class="lines"><path class="js-line" d="M19.15,113.99L75.88,113.99L75.88,110.95L76.77,110.95L76.77,85.96L78.54,86.42L78.54,105.24L79.43,105.24L79.43,113.99L231.91,113.99L231.91,110.22L232.79,110.22L232.79,107.66L233.68,107.66L233.68,101.62L234.57,101.62L234.57,113.99L375.52,113.99L375.52,112.87L376.4,112.87L376.4,110.45L377.29,110.45L377.29,105.17L378.18,105.17L378.18,113.99L449.98,113.99L449.98,112.81L450.87,112.81L450.87,106.68L451.76,106.68L451.76,113.49L463.28,113.99L463.28,109.61L464.17,109.61L464.17,112.02L465.94,112.1L465.94,105.65L466.83,105.65L466.83,108.09L467.71,108.09L467.71,113.99L469.49,113.99L469.49,112.95L470.37,112.95L470.37,87.16L471.26,87.16L471.26,96.92L472.15,96.92L472.15,113.99L636.15,113.27L636.15,110.15L637.03,110.15L637.03,107.48L637.92,107.48L637.92,112L638.81,112L638.81,108.56L639.69,108.56L639.69,111.19L642.35,111.59L642.35,110.73L644.12,110.46L644.12,113.99L649.44,113.99L649.44,106.44L650.33,106.44L650.33,93.57L651.22,93.57L651.22,106.02L652.1,106.02L652.1,113.99L657.42,113.99L657.42,113.99" style="vector-effect: non-scaling-stroke; fill: none; stroke: rgb(0, 170, 174); stroke-opacity: 1; stroke-width: 1px; opacity: 1;"/></g><g class="points"/><g class="text"/></g><g class="trace scatter trace82f2f9" style="stroke-miterlimit: 2; opacity: 1;"><g class="fills"/><g class="errorbars"/><g class="lines"><path class="js-line" d="M19.15,113.99L79.43,113.99L79.43,109.09L80.32,109.09L80.32,90.4L81.2,90.4L81.2,75.1L82.09,75.1L82.09,113.99L162.76,113.45L162.76,109.73L165.42,109.72L165.42,113.99L357.79,113.99L357.79,111.79L358.67,111.79L358.67,109.03L359.56,109.03L359.56,112.15L360.45,112.15L360.45,113.99L361.33,113.99L361.33,111.46L363.11,112.02L363.11,113.99L381.72,113.99L381.72,112.03L382.61,112.03L382.61,102.47L383.5,102.47L383.5,113.99L552.82,113.28L552.82,112.72L555.48,112.5L555.48,105.24L556.36,105.24L556.36,113.99L559.02,113.99L559.02,111.21L559.91,111.21L559.91,105.05L560.79,105.05L560.79,53.84L561.68,53.84L561.68,113.99L657.42,113.99L657.42,113.99" style="vector-effect: non-scaling-stroke; fill: none; stroke: rgb(237, 94, 147); stroke-opacity: 1; stroke-width: 1px; opacity: 1;"/></g><g class="points"/><g class="text"/></g><g class="trace scatter trace4993d3" style="stroke-miterlimit: 2; opacity: 1;"><g class="fills"/><g class="errorbars"/><g class="lines"><path class="js-line" d="M19.15,111.15L20.03,111.15L20.03,92.62L20.92,92.62L20.92,91.64L21.81,91.64L21.81,68.04L22.69,68.04L22.69,69.41L23.58,69.41L23.58,82.53L24.47,82.53L24.47,76.53L25.35,76.53L25.35,90.39L26.24,90.39L26.24,103.24L27.13,103.24L27.13,101.81L28.01,101.81L28.01,110.23L30.67,110.23L30.67,112.58L31.56,112.58L31.56,113.71L56.38,113.99L56.38,110.39L57.27,110.39L57.27,113.09L58.15,113.09L58.15,113.99L63.47,113.99L63.47,113.19L66.13,112.52L66.13,112.22L68.79,111.66L68.79,111.22L69.68,111.22L69.68,110.4L70.56,110.4L70.56,108.78L71.45,108.78L71.45,107.45L72.34,107.45L72.34,103.82L73.22,103.82L73.22,97.56L74.11,97.56L74.11,100.67L75,100.67L75,90L75.88,90L75.88,77.46L76.77,77.46L76.77,60.73L77.66,60.73L77.66,64.32L78.54,64.32L78.54,55.55L79.43,55.55L79.43,44.44L80.32,44.44L80.32,3.32L81.2,3.32L81.2,72.4L82.09,72.4L82.09,81.81L82.98,81.81L82.98,84.21L83.86,84.21L83.86,94.42L85.64,94.37L85.64,100.61L86.52,100.61L86.52,104.52L87.41,104.52L87.41,106.2L88.29,106.2L88.29,107.79L89.18,107.79L89.18,110.51L90.07,110.51L90.07,111.59L90.95,111.59L90.95,110.45L97.16,110.6L97.16,111.08L98.05,111.08L98.05,112.29L101.59,111.56L101.59,111.19L103.36,110.89L103.36,110.24L104.25,110.24L104.25,108.81L105.14,108.81L105.14,101.64L106.02,101.64L106.02,98.09L106.91,98.09L106.91,92.35L107.8,92.35L107.8,91.52L108.68,91.52L108.68,89.61L109.57,89.61L109.57,67.25L110.46,67.25L110.46,78.12L111.34,78.12L111.34,54.34L112.23,54.34L112.23,52.78L113.12,52.78L113.12,64.06L114,64.06L114,46.25L114.89,46.25L114.89,63.91L115.78,63.91L115.78,67.33L116.66,67.33L116.66,79.19L117.55,79.19L117.55,101.07L118.44,101.07L118.44,111.75L125.53,112.3L125.53,112.65L145.03,112.81L145.03,102.55L145.92,102.55L145.92,111.31L155.67,111.84L155.67,112.9L156.55,112.9L156.55,111.14L157.44,111.14L157.44,105.94L158.33,105.94L158.33,103.56L159.21,103.56L159.21,100.84L160.1,100.84L160.1,99.33L160.99,99.33L160.99,101.44L161.87,101.44L161.87,97.07L162.76,97.07L162.76,98.25L163.65,98.25L163.65,96.22L164.53,96.22L164.53,98.31L166.31,97.87L166.31,94.81L168.08,94.3L168.08,80.64L168.97,80.64L168.97,93.2L169.85,93.2L169.85,90.59L170.74,90.59L170.74,96.36L171.62,96.36L171.62,101.48L172.51,101.48L172.51,106.84L175.17,107.15L175.17,110.34L176.06,110.34L176.06,108.73L177.83,109.21L177.83,110.01L179.6,110.23L179.6,111.92L182.26,111.66L182.26,110.86L183.15,110.86L183.15,108.15L184.04,108.15L184.04,111.54L186.7,111.31L186.7,110.46L187.58,110.46L187.58,108.95L189.35,108.28L189.35,105.68L190.24,105.68L190.24,102.23L191.13,102.23L191.13,98.25L192.01,98.25L192.01,101.8L192.9,101.8L192.9,99.1L193.79,99.1L193.79,100.37L194.67,100.37L194.67,95.94L195.56,95.94L195.56,97.78L196.45,97.78L196.45,99.26L197.33,99.26L197.33,105.84L198.22,105.84L198.22,110.7L201.77,110.78L201.77,112.95L202.65,112.95L202.65,104.88L203.54,104.88L203.54,109.03L204.42,109.03L204.42,110.48L205.31,110.48L205.31,107.61L206.2,107.61L206.2,109.5L207.97,109L207.97,107.71L208.86,107.71L208.86,110.6L212.4,110.13L212.4,108.11L214.18,108.27L214.18,108.92L215.95,108.95L215.95,107.47L216.84,107.47L216.84,106.37L217.72,106.37L217.72,110L218.61,110L218.61,111.54L222.15,111.99L222.15,111.21L224.81,110.66L224.81,108.85L225.7,108.85L225.7,106.73L226.59,106.73L226.59,99.86L227.47,99.86L227.47,94.16L228.36,94.16L228.36,90.21L230.13,90.94L230.13,81.56L231.02,81.56L231.02,92.72L231.91,92.72L231.91,99.32L232.79,99.32L232.79,81.66L233.68,81.66L233.68,92.41L234.57,92.41L234.57,90.61L235.45,90.61L235.45,92.13L236.34,92.13L236.34,95.42L237.23,95.42L237.23,100.74L238.11,100.74L238.11,107.51L239.88,107.99L239.88,110.63L242.54,110.92L242.54,111.69L250.52,111.22L250.52,110.83L252.3,110.14L252.3,108.66L253.18,108.66L253.18,105.73L254.07,105.73L254.07,100.77L254.95,100.77L254.95,98.28L255.84,98.28L255.84,89.18L256.73,89.18L256.73,105.12L257.61,105.12L257.61,109.5L258.5,109.5L258.5,105.53L259.39,105.53L259.39,109.78L262.05,110.09L262.05,107.65L263.82,108.14L263.82,110.01L271.8,109.86L271.8,109.62L272.68,109.62L272.68,107.99L273.57,107.99L273.57,106.09L275.34,105.63L275.34,104.77L276.23,104.77L276.23,103.06L277.12,103.06L277.12,90.23L278,90.23L278,71.62L278.89,71.62L278.89,79.03L279.78,79.03L279.78,86.34L280.66,86.34L280.66,93.7L281.55,93.7L281.55,91.34L282.44,91.34L282.44,102.15L283.32,102.15L283.32,108.75L284.21,108.75L284.21,107.42L285.1,107.42L285.1,109.34L285.98,109.34L285.98,107.16L286.87,107.16L286.87,110.23L288.64,110.65L288.64,111.07L289.53,111.07L289.53,112.03L293.07,111.95L293.07,110.99L293.96,110.99L293.96,107.35L295.73,106.8L295.73,102.98L296.62,102.98L296.62,100.84L298.39,100.8L298.39,98.07L300.17,97.64L300.17,96.84L301.05,96.84L301.05,98.94L301.94,98.94L301.94,90.8L302.83,90.8L302.83,97.87L303.71,97.87L303.71,99.8L304.6,99.8L304.6,100.68L305.49,100.68L305.49,99.35L306.37,99.35L306.37,102.11L307.26,102.11L307.26,106.76L308.14,106.76L308.14,109.6L309.92,109.97L309.92,110.65L311.69,111.11L311.69,111.54L317.01,111.77L317.01,111.07L317.9,111.07L317.9,109.01L319.67,108.4L319.67,112.94L334.74,112.84L334.74,111.72L338.29,111.78L338.29,112.83L341.83,112.54L341.83,111.07L347.15,111.54L347.15,110.6L348.04,110.6L348.04,109.09L348.92,109.09L348.92,95.22L349.81,95.22L349.81,83.84L352.47,83.44L352.47,98.12L353.36,98.12L353.36,97.16L354.24,97.16L354.24,98.03L355.13,98.03L355.13,99.9L356.9,99.86L356.9,102.23L357.79,102.23L357.79,101.04L358.67,101.04L358.67,103.22L359.56,103.22L359.56,107L360.45,107L360.45,109.08L361.33,109.08L361.33,110.42L363.11,110.99L363.11,111.48L364.88,111.97L364.88,112.49L367.54,113.22L367.54,113.99L368.43,113.99L368.43,112.19L369.31,112.19L369.31,109.16L370.2,109.16L370.2,111.45L371.97,110.89L371.97,110.11L372.86,110.11L372.86,108.33L373.74,108.33L373.74,105.57L374.63,105.57L374.63,98.6L375.52,98.6L375.52,87.23L376.4,87.23L376.4,101.64L377.29,101.64L377.29,99.99L379.06,100.01L379.06,98.39L380.84,98.7L380.84,99.99L383.5,100.21L383.5,100.84L385.27,100.89L385.27,103.64L387.04,103.48L387.04,106.79L387.93,106.79L387.93,109.12L388.82,109.12L388.82,111.14L389.7,111.14L389.7,110.24L391.47,110.72L391.47,111.5L397.68,112.2L397.68,112.35L398.57,112.35L398.57,113.99L402.11,113.99L402.11,112.19L403,112.19L403,111.01L403.89,111.01L403.89,113.66L426.05,113.99L426.05,110.86L426.93,110.86L426.93,111.76L427.82,111.76L427.82,113.04L439.35,112.29L439.35,111.6L440.23,111.6L440.23,107.39L441.12,107.39L441.12,106.36L442,106.36L442,96.48L442.89,96.48L442.89,78.13L443.78,78.13L443.78,80.62L444.66,80.62L444.66,61.55L445.55,61.55L445.55,65.65L446.44,65.65L446.44,49.18L447.32,49.18L447.32,40.09L448.21,40.09L448.21,53.17L449.1,53.17L449.1,72.33L449.98,72.33L449.98,71.35L450.87,71.35L450.87,91.22L451.76,91.22L451.76,93.08L452.64,93.08L452.64,105.82L454.42,105.47L454.42,107.27L455.3,107.27L455.3,108.46L456.19,108.46L456.19,109.66L457.08,109.66L457.08,110.59L458.85,110.59L458.85,112.03L461.51,111.69L461.51,111.21L463.28,110.68L463.28,110.15L464.17,110.15L464.17,108.2L465.05,108.2L465.05,102.22L465.94,102.22L465.94,90.99L466.83,90.99L466.83,84.72L467.71,84.72L467.71,82.43L468.6,82.43L468.6,72.91L469.49,72.91L469.49,55.31L470.37,55.31L470.37,76.93L471.26,76.93L471.26,86.46L472.15,86.46L472.15,63.06L473.03,63.06L473.03,59.44L473.92,59.44L473.92,79.87L474.8,79.87L474.8,97.31L475.69,97.31L475.69,98.29L476.58,98.29L476.58,103.14L477.46,103.14L477.46,105.76L479.24,105.59L479.24,108.63L480.12,108.63L480.12,111.38L481.01,111.38L481.01,113.25L481.9,113.25L481.9,110.06L483.67,109.74L483.67,112.97L497.85,113.71L497.85,113.82L525.33,113.99L525.33,108.56L527.99,107.86L527.99,105.98L528.88,105.98L528.88,106.84L529.77,106.84L529.77,99.49L530.65,99.49L530.65,96.46L531.54,96.46L531.54,95L532.43,95L532.43,96.28L533.31,96.28L533.31,88.16L534.2,88.16L534.2,93.83L535.09,93.83L535.09,88.93L535.97,88.93L535.97,96.36L536.86,96.36L536.86,91.1L537.75,91.1L537.75,94.03L538.63,94.03L538.63,98.83L539.52,98.83L539.52,95.19L540.41,95.19L540.41,96.94L541.29,96.94L541.29,108.1L543.95,107.94L543.95,111.36L546.61,112.04L546.61,112.19L550.16,112.2L550.16,111.22L551.93,110.82L551.93,110.16L552.82,110.16L552.82,108.2L553.7,108.2L553.7,105.47L554.59,105.47L554.59,100.99L556.36,101.61L556.36,96.45L558.14,95.72L558.14,95.66L559.02,95.66L559.02,90.17L559.91,90.17L559.91,78.93L560.79,78.93L560.79,72.08L561.68,72.08L561.68,85.16L562.57,85.16L562.57,98.53L563.45,98.53L563.45,92.48L564.34,92.48L564.34,103.35L565.23,103.35L565.23,106.71L566.11,106.71L566.11,107.82L567,107.82L567,109.05L568.77,109.32L568.77,113.07L569.66,113.07L569.66,113.99L584.73,113.99L584.73,110.42L585.62,110.42L585.62,113.06L586.5,113.06L586.5,113.99L612.21,113.99L612.21,112.6L615.76,111.89L615.76,111.66L617.53,111.29L617.53,110.72L619.3,110.02L619.3,108.6L620.19,108.6L620.19,107.47L621.08,107.47L621.08,103.98L621.96,103.98L621.96,100.74L622.85,100.74L622.85,99.91L623.74,99.91L623.74,101.05L624.62,101.05L624.62,97.6L625.51,97.6L625.51,98.52L626.4,98.52L626.4,100.12L627.28,100.12L627.28,102L628.17,102L628.17,96.42L629.94,96.02L629.94,101.13L630.83,101.13L630.83,90.58L631.71,90.58L631.71,105.11L632.6,105.11L632.6,102.71L633.49,102.71L633.49,108.81L634.37,108.81L634.37,111.2L637.92,111.88L637.92,112.27L640.58,112.42L640.58,111.4L642.35,111.85L642.35,113.02L643.24,113.02L643.24,105.54L645.01,106.27L645.01,100.86L645.9,100.86L645.9,90.85L646.78,90.85L646.78,99L647.67,99L647.67,84.79L648.56,84.79L648.56,89.25L649.44,89.25L649.44,73.34L650.33,73.34L650.33,84.26L651.22,84.26L651.22,85.39L652.1,85.39L652.1,78.99L652.99,78.99L652.99,82.41L653.88,82.41L653.88,90.39L654.76,90.39L654.76,98.02L655.65,98.02L655.65,99.15L656.54,99.15L656.54,101.39L657.42,101.39L657.42,113.99" style="vector-effect: non-scaling-stroke; fill: none; stroke: rgb(198, 130, 37); stroke-opacity: 1; stroke-width: 1px; opacity: 1;"/></g><g class="points"/><g class="text"/></g><g class="trace scatter trace2673cd" style="stroke-miterlimit: 2; opacity: 1;"><g class="fills"/><g class="errorbars"/><g class="lines"><path class="js-line" d="M19.15,113.99L78.54,113.99L78.54,111.49L79.43,111.49L79.43,35.63L80.32,35.63L80.32,113.99L224.81,113.66L224.81,111.78L226.59,111.45L226.59,110.08L227.47,110.08L227.47,113.99L231.02,113.99L231.02,110.93L231.91,110.93L231.91,102.47L232.79,102.47L232.79,88.14L233.68,88.14L233.68,113.99L296.62,113.99L296.62,111.98L297.51,111.98L297.51,89.04L298.39,89.04L298.39,113.99L379.06,113.99L379.06,110.55L379.95,110.55L379.95,103.95L380.84,103.95L380.84,113.99L471.26,113.99L471.26,108.34L472.15,108.34L472.15,61.24L473.03,61.24L473.03,113.99L657.42,113.99L657.42,113.99" style="vector-effect: non-scaling-stroke; fill: none; stroke: rgb(0, 169, 141); stroke-opacity: 1; stroke-width: 1px; opacity: 1;"/></g><g class="points"/><g class="text"/></g><g class="trace scatter trace569551" style="stroke-miterlimit: 2; opacity: 1;"><g class="fills"/><g class="errorbars"/><g class="lines"><path class="js-line" d="M19.15,113.99L72.34,113.99L72.34,112.23L73.22,112.23L73.22,108.97L74.11,108.97L74.11,102.56L75,102.56L75,109.72L75.88,109.72L75.88,113.99L163.65,113.99L163.65,111.25L164.53,111.25L164.53,105.24L165.42,105.24L165.42,98.52L166.31,98.52L166.31,113.99L231.91,113.99L231.91,103.32L232.79,103.32L232.79,102.19L233.68,102.19L233.68,113.99L375.52,113.99L375.52,112.06L376.4,112.06L376.4,106.93L377.29,106.93L377.29,113.99L467.71,113.99L467.71,104.24L468.6,104.24L468.6,100.38L470.37,100.89L470.37,110.01L471.26,110.01L471.26,113.99L649.44,113.69L649.44,96.31L650.33,96.31L650.33,87.04L651.22,87.04L651.22,113.99L657.42,113.99L657.42,113.99" style="vector-effect: non-scaling-stroke; fill: none; stroke: rgb(142, 151, 30); stroke-opacity: 1; stroke-width: 1px; opacity: 1;"/></g><g class="points"/><g class="text"/></g><g class="trace scatter trace07c6ec" style="stroke-miterlimit: 2; opacity: 1;"><g class="fills"/><g class="errorbars"/><g class="lines"><path class="js-line" d="M19.15,113.99L77.66,113.99L77.66,97.35L78.54,97.35L78.54,90.19L79.43,90.19L79.43,113.99L157.44,113.54L157.44,111.03L158.33,111.03L158.33,108.98L159.21,108.98L159.21,106.91L160.99,107.02L160.99,113.99L162.76,113.99L162.76,110.1L163.65,110.1L163.65,99.9L164.53,99.9L164.53,113.99L297.51,113.99L297.51,109.79L298.39,109.79L298.39,100.25L299.28,100.25L299.28,104.98L300.17,104.98L300.17,113.99L301.94,113.99L301.94,111.48L302.83,111.48L302.83,107.4L303.71,107.4L303.71,109.61L304.6,109.61L304.6,113.99L379.95,113.99L379.95,100.51L380.84,100.51L380.84,113.99L449.98,113.99L449.98,112.71L450.87,112.71L450.87,104.03L451.76,104.03L451.76,106.24L452.64,106.24L452.64,112.73L455.3,113.02L455.3,113.99L645.01,113.99L645.01,112.78L645.9,112.78L645.9,105.47L647.67,105.75L647.67,113.99L649.44,113.87L649.44,97.82L650.33,97.82L650.33,74.66L651.22,74.66L651.22,97.72L652.1,97.72L652.1,113.99L654.76,113.99L654.76,113.99" style="vector-effect: non-scaling-stroke; fill: none; stroke: rgb(0, 169, 204); stroke-opacity: 1; stroke-width: 1px; opacity: 1;"/></g><g class="points"/><g class="text"/></g><g class="trace scatter trace41a87d" style="stroke-miterlimit: 2; opacity: 1;"><g class="fills"/><g class="errorbars"/><g class="lines"><path class="js-line" d="M19.15,113.99L166.31,113.99L166.31,110.63L167.19,110.63L167.19,104.66L168.08,104.66L168.08,108.7L168.97,108.7L168.97,113.99L293.96,113.59L293.96,111.15L296.62,111.18L296.62,113.99L300.17,113.99L300.17,109.55L301.05,109.55L301.05,104.95L301.94,104.95L301.94,113.99L371.09,113.44L371.09,112.22L374.63,112.22L374.63,110.59L375.52,110.59L375.52,107.05L376.4,107.05L376.4,113.99L379.95,113.99L379.95,110.62L380.84,110.62L380.84,107.85L381.72,107.85L381.72,110.01L382.61,110.01L382.61,113.99L549.27,113.99L549.27,110.44L550.16,110.44L550.16,107.67L551.04,107.67L551.04,109.2L552.82,108.65L552.82,110.24L553.7,110.24L553.7,111.93L554.59,111.93L554.59,110.38L555.48,110.38L555.48,108.43L557.25,108.42L557.25,109.6L558.14,109.6L558.14,113.99L559.02,113.99L559.02,105.87L559.91,105.87L559.91,95.15L560.79,95.15L560.79,113.99L651.22,113.99L651.22,110.84L652.1,110.84L652.1,96.87L652.99,96.87L652.99,102.81L653.88,102.81L653.88,113.99L657.42,113.99L657.42,113.99" style="vector-effect: non-scaling-stroke; fill: none; stroke: rgb(155, 127, 233); stroke-opacity: 1; stroke-width: 1px; opacity: 1;"/></g><g class="points"/><g class="text"/></g><g class="trace scatter trace153b2b" style="stroke-miterlimit: 2; opacity: 1;"><g class="fills"/><g class="errorbars"/><g class="lines"><path class="js-line" d="M19.15,113.99L75,113.99L75,93.72L75.88,93.72L75.88,89.34L76.77,89.34L76.77,113.99L156.55,113.48L156.55,110L157.44,110L157.44,113.99L281.55,113.99L281.55,110.01L282.44,110.01L282.44,112.18L285.1,112.62L285.1,113.52L379.06,113.99L379.06,100.51L379.95,100.51L379.95,111.33L380.84,111.33L380.84,107.16L381.72,107.16L381.72,110L382.61,110L382.61,113.99L463.28,113.99L463.28,109.61L464.17,109.61L464.17,113.88L554.59,113.99L554.59,111.96L555.48,111.96L555.48,108.42L556.36,108.42L556.36,103.61L557.25,103.61L557.25,113.99L559.02,113.39L559.02,96.12L560.79,96.51L560.79,113.99L629.94,113.99L629.94,107.59L630.83,107.59L630.83,105.68L631.71,105.68L631.71,101.05L632.6,101.05L632.6,112.34L638.81,112.14L638.81,109.01L639.69,109.01L639.69,111.64L643.24,111.22L643.24,102.5L644.12,102.5L644.12,104.53L645.01,104.53L645.01,108.17L645.9,108.17L645.9,111.84L646.78,111.84L646.78,109.96L647.67,109.96L647.67,71.02L648.56,71.02L648.56,113.99L657.42,113.99L657.42,113.99" style="vector-effect: non-scaling-stroke; fill: none; stroke: rgb(97, 141, 246); stroke-opacity: 1; stroke-width: 1px; opacity: 1;"/></g><g class="points"/><g class="text"/></g><g class="trace scatter trace092047" style="stroke-miterlimit: 2; opacity: 1;"><g class="fills"/><g class="errorbars"/><g class="lines"><path class="js-line" d="M19.15,113.99L71.45,113.99L71.45,112.72L72.34,112.72L72.34,109.16L73.22,109.16L73.22,96.63L74.11,96.63L74.11,110.49L75,110.49L75,113.99L155.67,113.99L155.67,112.1L157.44,111.38L157.44,113.99L160.99,113.99L160.99,111.5L161.87,111.5L161.87,97.89L162.76,97.89L162.76,110.11L163.65,110.11L163.65,113.99L212.4,113.51L212.4,111.38L214.18,112.08L214.18,112.9L217.72,113.25L217.72,113.99L297.51,113.99L297.51,111.57L298.39,111.57L298.39,105.65L299.28,105.65L299.28,104.16L300.17,104.16L300.17,103.12L301.05,103.12L301.05,113.2L301.94,113.2L301.94,101.3L302.83,101.3L302.83,113.99L379.06,113.99L379.06,100.51L379.95,100.51L379.95,113.99L462.39,113.99L462.39,107.96L463.28,107.96L463.28,111.03L464.17,111.03L464.17,113.99L471.26,113.99L471.26,112.96L472.15,112.96L472.15,96.3L473.03,96.3L473.03,105.75L473.92,105.75L473.92,113.99L538.63,113.99L538.63,112.34L539.52,112.34L539.52,109.86L540.41,109.86L540.41,106.29L541.29,106.29L541.29,113.99L558.14,113.99L558.14,106.86L559.02,106.86L559.02,102.02L559.91,102.02L559.91,70.2L560.79,70.2L560.79,113.99L657.42,113.99L657.42,113.99" style="vector-effect: non-scaling-stroke; fill: none; stroke: rgb(240, 96, 115); stroke-opacity: 1; stroke-width: 1px; opacity: 1;"/></g><g class="points"/><g class="text"/></g><g class="trace scatter traceb2c94e" style="stroke-miterlimit: 2; opacity: 1;"><g class="fills"/><g class="errorbars"/><g class="lines"><path class="js-line" d="M19.15,113.99L164.53,113.99L164.53,107.8L165.42,107.8L165.42,106.7L166.31,106.7L166.31,113.99L226.59,113.99L226.59,111.29L227.47,111.29L227.47,103.86L229.25,103.88L229.25,102.24L230.13,102.24L230.13,99.26L231.02,99.26L231.02,113.99L300.17,113.99L300.17,112.04L301.94,111.44L301.94,113.99L550.16,113.24L550.16,112.5L551.04,112.5L551.04,109.2L551.93,109.2L551.93,110.67L552.82,110.67L552.82,113.99L556.36,113.99L556.36,106.76L557.25,106.76L557.25,102.93L558.14,102.93L558.14,104.71L559.02,104.71L559.02,110.11L559.91,110.11L559.91,113.99L649.44,113.75L649.44,99.93L651.22,100.31L651.22,106.02L652.1,106.02L652.1,113.99L657.42,113.99L657.42,113.99" style="vector-effect: non-scaling-stroke; fill: none; stroke: rgb(221, 101, 182); stroke-opacity: 1; stroke-width: 1px; opacity: 1;"/></g><g class="points"/><g class="text"/></g><g class="trace scatter trace433951" style="stroke-miterlimit: 2; opacity: 1;"><g class="fills"/><g class="errorbars"/><g class="lines"><path class="js-line" d="M19.15,113.99L74.11,113.99L74.11,99.03L75,99.03L75,97.07L75.88,97.07L75.88,109.92L76.77,109.92L76.77,113.99L225.7,113.55L225.7,113.01L226.59,113.01L226.59,110.08L227.47,110.08L227.47,113.99L230.13,113.99L230.13,98.18L231.02,98.18L231.02,93.86L231.91,93.86L231.91,113.99L467.71,113.99L467.71,91.53L468.6,91.53L468.6,83.81L469.49,83.81L469.49,85.41L470.37,85.41L470.37,100.07L471.26,100.07L471.26,105.81L472.15,105.81L472.15,113.99L556.36,113.99L556.36,106.82L557.25,106.82L557.25,103.19L558.14,103.19L558.14,113.99L657.42,113.99L657.42,113.99" style="vector-effect: non-scaling-stroke; fill: none; stroke: rgb(108, 159, 51); stroke-opacity: 1; stroke-width: 1px; opacity: 1;"/></g><g class="points"/><g class="text"/></g><g class="trace scatter traced86781" style="stroke-miterlimit: 2; opacity: 1;"><g class="fills"/><g class="errorbars"/><g class="lines"><path class="js-line" d="M19.15,113.99L74.11,113.99L74.11,98.96L75,98.96L75,97.49L75.88,97.49L75.88,109.58L76.77,109.58L76.77,113.99L165.42,113.99L165.42,112.01L166.31,112.01L166.31,105.11L167.19,105.11L167.19,106.88L168.08,106.88L168.08,113.99L226.59,113.41L226.59,113.1L227.47,113.1L227.47,76.93L228.36,76.93L228.36,110.93L229.25,110.93L229.25,113.99L232.79,113.99L232.79,103.9L233.68,103.9L233.68,101.62L234.57,101.62L234.57,113.99L300.17,113.99L300.17,112.32L301.05,112.32L301.05,111.16L301.94,111.16L301.94,113.99L358.67,113.35L358.67,110.14L359.56,110.14L359.56,113.99L377.29,113.99L377.29,110.67L378.18,110.67L378.18,108.22L379.06,108.22L379.06,109.59L379.95,109.59L379.95,113.99L629.94,113.99L629.94,107.59L630.83,107.59L630.83,105.68L631.71,105.68L631.71,101.05L632.6,101.05L632.6,112.34L634.37,112.34L634.37,113.47L643.24,113.28L643.24,104.24L644.12,104.24L644.12,107.54L645.01,107.54L645.01,108.44L645.9,108.44L645.9,113.99L648.56,113.99L648.56,112.96L649.44,112.96L649.44,83.57L650.33,83.57L650.33,113.99L655.65,113.99L655.65,113.99" style="vector-effect: non-scaling-stroke; fill: none; stroke: rgb(0, 154, 250); stroke-opacity: 1; stroke-width: 1px; opacity: 1;"/></g><g class="points"/><g class="text"/></g><g class="trace scatter trace781bfc" style="stroke-miterlimit: 2; opacity: 1;"><g class="fills"/><g class="errorbars"/><g class="lines"><path class="js-line" d="M19.15,113.99L73.22,113.39L73.22,112.35L75,112.35L75,113.36L78.54,113.99L78.54,111.49L79.43,111.49L79.43,30.73L80.32,30.73L80.32,90.36L81.2,90.36L81.2,75.14L82.09,75.14L82.09,113.99L231.02,113.99L231.02,110.93L231.91,110.93L231.91,103.36L232.79,103.36L232.79,109.7L233.68,109.7L233.68,113.99L295.73,113.99L295.73,110.49L296.62,110.49L296.62,99.52L297.51,99.52L297.51,113.99L471.26,113.99L471.26,109.84L472.15,109.84L472.15,64.23L473.03,64.23L473.03,113.99L649.44,113.3L649.44,83.24L650.33,83.24L650.33,113.99L657.42,113.99L657.42,113.99" style="vector-effect: non-scaling-stroke; fill: none; stroke: rgb(227, 111, 71); stroke-opacity: 1; stroke-width: 1px; opacity: 1;"/></g><g class="points"/><g class="text"/></g><g class="trace scatter trace0a6608" style="stroke-miterlimit: 2; opacity: 1;"><g class="fills"/><g class="errorbars"/><g class="lines"><path class="js-line" d="M19.15,113.99L76.77,113.99L76.77,99.01L77.66,99.01L77.66,74.7L78.54,74.7L78.54,100.87L79.43,100.87L79.43,113.99L157.44,113.81L157.44,112.88L160.99,112.44L160.99,109.26L161.87,109.26L161.87,110.3L162.76,110.3L162.76,113.99L226.59,113.41L226.59,113.1L227.47,113.1L227.47,78.09L228.36,78.09L228.36,109.38L229.25,109.38L229.25,92.13L230.13,92.13L230.13,98.98L231.02,98.98L231.02,106.34L231.91,106.34L231.91,113.99L376.4,113.99L376.4,112.56L377.29,112.56L377.29,107.18L378.18,107.18L378.18,108.75L379.06,108.75L379.06,113.99L451.76,113.45L451.76,100.04L452.64,100.04L452.64,112.73L455.3,113.02L455.3,113.99L557.25,113.99L557.25,108.26L558.14,108.26L558.14,92.76L559.02,92.76L559.02,113.99L657.42,113.99L657.42,113.99" style="vector-effect: non-scaling-stroke; fill: none; stroke: rgb(62, 164, 78); stroke-opacity: 1; stroke-width: 1px; opacity: 1;"/></g><g class="points"/><g class="text"/></g><g class="trace scatter trace892a9c" style="stroke-miterlimit: 2; opacity: 1;"><g class="fills"/><g class="errorbars"/><g class="lines"><path class="js-line" d="M19.15,113.99L69.68,113.99L69.68,112.86L72.34,112.83L72.34,111.33L73.22,111.33L73.22,96.63L74.11,96.63L74.11,110.49L75,110.49L75,111.86L76.77,111.62L76.77,73.56L77.66,73.56L77.66,113.99L163.65,113.99L163.65,111.29L164.53,111.29L164.53,105.83L165.42,105.83L165.42,111.37L166.31,111.37L166.31,113.99L297.51,113.99L297.51,109.79L298.39,109.79L298.39,100.25L299.28,100.25L299.28,104.98L300.17,104.98L300.17,109.55L301.05,109.55L301.05,104.95L301.94,104.95L301.94,113.99L629.05,113.39L629.05,112.4L630.83,112.4L630.83,113.26L646.78,113.99L646.78,112.26L647.67,112.26L647.67,100.72L648.56,100.72L648.56,97.54L649.44,97.54L649.44,113.99L657.42,113.99L657.42,113.99" style="vector-effect: non-scaling-stroke; fill: none; stroke: rgb(195, 113, 210); stroke-opacity: 1; stroke-width: 1px; opacity: 1;"/></g><g class="points"/><g class="text"/></g><g class="trace scatter tracef5de06" style="stroke-miterlimit: 2; opacity: 1;"><g class="fills"/><g class="errorbars"/><g class="lines"><path class="js-line" d="M19.15,113.99L166.31,113.99L166.31,110.74L167.19,110.74L167.19,102.7L168.08,102.7L168.08,106.06L168.97,106.06L168.97,113.99L229.25,113.58L229.25,88.7L230.13,88.7L230.13,99.26L231.02,99.26L231.02,113.99L301.94,113.7L301.94,109.62L304.6,109.61L304.6,113.99L376.4,113.99L376.4,112.56L377.29,112.56L377.29,109.1L378.18,109.1L378.18,106.82L379.06,106.82L379.06,113.99L468.6,113.99L468.6,99.64L469.49,99.64L469.49,96.9L470.37,96.9L470.37,113.99L654.76,113.99L654.76,113.99" style="vector-effect: non-scaling-stroke; fill: none; stroke: rgb(172, 142, 24); stroke-opacity: 1; stroke-width: 1px; opacity: 1;"/></g><g class="points"/><g class="text"/></g><g class="trace scatter tracea1836e" style="stroke-miterlimit: 2; opacity: 1;"><g class="fills"/><g class="errorbars"/><g class="lines"><path class="js-line" d="M19.15,113.99L161.87,113.99L161.87,112.63L162.76,112.63L162.76,97.38L163.65,97.38L163.65,113.99L301.94,113.62L301.94,106.92L302.83,106.92L302.83,103.45L303.71,103.45L303.71,113.99L380.84,113.99L380.84,111.89L382.61,111.59L382.61,113.99L465.94,113.99L465.94,105.55L466.83,105.55L466.83,102.48L468.6,102.48L468.6,109.5L469.49,109.5L469.49,113.99L536.86,113.99L536.86,112.18L540.41,111.72L540.41,113.72L555.48,113.49L555.48,101.46L556.36,101.46L556.36,104.19L557.25,104.19L557.25,107.56L558.14,107.56L558.14,106.19L559.02,106.19L559.02,96.87L559.91,96.87L559.91,113.99L647.67,113.99L647.67,102.62L648.56,102.62L648.56,75.95L649.44,75.95L649.44,109.5L650.33,109.5L650.33,113.99L651.22,113.99L651.22,110.63L652.1,110.63L652.1,97.73L652.99,97.73L652.99,106.66L653.88,106.66L653.88,113.99L657.42,113.99L657.42,113.99" style="vector-effect: non-scaling-stroke; fill: none; stroke: rgb(0, 170, 174); stroke-opacity: 1; stroke-width: 1px; opacity: 1;"/></g><g class="points"/><g class="text"/></g><g class="trace scatter tracef16526" style="stroke-miterlimit: 2; opacity: 1;"><g class="fills"/><g class="errorbars"/><g class="lines"><path class="js-line" d="M19.15,113.99L164.53,113.99L164.53,112.17L165.42,112.17L165.42,111.14L166.31,111.14L166.31,100.69L167.19,100.69L167.19,107.17L168.08,107.17L168.08,106.23L168.97,106.23L168.97,110.6L169.85,110.6L169.85,113.99L229.25,113.99L229.25,109.59L230.13,109.59L230.13,98.54L231.02,98.54L231.02,100.73L231.91,100.73L231.91,106.65L232.79,106.65L232.79,113.99L464.17,113.37L464.17,113L467.71,112.57L467.71,105.5L468.6,105.5L468.6,113.99L470.37,113.59L470.37,103.15L471.26,103.15L471.26,107.25L472.15,107.25L472.15,113.99L537.75,113.99L537.75,112.48L538.63,112.48L538.63,110.07L540.41,110.43L540.41,113.99L559.02,113.51L559.02,100.99L559.91,100.99L559.91,113.99L655.65,113.99L655.65,113.99" style="vector-effect: non-scaling-stroke; fill: none; stroke: rgb(237, 94, 147); stroke-opacity: 1; stroke-width: 1px; opacity: 1;"/></g><g class="points"/><g class="text"/></g><g class="trace scatter trace633201" style="stroke-miterlimit: 2; opacity: 1;"><g class="fills"/><g class="errorbars"/><g class="lines"><path class="js-line" d="M19.15,113.99L75,113.99L75,87.04L75.88,87.04L75.88,85.93L76.77,85.93L76.77,100.03L77.66,100.03L77.66,93.12L78.54,93.12L78.54,113.26L79.43,113.26L79.43,92.25L80.32,92.25L80.32,51.1L81.2,51.1L81.2,113.99L212.4,113.99L212.4,112.03L214.18,111.45L214.18,113.99L215.95,113.99L215.95,112.54L216.84,112.54L216.84,110.95L217.72,110.95L217.72,113.99L378.18,113.3L378.18,105.69L379.06,105.69L379.06,109.05L379.95,109.05L379.95,109.86L380.84,109.86L380.84,105.09L381.72,105.09L381.72,113.99L463.28,113.67L463.28,109.81L464.17,109.81L464.17,113.99L646.78,113.99L646.78,112.36L647.67,112.36L647.67,100.61L648.56,100.61L648.56,97.55L649.44,97.55L649.44,113.99L657.42,113.99L657.42,113.99" style="vector-effect: non-scaling-stroke; fill: none; stroke: rgb(198, 130, 37); stroke-opacity: 1; stroke-width: 1px; opacity: 1;"/></g><g class="points"/><g class="text"/></g></g></g><g class="overplot"/><path class="xlines-above crisp" d="M38.4925634295713,310.7446521684994H716.0629921259842" style="fill: none; stroke-width: 1px; stroke: rgb(0, 0, 0); stroke-opacity: 1;"/><path class="ylines-above crisp" d="M38.9925634295713,192.93728671417094V310.2446521684994" style="fill: none; stroke-width: 1px; stroke: rgb(0, 0, 0); stroke-opacity: 1;"/><g class="overlines-above"/><g class="xaxislayer-above"><path class="xtick ticks crisp" d="M0,310.2446521684994v-5" transform="translate(58.6425634295713,0)" style="stroke: rgb(0, 0, 0); stroke-opacity: 1; stroke-width: 1px;"/><path class="xtick ticks crisp" d="M0,310.2446521684994v-5" transform="translate(85.2325634295713,0)" style="stroke: rgb(0, 0, 0); stroke-opacity: 1; stroke-width: 1px;"/><path class="xtick ticks crisp" d="M0,310.2446521684994v-5" transform="translate(111.83256342957131,0)" style="stroke: rgb(0, 0, 0); stroke-opacity: 1; stroke-width: 1px;"/><path class="xtick ticks crisp" d="M0,310.2446521684994v-5" transform="translate(138.4225634295713,0)" style="stroke: rgb(0, 0, 0); stroke-opacity: 1; stroke-width: 1px;"/><path class="xtick ticks crisp" d="M0,310.2446521684994v-5" transform="translate(165.0225634295713,0)" style="stroke: rgb(0, 0, 0); stroke-opacity: 1; stroke-width: 1px;"/><path class="xtick ticks crisp" d="M0,310.2446521684994v-5" transform="translate(191.6125634295713,0)" style="stroke: rgb(0, 0, 0); stroke-opacity: 1; stroke-width: 1px;"/><path class="xtick ticks crisp" d="M0,310.2446521684994v-5" transform="translate(218.2125634295713,0)" style="stroke: rgb(0, 0, 0); stroke-opacity: 1; stroke-width: 1px;"/><path class="xtick ticks crisp" d="M0,310.2446521684994v-5" transform="translate(244.8025634295713,0)" style="stroke: rgb(0, 0, 0); stroke-opacity: 1; stroke-width: 1px;"/><path class="xtick ticks crisp" d="M0,310.2446521684994v-5" transform="translate(271.4025634295713,0)" style="stroke: rgb(0, 0, 0); stroke-opacity: 1; stroke-width: 1px;"/><path class="xtick ticks crisp" d="M0,310.2446521684994v-5" transform="translate(297.9925634295713,0)" style="stroke: rgb(0, 0, 0); stroke-opacity: 1; stroke-width: 1px;"/><path class="xtick ticks crisp" d="M0,310.2446521684994v-5" transform="translate(324.5925634295713,0)" style="stroke: rgb(0, 0, 0); stroke-opacity: 1; stroke-width: 1px;"/><path class="xtick ticks crisp" d="M0,310.2446521684994v-5" transform="translate(351.1825634295713,0)" style="stroke: rgb(0, 0, 0); stroke-opacity: 1; stroke-width: 1px;"/><path class="xtick ticks crisp" d="M0,310.2446521684994v-5" transform="translate(377.7825634295713,0)" style="stroke: rgb(0, 0, 0); stroke-opacity: 1; stroke-width: 1px;"/><path class="xtick ticks crisp" d="M0,310.2446521684994v-5" transform="translate(404.3725634295713,0)" style="stroke: rgb(0, 0, 0); stroke-opacity: 1; stroke-width: 1px;"/><path class="xtick ticks crisp" d="M0,310.2446521684994v-5" transform="translate(430.96256342957133,0)" style="stroke: rgb(0, 0, 0); stroke-opacity: 1; stroke-width: 1px;"/><path class="xtick ticks crisp" d="M0,310.2446521684994v-5" transform="translate(457.5625634295713,0)" style="stroke: rgb(0, 0, 0); stroke-opacity: 1; stroke-width: 1px;"/><path class="xtick ticks crisp" d="M0,310.2446521684994v-5" transform="translate(484.15256342957133,0)" style="stroke: rgb(0, 0, 0); stroke-opacity: 1; stroke-width: 1px;"/><path class="xtick ticks crisp" d="M0,310.2446521684994v-5" transform="translate(510.7525634295713,0)" style="stroke: rgb(0, 0, 0); stroke-opacity: 1; stroke-width: 1px;"/><path class="xtick ticks crisp" d="M0,310.2446521684994v-5" transform="translate(537.3425634295713,0)" style="stroke: rgb(0, 0, 0); stroke-opacity: 1; stroke-width: 1px;"/><path class="xtick ticks crisp" d="M0,310.2446521684994v-5" transform="translate(563.9425634295714,0)" style="stroke: rgb(0, 0, 0); stroke-opacity: 1; stroke-width: 1px;"/><path class="xtick ticks crisp" d="M0,310.2446521684994v-5" transform="translate(590.5325634295713,0)" style="stroke: rgb(0, 0, 0); stroke-opacity: 1; stroke-width: 1px;"/><path class="xtick ticks crisp" d="M0,310.2446521684994v-5" transform="translate(617.1325634295713,0)" style="stroke: rgb(0, 0, 0); stroke-opacity: 1; stroke-width: 1px;"/><path class="xtick ticks crisp" d="M0,310.2446521684994v-5" transform="translate(643.7225634295713,0)" style="stroke: rgb(0, 0, 0); stroke-opacity: 1; stroke-width: 1px;"/><path class="xtick ticks crisp" d="M0,310.2446521684994v-5" transform="translate(670.3225634295713,0)" style="stroke: rgb(0, 0, 0); stroke-opacity: 1; stroke-width: 1px;"/><path class="xtick ticks crisp" d="M0,310.2446521684994v-5" transform="translate(696.9125634295713,0)" style="stroke: rgb(0, 0, 0); stroke-opacity: 1; stroke-width: 1px;"/><g class="xtick"><text text-anchor="start" x="0" y="324.4446521684994" transform="translate(58.6425634295713,0) rotate(22,0,318.9446521684994)" style="font-family: sans-serif; font-size: 11px; fill: rgb(0, 0, 0); fill-opacity: 1; white-space: pre; opacity: 1;">2022-10-27 00:00:00</text></g><g class="xtick"><text text-anchor="start" x="0" y="324.4446521684994" style="font-family: sans-serif; font-size: 11px; fill: rgb(0, 0, 0); fill-opacity: 1; white-space: pre; opacity: 1;" transform="translate(85.2325634295713,0) rotate(22,0,318.9446521684994)">01:00:00</text></g><g class="xtick"><text text-anchor="start" x="0" y="324.4446521684994" style="font-family: sans-serif; font-size: 11px; fill: rgb(0, 0, 0); fill-opacity: 1; white-space: pre; opacity: 1;" transform="translate(111.83256342957131,0) rotate(22,0,318.9446521684994)">02:00:00</text></g><g class="xtick"><text text-anchor="start" x="0" y="324.4446521684994" style="font-family: sans-serif; font-size: 11px; fill: rgb(0, 0, 0); fill-opacity: 1; white-space: pre; opacity: 1;" transform="translate(138.4225634295713,0) rotate(22,0,318.9446521684994)">03:00:00</text></g><g class="xtick"><text text-anchor="start" x="0" y="324.4446521684994" style="font-family: sans-serif; font-size: 11px; fill: rgb(0, 0, 0); fill-opacity: 1; white-space: pre; opacity: 1;" transform="translate(165.0225634295713,0) rotate(22,0,318.9446521684994)">04:00:00</text></g><g class="xtick"><text text-anchor="start" x="0" y="324.4446521684994" style="font-family: sans-serif; font-size: 11px; fill: rgb(0, 0, 0); fill-opacity: 1; white-space: pre; opacity: 1;" transform="translate(191.6125634295713,0) rotate(22,0,318.9446521684994)">05:00:00</text></g><g class="xtick"><text text-anchor="start" x="0" y="324.4446521684994" style="font-family: sans-serif; font-size: 11px; fill: rgb(0, 0, 0); fill-opacity: 1; white-space: pre; opacity: 1;" transform="translate(218.2125634295713,0) rotate(22,0,318.9446521684994)">06:00:00</text></g><g class="xtick"><text text-anchor="start" x="0" y="324.4446521684994" style="font-family: sans-serif; font-size: 11px; fill: rgb(0, 0, 0); fill-opacity: 1; white-space: pre; opacity: 1;" transform="translate(244.8025634295713,0) rotate(22,0,318.9446521684994)">07:00:00</text></g><g class="xtick"><text text-anchor="start" x="0" y="324.4446521684994" style="font-family: sans-serif; font-size: 11px; fill: rgb(0, 0, 0); fill-opacity: 1; white-space: pre; opacity: 1;" transform="translate(271.4025634295713,0) rotate(22,0,318.9446521684994)">08:00:00</text></g><g class="xtick"><text text-anchor="start" x="0" y="324.4446521684994" style="font-family: sans-serif; font-size: 11px; fill: rgb(0, 0, 0); fill-opacity: 1; white-space: pre; opacity: 1;" transform="translate(297.9925634295713,0) rotate(22,0,318.9446521684994)">09:00:00</text></g><g class="xtick"><text text-anchor="start" x="0" y="324.4446521684994" style="font-family: sans-serif; font-size: 11px; fill: rgb(0, 0, 0); fill-opacity: 1; white-space: pre; opacity: 1;" transform="translate(324.5925634295713,0) rotate(22,0,318.9446521684994)">10:00:00</text></g><g class="xtick"><text text-anchor="start" x="0" y="324.4446521684994" style="font-family: sans-serif; font-size: 11px; fill: rgb(0, 0, 0); fill-opacity: 1; white-space: pre; opacity: 1;" transform="translate(351.1825634295713,0) rotate(22,0,318.9446521684994)">11:00:00</text></g><g class="xtick"><text text-anchor="start" x="0" y="324.4446521684994" style="font-family: sans-serif; font-size: 11px; fill: rgb(0, 0, 0); fill-opacity: 1; white-space: pre; opacity: 1;" transform="translate(377.7825634295713,0) rotate(22,0,318.9446521684994)">12:00:00</text></g><g class="xtick"><text text-anchor="start" x="0" y="324.4446521684994" style="font-family: sans-serif; font-size: 11px; fill: rgb(0, 0, 0); fill-opacity: 1; white-space: pre; opacity: 1;" transform="translate(404.3725634295713,0) rotate(22,0,318.9446521684994)">13:00:00</text></g><g class="xtick"><text text-anchor="start" x="0" y="324.4446521684994" style="font-family: sans-serif; font-size: 11px; fill: rgb(0, 0, 0); fill-opacity: 1; white-space: pre; opacity: 1;" transform="translate(430.96256342957133,0) rotate(22,0,318.9446521684994)">14:00:00</text></g><g class="xtick"><text text-anchor="start" x="0" y="324.4446521684994" style="font-family: sans-serif; font-size: 11px; fill: rgb(0, 0, 0); fill-opacity: 1; white-space: pre; opacity: 1;" transform="translate(457.5625634295713,0) rotate(22,0,318.9446521684994)">15:00:00</text></g><g class="xtick"><text text-anchor="start" x="0" y="324.4446521684994" style="font-family: sans-serif; font-size: 11px; fill: rgb(0, 0, 0); fill-opacity: 1; white-space: pre; opacity: 1;" transform="translate(484.15256342957133,0) rotate(22,0,318.9446521684994)">16:00:00</text></g><g class="xtick"><text text-anchor="start" x="0" y="324.4446521684994" style="font-family: sans-serif; font-size: 11px; fill: rgb(0, 0, 0); fill-opacity: 1; white-space: pre; opacity: 1;" transform="translate(510.7525634295713,0) rotate(22,0,318.9446521684994)">17:00:00</text></g><g class="xtick"><text text-anchor="start" x="0" y="324.4446521684994" style="font-family: sans-serif; font-size: 11px; fill: rgb(0, 0, 0); fill-opacity: 1; white-space: pre; opacity: 1;" transform="translate(537.3425634295713,0) rotate(22,0,318.9446521684994)">18:00:00</text></g><g class="xtick"><text text-anchor="start" x="0" y="324.4446521684994" style="font-family: sans-serif; font-size: 11px; fill: rgb(0, 0, 0); fill-opacity: 1; white-space: pre; opacity: 1;" transform="translate(563.9425634295714,0) rotate(22,0,318.9446521684994)">19:00:00</text></g><g class="xtick"><text text-anchor="start" x="0" y="324.4446521684994" style="font-family: sans-serif; font-size: 11px; fill: rgb(0, 0, 0); fill-opacity: 1; white-space: pre; opacity: 1;" transform="translate(590.5325634295713,0) rotate(22,0,318.9446521684994)">20:00:00</text></g><g class="xtick"><text text-anchor="start" x="0" y="324.4446521684994" style="font-family: sans-serif; font-size: 11px; fill: rgb(0, 0, 0); fill-opacity: 1; white-space: pre; opacity: 1;" transform="translate(617.1325634295713,0) rotate(22,0,318.9446521684994)">21:00:00</text></g><g class="xtick"><text text-anchor="start" x="0" y="324.4446521684994" style="font-family: sans-serif; font-size: 11px; fill: rgb(0, 0, 0); fill-opacity: 1; white-space: pre; opacity: 1;" transform="translate(643.7225634295713,0) rotate(22,0,318.9446521684994)">22:00:00</text></g><g class="xtick"><text text-anchor="start" x="0" y="324.4446521684994" style="font-family: sans-serif; font-size: 11px; fill: rgb(0, 0, 0); fill-opacity: 1; white-space: pre; opacity: 1;" transform="translate(670.3225634295713,0) rotate(22,0,318.9446521684994)">23:00:00</text></g><g class="xtick"><text text-anchor="start" x="0" y="324.4446521684994" style="font-family: sans-serif; font-size: 11px; fill: rgb(0, 0, 0); fill-opacity: 1; white-space: pre; opacity: 0;" transform="translate(696.9125634295713,0) rotate(22,0,318.9446521684994)">2022-10-28 00:00:00</text></g></g><g class="yaxislayer-above"><path class="y2tick ticks crisp" d="M39.4925634295713,0h5" transform="translate(0,306.9272867141709)" style="stroke: rgb(0, 0, 0); stroke-opacity: 1; stroke-width: 1px;"/><path class="y2tick ticks crisp" d="M39.4925634295713,0h5" transform="translate(0,279.97728671417093)" style="stroke: rgb(0, 0, 0); stroke-opacity: 1; stroke-width: 1px;"/><path class="y2tick ticks crisp" d="M39.4925634295713,0h5" transform="translate(0,253.01728671417095)" style="stroke: rgb(0, 0, 0); stroke-opacity: 1; stroke-width: 1px;"/><path class="y2tick ticks crisp" d="M39.4925634295713,0h5" transform="translate(0,226.06728671417093)" style="stroke: rgb(0, 0, 0); stroke-opacity: 1; stroke-width: 1px;"/><path class="y2tick ticks crisp" d="M39.4925634295713,0h5" transform="translate(0,199.11728671417094)" style="stroke: rgb(0, 0, 0); stroke-opacity: 1; stroke-width: 1px;"/><g class="y2tick"><text text-anchor="end" x="36.292563429571295" y="3.8499999999999996" transform="translate(0,306.9272867141709)" style="font-family: sans-serif; font-size: 11px; fill: rgb(0, 0, 0); fill-opacity: 1; white-space: pre; opacity: 1;">0.00</text></g><g class="y2tick"><text text-anchor="end" x="36.292563429571295" y="3.8499999999999996" style="font-family: sans-serif; font-size: 11px; fill: rgb(0, 0, 0); fill-opacity: 1; white-space: pre; opacity: 1;" transform="translate(0,279.97728671417093)">0.05</text></g><g class="y2tick"><text text-anchor="end" x="36.292563429571295" y="3.8499999999999996" style="font-family: sans-serif; font-size: 11px; fill: rgb(0, 0, 0); fill-opacity: 1; white-space: pre; opacity: 1;" transform="translate(0,253.01728671417095)">0.10</text></g><g class="y2tick"><text text-anchor="end" x="36.292563429571295" y="3.8499999999999996" style="font-family: sans-serif; font-size: 11px; fill: rgb(0, 0, 0); fill-opacity: 1; white-space: pre; opacity: 1;" transform="translate(0,226.06728671417093)">0.15</text></g><g class="y2tick"><text text-anchor="end" x="36.292563429571295" y="3.8499999999999996" style="font-family: sans-serif; font-size: 11px; fill: rgb(0, 0, 0); fill-opacity: 1; white-space: pre; opacity: 1;" transform="translate(0,199.11728671417094)">0.20</text></g></g><g class="overaxes-above"/></g></g><g class="polarlayer"/><g class="ternarylayer"/><g class="geolayer"/><g class="funnelarealayer"/><g class="pielayer"/><g class="iciclelayer"/><g class="treemaplayer"/><g class="sunburstlayer"/><g class="glimages"/><defs id="topdefs-813b82"><g class="clips"/></defs><g class="layer-above"><g class="imagelayer"/><g class="shapelayer"/></g><g class="infolayer"><g class="g-gtitle"/><g class="g-xtitle"/><g class="g-ytitle"/><g class="g-y2title"/><g class="annotation" data-index="0" style="opacity: 1;"><g class="annotation-text-g" transform="rotate(0,377.77777777777777,33)"><g class="cursor-pointer" transform="translate(305,20)"><rect class="bg" x="0.5" y="0.5" width="144" height="25" style="stroke-width: 1px; stroke: rgb(0, 0, 0); stroke-opacity: 0; fill: rgb(0, 0, 0); fill-opacity: 0;"/><text class="annotation-text" text-anchor="middle" x="72.3798828125" y="19.939453125" style="font-family: sans-serif; font-size: 20px; fill: rgb(0, 0, 0); fill-opacity: 1; white-space: pre;">l_write | counter</text></g></g></g><g class="annotation" data-index="1" style="opacity: 1;"><g class="annotation-text-g" transform="rotate(0,377.77777777777777,184.89397962755675)"><g class="cursor-pointer" transform="translate(321,172)"><rect class="bg" x="0.5" y="0.5" width="112" height="25" style="stroke-width: 1px; stroke: rgb(0, 0, 0); stroke-opacity: 0; fill: rgb(0, 0, 0); fill-opacity: 0;"/><text class="annotation-text" text-anchor="middle" x="56.2626953125" y="19.939453125" style="font-family: sans-serif; font-size: 20px; fill: rgb(0, 0, 0); fill-opacity: 1; white-space: pre;">l_write | rate</text></g></g></g></g></svg>