<svg class="main-svg" xmlns="http://www.w3.org/2000/svg" xmlns:xlink="http://www.w3.org/1999/xlink" width="720" height="300" style=""><rect x="0" y="0" width="720" height="300" style="fill: rgb(255, 255, 255); fill-opacity: 1;"/><defs id="defs-76d4e7"><g class="clips"><clipPath id="clip76d4e7xyplot" class="plotclip"><rect width="658.7926509186352" height="188.50419396188062"/></clipPath><clipPath class="axesclip" id="clip76d4e7x"><rect x="57.27034120734907" y="0" width="658.7926509186352" height="300"/></clipPath><clipPath class="axesclip" id="clip76d4e7y"><rect x="0" y="40.26392534266549" width="720" height="188.50419396188062"/></clipPath><clipPath class="axesclip" id="clip76d4e7xy"><rect x="57.27034120734907" y="40.26392534266549" width="658.7926509186352" height="188.50419396188062"/></clipPath></g><g class="gradients"/><g class="patterns"/></defs><g class="bglayer"/><g class="layer-below"><g class="imagelayer"/><g class="shapelayer"/></g><g class="cartesianlayer"><g class="subplot xy"><g class="layer-subplot"><g class="shapelayer"/><g class="imagelayer"/></g><g class="gridlayer"><g class="x"><path class="xgrid crisp" transform="translate(75.92034120734907,0)" d="M0,40.26392534266549v188.50419396188062" style="stroke: rgb(0, 0, 0); stroke-opacity: 0.1; stroke-width: 0.5px;"/><path class="xgrid crisp" transform="translate(101.81034120734907,0)" d="M0,40.26392534266549v188.50419396188062" style="stroke: rgb(0, 0, 0); stroke-opacity: 0.1; stroke-width: 0.5px;"/><path class="xgrid crisp" transform="translate(127.71034120734907,0)" d="M0,40.26392534266549v188.50419396188062" style="stroke: rgb(0, 0, 0); stroke-opacity: 0.1; stroke-width: 0.5px;"/><path class="xgrid crisp" transform="translate(153.60034120734906,0)" d="M0,40.26392534266549v188.50419396188062" style="stroke: rgb(0, 0, 0); stroke-opacity: 0.1; stroke-width: 0.5px;"/><path class="xgrid crisp" transform="translate(179.50034120734907,0)" d="M0,40.26392534266549v188.50419396188062" style="stroke: rgb(0, 0, 0); stroke-opacity: 0.1; stroke-width: 0.5px;"/><path class="xgrid crisp" transform="translate(205.39034120734908,0)" d="M0,40.26392534266549v188.50419396188062" style="stroke: rgb(0, 0, 0); stroke-opacity: 0.1; stroke-width: 0.5px;"/><path class="xgrid crisp" transform="translate(231.2903412073491,0)" d="M0,40.26392534266549v188.50419396188062" style="stroke: rgb(0, 0, 0); stroke-opacity: 0.1; stroke-width: 0.5px;"/><path class="xgrid crisp" transform="translate(257.19034120734904,0)" d="M0,40.26392534266549v188.50419396188062" style="stroke: rgb(0, 0, 0); stroke-opacity: 0.1; stroke-width: 0.5px;"/><path class="xgrid crisp" transform="translate(283.0803412073491,0)" d="M0,40.26392534266549v188.50419396188062" style="stroke: rgb(0, 0, 0); stroke-opacity: 0.1; stroke-width: 0.5px;"/><path class="xgrid crisp" transform="translate(308.98034120734906,0)" d="M0,40.26392534266549v188.50419396188062" style="stroke: rgb(0, 0, 0); stroke-opacity: 0.1; stroke-width: 0.5px;"/><path class="xgrid crisp" transform="translate(334.8703412073491,0)" d="M0,40.26392534266549v188.50419396188062" style="stroke: rgb(0, 0, 0); stroke-opacity: 0.1; stroke-width: 0.5px;"/><path class="xgrid crisp" transform="translate(360.7703412073491,0)" d="M0,40.26392534266549v188.50419396188062" style="stroke: rgb(0, 0, 0); stroke-opacity: 0.1; stroke-width: 0.5px;"/><path class="xgrid crisp" transform="translate(386.67034120734905,0)" d="M0,40.26392534266549v188.50419396188062" style="stroke: rgb(0, 0, 0); stroke-opacity: 0.1; stroke-width: 0.5px;"/><path class="xgrid crisp" transform="translate(412.5603412073491,0)" d="M0,40.26392534266549v188.50419396188062" style="stroke: rgb(0, 0, 0); stroke-opacity: 0.1; stroke-width: 0.5px;"/><path class="xgrid crisp" transform="translate(438.4603412073491,0)" d="M0,40.26392534266549v188.50419396188062" style="stroke: rgb(0, 0, 0); stroke-opacity: 0.1; stroke-width: 0.5px;"/><path class="xgrid crisp" transform="translate(464.35034120734906,0)" d="M0,40.26392534266549v188.50419396188062" style="stroke: rgb(0, 0, 0); stroke-opacity: 0.1; stroke-width: 0.5px;"/><path class="xgrid crisp" transform="translate(490.2503412073491,0)" d="M0,40.26392534266549v188.50419396188062" style="stroke: rgb(0, 0, 0); stroke-opacity: 0.1; stroke-width: 0.5px;"/><path class="xgrid crisp" transform="translate(516.150341207349,0)" d="M0,40.26392534266549v188.50419396188062" style="stroke: rgb(0, 0, 0); stroke-opacity: 0.1; stroke-width: 0.5px;"/><path class="xgrid crisp" transform="translate(542.040341207349,0)" d="M0,40.26392534266549v188.50419396188062" style="stroke: rgb(0, 0, 0); stroke-opacity: 0.1; stroke-width: 0.5px;"/><path class="xgrid crisp" transform="translate(567.9403412073491,0)" d="M0,40.26392534266549v188.50419396188062" style="stroke: rgb(0, 0, 0); stroke-opacity: 0.1; stroke-width: 0.5px;"/><path class="xgrid crisp" transform="translate(593.830341207349,0)" d="M0,40.26392534266549v188.50419396188062" style="stroke: rgb(0, 0, 0); stroke-opacity: 0.1; stroke-width: 0.5px;"/><path class="xgrid crisp" transform="translate(619.730341207349,0)" d="M0,40.26392534266549v188.50419396188062" style="stroke: rgb(0, 0, 0); stroke-opacity: 0.1; stroke-width: 0.5px;"/><path class="xgrid crisp" transform="translate(645.630341207349,0)" d="M0,40.26392534266549v188.50419396188062" style="stroke: rgb(0, 0, 0); stroke-opacity: 0.1; stroke-width: 0.5px;"/><path class="xgrid crisp" transform="translate(671.520341207349,0)" d="M0,40.26392534266549v188.50419396188062" style="stroke: rgb(0, 0, 0); stroke-opacity: 0.1; stroke-width: 0.5px;"/><path class="xgrid crisp" transform="translate(697.420341207349,0)" d="M0,40.26392534266549v188.50419396188062" style="stroke: rgb(0, 0, 0); stroke-opacity: 0.1; stroke-width: 0.5px;"/></g><g class="y"><path class="ygrid crisp" transform="translate(0,223.43392534266548)" d="M57.27034120734907,0h658.7926509186352" style="stroke: rgb(0, 0, 0); stroke-opacity: 0.1; stroke-width: 0.5px;"/><path class="ygrid crisp" transform="translate(0,173.7939253426655)" d="M57.27034120734907,0h658.7926509186352" style="stroke: rgb(0, 0, 0); stroke-opacity: 0.1; stroke-width: 0.5px;"/><path class="ygrid crisp" transform="translate(0,124.15392534266549)" d="M57.27034120734907,0h658.7926509186352" style="stroke: rgb(0, 0, 0); stroke-opacity: 0.1; stroke-width: 0.5px;"/><path class="ygrid crisp" transform="translate(0,74.51392534266549)" d="M57.27034120734907,0h658.7926509186352" style="stroke: rgb(0, 0, 0); stroke-opacity: 0.1; stroke-width: 0.5px;"/></g></g><g class="zerolinelayer"/><path class="xlines-below"/><path class="ylines-below"/><g class="overlines-below"/><g class="xaxislayer-below"/><g class="yaxislayer-below"/><g class="overaxes-below"/><g class="plot" transform="translate(57.27034120734907,40.26392534266549)" clip-path="url(#clip76d4e7xyplot)"><g class="scatterlayer mlayer"><g class="trace scatter trace6a180b" style="stroke-miterlimit: 2; opacity: 1;"><g class="fills"/><g class="errorbars"/><g class="lines"><path class="js-line" d="M18.65,182.92L19.51,182.92L19.51,85.81L21.23,86.53L21.23,83.02L22.1,83.02L22.1,79.45L22.96,79.45L22.96,82.71L23.82,82.71L23.82,81.42L25.55,81.28L25.55,77.93L27.28,77.77L27.28,76.51L28.14,76.51L28.14,82.17L29,82.17L29,78.2L29.87,78.2L29.87,76.82L30.73,76.82L30.73,73.03L31.59,73.03L31.59,74.08L33.32,74.38L33.32,75.97L34.18,75.97L34.18,78.12L35.05,78.12L35.05,76.13L35.91,76.13L35.91,73.33L37.64,73.2L37.64,74.15L38.5,74.15L38.5,71.64L39.36,71.64L39.36,73.12L41.95,73.85L41.95,74.55L42.81,74.55L42.81,78.23L43.68,78.23L43.68,81.21L45.4,81.42L45.4,84.74L46.27,84.74L46.27,85.92L47.13,85.92L47.13,87.59L47.99,87.59L47.99,90.98L49.72,90.5L49.72,86.91L50.58,86.91L50.58,84.35L51.45,84.35L51.45,80.54L52.31,80.54L52.31,77L53.17,77L53.17,73.63L54.04,73.63L54.04,74.95L54.9,74.95L54.9,70.21L55.76,70.21L55.76,68.84L56.63,68.84L56.63,64.76L57.49,64.76L57.49,70.58L58.35,70.58L58.35,73.71L59.22,73.71L59.22,80.69L60.08,80.69L60.08,81.74L60.94,81.74L60.94,76.7L61.8,76.7L61.8,78.5L62.67,78.5L62.67,79.28L63.53,79.28L63.53,75.13L64.39,75.13L64.39,82.45L65.26,82.45L65.26,89.23L66.12,89.23L66.12,85.81L66.98,85.81L66.98,83.35L67.85,83.35L67.85,79.62L68.71,79.62L68.71,70.41L69.57,70.41L69.57,68.36L71.3,67.63L71.3,66.54L72.16,66.54L72.16,69.43L73.89,70.02L73.89,78.09L74.75,78.09L74.75,76.47L75.62,76.47L75.62,79.56L76.48,79.56L76.48,87.91L77.34,87.91L77.34,89.4L78.21,89.4L78.21,84.16L79.07,84.16L79.07,86.84L79.93,86.84L79.93,85.21L80.8,85.21L80.8,86.56L81.66,86.56L81.66,84.88L82.52,84.88L82.52,82.13L83.38,82.13L83.38,75.41L84.25,75.41L84.25,73.52L85.11,73.52L85.11,78.02L85.97,78.02L85.97,80.17L86.84,80.17L86.84,75.25L87.7,75.25L87.7,73.56L88.56,73.56L88.56,75.9L89.43,75.9L89.43,79.4L90.29,79.4L90.29,77.69L91.15,77.69L91.15,79.85L92.02,79.85L92.02,80.69L92.88,80.69L92.88,82.08L93.74,82.08L93.74,81.26L94.61,81.26L94.61,84.24L95.47,84.24L95.47,90.33L96.33,90.33L96.33,91.77L98.06,91.23L98.06,88.86L99.79,88.74L99.79,85.32L100.65,85.32L100.65,81.36L101.51,81.36L101.51,79.46L102.38,79.46L102.38,83.83L103.24,83.83L103.24,82.46L104.1,82.46L104.1,80.64L104.96,80.64L104.96,78.19L105.83,78.19L105.83,79.23L106.69,79.23L106.69,80.12L107.55,80.12L107.55,81.15L108.42,81.15L108.42,77.89L111.01,78.06L111.01,86.49L111.87,86.49L111.87,89.11L112.73,89.11L112.73,93.76L113.6,93.76L113.6,92.44L114.46,92.44L114.46,89.42L115.32,89.42L115.32,86.41L116.19,86.41L116.19,84.65L117.05,84.65L117.05,83.23L117.91,83.23L117.91,82.04L118.78,82.04L118.78,82.86L120.5,82.48L120.5,78.73L121.37,78.73L121.37,84.65L122.23,84.65L122.23,86.28L123.09,86.28L123.09,82.91L123.96,82.91L123.96,79.84L124.82,79.84L124.82,84.2L125.68,84.2L125.68,82.79L126.54,82.79L126.54,81.15L127.41,81.15L127.41,79.83L128.27,79.83L128.27,83.28L129.13,83.28L129.13,89.85L130,89.85L130,92.95L130.86,92.95L130.86,88.83L131.72,88.83L131.72,92.37L133.45,92.87L133.45,92.03L134.31,92.03L134.31,87.64L135.18,87.64L135.18,89.16L136.04,89.16L136.04,88.2L136.9,88.2L136.9,89.97L137.77,89.97L137.77,82.16L138.63,82.16L138.63,81.26L139.49,81.26L139.49,78.98L140.36,78.98L140.36,80.65L142.08,81.36L142.08,79.04L142.95,79.04L142.95,77.25L143.81,77.25L143.81,72.08L146.4,71.99L146.4,75.98L147.26,75.98L147.26,81.1L148.12,81.1L148.12,83.02L148.99,83.02L148.99,87.49L149.85,87.49L149.85,93.28L150.71,93.28L150.71,97.89L151.58,97.89L151.58,94.41L155.03,93.87L155.03,88.65L155.89,88.65L155.89,84.11L156.76,84.11L156.76,82.08L157.62,82.08L157.62,78.96L159.35,79.27L159.35,83.93L160.21,83.93L160.21,80.53L161.07,80.53L161.07,85.15L161.94,85.15L161.94,83.26L162.8,83.26L162.8,82.33L164.53,82.24L164.53,75.99L165.39,75.99L165.39,82.65L166.25,82.65L166.25,74.34L167.12,74.34L167.12,69.71L167.98,69.71L167.98,74.45L168.84,74.45L168.84,75.32L170.57,75.1L170.57,74.47L172.29,74.54L172.29,73.21L173.16,73.21L173.16,76.51L174.88,76L174.88,74.9L175.75,74.9L175.75,75.7L176.61,75.7L176.61,82.04L177.47,82.04L177.47,90.41L178.34,90.41L178.34,88.46L179.2,88.46L179.2,79.19L180.06,79.19L180.06,73.74L180.93,73.74L180.93,43.16L181.79,43.16L181.79,71.91L182.65,71.91L182.65,61.81L183.52,61.81L183.52,42.31L184.38,42.31L184.38,75.54L185.24,75.54L185.24,71.89L186.11,71.89L186.11,70.45L186.97,70.45L186.97,72.82L188.7,72.39L188.7,68.09L189.56,68.09L189.56,60.45L190.42,60.45L190.42,54.73L191.28,54.73L191.28,45.17L192.15,45.17L192.15,61.2L193.87,61.78L193.87,69.05L195.6,69.08L195.6,70.73L196.46,70.73L196.46,67.64L197.33,67.64L197.33,65.7L198.19,65.7L198.19,56.79L199.05,56.79L199.05,52.99L199.92,52.99L199.92,62.76L200.78,62.76L200.78,73.22L201.64,73.22L201.64,46.83L202.51,46.83L202.51,64.63L203.37,64.63L203.37,33.16L205.1,32.82L205.1,26.12L206.82,26.21L206.82,45.7L207.69,45.7L207.69,20.4L208.55,20.4L208.55,13.97L209.41,13.97L209.41,16.63L210.28,16.63L210.28,12.69L211.14,12.69L211.14,10.97L212,10.97L212,5.34L212.86,5.34L212.86,10.41L213.73,10.41L213.73,16.87L214.59,16.87L214.59,11.13L215.45,11.13L215.45,20.63L216.32,20.63L216.32,71.37L217.18,71.37L217.18,54.48L218.04,54.48L218.04,76.16L218.91,76.16L218.91,74.01L219.77,74.01L219.77,70.7L220.63,70.7L220.63,68.42L221.5,68.42L221.5,63.42L222.36,63.42L222.36,67.31L224.09,67.27L224.09,69.16L226.68,69.48L226.68,65L228.4,65.59L228.4,43.51L229.27,43.51L229.27,47.13L230.13,47.13L230.13,43.07L230.99,43.07L230.99,42.24L231.85,42.24L231.85,48.88L232.72,48.88L232.72,53.8L233.58,53.8L233.58,42.5L234.44,42.5L234.44,35.24L235.31,35.24L235.31,51.77L236.17,51.77L236.17,45.72L237.03,45.72L237.03,53.17L237.9,53.17L237.9,31.49L238.76,31.49L238.76,50.6L239.62,50.6L239.62,63.18L240.49,63.18L240.49,58.09L241.35,58.09L241.35,53.4L242.21,53.4L242.21,51.5L243.08,51.5L243.08,60.1L243.94,60.1L243.94,63.22L244.8,63.22L244.8,54.68L246.53,54.94L246.53,59.85L248.26,59.14L248.26,66.9L249.12,66.9L249.12,61.64L249.98,61.64L249.98,62.53L251.71,62.94L251.71,63.43L252.57,63.43L252.57,60.26L254.3,59.83L254.3,58.12L255.16,58.12L255.16,62.8L256.02,62.8L256.02,69.52L256.89,69.52L256.89,71.21L257.75,71.21L257.75,70.43L258.61,70.43L258.61,76.4L259.48,76.4L259.48,73.03L260.34,73.03L260.34,74.49L261.2,74.49L261.2,72.01L262.07,72.01L262.07,67.77L262.93,67.77L262.93,72.83L263.79,72.83L263.79,67.69L264.66,67.69L264.66,38.3L265.52,38.3L265.52,42.39L266.38,42.39L266.38,25.97L267.25,25.97L267.25,47.12L268.97,46.85L268.97,44.26L269.84,44.26L269.84,45.28L270.7,45.28L270.7,47.7L271.56,47.7L271.56,63.48L272.43,63.48L272.43,68L273.29,68L273.29,66.89L274.15,66.89L274.15,65.01L275.01,65.01L275.01,66.48L276.74,65.91L276.74,65.09L277.6,65.09L277.6,70.43L278.47,70.43L278.47,67.14L280.19,66.56L280.19,56.17L281.06,56.17L281.06,57.72L281.92,57.72L281.92,60.55L282.78,60.55L282.78,61.65L283.65,61.65L283.65,66.8L284.51,66.8L284.51,71.37L285.37,71.37L285.37,60.15L287.1,60.74L287.1,59.73L287.96,59.73L287.96,58.42L288.83,58.42L288.83,67.46L289.69,67.46L289.69,69.44L290.55,69.44L290.55,72.44L291.42,72.44L291.42,69.36L292.28,69.36L292.28,65.74L293.14,65.74L293.14,64L294.01,64L294.01,64.83L294.87,64.83L294.87,69.84L295.73,69.84L295.73,68.52L296.59,68.52L296.59,71.13L297.46,71.13L297.46,72.63L298.32,72.63L298.32,70.58L299.18,70.58L299.18,68.54L300.05,68.54L300.05,66.95L300.91,66.95L300.91,64.61L301.77,64.61L301.77,68.89L302.64,68.89L302.64,71.78L303.5,71.78L303.5,65.97L305.23,66.07L305.23,72.19L306.95,72.63L306.95,55.9L308.68,56.18L308.68,54.68L309.54,54.68L309.54,56.61L310.41,56.61L310.41,57.45L311.27,57.45L311.27,49.67L312.13,49.67L312.13,65.4L313,65.4L313,27.4L313.86,27.4L313.86,40.89L314.72,40.89L314.72,62.93L315.59,62.93L315.59,55.06L316.45,55.06L316.45,61.95L317.31,61.95L317.31,64.57L318.17,64.57L318.17,68.55L319.04,68.55L319.04,76.29L319.9,76.29L319.9,74.5L320.76,74.5L320.76,70.34L321.63,70.34L321.63,63.62L322.49,63.62L322.49,56.94L323.35,56.94L323.35,59.04L324.22,59.04L324.22,57.17L325.08,57.17L325.08,59.99L325.94,59.99L325.94,72.22L326.81,72.22L326.81,57.56L327.67,57.56L327.67,49.43L328.53,49.43L328.53,55.23L330.26,55.32L330.26,41.58L331.12,41.58L331.12,38.48L331.99,38.48L331.99,69.47L332.85,69.47L332.85,136.77L335.44,137.24L335.44,142.39L336.3,142.39L336.3,139.91L337.17,139.91L337.17,137.63L338.03,137.63L338.03,143.51L338.89,143.51L338.89,149.07L339.75,149.07L339.75,150.73L341.48,151.19L341.48,149.93L343.21,149.43L343.21,143.31L344.07,143.31L344.07,127.91L344.93,127.91L344.93,147.84L345.8,147.84L345.8,148.85L348.39,148.62L348.39,150L349.25,150L349.25,147.94L350.98,147.93L350.98,148.74L351.84,148.74L351.84,144.73L353.57,144.82L353.57,147.44L354.43,147.44L354.43,140.22L355.29,140.22L355.29,148.2L357.02,148.74L357.02,149.78L357.88,149.78L357.88,148.9L358.75,148.9L358.75,146.01L359.61,146.01L359.61,149.68L360.47,149.68L360.47,148.7L361.33,148.7L361.33,147.66L363.06,147.21L363.06,144.07L363.92,144.07L363.92,148.01L364.79,148.01L364.79,145.76L365.65,145.76L365.65,146.59L366.51,146.59L366.51,150.02L367.38,150.02L367.38,148.31L368.24,148.31L368.24,149.51L369.1,149.51L369.1,146.51L369.97,146.51L369.97,150.18L370.83,150.18L370.83,141.75L371.69,141.75L371.69,148.63L372.56,148.63L372.56,142.92L373.42,142.92L373.42,151.88L374.28,151.88L374.28,145.05L375.15,145.05L375.15,152.07L376.01,152.07L376.01,144.68L376.87,144.68L376.87,151.29L377.74,151.29L377.74,147.54L378.6,147.54L378.6,148.79L379.46,148.79L379.46,144.84L380.33,144.84L380.33,151.57L381.19,151.57L381.19,152.52L382.05,152.52L382.05,150.82L382.91,150.82L382.91,153.94L383.78,153.94L383.78,133.64L384.64,133.64L384.64,144.89L385.5,144.89L385.5,155.05L386.37,155.05L386.37,151.92L387.23,151.92L387.23,150.63L388.09,150.63L388.09,153.3L388.96,153.3L388.96,152.19L389.82,152.19L389.82,153.14L391.55,152.94L391.55,152.25L392.41,152.25L392.41,151.09L393.27,151.09L393.27,148.78L394.14,148.78L394.14,146.14L395.86,146.29L395.86,151.95L396.73,151.95L396.73,153.22L399.32,152.74L399.32,151.54L401.04,152.24L401.04,150L401.9,150L401.9,154.89L402.77,154.89L402.77,136.31L403.63,136.31L403.63,151.82L404.49,151.82L404.49,152.91L405.36,152.91L405.36,155.48L407.08,154.81L407.08,154L407.95,154L407.95,153.02L409.67,153.67L409.67,142.42L410.54,142.42L410.54,141.37L411.4,141.37L411.4,157.22L412.26,157.22L412.26,154.06L413.13,154.06L413.13,158.33L413.99,158.33L413.99,153.04L414.85,153.04L414.85,154.33L415.72,154.33L415.72,157.01L419.17,156.59L419.17,155.51L420.03,155.51L420.03,151.85L420.9,151.85L420.9,148.85L422.62,149.23L422.62,154.78L423.48,154.78L423.48,156.19L424.35,156.19L424.35,154.25L426.07,154.73L426.07,153.41L427.8,153.25L427.8,154.64L428.66,154.64L428.66,153.36L430.39,153.75L430.39,156.12L432.12,156.86L432.12,157.1L432.98,157.1L432.98,155.96L433.84,155.96L433.84,153.03L435.57,153.25L435.57,140.01L436.43,140.01L436.43,152.91L437.3,152.91L437.3,156.32L438.16,156.32L438.16,157.88L439.89,158.51L439.89,156.91L442.48,157.49L442.48,155.85L443.34,155.85L443.34,156.98L445.93,156.97L445.93,157.87L446.79,157.87L446.79,157.11L451.11,156.5L451.11,157.58L452.83,158.02L452.83,158.39L453.7,158.39L453.7,154.95L454.56,154.95L454.56,156.92L456.29,156.6L456.29,155.06L457.15,155.06L457.15,152.4L458.01,152.4L458.01,156.6L458.88,156.6L458.88,158.17L460.6,158.47L460.6,157.68L462.33,157.93L462.33,158.57L463.19,158.57L463.19,157.78L464.06,157.78L464.06,156.72L464.92,156.72L464.92,159.86L465.78,159.86L465.78,158.46L466.64,158.46L466.64,157.34L471.82,157.34L471.82,158.38L472.69,158.38L472.69,157.37L473.55,157.37L473.55,158.88L475.28,158.66L475.28,157.97L477.87,158.1L477.87,154.5L478.73,154.5L478.73,155.97L480.46,155.41L480.46,158.35L483.91,157.94L483.91,156.99L484.77,156.99L484.77,140.41L485.64,140.41L485.64,155.82L486.5,155.82L486.5,151.75L487.36,151.75L487.36,141.06L488.22,141.06L488.22,149.29L489.09,149.29L489.09,141.06L489.95,141.06L489.95,154.53L491.68,154.14L491.68,136.31L492.54,136.31L492.54,147L493.4,147L493.4,141.84L494.27,141.84L494.27,155L495.13,155L495.13,146.54L495.99,146.54L495.99,144.47L496.86,144.47L496.86,152.95L498.58,152.51L498.58,141.63L499.45,141.63L499.45,143.18L501.17,143.77L501.17,145.58L502.04,145.58L502.04,142.72L502.9,142.72L502.9,152.24L503.76,152.24L503.76,148.69L504.63,148.69L504.63,140.14L505.49,140.14L505.49,150.77L506.35,150.77L506.35,135.16L507.22,135.16L507.22,147.65L508.08,147.65L508.08,141.25L508.94,141.25L508.94,152.18L509.8,152.18L509.8,154.16L510.67,154.16L510.67,138.92L511.53,138.92L511.53,152.24L512.39,152.24L512.39,156.84L515.85,157.41L515.85,158.07L521.03,157.95L521.03,158.84L522.75,159.14L522.75,158.24L524.48,157.88L524.48,158.93L525.34,158.93L525.34,157.5L526.21,157.5L526.21,158.81L527.93,158.53L527.93,160.27L529.66,159.8L529.66,158.9L534.84,158.41L534.84,159.61L536.56,159.36L536.56,160.14L537.43,160.14L537.43,156.05L538.29,156.05L538.29,160.21L539.15,160.21L539.15,159.31L540.02,159.31L540.02,158.43L541.74,158.88L541.74,160.63L545.2,160.3L545.2,159.6L546.92,160.14L546.92,159.07L548.65,159.49L548.65,160.58L549.51,160.58L549.51,159.15L550.37,159.15L550.37,160.44L552.1,160.1L552.1,150.12L552.96,150.12L552.96,160.12L553.83,160.12L553.83,158.1L555.55,158.2L555.55,160.36L560.73,159.88L560.73,156.73L561.6,156.73L561.6,160.14L564.19,160.19L564.19,161.55L565.91,160.9L565.91,160.55L567.64,160.65L567.64,159.7L569.37,159.98L569.37,160.83L570.23,160.83L570.23,161.61L571.09,161.61L571.09,160.74L574.54,161.25L574.54,159.84L575.41,159.84L575.41,161L578,160.88L578,161.11L579.72,161.73L579.72,160.79L583.18,160.82L583.18,159.83L584.04,159.83L584.04,161.89L584.9,161.89L584.9,160.84L587.49,160.73L587.49,161.49L588.36,161.49L588.36,160.53L590.08,159.84L590.08,160.93L592.67,161.15L592.67,162.11L593.53,162.11L593.53,160.56L597.85,160.77L597.85,158.83L598.71,158.83L598.71,159.74L599.58,159.74L599.58,161.26L600.44,161.26L600.44,160.45L601.3,160.45L601.3,161.67L602.17,161.67L602.17,160.06L603.03,160.06L603.03,157.27L604.76,157.42L604.76,158.81L605.62,158.81L605.62,159.68L608.21,160L608.21,160.97L610.8,160.62L610.8,155.09L611.66,155.09L611.66,159.77L612.53,159.77L612.53,160.92L614.25,160.71L614.25,159.99L616.84,160.6L616.84,155.37L618.57,155.92L618.57,160.28L619.43,160.28L619.43,161.15L620.29,161.15L620.29,159.87L621.16,159.87L621.16,158.46L622.88,159.1L622.88,158.21L625.47,158.68L625.47,159.54L627.2,159.54L627.2,160.87L628.93,160.4L628.93,159.99L631.52,159.86L631.52,159.32L632.38,159.32L632.38,160.15L634.11,160.26L634.11,160.98L634.97,160.98L634.97,160.09L636.69,159.43L636.69,159.05L638.42,159.78L638.42,160.5L640.15,160.19L640.15,183.17" style="vector-effect: non-scaling-stroke; fill: none; stroke: rgb(0, 154, 250); stroke-opacity: 0.5; stroke-width: 1px; opacity: 1;"/></g><g class="points"/><g class="text"/></g><g class="trace scatter tracef565f1" style="stroke-miterlimit: 2; opacity: 1;"><g class="fills"/><g class="errorbars"/><g class="lines"><path class="js-line" d="M18.65,183.17L640.15,183.17L640.15,183.17" style="vector-effect: non-scaling-stroke; fill: none; stroke: rgb(227, 111, 71); stroke-opacity: 0.5; stroke-width: 1px; opacity: 1;"/></g><g class="points"/><g class="text"/></g><g class="trace scatter trace229b6a" style="stroke-miterlimit: 2; opacity: 1;"><g class="fills"/><g class="errorbars"/><g class="lines"><path class="js-line" d="M18.65,181.21L19.51,181.21L19.51,178.47L33.32,178.02L33.32,177.7L34.18,177.7L34.18,178.91L35.05,178.91L35.05,177.93L40.23,177.93L40.23,178.97L41.09,178.97L41.09,177.99L41.95,177.99L41.95,178.95L42.81,178.95L42.81,178.14L47.99,178.29L47.99,177.61L48.86,177.61L48.86,178.41L50.58,178.82L50.58,177.89L55.76,178.01L55.76,178.55L62.67,178.72L62.67,177.43L63.53,177.43L63.53,178.42L69.57,178.27L69.57,178.71L71.3,178.1L71.3,177.66L72.16,177.66L72.16,178.69L79.93,178.14L79.93,177.09L80.8,177.09L80.8,178.7L83.38,178.79L83.38,177.29L84.25,177.29L84.25,178.34L89.43,178.62L89.43,177.67L90.29,177.67L90.29,179.09L91.15,179.09L91.15,177.97L97.2,178.09L97.2,177.53L98.06,177.53L98.06,178.62L107.55,178.19L107.55,178.86L112.73,178.72L112.73,177.88L113.6,177.88L113.6,178.91L117.91,178.71L117.91,179.15L126.54,178.96L126.54,178.41L138.63,178.87L138.63,179.28L139.49,179.28L139.49,178.52L146.4,178.87L146.4,179.2L148.12,178.7L148.12,179.48L148.99,179.48L148.99,178.48L152.44,179.06L152.44,178.33L154.17,178.77L154.17,179.09L158.48,179.2L158.48,178.03L159.35,178.03L159.35,179.24L165.39,178.93L165.39,179.6L167.98,179.44L167.98,178.52L168.84,178.52L168.84,179.41L174.88,178.93L174.88,179.75L175.75,179.75L175.75,178.9L183.52,179.01L183.52,179.39L191.28,178.89L191.28,179.71L193.87,179.35L193.87,178.93L199.05,179.22L199.05,179.8L201.64,179.61L201.64,178.96L207.69,179.38L207.69,178.65L209.41,179.37L209.41,177.62L210.28,177.62L210.28,178.83L219.77,178.91L219.77,178.49L222.36,178.14L222.36,179.22L224.95,179.75L224.95,178.94L226.68,179.65L226.68,178.71L231.85,178.62L231.85,179.41L233.58,178.69L233.58,178.58L236.17,178.07L236.17,177.11L240.49,177.07L240.49,178.25L243.08,177.84L243.08,178.61L252.57,178.63L252.57,178.86L256.02,178.54L256.02,177.65L258.61,178.21L258.61,178.98L263.79,178.53L263.79,178.08L266.38,178.36L266.38,170.65L267.25,170.65L267.25,178.36L274.15,178.65L274.15,179.06L276.74,178.8L276.74,177.16L277.6,177.16L277.6,178.62L281.92,179.1L281.92,177.92L282.78,177.92L282.78,179L285.37,178.78L285.37,177.32L290.55,178.05L290.55,178.47L294.87,177.88L294.87,177.68L299.18,177.91L299.18,178.2L303.5,178.81L303.5,178.96L304.36,178.96L304.36,179.77L307.82,179.08L307.82,178.43L308.68,178.43L308.68,179.39L309.54,179.39L309.54,157.52L310.41,157.52L310.41,15.16L311.27,15.16L311.27,174.51L312.13,174.51L312.13,164.2L313,164.2L313,104.01L313.86,104.01L313.86,171.33L314.72,171.33L314.72,166.05L315.59,166.05L315.59,176.49L316.45,176.49L316.45,177.35L319.04,177.59L319.04,176.4L319.9,176.4L319.9,177.19L323.35,176.57L323.35,177.33L325.08,177.01L325.08,174.6L325.94,174.6L325.94,177.18L328.53,177.51L328.53,174.68L329.4,174.68L329.4,177.48L331.12,177.46L331.12,172.83L331.99,172.83L331.99,175.6L332.85,175.6L332.85,173.69L336.3,174.28L336.3,174.92L338.03,174.8L338.03,173.86L338.89,173.86L338.89,175.2L339.75,175.2L339.75,174.19L341.48,174.46L341.48,175.13L342.34,175.13L342.34,176.51L343.21,176.51L343.21,175.72L344.07,175.72L344.07,173.15L345.8,172.64L345.8,174.74L348.39,174.96L348.39,175.98L349.25,175.98L349.25,174.24L350.98,174.9L350.98,176.24L351.84,176.24L351.84,172.08L352.7,172.08L352.7,164.87L353.57,164.87L353.57,172.12L354.43,172.12L354.43,174.36L356.16,174.6L356.16,176L357.02,176L357.02,177.06L357.88,177.06L357.88,176.03L358.75,176.03L358.75,174.73L359.61,174.73L359.61,176.64L363.06,176.66L363.06,171.42L363.92,171.42L363.92,175.53L364.79,175.53L364.79,176.74L373.42,176.54L373.42,162.46L374.28,162.46L374.28,175.87L375.15,175.87L375.15,176.86L379.46,176.44L379.46,176.08L381.19,175.92L381.19,174.76L382.05,174.76L382.05,168.83L382.91,168.83L382.91,162.42L383.78,162.42L383.78,164.29L385.5,163.55L385.5,165.18L386.37,165.18L386.37,162.11L388.09,162.27L388.09,161.49L388.96,161.49L388.96,164.32L391.55,163.92L391.55,164.55L392.41,164.55L392.41,165.53L394.14,164.94L394.14,164.23L396.73,164.1L396.73,164.66L397.59,164.66L397.59,163.6L398.45,163.6L398.45,164.72L399.32,164.72L399.32,163.62L400.18,163.62L400.18,165.41L401.04,165.41L401.04,162.78L401.9,162.78L401.9,165.05L402.77,165.05L402.77,166.36L404.49,166.11L404.49,175.38L406.22,176.13L406.22,176.3L407.08,176.3L407.08,171.83L407.95,171.83L407.95,173.68L408.81,173.68L408.81,176.26L409.67,176.26L409.67,174.97L410.54,174.97L410.54,175.77L412.26,175.18L412.26,176.15L414.85,176.37L414.85,177.1L426.07,176.64L426.07,176.14L429.53,176.37L429.53,176.92L431.25,177.4L431.25,176.25L433.84,176.83L433.84,175.48L434.71,175.48L434.71,176.51L435.57,176.51L435.57,164.11L436.43,164.11L436.43,177.22L438.16,177.75L438.16,178.14L440.75,177.8L440.75,176.7L443.34,177.45L443.34,177.61L446.79,177.02L446.79,176.96L450.24,177.52L450.24,177.85L452.83,177.77L452.83,176.81L455.42,177.2L455.42,177.77L460.6,177.56L460.6,176.87L461.47,176.87L461.47,177.85L464.92,178.17L464.92,178.24L466.64,177.86L466.64,177.15L468.37,177.32L468.37,178.64L470.1,178.45L470.1,179.67L470.96,179.67L470.96,178.6L481.32,179.25L481.32,178.45L482.18,178.45L482.18,179.32L491.68,178.96L491.68,180.15L492.54,180.15L492.54,179.2L495.13,179.91L495.13,180.21L512.39,179.72L512.39,179.41L517.57,179.88L517.57,180.18L522.75,179.76L522.75,174.56L524.48,175.05L524.48,179.47L527.07,180.05L527.07,180.26L532.25,179.81L532.25,178.95L533.11,178.95L533.11,180.28L543.47,179.96L543.47,179.39L549.51,180.09L549.51,180.28L555.55,179.88L555.55,179.56L564.19,180.18L564.19,180.38L571.95,179.91L571.95,179.57L576.27,180.02L576.27,180.28L592.67,180.19L592.67,179.62L599.58,180.28L599.58,180.46L600.44,180.46L600.44,179.62L605.62,179.94L605.62,180.21L609.94,179.78L609.94,179.59L616.84,180.27L616.84,180.51L630.65,180.33L630.65,179.44L634.97,179.94L634.97,180.23L640.15,180.33L640.15,183.17" style="vector-effect: non-scaling-stroke; fill: none; stroke: rgb(62, 164, 78); stroke-opacity: 0.5; stroke-width: 1px; opacity: 1;"/></g><g class="points"/><g class="text"/></g><g class="trace scatter traced92574" style="stroke-miterlimit: 2; opacity: 1;"><g class="fills"/><g class="errorbars"/><g class="lines"><path class="js-line" d="M18.65,183.17L640.15,183.17L640.15,183.17" style="vector-effect: non-scaling-stroke; fill: none; stroke: rgb(195, 113, 210); stroke-opacity: 0.5; stroke-width: 1px; opacity: 1;"/></g><g class="points"/><g class="text"/></g></g></g><g class="overplot"/><path class="xlines-above crisp" d="M56.27034120734907,229.2681193045461H716.0629921259842" style="fill: none; stroke-width: 1px; stroke: rgb(0, 0, 0); stroke-opacity: 1;"/><path class="ylines-above crisp" d="M56.77034120734907,40.26392534266549V228.7681193045461" style="fill: none; stroke-width: 1px; stroke: rgb(0, 0, 0); stroke-opacity: 1;"/><g class="overlines-above"/><g class="xaxislayer-above"><path class="xtick ticks crisp" d="M0,228.7681193045461v-5" transform="translate(75.92034120734907,0)" style="stroke: rgb(0, 0, 0); stroke-opacity: 1; stroke-width: 1px;"/><path class="xtick ticks crisp" d="M0,228.7681193045461v-5" transform="translate(101.81034120734907,0)" style="stroke: rgb(0, 0, 0); stroke-opacity: 1; stroke-width: 1px;"/><path class="xtick ticks crisp" d="M0,228.7681193045461v-5" transform="translate(127.71034120734907,0)" style="stroke: rgb(0, 0, 0); stroke-opacity: 1; stroke-width: 1px;"/><path class="xtick ticks crisp" d="M0,228.7681193045461v-5" transform="translate(153.60034120734906,0)" style="stroke: rgb(0, 0, 0); stroke-opacity: 1; stroke-width: 1px;"/><path class="xtick ticks crisp" d="M0,228.7681193045461v-5" transform="translate(179.50034120734907,0)" style="stroke: rgb(0, 0, 0); stroke-opacity: 1; stroke-width: 1px;"/><path class="xtick ticks crisp" d="M0,228.7681193045461v-5" transform="translate(205.39034120734908,0)" style="stroke: rgb(0, 0, 0); stroke-opacity: 1; stroke-width: 1px;"/><path class="xtick ticks crisp" d="M0,228.7681193045461v-5" transform="translate(231.2903412073491,0)" style="stroke: rgb(0, 0, 0); stroke-opacity: 1; stroke-width: 1px;"/><path class="xtick ticks crisp" d="M0,228.7681193045461v-5" transform="translate(257.19034120734904,0)" style="stroke: rgb(0, 0, 0); stroke-opacity: 1; stroke-width: 1px;"/><path class="xtick ticks crisp" d="M0,228.7681193045461v-5" transform="translate(283.0803412073491,0)" style="stroke: rgb(0, 0, 0); stroke-opacity: 1; stroke-width: 1px;"/><path class="xtick ticks crisp" d="M0,228.7681193045461v-5" transform="translate(308.98034120734906,0)" style="stroke: rgb(0, 0, 0); stroke-opacity: 1; stroke-width: 1px;"/><path class="xtick ticks crisp" d="M0,228.7681193045461v-5" transform="translate(334.8703412073491,0)" style="stroke: rgb(0, 0, 0); stroke-opacity: 1; stroke-width: 1px;"/><path class="xtick ticks crisp" d="M0,228.7681193045461v-5" transform="translate(360.7703412073491,0)" style="stroke: rgb(0, 0, 0); stroke-opacity: 1; stroke-width: 1px;"/><path class="xtick ticks crisp" d="M0,228.7681193045461v-5" transform="translate(386.67034120734905,0)" style="stroke: rgb(0, 0, 0); stroke-opacity: 1; stroke-width: 1px;"/><path class="xtick ticks crisp" d="M0,228.7681193045461v-5" transform="translate(412.5603412073491,0)" style="stroke: rgb(0, 0, 0); stroke-opacity: 1; stroke-width: 1px;"/><path class="xtick ticks crisp" d="M0,228.7681193045461v-5" transform="translate(438.4603412073491,0)" style="stroke: rgb(0, 0, 0); stroke-opacity: 1; stroke-width: 1px;"/><path class="xtick ticks crisp" d="M0,228.7681193045461v-5" transform="translate(464.35034120734906,0)" style="stroke: rgb(0, 0, 0); stroke-opacity: 1; stroke-width: 1px;"/><path class="xtick ticks crisp" d="M0,228.7681193045461v-5" transform="translate(490.2503412073491,0)" style="stroke: rgb(0, 0, 0); stroke-opacity: 1; stroke-width: 1px;"/><path class="xtick ticks crisp" d="M0,228.7681193045461v-5" transform="translate(516.150341207349,0)" style="stroke: rgb(0, 0, 0); stroke-opacity: 1; stroke-width: 1px;"/><path class="xtick ticks crisp" d="M0,228.7681193045461v-5" transform="translate(542.040341207349,0)" style="stroke: rgb(0, 0, 0); stroke-opacity: 1; stroke-width: 1px;"/><path class="xtick ticks crisp" d="M0,228.7681193045461v-5" transform="translate(567.9403412073491,0)" style="stroke: rgb(0, 0, 0); stroke-opacity: 1; stroke-width: 1px;"/><path class="xtick ticks crisp" d="M0,228.7681193045461v-5" transform="translate(593.830341207349,0)" style="stroke: rgb(0, 0, 0); stroke-opacity: 1; stroke-width: 1px;"/><path class="xtick ticks crisp" d="M0,228.7681193045461v-5" transform="translate(619.730341207349,0)" style="stroke: rgb(0, 0, 0); stroke-opacity: 1; stroke-width: 1px;"/><path class="xtick ticks crisp" d="M0,228.7681193045461v-5" transform="translate(645.630341207349,0)" style="stroke: rgb(0, 0, 0); stroke-opacity: 1; stroke-width: 1px;"/><path class="xtick ticks crisp" d="M0,228.7681193045461v-5" transform="translate(671.520341207349,0)" style="stroke: rgb(0, 0, 0); stroke-opacity: 1; stroke-width: 1px;"/><path class="xtick ticks crisp" d="M0,228.7681193045461v-5" transform="translate(697.420341207349,0)" style="stroke: rgb(0, 0, 0); stroke-opacity: 1; stroke-width: 1px;"/><g class="xtick"><text text-anchor="start" x="0" y="239.3681193045461" transform="translate(75.92034120734907,0) rotate(22,0,235.3681193045461)" style="font-family: sans-serif; font-size: 8px; fill: rgb(0, 0, 0); fill-opacity: 1; white-space: pre; opacity: 1;">2022-10-27 00:00:00</text></g><g class="xtick"><text text-anchor="start" x="0" y="239.3681193045461" style="font-family: sans-serif; font-size: 8px; fill: rgb(0, 0, 0); fill-opacity: 1; white-space: pre; opacity: 1;" transform="translate(101.81034120734907,0) rotate(22,0,235.3681193045461)">01:00:00</text></g><g class="xtick"><text text-anchor="start" x="0" y="239.3681193045461" style="font-family: sans-serif; font-size: 8px; fill: rgb(0, 0, 0); fill-opacity: 1; white-space: pre; opacity: 1;" transform="translate(127.71034120734907,0) rotate(22,0,235.3681193045461)">02:00:00</text></g><g class="xtick"><text text-anchor="start" x="0" y="239.3681193045461" style="font-family: sans-serif; font-size: 8px; fill: rgb(0, 0, 0); fill-opacity: 1; white-space: pre; opacity: 1;" transform="translate(153.60034120734906,0) rotate(22,0,235.3681193045461)">03:00:00</text></g><g class="xtick"><text text-anchor="start" x="0" y="239.3681193045461" style="font-family: sans-serif; font-size: 8px; fill: rgb(0, 0, 0); fill-opacity: 1; white-space: pre; opacity: 1;" transform="translate(179.50034120734907,0) rotate(22,0,235.3681193045461)">04:00:00</text></g><g class="xtick"><text text-anchor="start" x="0" y="239.3681193045461" style="font-family: sans-serif; font-size: 8px; fill: rgb(0, 0, 0); fill-opacity: 1; white-space: pre; opacity: 1;" transform="translate(205.39034120734908,0) rotate(22,0,235.3681193045461)">05:00:00</text></g><g class="xtick"><text text-anchor="start" x="0" y="239.3681193045461" style="font-family: sans-serif; font-size: 8px; fill: rgb(0, 0, 0); fill-opacity: 1; white-space: pre; opacity: 1;" transform="translate(231.2903412073491,0) rotate(22,0,235.3681193045461)">06:00:00</text></g><g class="xtick"><text text-anchor="start" x="0" y="239.3681193045461" style="font-family: sans-serif; font-size: 8px; fill: rgb(0, 0, 0); fill-opacity: 1; white-space: pre; opacity: 1;" transform="translate(257.19034120734904,0) rotate(22,0,235.3681193045461)">07:00:00</text></g><g class="xtick"><text text-anchor="start" x="0" y="239.3681193045461" style="font-family: sans-serif; font-size: 8px; fill: rgb(0, 0, 0); fill-opacity: 1; white-space: pre; opacity: 1;" transform="translate(283.0803412073491,0) rotate(22,0,235.3681193045461)">08:00:00</text></g><g class="xtick"><text text-anchor="start" x="0" y="239.3681193045461" style="font-family: sans-serif; font-size: 8px; fill: rgb(0, 0, 0); fill-opacity: 1; white-space: pre; opacity: 1;" transform="translate(308.98034120734906,0) rotate(22,0,235.3681193045461)">09:00:00</text></g><g class="xtick"><text text-anchor="start" x="0" y="239.3681193045461" style="font-family: sans-serif; font-size: 8px; fill: rgb(0, 0, 0); fill-opacity: 1; white-space: pre; opacity: 1;" transform="translate(334.8703412073491,0) rotate(22,0,235.3681193045461)">10:00:00</text></g><g class="xtick"><text text-anchor="start" x="0" y="239.3681193045461" style="font-family: sans-serif; font-size: 8px; fill: rgb(0, 0, 0); fill-opacity: 1; white-space: pre; opacity: 1;" transform="translate(360.7703412073491,0) rotate(22,0,235.3681193045461)">11:00:00</text></g><g class="xtick"><text text-anchor="start" x="0" y="239.3681193045461" style="font-family: sans-serif; font-size: 8px; fill: rgb(0, 0, 0); fill-opacity: 1; white-space: pre; opacity: 1;" transform="translate(386.67034120734905,0) rotate(22,0,235.3681193045461)">12:00:00</text></g><g class="xtick"><text text-anchor="start" x="0" y="239.3681193045461" style="font-family: sans-serif; font-size: 8px; fill: rgb(0, 0, 0); fill-opacity: 1; white-space: pre; opacity: 1;" transform="translate(412.5603412073491,0) rotate(22,0,235.3681193045461)">13:00:00</text></g><g class="xtick"><text text-anchor="start" x="0" y="239.3681193045461" style="font-family: sans-serif; font-size: 8px; fill: rgb(0, 0, 0); fill-opacity: 1; white-space: pre; opacity: 1;" transform="translate(438.4603412073491,0) rotate(22,0,235.3681193045461)">14:00:00</text></g><g class="xtick"><text text-anchor="start" x="0" y="239.3681193045461" style="font-family: sans-serif; font-size: 8px; fill: rgb(0, 0, 0); fill-opacity: 1; white-space: pre; opacity: 1;" transform="translate(464.35034120734906,0) rotate(22,0,235.3681193045461)">15:00:00</text></g><g class="xtick"><text text-anchor="start" x="0" y="239.3681193045461" style="font-family: sans-serif; font-size: 8px; fill: rgb(0, 0, 0); fill-opacity: 1; white-space: pre; opacity: 1;" transform="translate(490.2503412073491,0) rotate(22,0,235.3681193045461)">16:00:00</text></g><g class="xtick"><text text-anchor="start" x="0" y="239.3681193045461" style="font-family: sans-serif; font-size: 8px; fill: rgb(0, 0, 0); fill-opacity: 1; white-space: pre; opacity: 1;" transform="translate(516.150341207349,0) rotate(22,0,235.3681193045461)">17:00:00</text></g><g class="xtick"><text text-anchor="start" x="0" y="239.3681193045461" style="font-family: sans-serif; font-size: 8px; fill: rgb(0, 0, 0); fill-opacity: 1; white-space: pre; opacity: 1;" transform="translate(542.040341207349,0) rotate(22,0,235.3681193045461)">18:00:00</text></g><g class="xtick"><text text-anchor="start" x="0" y="239.3681193045461" style="font-family: sans-serif; font-size: 8px; fill: rgb(0, 0, 0); fill-opacity: 1; white-space: pre; opacity: 1;" transform="translate(567.9403412073491,0) rotate(22,0,235.3681193045461)">19:00:00</text></g><g class="xtick"><text text-anchor="start" x="0" y="239.3681193045461" style="font-family: sans-serif; font-size: 8px; fill: rgb(0, 0, 0); fill-opacity: 1; white-space: pre; opacity: 1;" transform="translate(593.830341207349,0) rotate(22,0,235.3681193045461)">20:00:00</text></g><g class="xtick"><text text-anchor="start" x="0" y="239.3681193045461" style="font-family: sans-serif; font-size: 8px; fill: rgb(0, 0, 0); fill-opacity: 1; white-space: pre; opacity: 1;" transform="translate(619.730341207349,0) rotate(22,0,235.3681193045461)">21:00:00</text></g><g class="xtick"><text text-anchor="start" x="0" y="239.3681193045461" style="font-family: sans-serif; font-size: 8px; fill: rgb(0, 0, 0); fill-opacity: 1; white-space: pre; opacity: 1;" transform="translate(645.630341207349,0) rotate(22,0,235.3681193045461)">22:00:00</text></g><g class="xtick"><text text-anchor="start" x="0" y="239.3681193045461" style="font-family: sans-serif; font-size: 8px; fill: rgb(0, 0, 0); fill-opacity: 1; white-space: pre; opacity: 1;" transform="translate(671.520341207349,0) rotate(22,0,235.3681193045461)">23:00:00</text></g><g class="xtick"><text text-anchor="start" x="0" y="239.3681193045461" style="font-family: sans-serif; font-size: 8px; fill: rgb(0, 0, 0); fill-opacity: 1; white-space: pre; opacity: 0;" transform="translate(697.420341207349,0) rotate(22,0,235.3681193045461)">2022-10-28 00:00:00</text></g></g><g class="yaxislayer-above"><path class="ytick ticks crisp" d="M57.27034120734907,0h5" transform="translate(0,223.43392534266548)" style="stroke: rgb(0, 0, 0); stroke-opacity: 1; stroke-width: 1px;"/><path class="ytick ticks crisp" d="M57.27034120734907,0h5" transform="translate(0,173.7939253426655)" style="stroke: rgb(0, 0, 0); stroke-opacity: 1; stroke-width: 1px;"/><path class="ytick ticks crisp" d="M57.27034120734907,0h5" transform="translate(0,124.15392534266549)" style="stroke: rgb(0, 0, 0); stroke-opacity: 1; stroke-width: 1px;"/><path class="ytick ticks crisp" d="M57.27034120734907,0h5" transform="translate(0,74.51392534266549)" style="stroke: rgb(0, 0, 0); stroke-opacity: 1; stroke-width: 1px;"/><g class="ytick"><text text-anchor="end" x="54.67034120734907" y="2.8" transform="translate(0,223.43392534266548)" style="font-family: sans-serif; font-size: 8px; fill: rgb(0, 0, 0); fill-opacity: 1; white-space: pre; opacity: 1;">0</text></g><g class="ytick"><text text-anchor="end" x="54.67034120734907" y="2.8" style="font-family: sans-serif; font-size: 8px; fill: rgb(0, 0, 0); fill-opacity: 1; white-space: pre; opacity: 1;" transform="translate(0,173.7939253426655)">5.00×10³</text></g><g class="ytick"><text text-anchor="end" x="54.67034120734907" y="2.8" style="font-family: sans-serif; font-size: 8px; fill: rgb(0, 0, 0); fill-opacity: 1; white-space: pre; opacity: 1;" transform="translate(0,124.15392534266549)">1.00×10⁴</text></g><g class="ytick"><text text-anchor="end" x="54.67034120734907" y="2.8" style="font-family: sans-serif; font-size: 8px; fill: rgb(0, 0, 0); fill-opacity: 1; white-space: pre; opacity: 1;" transform="translate(0,74.51392534266549)">1.50×10⁴</text></g></g><g class="overaxes-above"/></g></g><g class="polarlayer"/><g class="ternarylayer"/><g class="geolayer"/><g class="funnelarealayer"/><g class="pielayer"/><g class="iciclelayer"/><g class="treemaplayer"/><g class="sunburstlayer"/><g class="glimages"/><defs id="topdefs-76d4e7"><g class="clips"/></defs><g class="layer-above"><g class="imagelayer"/><g class="shapelayer"/></g><g class="infolayer"><g class="g-gtitle"/><g class="g-xtitle"/><g class="g-ytitle"/><g class="annotation" data-index="0" style="opacity: 1;"><g class="annotation-text-g" transform="rotate(0,386.66666666666663,33.500000000000014)"><g class="cursor-pointer" transform="translate(164,20)"><rect class="bg" x="0.5" y="0.5" width="445" height="26" style="stroke-width: 1px; stroke: rgb(0, 0, 0); stroke-opacity: 0; fill: rgb(0, 0, 0); fill-opacity: 0;"/><text class="annotation-text" text-anchor="middle" x="223.052734375" y="20.3251953125" style="font-family: sans-serif; font-size: 20px; fill: rgb(0, 0, 0); fill-opacity: 1; white-space: pre;">2022-10-27 | mdt | compute | l_close | unit/second</text></g></g></g></g></svg>