<svg class="main-svg" xmlns="http://www.w3.org/2000/svg" xmlns:xlink="http://www.w3.org/1999/xlink" width="720" height="300" style=""><rect x="0" y="0" width="720" height="300" style="fill: rgb(255, 255, 255); fill-opacity: 1;"/><defs id="defs-3169b5"><g class="clips"><clipPath id="clip3169b5xyplot" class="plotclip"><rect width="676.5704286964129" height="172.56425822700055"/></clipPath><clipPath class="axesclip" id="clip3169b5x"><rect x="39.4925634295713" y="0" width="676.5704286964129" height="300"/></clipPath><clipPath class="axesclip" id="clip3169b5y"><rect x="0" y="40.26392534266549" width="720" height="172.56425822700055"/></clipPath><clipPath class="axesclip" id="clip3169b5xy"><rect x="39.4925634295713" y="40.26392534266549" width="676.5704286964129" height="172.56425822700055"/></clipPath></g><g class="gradients"/><g class="patterns"/></defs><g class="bglayer"/><g class="layer-below"><g class="imagelayer"/><g class="shapelayer"/></g><g class="cartesianlayer"><g class="subplot xy"><g class="layer-subplot"><g class="shapelayer"/><g class="imagelayer"/></g><g class="gridlayer"><g class="x"><path class="xgrid crisp" transform="translate(57.752563429571296,0)" d="M0,40.26392534266549v172.56425822700055" style="stroke: rgb(0, 0, 0); stroke-opacity: 0.1; stroke-width: 0.5px;"/><path class="xgrid crisp" transform="translate(84.4225634295713,0)" d="M0,40.26392534266549v172.56425822700055" style="stroke: rgb(0, 0, 0); stroke-opacity: 0.1; stroke-width: 0.5px;"/><path class="xgrid crisp" transform="translate(111.0925634295713,0)" d="M0,40.26392534266549v172.56425822700055" style="stroke: rgb(0, 0, 0); stroke-opacity: 0.1; stroke-width: 0.5px;"/><path class="xgrid crisp" transform="translate(137.7625634295713,0)" d="M0,40.26392534266549v172.56425822700055" style="stroke: rgb(0, 0, 0); stroke-opacity: 0.1; stroke-width: 0.5px;"/><path class="xgrid crisp" transform="translate(164.4225634295713,0)" d="M0,40.26392534266549v172.56425822700055" style="stroke: rgb(0, 0, 0); stroke-opacity: 0.1; stroke-width: 0.5px;"/><path class="xgrid crisp" transform="translate(191.0925634295713,0)" d="M0,40.26392534266549v172.56425822700055" style="stroke: rgb(0, 0, 0); stroke-opacity: 0.1; stroke-width: 0.5px;"/><path class="xgrid crisp" transform="translate(217.76256342957132,0)" d="M0,40.26392534266549v172.56425822700055" style="stroke: rgb(0, 0, 0); stroke-opacity: 0.1; stroke-width: 0.5px;"/><path class="xgrid crisp" transform="translate(244.4325634295713,0)" d="M0,40.26392534266549v172.56425822700055" style="stroke: rgb(0, 0, 0); stroke-opacity: 0.1; stroke-width: 0.5px;"/><path class="xgrid crisp" transform="translate(271.1025634295713,0)" d="M0,40.26392534266549v172.56425822700055" style="stroke: rgb(0, 0, 0); stroke-opacity: 0.1; stroke-width: 0.5px;"/><path class="xgrid crisp" transform="translate(297.7725634295713,0)" d="M0,40.26392534266549v172.56425822700055" style="stroke: rgb(0, 0, 0); stroke-opacity: 0.1; stroke-width: 0.5px;"/><path class="xgrid crisp" transform="translate(324.4425634295713,0)" d="M0,40.26392534266549v172.56425822700055" style="stroke: rgb(0, 0, 0); stroke-opacity: 0.1; stroke-width: 0.5px;"/><path class="xgrid crisp" transform="translate(351.1125634295713,0)" d="M0,40.26392534266549v172.56425822700055" style="stroke: rgb(0, 0, 0); stroke-opacity: 0.1; stroke-width: 0.5px;"/><path class="xgrid crisp" transform="translate(377.7825634295713,0)" d="M0,40.26392534266549v172.56425822700055" style="stroke: rgb(0, 0, 0); stroke-opacity: 0.1; stroke-width: 0.5px;"/><path class="xgrid crisp" transform="translate(404.4425634295713,0)" d="M0,40.26392534266549v172.56425822700055" style="stroke: rgb(0, 0, 0); stroke-opacity: 0.1; stroke-width: 0.5px;"/><path class="xgrid crisp" transform="translate(431.1125634295713,0)" d="M0,40.26392534266549v172.56425822700055" style="stroke: rgb(0, 0, 0); stroke-opacity: 0.1; stroke-width: 0.5px;"/><path class="xgrid crisp" transform="translate(457.7825634295713,0)" d="M0,40.26392534266549v172.56425822700055" style="stroke: rgb(0, 0, 0); stroke-opacity: 0.1; stroke-width: 0.5px;"/><path class="xgrid crisp" transform="translate(484.4525634295713,0)" d="M0,40.26392534266549v172.56425822700055" style="stroke: rgb(0, 0, 0); stroke-opacity: 0.1; stroke-width: 0.5px;"/><path class="xgrid crisp" transform="translate(511.1225634295713,0)" d="M0,40.26392534266549v172.56425822700055" style="stroke: rgb(0, 0, 0); stroke-opacity: 0.1; stroke-width: 0.5px;"/><path class="xgrid crisp" transform="translate(537.7925634295713,0)" d="M0,40.26392534266549v172.56425822700055" style="stroke: rgb(0, 0, 0); stroke-opacity: 0.1; stroke-width: 0.5px;"/><path class="xgrid crisp" transform="translate(564.4625634295713,0)" d="M0,40.26392534266549v172.56425822700055" style="stroke: rgb(0, 0, 0); stroke-opacity: 0.1; stroke-width: 0.5px;"/><path class="xgrid crisp" transform="translate(591.1325634295713,0)" d="M0,40.26392534266549v172.56425822700055" style="stroke: rgb(0, 0, 0); stroke-opacity: 0.1; stroke-width: 0.5px;"/><path class="xgrid crisp" transform="translate(617.7925634295713,0)" d="M0,40.26392534266549v172.56425822700055" style="stroke: rgb(0, 0, 0); stroke-opacity: 0.1; stroke-width: 0.5px;"/><path class="xgrid crisp" transform="translate(644.4625634295713,0)" d="M0,40.26392534266549v172.56425822700055" style="stroke: rgb(0, 0, 0); stroke-opacity: 0.1; stroke-width: 0.5px;"/><path class="xgrid crisp" transform="translate(671.1325634295713,0)" d="M0,40.26392534266549v172.56425822700055" style="stroke: rgb(0, 0, 0); stroke-opacity: 0.1; stroke-width: 0.5px;"/><path class="xgrid crisp" transform="translate(697.8025634295713,0)" d="M0,40.26392534266549v172.56425822700055" style="stroke: rgb(0, 0, 0); stroke-opacity: 0.1; stroke-width: 0.5px;"/></g><g class="y"><path class="ygrid crisp" transform="translate(0,156.8839253426655)" d="M39.4925634295713,0h676.5704286964129" style="stroke: rgb(0, 0, 0); stroke-opacity: 0.1; stroke-width: 0.5px;"/><path class="ygrid crisp" transform="translate(0,67.7239253426655)" d="M39.4925634295713,0h676.5704286964129" style="stroke: rgb(0, 0, 0); stroke-opacity: 0.1; stroke-width: 0.5px;"/></g></g><g class="zerolinelayer"/><path class="xlines-below"/><path class="ylines-below"/><g class="overlines-below"/><g class="xaxislayer-below"/><g class="yaxislayer-below"/><g class="overaxes-below"/><g class="plot" transform="translate(39.4925634295713,40.26392534266549)" clip-path="url(#clip3169b5xyplot)"><g class="scatterlayer mlayer"><g class="trace scatter trace13126a" style="stroke-miterlimit: 2; opacity: 1;"><g class="fills"/><g class="errorbars"/><g class="lines"><path class="js-line" d="M19.15,28.21L20.93,28.5L20.93,27.12L21.82,27.12L21.82,25.76L22.7,25.76L22.7,27L25.37,26.45L25.37,25.2L28.04,24.68L28.04,26.79L28.93,26.79L28.93,25.3L30.7,24.79L30.7,23.44L33.37,23.91L33.37,24.49L34.26,24.49L34.26,25.27L36.04,24.54L36.04,23.54L38.71,23.83L38.71,22.95L40.48,23.47L40.48,23.71L43.15,23.97L43.15,25.31L44.04,25.31L44.04,26.42L45.82,26.5L45.82,27.79L47.59,28.26L47.59,28.93L48.48,28.93L48.48,30.33L50.26,30.12L50.26,28.65L51.15,28.65L51.15,27.64L52.04,27.64L52.04,26.17L52.93,26.17L52.93,24.86L53.82,24.86L53.82,23.65L55.6,24.12L55.6,22.46L57.37,21.99L57.37,20.63L58.26,20.63L58.26,22.59L59.15,22.59L59.15,23.68L60.04,23.68L60.04,26.23L61.82,26.63L61.82,24.75L63.6,25.41L63.6,25.7L64.49,25.7L64.49,24.18L65.37,24.18L65.37,26.9L66.26,26.9L66.26,29.6L67.15,29.6L67.15,28.21L68.04,28.21L68.04,27.25L68.93,27.25L68.93,25.83L69.82,25.83L69.82,22.52L71.6,21.83L71.6,21.58L73.37,21.22L73.37,22.19L75.15,22.39L75.15,25.26L76.93,24.67L76.93,25.8L77.82,25.8L77.82,29.06L79.6,29.67L79.6,27.56L80.49,27.56L80.49,28.62L83.15,28.51L83.15,27.84L84.04,27.84L84.04,26.78L84.93,26.78L84.93,24.28L86.71,23.61L86.71,25.23L87.6,25.23L87.6,26.03L88.49,26.03L88.49,24.23L90.27,23.62L90.27,24.46L91.15,24.46L91.15,25.74L92.93,25.11L92.93,25.91L94.71,26.23L94.71,26.76L96.49,26.44L96.49,27.59L97.38,27.59L97.38,30.05L100.04,30.43L100.04,29.44L101.82,29.4L101.82,28.02L102.71,28.02L102.71,26.48L104.49,25.77L104.49,27.43L106.27,26.9L106.27,26.21L107.16,26.21L107.16,25.29L109.82,26.01L109.82,26.4L110.71,26.4L110.71,25.18L113.38,25.25L113.38,28.48L114.27,28.48L114.27,29.55L115.16,29.55L115.16,31.51L116.93,30.94L116.93,29.68L117.82,29.68L117.82,28.45L119.6,27.75L119.6,27.2L123.16,26.91L123.16,25.49L124.05,25.49L124.05,27.75L125.82,28.4L125.82,27.08L126.71,27.08L126.71,25.91L127.6,25.91L127.6,27.58L129.38,27.03L129.38,26.4L131.16,25.9L131.16,27.22L132.05,27.22L132.05,29.85L132.94,29.85L132.94,31.16L133.82,31.16L133.82,29.43L134.71,29.43L134.71,30.91L137.38,30.77L137.38,28.95L140.05,29.17L140.05,29.9L140.94,29.9L140.94,26.79L142.71,26.45L142.71,25.59L144.49,26.21L144.49,26.48L145.38,26.48L145.38,25.61L147.16,24.95L147.16,23.1L149.83,23.07L149.83,24.49L150.71,24.49L150.71,26.38L152.49,27.12L152.49,28.89L153.38,28.89L153.38,31.3L154.27,31.3L154.27,33.34L155.16,33.34L155.16,31.79L158.72,31.56L158.72,29.36L159.6,29.36L159.6,27.54L160.49,27.54L160.49,26.76L161.38,26.76L161.38,25.58L163.16,25.7L163.16,27.47L164.05,27.47L164.05,26.17L164.94,26.17L164.94,27.95L166.72,27.21L166.72,26.85L168.49,26.82L168.49,24.49L169.38,24.49L169.38,26.98L170.27,26.98L170.27,23.9L171.16,23.9L171.16,22.29L172.05,22.29L172.05,23.94L177.38,23.5L177.38,24.68L180.94,24.39L180.94,26.74L181.83,26.74L181.83,30.08L182.72,30.08L182.72,29.28L183.61,29.28L183.61,25.66L184.49,25.66L184.49,23.69L185.38,23.69L185.38,14.14L186.27,14.14L186.27,23.04L187.16,23.04L187.16,19.68L188.05,19.68L188.05,13.91L188.94,13.91L188.94,24.33L189.83,24.33L189.83,23.04L191.61,22.54L191.61,23.36L193.38,23.21L193.38,21.74L194.27,21.74L194.27,19.25L195.16,19.25L195.16,17.49L196.05,17.49L196.05,14.7L196.94,14.7L196.94,19.49L198.72,19.67L198.72,22.06L201.39,22.64L201.39,21.59L203.16,20.94L203.16,18.11L204.05,18.11L204.05,16.96L204.94,16.96L204.94,19.98L205.83,19.98L205.83,23.5L206.72,23.5L206.72,15.17L207.61,15.17L207.61,20.59L208.5,20.59L208.5,11.47L210.27,11.39L210.27,9.7L212.05,9.72L212.05,14.85L212.94,14.85L212.94,8.31L213.83,8.31L213.83,6.81L215.61,7.42L215.61,6.52L217.39,6.13L217.39,4.88L218.28,4.88L218.28,6.01L219.16,6.01L219.16,7.48L220.05,7.48L220.05,6.17L220.94,6.17L220.94,8.37L221.83,8.37L221.83,22.86L222.72,22.86L222.72,17.41L223.61,17.41L223.61,24.55L224.5,24.55L224.5,23.78L225.39,23.78L225.39,22.63L226.28,22.63L226.28,21.85L227.17,21.85L227.17,20.2L228.05,20.2L228.05,21.48L230.72,22.1L230.72,22.28L232.5,22.21L232.5,20.71L234.28,20.91L234.28,14.24L235.17,14.24L235.17,15.26L236.05,15.26L236.05,14.12L237.83,13.89L237.83,15.76L238.72,15.76L238.72,17.2L239.61,17.2L239.61,13.96L240.5,13.96L240.5,12.01L241.39,12.01L241.39,16.6L242.28,16.6L242.28,14.86L243.17,14.86L243.17,17.02L244.06,17.02L244.06,11.04L244.94,11.04L244.94,16.26L245.83,16.26L245.83,20.12L246.72,20.12L246.72,18.51L247.61,18.51L247.61,17.08L249.39,16.52L249.39,19.14L250.28,19.14L250.28,20.13L251.17,20.13L251.17,17.47L252.94,17.55L252.94,19.06L254.72,18.84L254.72,21.34L255.61,21.34L255.61,19.62L259.17,20.2L259.17,19.19L261.83,18.52L261.83,20L262.72,20L262.72,22.22L265.39,22.53L265.39,24.64L266.28,24.64L266.28,23.44L268.06,23.95L268.06,23.08L268.95,23.08L268.95,21.63L269.84,21.63L269.84,23.37L270.72,23.37L270.72,21.6L271.61,21.6L271.61,12.82L272.5,12.82L272.5,13.93L273.39,13.93L273.39,9.66L274.28,9.66L274.28,15.25L276.06,15.18L276.06,14.45L277.84,14.74L277.84,15.42L278.72,15.42L278.72,20.22L279.61,20.22L279.61,21.71L281.39,21.33L281.39,20.71L284.95,20.74L284.95,22.53L285.84,22.53L285.84,21.42L287.61,21.22L287.61,17.92L289.39,18.4L289.39,19.28L291.17,19.63L291.17,21.31L292.06,21.31L292.06,22.86L292.95,22.86L292.95,19.15L296.5,18.61L296.5,21.53L298.28,22.19L298.28,23.23L299.17,23.23L299.17,22.17L300.06,22.17L300.06,20.96L302.73,20.66L302.73,22.33L304.5,21.88L304.5,22.77L307.17,22.59L307.17,21.89L308.95,21.35L308.95,20.58L309.84,20.58L309.84,22.01L310.73,22.01L310.73,23L311.62,23L311.62,21.03L313.39,21.06L313.39,23.14L315.17,23.29L315.17,17.84L318.73,18.06L318.73,18.31L319.62,18.31L319.62,15.99L320.51,15.99L320.51,20.84L321.39,20.84L321.39,10.01L322.28,10.01L322.28,13.52L323.17,13.52L323.17,20.04L324.06,20.04L324.06,17.58L324.95,17.58L324.95,19.72L325.84,19.72L325.84,20.57L326.73,20.57L326.73,21.89L327.62,21.89L327.62,24.6L329.4,23.96L329.4,22.5L330.28,22.5L330.28,20.26L331.17,20.26L331.17,18.16L333.84,18.23L333.84,19.1L334.73,19.1L334.73,23.15L335.62,23.15L335.62,18.35L336.51,18.35L336.51,15.92L337.4,15.92L337.4,17.64L339.17,17.66L339.17,13.71L340.06,13.71L340.06,12.87L340.95,12.87L340.95,22.21L341.84,22.21L341.84,56.91L344.51,57.31L344.51,61.91L345.4,61.91L345.4,59.62L346.29,59.62L346.29,57.64L347.17,57.64L347.17,62.99L348.06,62.99L348.06,68.84L348.95,68.84L348.95,70.77L350.73,71.32L350.73,69.82L352.51,69.25L352.51,62.8L353.4,62.8L353.4,50.15L354.29,50.15L354.29,67.47L355.18,67.47L355.18,68.59L357.84,68.33L357.84,69.91L358.73,69.91L358.73,67.57L360.51,67.56L360.51,68.47L361.4,68.47L361.4,64.19L363.18,64.28L363.18,67.03L364.07,67.03L364.07,59.9L364.95,59.9L364.95,67.86L366.73,68.47L366.73,69.66L367.62,69.66L367.62,68.65L368.51,68.65L368.51,65.51L369.4,65.51L369.4,69.54L370.29,69.54L370.29,68.42L371.18,68.42L371.18,67.27L372.95,66.78L372.95,63.54L373.84,63.54L373.84,67.65L374.73,67.65L374.73,65.25L375.62,65.25L375.62,66.12L376.51,66.12L376.51,69.93L377.4,69.93L377.4,67.98L378.29,67.98L378.29,69.34L379.18,69.34L379.18,66.03L380.07,66.03L380.07,70.12L380.96,70.12L380.96,61.31L381.84,61.31L381.84,68.34L382.73,68.34L382.73,62.42L383.62,62.42L383.62,72.17L384.51,72.17L384.51,64.52L385.4,64.52L385.4,72.41L386.29,72.41L386.29,64.15L387.18,64.15L387.18,71.44L388.07,71.44L388.07,67.14L388.96,67.14L388.96,68.52L389.84,68.52L389.84,64.31L390.73,64.31L390.73,71.78L391.62,71.78L391.62,72.97L392.51,72.97L392.51,70.87L393.4,70.87L393.4,74.81L394.29,74.81L394.29,54.38L395.18,54.38L395.18,64.36L396.07,64.36L396.07,76.3L396.96,76.3L396.96,72.22L397.85,72.22L397.85,70.66L398.73,70.66L398.73,73.97L399.62,73.97L399.62,72.56L400.51,72.56L400.51,73.76L402.29,73.5L402.29,72.63L403.18,72.63L403.18,71.2L404.07,71.2L404.07,68.51L404.96,68.51L404.96,65.65L406.74,65.8L406.74,72.25L407.62,72.25L407.62,73.86L410.29,73.24L410.29,71.75L411.18,71.75L411.18,72.61L412.07,72.61L412.07,69.91L412.96,69.91L412.96,76.09L413.85,76.09L413.85,56.53L414.74,56.53L414.74,72.09L415.62,72.09L415.62,73.46L416.51,73.46L416.51,76.9L417.4,76.9L417.4,75.97L418.29,75.97L418.29,74.89L419.18,74.89L419.18,73.61L420.07,73.61L420.07,74.45L420.96,74.45L420.96,61.93L421.85,61.93L421.85,60.95L422.74,60.95L422.74,79.41L423.63,79.41L423.63,74.96L424.51,74.96L424.51,81.1L425.4,81.1L425.4,73.63L426.29,73.63L426.29,75.32L427.18,75.32L427.18,79.1L430.74,78.49L430.74,76.94L431.63,76.94L431.63,72.14L432.52,72.14L432.52,68.59L434.29,69.02L434.29,75.94L435.18,75.94L435.18,77.91L436.07,77.91L436.07,75.21L437.85,75.86L437.85,74.1L439.63,73.9L439.63,75.75L440.52,75.75L440.52,74.04L442.29,74.56L442.29,77.8L443.18,77.8L443.18,78.88L444.96,79.24L444.96,77.58L445.85,77.58L445.85,73.62L447.63,73.9L447.63,59.71L448.52,59.71L448.52,73.46L449.41,73.46L449.41,78.1L450.29,78.1L450.29,80.41L451.18,80.41L451.18,81.39L452.07,81.39L452.07,78.96L453.85,78.72L453.85,79.81L454.74,79.81L454.74,77.42L455.63,77.42L455.63,79.05L458.29,79.04L458.29,80.4L459.18,80.4L459.18,79.25L461.85,78.83L461.85,78.33L463.63,78.35L463.63,79.96L465.41,80.63L465.41,81.2L466.3,81.2L466.3,76.17L467.18,76.17L467.18,78.97L468.96,78.49L468.96,76.32L469.85,76.32L469.85,72.82L470.74,72.82L470.74,78.49L471.63,78.49L471.63,80.86L473.41,81.32L473.41,80.11L475.19,80.49L475.19,81.49L476.07,81.49L476.07,80.27L476.96,80.27L476.96,78.67L477.85,78.67L477.85,83.57L478.74,83.57L478.74,81.31L479.63,81.31L479.63,79.59L482.3,80.34L482.3,79.45L484.96,79.59L484.96,81.18L485.85,81.18L485.85,79.64L486.74,79.64L486.74,81.97L488.52,81.63L488.52,80.54L491.19,80.74L491.19,75.55L492.08,75.55L492.08,77.59L492.96,77.59L492.96,76.81L493.85,76.81L493.85,81.15L497.41,80.5L497.41,79.08L498.3,79.08L498.3,60.08L499.19,60.08L499.19,77.39L500.08,77.39L500.08,72.01L500.97,72.01L500.97,60.67L501.85,60.67L501.85,69.09L502.74,69.09L502.74,60.66L503.63,60.66L503.63,75.6L505.41,75.07L505.41,56.53L506.3,56.53L506.3,66.56L507.19,66.56L507.19,61.39L508.08,61.39L508.08,76.23L508.97,76.23L508.97,66.06L509.85,66.06L509.85,63.94L510.74,63.94L510.74,73.52L512.52,72.95L512.52,61.19L513.41,61.19L513.41,62.67L515.19,63.24L515.19,65.07L516.08,65.07L516.08,62.23L516.97,62.23L516.97,72.61L517.86,72.61L517.86,68.41L518.74,68.41L518.74,59.83L519.63,59.83L519.63,70.82L520.52,70.82L520.52,55.59L521.41,55.59L521.41,67.26L522.3,67.26L522.3,60.84L523.19,60.84L523.19,72.54L524.08,72.54L524.08,75.1L524.97,75.1L524.97,58.75L525.86,58.75L525.86,72.62L526.74,72.62L526.74,78.85L528.52,79.25L528.52,79.75L530.3,79.7L530.3,80.7L533.86,80.9L533.86,80.02L535.63,80.51L535.63,81.9L537.41,82.39L537.41,80.97L539.19,80.41L539.19,82.06L540.08,82.06L540.08,79.83L540.97,79.83L540.97,81.87L542.75,81.42L542.75,84.25L543.64,84.25L543.64,83.47L544.52,83.47L544.52,82L548.97,82.41L548.97,81.23L549.86,81.23L549.86,83.16L551.64,82.75L551.64,84.03L552.52,84.03L552.52,77.71L553.41,77.71L553.41,84.16L554.3,84.16L554.3,82.67L555.19,82.67L555.19,81.26L556.97,81.97L556.97,84.88L558.75,84.95L558.75,84.06L560.53,84.31L560.53,83.14L561.41,83.14L561.41,84.04L562.3,84.04L562.3,82.28L564.08,82.95L564.08,84.78L564.97,84.78L564.97,82.4L565.86,82.4L565.86,84.54L567.64,83.97L567.64,70.05L568.53,70.05L568.53,84L569.42,84L569.42,80.75L571.19,80.91L571.19,84.41L572.97,84.35L572.97,83.38L576.53,83.6L576.53,78.69L577.42,78.69L577.42,84.04L578.3,84.04L578.3,85.25L579.19,85.25L579.19,84.11L580.08,84.11L580.08,86.49L580.97,86.49L580.97,85.33L583.64,84.9L583.64,83.3L585.42,83.77L585.42,85.22L586.31,85.22L586.31,86.58L587.19,86.58L587.19,85.06L589.86,85.66L589.86,85.95L590.75,85.95L590.75,83.53L591.64,83.53L591.64,85.52L592.53,85.52L592.53,84.23L593.42,84.23L593.42,85.3L595.19,85.71L595.19,86.81L596.08,86.81L596.08,85.14L597.86,85.47L597.86,84.3L598.75,84.3L598.75,85.2L599.64,85.2L599.64,83.51L600.53,83.51L600.53,87.1L601.42,87.1L601.42,85.24L604.08,85.04L604.08,86.38L604.97,86.38L604.97,84.7L605.86,84.7L605.86,83.53L606.75,83.53L606.75,85.38L609.42,85.77L609.42,87.5L610.31,87.5L610.31,84.75L614.75,85.11L614.75,81.89L615.64,81.89L615.64,83.37L616.53,83.37L616.53,85.97L617.42,85.97L617.42,84.56L618.31,84.56L618.31,86.69L619.2,86.69L619.2,83.9L620.09,83.9L620.09,79.49L621.86,79.71L621.86,81.87L622.75,81.87L622.75,83.28L625.42,83.81L625.42,85.45L626.31,85.45L626.31,84.6L628.09,84.86L628.09,76.36L628.98,76.36L628.98,83.42L629.86,83.42L629.86,85.37L631.64,85L631.64,83.78L632.53,83.78L632.53,84.58L634.31,84.82L634.31,76.75L635.2,76.75L635.2,77.53L636.09,77.53L636.09,84.26L636.98,84.26L636.98,85.76L637.87,85.76L637.87,83.58L638.75,83.58L638.75,81.32L639.64,81.32L639.64,82.32L640.53,82.32L640.53,80.92L643.2,81.65L643.2,83.05L644.98,83.05L644.98,85.28L645.87,85.28L645.87,84.48L647.64,83.78L647.64,84.69L648.53,84.69L648.53,83.57L649.42,83.57L649.42,82.68L650.31,82.68L650.31,84.05L652.09,84.24L652.09,85.47L652.98,85.47L652.98,83.96L653.87,83.96L653.87,82.86L655.64,82.24L655.64,83.44L656.53,83.44L656.53,84.65L657.42,84.65L657.42,84.12" style="vector-effect: non-scaling-stroke; fill: none; stroke: rgb(0, 154, 250); stroke-opacity: 0.5; stroke-width: 1px; opacity: 1;"/></g><g class="points"/><g class="text"/></g><g class="trace scatter trace065769" style="stroke-miterlimit: 2; opacity: 1;"><g class="fills"/><g class="errorbars"/><g class="lines"><path class="js-line" d="M19.15,145.54L20.04,145.54L20.04,141.57L21.82,140.89L21.82,141.78L22.7,141.78L22.7,143.39L23.59,143.39L23.59,144.85L24.48,144.85L24.48,142.35L25.37,142.35L25.37,140.54L26.26,140.54L26.26,142.2L27.15,142.2L27.15,144.24L28.04,144.24L28.04,145.2L28.93,145.2L28.93,142.28L29.82,142.28L29.82,143.13L30.7,143.13L30.7,140.4L32.48,140.85L32.48,142.02L33.37,142.02L33.37,139.67L34.26,139.67L34.26,149.42L35.15,149.42L35.15,141.39L36.04,141.39L36.04,142.93L36.93,142.93L36.93,140.6L37.82,140.6L37.82,144.75L39.59,144.25L39.59,141.39L40.48,141.39L40.48,149.9L41.37,149.9L41.37,141.79L42.26,141.79L42.26,149.79L43.15,149.79L43.15,142.92L44.04,142.92L44.04,144.23L44.93,144.23L44.93,143.31L45.82,143.31L45.82,145.57L46.71,145.57L46.71,140.87L47.59,140.87L47.59,144.12L48.48,144.12L48.48,139.07L49.37,139.07L49.37,145.12L50.26,145.12L50.26,148.6L51.15,148.6L51.15,141.06L52.04,141.06L52.04,143.49L52.93,143.49L52.93,144.73L53.82,144.73L53.82,140.03L54.71,140.03L54.71,144.6L55.6,144.6L55.6,141.96L56.48,141.96L56.48,146.28L58.26,145.89L58.26,143.88L59.15,143.88L59.15,148.22L60.04,148.22L60.04,143.4L60.93,143.4L60.93,145.94L61.82,145.94L61.82,144.86L62.71,144.86L62.71,147.72L63.6,147.72L63.6,137.84L64.49,137.84L64.49,145.17L65.37,145.17L65.37,140.09L66.26,140.09L66.26,144.18L68.04,144.92L68.04,143.72L68.93,143.72L68.93,142.69L69.82,142.69L69.82,143.94L70.71,143.94L70.71,147.63L71.6,147.63L71.6,142.64L72.49,142.64L72.49,139.45L73.37,139.45L73.37,147.48L74.26,147.48L74.26,146.19L75.15,146.19L75.15,142.8L76.04,142.8L76.04,144.57L77.82,144.02L77.82,141.73L78.71,141.73L78.71,146.03L79.6,146.03L79.6,141.98L80.49,141.98L80.49,142.97L81.38,142.97L81.38,135.63L82.26,135.63L82.26,147.55L83.15,147.55L83.15,142.34L84.04,142.34L84.04,148.28L84.93,148.28L84.93,136.94L85.82,136.94L85.82,144.54L86.71,144.54L86.71,141.21L87.6,141.21L87.6,142.12L88.49,142.12L88.49,145.69L90.27,145.08L90.27,146.85L91.15,146.85L91.15,139.48L92.04,139.48L92.04,151.09L92.93,151.09L92.93,141.66L93.82,141.66L93.82,146.76L94.71,146.76L94.71,144.47L95.6,144.47L95.6,147.04L96.49,147.04L96.49,144.77L97.38,144.77L97.38,146.69L98.27,146.69L98.27,142.54L99.15,142.54L99.15,138.54L100.04,138.54L100.04,146.87L100.93,146.87L100.93,143.69L101.82,143.69L101.82,144.8L102.71,144.8L102.71,142.76L103.6,142.76L103.6,146.92L104.49,146.92L104.49,142.65L105.38,142.65L105.38,148.06L106.27,148.06L106.27,147.26L107.16,147.26L107.16,145.19L108.04,145.19L108.04,142.82L109.82,143.32L109.82,148.93L110.71,148.93L110.71,143.6L111.6,143.6L111.6,144.62L112.49,144.62L112.49,149.23L113.38,149.23L113.38,145.74L114.27,145.74L114.27,147.73L115.16,147.73L115.16,140.98L116.04,140.98L116.04,149.41L116.93,149.41L116.93,147.81L117.82,147.81L117.82,144.52L118.71,144.52L118.71,148.34L120.49,147.65L120.49,151.64L121.38,151.64L121.38,146.07L122.27,146.07L122.27,151.95L123.16,151.95L123.16,150.1L124.05,150.1L124.05,148.6L124.93,148.6L124.93,147.5L125.82,147.5L125.82,149L126.71,149L126.71,147.79L128.49,148.03L128.49,149.83L129.38,149.83L129.38,145.1L130.27,145.1L130.27,148.41L131.16,148.41L131.16,146.87L132.94,146.31L132.94,148.49L133.82,148.49L133.82,147.05L136.49,146.87L136.49,145.44L137.38,145.44L137.38,148.35L138.27,148.35L138.27,146.83L139.16,146.83L139.16,147.96L140.05,147.96L140.05,149.41L141.82,149.01L141.82,152.88L142.71,152.88L142.71,146.03L144.49,146.71L144.49,145.07L146.27,144.84L146.27,149L147.16,149L147.16,150.2L148.05,150.2L148.05,148.07L148.94,148.07L148.94,149.03L149.83,149.03L149.83,152.16L150.71,152.16L150.71,147.49L151.6,147.49L151.6,154.96L152.49,154.96L152.49,145.65L153.38,145.65L153.38,151.78L154.27,151.78L154.27,147.06L155.16,147.06L155.16,150.76L156.05,150.76L156.05,144.48L156.94,144.48L156.94,148.16L157.83,148.16L157.83,151.09L158.72,151.09L158.72,147.59L159.6,147.59L159.6,151.86L160.49,151.86L160.49,147.81L161.38,147.81L161.38,152.13L162.27,152.13L162.27,142.09L163.16,142.09L163.16,152.53L164.05,152.53L164.05,150.28L166.72,150.13L166.72,153.57L167.6,153.57L167.6,146.8L168.49,146.8L168.49,149.55L169.38,149.55L169.38,156.22L170.27,156.22L170.27,149.97L171.16,149.97L171.16,154.53L172.05,154.53L172.05,145.98L172.94,145.98L172.94,154.22L173.83,154.22L173.83,151.52L174.72,151.52L174.72,147.82L176.49,148.12L176.49,152.33L177.38,152.33L177.38,148.84L179.16,149.57L179.16,157.89L180.05,157.89L180.05,149.3L180.94,149.3L180.94,150.98L181.83,150.98L181.83,149.74L183.61,149.65L183.61,152.45L184.49,152.45L184.49,146.75L185.38,146.75L185.38,152.56L186.27,152.56L186.27,146.73L187.16,146.73L187.16,150.29L188.05,150.29L188.05,154.06L189.83,153.81L189.83,147.03L190.72,147.03L190.72,150.26L192.5,150.32L192.5,151.89L193.38,151.89L193.38,150.81L195.16,150.3L195.16,149.18L196.05,149.18L196.05,157.44L196.94,157.44L196.94,151.37L197.83,151.37L197.83,153.57L198.72,153.57L198.72,149.61L199.61,149.61L199.61,147.78L200.5,147.78L200.5,152.58L201.39,152.58L201.39,154.23L202.27,154.23L202.27,153.16L203.16,153.16L203.16,152.33L204.05,152.33L204.05,158.43L204.94,158.43L204.94,152.74L205.83,152.74L205.83,156.31L206.72,156.31L206.72,149.83L207.61,149.83L207.61,155.44L208.5,155.44L208.5,153.09L209.39,153.09L209.39,154.91L210.27,154.91L210.27,157.47L211.16,157.47L211.16,151.68L212.05,151.68L212.05,153.91L212.94,153.91L212.94,147.12L213.83,147.12L213.83,153.86L214.72,153.86L214.72,139.13L215.61,139.13L215.61,148.69L217.39,149.24L217.39,151.69L218.28,151.69L218.28,154.69L219.16,154.69L219.16,151.02L220.05,151.02L220.05,155.28L220.94,155.28L220.94,149.98L221.83,149.98L221.83,155.3L222.72,155.3L222.72,151.28L223.61,151.28L223.61,148.19L224.5,148.19L224.5,149.41L225.39,149.41L225.39,145.72L226.28,145.72L226.28,146.72L227.17,146.72L227.17,142.93L228.05,142.93L228.05,152.33L229.83,152.68L229.83,157.85L230.72,157.85L230.72,149.65L231.61,149.65L231.61,156.75L232.5,156.75L232.5,147.63L233.39,147.63L233.39,152.01L234.28,152.01L234.28,150.27L235.17,150.27L235.17,148.57L236.94,149.21L236.94,146.8L237.83,146.8L237.83,154.26L238.72,154.26L238.72,147.44L239.61,147.44L239.61,146.49L240.5,146.49L240.5,140.95L241.39,140.95L241.39,142.39L242.28,142.39L242.28,135.71L243.17,135.71L243.17,139.64L244.06,139.64L244.06,135.64L244.94,135.64L244.94,134.7L245.83,134.7L245.83,135.51L246.72,135.51L246.72,143.78L248.5,143.35L248.5,140.74L249.39,140.74L249.39,146.74L250.28,146.74L250.28,143.57L251.17,143.57L251.17,147.89L252.06,147.89L252.06,145.1L252.94,145.1L252.94,147.06L253.83,147.06L253.83,142.54L254.72,142.54L254.72,146L256.5,146.08L256.5,144.26L257.39,144.26L257.39,147.49L259.17,146.89L259.17,148.95L260.06,148.95L260.06,146.4L260.95,146.4L260.95,143.23L261.83,143.23L261.83,146.15L262.72,146.15L262.72,139.37L263.61,139.37L263.61,144.81L264.5,144.81L264.5,143.49L265.39,143.49L265.39,150.05L266.28,150.05L266.28,147.08L267.17,147.08L267.17,146.19L268.06,146.19L268.06,149.22L268.95,149.22L268.95,145.7L270.72,146.07L270.72,142.52L272.5,142.29L272.5,144.67L273.39,144.67L273.39,107.64L274.28,107.64L274.28,144.71L276.06,144.83L276.06,146.41L276.95,146.41L276.95,147.94L277.84,147.94L277.84,147.14L278.72,147.14L278.72,142.36L279.61,142.36L279.61,147.56L281.39,147.13L281.39,150.74L282.28,150.74L282.28,147.11L283.17,147.11L283.17,148.39L284.06,148.39L284.06,136.06L284.95,136.06L284.95,146.86L286.73,147.57L286.73,152.57L287.61,152.57L287.61,147.62L288.5,147.62L288.5,151.16L289.39,151.16L289.39,141.31L290.28,141.31L290.28,150.22L291.17,150.22L291.17,148.6L292.95,148.18L292.95,137.08L293.84,137.08L293.84,141.42L294.73,141.42L294.73,140.56L295.62,140.56L295.62,142.38L296.5,142.38L296.5,140.02L297.39,140.02L297.39,142.3L298.28,142.3L298.28,145.58L299.17,145.58L299.17,142.37L300.06,142.37L300.06,140.43L300.95,140.43L300.95,146L301.84,146L301.84,141.02L302.73,141.02L302.73,139.53L303.62,139.53L303.62,137.46L304.5,137.46L304.5,141.11L305.39,141.11L305.39,142.04L306.28,142.04L306.28,141.22L307.17,141.22L307.17,143.42L308.06,143.42L308.06,147.63L310.73,147.85L310.73,148.45L311.62,148.45L311.62,149.87L312.51,149.87L312.51,158.09L313.39,158.09L313.39,156.64L314.28,156.64L314.28,152.81L315.17,152.81L315.17,150.97L316.06,150.97L316.06,145.23L316.95,145.23L316.95,154.01L317.84,154.01L317.84,79.87L318.73,79.87L318.73,7.09L319.62,7.09L319.62,121.9L320.51,121.9L320.51,91.56L321.39,91.56L321.39,36.23L322.28,36.23L322.28,109.78L323.17,109.78L323.17,95.52L324.06,95.52L324.06,131.99L324.95,131.99L324.95,137.32L325.84,137.32L325.84,134.78L326.73,134.78L326.73,138.96L327.62,138.96L327.62,131.46L328.51,131.46L328.51,136.26L329.4,136.26L329.4,137.03L331.17,136.77L331.17,132.41L332.06,132.41L332.06,137.17L332.95,137.17L332.95,135.11L333.84,135.11L333.84,122.31L334.73,122.31L334.73,136.2L335.62,136.2L335.62,140.88L336.51,140.88L336.51,138.36L337.4,138.36L337.4,122.7L338.29,122.7L338.29,138.15L340.06,138.05L340.06,115.04L340.95,115.04L340.95,127.1L341.84,127.1L341.84,118.41L343.62,118.67L343.62,120.71L345.4,120.9L345.4,123.8L347.17,123.21L347.17,119.09L348.06,119.09L348.06,125.11L348.95,125.11L348.95,120.5L349.84,120.5L349.84,121.68L350.73,121.68L350.73,124.77L351.62,124.77L351.62,132.09L352.51,132.09L352.51,127.76L353.4,127.76L353.4,116.27L354.29,116.27L354.29,114.35L355.18,114.35L355.18,122.97L356.06,122.97L356.06,123.91L357.84,123.96L357.84,129.11L358.73,129.11L358.73,120.74L359.62,120.74L359.62,123.68L360.51,123.68L360.51,130.57L361.4,130.57L361.4,112.33L362.29,112.33L362.29,92.93L363.18,92.93L363.18,112.46L364.07,112.46L364.07,121.26L364.95,121.26L364.95,122.31L365.84,122.31L365.84,129.22L366.73,129.22L366.73,135.43L367.62,135.43L367.62,129.41L368.51,129.41L368.51,122.92L369.4,122.92L369.4,132.85L370.29,132.85L370.29,130.59L371.18,130.59L371.18,134.46L372.07,134.46L372.07,132.94L372.95,132.94L372.95,110.09L373.84,110.09L373.84,126.79L374.73,126.79L374.73,133.46L376.51,133.62L376.51,130.73L377.4,130.73L377.4,134.6L378.29,134.6L378.29,131.91L379.18,131.91L379.18,130.89L380.07,130.89L380.07,132.77L381.84,133.12L381.84,130.4L382.73,130.4L382.73,132.23L383.62,132.23L383.62,88.15L384.51,88.15L384.51,128.52L385.4,128.52L385.4,134.16L386.29,134.16L386.29,133L387.18,133L387.18,129.8L388.07,129.8L388.07,131.39L389.84,131.67L389.84,129.64L390.73,129.64L390.73,128.78L391.62,128.78L391.62,123.03L392.51,123.03L392.51,102.38L393.4,102.38L393.4,88.07L394.29,88.07L394.29,91.72L395.18,91.72L395.18,90.24L396.07,90.24L396.07,93.6L396.96,93.6L396.96,87.49L398.73,87.8L398.73,86.37L399.62,86.37L399.62,91.78L400.51,91.78L400.51,90.38L402.29,90.97L402.29,92.27L403.18,92.27L403.18,94.37L404.07,94.37L404.07,93.09L404.96,93.09L404.96,91.6L405.85,91.6L405.85,90.75L407.62,91.34L407.62,92.49L408.51,92.49L408.51,90.34L409.4,90.34L409.4,92.62L410.29,92.62L410.29,90.37L411.18,90.37L411.18,94.1L412.07,94.1L412.07,88.75L412.96,88.75L412.96,93.33L413.85,93.33L413.85,96.22L415.62,95.65L415.62,126.02L416.51,126.02L416.51,129.95L417.4,129.95L417.4,130.89L418.29,130.89L418.29,111.48L419.18,111.48L419.18,118.39L420.07,118.39L420.07,130.66L420.96,130.66L420.96,124.03L421.85,124.03L421.85,127.99L422.74,127.99L422.74,125.01L423.63,125.01L423.63,130.07L425.4,129.75L425.4,131.25L426.29,131.25L426.29,135.69L428.07,135.25L428.07,134.18L429.85,133.51L429.85,136.13L430.74,136.13L430.74,134.9L432.52,134.22L432.52,135.91L433.4,135.91L433.4,134.32L434.29,134.32L434.29,135.1L436.07,134.84L436.07,136.03L436.96,136.03L436.96,132.84L437.85,132.84L437.85,130L438.74,130L438.74,131.74L439.63,131.74L439.63,128.72L440.52,128.72L440.52,131.3L441.4,131.3L441.4,134.57L442.29,134.57L442.29,137.66L443.18,137.66L443.18,130.58L444.07,130.58L444.07,131.67L444.96,131.67L444.96,133.98L445.85,133.98L445.85,126.52L446.74,126.52L446.74,132.09L447.63,132.09L447.63,91.36L448.52,91.36L448.52,136.48L449.41,136.48L449.41,140.07L450.29,140.07L450.29,142.97L451.18,142.97L451.18,138.97L452.07,138.97L452.07,140.41L452.96,140.41L452.96,133.19L453.85,133.19L453.85,135.15L454.74,135.15L454.74,137.95L455.63,137.95L455.63,139.09L457.41,138.35L457.41,140.02L458.29,140.02L458.29,135.17L460.07,134.78L460.07,138.47L460.96,138.47L460.96,137.32L461.85,137.32L461.85,138.48L462.74,138.48L462.74,140.81L463.63,140.81L463.63,136.19L464.52,136.19L464.52,140.19L465.41,140.19L465.41,133.87L466.3,133.87L466.3,136.29L468.07,136.33L468.07,140.24L468.96,140.24L468.96,141.26L469.85,141.26L469.85,139.19L470.74,139.19L470.74,140.89L471.63,140.89L471.63,138.39L473.41,138.75L473.41,134.25L474.3,134.25L474.3,140.75L475.19,140.75L475.19,138.17L476.96,138.83L476.96,143.16L478.74,143.74L478.74,140.86L479.63,140.86L479.63,136.03L480.52,136.03L480.52,137.11L481.41,137.11L481.41,146.97L482.3,146.97L482.3,145.44L483.19,145.44L483.19,156.96L484.07,156.96L484.07,146.63L484.96,146.63L484.96,151.29L486.74,150.67L486.74,150.06L487.63,150.06L487.63,152.81L488.52,152.81L488.52,148.7L489.41,148.7L489.41,147.71L490.3,147.71L490.3,150.62L492.08,151.24L492.08,151.82L492.96,151.82L492.96,146.34L493.85,146.34L493.85,152.61L494.74,152.61L494.74,145.43L495.63,145.43L495.63,153.26L496.52,153.26L496.52,149.1L497.41,149.1L497.41,153.27L498.3,153.27L498.3,152.5L499.19,152.5L499.19,154.84L500.08,154.84L500.08,152.42L501.85,151.67L501.85,150.87L503.63,150.69L503.63,149.39L505.41,149.81L505.41,162.72L506.3,162.72L506.3,152.09L507.19,152.09L507.19,155.87L508.08,155.87L508.08,159.69L508.97,159.69L508.97,163.48L509.85,163.48L509.85,159.81L510.74,159.81L510.74,162.65L512.52,163.07L512.52,159.53L513.41,159.53L513.41,162.47L514.3,162.47L514.3,161.58L515.19,161.58L515.19,160.43L517.86,160.5L517.86,161.27L518.74,161.27L518.74,166.68L519.63,166.68L519.63,161.43L520.52,161.43L520.52,163.68L521.41,163.68L521.41,161.96L522.3,161.96L522.3,160.92L524.08,161.23L524.08,162.88L524.97,162.88L524.97,163.74L525.86,163.74L525.86,157.61L526.74,157.61L526.74,154.2L528.52,154.17L528.52,154.95L530.3,155.32L530.3,153.38L531.19,153.38L531.19,159.36L532.08,159.36L532.08,163.14L532.97,163.14L532.97,160.24L534.75,159.64L534.75,156.08L536.52,155.57L536.52,157.96L537.41,157.96L537.41,122.14L538.3,122.14L538.3,124.41L539.19,124.41L539.19,154.85L540.08,154.85L540.08,158.19L540.97,158.19L540.97,161.4L541.86,161.4L541.86,164.2L542.75,164.2L542.75,162.04L543.64,162.04L543.64,159.63L545.41,159.94L545.41,163.67L546.3,163.67L546.3,158.59L547.19,158.59L547.19,149.76L548.08,149.76L548.08,164.46L548.97,164.46L548.97,159.95L549.86,159.95L549.86,162.57L552.52,162.11L552.52,156.91L553.41,156.91L553.41,160.59L554.3,160.59L554.3,165.13L555.19,165.13L555.19,161.65L556.08,161.65L556.08,165.1L556.97,165.1L556.97,160.85L558.75,160.38L558.75,154.07L559.64,154.07L559.64,155.86L560.53,155.86L560.53,154.83L561.41,154.83L561.41,155.82L562.3,155.82L562.3,156.68L563.19,156.68L563.19,160.53L564.08,160.53L564.08,161.97L564.97,161.97L564.97,164.48L565.86,164.48L565.86,166.16L566.75,166.16L566.75,160.29L567.64,160.29L567.64,162.34L569.42,162.13L569.42,160.54L570.3,160.54L570.3,159.36L571.19,159.36L571.19,155.82L572.08,155.82L572.08,163.3L573.86,163.1L573.86,157.23L574.75,157.23L574.75,158.37L575.64,158.37L575.64,160.5L576.53,160.5L576.53,163.28L577.42,163.28L577.42,162.32L578.3,162.32L578.3,157.65L579.19,157.65L579.19,163.06L580.08,163.06L580.08,165.75L580.97,165.75L580.97,163.48L582.75,163.52L582.75,164.59L586.31,164.64L586.31,160.9L587.19,160.9L587.19,159.71L588.08,159.71L588.08,155.95L588.97,155.95L588.97,163.31L589.86,163.31L589.86,159.04L590.75,159.04L590.75,155.2L591.64,155.2L591.64,161.02L592.53,161.02L592.53,164.4L593.42,164.4L593.42,157.57L594.31,157.57L594.31,163.66L595.19,163.66L595.19,165.09L596.08,165.09L596.08,163.02L597.86,163.59L597.86,159.98L598.75,159.98L598.75,162.67L599.64,162.67L599.64,160.36L601.42,160.48L601.42,163.74L602.31,163.74L602.31,162.94L603.2,162.94L603.2,160.34L604.97,160.05L604.97,165.08L605.86,165.08L605.86,161.89L606.75,161.89L606.75,162.79L607.64,162.79L607.64,165.95L608.53,165.95L608.53,163.18L609.42,163.18L609.42,156.5L610.31,156.5L610.31,163.63L611.2,163.63L611.2,159.35L612.09,159.35L612.09,162.04L612.97,162.04L612.97,163.9L613.86,163.9L613.86,165.4L614.75,165.4L614.75,163.31L615.64,163.31L615.64,164.48L616.53,164.48L616.53,166.85L617.42,166.85L617.42,156.45L618.31,156.45L618.31,157.31L619.2,157.31L619.2,153.38L620.09,153.38L620.09,156.15L620.97,156.15L620.97,158.28L621.86,158.28L621.86,160.07L622.75,160.07L622.75,163.49L623.64,163.49L623.64,166.04L624.53,166.04L624.53,158.82L625.42,158.82L625.42,157.03L626.31,157.03L626.31,158.22L627.2,158.22L627.2,156.13L628.09,156.13L628.09,160.64L628.98,160.64L628.98,163.84L631.64,164.56L631.64,163.44L632.53,163.44L632.53,161.62L633.42,161.62L633.42,164.28L634.31,164.28L634.31,167.57L636.09,167.68L636.09,162.6L636.98,162.6L636.98,159.13L637.87,159.13L637.87,161.27L639.64,161.83L639.64,163.8L641.42,163.12L641.42,162.49L642.31,162.49L642.31,163.26L643.2,163.26L643.2,165.4L644.09,165.4L644.09,163.97L644.98,163.97L644.98,165.52L645.87,165.52L645.87,162.05L646.75,162.05L646.75,167.57L647.64,167.57L647.64,165.05L648.53,165.05L648.53,154.51L649.42,154.51L649.42,161.91L650.31,161.91L650.31,160.55L651.2,160.55L651.2,156.65L652.09,156.65L652.09,160.06L652.98,160.06L652.98,163.74L653.87,163.74L653.87,162.17L654.76,162.17L654.76,163.19L655.64,163.19L655.64,166.79L656.53,166.79L656.53,165.74L657.42,165.74L657.42,165.03" style="vector-effect: non-scaling-stroke; fill: none; stroke: rgb(62, 164, 78); stroke-opacity: 0.5; stroke-width: 1px; opacity: 1;"/></g><g class="points"/><g class="text"/></g></g></g><g class="overplot"/><path class="xlines-above crisp" d="M38.4925634295713,213.32818356966604H716.0629921259842" style="fill: none; stroke-width: 1px; stroke: rgb(0, 0, 0); stroke-opacity: 1;"/><path class="ylines-above crisp" d="M38.9925634295713,40.26392534266549V212.82818356966604" style="fill: none; stroke-width: 1px; stroke: rgb(0, 0, 0); stroke-opacity: 1;"/><g class="overlines-above"/><g class="xaxislayer-above"><path class="xtick ticks crisp" d="M0,212.82818356966604v-5" transform="translate(57.752563429571296,0)" style="stroke: rgb(0, 0, 0); stroke-opacity: 1; stroke-width: 1px;"/><path class="xtick ticks crisp" d="M0,212.82818356966604v-5" transform="translate(84.4225634295713,0)" style="stroke: rgb(0, 0, 0); stroke-opacity: 1; stroke-width: 1px;"/><path class="xtick ticks crisp" d="M0,212.82818356966604v-5" transform="translate(111.0925634295713,0)" style="stroke: rgb(0, 0, 0); stroke-opacity: 1; stroke-width: 1px;"/><path class="xtick ticks crisp" d="M0,212.82818356966604v-5" transform="translate(137.7625634295713,0)" style="stroke: rgb(0, 0, 0); stroke-opacity: 1; stroke-width: 1px;"/><path class="xtick ticks crisp" d="M0,212.82818356966604v-5" transform="translate(164.4225634295713,0)" style="stroke: rgb(0, 0, 0); stroke-opacity: 1; stroke-width: 1px;"/><path class="xtick ticks crisp" d="M0,212.82818356966604v-5" transform="translate(191.0925634295713,0)" style="stroke: rgb(0, 0, 0); stroke-opacity: 1; stroke-width: 1px;"/><path class="xtick ticks crisp" d="M0,212.82818356966604v-5" transform="translate(217.76256342957132,0)" style="stroke: rgb(0, 0, 0); stroke-opacity: 1; stroke-width: 1px;"/><path class="xtick ticks crisp" d="M0,212.82818356966604v-5" transform="translate(244.4325634295713,0)" style="stroke: rgb(0, 0, 0); stroke-opacity: 1; stroke-width: 1px;"/><path class="xtick ticks crisp" d="M0,212.82818356966604v-5" transform="translate(271.1025634295713,0)" style="stroke: rgb(0, 0, 0); stroke-opacity: 1; stroke-width: 1px;"/><path class="xtick ticks crisp" d="M0,212.82818356966604v-5" transform="translate(297.7725634295713,0)" style="stroke: rgb(0, 0, 0); stroke-opacity: 1; stroke-width: 1px;"/><path class="xtick ticks crisp" d="M0,212.82818356966604v-5" transform="translate(324.4425634295713,0)" style="stroke: rgb(0, 0, 0); stroke-opacity: 1; stroke-width: 1px;"/><path class="xtick ticks crisp" d="M0,212.82818356966604v-5" transform="translate(351.1125634295713,0)" style="stroke: rgb(0, 0, 0); stroke-opacity: 1; stroke-width: 1px;"/><path class="xtick ticks crisp" d="M0,212.82818356966604v-5" transform="translate(377.7825634295713,0)" style="stroke: rgb(0, 0, 0); stroke-opacity: 1; stroke-width: 1px;"/><path class="xtick ticks crisp" d="M0,212.82818356966604v-5" transform="translate(404.4425634295713,0)" style="stroke: rgb(0, 0, 0); stroke-opacity: 1; stroke-width: 1px;"/><path class="xtick ticks crisp" d="M0,212.82818356966604v-5" transform="translate(431.1125634295713,0)" style="stroke: rgb(0, 0, 0); stroke-opacity: 1; stroke-width: 1px;"/><path class="xtick ticks crisp" d="M0,212.82818356966604v-5" transform="translate(457.7825634295713,0)" style="stroke: rgb(0, 0, 0); stroke-opacity: 1; stroke-width: 1px;"/><path class="xtick ticks crisp" d="M0,212.82818356966604v-5" transform="translate(484.4525634295713,0)" style="stroke: rgb(0, 0, 0); stroke-opacity: 1; stroke-width: 1px;"/><path class="xtick ticks crisp" d="M0,212.82818356966604v-5" transform="translate(511.1225634295713,0)" style="stroke: rgb(0, 0, 0); stroke-opacity: 1; stroke-width: 1px;"/><path class="xtick ticks crisp" d="M0,212.82818356966604v-5" transform="translate(537.7925634295713,0)" style="stroke: rgb(0, 0, 0); stroke-opacity: 1; stroke-width: 1px;"/><path class="xtick ticks crisp" d="M0,212.82818356966604v-5" transform="translate(564.4625634295713,0)" style="stroke: rgb(0, 0, 0); stroke-opacity: 1; stroke-width: 1px;"/><path class="xtick ticks crisp" d="M0,212.82818356966604v-5" transform="translate(591.1325634295713,0)" style="stroke: rgb(0, 0, 0); stroke-opacity: 1; stroke-width: 1px;"/><path class="xtick ticks crisp" d="M0,212.82818356966604v-5" transform="translate(617.7925634295713,0)" style="stroke: rgb(0, 0, 0); stroke-opacity: 1; stroke-width: 1px;"/><path class="xtick ticks crisp" d="M0,212.82818356966604v-5" transform="translate(644.4625634295713,0)" style="stroke: rgb(0, 0, 0); stroke-opacity: 1; stroke-width: 1px;"/><path class="xtick ticks crisp" d="M0,212.82818356966604v-5" transform="translate(671.1325634295713,0)" style="stroke: rgb(0, 0, 0); stroke-opacity: 1; stroke-width: 1px;"/><path class="xtick ticks crisp" d="M0,212.82818356966604v-5" transform="translate(697.8025634295713,0)" style="stroke: rgb(0, 0, 0); stroke-opacity: 1; stroke-width: 1px;"/><g class="xtick"><text text-anchor="start" x="0" y="227.02818356966603" transform="translate(57.752563429571296,0) rotate(22,0,221.52818356966603)" style="font-family: sans-serif; font-size: 11px; fill: rgb(0, 0, 0); fill-opacity: 1; white-space: pre; opacity: 1;">2022-10-27 00:00:00</text></g><g class="xtick"><text text-anchor="start" x="0" y="227.02818356966603" style="font-family: sans-serif; font-size: 11px; fill: rgb(0, 0, 0); fill-opacity: 1; white-space: pre; opacity: 1;" transform="translate(84.4225634295713,0) rotate(22,0,221.52818356966603)">01:00:00</text></g><g class="xtick"><text text-anchor="start" x="0" y="227.02818356966603" style="font-family: sans-serif; font-size: 11px; fill: rgb(0, 0, 0); fill-opacity: 1; white-space: pre; opacity: 1;" transform="translate(111.0925634295713,0) rotate(22,0,221.52818356966603)">02:00:00</text></g><g class="xtick"><text text-anchor="start" x="0" y="227.02818356966603" style="font-family: sans-serif; font-size: 11px; fill: rgb(0, 0, 0); fill-opacity: 1; white-space: pre; opacity: 1;" transform="translate(137.7625634295713,0) rotate(22,0,221.52818356966603)">03:00:00</text></g><g class="xtick"><text text-anchor="start" x="0" y="227.02818356966603" style="font-family: sans-serif; font-size: 11px; fill: rgb(0, 0, 0); fill-opacity: 1; white-space: pre; opacity: 1;" transform="translate(164.4225634295713,0) rotate(22,0,221.52818356966603)">04:00:00</text></g><g class="xtick"><text text-anchor="start" x="0" y="227.02818356966603" style="font-family: sans-serif; font-size: 11px; fill: rgb(0, 0, 0); fill-opacity: 1; white-space: pre; opacity: 1;" transform="translate(191.0925634295713,0) rotate(22,0,221.52818356966603)">05:00:00</text></g><g class="xtick"><text text-anchor="start" x="0" y="227.02818356966603" style="font-family: sans-serif; font-size: 11px; fill: rgb(0, 0, 0); fill-opacity: 1; white-space: pre; opacity: 1;" transform="translate(217.76256342957132,0) rotate(22,0,221.52818356966603)">06:00:00</text></g><g class="xtick"><text text-anchor="start" x="0" y="227.02818356966603" style="font-family: sans-serif; font-size: 11px; fill: rgb(0, 0, 0); fill-opacity: 1; white-space: pre; opacity: 1;" transform="translate(244.4325634295713,0) rotate(22,0,221.52818356966603)">07:00:00</text></g><g class="xtick"><text text-anchor="start" x="0" y="227.02818356966603" style="font-family: sans-serif; font-size: 11px; fill: rgb(0, 0, 0); fill-opacity: 1; white-space: pre; opacity: 1;" transform="translate(271.1025634295713,0) rotate(22,0,221.52818356966603)">08:00:00</text></g><g class="xtick"><text text-anchor="start" x="0" y="227.02818356966603" style="font-family: sans-serif; font-size: 11px; fill: rgb(0, 0, 0); fill-opacity: 1; white-space: pre; opacity: 1;" transform="translate(297.7725634295713,0) rotate(22,0,221.52818356966603)">09:00:00</text></g><g class="xtick"><text text-anchor="start" x="0" y="227.02818356966603" style="font-family: sans-serif; font-size: 11px; fill: rgb(0, 0, 0); fill-opacity: 1; white-space: pre; opacity: 1;" transform="translate(324.4425634295713,0) rotate(22,0,221.52818356966603)">10:00:00</text></g><g class="xtick"><text text-anchor="start" x="0" y="227.02818356966603" style="font-family: sans-serif; font-size: 11px; fill: rgb(0, 0, 0); fill-opacity: 1; white-space: pre; opacity: 1;" transform="translate(351.1125634295713,0) rotate(22,0,221.52818356966603)">11:00:00</text></g><g class="xtick"><text text-anchor="start" x="0" y="227.02818356966603" style="font-family: sans-serif; font-size: 11px; fill: rgb(0, 0, 0); fill-opacity: 1; white-space: pre; opacity: 1;" transform="translate(377.7825634295713,0) rotate(22,0,221.52818356966603)">12:00:00</text></g><g class="xtick"><text text-anchor="start" x="0" y="227.02818356966603" style="font-family: sans-serif; font-size: 11px; fill: rgb(0, 0, 0); fill-opacity: 1; white-space: pre; opacity: 1;" transform="translate(404.4425634295713,0) rotate(22,0,221.52818356966603)">13:00:00</text></g><g class="xtick"><text text-anchor="start" x="0" y="227.02818356966603" style="font-family: sans-serif; font-size: 11px; fill: rgb(0, 0, 0); fill-opacity: 1; white-space: pre; opacity: 1;" transform="translate(431.1125634295713,0) rotate(22,0,221.52818356966603)">14:00:00</text></g><g class="xtick"><text text-anchor="start" x="0" y="227.02818356966603" style="font-family: sans-serif; font-size: 11px; fill: rgb(0, 0, 0); fill-opacity: 1; white-space: pre; opacity: 1;" transform="translate(457.7825634295713,0) rotate(22,0,221.52818356966603)">15:00:00</text></g><g class="xtick"><text text-anchor="start" x="0" y="227.02818356966603" style="font-family: sans-serif; font-size: 11px; fill: rgb(0, 0, 0); fill-opacity: 1; white-space: pre; opacity: 1;" transform="translate(484.4525634295713,0) rotate(22,0,221.52818356966603)">16:00:00</text></g><g class="xtick"><text text-anchor="start" x="0" y="227.02818356966603" style="font-family: sans-serif; font-size: 11px; fill: rgb(0, 0, 0); fill-opacity: 1; white-space: pre; opacity: 1;" transform="translate(511.1225634295713,0) rotate(22,0,221.52818356966603)">17:00:00</text></g><g class="xtick"><text text-anchor="start" x="0" y="227.02818356966603" style="font-family: sans-serif; font-size: 11px; fill: rgb(0, 0, 0); fill-opacity: 1; white-space: pre; opacity: 1;" transform="translate(537.7925634295713,0) rotate(22,0,221.52818356966603)">18:00:00</text></g><g class="xtick"><text text-anchor="start" x="0" y="227.02818356966603" style="font-family: sans-serif; font-size: 11px; fill: rgb(0, 0, 0); fill-opacity: 1; white-space: pre; opacity: 1;" transform="translate(564.4625634295713,0) rotate(22,0,221.52818356966603)">19:00:00</text></g><g class="xtick"><text text-anchor="start" x="0" y="227.02818356966603" style="font-family: sans-serif; font-size: 11px; fill: rgb(0, 0, 0); fill-opacity: 1; white-space: pre; opacity: 1;" transform="translate(591.1325634295713,0) rotate(22,0,221.52818356966603)">20:00:00</text></g><g class="xtick"><text text-anchor="start" x="0" y="227.02818356966603" style="font-family: sans-serif; font-size: 11px; fill: rgb(0, 0, 0); fill-opacity: 1; white-space: pre; opacity: 1;" transform="translate(617.7925634295713,0) rotate(22,0,221.52818356966603)">21:00:00</text></g><g class="xtick"><text text-anchor="start" x="0" y="227.02818356966603" style="font-family: sans-serif; font-size: 11px; fill: rgb(0, 0, 0); fill-opacity: 1; white-space: pre; opacity: 1;" transform="translate(644.4625634295713,0) rotate(22,0,221.52818356966603)">22:00:00</text></g><g class="xtick"><text text-anchor="start" x="0" y="227.02818356966603" style="font-family: sans-serif; font-size: 11px; fill: rgb(0, 0, 0); fill-opacity: 1; white-space: pre; opacity: 1;" transform="translate(671.1325634295713,0) rotate(22,0,221.52818356966603)">23:00:00</text></g><g class="xtick"><text text-anchor="start" x="0" y="227.02818356966603" style="font-family: sans-serif; font-size: 11px; fill: rgb(0, 0, 0); fill-opacity: 1; white-space: pre; opacity: 0;" transform="translate(697.8025634295713,0) rotate(22,0,221.52818356966603)">2022-10-28 00:00:00</text></g></g><g class="yaxislayer-above"><path class="ytick ticks crisp" d="M39.4925634295713,0h5" transform="translate(0,156.8839253426655)" style="stroke: rgb(0, 0, 0); stroke-opacity: 1; stroke-width: 1px;"/><path class="ytick ticks crisp" d="M39.4925634295713,0h5" transform="translate(0,67.7239253426655)" style="stroke: rgb(0, 0, 0); stroke-opacity: 1; stroke-width: 1px;"/><g class="ytick"><text text-anchor="end" x="36.292563429571295" y="3.8499999999999996" transform="translate(0,156.8839253426655)" style="font-family: sans-serif; font-size: 11px; fill: rgb(0, 0, 0); fill-opacity: 1; white-space: pre; opacity: 1;">10^3</text></g><g class="ytick"><text text-anchor="end" x="36.292563429571295" y="3.8499999999999996" style="font-family: sans-serif; font-size: 11px; fill: rgb(0, 0, 0); fill-opacity: 1; white-space: pre; opacity: 1;" transform="translate(0,67.7239253426655)">10^4</text></g></g><g class="overaxes-above"/></g></g><g class="polarlayer"/><g class="ternarylayer"/><g class="geolayer"/><g class="funnelarealayer"/><g class="pielayer"/><g class="iciclelayer"/><g class="treemaplayer"/><g class="sunburstlayer"/><g class="glimages"/><defs id="topdefs-3169b5"><g class="clips"/></defs><g class="layer-above"><g class="imagelayer"/><g class="shapelayer"/></g><g class="infolayer"><g class="g-gtitle"/><g class="g-xtitle"/><g class="g-ytitle"/><g class="annotation" data-index="0" style="opacity: 1;"><g class="annotation-text-g" transform="rotate(0,377.77777777777777,33.500000000000014)"><g class="cursor-pointer" transform="translate(155,20)"><rect class="bg" x="0.5" y="0.5" width="445" height="26" style="stroke-width: 1px; stroke: rgb(0, 0, 0); stroke-opacity: 0; fill: rgb(0, 0, 0); fill-opacity: 0;"/><text class="annotation-text" text-anchor="middle" x="223.052734375" y="20.3251953125" style="font-family: sans-serif; font-size: 20px; fill: rgb(0, 0, 0); fill-opacity: 1; white-space: pre;">2022-10-27 | mdt | compute | l_close | unit/second</text></g></g></g></g></svg>