<svg class="main-svg" xmlns="http://www.w3.org/2000/svg" xmlns:xlink="http://www.w3.org/1999/xlink" width="720" height="360" style=""><rect x="0" y="0" width="720" height="360" style="fill: rgb(255, 255, 255); fill-opacity: 1;"/><defs id="defs-b0ceb2"><g class="clips"><clipPath id="clipb0ceb2xyplot" class="plotclip"><rect width="667.681539807524" height="104.71018090241475"/></clipPath><clipPath id="clipb0ceb2xy2plot" class="plotclip"><rect width="667.681539807524" height="104.71018090241475"/></clipPath><clipPath class="axesclip" id="clipb0ceb2x"><rect x="48.38145231846019" y="0" width="667.681539807524" height="360"/></clipPath><clipPath class="axesclip" id="clipb0ceb2y"><rect x="0" y="35.84524156702635" width="720" height="104.71018090241475"/></clipPath><clipPath class="axesclip" id="clipb0ceb2xy"><rect x="48.38145231846019" y="35.84524156702635" width="667.681539807524" height="104.71018090241475"/></clipPath><clipPath class="axesclip" id="clipb0ceb2y2"><rect x="0" y="172.2459056034938" width="720" height="104.71018090241475"/></clipPath><clipPath class="axesclip" id="clipb0ceb2xy2"><rect x="48.38145231846019" y="172.2459056034938" width="667.681539807524" height="104.71018090241475"/></clipPath></g><g class="gradients"/><g class="patterns"/></defs><g class="bglayer"/><g class="layer-below"><g class="imagelayer"/><g class="shapelayer"/></g><g class="cartesianlayer"><g class="subplot xy"><g class="layer-subplot"><g class="shapelayer"/><g class="imagelayer"/></g><g class="gridlayer"><g class="x"><path class="xgrid crisp" transform="translate(67.2814523184602,0)" d="M0,35.84524156702635v104.71018090241475" style="stroke: rgb(0, 0, 0); stroke-opacity: 0.1; stroke-width: 0.5px;"/><path class="xgrid crisp" transform="translate(93.52145231846019,0)" d="M0,35.84524156702635v104.71018090241475" style="stroke: rgb(0, 0, 0); stroke-opacity: 0.1; stroke-width: 0.5px;"/><path class="xgrid crisp" transform="translate(119.77145231846019,0)" d="M0,35.84524156702635v104.71018090241475" style="stroke: rgb(0, 0, 0); stroke-opacity: 0.1; stroke-width: 0.5px;"/><path class="xgrid crisp" transform="translate(146.0114523184602,0)" d="M0,35.84524156702635v104.71018090241475" style="stroke: rgb(0, 0, 0); stroke-opacity: 0.1; stroke-width: 0.5px;"/><path class="xgrid crisp" transform="translate(172.2614523184602,0)" d="M0,35.84524156702635v104.71018090241475" style="stroke: rgb(0, 0, 0); stroke-opacity: 0.1; stroke-width: 0.5px;"/><path class="xgrid crisp" transform="translate(198.5014523184602,0)" d="M0,35.84524156702635v104.71018090241475" style="stroke: rgb(0, 0, 0); stroke-opacity: 0.1; stroke-width: 0.5px;"/><path class="xgrid crisp" transform="translate(224.7514523184602,0)" d="M0,35.84524156702635v104.71018090241475" style="stroke: rgb(0, 0, 0); stroke-opacity: 0.1; stroke-width: 0.5px;"/><path class="xgrid crisp" transform="translate(250.9914523184602,0)" d="M0,35.84524156702635v104.71018090241475" style="stroke: rgb(0, 0, 0); stroke-opacity: 0.1; stroke-width: 0.5px;"/><path class="xgrid crisp" transform="translate(277.24145231846023,0)" d="M0,35.84524156702635v104.71018090241475" style="stroke: rgb(0, 0, 0); stroke-opacity: 0.1; stroke-width: 0.5px;"/><path class="xgrid crisp" transform="translate(303.4814523184602,0)" d="M0,35.84524156702635v104.71018090241475" style="stroke: rgb(0, 0, 0); stroke-opacity: 0.1; stroke-width: 0.5px;"/><path class="xgrid crisp" transform="translate(329.73145231846024,0)" d="M0,35.84524156702635v104.71018090241475" style="stroke: rgb(0, 0, 0); stroke-opacity: 0.1; stroke-width: 0.5px;"/><path class="xgrid crisp" transform="translate(355.98145231846024,0)" d="M0,35.84524156702635v104.71018090241475" style="stroke: rgb(0, 0, 0); stroke-opacity: 0.1; stroke-width: 0.5px;"/><path class="xgrid crisp" transform="translate(382.22145231846014,0)" d="M0,35.84524156702635v104.71018090241475" style="stroke: rgb(0, 0, 0); stroke-opacity: 0.1; stroke-width: 0.5px;"/><path class="xgrid crisp" transform="translate(408.47145231846014,0)" d="M0,35.84524156702635v104.71018090241475" style="stroke: rgb(0, 0, 0); stroke-opacity: 0.1; stroke-width: 0.5px;"/><path class="xgrid crisp" transform="translate(434.71145231846015,0)" d="M0,35.84524156702635v104.71018090241475" style="stroke: rgb(0, 0, 0); stroke-opacity: 0.1; stroke-width: 0.5px;"/><path class="xgrid crisp" transform="translate(460.96145231846015,0)" d="M0,35.84524156702635v104.71018090241475" style="stroke: rgb(0, 0, 0); stroke-opacity: 0.1; stroke-width: 0.5px;"/><path class="xgrid crisp" transform="translate(487.20145231846016,0)" d="M0,35.84524156702635v104.71018090241475" style="stroke: rgb(0, 0, 0); stroke-opacity: 0.1; stroke-width: 0.5px;"/><path class="xgrid crisp" transform="translate(513.4514523184602,0)" d="M0,35.84524156702635v104.71018090241475" style="stroke: rgb(0, 0, 0); stroke-opacity: 0.1; stroke-width: 0.5px;"/><path class="xgrid crisp" transform="translate(539.6914523184602,0)" d="M0,35.84524156702635v104.71018090241475" style="stroke: rgb(0, 0, 0); stroke-opacity: 0.1; stroke-width: 0.5px;"/><path class="xgrid crisp" transform="translate(565.9414523184602,0)" d="M0,35.84524156702635v104.71018090241475" style="stroke: rgb(0, 0, 0); stroke-opacity: 0.1; stroke-width: 0.5px;"/><path class="xgrid crisp" transform="translate(592.1814523184602,0)" d="M0,35.84524156702635v104.71018090241475" style="stroke: rgb(0, 0, 0); stroke-opacity: 0.1; stroke-width: 0.5px;"/><path class="xgrid crisp" transform="translate(618.4314523184602,0)" d="M0,35.84524156702635v104.71018090241475" style="stroke: rgb(0, 0, 0); stroke-opacity: 0.1; stroke-width: 0.5px;"/><path class="xgrid crisp" transform="translate(644.6714523184602,0)" d="M0,35.84524156702635v104.71018090241475" style="stroke: rgb(0, 0, 0); stroke-opacity: 0.1; stroke-width: 0.5px;"/><path class="xgrid crisp" transform="translate(670.9214523184602,0)" d="M0,35.84524156702635v104.71018090241475" style="stroke: rgb(0, 0, 0); stroke-opacity: 0.1; stroke-width: 0.5px;"/><path class="xgrid crisp" transform="translate(697.1614523184602,0)" d="M0,35.84524156702635v104.71018090241475" style="stroke: rgb(0, 0, 0); stroke-opacity: 0.1; stroke-width: 0.5px;"/></g><g class="y"><path class="ygrid crisp" transform="translate(0,137.59524156702633)" d="M48.38145231846019,0h667.681539807524" style="stroke: rgb(0, 0, 0); stroke-opacity: 0.1; stroke-width: 0.5px;"/><path class="ygrid crisp" transform="translate(0,119.05524156702634)" d="M48.38145231846019,0h667.681539807524" style="stroke: rgb(0, 0, 0); stroke-opacity: 0.1; stroke-width: 0.5px;"/><path class="ygrid crisp" transform="translate(0,100.52524156702636)" d="M48.38145231846019,0h667.681539807524" style="stroke: rgb(0, 0, 0); stroke-opacity: 0.1; stroke-width: 0.5px;"/><path class="ygrid crisp" transform="translate(0,81.99524156702634)" d="M48.38145231846019,0h667.681539807524" style="stroke: rgb(0, 0, 0); stroke-opacity: 0.1; stroke-width: 0.5px;"/><path class="ygrid crisp" transform="translate(0,63.45524156702635)" d="M48.38145231846019,0h667.681539807524" style="stroke: rgb(0, 0, 0); stroke-opacity: 0.1; stroke-width: 0.5px;"/><path class="ygrid crisp" transform="translate(0,44.92524156702635)" d="M48.38145231846019,0h667.681539807524" style="stroke: rgb(0, 0, 0); stroke-opacity: 0.1; stroke-width: 0.5px;"/></g></g><g class="zerolinelayer"/><path class="xlines-below"/><path class="ylines-below"/><g class="overlines-below"/><g class="xaxislayer-below"/><g class="yaxislayer-below"/><g class="overaxes-below"/><g class="plot" transform="translate(48.38145231846019,35.84524156702635)" clip-path="url(#clipb0ceb2xyplot)"><g class="scatterlayer mlayer"><g class="trace scatter trace934c56" style="stroke-miterlimit: 2; opacity: 1;"><g class="fills"/><g class="errorbars"/><g class="lines"><path class="js-line" d="M19.04,66.16L19.04,65.98L20.01,65.98L20.01,65.79L20.88,65.79L20.88,65.24L22.23,65.24L22.94,63.75L24.14,63.75L24.14,62.46L24.99,62.46L24.99,60.6L25.85,60.6L25.85,59.49L26.73,59.49L26.73,57.45L27.57,57.45L27.57,55.04L28.46,55.04L28.46,52.63L29.36,52.63L29.36,49.85L30.22,49.85L30.22,47.81L31.04,47.81L31.04,45.78L31.98,45.78L32.68,43.18L33.73,43.18L34.14,42.25L35.34,42.25L35.34,42.07L40.14,42.07L40.14,101.75L52.5,101.75L52.5,101.19L53.37,101.19L53.37,101.75L63.99,101.75L63.99,101.38L64.86,101.38L64.86,101.19L71.29,101.19L71.29,101.01L74.01,101.01L74.01,100.63L75.59,100.63L75.59,100.26L76.99,100.26L76.99,100.08L77.98,100.08L77.98,99.52L79.26,99.52L79.26,98.6L80.11,98.6L80.79,96L81.88,96L81.88,94.33L82.73,94.33L82.73,92.29L83.59,92.29L83.59,89.89L84.42,89.89L84.42,87.85L85.35,87.85L85.35,85.62L86.16,85.62L86.16,83.4L87.1,83.4L87.1,81.17L87.96,81.17L87.96,79.88L88.78,79.88L88.78,78.58L89.6,78.58L89.6,77.28L90.5,77.28L90.5,75.99L91.32,75.99L92.03,74.5L93,74.5L93.63,73.76L94.38,73.76L94.38,73.58L95.39,73.58L95.39,73.39L96.69,73.39L96.69,73.21L98.49,73.21L98.49,72.65L100.44,72.65L100.44,72.46L102.59,72.46L102.59,72.09L104.9,72.09L104.9,71.91L107.05,71.91L107.05,71.54L108.81,71.54L108.81,71.17L110.17,71.17L110.17,70.8L111.25,70.8L111.25,70.43L112.09,70.43L112.09,69.87L113.32,69.87L113.32,69.13L114.23,69.13L114.23,68.39L115.12,68.39L115.87,65.61L116.8,65.61L116.8,63.57L117.73,63.57L117.73,61.16L118.63,61.16L118.63,58.56L119.45,58.56L119.45,56.15L120.34,56.15L120.34,53.75L121.2,53.75L121.2,51.71L122.1,51.71L122.1,49.3L123,49.3L123,47.63L123.78,47.63L124.37,46.33L124.94,46.33L124.94,46.15L128.75,46.15L128.75,45.96L133.41,45.96L133.41,45.59L137.94,45.59L137.94,45.22L142.86,45.22L142.86,101.75L147.2,101.75L147.2,101.38L148.07,101.38L148.07,101.01L151.2,101.01L151.2,100.82L154.26,100.82L154.26,100.63L157.46,100.63L157.46,100.45L160.19,100.45L160.19,100.26L161.8,100.26L161.8,100.08L163.14,100.08L163.14,99.89L164.11,99.89L164.67,98.6L165.84,98.6L166.46,96.93L167.58,96.93L167.58,96L168.41,96L168.41,94.7L169.3,94.7L169.3,93.22L170.16,93.22L170.16,91.55L171.11,91.55L171.11,89.7L171.99,89.7L171.99,88.03L172.81,88.03L172.81,86.36L173.67,86.36L173.67,85.07L174.45,85.07L174.45,83.77L175.42,83.77L175.42,82.84L176.32,82.84L176.32,82.29L177.14,82.29L177.14,81.92L177.92,81.92L178.6,81.36L179.38,81.36L179.38,81.17L180.42,81.17L180.42,80.99L181.88,80.99L181.88,80.8L183.3,80.8L183.56,80.43L185.36,80.43L185.36,80.25L187.22,80.25L187.22,80.06L188.9,80.06L188.9,79.88L190.32,79.88L192.9,79.14L192.9,78.95L194.65,78.39L194.65,77.84L196.29,77.28L196.29,76.73L198.16,75.99L198.16,75.43L199.87,74.87L199.87,73.76L203.76,73.02L203.76,72.83L209.55,72.09L209.55,71.91L215.18,71.17L215.18,70.8L219.21,70.05L219.21,69.87L225.48,69.13L225.48,68.94L229.33,68.2L229.33,67.46L231.45,66.9L231.45,65.79L232.32,65.79L232.32,64.68L233.22,64.68L233.22,63.57L234.05,63.57L234.05,62.09L234.98,62.09L234.98,60.6L235.69,60.6L235.69,59.31L236.7,59.31L236.7,58.38L238.35,57.64L238.35,56.9L239.91,56.53L239.91,55.97L243.94,55.23L243.94,55.04L252.01,54.3L252.01,54.12L255.4,53.56L255.4,52.82L257.49,52.26L257.49,51.52L260.33,50.78L260.33,50.59L265.22,49.85L265.22,49.67L270.3,48.93L270.3,48.74L274.15,48L274.15,47.81L276.8,47.07L276.8,46.7L278.33,46.33L278.33,45.78L279.3,45.78L279.3,44.48L280.46,44.48L280.46,43L281.28,43L281.28,41.14L282.22,41.14L282.22,39.85L283.85,39.1L283.85,37.99L287.42,37.25L287.42,37.07L287.47,36.88L289.04,36.88L289.04,36.69L291.4,36.69L291.4,36.51L293.44,36.51L293.44,36.32L294.83,36.32L294.83,36.14L295.95,36.14L295.95,35.77L296.77,35.77L296.77,35.4L297.81,35.4L297.81,34.84L298.71,34.84L298.71,34.1L299.68,34.1L299.68,33.54L300.6,33.54L300.6,32.8L301.4,32.8L301.4,32.25L302.32,32.25L302.32,31.5L303.11,31.5L303.11,30.02L304.01,30.02L304.01,29.1L304.88,29.1L304.88,28.54L305.66,28.54L305.66,27.98L306.51,27.98L306.51,27.24L307.56,27.24L308.19,26.5L309.24,26.5L309.24,26.13L310.1,26.13L310.1,25.94L310.88,25.94L310.88,25.76L311.89,25.76L311.89,25.57L313.16,25.57L313.16,25.39L314.8,25.39L314.8,25.2L316.63,25.2L316.63,25.02L318.46,25.02L318.46,24.83L319.84,24.83L320.36,24.46L321.29,24.46L321.29,24.28L325.51,24.28L325.51,24.09L329.66,24.09L329.66,23.72L333.43,23.72L333.43,23.35L337.19,23.35L337.19,22.98L340.93,22.98L340.93,22.79L344.4,22.79L344.4,22.42L346.56,22.42L346.56,22.24L348.39,22.24L348.39,22.05L350.11,22.05L350.11,21.68L352.2,21.68L352.95,20.76L353.88,20.76L353.88,20.2L354.84,20.2L354.84,19.46L355.7,19.46L355.7,18.9L356.49,18.9L356.49,18.16L357.43,18.16L358.17,17.05L358.92,17.05L358.92,16.49L359.89,16.49L359.89,15.75L360.86,15.75L360.86,15.38L361.65,15.38L361.65,15.2L362.6,15.2L362.6,15.01L363.49,15.01L363.69,14.64L364.96,14.64L364.96,14.45L366.57,14.45L366.57,14.27L369.15,14.27L369.15,14.08L371.46,14.08L371.46,13.9L373.03,13.9L373.03,13.71L374.07,13.71L374.3,13.16L375.19,13.16L375.19,12.79L376.56,12.79L376.56,12.23L377.43,12.23L377.43,11.67L378.33,11.67L378.33,11.12L379.22,11.12L379.22,10.56L380.05,10.56L380.05,10.01L380.9,10.01L380.9,9.45L381.78,9.45L381.78,8.71L382.82,8.71L382.82,8.15L383.63,8.15L383.63,7.23L384.54,7.23L384.54,6.48L385.35,6.48L386.02,5.56L387.06,5.56L387.06,5L388.08,5L388.74,4.26L389.79,4.26L390.53,3.89L391.46,3.89L398.04,3.15L398.04,2.96L400.09,2.96L400.09,101.75L436.93,101.38L436.93,100.63L443.03,100.08L443.03,99.15L443.88,99.15L443.88,97.85L444.84,97.85L444.84,95.82L445.82,95.82L445.82,93.41L446.64,93.41L446.64,90.81L447.53,90.81L447.53,87.85L448.45,87.85L448.45,85.25L449.31,85.25L449.31,82.66L450.17,82.66L450.17,80.43L451.06,80.43L451.06,78.77L451.88,78.77L451.88,77.65L454.69,76.91L454.69,76.54L463.08,75.8L463.08,75.43L465.69,75.06L465.69,73.95L466.78,73.95L466.78,72.46L467.64,72.46L467.64,69.31L468.54,69.31L468.54,67.83L469.34,67.83L469.34,65.42L470.32,65.42L470.32,62.09L471.14,62.09L471.14,59.86L472.04,59.86L472.04,57.08L472.84,57.08L472.84,55.04L474.64,54.3L474.64,53.75L476.29,53.19L476.29,52.82L479.07,52.08L479.07,51.71L484.04,51.15L484.04,101.75L527.94,101.01L527.94,100.63L530.57,99.89L530.57,99.15L532.29,98.6L532.29,97.85L533.23,97.85L533.23,96.74L534.16,96.74L534.16,95.45L534.98,95.45L534.98,94.52L535.88,94.52L535.88,93.04L536.78,93.04L536.78,91L537.67,91L537.67,89.51L538.45,89.51L538.45,88.4L540.03,87.85L540.03,87.48L546.63,86.73L546.63,86.55L552.27,85.99L552.27,85.62L554.21,84.88L554.21,84.51L555.93,83.77L555.93,82.66L556.83,82.66L556.83,81.55L557.73,81.55L557.73,80.43L558.66,80.43L558.66,79.51L559.49,79.51L559.49,78.21L561.06,77.47L561.06,76.54L562.96,75.8L562.96,75.24L564.41,74.87L564.41,74.32L567.81,73.76L567.81,101.75L617.09,101.01L617.09,100.82L619.86,100.08L619.86,99.71L621.65,98.97L621.65,98.6L622.25,98.6L622.25,97.3L623.36,97.3L623.36,95.45L624.26,95.45L624.26,93.41L625.12,93.41L625.12,91.74L625.91,91.74L625.91,89.89L627.66,89.14L627.66,88.59L629.42,88.03L629.42,87.48L631.85,86.73L631.85,86.55L640.18,85.81L640.18,85.44L643.28,84.88L643.28,83.03L644.36,83.03L644.36,81.17L645.11,81.17L645.11,78.58L646.08,78.58L646.08,76.36L646.98,76.36L646.98,74.69L647.84,74.69L647.84,73.02L648.73,73.02" style="vector-effect: non-scaling-stroke; fill: none; stroke: rgb(0, 154, 250); stroke-opacity: 1; stroke-width: 1px; opacity: 1;"/></g><g class="points"/><g class="text"/></g><g class="trace scatter tracee7e9bb" style="stroke-miterlimit: 2; opacity: 1;"><g class="fills"/><g class="errorbars"/><g class="lines"><path class="js-line" d="M19.39,101.75L170.24,101.19L170.24,99.52L183.31,99.34L183.31,101.75L233.22,101.01L233.22,100.45L241.3,100.45L241.3,101.75L538.41,101.75L538.41,100.82L564.84,100.26L564.84,101.75L648.62,101.75" style="vector-effect: non-scaling-stroke; fill: none; stroke: rgb(227, 111, 71); stroke-opacity: 1; stroke-width: 1px; opacity: 1;"/></g><g class="points"/><g class="text"/></g><g class="trace scatter tracea18c31" style="stroke-miterlimit: 2; opacity: 1;"><g class="fills"/><g class="errorbars"/><g class="lines"><path class="js-line" d="M19.93,101.75L171.12,101.75L171.12,100.45L183.3,100.45L183.3,101.75L468.54,101.56L468.54,99.71L473.8,98.97L473.8,98.78L482.97,98.78L482.97,101.75L554.21,101.56L554.21,100.82L556.86,100.08L556.86,99.89L567.08,99.15L567.08,101.75L647.91,101.75L647.91,100.26L648.77,100.26" style="vector-effect: non-scaling-stroke; fill: none; stroke: rgb(62, 164, 78); stroke-opacity: 1; stroke-width: 1px; opacity: 1;"/></g><g class="points"/><g class="text"/></g><g class="trace scatter tracec8e4f3" style="stroke-miterlimit: 2; opacity: 1;"><g class="fills"/><g class="errorbars"/><g class="lines"><path class="js-line" d="M20.18,98.97L34.05,98.97L34.05,101.75L86.73,101.75L86.73,100.08L87.99,100.08L87.99,98.97L89.42,98.97L89.42,101.75L165.79,101.19L165.79,100.26L169.3,99.71L169.3,98.78L181.66,98.78L181.66,101.75L229.49,101.38L229.49,100.82L241.29,100.82L241.29,101.75L453.9,101.01L453.9,100.82L455.73,100.82L455.73,101.75L558.66,101.56L558.66,100.63L564.85,99.89L564.85,101.75L648.62,101.75" style="vector-effect: non-scaling-stroke; fill: none; stroke: rgb(195, 113, 210); stroke-opacity: 1; stroke-width: 1px; opacity: 1;"/></g><g class="points"/><g class="text"/></g><g class="trace scatter trace4c2264" style="stroke-miterlimit: 2; opacity: 1;"><g class="fills"/><g class="errorbars"/><g class="lines"><path class="js-line" d="M21.44,101.75L171.78,101.75L171.78,100.82L183.29,100.26L183.29,101.75L383.66,101.38L383.66,100.82L393.96,100.63L393.96,101.75L556.34,101.75L556.34,100.82L567.77,100.82L567.77,101.75L647.01,101.38L647.01,100.26L648.63,100.26" style="vector-effect: non-scaling-stroke; fill: none; stroke: rgb(172, 142, 24); stroke-opacity: 1; stroke-width: 1px; opacity: 1;"/></g><g class="points"/><g class="text"/></g><g class="trace scatter trace36af36" style="stroke-miterlimit: 2; opacity: 1;"><g class="fills"/><g class="errorbars"/><g class="lines"><path class="js-line" d="M21.44,101.75L76.96,101.75L76.96,100.82L79.03,100.26L79.03,99.15L93.58,99.15L93.58,101.75L230.57,101.56L230.57,100.82L234.98,100.08L234.98,99.71L246.61,99.71L246.61,101.75L304.95,101.38L304.95,100.82L314.57,100.82L314.57,101.75L382.39,101.01L382.39,100.63L405.2,100.45L405.2,101.75L648.62,101.38" style="vector-effect: non-scaling-stroke; fill: none; stroke: rgb(0, 170, 174); stroke-opacity: 1; stroke-width: 1px; opacity: 1;"/></g><g class="points"/><g class="text"/></g><g class="trace scatter traced4c5de" style="stroke-miterlimit: 2; opacity: 1;"><g class="fills"/><g class="errorbars"/><g class="lines"><path class="js-line" d="M22,101.75L81.48,101.75L81.48,100.45L82.73,100.45L82.73,98.41L86.75,98.41L86.75,96.37L87.99,96.37L87.99,95.26L91.25,95.26L91.25,101.75L169.3,101.56L169.3,100.63L177.9,100.63L177.9,101.75L232.81,101.75L232.81,100.63L236.7,99.89L236.7,99.34L246.62,99.34L246.62,101.75L648.62,101.75" style="vector-effect: non-scaling-stroke; fill: none; stroke: rgb(237, 94, 147); stroke-opacity: 1; stroke-width: 1px; opacity: 1;"/></g><g class="points"/><g class="text"/></g><g class="trace scatter tracea415a2" style="stroke-miterlimit: 2; opacity: 1;"><g class="fills"/><g class="errorbars"/><g class="lines"><path class="js-line" d="M22.46,101.75L85.98,101.75L85.98,100.26L87.1,100.26L87.1,98.6L93.57,98.6L93.57,101.75L559.14,101.75L559.14,100.82L564.84,100.63L564.84,101.75L648.62,101.75" style="vector-effect: non-scaling-stroke; fill: none; stroke: rgb(198, 130, 37); stroke-opacity: 1; stroke-width: 1px; opacity: 1;"/></g><g class="points"/><g class="text"/></g><g class="trace scatter trace530a5d" style="stroke-miterlimit: 2; opacity: 1;"><g class="fills"/><g class="errorbars"/><g class="lines"><path class="js-line" d="M22.48,101.75L84.64,101.75L84.64,100.45L86.25,100.45L86.25,98.04L91.25,98.04L91.25,101.75L171.99,101.19L171.99,99.71L177.91,99.71L177.91,101.75L381.08,101.19L381.08,100.63L399.86,100.63L399.86,101.75L554.21,101.56L554.21,100.82L560.43,100.08L560.43,99.34L564.84,99.15L564.84,101.75L648.62,101.75" style="vector-effect: non-scaling-stroke; fill: none; stroke: rgb(0, 169, 141); stroke-opacity: 1; stroke-width: 1px; opacity: 1;"/></g><g class="points"/><g class="text"/></g><g class="trace scatter trace6926e0" style="stroke-miterlimit: 2; opacity: 1;"><g class="fills"/><g class="errorbars"/><g class="lines"><path class="js-line" d="M22.48,92.85L34.05,92.85L34.05,101.75L83.99,101.75L83.99,99.52L93.58,99.52L93.58,101.75L233.22,101.19L233.22,100.63L235.77,100.63L235.77,98.78L241.26,98.23L241.26,101.75L296.94,101.75L296.94,100.63L300.01,99.89L300.01,99.71L303.53,99.34L303.53,98.78L314.57,98.6L314.57,101.75L380.11,101.38L380.11,100.63L393.97,100.63L393.97,101.75L556.83,101.01L556.83,100.45L564.83,99.89L564.83,101.75L648.73,101.38" style="vector-effect: non-scaling-stroke; fill: none; stroke: rgb(142, 151, 30); stroke-opacity: 1; stroke-width: 1px; opacity: 1;"/></g><g class="points"/><g class="text"/></g><g class="trace scatter tracefb53b9" style="stroke-miterlimit: 2; opacity: 1;"><g class="fills"/><g class="errorbars"/><g class="lines"><path class="js-line" d="M22.48,101.75L167.02,101.75L167.02,100.63L172.49,100.45L172.49,99.34L177.91,98.78L177.91,101.75L381.82,101.19L381.82,100.63L399.86,100.08L399.86,101.75L453.9,101.01L453.9,100.82L455.73,100.82L455.73,101.75L645.22,101.38L645.22,100.45L648.62,100.45" style="vector-effect: non-scaling-stroke; fill: none; stroke: rgb(0, 169, 204); stroke-opacity: 1; stroke-width: 1px; opacity: 1;"/></g><g class="points"/><g class="text"/></g><g class="trace scatter tracebe09ba" style="stroke-miterlimit: 2; opacity: 1;"><g class="fills"/><g class="errorbars"/><g class="lines"><path class="js-line" d="M22.48,101.75L76.96,101.75L76.96,98.23L80.97,98.23L80.97,95.26L81.84,95.26L81.84,92.85L93.56,92.85L93.56,101.75L167.02,101.75L167.02,100.63L168.48,100.63L168.48,99.15L172.5,99.15L172.5,98.04L177.89,97.48L177.89,101.75L234.98,101.01L234.98,100.63L241.29,100.63L241.29,101.75L641.3,101.75L641.3,100.82L643.43,100.26L643.43,99.52L648.62,99.52" style="vector-effect: non-scaling-stroke; fill: none; stroke: rgb(155, 127, 233); stroke-opacity: 1; stroke-width: 1px; opacity: 1;"/></g><g class="points"/><g class="text"/></g><g class="trace scatter trace45cf77" style="stroke-miterlimit: 2; opacity: 1;"><g class="fills"/><g class="errorbars"/><g class="lines"><path class="js-line" d="M22.48,101.75L80.09,101.75L80.09,100.45L81.84,100.45L81.84,98.04L100.3,98.04L100.3,101.75L303.52,101.19L303.52,100.63L314.56,100.45L314.56,101.75L466.75,101.56L466.75,100.45L470.8,100.26L470.8,98.04L472.04,98.04L472.04,96.74L482.94,96.74L482.94,101.75L645.66,101.75L645.66,100.63L646.9,100.63L646.9,99.71L648.62,99.34" style="vector-effect: non-scaling-stroke; fill: none; stroke: rgb(97, 141, 246); stroke-opacity: 1; stroke-width: 1px; opacity: 1;"/></g><g class="points"/><g class="text"/></g><g class="trace scatter trace3b4f9a" style="stroke-miterlimit: 2; opacity: 1;"><g class="fills"/><g class="errorbars"/><g class="lines"><path class="js-line" d="M22.48,98.97L34.05,98.97L34.05,101.75L230.57,101.56L230.57,100.82L234.05,100.63L234.05,99.71L246.63,99.71L246.63,101.75L557.73,101.38L557.73,100.82L559.15,100.82L559.15,99.89L564.82,99.71L564.82,101.75L648.62,101.75" style="vector-effect: non-scaling-stroke; fill: none; stroke: rgb(240, 96, 115); stroke-opacity: 1; stroke-width: 1px; opacity: 1;"/></g><g class="points"/><g class="text"/></g><g class="trace scatter trace00a4a1" style="stroke-miterlimit: 2; opacity: 1;"><g class="fills"/><g class="errorbars"/><g class="lines"><path class="js-line" d="M22.48,101.75L85.32,101.75L85.32,100.45L86.25,100.45L86.25,97.85L91.25,97.85L91.25,101.75L170.16,101.19L170.16,100.45L171.11,100.45L171.11,99.52L183.31,98.97L183.31,101.75L379.3,101.19L379.3,100.82L405.18,100.26L405.18,101.75L466.75,101.75L466.75,100.82L469.34,100.45L469.34,99.71L470.28,99.71L470.28,97.85L473.78,97.11L473.78,96.93L477.52,96.93L477.52,101.75L648.62,101.75" style="vector-effect: non-scaling-stroke; fill: none; stroke: rgb(221, 101, 182); stroke-opacity: 1; stroke-width: 1px; opacity: 1;"/></g><g class="points"/><g class="text"/></g><g class="trace scatter trace8d5ae3" style="stroke-miterlimit: 2; opacity: 1;"><g class="fills"/><g class="errorbars"/><g class="lines"><path class="js-line" d="M22.48,101.75L82.38,101.75L82.38,100.26L83.63,100.26L83.63,98.97L83.96,98.97L83.96,96.74L91.27,96.74L91.27,101.75L470.8,101.56L470.8,99.89L482.94,99.89L482.94,101.75L648.03,101.75" style="vector-effect: non-scaling-stroke; fill: none; stroke: rgb(108, 159, 51); stroke-opacity: 1; stroke-width: 1px; opacity: 1;"/></g><g class="points"/><g class="text"/></g><g class="trace scatter trace16789d" style="stroke-miterlimit: 2; opacity: 1;"><g class="fills"/><g class="errorbars"/><g class="lines"><path class="js-line" d="M22.48,98.23L34.05,98.23L34.05,101.75L82.41,101.75L82.41,100.08L83.63,100.08L83.63,98.97L85.38,98.78L85.38,96.19L93.58,96.19L93.58,101.75L470.21,101.75L470.21,100.45L482.94,99.89L482.94,101.75L647.47,101.75L647.47,100.26L648.7,100.26" style="vector-effect: non-scaling-stroke; fill: none; stroke: rgb(0, 154, 250); stroke-opacity: 1; stroke-width: 1px; opacity: 1;"/></g><g class="points"/><g class="text"/></g><g class="trace scatter trace4db371" style="stroke-miterlimit: 2; opacity: 1;"><g class="fills"/><g class="errorbars"/><g class="lines"><path class="js-line" d="M22.48,101.75L78.2,101.01L78.2,100.26L79.03,100.26L79.03,99.15L100.29,99.15L100.29,101.75L166.72,101.01L166.72,100.63L168.5,100.63L168.5,99.52L170.51,99.52L170.51,98.23L177.91,98.23L177.91,101.75L229.49,101.38L229.49,100.82L231.47,100.82L231.47,99.71L241.28,99.71L241.28,101.75L300.57,101.19L300.57,100.63L309.24,100.63L309.24,101.75L556.36,101.75L556.36,100.82L564.84,100.82L564.84,101.75L647.01,101.19L647.01,100.08L648.63,100.08" style="vector-effect: non-scaling-stroke; fill: none; stroke: rgb(227, 111, 71); stroke-opacity: 1; stroke-width: 1px; opacity: 1;"/></g><g class="points"/><g class="text"/></g><g class="trace scatter trace625372" style="stroke-miterlimit: 2; opacity: 1;"><g class="fills"/><g class="errorbars"/><g class="lines"><path class="js-line" d="M22.48,101.75L83.26,101.75L83.26,100.26L87.51,99.71L87.51,97.67L93.57,97.3L93.57,101.75L171.99,101.19L171.99,99.71L183.3,99.71L183.3,101.75L231.47,101.75L231.47,100.63L241.29,99.89L241.29,101.75L303.11,101.01L303.11,100.63L309.22,100.63L309.22,101.75L468.54,101.56L468.54,99.71L471.88,99.71L471.88,98.6L482.94,97.85L482.94,101.75L632.75,101.75L632.75,100.63L644.36,100.63L644.36,99.52L648.62,99.52" style="vector-effect: non-scaling-stroke; fill: none; stroke: rgb(62, 164, 78); stroke-opacity: 1; stroke-width: 1px; opacity: 1;"/></g><g class="points"/><g class="text"/></g><g class="trace scatter trace8170e3" style="stroke-miterlimit: 2; opacity: 1;"><g class="fills"/><g class="errorbars"/><g class="lines"><path class="js-line" d="M23.24,101.75L85.36,101.75L85.36,99.15L93.57,99.15L93.57,101.75L234.6,101.75L234.6,100.63L241.29,100.45L241.29,101.75L645.66,101.75L645.66,100.82L648.63,100.45" style="vector-effect: non-scaling-stroke; fill: none; stroke: rgb(195, 113, 210); stroke-opacity: 1; stroke-width: 1px; opacity: 1;"/></g><g class="points"/><g class="text"/></g><g class="trace scatter tracee33713" style="stroke-miterlimit: 2; opacity: 1;"><g class="fills"/><g class="errorbars"/><g class="lines"><path class="js-line" d="M24.1,101.75L83.25,101.75L83.25,100.08L87.5,99.52L87.5,97.3L93.58,97.11L93.58,101.75L466.74,101.75L466.74,100.82L469.12,100.45L469.12,98.78L477.51,98.78L477.51,101.75L559.8,101.19L559.8,100.45L564.84,100.26L564.84,101.75L644.91,101.75L644.91,100.82L648.63,100.26" style="vector-effect: non-scaling-stroke; fill: none; stroke: rgb(172, 142, 24); stroke-opacity: 1; stroke-width: 1px; opacity: 1;"/></g><g class="points"/><g class="text"/></g><g class="trace scatter trace1c9b93" style="stroke-miterlimit: 2; opacity: 1;"><g class="fills"/><g class="errorbars"/><g class="lines"><path class="js-line" d="M24.1,101.75L80.1,101.75L80.1,98.23L80.97,98.23L80.97,96.74L81.46,96.74L81.46,95.45L82.73,95.45L82.73,93.22L100.29,93.22L100.29,101.75L169.87,101.01L169.87,100.08L174.74,99.89L174.74,101.75L234.05,101.75L234.05,100.82L246.63,100.82L246.63,101.75L642.57,101.01L642.57,100.45L643.91,99.71L643.91,99.34L645.22,99.34L645.22,98.41L648.63,98.41" style="vector-effect: non-scaling-stroke; fill: none; stroke: rgb(0, 170, 174); stroke-opacity: 1; stroke-width: 1px; opacity: 1;"/></g><g class="points"/><g class="text"/></g><g class="trace scatter trace41df22" style="stroke-miterlimit: 2; opacity: 1;"><g class="fills"/><g class="errorbars"/><g class="lines"><path class="js-line" d="M24.11,101.75L232.8,101.75L232.8,100.63L246.62,100.63L246.62,101.75L469.34,101.38L469.34,99.15L472.04,98.6L472.04,97.3L477.5,97.3L477.5,101.75L557.52,101.01L557.52,100.82L558.66,100.82L558.66,99.71L561.88,98.97L561.88,101.75L648.62,101.75" style="vector-effect: non-scaling-stroke; fill: none; stroke: rgb(237, 94, 147); stroke-opacity: 1; stroke-width: 1px; opacity: 1;"/></g><g class="points"/><g class="text"/></g><g class="trace scatter trace0f96fd" style="stroke-miterlimit: 2; opacity: 1;"><g class="fills"/><g class="errorbars"/><g class="lines"><path class="js-line" d="M24.11,101.75L85.98,101.75L85.98,100.08L87.1,100.08L87.1,98.41L98.25,98.41L98.25,101.75L234.6,101.75L234.6,100.63L246.61,100.45L246.61,101.75L384.52,101.19L384.52,100.82L405.2,100.63L405.2,101.75L470.21,101.75L470.21,100.63L477.52,100.08L477.52,101.75L644.91,101.75L644.91,100.63L648.02,100.63" style="vector-effect: non-scaling-stroke; fill: none; stroke: rgb(198, 130, 37); stroke-opacity: 1; stroke-width: 1px; opacity: 1;"/></g><g class="points"/><g class="text"/></g></g></g><g class="overplot"/><path class="xlines-above crisp" d="M0,0" style="fill: none;"/><path class="ylines-above crisp" d="M47.88145231846019,35.84524156702635V140.5554224694411" style="fill: none; stroke-width: 1px; stroke: rgb(0, 0, 0); stroke-opacity: 1;"/><g class="overlines-above"/><g class="xaxislayer-above"/><g class="yaxislayer-above"><path class="ytick ticks crisp" d="M48.38145231846019,0h5" transform="translate(0,137.59524156702633)" style="stroke: rgb(0, 0, 0); stroke-opacity: 1; stroke-width: 1px;"/><path class="ytick ticks crisp" d="M48.38145231846019,0h5" transform="translate(0,119.05524156702634)" style="stroke: rgb(0, 0, 0); stroke-opacity: 1; stroke-width: 1px;"/><path class="ytick ticks crisp" d="M48.38145231846019,0h5" transform="translate(0,100.52524156702636)" style="stroke: rgb(0, 0, 0); stroke-opacity: 1; stroke-width: 1px;"/><path class="ytick ticks crisp" d="M48.38145231846019,0h5" transform="translate(0,81.99524156702634)" style="stroke: rgb(0, 0, 0); stroke-opacity: 1; stroke-width: 1px;"/><path class="ytick ticks crisp" d="M48.38145231846019,0h5" transform="translate(0,63.45524156702635)" style="stroke: rgb(0, 0, 0); stroke-opacity: 1; stroke-width: 1px;"/><path class="ytick ticks crisp" d="M48.38145231846019,0h5" transform="translate(0,44.92524156702635)" style="stroke: rgb(0, 0, 0); stroke-opacity: 1; stroke-width: 1px;"/><g class="ytick"><text text-anchor="end" x="44.581452318460194" y="4.8999999999999995" transform="translate(0,137.59524156702633)" style="font-family: sans-serif; font-size: 14px; fill: rgb(0, 0, 0); fill-opacity: 1; white-space: pre; opacity: 1;">0</text></g><g class="ytick"><text text-anchor="end" x="44.581452318460194" y="4.8999999999999995" style="font-family: sans-serif; font-size: 14px; fill: rgb(0, 0, 0); fill-opacity: 1; white-space: pre; opacity: 1;" transform="translate(0,119.05524156702634)">100</text></g><g class="ytick"><text text-anchor="end" x="44.581452318460194" y="4.8999999999999995" style="font-family: sans-serif; font-size: 14px; fill: rgb(0, 0, 0); fill-opacity: 1; white-space: pre; opacity: 1;" transform="translate(0,100.52524156702636)">200</text></g><g class="ytick"><text text-anchor="end" x="44.581452318460194" y="4.8999999999999995" style="font-family: sans-serif; font-size: 14px; fill: rgb(0, 0, 0); fill-opacity: 1; white-space: pre; opacity: 1;" transform="translate(0,81.99524156702634)">300</text></g><g class="ytick"><text text-anchor="end" x="44.581452318460194" y="4.8999999999999995" style="font-family: sans-serif; font-size: 14px; fill: rgb(0, 0, 0); fill-opacity: 1; white-space: pre; opacity: 1;" transform="translate(0,63.45524156702635)">400</text></g><g class="ytick"><text text-anchor="end" x="44.581452318460194" y="4.8999999999999995" style="font-family: sans-serif; font-size: 14px; fill: rgb(0, 0, 0); fill-opacity: 1; white-space: pre; opacity: 1;" transform="translate(0,44.92524156702635)">500</text></g></g><g class="overaxes-above"/></g><g class="subplot xy2"><g class="layer-subplot"><g class="shapelayer"/><g class="imagelayer"/></g><g class="gridlayer"><g class="x"><path class="xgrid crisp" transform="translate(67.2814523184602,0)" d="M0,172.2459056034938v104.71018090241475" style="stroke: rgb(0, 0, 0); stroke-opacity: 0.1; stroke-width: 0.5px;"/><path class="xgrid crisp" transform="translate(93.52145231846019,0)" d="M0,172.2459056034938v104.71018090241475" style="stroke: rgb(0, 0, 0); stroke-opacity: 0.1; stroke-width: 0.5px;"/><path class="xgrid crisp" transform="translate(119.77145231846019,0)" d="M0,172.2459056034938v104.71018090241475" style="stroke: rgb(0, 0, 0); stroke-opacity: 0.1; stroke-width: 0.5px;"/><path class="xgrid crisp" transform="translate(146.0114523184602,0)" d="M0,172.2459056034938v104.71018090241475" style="stroke: rgb(0, 0, 0); stroke-opacity: 0.1; stroke-width: 0.5px;"/><path class="xgrid crisp" transform="translate(172.2614523184602,0)" d="M0,172.2459056034938v104.71018090241475" style="stroke: rgb(0, 0, 0); stroke-opacity: 0.1; stroke-width: 0.5px;"/><path class="xgrid crisp" transform="translate(198.5014523184602,0)" d="M0,172.2459056034938v104.71018090241475" style="stroke: rgb(0, 0, 0); stroke-opacity: 0.1; stroke-width: 0.5px;"/><path class="xgrid crisp" transform="translate(224.7514523184602,0)" d="M0,172.2459056034938v104.71018090241475" style="stroke: rgb(0, 0, 0); stroke-opacity: 0.1; stroke-width: 0.5px;"/><path class="xgrid crisp" transform="translate(250.9914523184602,0)" d="M0,172.2459056034938v104.71018090241475" style="stroke: rgb(0, 0, 0); stroke-opacity: 0.1; stroke-width: 0.5px;"/><path class="xgrid crisp" transform="translate(277.24145231846023,0)" d="M0,172.2459056034938v104.71018090241475" style="stroke: rgb(0, 0, 0); stroke-opacity: 0.1; stroke-width: 0.5px;"/><path class="xgrid crisp" transform="translate(303.4814523184602,0)" d="M0,172.2459056034938v104.71018090241475" style="stroke: rgb(0, 0, 0); stroke-opacity: 0.1; stroke-width: 0.5px;"/><path class="xgrid crisp" transform="translate(329.73145231846024,0)" d="M0,172.2459056034938v104.71018090241475" style="stroke: rgb(0, 0, 0); stroke-opacity: 0.1; stroke-width: 0.5px;"/><path class="xgrid crisp" transform="translate(355.98145231846024,0)" d="M0,172.2459056034938v104.71018090241475" style="stroke: rgb(0, 0, 0); stroke-opacity: 0.1; stroke-width: 0.5px;"/><path class="xgrid crisp" transform="translate(382.22145231846014,0)" d="M0,172.2459056034938v104.71018090241475" style="stroke: rgb(0, 0, 0); stroke-opacity: 0.1; stroke-width: 0.5px;"/><path class="xgrid crisp" transform="translate(408.47145231846014,0)" d="M0,172.2459056034938v104.71018090241475" style="stroke: rgb(0, 0, 0); stroke-opacity: 0.1; stroke-width: 0.5px;"/><path class="xgrid crisp" transform="translate(434.71145231846015,0)" d="M0,172.2459056034938v104.71018090241475" style="stroke: rgb(0, 0, 0); stroke-opacity: 0.1; stroke-width: 0.5px;"/><path class="xgrid crisp" transform="translate(460.96145231846015,0)" d="M0,172.2459056034938v104.71018090241475" style="stroke: rgb(0, 0, 0); stroke-opacity: 0.1; stroke-width: 0.5px;"/><path class="xgrid crisp" transform="translate(487.20145231846016,0)" d="M0,172.2459056034938v104.71018090241475" style="stroke: rgb(0, 0, 0); stroke-opacity: 0.1; stroke-width: 0.5px;"/><path class="xgrid crisp" transform="translate(513.4514523184602,0)" d="M0,172.2459056034938v104.71018090241475" style="stroke: rgb(0, 0, 0); stroke-opacity: 0.1; stroke-width: 0.5px;"/><path class="xgrid crisp" transform="translate(539.6914523184602,0)" d="M0,172.2459056034938v104.71018090241475" style="stroke: rgb(0, 0, 0); stroke-opacity: 0.1; stroke-width: 0.5px;"/><path class="xgrid crisp" transform="translate(565.9414523184602,0)" d="M0,172.2459056034938v104.71018090241475" style="stroke: rgb(0, 0, 0); stroke-opacity: 0.1; stroke-width: 0.5px;"/><path class="xgrid crisp" transform="translate(592.1814523184602,0)" d="M0,172.2459056034938v104.71018090241475" style="stroke: rgb(0, 0, 0); stroke-opacity: 0.1; stroke-width: 0.5px;"/><path class="xgrid crisp" transform="translate(618.4314523184602,0)" d="M0,172.2459056034938v104.71018090241475" style="stroke: rgb(0, 0, 0); stroke-opacity: 0.1; stroke-width: 0.5px;"/><path class="xgrid crisp" transform="translate(644.6714523184602,0)" d="M0,172.2459056034938v104.71018090241475" style="stroke: rgb(0, 0, 0); stroke-opacity: 0.1; stroke-width: 0.5px;"/><path class="xgrid crisp" transform="translate(670.9214523184602,0)" d="M0,172.2459056034938v104.71018090241475" style="stroke: rgb(0, 0, 0); stroke-opacity: 0.1; stroke-width: 0.5px;"/><path class="xgrid crisp" transform="translate(697.1614523184602,0)" d="M0,172.2459056034938v104.71018090241475" style="stroke: rgb(0, 0, 0); stroke-opacity: 0.1; stroke-width: 0.5px;"/></g><g class="y2"><path class="y2grid crisp" transform="translate(0,273.99590560349384)" d="M48.38145231846019,0h667.681539807524" style="stroke: rgb(0, 0, 0); stroke-opacity: 0.1; stroke-width: 0.5px;"/><path class="y2grid crisp" transform="translate(0,242.4759056034938)" d="M48.38145231846019,0h667.681539807524" style="stroke: rgb(0, 0, 0); stroke-opacity: 0.1; stroke-width: 0.5px;"/><path class="y2grid crisp" transform="translate(0,210.95590560349382)" d="M48.38145231846019,0h667.681539807524" style="stroke: rgb(0, 0, 0); stroke-opacity: 0.1; stroke-width: 0.5px;"/><path class="y2grid crisp" transform="translate(0,179.4359056034938)" d="M48.38145231846019,0h667.681539807524" style="stroke: rgb(0, 0, 0); stroke-opacity: 0.1; stroke-width: 0.5px;"/></g></g><g class="zerolinelayer"/><path class="xlines-below"/><path class="ylines-below"/><g class="overlines-below"/><g class="xaxislayer-below"/><g class="yaxislayer-below"/><g class="overaxes-below"/><g class="plot" transform="translate(48.38145231846019,172.2459056034938)" clip-path="url(#clipb0ceb2xy2plot)"><g class="scatterlayer mlayer"><g class="trace scatter trace92df7d" style="stroke-miterlimit: 2; opacity: 1;"><g class="fills"/><g class="errorbars"/><g class="lines"><path class="js-line" d="M18.9,97.8L19.77,97.8L19.77,96.6L20.65,96.6L20.65,92.84L21.52,92.84L21.52,91.02L22.4,91.02L22.4,85.06L23.27,85.06L23.27,78.56L24.15,78.56L24.15,63.51L25.02,63.51L25.02,49.44L25.9,49.44L25.9,69.28L26.77,69.28L26.77,40.88L27.65,40.88L27.65,34.61L29.39,34.56L29.39,22.71L30.27,22.71L30.27,41.22L31.14,41.22L31.14,47.68L32.02,47.68L32.02,55.93L32.89,55.93L32.89,76.07L33.77,76.07L33.77,88.21L34.64,88.21L34.64,89.38L35.52,89.38L35.52,100.79L40.77,101.48L40.77,101.75L52.14,101.75L52.14,92.42L53.02,92.42L53.02,95.31L53.89,95.31L53.89,101.75L63.51,101.75L63.51,96.93L64.39,96.93L64.39,95.73L65.26,95.73L65.26,101.03L71.39,100.92L71.39,100.06L74.01,100.06L74.01,95.94L75.76,95.79L75.76,95.15L76.64,95.15L76.64,96.33L77.51,96.33L77.51,94.26L78.39,94.26L78.39,91L79.26,91L79.26,74.63L80.14,74.63L80.14,66.81L81.01,66.81L81.01,63.58L81.89,63.58L81.89,52.92L82.76,52.92L82.76,42.3L83.64,42.3L83.64,31.22L84.51,31.22L84.51,47.02L85.38,47.02L85.38,35.12L86.26,35.12L86.26,42.44L87.13,42.44L87.13,39.1L88.01,39.1L88.01,62.66L89.76,63L89.76,65.37L91.51,65.53L91.51,78.63L92.38,78.63L92.38,84.13L93.26,84.13L93.26,88.55L94.13,88.55L94.13,95.01L95.01,95.01L95.01,97.77L96.76,98.3L96.76,99.18L98.51,99.07L98.51,94.69L100.26,94.69L100.26,98.59L101.13,98.59L101.13,99.61L102.88,99L102.88,97.77L104.63,97.77L104.63,99.04L107.26,98.89L107.26,96.52L109.01,96.18L109.01,95L109.88,95L109.88,93.82L110.76,93.82L110.76,92.17L111.63,92.17L111.63,90.68L113.38,89.95L113.38,81.41L115.13,81.06L115.13,59.1L116,59.1L116,61L116.88,61L116.88,47.26L117.75,47.26L117.75,35.12L118.63,35.12L118.63,23.76L119.5,23.76L119.5,35.01L120.38,35.01L120.38,33.06L121.25,33.06L121.25,45.03L122.13,45.03L122.13,35.24L123,35.24L123,49.53L123.88,49.53L123.88,72.06L124.75,72.06L124.75,99.09L125.63,99.09L125.63,100.54L133.5,100.66L133.5,99.72L143.12,100.44L143.12,101.75L146.62,101.75L146.62,98.16L147.5,98.16L147.5,93.82L148.37,93.82L148.37,98.8L151,98.8L151,99.92L159.75,100.06L159.75,99.48L161.5,98.88L161.5,98.51L163.25,98.16L163.25,96.94L164.12,96.94L164.12,84.04L165,84.04L165,81.83L165.87,81.83L165.87,75.07L166.75,75.07L166.75,80.97L167.62,80.97L167.62,73.06L168.5,73.06L168.5,65.33L169.37,65.33L169.37,58.59L171.12,57.97L171.12,49.67L171.99,49.67L171.99,51.68L172.87,51.68L172.87,54.24L173.74,54.24L173.74,62.05L174.62,62.05L174.62,69.2L175.49,69.2L175.49,76.64L176.37,76.64L176.37,85.59L177.24,85.59L177.24,91.09L178.12,91.09L178.12,92.72L178.99,92.72L178.99,94.08L179.87,94.08L179.87,97.8L180.74,97.8L180.74,98.59L182.49,98.54L182.49,97.44L183.37,97.44L183.37,95.82L184.24,95.82L184.24,99.18L190.37,98.68L190.37,100.62L191.24,100.62L191.24,90.09L192.12,90.09L192.12,92.69L193.87,92.27L193.87,89.19L194.74,89.19L194.74,84L195.62,84L195.62,86.07L196.49,86.07L196.49,84.76L199.11,84.23L199.11,84.95L199.99,84.95L199.99,72.9L200.86,72.9L200.86,91.91L201.74,91.91L201.74,97.76L211.36,98.2L211.36,99.22L212.24,99.22L212.24,96.86L213.99,96.54L213.99,97.58L214.86,97.58L214.86,96.02L215.74,96.02L215.74,95.07L219.24,94.53L219.24,95.75L220.11,95.75L220.11,96.68L221.86,97.1L221.86,98.75L223.61,98.98L223.61,99.58L225.36,99.58L225.36,98.59L226.23,98.59L226.23,97.08L227.11,97.08L227.11,93.51L227.98,93.51L227.98,94.93L228.86,94.93L228.86,90.3L229.73,90.3L229.73,85.59L230.61,85.59L230.61,87.58L231.48,87.58L231.48,70.26L233.23,70.96L233.23,68.16L234.11,68.16L234.11,62.35L234.98,62.35L234.98,53.59L235.86,53.59L235.86,69.99L236.73,69.99L236.73,75.25L237.61,75.25L237.61,78.98L238.48,78.98L238.48,82.01L239.36,82.01L239.36,88.54L240.23,88.54L240.23,89.66L241.11,89.66L241.11,93.38L241.98,93.38L241.98,94.74L242.86,94.74L242.86,97.9L245.48,98.38L245.48,98.95L253.36,98.5L253.36,97.72L254.23,97.72L254.23,93.42L255.1,93.42L255.1,88.56L255.98,88.56L255.98,86.76L256.85,86.76L256.85,84.69L258.6,84.03L258.6,88.94L259.48,88.94L259.48,95L260.35,95L260.35,99.06L261.23,99.06L261.23,97.89L262.1,97.89L262.1,94.02L262.98,94.02L262.98,97.01L270.85,97.18L270.85,94.66L271.73,94.66L271.73,93.78L272.6,93.78L272.6,96.8L275.23,96.97L275.23,91.82L276.1,91.82L276.1,89.48L276.98,89.48L276.98,92.85L277.85,92.85L277.85,85L278.73,85L278.73,82.9L279.6,82.9L279.6,73.71L280.48,73.71L280.48,56.4L281.35,56.4L281.35,52.96L282.22,52.96L282.22,63.62L283.1,63.62L283.1,76.96L283.97,76.96L283.97,71.08L284.85,71.08L284.85,89.33L285.72,89.33L285.72,97.77L286.6,97.77L286.6,96.49L287.47,96.49L287.47,98.81L289.22,99.02L289.22,99.8L293.6,99.32L293.6,98.43L295.35,97.95L295.35,95.4L296.22,95.4L296.22,91.47L297.97,91.73L297.97,85.8L298.85,85.8L298.85,82.99L299.72,82.99L299.72,86.74L300.6,86.74L300.6,79.48L301.47,79.48L301.47,86.47L302.35,86.47L302.35,76.38L303.22,76.38L303.22,62.2L304.1,62.2L304.1,76.22L304.97,76.22L304.97,84.4L305.85,84.4L305.85,85.26L306.72,85.26L306.72,84.36L307.6,84.36L307.6,89.07L308.47,89.07L308.47,92.76L309.35,92.76L309.35,91.66L310.22,91.66L310.22,96.19L311.09,96.19L311.09,97.3L311.97,97.3L311.97,98.12L313.72,98.65L313.72,98.95L318.97,98.75L318.97,98.37L319.84,98.37L319.84,94.56L320.72,94.56L320.72,98.13L321.59,98.13L321.59,100.66L329.47,100.64L329.47,99.6L340.84,99.28L340.84,100.31L344.34,100.42L344.34,97.7L346.09,97.5L346.09,98.3L346.96,98.3L346.96,99.24L349.59,99.08L349.59,98.38L350.46,98.38L350.46,97.34L352.21,97.21L352.21,89.11L353.09,89.11L353.09,87L354.84,87.31L354.84,80.59L355.71,80.59L355.71,84L356.59,84L356.59,82.1L357.46,82.1L357.46,83.24L358.34,83.24L358.34,84.77L359.21,84.77L359.21,86.46L360.09,86.46L360.09,83.64L360.96,83.64L360.96,91.56L361.84,91.56L361.84,96.89L362.71,96.89L362.71,94.7L363.59,94.7L363.59,95.76L364.46,95.76L364.46,98.45L366.21,98.88L366.21,99.52L371.46,99.76L371.46,98.81L373.21,98.51L373.21,96.73L374.08,96.73L374.08,88.03L374.96,88.03L374.96,95.46L375.83,95.46L375.83,93.51L376.71,93.51L376.71,85.95L379.33,86.2L379.33,85.12L381.96,85.72L381.96,84.12L383.71,83.82L383.71,76.66L384.58,76.66L384.58,80.16L385.46,80.16L385.46,88.22L388.08,88.24L388.08,89.11L388.96,89.11L388.96,93.06L389.83,93.06L389.83,95.82L390.71,95.82L390.71,97.48L391.58,97.48L391.58,101.57L392.46,101.57L392.46,94.37L393.33,94.37L393.33,98.8L394.21,98.8L394.21,101.75L395.08,101.75L395.08,97.15L395.95,97.15L395.95,98.93L399.45,99.5L399.45,100.12L400.33,100.12L400.33,101.75L403.83,101.75L403.83,100.83L404.7,100.83L404.7,97.41L405.58,97.41L405.58,101.75L416.95,101.75L416.95,96.49L417.83,96.49L417.83,101.36L437.07,101.2L437.07,98.29L441.45,98.29L441.45,97.1L442.32,97.1L442.32,82.3L443.2,82.3L443.2,73.4L444.07,73.4L444.07,66.18L444.95,66.18L444.95,50L445.82,50L445.82,29.24L447.57,29.06L447.57,21.06L448.45,21.06L448.45,27.58L449.32,27.58L449.32,26.78L450.2,26.78L450.2,40.34L451.07,40.34L451.07,52.59L451.94,52.59L451.94,72.02L452.82,72.02L452.82,89.67L453.69,89.67L453.69,94.11L455.44,93.59L455.44,96.72L456.32,96.72L456.32,98.75L457.19,98.75L457.19,99.61L461.57,99.55L461.57,98.63L462.44,98.63L462.44,97.33L463.32,97.33L463.32,94.06L464.19,94.06L464.19,95.13L465.07,95.13L465.07,89.9L465.94,89.9L465.94,75.64L466.82,75.64L466.82,56.46L467.69,56.46L467.69,16.33L468.57,16.33L468.57,53.75L469.44,53.75L469.44,40.59L470.32,40.59L470.32,3.64L471.19,3.64L471.19,40.1L472.07,40.1L472.07,18.85L472.94,18.85L472.94,49.35L473.82,49.35L473.82,80.55L474.69,80.55L474.69,84.01L475.57,84.01L475.57,87.42L476.44,87.42L476.44,91.63L477.32,91.63L477.32,87.13L478.19,87.13L478.19,96.62L479.07,96.62L479.07,92.3L479.94,92.3L479.94,97.68L480.81,97.68L480.81,98.62L482.56,99.1L482.56,98.27L484.31,98.2L484.31,101.75L500.06,101.75L500.06,97.5L500.94,97.5L500.94,100.74L501.81,100.74L501.81,101.75L524.56,101.75L524.56,100.11L525.43,100.11L525.43,96.97L527.18,97.29L527.18,95.51L528.06,95.51L528.06,91.78L529.81,91.9L529.81,88.51L530.68,88.51L530.68,80.4L531.56,80.4L531.56,86.1L532.43,86.1L532.43,81.15L533.31,81.15L533.31,71.96L534.18,71.96L534.18,63.82L535.06,63.82L535.06,75.23L535.93,75.23L535.93,60.22L536.8,60.22L536.8,45.08L537.68,45.08L537.68,56.76L538.55,56.76L538.55,71.4L539.43,71.4L539.43,85.86L540.3,85.86L540.3,93.4L541.18,93.4L541.18,97.04L542.05,97.04L542.05,101.59L542.93,101.59L542.93,94.33L543.8,94.33L543.8,98.65L544.68,98.65L544.68,99.47L549.05,99.88L549.05,98.57L550.8,98.22L550.8,97.5L551.68,97.5L551.68,93.91L552.55,93.91L552.55,90.91L553.43,90.91L553.43,82.59L554.3,82.59L554.3,86.43L555.18,86.43L555.18,82.88L556.05,82.88L556.05,71L557.8,71.1L557.8,72.23L558.68,72.23L558.68,73.36L559.55,73.36L559.55,67.32L560.43,67.32L560.43,73.57L561.3,73.57L561.3,77.64L562.18,77.64L562.18,83.68L563.92,83.8L563.92,90.48L565.67,90.48L565.67,95.53L567.42,95.83L567.42,98.88L568.3,98.88L568.3,101.75L585.8,101.75L585.8,100.08L586.67,100.08L586.67,98.16L587.55,98.16L587.55,101.75L611.17,101.63L611.17,99.33L616.42,99.37L616.42,97.15L617.29,97.15L617.29,95.29L619.04,95.06L619.04,92.35L619.92,92.35L619.92,87.74L620.79,87.74L620.79,84.85L621.66,84.85L621.66,81.88L622.54,81.88L622.54,71.6L623.41,71.6L623.41,50.25L624.29,50.25L624.29,43.3L625.16,43.3L625.16,49.71L626.04,49.71L626.04,54.73L626.91,54.73L626.91,79.72L627.79,79.72L627.79,84.5L628.66,84.5L628.66,86.81L629.54,86.81L629.54,82.38L630.41,82.38L630.41,91.3L631.29,91.3L631.29,96.87L632.16,96.87L632.16,97.7L633.04,97.7L633.04,98.51L634.79,98.87L634.79,99.28L636.54,99.53L636.54,100.04L639.16,99.54L639.16,98.04L640.04,98.04L640.04,94.91L642.66,94.41L642.66,83.53L643.54,83.53L643.54,58.07L644.41,58.07L644.41,39.52L645.29,39.52L645.29,35.84L646.16,35.84L646.16,41.14L647.04,41.14L647.04,53.83L647.91,53.83L647.91,58.31L648.78,58.31L648.78,101.75" style="vector-effect: non-scaling-stroke; fill: none; stroke: rgb(0, 154, 250); stroke-opacity: 1; stroke-width: 1px; opacity: 1;"/></g><g class="points"/><g class="text"/></g><g class="trace scatter trace9dbc2c" style="stroke-miterlimit: 2; opacity: 1;"><g class="fills"/><g class="errorbars"/><g class="lines"><path class="js-line" d="M18.9,101.75L168.5,101.75L168.5,99.79L169.37,99.79L169.37,87.94L170.24,87.94L170.24,54.36L171.12,54.36L171.12,96.61L171.99,96.61L171.99,101.75L231.48,101.75L231.48,98.32L232.36,98.32L232.36,83.87L233.23,83.87L233.23,86.28L234.11,86.28L234.11,101.75L297.1,101.47L297.1,99.99L298.85,99.99L298.85,97.6L299.72,97.6L299.72,93.93L300.6,93.93L300.6,101.75L374.08,101.75L374.08,95.47L374.96,95.47L374.96,96.72L377.58,96.63L377.58,101.75L537.68,101.75L537.68,99.58L538.55,99.58L538.55,88.72L539.43,88.72L539.43,90.68L540.3,90.68L540.3,101.75L542.93,101.43L542.93,91.56L543.8,91.56L543.8,101.75L551.68,101.75L551.68,100.25L552.55,100.25L552.55,99.36L553.43,99.36L553.43,100.37L554.3,100.37L554.3,101.75L648.78,101.75L648.78,101.75" style="vector-effect: non-scaling-stroke; fill: none; stroke: rgb(227, 111, 71); stroke-opacity: 1; stroke-width: 1px; opacity: 1;"/></g><g class="points"/><g class="text"/></g><g class="trace scatter trace668e89" style="stroke-miterlimit: 2; opacity: 1;"><g class="fills"/><g class="errorbars"/><g class="lines"><path class="js-line" d="M19.77,101.75L171.12,101.75L171.12,64.98L171.99,64.98L171.99,101.75L377.58,101.23L377.58,96.75L378.46,96.75L378.46,86.26L379.33,86.26L379.33,101.75L467.69,101.3L467.69,95.54L468.57,95.54L468.57,50.62L469.44,50.62L469.44,101.75L472.07,101.75L472.07,100.41L472.94,100.41L472.94,81.97L473.82,81.97L473.82,96.59L474.69,96.59L474.69,101.75L552.55,101.75L552.55,100.93L553.43,100.93L553.43,95.34L554.3,95.34L554.3,82.7L555.18,82.7L555.18,100.01L556.05,100.01L556.05,82.09L556.93,82.09L556.93,95.86L557.8,95.86L557.8,81.75L558.68,81.75L558.68,101.75L647.91,101.75L647.91,59.72L648.78,59.72L648.78,101.75" style="vector-effect: non-scaling-stroke; fill: none; stroke: rgb(62, 164, 78); stroke-opacity: 1; stroke-width: 1px; opacity: 1;"/></g><g class="points"/><g class="text"/></g><g class="trace scatter trace14380c" style="stroke-miterlimit: 2; opacity: 1;"><g class="fills"/><g class="errorbars"/><g class="lines"><path class="js-line" d="M19.77,101.75L86.26,101.75L86.26,86.53L87.13,86.53L87.13,67.93L88.01,67.93L88.01,71.98L88.88,71.98L88.88,101.75L163.25,101.03L163.25,98.96L164.12,98.96L164.12,96.93L165,96.93L165,92.05L165.87,92.05L165.87,77.22L166.75,77.22L166.75,91.76L167.62,91.76L167.62,101.75L168.5,101.75L168.5,93.42L169.37,93.42L169.37,78.55L170.24,78.55L170.24,101.75L228.86,101.17L228.86,87.63L229.73,87.63L229.73,90.17L230.61,90.17L230.61,101.75L451.07,101.75L451.07,93.25L452.82,93.43L452.82,98.34L454.57,99.03L454.57,99.24L455.44,99.24L455.44,100.93L456.32,100.93L456.32,101.75L556.93,101.75L556.93,99.14L558.68,98.63L558.68,74.48L559.55,74.48L559.55,82.2L560.43,82.2L560.43,101.75L648.78,101.75L648.78,101.75" style="vector-effect: non-scaling-stroke; fill: none; stroke: rgb(195, 113, 210); stroke-opacity: 1; stroke-width: 1px; opacity: 1;"/></g><g class="points"/><g class="text"/></g><g class="trace scatter trace811ffc" style="stroke-miterlimit: 2; opacity: 1;"><g class="fills"/><g class="errorbars"/><g class="lines"><path class="js-line" d="M20.65,101.75L171.12,101.75L171.12,96.2L171.99,96.2L171.99,78.56L172.87,78.56L172.87,88.46L173.74,88.46L173.74,101.75L302.35,101.75L302.35,96.9L303.22,96.9L303.22,90.32L304.1,90.32L304.1,97.01L304.97,97.01L304.97,101.75L381.96,101.75L381.96,100.11L382.83,100.11L382.83,92.09L383.71,92.09L383.71,86.47L384.58,86.47L384.58,96.8L385.46,96.8L385.46,101.75L556.05,101.75L556.05,89.31L556.93,89.31L556.93,87.92L557.8,87.92L557.8,101.75L645.29,101.75L645.29,97.85L646.16,97.85L646.16,93.82L647.04,93.82L647.04,71.54L647.91,71.54L647.91,101.75L648.78,101.75L648.78,101.75" style="vector-effect: non-scaling-stroke; fill: none; stroke: rgb(172, 142, 24); stroke-opacity: 1; stroke-width: 1px; opacity: 1;"/></g><g class="points"/><g class="text"/></g><g class="trace scatter trace414547" style="stroke-miterlimit: 2; opacity: 1;"><g class="fills"/><g class="errorbars"/><g class="lines"><path class="js-line" d="M20.65,101.75L76.64,101.75L76.64,90.49L77.51,90.49L77.51,83.85L78.39,83.85L78.39,82.23L79.26,82.23L79.26,76.88L80.14,76.88L80.14,101.75L229.73,101.28L229.73,100.41L230.61,100.41L230.61,81.63L231.48,81.63L231.48,101.75L233.23,101.75L233.23,99.69L234.11,99.69L234.11,82.79L234.98,82.79L234.98,91.24L235.86,91.24L235.86,101.75L302.35,101.19L302.35,91.79L303.22,91.79L303.22,101.75L304.97,101.26L304.97,86.48L305.85,86.48L305.85,101.75L375.83,101.75L375.83,100.5L376.71,100.5L376.71,99.73L378.46,99.47L378.46,86.28L379.33,86.28L379.33,101.75L381.96,101.75L381.96,98.12L382.83,98.12L382.83,94.61L383.71,94.61L383.71,96.75L384.58,96.75L384.58,101.75L629.54,101.65L629.54,100.97L641.79,101.4L641.79,101.75L648.78,101.75L648.78,101.75" style="vector-effect: non-scaling-stroke; fill: none; stroke: rgb(0, 170, 174); stroke-opacity: 1; stroke-width: 1px; opacity: 1;"/></g><g class="points"/><g class="text"/></g><g class="trace scatter traced70be5" style="stroke-miterlimit: 2; opacity: 1;"><g class="fills"/><g class="errorbars"/><g class="lines"><path class="js-line" d="M21.52,101.75L81.01,101.75L81.01,89.77L81.89,89.77L81.89,73.6L82.76,73.6L82.76,47.31L83.64,47.31L83.64,101.75L86.26,101.75L86.26,83.84L87.13,83.84L87.13,60.12L88.01,60.12L88.01,71.98L88.88,71.98L88.88,101.75L168.5,101.75L168.5,93.42L169.37,93.42L169.37,78.55L170.24,78.55L170.24,101.75L232.36,101.75L232.36,90.99L233.23,90.99L233.23,80.98L234.11,80.98L234.11,101.75L234.98,101.75L234.98,99.18L235.86,99.18L235.86,81.79L236.73,81.79L236.73,87.5L237.61,87.5L237.61,101.75L282.22,101.75L282.22,100.61L283.1,100.61L283.1,94.93L283.97,94.93L283.97,99.19L284.85,99.19L284.85,101.75L286.6,101.75L286.6,96.49L287.47,96.49L287.47,101.75L301.47,101.75L301.47,99.52L302.35,99.52L302.35,96.17L303.22,96.17L303.22,93.78L304.1,93.78L304.1,101.75L377.58,101.75L377.58,100.58L378.46,100.58L378.46,98.63L381.08,98.6L381.08,96.55L381.96,96.55L381.96,101.75L551.68,101.23L551.68,99.91L553.43,99.91L553.43,100.69L554.3,100.69L554.3,101.75L648.78,101.75L648.78,101.75" style="vector-effect: non-scaling-stroke; fill: none; stroke: rgb(237, 94, 147); stroke-opacity: 1; stroke-width: 1px; opacity: 1;"/></g><g class="points"/><g class="text"/></g><g class="trace scatter trace7fa8ed" style="stroke-miterlimit: 2; opacity: 1;"><g class="fills"/><g class="errorbars"/><g class="lines"><path class="js-line" d="M22.4,101.75L85.38,101.75L85.38,91.31L86.26,91.31L86.26,65.94L87.13,65.94L87.13,58.69L88.01,58.69L88.01,101.75L230.61,101.17L230.61,99.36L231.48,99.36L231.48,98.36L232.36,98.36L232.36,87.08L233.23,87.08L233.23,101.75L298.85,101.75L298.85,98.26L299.72,98.26L299.72,94.66L300.6,94.66L300.6,96.56L301.47,96.56L301.47,101.75L381.08,101.61L381.08,86.12L381.96,86.12L381.96,101.75L558.68,101.75L558.68,93.34L559.55,93.34L559.55,83.54L560.43,83.54L560.43,96.84L561.3,96.84L561.3,101.75L648.78,101.75L648.78,101.75" style="vector-effect: non-scaling-stroke; fill: none; stroke: rgb(198, 130, 37); stroke-opacity: 1; stroke-width: 1px; opacity: 1;"/></g><g class="points"/><g class="text"/></g><g class="trace scatter trace699885" style="stroke-miterlimit: 2; opacity: 1;"><g class="fills"/><g class="errorbars"/><g class="lines"><path class="js-line" d="M22.4,101.75L84.51,101.75L84.51,84.7L85.38,84.7L85.38,79.99L86.26,79.99L86.26,35.5L87.13,35.5L87.13,101.75L171.12,101.36L171.12,85.76L171.99,85.76L171.99,60.34L172.87,60.34L172.87,101.75L360.09,101.75L360.09,98.82L360.96,98.82L360.96,88.84L361.84,88.84L361.84,100.3L365.34,100.91L365.34,101.75L377.58,101.75L377.58,99.25L378.46,99.25L378.46,98.31L379.33,98.31L379.33,91.92L380.21,91.92L380.21,101.75L381.08,101.75L381.08,85.99L381.96,85.99L381.96,101.75L551.68,101.27L551.68,100.1L553.43,100.1L553.43,97.93L554.3,97.93L554.3,83.07L555.18,83.07L555.18,101.75L556.93,101.75L556.93,96.63L557.8,96.63L557.8,85.85L558.68,85.85L558.68,101.75L560.43,101.75L560.43,79.43L561.3,79.43L561.3,97.79L562.18,97.79L562.18,101.75L648.78,101.75L648.78,101.75" style="vector-effect: non-scaling-stroke; fill: none; stroke: rgb(0, 169, 141); stroke-opacity: 1; stroke-width: 1px; opacity: 1;"/></g><g class="points"/><g class="text"/></g><g class="trace scatter trace1c7179" style="stroke-miterlimit: 2; opacity: 1;"><g class="fills"/><g class="errorbars"/><g class="lines"><path class="js-line" d="M22.4,101.75L83.64,101.75L83.64,76.81L84.51,76.81L84.51,63.65L85.38,63.65L85.38,101.75L231.48,101.75L231.48,99.18L232.36,99.18L232.36,88.27L233.23,88.27L233.23,86.27L234.11,86.27L234.11,101.75L234.98,101.75L234.98,96.78L235.86,96.78L235.86,53.55L236.73,53.55L236.73,86.62L237.61,86.62L237.61,101.75L296.22,101.75L296.22,96.66L297.1,96.66L297.1,72.28L297.97,72.28L297.97,83.78L298.85,83.78L298.85,101.75L299.72,101.75L299.72,99.52L300.6,99.52L300.6,97.89L301.47,97.89L301.47,92.07L302.35,92.07L302.35,101.75L303.22,101.75L303.22,95.21L304.1,95.21L304.1,91.93L304.97,91.93L304.97,97.09L305.85,97.09L305.85,101.75L378.46,101.75L378.46,98.52L379.33,98.52L379.33,92.26L380.21,92.26L380.21,82.95L381.08,82.95L381.08,101.75L555.18,101.75L555.18,95.24L556.05,95.24L556.05,85.58L557.8,86.29L557.8,87.35L558.68,87.35L558.68,101.75L647.04,101.75L647.04,97.99L647.91,97.99L647.91,95L648.78,95L648.78,101.75" style="vector-effect: non-scaling-stroke; fill: none; stroke: rgb(142, 151, 30); stroke-opacity: 1; stroke-width: 1px; opacity: 1;"/></g><g class="points"/><g class="text"/></g><g class="trace scatter tracef178cd" style="stroke-miterlimit: 2; opacity: 1;"><g class="fills"/><g class="errorbars"/><g class="lines"><path class="js-line" d="M22.4,101.75L166.75,101.75L166.75,88.89L167.62,88.89L167.62,83.04L168.5,83.04L168.5,96.54L169.37,96.54L169.37,101.75L171.99,101.75L171.99,91.63L172.87,91.63L172.87,75.97L173.74,75.97L173.74,90.37L174.62,90.37L174.62,101.75L379.33,101.75L379.33,97.53L380.21,97.53L380.21,94.82L381.96,94.14L381.96,88.98L382.83,88.98L382.83,101.75L384.58,101.33L384.58,90.64L385.46,90.64L385.46,97.52L386.33,97.52L386.33,101.75L451.07,101.75L451.07,93.3L452.82,93.39L452.82,98.34L454.57,99.03L454.57,99.24L455.44,99.24L455.44,100.93L456.32,100.93L456.32,101.75L554.3,101.75L554.3,100.66L555.18,100.66L555.18,94.07L556.05,94.07L556.05,89.49L556.93,89.49L556.93,101.75L643.54,101.75L643.54,97.28L644.41,97.28L644.41,92.42L645.29,92.42L645.29,78.77L646.16,78.77L646.16,101.75L648.78,101.75L648.78,101.75" style="vector-effect: non-scaling-stroke; fill: none; stroke: rgb(0, 169, 204); stroke-opacity: 1; stroke-width: 1px; opacity: 1;"/></g><g class="points"/><g class="text"/></g><g class="trace scatter tracedca785" style="stroke-miterlimit: 2; opacity: 1;"><g class="fills"/><g class="errorbars"/><g class="lines"><path class="js-line" d="M22.4,101.75L76.64,101.75L76.64,88.14L77.51,88.14L77.51,79.97L80.14,79.97L80.14,77.35L81.01,77.35L81.01,15.84L81.89,15.84L81.89,38.85L82.76,38.85L82.76,101.75L166.75,101.75L166.75,88.73L167.62,88.73L167.62,82.44L168.5,82.44L168.5,60.52L169.37,60.52L169.37,101.75L171.99,101.75L171.99,91.76L172.87,91.76L172.87,75.84L173.74,75.84L173.74,90.37L174.62,90.37L174.62,101.75L233.23,101.75L233.23,99.84L234.11,99.84L234.11,82.65L234.98,82.65L234.98,91.24L235.86,91.24L235.86,101.75L295.35,101.75L295.35,100.04L296.22,100.04L296.22,98.65L298.85,98.12L298.85,97.51L299.72,97.51L299.72,101.75L304.1,101.56L304.1,96.68L304.97,96.68L304.97,101.75L470.32,101.43L470.32,98.99L472.07,99.57L472.07,101.75L553.43,101.75L553.43,98.61L554.3,98.61L554.3,94.5L555.18,94.5L555.18,96.37L556.05,96.37L556.05,101.75L640.91,101.75L640.91,91.69L641.79,91.69L641.79,83.92L642.66,83.92L642.66,82.9L643.54,82.9L643.54,85.44L644.41,85.44L644.41,101.75L648.78,101.75L648.78,101.75" style="vector-effect: non-scaling-stroke; fill: none; stroke: rgb(155, 127, 233); stroke-opacity: 1; stroke-width: 1px; opacity: 1;"/></g><g class="points"/><g class="text"/></g><g class="trace scatter traced43945" style="stroke-miterlimit: 2; opacity: 1;"><g class="fills"/><g class="errorbars"/><g class="lines"><path class="js-line" d="M22.4,101.75L79.26,101.75L79.26,100.83L80.14,100.83L80.14,83.36L81.01,83.36L81.01,78.96L81.89,78.96L81.89,38.78L82.76,38.78L82.76,101.75L165.87,101.61L165.87,96.19L166.75,96.19L166.75,93.36L167.62,93.36L167.62,94.82L168.5,94.82L168.5,101.75L231.48,101.45L231.48,95.7L232.36,95.7L232.36,87.08L233.23,87.08L233.23,101.75L300.6,101.75L300.6,99.14L301.47,99.14L301.47,93.71L302.35,93.71L302.35,96.64L303.22,96.64L303.22,95.09L304.1,95.09L304.1,91.95L304.97,91.95L304.97,97.19L305.85,97.19L305.85,101.75L372.33,101.75L372.33,100.73L373.21,100.73L373.21,99.39L374.96,99.87L374.96,100.79L375.83,100.79L375.83,96.26L376.71,96.26L376.71,97.68L377.58,97.68L377.58,101.75L462.44,101.75L462.44,100.49L463.32,100.49L463.32,97.78L464.19,97.78L464.19,101.71L465.94,101.75L465.94,99.51L466.82,99.51L466.82,72.37L467.69,72.37L467.69,96.59L468.57,96.59L468.57,101.75L470.32,101.75L470.32,81.84L471.19,81.84L471.19,57L472.07,57L472.07,66.6L472.94,66.6L472.94,101.75L645.29,101.75L645.29,89.03L646.16,89.03L646.16,79.39L647.04,79.39L647.04,78.52L647.91,78.52L647.91,91.76L648.78,91.76L648.78,101.75" style="vector-effect: non-scaling-stroke; fill: none; stroke: rgb(97, 141, 246); stroke-opacity: 1; stroke-width: 1px; opacity: 1;"/></g><g class="points"/><g class="text"/></g><g class="trace scatter trace4bd6cc" style="stroke-miterlimit: 2; opacity: 1;"><g class="fills"/><g class="errorbars"/><g class="lines"><path class="js-line" d="M22.4,101.75L227.98,101.55L227.98,100.04L229.73,100.04L229.73,99.22L230.61,99.22L230.61,81.63L231.48,81.63L231.48,101.75L232.36,101.75L232.36,99.97L233.23,99.97L233.23,95.85L234.11,95.85L234.11,77.9L234.98,77.9L234.98,101.75L300.6,101.75L300.6,99.09L301.47,99.09L301.47,93.9L302.35,93.9L302.35,101.75L381.08,101.75L381.08,100.63L381.96,100.63L381.96,95.85L382.83,95.85L382.83,93L383.71,93L383.71,101.75L556.05,101.75L556.05,97.32L556.93,97.32L556.93,92.85L557.8,92.85L557.8,88.8L558.68,88.8L558.68,93.44L559.55,93.44L559.55,83.73L560.43,83.73L560.43,96.55L561.3,96.55L561.3,101.75L648.78,101.75L648.78,101.75" style="vector-effect: non-scaling-stroke; fill: none; stroke: rgb(240, 96, 115); stroke-opacity: 1; stroke-width: 1px; opacity: 1;"/></g><g class="points"/><g class="text"/></g><g class="trace scatter trace6d54dc" style="stroke-miterlimit: 2; opacity: 1;"><g class="fills"/><g class="errorbars"/><g class="lines"><path class="js-line" d="M22.4,101.75L84.51,101.75L84.51,99.14L85.38,99.14L85.38,65.35L86.26,65.35L86.26,30.43L87.13,30.43L87.13,101.75L168.5,101.75L168.5,99.5L169.37,99.5L169.37,86.3L170.24,86.3L170.24,82.45L171.12,82.45L171.12,88.28L171.99,88.28L171.99,86.7L172.87,86.7L172.87,88.46L173.74,88.46L173.74,101.75L295.35,101.75L295.35,100.04L296.22,100.04L296.22,98.65L298.85,98.17L298.85,97.46L299.72,97.46L299.72,101.75L372.33,101.75L372.33,100.11L373.21,100.11L373.21,97.64L374.96,96.99L374.96,101.75L377.58,101.75L377.58,100.27L378.46,100.27L378.46,97.4L379.33,97.4L379.33,91.81L380.21,91.81L380.21,101.75L381.08,101.75L381.08,100.77L381.96,100.77L381.96,97.3L382.83,97.3L382.83,91.41L383.71,91.41L383.71,101.75L465.94,101.75L465.94,100.75L466.82,100.75L466.82,88.45L468.57,88.71L468.57,90.03L469.44,90.03L469.44,79.65L470.32,79.65L470.32,52.58L471.19,52.58L471.19,101.75L472.07,101.75L472.07,94.23L472.94,94.23L472.94,86.87L473.82,86.87L473.82,97.88L474.69,97.88L474.69,101.75L648.78,101.75L648.78,101.75" style="vector-effect: non-scaling-stroke; fill: none; stroke: rgb(221, 101, 182); stroke-opacity: 1; stroke-width: 1px; opacity: 1;"/></g><g class="points"/><g class="text"/></g><g class="trace scatter trace181db9" style="stroke-miterlimit: 2; opacity: 1;"><g class="fills"/><g class="errorbars"/><g class="lines"><path class="js-line" d="M22.4,101.75L81.89,101.75L81.89,88.97L82.76,88.97L82.76,71.7L83.64,71.7L83.64,40.22L84.51,40.22L84.51,64.27L85.38,64.27L85.38,101.75L235.86,101.75L235.86,96.41L236.73,96.41L236.73,91.15L237.61,91.15L237.61,96.67L238.48,96.67L238.48,101.75L282.22,101.75L282.22,100.99L283.1,100.99L283.1,96.99L284.85,96.76L284.85,101.75L299.72,101.75L299.72,94.79L300.6,94.79L300.6,92.95L301.47,92.95L301.47,101.75L470.32,101.75L470.32,84.84L471.19,84.84L471.19,71.38L472.07,71.38L472.07,101.75L648.78,101.75L648.78,101.75" style="vector-effect: non-scaling-stroke; fill: none; stroke: rgb(108, 159, 51); stroke-opacity: 1; stroke-width: 1px; opacity: 1;"/></g><g class="points"/><g class="text"/></g><g class="trace scatter traced04121" style="stroke-miterlimit: 2; opacity: 1;"><g class="fills"/><g class="errorbars"/><g class="lines"><path class="js-line" d="M22.4,101.75L81.89,101.75L81.89,88.16L82.76,88.16L82.76,67.4L83.64,67.4L83.64,68.9L84.51,68.9L84.51,98.48L85.38,98.48L85.38,28.21L86.26,28.21L86.26,101.75L302.35,101.52L302.35,91.47L303.22,91.47L303.22,101.75L360.09,101.75L360.09,98.97L360.96,98.97L360.96,93.95L361.84,93.95L361.84,100.3L365.34,100.91L365.34,101.75L469.44,101.75L469.44,97.6L470.32,97.6L470.32,67.55L471.19,67.55L471.19,87.56L472.07,87.56L472.07,101.75L628.66,101.75L628.66,99.62L629.54,99.62L629.54,93.37L630.41,93.37L630.41,101.75L647.04,101.75L647.04,86.74L647.91,86.74L647.91,74.73L648.78,74.73L648.78,101.75" style="vector-effect: non-scaling-stroke; fill: none; stroke: rgb(0, 154, 250); stroke-opacity: 1; stroke-width: 1px; opacity: 1;"/></g><g class="points"/><g class="text"/></g><g class="trace scatter trace438d81" style="stroke-miterlimit: 2; opacity: 1;"><g class="fills"/><g class="errorbars"/><g class="lines"><path class="js-line" d="M22.4,101.75L76.64,101.75L76.64,92.48L77.51,92.48L77.51,85.4L78.39,85.4L78.39,78.51L79.26,78.51L79.26,77.06L80.14,77.06L80.14,101.75L165.87,101.22L165.87,80.74L166.75,80.74L166.75,91.76L167.62,91.76L167.62,101.75L168.5,101.75L168.5,70.23L169.37,70.23L169.37,101.75L170.24,101.75L170.24,84L171.12,84L171.12,82.72L171.99,82.72L171.99,101.75L228.86,101.17L228.86,87.63L229.73,87.63L229.73,90.17L230.61,90.17L230.61,101.21L231.48,101.21L231.48,70.77L232.36,70.77L232.36,101.75L297.97,101.75L297.97,99.35L298.85,99.35L298.85,97.29L299.72,97.29L299.72,92.4L300.6,92.4L300.6,86.43L301.47,86.43L301.47,101.75L556.05,101.75L556.05,89.48L556.93,89.48L556.93,87.75L557.8,87.75L557.8,101.75L638.29,101.75L638.29,100.83L639.16,100.83L639.16,99.98L640.91,99.98L640.91,100.95L641.79,100.95L641.79,101.75L645.29,101.75L645.29,97.85L646.16,97.85L646.16,93.82L647.04,93.82L647.04,71.54L647.91,71.54L647.91,101.75L648.78,101.75L648.78,101.75" style="vector-effect: non-scaling-stroke; fill: none; stroke: rgb(227, 111, 71); stroke-opacity: 1; stroke-width: 1px; opacity: 1;"/></g><g class="points"/><g class="text"/></g><g class="trace scatter trace79c2ce" style="stroke-miterlimit: 2; opacity: 1;"><g class="fills"/><g class="errorbars"/><g class="lines"><path class="js-line" d="M22.4,101.75L82.76,101.75L82.76,88.82L83.64,88.82L83.64,72.24L84.51,72.24L84.51,86.4L85.38,86.4L85.38,101.75L87.13,101.75L87.13,80.2L88.01,80.2L88.01,63.9L88.88,63.9L88.88,92.86L89.76,92.86L89.76,101.75L171.12,101.36L171.12,85.75L171.99,85.75L171.99,60.35L172.87,60.35L172.87,101.75L231.48,101.21L231.48,70.77L232.36,70.77L232.36,101.75L235.86,101.75L235.86,96.22L236.73,96.22L236.73,91.18L237.61,91.18L237.61,96.83L238.48,96.83L238.48,101.75L298.85,101.75L298.85,98.17L299.72,98.17L299.72,94.69L300.6,94.69L300.6,96.63L301.47,96.63L301.47,101.65L302.35,101.65L302.35,94.4L303.22,94.4L303.22,93.43L304.1,93.43L304.1,101.75L360.09,101.75L360.09,97.61L360.96,97.61L360.96,100.63L361.84,100.63L361.84,101.75L466.82,101.53L466.82,99.19L467.69,99.19L467.69,97.47L468.57,97.47L468.57,51.01L469.44,51.01L469.44,101.75L471.19,101.75L471.19,95.73L472.07,95.73L472.07,73.95L472.94,73.95L472.94,83.03L473.82,83.03L473.82,101.75L632.16,101.75L632.16,100.97L633.04,100.97L633.04,99.37L643.54,99.37L643.54,96.82L644.41,96.82L644.41,72.92L645.29,72.92L645.29,101.75L648.78,101.75L648.78,101.75" style="vector-effect: non-scaling-stroke; fill: none; stroke: rgb(62, 164, 78); stroke-opacity: 1; stroke-width: 1px; opacity: 1;"/></g><g class="points"/><g class="text"/></g><g class="trace scatter trace707c00" style="stroke-miterlimit: 2; opacity: 1;"><g class="fills"/><g class="errorbars"/><g class="lines"><path class="js-line" d="M22.4,101.75L84.51,101.75L84.51,98.33L85.38,98.33L85.38,31.63L86.26,31.63L86.26,101.75L234.11,101.75L234.11,91.1L234.98,91.1L234.98,77.23L235.86,77.23L235.86,100.13L236.73,100.13L236.73,101.75L300.6,101.65L300.6,95.75L301.47,95.75L301.47,92.08L302.35,92.08L302.35,101.75L645.29,101.75L645.29,95.79L646.16,95.79L646.16,91.38L648.78,91.75L648.78,101.75" style="vector-effect: non-scaling-stroke; fill: none; stroke: rgb(195, 113, 210); stroke-opacity: 1; stroke-width: 1px; opacity: 1;"/></g><g class="points"/><g class="text"/></g><g class="trace scatter tracec8da62" style="stroke-miterlimit: 2; opacity: 1;"><g class="fills"/><g class="errorbars"/><g class="lines"><path class="js-line" d="M23.27,101.75L82.76,101.75L82.76,87.01L83.64,87.01L83.64,68.79L84.51,68.79L84.51,86.4L85.38,86.4L85.38,101.75L87.13,101.75L87.13,78.02L88.01,78.02L88.01,61.63L88.88,61.63L88.88,97.3L89.76,97.3L89.76,101.75L283.1,101.06L283.1,97.18L283.97,97.18L283.97,101.75L465.94,101.75L465.94,99.69L466.82,99.69L466.82,77.35L467.69,77.35L467.69,91.43L468.57,91.43L468.57,87.88L469.44,87.88L469.44,68.34L470.32,68.34L470.32,101.75L553.43,101.75L553.43,98.66L554.3,98.66L554.3,94.47L555.18,94.47L555.18,96.35L556.05,96.35L556.05,101.75L559.55,101.75L559.55,91.71L560.43,91.71L560.43,89.49L561.3,89.49L561.3,97.78L562.18,97.78L562.18,101.75L644.41,101.75L644.41,93.37L645.29,93.37L645.29,82.33L646.16,82.33L646.16,87.51L647.04,87.51L647.04,101.75L648.78,101.75L648.78,101.75" style="vector-effect: non-scaling-stroke; fill: none; stroke: rgb(172, 142, 24); stroke-opacity: 1; stroke-width: 1px; opacity: 1;"/></g><g class="points"/><g class="text"/></g><g class="trace scatter trace380522" style="stroke-miterlimit: 2; opacity: 1;"><g class="fills"/><g class="errorbars"/><g class="lines"><path class="js-line" d="M23.27,101.75L79.26,101.75L79.26,97.59L80.14,97.59L80.14,2.96L81.01,2.96L81.01,50.6L81.89,50.6L81.89,73.73L82.76,73.73L82.76,42.21L83.64,42.21L83.64,101.75L165.87,101.61L165.87,96.19L166.75,96.19L166.75,93.36L167.62,93.36L167.62,94.82L168.5,94.82L168.5,101.75L169.37,101.75L169.37,93.71L170.24,93.71L170.24,83.4L171.12,83.4L171.12,96.61L171.99,96.61L171.99,101.75L233.23,101.75L233.23,99.33L234.11,99.33L234.11,77.9L234.98,77.9L234.98,101.75L376.71,101.75L376.71,100.12L377.58,100.12L377.58,87.61L378.46,87.61L378.46,101.75L628.66,101.75L628.66,99.62L629.54,99.62L629.54,92.55L630.41,92.55L630.41,100.23L633.04,100.35L633.04,101.75L640.91,101.75L640.91,96.49L641.79,96.49L641.79,84.37L642.66,84.37L642.66,82.9L643.54,82.9L643.54,81.45L644.41,81.45L644.41,91.95L645.29,91.95L645.29,78.77L646.16,78.77L646.16,101.75L648.78,101.75L648.78,101.75" style="vector-effect: non-scaling-stroke; fill: none; stroke: rgb(0, 170, 174); stroke-opacity: 1; stroke-width: 1px; opacity: 1;"/></g><g class="points"/><g class="text"/></g><g class="trace scatter trace57d6e4" style="stroke-miterlimit: 2; opacity: 1;"><g class="fills"/><g class="errorbars"/><g class="lines"><path class="js-line" d="M23.27,101.75L232.36,101.75L232.36,90.87L233.23,90.87L233.23,81.1L234.11,81.1L234.11,101.75L376.71,101.75L376.71,100.12L377.58,100.12L377.58,87.61L378.46,87.61L378.46,101.75L467.69,101.75L467.69,100.76L468.57,100.76L468.57,84.81L469.44,84.81L469.44,46.13L470.32,46.13L470.32,96.52L471.19,96.52L471.19,89.59L472.07,89.59L472.07,66.6L472.94,66.6L472.94,101.75L554.3,101.75L554.3,100.66L555.18,100.66L555.18,94.07L556.05,94.07L556.05,89.49L556.93,89.49L556.93,100.44L557.8,100.44L557.8,97.24L558.68,97.24L558.68,67.08L559.55,67.08L559.55,84.44L560.43,84.44L560.43,101.75L648.78,101.75L648.78,101.75" style="vector-effect: non-scaling-stroke; fill: none; stroke: rgb(237, 94, 147); stroke-opacity: 1; stroke-width: 1px; opacity: 1;"/></g><g class="points"/><g class="text"/></g><g class="trace scatter trace7517c6" style="stroke-miterlimit: 2; opacity: 1;"><g class="fills"/><g class="errorbars"/><g class="lines"><path class="js-line" d="M23.27,101.75L85.38,101.75L85.38,90L86.26,90L86.26,61.67L87.13,61.67L87.13,59.02L88.01,59.02L88.01,101.75L234.11,101.75L234.11,90.61L234.98,90.61L234.98,79.93L235.86,79.93L235.86,97.93L236.73,97.93L236.73,101.75L304.97,101.26L304.97,86.48L305.85,86.48L305.85,101.75L381.08,101.75L381.08,98.75L381.96,98.75L381.96,88.98L382.83,88.98L382.83,101.75L383.71,101.75L383.71,100.95L384.58,100.95L384.58,91.06L385.46,91.06L385.46,97.48L386.33,97.48L386.33,101.75L469.44,101.75L469.44,98.19L470.32,98.19L470.32,73.46L471.19,73.46L471.19,86.31L472.07,86.31L472.07,101.75L644.41,101.75L644.41,95.86L645.29,95.86L645.29,87.89L646.16,87.89L646.16,89.97L647.04,89.97L647.04,101.75L648.78,101.75L648.78,101.75" style="vector-effect: non-scaling-stroke; fill: none; stroke: rgb(198, 130, 37); stroke-opacity: 1; stroke-width: 1px; opacity: 1;"/></g><g class="points"/><g class="text"/></g></g></g><g class="overplot"/><path class="xlines-above crisp" d="M47.38145231846019,277.45608650590856H716.0629921259842" style="fill: none; stroke-width: 1px; stroke: rgb(0, 0, 0); stroke-opacity: 1;"/><path class="ylines-above crisp" d="M47.88145231846019,172.2459056034938V276.95608650590856" style="fill: none; stroke-width: 1px; stroke: rgb(0, 0, 0); stroke-opacity: 1;"/><g class="overlines-above"/><g class="xaxislayer-above"><path class="xtick ticks crisp" d="M0,276.95608650590856v-5" transform="translate(67.2814523184602,0)" style="stroke: rgb(0, 0, 0); stroke-opacity: 1; stroke-width: 1px;"/><path class="xtick ticks crisp" d="M0,276.95608650590856v-5" transform="translate(93.52145231846019,0)" style="stroke: rgb(0, 0, 0); stroke-opacity: 1; stroke-width: 1px;"/><path class="xtick ticks crisp" d="M0,276.95608650590856v-5" transform="translate(119.77145231846019,0)" style="stroke: rgb(0, 0, 0); stroke-opacity: 1; stroke-width: 1px;"/><path class="xtick ticks crisp" d="M0,276.95608650590856v-5" transform="translate(146.0114523184602,0)" style="stroke: rgb(0, 0, 0); stroke-opacity: 1; stroke-width: 1px;"/><path class="xtick ticks crisp" d="M0,276.95608650590856v-5" transform="translate(172.2614523184602,0)" style="stroke: rgb(0, 0, 0); stroke-opacity: 1; stroke-width: 1px;"/><path class="xtick ticks crisp" d="M0,276.95608650590856v-5" transform="translate(198.5014523184602,0)" style="stroke: rgb(0, 0, 0); stroke-opacity: 1; stroke-width: 1px;"/><path class="xtick ticks crisp" d="M0,276.95608650590856v-5" transform="translate(224.7514523184602,0)" style="stroke: rgb(0, 0, 0); stroke-opacity: 1; stroke-width: 1px;"/><path class="xtick ticks crisp" d="M0,276.95608650590856v-5" transform="translate(250.9914523184602,0)" style="stroke: rgb(0, 0, 0); stroke-opacity: 1; stroke-width: 1px;"/><path class="xtick ticks crisp" d="M0,276.95608650590856v-5" transform="translate(277.24145231846023,0)" style="stroke: rgb(0, 0, 0); stroke-opacity: 1; stroke-width: 1px;"/><path class="xtick ticks crisp" d="M0,276.95608650590856v-5" transform="translate(303.4814523184602,0)" style="stroke: rgb(0, 0, 0); stroke-opacity: 1; stroke-width: 1px;"/><path class="xtick ticks crisp" d="M0,276.95608650590856v-5" transform="translate(329.73145231846024,0)" style="stroke: rgb(0, 0, 0); stroke-opacity: 1; stroke-width: 1px;"/><path class="xtick ticks crisp" d="M0,276.95608650590856v-5" transform="translate(355.98145231846024,0)" style="stroke: rgb(0, 0, 0); stroke-opacity: 1; stroke-width: 1px;"/><path class="xtick ticks crisp" d="M0,276.95608650590856v-5" transform="translate(382.22145231846014,0)" style="stroke: rgb(0, 0, 0); stroke-opacity: 1; stroke-width: 1px;"/><path class="xtick ticks crisp" d="M0,276.95608650590856v-5" transform="translate(408.47145231846014,0)" style="stroke: rgb(0, 0, 0); stroke-opacity: 1; stroke-width: 1px;"/><path class="xtick ticks crisp" d="M0,276.95608650590856v-5" transform="translate(434.71145231846015,0)" style="stroke: rgb(0, 0, 0); stroke-opacity: 1; stroke-width: 1px;"/><path class="xtick ticks crisp" d="M0,276.95608650590856v-5" transform="translate(460.96145231846015,0)" style="stroke: rgb(0, 0, 0); stroke-opacity: 1; stroke-width: 1px;"/><path class="xtick ticks crisp" d="M0,276.95608650590856v-5" transform="translate(487.20145231846016,0)" style="stroke: rgb(0, 0, 0); stroke-opacity: 1; stroke-width: 1px;"/><path class="xtick ticks crisp" d="M0,276.95608650590856v-5" transform="translate(513.4514523184602,0)" style="stroke: rgb(0, 0, 0); stroke-opacity: 1; stroke-width: 1px;"/><path class="xtick ticks crisp" d="M0,276.95608650590856v-5" transform="translate(539.6914523184602,0)" style="stroke: rgb(0, 0, 0); stroke-opacity: 1; stroke-width: 1px;"/><path class="xtick ticks crisp" d="M0,276.95608650590856v-5" transform="translate(565.9414523184602,0)" style="stroke: rgb(0, 0, 0); stroke-opacity: 1; stroke-width: 1px;"/><path class="xtick ticks crisp" d="M0,276.95608650590856v-5" transform="translate(592.1814523184602,0)" style="stroke: rgb(0, 0, 0); stroke-opacity: 1; stroke-width: 1px;"/><path class="xtick ticks crisp" d="M0,276.95608650590856v-5" transform="translate(618.4314523184602,0)" style="stroke: rgb(0, 0, 0); stroke-opacity: 1; stroke-width: 1px;"/><path class="xtick ticks crisp" d="M0,276.95608650590856v-5" transform="translate(644.6714523184602,0)" style="stroke: rgb(0, 0, 0); stroke-opacity: 1; stroke-width: 1px;"/><path class="xtick ticks crisp" d="M0,276.95608650590856v-5" transform="translate(670.9214523184602,0)" style="stroke: rgb(0, 0, 0); stroke-opacity: 1; stroke-width: 1px;"/><path class="xtick ticks crisp" d="M0,276.95608650590856v-5" transform="translate(697.1614523184602,0)" style="stroke: rgb(0, 0, 0); stroke-opacity: 1; stroke-width: 1px;"/><g class="xtick"><text text-anchor="start" x="0" y="294.75608650590857" transform="translate(67.2814523184602,0) rotate(22,0,287.75608650590857)" style="font-family: sans-serif; font-size: 14px; fill: rgb(0, 0, 0); fill-opacity: 1; white-space: pre; opacity: 1;">00 2022-10-27</text></g><g class="xtick"><text text-anchor="start" x="0" y="294.75608650590857" style="font-family: sans-serif; font-size: 14px; fill: rgb(0, 0, 0); fill-opacity: 1; white-space: pre; opacity: 1;" transform="translate(93.52145231846019,0) rotate(22,0,287.75608650590857)">01</text></g><g class="xtick"><text text-anchor="start" x="0" y="294.75608650590857" style="font-family: sans-serif; font-size: 14px; fill: rgb(0, 0, 0); fill-opacity: 1; white-space: pre; opacity: 1;" transform="translate(119.77145231846019,0) rotate(22,0,287.75608650590857)">02</text></g><g class="xtick"><text text-anchor="start" x="0" y="294.75608650590857" style="font-family: sans-serif; font-size: 14px; fill: rgb(0, 0, 0); fill-opacity: 1; white-space: pre; opacity: 1;" transform="translate(146.0114523184602,0) rotate(22,0,287.75608650590857)">03</text></g><g class="xtick"><text text-anchor="start" x="0" y="294.75608650590857" style="font-family: sans-serif; font-size: 14px; fill: rgb(0, 0, 0); fill-opacity: 1; white-space: pre; opacity: 1;" transform="translate(172.2614523184602,0) rotate(22,0,287.75608650590857)">04</text></g><g class="xtick"><text text-anchor="start" x="0" y="294.75608650590857" style="font-family: sans-serif; font-size: 14px; fill: rgb(0, 0, 0); fill-opacity: 1; white-space: pre; opacity: 1;" transform="translate(198.5014523184602,0) rotate(22,0,287.75608650590857)">05</text></g><g class="xtick"><text text-anchor="start" x="0" y="294.75608650590857" style="font-family: sans-serif; font-size: 14px; fill: rgb(0, 0, 0); fill-opacity: 1; white-space: pre; opacity: 1;" transform="translate(224.7514523184602,0) rotate(22,0,287.75608650590857)">06</text></g><g class="xtick"><text text-anchor="start" x="0" y="294.75608650590857" style="font-family: sans-serif; font-size: 14px; fill: rgb(0, 0, 0); fill-opacity: 1; white-space: pre; opacity: 1;" transform="translate(250.9914523184602,0) rotate(22,0,287.75608650590857)">07</text></g><g class="xtick"><text text-anchor="start" x="0" y="294.75608650590857" style="font-family: sans-serif; font-size: 14px; fill: rgb(0, 0, 0); fill-opacity: 1; white-space: pre; opacity: 1;" transform="translate(277.24145231846023,0) rotate(22,0,287.75608650590857)">08</text></g><g class="xtick"><text text-anchor="start" x="0" y="294.75608650590857" style="font-family: sans-serif; font-size: 14px; fill: rgb(0, 0, 0); fill-opacity: 1; white-space: pre; opacity: 1;" transform="translate(303.4814523184602,0) rotate(22,0,287.75608650590857)">09</text></g><g class="xtick"><text text-anchor="start" x="0" y="294.75608650590857" style="font-family: sans-serif; font-size: 14px; fill: rgb(0, 0, 0); fill-opacity: 1; white-space: pre; opacity: 1;" transform="translate(329.73145231846024,0) rotate(22,0,287.75608650590857)">10</text></g><g class="xtick"><text text-anchor="start" x="0" y="294.75608650590857" style="font-family: sans-serif; font-size: 14px; fill: rgb(0, 0, 0); fill-opacity: 1; white-space: pre; opacity: 1;" transform="translate(355.98145231846024,0) rotate(22,0,287.75608650590857)">11</text></g><g class="xtick"><text text-anchor="start" x="0" y="294.75608650590857" style="font-family: sans-serif; font-size: 14px; fill: rgb(0, 0, 0); fill-opacity: 1; white-space: pre; opacity: 1;" transform="translate(382.22145231846014,0) rotate(22,0,287.75608650590857)">12</text></g><g class="xtick"><text text-anchor="start" x="0" y="294.75608650590857" style="font-family: sans-serif; font-size: 14px; fill: rgb(0, 0, 0); fill-opacity: 1; white-space: pre; opacity: 1;" transform="translate(408.47145231846014,0) rotate(22,0,287.75608650590857)">13</text></g><g class="xtick"><text text-anchor="start" x="0" y="294.75608650590857" style="font-family: sans-serif; font-size: 14px; fill: rgb(0, 0, 0); fill-opacity: 1; white-space: pre; opacity: 1;" transform="translate(434.71145231846015,0) rotate(22,0,287.75608650590857)">14</text></g><g class="xtick"><text text-anchor="start" x="0" y="294.75608650590857" style="font-family: sans-serif; font-size: 14px; fill: rgb(0, 0, 0); fill-opacity: 1; white-space: pre; opacity: 1;" transform="translate(460.96145231846015,0) rotate(22,0,287.75608650590857)">15</text></g><g class="xtick"><text text-anchor="start" x="0" y="294.75608650590857" style="font-family: sans-serif; font-size: 14px; fill: rgb(0, 0, 0); fill-opacity: 1; white-space: pre; opacity: 1;" transform="translate(487.20145231846016,0) rotate(22,0,287.75608650590857)">16</text></g><g class="xtick"><text text-anchor="start" x="0" y="294.75608650590857" style="font-family: sans-serif; font-size: 14px; fill: rgb(0, 0, 0); fill-opacity: 1; white-space: pre; opacity: 1;" transform="translate(513.4514523184602,0) rotate(22,0,287.75608650590857)">17</text></g><g class="xtick"><text text-anchor="start" x="0" y="294.75608650590857" style="font-family: sans-serif; font-size: 14px; fill: rgb(0, 0, 0); fill-opacity: 1; white-space: pre; opacity: 1;" transform="translate(539.6914523184602,0) rotate(22,0,287.75608650590857)">18</text></g><g class="xtick"><text text-anchor="start" x="0" y="294.75608650590857" style="font-family: sans-serif; font-size: 14px; fill: rgb(0, 0, 0); fill-opacity: 1; white-space: pre; opacity: 1;" transform="translate(565.9414523184602,0) rotate(22,0,287.75608650590857)">19</text></g><g class="xtick"><text text-anchor="start" x="0" y="294.75608650590857" style="font-family: sans-serif; font-size: 14px; fill: rgb(0, 0, 0); fill-opacity: 1; white-space: pre; opacity: 1;" transform="translate(592.1814523184602,0) rotate(22,0,287.75608650590857)">20</text></g><g class="xtick"><text text-anchor="start" x="0" y="294.75608650590857" style="font-family: sans-serif; font-size: 14px; fill: rgb(0, 0, 0); fill-opacity: 1; white-space: pre; opacity: 1;" transform="translate(618.4314523184602,0) rotate(22,0,287.75608650590857)">21</text></g><g class="xtick"><text text-anchor="start" x="0" y="294.75608650590857" style="font-family: sans-serif; font-size: 14px; fill: rgb(0, 0, 0); fill-opacity: 1; white-space: pre; opacity: 1;" transform="translate(644.6714523184602,0) rotate(22,0,287.75608650590857)">22</text></g><g class="xtick"><text text-anchor="start" x="0" y="294.75608650590857" style="font-family: sans-serif; font-size: 14px; fill: rgb(0, 0, 0); fill-opacity: 1; white-space: pre; opacity: 1;" transform="translate(670.9214523184602,0) rotate(22,0,287.75608650590857)">23</text></g><g class="xtick"><text text-anchor="start" x="0" y="294.75608650590857" style="font-family: sans-serif; font-size: 14px; fill: rgb(0, 0, 0); fill-opacity: 1; white-space: pre; opacity: 0;" transform="translate(697.1614523184602,0) rotate(22,0,287.75608650590857)">00 2022-10-28</text></g></g><g class="yaxislayer-above"><path class="y2tick ticks crisp" d="M48.38145231846019,0h5" transform="translate(0,273.99590560349384)" style="stroke: rgb(0, 0, 0); stroke-opacity: 1; stroke-width: 1px;"/><path class="y2tick ticks crisp" d="M48.38145231846019,0h5" transform="translate(0,242.4759056034938)" style="stroke: rgb(0, 0, 0); stroke-opacity: 1; stroke-width: 1px;"/><path class="y2tick ticks crisp" d="M48.38145231846019,0h5" transform="translate(0,210.95590560349382)" style="stroke: rgb(0, 0, 0); stroke-opacity: 1; stroke-width: 1px;"/><path class="y2tick ticks crisp" d="M48.38145231846019,0h5" transform="translate(0,179.4359056034938)" style="stroke: rgb(0, 0, 0); stroke-opacity: 1; stroke-width: 1px;"/><g class="y2tick"><text text-anchor="end" x="44.581452318460194" y="4.8999999999999995" transform="translate(0,273.99590560349384)" style="font-family: sans-serif; font-size: 14px; fill: rgb(0, 0, 0); fill-opacity: 1; white-space: pre; opacity: 1;">0.00</text></g><g class="y2tick"><text text-anchor="end" x="44.581452318460194" y="4.8999999999999995" style="font-family: sans-serif; font-size: 14px; fill: rgb(0, 0, 0); fill-opacity: 1; white-space: pre; opacity: 1;" transform="translate(0,242.4759056034938)">0.05</text></g><g class="y2tick"><text text-anchor="end" x="44.581452318460194" y="4.8999999999999995" style="font-family: sans-serif; font-size: 14px; fill: rgb(0, 0, 0); fill-opacity: 1; white-space: pre; opacity: 1;" transform="translate(0,210.95590560349382)">0.10</text></g><g class="y2tick"><text text-anchor="end" x="44.581452318460194" y="4.8999999999999995" style="font-family: sans-serif; font-size: 14px; fill: rgb(0, 0, 0); fill-opacity: 1; white-space: pre; opacity: 1;" transform="translate(0,179.4359056034938)">0.15</text></g></g><g class="overaxes-above"/></g></g><g class="polarlayer"/><g class="ternarylayer"/><g class="geolayer"/><g class="funnelarealayer"/><g class="pielayer"/><g class="iciclelayer"/><g class="treemaplayer"/><g class="sunburstlayer"/><g class="glimages"/><defs id="topdefs-b0ceb2"><g class="clips"/></defs><g class="layer-above"><g class="imagelayer"/><g class="shapelayer"/></g><g class="infolayer"><g class="g-gtitle"/><g class="g-xtitle"/><g class="g-ytitle"/><g class="g-y2title"/><g class="annotation" data-index="0" style="opacity: 1;"><g class="annotation-text-g" transform="rotate(0,382.22222222222223,30.000000000000004)"><g class="cursor-pointer" transform="translate(331,20)"><rect class="bg" x="0.5" y="0.5" width="102" height="19" style="stroke-width: 1px; stroke: rgb(0, 0, 0); stroke-opacity: 0; fill: rgb(0, 0, 0); fill-opacity: 0;"/><text class="annotation-text" text-anchor="middle" x="51.275390625" y="14.7314453125" style="font-family: sans-serif; font-size: 14px; fill: rgb(0, 0, 0); fill-opacity: 1; white-space: pre;">l_write | counter</text></g></g></g><g class="annotation" data-index="1" style="opacity: 1;"><g class="annotation-text-g" transform="rotate(0,382.22222222222223,166.40066403646745)"><g class="cursor-pointer" transform="translate(342,156)"><rect class="bg" x="0.5" y="0.5" width="79" height="19" style="stroke-width: 1px; stroke: rgb(0, 0, 0); stroke-opacity: 0; fill: rgb(0, 0, 0); fill-opacity: 0;"/><text class="annotation-text" text-anchor="middle" x="39.9912109375" y="14.7314453125" style="font-family: sans-serif; font-size: 14px; fill: rgb(0, 0, 0); fill-opacity: 1; white-space: pre;">l_write | rate</text></g></g></g></g></svg>