<svg class="main-svg" xmlns="http://www.w3.org/2000/svg" xmlns:xlink="http://www.w3.org/1999/xlink" width="700" height="360" style=""><rect x="0" y="0" width="700" height="360" style="fill: rgb(255, 255, 255); fill-opacity: 1;"/><defs id="defs-e3bf64"><g class="clips"><clipPath id="clipe3bf64xyplot" class="plotclip"><rect width="629.9037620297463" height="105.48875600427493"/></clipPath><clipPath id="clipe3bf64xy2plot" class="plotclip"><rect width="629.9037620297463" height="105.48875600427493"/></clipPath><clipPath class="axesclip" id="clipe3bf64x"><rect x="66.15923009623796" y="0" width="629.9037620297463" height="360"/></clipPath><clipPath class="axesclip" id="clipe3bf64y"><rect x="0" y="33.37610576455724" width="700" height="105.48875600427493"/></clipPath><clipPath class="axesclip" id="clipe3bf64xy"><rect x="66.15923009623796" y="33.37610576455724" width="629.9037620297463" height="105.48875600427493"/></clipPath><clipPath class="axesclip" id="clipe3bf64y2"><rect x="0" y="165.6170732979466" width="700" height="105.48875600427493"/></clipPath><clipPath class="axesclip" id="clipe3bf64xy2"><rect x="66.15923009623796" y="165.6170732979466" width="629.9037620297463" height="105.48875600427493"/></clipPath></g><g class="gradients"/><g class="patterns"/></defs><g class="bglayer"/><g class="layer-below"><g class="imagelayer"/><g class="shapelayer"/></g><g class="cartesianlayer"><g class="subplot xy"><g class="layer-subplot"><g class="shapelayer"/><g class="imagelayer"/></g><g class="gridlayer"><g class="x"><path class="xgrid crisp" transform="translate(83.15923009623796,0)" d="M0,33.37610576455724v105.48875600427493" style="stroke: rgb(0, 0, 0); stroke-opacity: 0.1; stroke-width: 0.5px;"/><path class="xgrid crisp" transform="translate(107.98923009623796,0)" d="M0,33.37610576455724v105.48875600427493" style="stroke: rgb(0, 0, 0); stroke-opacity: 0.1; stroke-width: 0.5px;"/><path class="xgrid crisp" transform="translate(132.81923009623796,0)" d="M0,33.37610576455724v105.48875600427493" style="stroke: rgb(0, 0, 0); stroke-opacity: 0.1; stroke-width: 0.5px;"/><path class="xgrid crisp" transform="translate(157.64923009623794,0)" d="M0,33.37610576455724v105.48875600427493" style="stroke: rgb(0, 0, 0); stroke-opacity: 0.1; stroke-width: 0.5px;"/><path class="xgrid crisp" transform="translate(182.47923009623796,0)" d="M0,33.37610576455724v105.48875600427493" style="stroke: rgb(0, 0, 0); stroke-opacity: 0.1; stroke-width: 0.5px;"/><path class="xgrid crisp" transform="translate(207.30923009623797,0)" d="M0,33.37610576455724v105.48875600427493" style="stroke: rgb(0, 0, 0); stroke-opacity: 0.1; stroke-width: 0.5px;"/><path class="xgrid crisp" transform="translate(232.13923009623795,0)" d="M0,33.37610576455724v105.48875600427493" style="stroke: rgb(0, 0, 0); stroke-opacity: 0.1; stroke-width: 0.5px;"/><path class="xgrid crisp" transform="translate(256.969230096238,0)" d="M0,33.37610576455724v105.48875600427493" style="stroke: rgb(0, 0, 0); stroke-opacity: 0.1; stroke-width: 0.5px;"/><path class="xgrid crisp" transform="translate(281.78923009623793,0)" d="M0,33.37610576455724v105.48875600427493" style="stroke: rgb(0, 0, 0); stroke-opacity: 0.1; stroke-width: 0.5px;"/><path class="xgrid crisp" transform="translate(306.61923009623797,0)" d="M0,33.37610576455724v105.48875600427493" style="stroke: rgb(0, 0, 0); stroke-opacity: 0.1; stroke-width: 0.5px;"/><path class="xgrid crisp" transform="translate(331.449230096238,0)" d="M0,33.37610576455724v105.48875600427493" style="stroke: rgb(0, 0, 0); stroke-opacity: 0.1; stroke-width: 0.5px;"/><path class="xgrid crisp" transform="translate(356.27923009623794,0)" d="M0,33.37610576455724v105.48875600427493" style="stroke: rgb(0, 0, 0); stroke-opacity: 0.1; stroke-width: 0.5px;"/><path class="xgrid crisp" transform="translate(381.109230096238,0)" d="M0,33.37610576455724v105.48875600427493" style="stroke: rgb(0, 0, 0); stroke-opacity: 0.1; stroke-width: 0.5px;"/><path class="xgrid crisp" transform="translate(405.9392300962379,0)" d="M0,33.37610576455724v105.48875600427493" style="stroke: rgb(0, 0, 0); stroke-opacity: 0.1; stroke-width: 0.5px;"/><path class="xgrid crisp" transform="translate(430.76923009623795,0)" d="M0,33.37610576455724v105.48875600427493" style="stroke: rgb(0, 0, 0); stroke-opacity: 0.1; stroke-width: 0.5px;"/><path class="xgrid crisp" transform="translate(455.599230096238,0)" d="M0,33.37610576455724v105.48875600427493" style="stroke: rgb(0, 0, 0); stroke-opacity: 0.1; stroke-width: 0.5px;"/><path class="xgrid crisp" transform="translate(480.4292300962379,0)" d="M0,33.37610576455724v105.48875600427493" style="stroke: rgb(0, 0, 0); stroke-opacity: 0.1; stroke-width: 0.5px;"/><path class="xgrid crisp" transform="translate(505.25923009623796,0)" d="M0,33.37610576455724v105.48875600427493" style="stroke: rgb(0, 0, 0); stroke-opacity: 0.1; stroke-width: 0.5px;"/><path class="xgrid crisp" transform="translate(530.089230096238,0)" d="M0,33.37610576455724v105.48875600427493" style="stroke: rgb(0, 0, 0); stroke-opacity: 0.1; stroke-width: 0.5px;"/><path class="xgrid crisp" transform="translate(554.9192300962379,0)" d="M0,33.37610576455724v105.48875600427493" style="stroke: rgb(0, 0, 0); stroke-opacity: 0.1; stroke-width: 0.5px;"/><path class="xgrid crisp" transform="translate(579.749230096238,0)" d="M0,33.37610576455724v105.48875600427493" style="stroke: rgb(0, 0, 0); stroke-opacity: 0.1; stroke-width: 0.5px;"/><path class="xgrid crisp" transform="translate(604.5792300962379,0)" d="M0,33.37610576455724v105.48875600427493" style="stroke: rgb(0, 0, 0); stroke-opacity: 0.1; stroke-width: 0.5px;"/><path class="xgrid crisp" transform="translate(629.4092300962379,0)" d="M0,33.37610576455724v105.48875600427493" style="stroke: rgb(0, 0, 0); stroke-opacity: 0.1; stroke-width: 0.5px;"/><path class="xgrid crisp" transform="translate(654.229230096238,0)" d="M0,33.37610576455724v105.48875600427493" style="stroke: rgb(0, 0, 0); stroke-opacity: 0.1; stroke-width: 0.5px;"/><path class="xgrid crisp" transform="translate(679.0592300962379,0)" d="M0,33.37610576455724v105.48875600427493" style="stroke: rgb(0, 0, 0); stroke-opacity: 0.1; stroke-width: 0.5px;"/></g><g class="y"><path class="ygrid crisp" transform="translate(0,129.87610576455722)" d="M66.15923009623796,0h629.9037620297463" style="stroke: rgb(0, 0, 0); stroke-opacity: 0.1; stroke-width: 0.5px;"/><path class="ygrid crisp" transform="translate(0,107.99610576455724)" d="M66.15923009623796,0h629.9037620297463" style="stroke: rgb(0, 0, 0); stroke-opacity: 0.1; stroke-width: 0.5px;"/><path class="ygrid crisp" transform="translate(0,86.11610576455723)" d="M66.15923009623796,0h629.9037620297463" style="stroke: rgb(0, 0, 0); stroke-opacity: 0.1; stroke-width: 0.5px;"/><path class="ygrid crisp" transform="translate(0,64.24610576455724)" d="M66.15923009623796,0h629.9037620297463" style="stroke: rgb(0, 0, 0); stroke-opacity: 0.1; stroke-width: 0.5px;"/><path class="ygrid crisp" transform="translate(0,42.36610576455724)" d="M66.15923009623796,0h629.9037620297463" style="stroke: rgb(0, 0, 0); stroke-opacity: 0.1; stroke-width: 0.5px;"/></g></g><g class="zerolinelayer"/><path class="xlines-below"/><path class="ylines-below"/><g class="overlines-below"/><g class="xaxislayer-below"/><g class="yaxislayer-below"/><g class="overaxes-below"/><g class="plot" transform="translate(66.15923009623796,33.37610576455724)" clip-path="url(#clipe3bf64xyplot)"><g class="scatterlayer mlayer"><g class="trace scatter tracef66d43" style="stroke-miterlimit: 2; opacity: 1;"><g class="fills"/><g class="errorbars"/><g class="lines"><path class="js-line" d="M17.83,73.81L18.66,73.81L18.66,78.6L22.79,78.22L22.79,77.06L24.45,77.56L24.45,74.31L25.28,74.31L25.28,76.49L26.1,76.49L26.1,77.61L28.59,77.6L28.59,77.08L30.24,76.62L30.24,75.95L31.07,75.95L31.07,73.22L33.55,73.53L33.55,71.89L34.38,71.89L34.38,73.19L36.04,72.57L36.04,72.2L36.86,72.2L36.86,74.23L37.69,74.23L37.69,73.05L40.17,73.4L40.17,74.04L41.83,74.31L41.83,73.25L42.66,73.25L42.66,88.05L43.48,88.05L43.48,88.85L44.31,88.85L44.31,74.88L46.8,74.6L46.8,76.2L47.62,76.2L47.62,73.94L48.45,73.94L48.45,75.08L50.11,74.54L50.11,74.11L50.93,74.11L50.93,75.51L51.76,75.51L51.76,73.94L52.59,73.94L52.59,74.7L53.42,74.7L53.42,73.74L55.07,74.13L55.07,72.8L56.73,72.33L56.73,73.23L57.55,73.23L57.55,72.4L58.38,72.4L58.38,73.71L59.21,73.71L59.21,65.14L60.04,65.14L60.04,62.31L60.86,62.31L60.86,73.24L63.35,73.35L63.35,72.09L64.18,72.09L64.18,74.02L65,74.02L65,73.16L66.66,72.67L66.66,74.37L67.49,74.37L67.49,72.91L69.14,72.88L69.14,74.28L70.8,73.63L70.8,74.67L71.62,74.67L71.62,71.32L74.11,71.73L74.11,70.93L74.93,70.93L74.93,72.96L75.76,72.96L75.76,73.83L76.59,73.83L76.59,93.66L77.42,93.66L77.42,84.34L78.25,84.34L78.25,96.08L79.07,96.08L79.07,91.08L80.73,91.29L80.73,94.16L81.56,94.16L81.56,96.16L82.38,96.16L82.38,93.13L83.21,93.13L83.21,92.28L84.04,92.28L84.04,94.28L85.69,93.66L85.69,93.44L86.52,93.44L86.52,95.09L88.18,95.05L88.18,93.47L89,93.47L89,94.34L89.83,94.34L89.83,91.52L90.66,91.52L90.66,94.43L93.97,94.18L93.97,93.97L94.8,93.97L94.8,94.73L95.63,94.73L95.63,93.53L98.11,93.94L98.11,92.15L99.76,91.77L99.76,90.86L100.59,90.86L100.59,93.05L101.42,93.05L101.42,91.31L102.25,91.31L102.25,92.65L103.07,92.65L103.07,91.85L103.9,91.85L103.9,89.39L105.56,89.07L105.56,86.94L106.39,86.94L106.39,87.99L108.87,87.95L108.87,89.39L109.7,89.39L109.7,90.71L111.35,90.07L111.35,91.33L112.18,91.33L112.18,89.3L113.83,89.69L113.83,90.73L114.66,90.73L114.66,89.87L115.49,89.87L115.49,89.09L116.32,89.09L116.32,87.76L117.14,87.76L117.14,89.75L117.97,89.75L117.97,86.96L118.8,86.96L118.8,89.22L120.46,88.7L120.46,89.8L122.94,89.35L122.94,88.74L123.77,88.74L123.77,89.97L124.59,89.97L124.59,88.52L125.42,88.52L125.42,90.57L126.25,90.57L126.25,88.94L129.56,89.36L129.56,87.65L130.39,87.65L130.39,88.66L132.87,88.29L132.87,87.65L133.7,87.65L133.7,89.14L134.53,89.14L134.53,87.37L135.35,87.37L135.35,85.16L136.18,85.16L136.18,87.81L137.01,87.81L137.01,87L137.84,87L137.84,84.48L138.66,84.48L138.66,86.39L139.49,86.39L139.49,84.75L140.32,84.75L140.32,86.73L141.15,86.73L141.15,85.69L141.97,85.69L141.97,83.59L142.8,83.59L142.8,85.44L143.63,85.44L143.63,86.5L146.11,86.13L146.11,87.76L146.94,87.76L146.94,85.69L147.77,85.69L147.77,86.92L148.6,86.92L148.6,81.83L149.42,81.83L149.42,85.57L151.08,86.22L151.08,83.31L151.91,83.31L151.91,84.21L152.73,84.21L152.73,85.21L153.56,85.21L153.56,84.37L155.22,84.84L155.22,82.71L156.04,82.71L156.04,84.88L157.7,84.69L157.7,83.53L158.53,83.53L158.53,71.56L159.35,71.56L159.35,67.5L160.18,67.5L160.18,66.06L161.01,66.06L161.01,67.11L161.84,67.11L161.84,65.65L162.67,65.65L162.67,63.77L165.15,64.01L165.15,64.59L167.63,64.34L167.63,63.75L168.46,63.75L168.46,78.23L170.11,78.19L170.11,79.56L170.94,79.56L170.94,80.92L171.77,80.92L171.77,78.52L172.6,78.52L172.6,3.71L173.42,3.71L173.42,68.81L174.25,68.81L174.25,77.77L175.08,77.77L175.08,81.3L175.91,81.3L175.91,57.46L176.74,57.46L176.74,69.75L177.56,69.75L177.56,79.85L178.39,79.85L178.39,78.42L179.22,78.42L179.22,82.35L180.05,82.35L180.05,83.28L180.87,83.28L180.87,77.41L181.7,77.41L181.7,81.43L182.53,81.43L182.53,79.07L183.36,79.07L183.36,82.45L185.01,82.93L185.01,79.77L185.84,79.77L185.84,75.54L186.67,75.54L186.67,82.92L187.49,82.92L187.49,77.92L188.32,77.92L188.32,80.56L189.15,80.56L189.15,75.08L189.98,75.08L189.98,77.01L190.81,77.01L190.81,81.41L191.63,81.41L191.63,77.62L192.46,77.62L192.46,55.46L193.29,55.46L193.29,78.18L194.12,78.18L194.12,79.95L194.94,79.95L194.94,81.64L196.6,81.16L196.6,80.85L198.25,80.29L198.25,79L199.08,79L199.08,79.96L199.91,79.96L199.91,78.99L200.74,78.99L200.74,78.15L202.39,78.86L202.39,75.35L203.22,75.35L203.22,78.85L204.88,78.56L204.88,80.19L205.7,80.19L205.7,78.75L206.53,78.75L206.53,77.34L209.84,77.88L209.84,78.78L210.67,78.78L210.67,80.03L211.5,80.03L211.5,77.95L212.32,77.95L212.32,75.54L213.98,75.47L213.98,77.05L214.81,77.05L214.81,73.66L215.63,73.66L215.63,71.61L216.46,71.61L216.46,73.11L217.29,73.11L217.29,75.07L218.12,75.07L218.12,68.61L218.95,68.61L218.95,74.27L219.77,74.27L219.77,68.83L220.6,68.83L220.6,75.37L221.43,75.37L221.43,77.11L223.08,76.82L223.08,69.13L223.91,69.13L223.91,64.04L224.74,64.04L224.74,75.29L225.57,75.29L225.57,73.12L227.22,73.15L227.22,63.57L228.05,63.57L228.05,75.68L228.88,75.68L228.88,73.79L229.7,73.79L229.7,70.86L231.36,70.98L231.36,71.79L232.19,71.79L232.19,69.99L233.84,69.87L233.84,66.36L235.5,66.97L235.5,65.89L236.33,65.89L236.33,58.82L237.15,58.82L237.15,67.33L240.46,67.7L240.46,69.14L242.12,68.63L242.12,76.16L242.95,76.16L242.95,73.93L243.77,73.93L243.77,77.19L244.6,77.19L244.6,75.44L245.43,75.44L245.43,68.57L246.26,68.57L246.26,71.52L248.74,71.04L248.74,74.21L249.57,74.21L249.57,71.88L250.4,71.88L250.4,71.07L251.22,71.07L251.22,75.01L252.05,75.01L252.05,68.59L252.88,68.59L252.88,64.54L255.36,64.9L255.36,68.79L256.19,68.79L256.19,67.29L257.02,67.29L257.02,76.52L257.84,76.52L257.84,78.85L258.67,78.85L258.67,76.58L260.33,76.64L260.33,78.31L261.15,78.31L261.15,76.94L261.98,76.94L261.98,79.03L262.81,79.03L262.81,76.52L263.64,76.52L263.64,80.96L264.47,80.96L264.47,79.8L265.29,79.8L265.29,67.01L266.12,67.01L266.12,72.03L266.95,72.03L266.95,76.62L271.09,77.18L271.09,74.12L272.74,73.92L272.74,77.16L273.57,77.16L273.57,73.57L274.4,73.57L274.4,74.37L275.22,74.37L275.22,76.14L276.05,76.14L276.05,72.92L277.71,73.2L277.71,76.53L278.54,76.53L278.54,73.18L279.36,73.18L279.36,75.32L280.19,75.32L280.19,72.63L281.02,72.63L281.02,66.38L281.85,66.38L281.85,67.54L282.67,67.54L282.67,65.55L283.5,65.55L283.5,68.58L284.33,68.58L284.33,70.24L285.16,70.24L285.16,64.85L285.98,64.85L285.98,63.36L287.64,63.85L287.64,59.05L288.47,59.05L288.47,62.13L290.12,62.04L290.12,60.95L290.95,60.95L290.95,68.16L291.78,68.16L291.78,63.85L292.61,63.85L292.61,66.79L294.26,67.36L294.26,64.87L295.09,64.87L295.09,67.07L295.92,67.07L295.92,65L296.74,65L296.74,48.86L297.57,48.86L297.57,65.25L298.4,65.25L298.4,63.74L299.23,63.74L299.23,54.29L300.05,54.29L300.05,62.31L301.71,62.53L301.71,59.63L302.54,59.63L302.54,62.15L303.36,62.15L303.36,59.59L305.02,59.45L305.02,67.21L305.85,67.21L305.85,62.51L306.68,62.51L306.68,60.93L307.5,60.93L307.5,62.09L308.33,62.09L308.33,56.02L309.16,56.02L309.16,57.71L309.99,57.71L309.99,55.48L310.81,55.48L310.81,53.62L311.64,53.62L311.64,62.87L312.47,62.87L312.47,59.06L313.3,59.06L313.3,52.2L314.12,52.2L314.12,56.02L314.95,56.02L314.95,57.42L315.78,57.42L315.78,55.94L316.61,55.94L316.61,53.3L317.43,53.3L317.43,55.22L319.09,54.86L319.09,49.68L319.92,49.68L319.92,52L320.75,52L320.75,56.55L321.57,56.55L321.57,53.34L322.4,53.34L322.4,50.46L324.06,50.8L324.06,49.33L324.88,49.33L324.88,50.7L325.71,50.7L325.71,53.75L326.54,53.75L326.54,50.62L328.19,50.43L328.19,47.95L329.85,47.86L329.85,43.13L330.68,43.13L330.68,44.37L331.5,44.37L331.5,46.25L332.33,46.25L332.33,49.03L333.16,49.03L333.16,50.15L333.99,50.15L333.99,45.48L334.82,45.48L334.82,50.47L335.64,50.47L335.64,46.15L336.47,46.15L336.47,42.29L337.3,42.29L337.3,46.76L338.95,46.57L338.95,43.12L339.78,43.12L339.78,50.29L340.61,50.29L340.61,46.11L341.44,46.11L341.44,48.18L343.09,48.49L343.09,41.42L343.92,41.42L343.92,47.69L345.57,47.27L345.57,44.9L346.4,44.9L346.4,48.98L347.23,48.98L347.23,47.92L348.06,47.92L348.06,45.8L348.89,45.8L348.89,42.67L349.71,42.67L349.71,35.68L350.54,35.68L350.54,42.93L351.37,42.93L351.37,44.7L352.2,44.7L352.2,43.62L353.02,43.62L353.02,44.92L353.85,44.92L353.85,48.01L354.68,48.01L354.68,43.47L355.51,43.47L355.51,45.86L356.33,45.86L356.33,41.56L357.16,41.56L357.16,44.3L357.99,44.3L357.99,48.06L358.82,48.06L358.82,49.75L359.64,49.75L359.64,48.87L360.47,48.87L360.47,52.13L361.3,52.13L361.3,50.51L362.13,50.51L362.13,49.49L362.96,49.49L362.96,43.77L363.78,43.77L363.78,46.73L364.61,46.73L364.61,44.05L365.44,44.05L365.44,45.6L367.09,44.95L367.09,43.81L369.58,43.49L369.58,40.87L371.23,40.46L371.23,42.46L372.06,42.46L372.06,43.34L372.89,43.34L372.89,44.28L373.71,44.28L373.71,42.26L376.2,42.35L376.2,38.1L377.03,38.1L377.03,40.13L377.85,40.13L377.85,35.43L378.68,35.43L378.68,40.99L379.51,40.99L379.51,43.26L380.34,43.26L380.34,42.16L381.16,42.16L381.16,40.83L381.99,40.83L381.99,41.6L382.82,41.6L382.82,37.73L383.65,37.73L383.65,36.66L384.47,36.66L384.47,41.09L385.3,41.09L385.3,25.57L386.13,25.57L386.13,40.48L386.96,40.48L386.96,41.9L387.78,41.9L387.78,40.47L388.61,40.47L388.61,42.9L389.44,42.9L389.44,37.42L390.27,37.42L390.27,36.17L391.1,36.17L391.1,41.43L391.92,41.43L391.92,39.1L393.58,39.83L393.58,45.82L394.41,45.82L394.41,43.97L395.23,43.97L395.23,46.79L396.06,46.79L396.06,41.66L396.89,41.66L396.89,37.46L397.72,37.46L397.72,41.91L398.54,41.91L398.54,43.18L400.2,42.58L400.2,44.83L401.03,44.83L401.03,40.78L401.85,40.78L401.85,44.19L402.68,44.19L402.68,41.51L403.51,41.51L403.51,38.27L404.34,38.27L404.34,41.43L405.17,41.43L405.17,45.28L405.99,45.28L405.99,47.75L407.65,47.68L407.65,49.66L408.48,49.66L408.48,47.11L409.3,47.11L409.3,46.26L410.13,46.26L410.13,43.9L410.96,43.9L410.96,48.37L413.44,47.85L413.44,54.62L414.27,54.62L414.27,49.61L415.1,49.61L415.1,51.86L415.92,51.86L415.92,49.62L416.75,49.62L416.75,45.19L417.58,45.19L417.58,47.38L418.41,47.38L418.41,49.44L419.24,49.44L419.24,54.65L420.06,54.65L420.06,51.42L420.89,51.42L420.89,53.76L422.55,53.52L422.55,52.66L423.37,52.66L423.37,46.21L424.2,46.21L424.2,50.38L425.03,50.38L425.03,54.08L425.86,54.08L425.86,49.98L426.68,49.98L426.68,55.44L427.51,55.44L427.51,53.18L428.34,53.18L428.34,54.3L429.17,54.3L429.17,52.28L429.99,52.28L429.99,49.53L430.82,49.53L430.82,51.17L431.65,51.17L431.65,52.36L432.48,52.36L432.48,57.4L433.31,57.4L433.31,54.05L435.79,54.2L435.79,55.11L436.62,55.11L436.62,49.14L437.44,49.14L437.44,50.09L438.27,50.09L438.27,55.74L439.1,55.74L439.1,52.46L439.93,52.46L439.93,56.17L440.75,56.17L440.75,53.79L441.58,53.79L441.58,55.49L442.41,55.49L442.41,54.4L443.24,54.4L443.24,51.38L444.89,51.86L444.89,53.41L445.72,53.41L445.72,56.55L446.55,56.55L446.55,53.83L447.38,53.83L447.38,56.92L448.2,56.92L448.2,53.78L449.03,53.78L449.03,56.4L449.86,56.4L449.86,50.89L451.51,50.22L451.51,55.17L452.34,55.17L452.34,51.91L453.17,51.91L453.17,56.04L454,56.04L454,54.9L454.82,54.9L454.82,57.16L455.65,57.16L455.65,52.97L457.31,52.33L457.31,51.88L458.13,51.88L458.13,53.03L458.96,53.03L458.96,56.33L459.79,56.33L459.79,54.54L460.62,54.54L460.62,56.61L461.44,56.61L461.44,54.13L462.27,54.13L462.27,56.11L463.1,56.11L463.1,53.98L463.93,53.98L463.93,49.55L464.76,49.55L464.76,55.88L465.58,55.88L465.58,55.11L467.24,55.55L467.24,54.16L468.07,54.16L468.07,57.69L468.89,57.69L468.89,53.08L470.55,53.29L470.55,50.51L471.38,50.51L471.38,53.23L472.2,53.23L472.2,55.63L473.03,55.63L473.03,53.81L473.86,53.81L473.86,58.67L474.69,58.67L474.69,55.67L475.51,55.67L475.51,57.14L476.34,57.14L476.34,56.38L477.17,56.38L477.17,50.02L478,50.02L478,55.22L479.65,55.95L479.65,57.04L480.48,57.04L480.48,54.77L481.31,54.77L481.31,56.94L482.96,57.63L482.96,54.72L483.79,54.72L483.79,53.25L484.62,53.25L484.62,56.85L486.27,57.26L486.27,54.85L487.1,54.85L487.1,59.33L487.93,59.33L487.93,56.1L490.41,56.51L490.41,53.42L491.24,53.42L491.24,55.61L492.9,55.06L492.9,60.18L493.72,60.18L493.72,56.31L494.55,56.31L494.55,58.85L496.21,59.4L496.21,55.78L497.03,55.78L497.03,54.51L498.69,54.08L498.69,58.37L499.52,58.37L499.52,54.75L500.34,54.75L500.34,57.21L502.83,57.08L502.83,54.92L505.31,54.52L505.31,55.49L506.14,55.49L506.14,60.56L506.97,60.56L506.97,56.16L507.79,56.16L507.79,57.57L509.45,58.2L509.45,57.09L510.28,57.09L510.28,53.32L511.1,53.32L511.1,51.77L511.93,51.77L511.93,59.54L512.76,59.54L512.76,54.3L513.59,54.3L513.59,58.9L514.41,58.9L514.41,55.71L515.24,55.71L515.24,57.4L516.07,57.4L516.07,54.93L516.9,54.93L516.9,52.11L517.72,52.11L517.72,54.13L518.55,54.13L518.55,55.36L519.38,55.36L519.38,60.48L520.21,60.48L520.21,57.99L522.69,57.77L522.69,57.53L523.52,57.53L523.52,54.4L524.35,54.4L524.35,51.99L525.17,51.99L525.17,59.16L526,59.16L526,54.42L526.83,54.42L526.83,58.77L527.66,58.77L527.66,56.84L528.48,56.84L528.48,58.28L529.31,58.28L529.31,55.92L530.14,55.92L530.14,52.72L530.97,52.72L530.97,54.51L532.62,53.96L532.62,58.66L533.45,58.66L533.45,57.41L535.11,56.87L535.11,57.64L535.93,57.64L535.93,56.41L536.76,56.41L536.76,54.87L537.59,54.87L537.59,51.43L538.42,51.43L538.42,57.33L539.24,57.33L539.24,55.38L540.07,55.38L540.07,58.41L540.9,58.41L540.9,57.03L541.73,57.03L541.73,60.44L542.55,60.44L542.55,58.07L543.38,58.07L543.38,53.84L544.21,53.84L544.21,55.84L545.86,56.13L545.86,60.35L546.69,60.35L546.69,57.59L547.52,57.59L547.52,61.01L548.35,61.01L548.35,59.14L550,59.62L550,58.25L550.83,58.25L550.83,54.05L551.66,54.05L551.66,58.73L552.49,58.73L552.49,59.52L553.31,59.52L553.31,61.97L554.14,61.97L554.14,60.97L554.97,60.97L554.97,62.04L555.8,62.04L555.8,64.15L556.62,64.15L556.62,56.7L557.45,56.7L557.45,59.89L558.28,59.89L558.28,57.82L559.11,57.82L559.11,63.72L559.93,63.72L559.93,60.48L560.76,60.48L560.76,63.54L561.59,63.54L561.59,61.07L563.25,61.75L563.25,60.33L564.07,60.33L564.07,57.6L564.9,57.6L564.9,61.43L566.56,61.7L566.56,66.56L567.38,66.56L567.38,63.46L568.21,63.46L568.21,61.99L569.04,61.99L569.04,65.73L569.87,65.73L569.87,59.23L570.69,59.23L570.69,61.69L571.52,61.69L571.52,60.56L572.35,60.56L572.35,65.21L573.18,65.21L573.18,63.44L574,63.44L574,65.62L574.83,65.62L574.83,62.4L576.49,62.53L576.49,56.15L577.32,56.15L577.32,47.76L578.97,48.34L578.97,48.55L579.8,48.55L579.8,56.13L580.63,56.13L580.63,53.13L582.28,53.81L582.28,59.46L583.11,59.46L583.11,58.56L583.94,58.56L583.94,57.26L584.76,57.26L584.76,41.42L585.59,41.42L585.59,59.61L586.42,59.61L586.42,54.53L587.25,54.53L587.25,60.11L588.9,59.55L588.9,57.92L590.56,58.36L590.56,40.35L591.39,40.35L591.39,45.27L592.21,45.27L592.21,55.41L593.04,55.41L593.04,59.13L593.87,59.13L593.87,56.38L594.7,56.38L594.7,52.02L595.52,52.02L595.52,56.03L596.35,56.03L596.35,52.86L598.01,52.28L598.01,51.18L598.83,51.18L598.83,58.72L599.66,58.72L599.66,54.86L600.49,54.86L600.49,58.31L601.32,58.31L601.32,57.3L602.97,57.52L602.97,56.69L603.8,56.69L603.8,53.41L604.63,53.41L604.63,56.83L605.46,56.83L605.46,54.54L606.28,54.54L606.28,57.71L607.11,57.71L607.11,59.11L607.94,59.11L607.94,57.06L610.42,56.39L610.42,57.33L611.25,57.33L611.25,53.7L612.08,53.7L612.08,59.47" style="vector-effect: non-scaling-stroke; fill: none; stroke: rgb(0, 154, 250); stroke-opacity: 0.5; stroke-width: 1px; opacity: 1;"/></g><g class="points"/><g class="text"/></g><g class="trace scatter trace17e09d" style="stroke-miterlimit: 2; opacity: 1;"><g class="fills"/><g class="errorbars"/><g class="lines"><path class="js-line" d="M17.83,73.78L18.66,73.78L18.66,75.97L19.48,75.97L19.48,77.28L20.31,77.28L20.31,76.41L21.14,76.41L21.14,77.2L21.97,77.2L21.97,79.21L22.79,79.21L22.79,75.75L23.62,75.75L23.62,79.28L24.45,79.28L24.45,75.26L25.28,75.26L25.28,77.88L27.76,77.67L27.76,75.19L28.59,75.19L28.59,79.38L29.41,79.38L29.41,76.28L30.24,76.28L30.24,74.85L31.07,74.85L31.07,70.5L31.9,70.5L31.9,82.88L32.73,82.88L32.73,70.13L33.55,70.13L33.55,79.56L34.38,79.56L34.38,75.72L35.21,75.72L35.21,77.99L36.86,77.51L36.86,73.72L37.69,73.72L37.69,83.13L38.52,83.13L38.52,71.25L39.35,71.25L39.35,81.62L40.17,81.62L40.17,72.99L41,72.99L41,78.03L41.83,78.03L41.83,75.23L42.66,75.23L42.66,79.83L43.48,79.83L43.48,73.44L44.31,73.44L44.31,75.1L45.14,75.1L45.14,76.23L45.97,76.23L45.97,75.31L46.8,75.31L46.8,80.21L47.62,80.21L47.62,73.9L48.45,73.9L48.45,79.15L50.11,78.72L50.11,74.48L50.93,74.48L50.93,78.96L51.76,78.96L51.76,80.24L52.59,80.24L52.59,78.21L53.42,78.21L53.42,76.77L54.24,76.77L54.24,73.3L55.07,73.3L55.07,79.55L55.9,79.55L55.9,74.2L56.73,74.2L56.73,77.11L58.38,76.93L58.38,78.64L59.21,78.64L59.21,74.47L60.04,74.47L60.04,79.71L60.86,79.71L60.86,78.03L62.52,77.69L62.52,78.75L63.35,78.75L63.35,76.33L64.18,76.33L64.18,73.12L65.83,73.36L65.83,80.06L66.66,80.06L66.66,76.72L67.49,76.72L67.49,74.64L68.31,74.64L68.31,78.01L69.97,77.5L69.97,77.13L70.8,77.13L70.8,78.17L71.62,78.17L71.62,75.22L72.45,75.22L72.45,77.87L74.11,77.9L74.11,73.69L74.93,73.69L74.93,74.85L75.76,74.85L75.76,71.4L76.59,71.4L76.59,79.74L77.42,79.74L77.42,73.02L78.25,73.02L78.25,82.83L79.07,82.83L79.07,68.84L79.9,68.84L79.9,80.21L80.73,80.21L80.73,73.29L81.56,73.29L81.56,77.13L82.38,77.13L82.38,78.62L83.21,78.62L83.21,76.09L84.04,76.09L84.04,78.96L84.87,78.96L84.87,68.12L85.69,68.12L85.69,84.13L86.52,84.13L86.52,70.93L87.35,70.93L87.35,79.79L88.18,79.79L88.18,74.4L89,74.4L89,78.58L89.83,78.58L89.83,74.65L90.66,74.65L90.66,76.9L91.49,76.9L91.49,79.37L92.32,79.37L92.32,70.69L93.14,70.69L93.14,81.64L93.97,81.64L93.97,73.65L94.8,73.65L94.8,75.84L95.63,75.84L95.63,72.66L96.45,72.66L96.45,77.66L97.28,77.66L97.28,75.61L98.11,75.61L98.11,77.63L99.76,77.16L99.76,73.88L100.59,73.88L100.59,76.57L101.42,76.57L101.42,71.92L102.25,71.92L102.25,78.73L103.07,78.73L103.07,77.14L103.9,77.14L103.9,74.83L104.73,74.83L104.73,77.92L105.56,77.92L105.56,75.64L106.39,75.64L106.39,76.59L107.21,76.59L107.21,72.06L108.04,72.06L108.04,78.31L109.7,78.41L109.7,74.01L110.52,74.01L110.52,78.39L111.35,78.39L111.35,74.38L112.18,74.38L112.18,80.46L113.01,80.46L113.01,74.04L113.83,74.04L113.83,79.13L114.66,79.13L114.66,77.96L115.49,77.96L115.49,74.95L116.32,74.95L116.32,73.8L117.14,73.8L117.14,74.76L117.97,74.76L117.97,76.14L119.63,75.58L119.63,78.31L120.46,78.31L120.46,74.37L121.28,74.37L121.28,79.85L122.11,79.85L122.11,75.91L123.77,76.46L123.77,77.81L126.25,77.07L126.25,75.72L127.08,75.72L127.08,74.51L127.9,74.51L127.9,76.76L128.73,76.76L128.73,74.2L129.56,74.2L129.56,76.94L131.21,77.48L131.21,75.63L132.04,75.63L132.04,80.16L132.87,80.16L132.87,76.51L134.53,76.5L134.53,74.75L135.35,74.75L135.35,73.26L136.18,73.26L136.18,75.16L137.01,75.16L137.01,77.68L137.84,77.68L137.84,75.97L139.49,75.63L139.49,78.46L140.32,78.46L140.32,73.81L141.15,73.81L141.15,85.45L141.97,85.45L141.97,71.78L142.8,71.78L142.8,79.83L143.63,79.83L143.63,73.98L144.46,73.98L144.46,77.99L145.28,77.99L145.28,71.04L146.11,71.04L146.11,75.55L146.94,75.55L146.94,79.05L147.77,79.05L147.77,73.66L148.6,73.66L148.6,80.89L149.42,80.89L149.42,75.26L150.25,75.26L150.25,81.28L151.08,81.28L151.08,74.18L151.91,74.18L151.91,84.29L152.73,84.29L152.73,79.9L153.56,79.9L153.56,78.87L156.04,79.21L156.04,81.8L156.87,81.8L156.87,77.91L157.7,77.91L157.7,88.78L158.53,88.78L158.53,78.21L159.35,78.21L159.35,82.59L160.18,82.59L160.18,73.52L161.01,73.52L161.01,81.57L161.84,81.57L161.84,80.51L162.67,80.51L162.67,78.17L164.32,78.85L164.32,81.28L165.98,81.09L165.98,75.82L166.8,75.82L166.8,86.52L167.63,86.52L167.63,78.77L168.46,78.77L168.46,79.96L169.29,79.96L169.29,78.09L170.94,78.29L170.94,81.81L171.77,81.81L171.77,77.91L172.6,77.91L172.6,85.16L173.42,85.16L173.42,77.65L174.25,77.65L174.25,80.57L175.08,80.57L175.08,82.62L175.91,82.62L175.91,79.43L176.74,79.43L176.74,80.22L177.56,80.22L177.56,77.69L178.39,77.69L178.39,79.96L179.22,79.96L179.22,78.84L180.05,78.84L180.05,82.84L180.87,82.84L180.87,87.91L181.7,87.91L181.7,76.58L182.53,76.58L182.53,84.16L183.36,84.16L183.36,77.2L184.18,77.2L184.18,90.52L185.01,90.52L185.01,73.92L185.84,73.92L185.84,79.96L187.49,80.29L187.49,81.84L189.15,81.65L189.15,79.66L189.98,79.66L189.98,85.76L190.81,85.76L190.81,79.09L191.63,79.09L191.63,84.36L192.46,84.36L192.46,76.05L193.29,76.05L193.29,82.44L194.12,82.44L194.12,80.1L194.94,80.1L194.94,81.55L195.77,81.55L195.77,85.98L196.6,85.98L196.6,80.86L197.43,80.86L197.43,84.83L198.25,84.83L198.25,79.97L199.08,79.97L199.08,86.36L199.91,86.36L199.91,72.4L200.74,72.4L200.74,78.66L201.56,78.66L201.56,80.9L202.39,80.9L202.39,82.04L203.22,82.04L203.22,84.75L204.05,84.75L204.05,79.81L204.88,79.81L204.88,86.46L205.7,86.46L205.7,80.03L206.53,80.03L206.53,87.02L207.36,87.02L207.36,79.99L208.19,79.99L208.19,77.42L209.01,77.42L209.01,80.8L209.84,80.8L209.84,81.58L211.5,81.66L211.5,80.27L212.32,80.27L212.32,83.07L213.15,83.07L213.15,79.6L213.98,79.6L213.98,87.71L214.81,87.71L214.81,75.95L215.63,75.95L215.63,86.4L216.46,86.4L216.46,76.67L217.29,76.67L217.29,84.94L218.12,84.94L218.12,79.65L219.77,79.77L219.77,83.24L220.6,83.24L220.6,78.23L221.43,78.23L221.43,84.55L222.26,84.55L222.26,77.46L223.08,77.46L223.08,75.81L223.91,75.81L223.91,72.47L224.74,72.47L224.74,80.57L225.57,80.57L225.57,69.85L226.39,69.85L226.39,72.45L227.22,72.45L227.22,68.95L228.05,68.95L228.05,71.82L228.88,71.82L228.88,68.55L229.7,68.55L229.7,73.11L231.36,73.6L231.36,68.26L232.19,68.26L232.19,73.67L233.02,73.67L233.02,69.58L233.84,69.58L233.84,75.8L234.67,75.8L234.67,71.58L235.5,71.58L235.5,74.44L236.33,74.44L236.33,69.16L237.15,69.16L237.15,73.57L237.98,73.57L237.98,70.87L239.64,70.69L239.64,73.32L240.46,73.32L240.46,72.14L241.29,72.14L241.29,78.73L242.12,78.73L242.12,76.27L242.95,76.27L242.95,73.25L243.77,73.25L243.77,79.8L244.6,79.8L244.6,74.95L245.43,74.95L245.43,76.48L246.26,76.48L246.26,73.24L247.09,73.24L247.09,76.59L247.91,76.59L247.91,72.3L248.74,72.3L248.74,71.06L249.57,71.06L249.57,75.6L250.4,75.6L250.4,71.96L251.22,71.96L251.22,75.6L252.05,75.6L252.05,68.68L252.88,68.68L252.88,74.67L253.71,74.67L253.71,72.07L254.53,72.07L254.53,68.2L255.36,68.2L255.36,71.38L256.19,71.38L256.19,69.99L257.02,69.99L257.02,73.45L257.84,73.45L257.84,75.37L258.67,75.37L258.67,72.89L259.5,72.89L259.5,67.71L260.33,67.71L260.33,74.32L261.15,74.32L261.15,72.96L261.98,72.96L261.98,76.35L262.81,76.35L262.81,79.85L263.64,79.85L263.64,77.26L264.47,77.26L264.47,69L265.29,69L265.29,73.24L266.12,73.24L266.12,72.38L266.95,72.38L266.95,78.86L267.78,78.86L267.78,72.22L268.6,72.22L268.6,79.76L269.43,79.76L269.43,65.82L270.26,65.82L270.26,77.71L271.09,77.71L271.09,73.06L272.74,73.39L272.74,63.76L273.57,63.76L273.57,66.78L274.4,66.78L274.4,68.32L275.22,68.32L275.22,66.67L276.05,66.67L276.05,68.14L276.88,68.14L276.88,68.96L277.71,68.96L277.71,70.35L278.54,70.35L278.54,66.89L279.36,66.89L279.36,70.44L280.19,70.44L280.19,71.22L281.02,71.22L281.02,68.87L282.67,69.04L282.67,70.18L283.5,70.18L283.5,68.85L285.16,69.48L285.16,70.77L286.81,71.43L286.81,73.16L287.64,73.16L287.64,74.49L288.47,74.49L288.47,73.37L289.29,73.37L289.29,72.25L290.12,72.25L290.12,75.23L290.95,75.23L290.95,79.43L291.78,79.43L291.78,76.63L292.61,76.63L292.61,73.84L293.43,73.84L293.43,75.26L294.26,75.26L294.26,66.45L295.09,66.45L295.09,77.15L295.92,77.15L295.92,66.66L296.74,66.66L296.74,49.94L297.57,49.94L297.57,66.46L298.4,66.46L298.4,69.39L299.23,69.39L299.23,66.38L300.88,66.52L300.88,71.68L301.71,71.68L301.71,70.49L302.54,70.49L302.54,75.56L303.36,75.56L303.36,68.46L304.19,68.46L304.19,77.77L305.02,77.77L305.02,75.76L305.85,75.76L305.85,72.23L307.5,72.14L307.5,69L308.33,69L308.33,70.37L309.16,70.37L309.16,74.68L309.99,74.68L309.99,69.8L310.81,69.8L310.81,66.54L311.64,66.54L311.64,67.58L312.47,67.58L312.47,74.8L313.3,74.8L313.3,70.59L314.12,70.59L314.12,73.17L314.95,73.17L314.95,71.78L315.78,71.78L315.78,69.9L316.61,69.9L316.61,41.12L317.43,41.12L317.43,52.36L319.09,53.06L319.09,44.83L319.92,44.83L319.92,43.79L321.57,44.27L321.57,47.54L323.23,46.93L323.23,42.87L324.06,42.87L324.06,48.85L324.88,48.85L324.88,49.96L325.71,49.96L325.71,52.1L326.54,52.1L326.54,48.92L327.37,48.92L327.37,54.55L328.19,54.55L328.19,50.01L329.02,50.01L329.02,43.17L329.85,43.17L329.85,45.27L330.68,45.27L330.68,50.14L331.5,50.14L331.5,56.85L332.33,56.85L332.33,50.7L333.16,50.7L333.16,56.24L333.99,56.24L333.99,52.34L334.82,52.34L334.82,53.64L335.64,53.64L335.64,66.29L336.47,66.29L336.47,50.39L337.3,50.39L337.3,52.13L338.13,52.13L338.13,45.45L338.95,45.45L338.95,50.62L340.61,50.89L340.61,58.15L341.44,58.15L341.44,65.81L342.26,65.81L342.26,59.73L343.09,59.73L343.09,53.09L343.92,53.09L343.92,62.99L344.75,62.99L344.75,57.62L345.57,57.62L345.57,63.48L346.4,63.48L346.4,60.12L347.23,60.12L347.23,61.93L348.06,61.93L348.06,57.55L348.89,57.55L348.89,63.42L351.37,63.69L351.37,64.91L352.2,64.91L352.2,61.65L353.02,61.65L353.02,59.73L353.85,59.73L353.85,61.41L357.16,61.19L357.16,57.82L357.99,57.82L357.99,54.02L358.82,54.02L358.82,60.09L360.47,59.87L360.47,55.4L361.3,55.4L361.3,56.41L363.78,57.09L363.78,53.15L364.61,53.15L364.61,48.88L365.44,48.88L365.44,24.56L366.27,24.56L366.27,3.84L367.09,3.84L367.09,5.91L367.92,5.91L367.92,7L368.75,7L368.75,14.83L369.58,14.83L369.58,5.25L372.89,5.82L372.89,4.13L373.71,4.13L373.71,6.85L375.37,6.99L375.37,9.12L376.2,9.12L376.2,7.43L377.03,7.43L377.03,5.33L377.85,5.33L377.85,4.56L379.51,5.13L379.51,5.83L380.34,5.83L380.34,4.27L381.16,4.27L381.16,5.93L382.82,5.79L382.82,9.72L383.65,9.72L383.65,2.99L384.47,2.99L384.47,9.01L385.3,9.01L385.3,17.46L386.13,17.46L386.13,10.4L386.96,10.4L386.96,51.42L387.78,51.42L387.78,53.35L389.44,53.85L389.44,27.56L390.27,27.56L390.27,40.51L391.1,40.51L391.1,58.47L391.92,58.47L391.92,53.33L392.75,53.33L392.75,57.39L393.58,57.39L393.58,53.87L394.41,53.87L394.41,58.64L395.23,58.64L395.23,57.67L396.06,57.67L396.06,60.82L396.89,60.82L396.89,59.83L398.54,59.81L398.54,57.43L399.37,57.43L399.37,59.91L401.03,60L401.03,58.47L402.68,59.17L402.68,60.21L403.51,60.21L403.51,56.74L404.34,56.74L404.34,58.06L405.17,58.06L405.17,59.8L405.99,59.8L405.99,61.6L406.82,61.6L406.82,56.27L407.65,56.27L407.65,54.65L408.48,54.65L408.48,56.75L409.3,56.75L409.3,54.75L410.96,55.46L410.96,58.66L411.79,58.66L411.79,62.66L412.61,62.66L412.61,54.43L413.44,54.43L413.44,60.2L414.27,60.2L414.27,61.78L415.1,61.78L415.1,58.14L416.75,57.72L416.75,58.96L418.41,58.82L418.41,58.09L419.24,58.09L419.24,61.91L420.06,61.91L420.06,60.91L420.89,60.91L420.89,60L421.72,60L421.72,56.91L422.55,56.91L422.55,59.84L423.37,59.84L423.37,63.12L424.2,63.12L424.2,64.03L425.03,64.03L425.03,62.73L425.86,62.73L425.86,64.94L426.68,64.94L426.68,60.79L427.51,60.79L427.51,58.53L428.34,58.53L428.34,62.97L429.17,62.97L429.17,61.17L429.99,61.17L429.99,62.21L430.82,62.21L430.82,65.25L431.65,65.25L431.65,60.43L432.48,60.43L432.48,65.13L433.31,65.13L433.31,58.56L434.13,58.56L434.13,60.43L435.79,60.77L435.79,65.24L437.44,65.78L437.44,64.23L438.27,64.23L438.27,65.83L439.1,65.83L439.1,62.44L439.93,62.44L439.93,64.56L440.75,64.56L440.75,59.12L441.58,59.12L441.58,65.86L442.41,65.86L442.41,63.11L444.06,63.16L444.06,68.31L445.72,68.93L445.72,65.55L446.55,65.55L446.55,59.66L447.38,59.66L447.38,62.37L448.2,62.37L448.2,73.37L449.03,73.37L449.03,72.19L449.86,72.19L449.86,86.79L450.69,86.79L450.69,72.21L451.51,72.21L451.51,79.85L452.34,79.85L452.34,78.32L454,78.13L454,84.05L454.82,84.05L454.82,79.2L455.65,79.2L455.65,75.46L456.48,75.46L456.48,79.82L457.31,79.82L457.31,81L458.96,81.57L458.96,74.01L459.79,74.01L459.79,81.96L460.62,81.96L460.62,74.3L461.44,74.3L461.44,82.27L462.27,82.27L462.27,76.88L463.1,76.88L463.1,82.76L463.93,82.76L463.93,81.17L464.76,81.17L464.76,84.58L465.58,84.58L465.58,81.11L466.41,81.11L466.41,80.32L468.89,79.74L468.89,79L469.72,79L469.72,80.2L470.55,80.2L470.55,93.61L471.38,93.61L471.38,82.51L472.2,82.51L472.2,86.36L473.03,86.36L473.03,91.42L473.86,91.42L473.86,96.96L474.69,96.96L474.69,91.15L475.51,91.15L475.51,93.67L477.17,94.31L477.17,91.12L478,91.12L478,94.04L478.83,94.04L478.83,92.05L481.31,92.62L481.31,93.18L482.14,93.18L482.14,91.87L482.96,91.87L482.96,99.4L483.79,99.4L483.79,92.97L484.62,92.97L484.62,97.47L485.45,97.47L485.45,93.64L487.1,93.36L487.1,95L487.93,95L487.93,96.71L489.58,96.56L489.58,90.11L490.41,90.11L490.41,86.7L492.07,86.64L492.07,87.68L492.9,87.68L492.9,88.51L493.72,88.51L493.72,87.19L494.55,87.19L494.55,93.88L495.38,93.88L495.38,98.47L496.21,98.47L496.21,90.72L497.03,90.72L497.03,88.73L497.86,88.73L497.86,85.75L499.52,86.19L499.52,89.05L500.34,89.05L500.34,36.46L501.17,36.46L501.17,39.07L502,39.07L502,86.24L502.83,86.24L502.83,90.19L503.65,90.19L503.65,95.02L504.48,95.02L504.48,98.45L505.31,98.45L505.31,95.05L506.14,95.05L506.14,91.74L506.97,91.74L506.97,92.73L507.79,92.73L507.79,99.61L508.62,99.61L508.62,91.22L509.45,91.22L509.45,88.79L510.28,88.79L510.28,99.5L511.1,99.5L511.1,91.17L511.93,91.17L511.93,96.8L512.76,96.8L512.76,95.83L514.41,96.05L514.41,88.99L515.24,88.99L515.24,93.16L516.07,93.16L516.07,101.12L516.9,101.12L516.9,94.06L517.72,94.06L517.72,99.78L518.55,99.78L518.55,92.47L519.38,92.47L519.38,94.2L520.21,94.2L520.21,86.76L521.04,86.76L521.04,88.93L521.86,88.93L521.86,87.69L523.52,87.71L523.52,88.84L524.35,88.84L524.35,93.67L526,94.34L526,97.79L526.83,97.79L526.83,101.03L527.66,101.03L527.66,92.51L528.48,92.51L528.48,96.11L530.14,96.33L530.14,93.53L530.97,93.53L530.97,92.35L531.79,92.35L531.79,87.81L532.62,87.81L532.62,96.04L534.28,96.78L534.28,88.99L535.11,88.99L535.11,90.03L535.93,90.03L535.93,93.43L536.76,93.43L536.76,96.33L537.59,96.33L537.59,94.73L538.42,94.73L538.42,88.97L539.24,88.97L539.24,96.47L540.07,96.47L540.07,99.73L540.9,99.73L540.9,95.85L541.73,95.85L541.73,99.07L543.38,98.75L543.38,95.96L544.21,95.96L544.21,98.67L545.86,99.02L545.86,94.89L546.69,94.89L546.69,92.07L547.52,92.07L547.52,88.82L548.35,88.82L548.35,97.17L549.18,97.17L549.18,92.27L550,92.27L550,88.17L550.83,88.17L550.83,95.24L551.66,95.24L551.66,98.39L552.49,98.39L552.49,99.79L553.31,99.79L553.31,96.8L554.14,96.8L554.14,97.79L554.97,97.79L554.97,95.97L555.8,95.97L555.8,97.88L556.62,97.88L556.62,93.03L557.45,93.03L557.45,95.37L558.28,95.37L558.28,93.9L559.93,93.82L559.93,98.68L560.76,98.68L560.76,95.01L561.59,95.01L561.59,93.7L563.25,93.3L563.25,98.6L564.07,98.6L564.07,95.33L564.9,95.33L564.9,97.15L565.73,97.15L565.73,99.01L566.56,99.01L566.56,97.48L567.38,97.48L567.38,87.98L568.21,87.98L568.21,98.32L569.04,98.32L569.04,92.77L569.87,92.77L569.87,95.65L570.69,95.65L570.69,98.18L571.52,98.18L571.52,99.05L572.35,99.05L572.35,96.57L573.18,96.57L573.18,98.68L574,98.68L574,101.53L574.83,101.53L574.83,88.59L575.66,88.59L575.66,90.59L576.49,90.59L576.49,84.77L577.32,84.77L577.32,89.94L578.97,90.08L578.97,92.83L579.8,92.83L579.8,97.26L580.63,97.26L580.63,99.36L581.45,99.36L581.45,89.83L583.11,89.09L583.11,90.77L583.94,90.77L583.94,87.81L584.76,87.81L584.76,94.21L585.59,94.21L585.59,97.94L587.25,98.47L587.25,99.35L588.07,99.35L588.07,96.27L588.9,96.27L588.9,93.22L589.73,93.22L589.73,96.76L590.56,96.76L590.56,99.91L591.39,99.91L591.39,102.5L592.21,102.5L592.21,93.9L593.04,93.9L593.04,91.59L593.87,91.59L593.87,93.24L594.7,93.24L594.7,94.06L595.52,94.06L595.52,98.27L596.35,98.27L596.35,94.76L598.01,94.09L598.01,95.01L598.83,95.01L598.83,96.74L600.49,97.41L600.49,99.14L601.32,99.14L601.32,94.53L602.14,94.53L602.14,100.44L602.97,100.44L602.97,97.93L603.8,97.93L603.8,87.46L604.63,87.46L604.63,95.05L605.46,95.05L605.46,93.58L606.28,93.58L606.28,89.11L607.11,89.11L607.11,93.84L607.94,93.84L607.94,97.14L608.77,97.14L608.77,94.41L609.59,94.41L609.59,96.19L610.42,96.19L610.42,99.33L612.08,98.84L612.08,99.11" style="vector-effect: non-scaling-stroke; fill: none; stroke: rgb(62, 164, 78); stroke-opacity: 0.5; stroke-width: 1px; opacity: 1;"/></g><g class="points"/><g class="text"/></g></g></g><g class="overplot"/><path class="xlines-above crisp" d="M0,0" style="fill: none;"/><path class="ylines-above crisp" d="M65.65923009623796,33.37610576455724V138.86486176883216" style="fill: none; stroke-width: 1px; stroke: rgb(0, 0, 0); stroke-opacity: 1;"/><g class="overlines-above"/><g class="xaxislayer-above"/><g class="yaxislayer-above"><path class="ytick ticks crisp" d="M66.15923009623796,0h5" transform="translate(0,129.87610576455722)" style="stroke: rgb(0, 0, 0); stroke-opacity: 1; stroke-width: 1px;"/><path class="ytick ticks crisp" d="M66.15923009623796,0h5" transform="translate(0,107.99610576455724)" style="stroke: rgb(0, 0, 0); stroke-opacity: 1; stroke-width: 1px;"/><path class="ytick ticks crisp" d="M66.15923009623796,0h5" transform="translate(0,86.11610576455723)" style="stroke: rgb(0, 0, 0); stroke-opacity: 1; stroke-width: 1px;"/><path class="ytick ticks crisp" d="M66.15923009623796,0h5" transform="translate(0,64.24610576455724)" style="stroke: rgb(0, 0, 0); stroke-opacity: 1; stroke-width: 1px;"/><path class="ytick ticks crisp" d="M66.15923009623796,0h5" transform="translate(0,42.36610576455724)" style="stroke: rgb(0, 0, 0); stroke-opacity: 1; stroke-width: 1px;"/><g class="ytick"><text text-anchor="end" x="62.95923009623796" y="3.8499999999999996" transform="translate(0,129.87610576455722)" style="font-family: sans-serif; font-size: 11px; fill: rgb(0, 0, 0); fill-opacity: 1; white-space: pre; opacity: 1;">10^2.50</text></g><g class="ytick"><text text-anchor="end" x="62.95923009623796" y="3.8499999999999996" style="font-family: sans-serif; font-size: 11px; fill: rgb(0, 0, 0); fill-opacity: 1; white-space: pre; opacity: 1;" transform="translate(0,107.99610576455724)">10^2.75</text></g><g class="ytick"><text text-anchor="end" x="62.95923009623796" y="3.8499999999999996" style="font-family: sans-serif; font-size: 11px; fill: rgb(0, 0, 0); fill-opacity: 1; white-space: pre; opacity: 1;" transform="translate(0,86.11610576455723)">10^3.00</text></g><g class="ytick"><text text-anchor="end" x="62.95923009623796" y="3.8499999999999996" style="font-family: sans-serif; font-size: 11px; fill: rgb(0, 0, 0); fill-opacity: 1; white-space: pre; opacity: 1;" transform="translate(0,64.24610576455724)">10^3.25</text></g><g class="ytick"><text text-anchor="end" x="62.95923009623796" y="3.8499999999999996" style="font-family: sans-serif; font-size: 11px; fill: rgb(0, 0, 0); fill-opacity: 1; white-space: pre; opacity: 1;" transform="translate(0,42.36610576455724)">10^3.50</text></g></g><g class="overaxes-above"/></g><g class="subplot xy2"><g class="layer-subplot"><g class="shapelayer"/><g class="imagelayer"/></g><g class="gridlayer"><g class="x"><path class="xgrid crisp" transform="translate(83.15923009623796,0)" d="M0,165.6170732979466v105.48875600427493" style="stroke: rgb(0, 0, 0); stroke-opacity: 0.1; stroke-width: 0.5px;"/><path class="xgrid crisp" transform="translate(107.98923009623796,0)" d="M0,165.6170732979466v105.48875600427493" style="stroke: rgb(0, 0, 0); stroke-opacity: 0.1; stroke-width: 0.5px;"/><path class="xgrid crisp" transform="translate(132.81923009623796,0)" d="M0,165.6170732979466v105.48875600427493" style="stroke: rgb(0, 0, 0); stroke-opacity: 0.1; stroke-width: 0.5px;"/><path class="xgrid crisp" transform="translate(157.64923009623794,0)" d="M0,165.6170732979466v105.48875600427493" style="stroke: rgb(0, 0, 0); stroke-opacity: 0.1; stroke-width: 0.5px;"/><path class="xgrid crisp" transform="translate(182.47923009623796,0)" d="M0,165.6170732979466v105.48875600427493" style="stroke: rgb(0, 0, 0); stroke-opacity: 0.1; stroke-width: 0.5px;"/><path class="xgrid crisp" transform="translate(207.30923009623797,0)" d="M0,165.6170732979466v105.48875600427493" style="stroke: rgb(0, 0, 0); stroke-opacity: 0.1; stroke-width: 0.5px;"/><path class="xgrid crisp" transform="translate(232.13923009623795,0)" d="M0,165.6170732979466v105.48875600427493" style="stroke: rgb(0, 0, 0); stroke-opacity: 0.1; stroke-width: 0.5px;"/><path class="xgrid crisp" transform="translate(256.969230096238,0)" d="M0,165.6170732979466v105.48875600427493" style="stroke: rgb(0, 0, 0); stroke-opacity: 0.1; stroke-width: 0.5px;"/><path class="xgrid crisp" transform="translate(281.78923009623793,0)" d="M0,165.6170732979466v105.48875600427493" style="stroke: rgb(0, 0, 0); stroke-opacity: 0.1; stroke-width: 0.5px;"/><path class="xgrid crisp" transform="translate(306.61923009623797,0)" d="M0,165.6170732979466v105.48875600427493" style="stroke: rgb(0, 0, 0); stroke-opacity: 0.1; stroke-width: 0.5px;"/><path class="xgrid crisp" transform="translate(331.449230096238,0)" d="M0,165.6170732979466v105.48875600427493" style="stroke: rgb(0, 0, 0); stroke-opacity: 0.1; stroke-width: 0.5px;"/><path class="xgrid crisp" transform="translate(356.27923009623794,0)" d="M0,165.6170732979466v105.48875600427493" style="stroke: rgb(0, 0, 0); stroke-opacity: 0.1; stroke-width: 0.5px;"/><path class="xgrid crisp" transform="translate(381.109230096238,0)" d="M0,165.6170732979466v105.48875600427493" style="stroke: rgb(0, 0, 0); stroke-opacity: 0.1; stroke-width: 0.5px;"/><path class="xgrid crisp" transform="translate(405.9392300962379,0)" d="M0,165.6170732979466v105.48875600427493" style="stroke: rgb(0, 0, 0); stroke-opacity: 0.1; stroke-width: 0.5px;"/><path class="xgrid crisp" transform="translate(430.76923009623795,0)" d="M0,165.6170732979466v105.48875600427493" style="stroke: rgb(0, 0, 0); stroke-opacity: 0.1; stroke-width: 0.5px;"/><path class="xgrid crisp" transform="translate(455.599230096238,0)" d="M0,165.6170732979466v105.48875600427493" style="stroke: rgb(0, 0, 0); stroke-opacity: 0.1; stroke-width: 0.5px;"/><path class="xgrid crisp" transform="translate(480.4292300962379,0)" d="M0,165.6170732979466v105.48875600427493" style="stroke: rgb(0, 0, 0); stroke-opacity: 0.1; stroke-width: 0.5px;"/><path class="xgrid crisp" transform="translate(505.25923009623796,0)" d="M0,165.6170732979466v105.48875600427493" style="stroke: rgb(0, 0, 0); stroke-opacity: 0.1; stroke-width: 0.5px;"/><path class="xgrid crisp" transform="translate(530.089230096238,0)" d="M0,165.6170732979466v105.48875600427493" style="stroke: rgb(0, 0, 0); stroke-opacity: 0.1; stroke-width: 0.5px;"/><path class="xgrid crisp" transform="translate(554.9192300962379,0)" d="M0,165.6170732979466v105.48875600427493" style="stroke: rgb(0, 0, 0); stroke-opacity: 0.1; stroke-width: 0.5px;"/><path class="xgrid crisp" transform="translate(579.749230096238,0)" d="M0,165.6170732979466v105.48875600427493" style="stroke: rgb(0, 0, 0); stroke-opacity: 0.1; stroke-width: 0.5px;"/><path class="xgrid crisp" transform="translate(604.5792300962379,0)" d="M0,165.6170732979466v105.48875600427493" style="stroke: rgb(0, 0, 0); stroke-opacity: 0.1; stroke-width: 0.5px;"/><path class="xgrid crisp" transform="translate(629.4092300962379,0)" d="M0,165.6170732979466v105.48875600427493" style="stroke: rgb(0, 0, 0); stroke-opacity: 0.1; stroke-width: 0.5px;"/><path class="xgrid crisp" transform="translate(654.229230096238,0)" d="M0,165.6170732979466v105.48875600427493" style="stroke: rgb(0, 0, 0); stroke-opacity: 0.1; stroke-width: 0.5px;"/><path class="xgrid crisp" transform="translate(679.0592300962379,0)" d="M0,165.6170732979466v105.48875600427493" style="stroke: rgb(0, 0, 0); stroke-opacity: 0.1; stroke-width: 0.5px;"/></g><g class="y2"><path class="y2grid crisp" transform="translate(0,236.90707329794662)" d="M66.15923009623796,0h629.9037620297463" style="stroke: rgb(0, 0, 0); stroke-opacity: 0.1; stroke-width: 0.5px;"/><path class="y2grid crisp" transform="translate(0,182.3970732979466)" d="M66.15923009623796,0h629.9037620297463" style="stroke: rgb(0, 0, 0); stroke-opacity: 0.1; stroke-width: 0.5px;"/></g></g><g class="zerolinelayer"/><path class="xlines-below"/><path class="ylines-below"/><g class="overlines-below"/><g class="xaxislayer-below"/><g class="yaxislayer-below"/><g class="overaxes-below"/><g class="plot" transform="translate(66.15923009623796,165.6170732979466)" clip-path="url(#clipe3bf64xy2plot)"><g class="scatterlayer mlayer"><g class="trace scatter trace67e938" style="stroke-miterlimit: 2; opacity: 1;"><g class="fills"/><g class="errorbars"/><g class="lines"><path class="js-line" d="M17.83,17.25L19.48,17.42L19.48,16.58L20.31,16.58L20.31,15.75L23.62,16.17L23.62,15.4L26.1,15.09L26.1,16.38L26.93,16.38L26.93,15.46L28.59,15.16L28.59,14.33L31.9,14.97L31.9,15.45L33.55,15L33.55,14.39L40.17,14.66L40.17,15.47L42.66,16.2L42.66,16.99L45.14,17.68L45.14,18.54L46.8,18.42L46.8,17.52L48.45,16.89L48.45,16L49.28,16L49.28,15.19L51.76,14.74L51.76,13.73L53.42,13.44L53.42,12.61L54.24,12.61L54.24,13.81L55.9,14.47L55.9,16.03L57.55,16.28L57.55,15.13L60.04,15.71L60.04,14.78L60.86,14.78L60.86,16.44L61.69,16.44L61.69,18.09L62.52,18.09L62.52,17.25L64.18,16.66L64.18,15.79L65,15.79L65,13.77L67.49,13.19L67.49,12.97L69.97,13.69L69.97,15.44L72.45,15.77L72.45,17.76L74.11,18.14L74.11,16.85L78.25,17.02L78.25,16.37L79.07,16.37L79.07,14.84L80.73,14.43L80.73,15.42L82.38,15.91L82.38,14.81L84.87,14.95L84.87,15.74L88.18,16.03L88.18,16.36L90.66,16.87L90.66,18.37L93.97,18L93.97,17.97L94.8,17.97L94.8,17.13L95.63,17.13L95.63,16.19L97.28,15.75L97.28,16.77L99.76,16.02L99.76,15.46L103.9,15.4L103.9,15.3L105.56,15.43L105.56,17.41L107.21,18.06L107.21,19.26L108.87,18.91L108.87,18.14L110.52,17.39L110.52,16.96L114.66,16.45L114.66,15.58L115.49,15.58L115.49,16.97L117.14,17.36L117.14,16.55L118.8,15.84L118.8,16.86L121.28,16.14L121.28,15.83L122.11,15.83L122.11,16.64L122.94,16.64L122.94,18.25L123.77,18.25L123.77,19.05L124.59,19.05L124.59,17.99L125.42,17.99L125.42,18.9L127.9,18.81L127.9,17.69L131.21,18.28L131.21,16.38L136.18,15.65L136.18,15.25L137.01,15.25L137.01,14.12L139.49,14.1L139.49,14.97L140.32,14.97L140.32,16.13L141.97,16.58L141.97,17.66L142.8,17.66L142.8,19.14L143.63,19.14L143.63,20.38L144.46,20.38L144.46,19.43L147.77,19.29L147.77,17.95L148.6,17.95L148.6,16.84L150.25,16.36L150.25,15.64L151.91,15.71L151.91,16.79L152.73,16.79L152.73,16L153.56,16L153.56,17.09L156.87,16.39L156.87,14.97L157.7,14.97L157.7,16.49L158.53,16.49L158.53,14.61L159.35,14.61L159.35,13.62L160.18,13.62L160.18,14.63L168.46,14.91L168.46,16.35L169.29,16.35L169.29,18.39L170.94,17.9L170.94,15.69L171.77,15.69L171.77,14.48L172.6,14.48L172.6,8.65L173.42,8.65L173.42,14.09L174.25,14.09L174.25,12.03L175.08,12.03L175.08,8.5L175.91,8.5L175.91,14.87L176.74,14.87L176.74,14.08L180.05,14.19L180.05,13.29L180.87,13.29L180.87,11.77L181.7,11.77L181.7,10.69L182.53,10.69L182.53,8.99L183.36,8.99L183.36,11.91L185.01,12.02L185.01,13.49L188.32,13.2L188.32,12.8L189.15,12.8L189.15,11.07L190.81,10.37L190.81,12.22L191.63,12.22L191.63,14.37L192.46,14.37L192.46,9.28L193.29,9.28L193.29,12.59L194.12,12.59L194.12,7.01L195.77,6.96L195.77,5.93L197.43,5.94L197.43,9.08L198.25,9.08L198.25,5.08L199.08,5.08L199.08,4.16L201.56,3.99L201.56,3.75L202.39,3.75L202.39,2.99L204.05,3.67L204.05,4.57L204.88,4.57L204.88,3.77L205.7,3.77L205.7,5.11L206.53,5.11L206.53,13.97L207.36,13.97L207.36,10.64L208.19,10.64L208.19,15.01L209.84,14.54L209.84,13.83L211.5,13.36L211.5,12.35L212.32,12.35L212.32,13.13L216.46,13.58L216.46,12.66L218.12,12.78L218.12,8.71L220.6,8.63L220.6,8.49L221.43,8.49L221.43,9.63L222.26,9.63L222.26,10.52L223.08,10.52L223.08,8.54L223.91,8.54L223.91,7.34L224.74,7.34L224.74,10.15L225.57,10.15L225.57,9.08L226.39,9.08L226.39,10.4L227.22,10.4L227.22,6.75L228.05,6.75L228.05,9.94L228.88,9.94L228.88,12.3L229.7,12.3L229.7,11.32L230.53,11.32L230.53,10.44L232.19,10.1L232.19,11.7L233.84,12.31L233.84,10.68L235.5,10.73L235.5,11.65L237.15,11.52L237.15,13.04L237.98,13.04L237.98,12L242.95,11.65L242.95,11.32L243.77,11.32L243.77,12.22L244.6,12.22L244.6,13.58L247.09,13.77L247.09,15.06L249.57,14.64L249.57,14.11L250.4,14.11L250.4,13.22L251.22,13.22L251.22,14.28L252.05,14.28L252.05,13.21L252.88,13.21L252.88,7.84L254.53,8.52L254.53,5.9L255.36,5.9L255.36,9.32L259.5,9.43L259.5,12.36L260.33,12.36L260.33,13.27L265.29,12.68L265.29,13.77L266.95,13.09L266.95,12.97L267.78,12.97L267.78,10.95L269.43,11.25L269.43,11.79L271.09,12L271.09,13.02L271.91,13.02L271.91,13.97L272.74,13.97L272.74,11.71L276.05,11.38L276.05,13.16L277.71,13.57L277.71,14.2L279.36,13.55L279.36,12.81L281.85,12.63L281.85,13.65L284.33,13.92L284.33,14.24L285.98,13.81L285.98,13.38L287.64,13.05L287.64,12.58L288.47,12.58L288.47,13.45L290.12,14.06L290.12,12.86L291.78,12.88L291.78,14.15L293.43,14.24L293.43,10.9L297.57,11.19L297.57,9.77L298.4,9.77L298.4,12.74L299.23,12.74L299.23,6.12L300.05,6.12L300.05,8.27L300.88,8.27L300.88,12.25L301.71,12.25L301.71,10.75L302.54,10.75L302.54,12.06L304.19,12.57L304.19,13.38L305.02,13.38L305.02,15.04L306.68,14.64L306.68,13.76L307.5,13.76L307.5,12.39L308.33,12.39L308.33,11.1L311.64,11.68L311.64,14.15L312.47,14.15L312.47,11.21L313.3,11.21L313.3,9.73L314.12,9.73L314.12,10.78L315.78,10.8L315.78,8.38L317.43,7.87L317.43,13.57L318.26,13.57L318.26,34.79L320.75,35.03L320.75,37.85L321.57,37.85L321.57,36.45L322.4,36.45L322.4,35.23L323.23,35.23L323.23,38.5L324.06,38.5L324.06,42.08L324.88,42.08L324.88,43.26L326.54,43.6L326.54,42.68L328.19,42.33L328.19,38.39L329.02,38.39L329.02,30.65L329.85,30.65L329.85,41.24L333.16,41.77L333.16,42.73L333.99,42.73L333.99,41.31L336.47,41.85L336.47,39.24L338.13,39.3L338.13,40.97L338.95,40.97L338.95,36.62L339.78,36.62L339.78,41.48L341.44,41.85L341.44,42.58L343.09,41.96L343.09,40.04L343.92,40.04L343.92,42.51L345.57,41.82L345.57,41.12L347.23,40.82L347.23,38.84L348.06,38.84L348.06,41.35L348.89,41.35L348.89,39.89L350.54,40.42L350.54,42.75L351.37,42.75L351.37,41.56L352.2,41.56L352.2,42.39L353.02,42.39L353.02,40.37L353.85,40.37L353.85,42.86L354.68,42.86L354.68,37.48L355.51,37.48L355.51,41.77L356.33,41.77L356.33,38.16L357.16,38.16L357.16,44.11L357.99,44.11L357.99,39.44L358.82,39.44L358.82,44.26L359.64,44.26L359.64,39.22L360.47,39.22L360.47,43.67L361.3,43.67L361.3,41.04L362.13,41.04L362.13,41.89L362.96,41.89L362.96,39.32L363.78,39.32L363.78,43.88L365.44,44.61L365.44,43.33L366.27,43.33L366.27,45.73L367.09,45.73L367.09,33.25L367.92,33.25L367.92,39.34L368.75,39.34L368.75,46.64L369.58,46.64L369.58,44.15L370.4,44.15L370.4,43.19L371.23,43.19L371.23,45.22L372.06,45.22L372.06,44.36L375.37,44.4L375.37,43.53L376.2,43.53L376.2,41.88L377.03,41.88L377.03,40.13L378.68,40.23L378.68,44.17L379.51,44.17L379.51,45.15L381.99,44.77L381.99,43.86L383.65,44.39L383.65,42.74L384.47,42.74L384.47,46.51L385.3,46.51L385.3,34.55L386.13,34.55L386.13,44.07L386.96,44.07L386.96,44.91L387.78,44.91L387.78,47.01L389.44,46.44L389.44,45.78L390.27,45.78L390.27,45L391.92,45.51L391.92,37.86L393.58,37.26L393.58,48.54L394.41,48.54L394.41,45.83L395.23,45.83L395.23,49.58L396.06,49.58L396.06,45.01L396.89,45.01L396.89,46.05L397.72,46.05L397.72,48.35L401.03,47.98L401.03,47.03L401.85,47.03L401.85,44.1L402.68,44.1L402.68,41.93L404.34,42.19L404.34,46.42L405.17,46.42L405.17,47.63L405.99,47.63L405.99,45.98L407.65,46.37L407.65,45.3L409.3,45.18L409.3,46.3L410.13,46.3L410.13,45.26L411.79,45.58L411.79,47.56L413.44,48.22L413.44,48.44L414.27,48.44L414.27,47.43L415.1,47.43L415.1,45L416.75,45.17L416.75,36.5L417.58,36.5L417.58,44.91L418.41,44.91L418.41,47.74L419.24,47.74L419.24,49.15L420.89,49.75L420.89,48.27L423.37,48.79L423.37,47.33L424.2,47.33L424.2,48.32L426.68,48.32L426.68,49.15L428.34,48.45L428.34,48.29L431.65,47.9L431.65,48.88L433.31,49.29L433.31,49.64L434.13,49.64L434.13,46.56L434.96,46.56L434.96,48.27L436.62,47.98L436.62,46.66L437.44,46.66L437.44,44.52L438.27,44.52L438.27,47.98L439.1,47.98L439.1,49.43L442.41,49.2L442.41,49.81L444.06,49.07L444.06,48.09L444.89,48.09L444.89,51.09L445.72,51.09L445.72,49.7L446.55,49.7L446.55,48.65L451.51,48.66L451.51,49.63L452.34,49.63L452.34,48.68L453.17,48.68L453.17,50.11L454.82,49.9L454.82,49.24L457.31,49.36L457.31,46.19L458.13,46.19L458.13,47.43L459.79,46.95L459.79,49.6L463.1,49.21L463.1,48.34L463.93,48.34L463.93,36.73L464.76,36.73L464.76,47.31L465.58,47.31L465.58,44.02L466.41,44.02L466.41,37.09L467.24,37.09L467.24,42.23L468.07,42.23L468.07,37.08L468.89,37.08L468.89,46.21L470.55,45.89L470.55,34.56L471.38,34.56L471.38,40.69L472.2,40.69L472.2,37.53L473.03,37.53L473.03,46.6L473.86,46.6L473.86,40.38L474.69,40.38L474.69,39.09L475.51,39.09L475.51,44.94L477.17,44.59L477.17,37.41L478,37.41L478,38.31L479.65,38.66L479.65,39.77L480.48,39.77L480.48,38.04L481.31,38.04L481.31,44.39L482.14,44.39L482.14,41.82L482.96,41.82L482.96,36.57L483.79,36.57L483.79,43.29L484.62,43.29L484.62,33.98L485.45,33.98L485.45,41.12L486.27,41.12L486.27,37.19L487.1,37.19L487.1,44.34L487.93,44.34L487.93,45.91L488.76,45.91L488.76,35.91L489.58,35.91L489.58,44.39L490.41,44.39L490.41,48.2L493.72,48.72L493.72,49.33L498.69,49.22L498.69,50.07L500.34,50.37L500.34,49.5L502,49.15L502,50.16L502.83,50.16L502.83,48.8L503.65,48.8L503.65,50.05L505.31,49.77L505.31,51.5L506.97,51.02L506.97,50.13L511.93,49.66L511.93,50.83L513.59,50.59L513.59,51.37L514.41,51.37L514.41,47.5L515.24,47.5L515.24,51.45L516.07,51.45L516.07,50.54L516.9,50.54L516.9,49.67L518.55,50.11L518.55,51.89L521.86,51.54L521.86,50.83L523.52,51.37L523.52,50.3L525.17,50.71L525.17,51.83L526,51.83L526,50.37L526.83,50.37L526.83,51.68L528.48,51.33L528.48,42.82L529.31,42.82L529.31,51.35L530.14,51.35L530.14,49.37L531.79,49.46L531.79,51.6L534.28,50.97L534.28,50.83L536.76,51.1L536.76,48.1L537.59,48.1L537.59,51.37L540.07,51.42L540.07,52.87L541.73,52.16L541.73,51.8L543.38,51.9L543.38,50.92L545.04,51.21L545.04,52.09L545.86,52.09L545.86,52.93L546.69,52.93L546.69,51.99L550,52.54L550,51.06L550.83,51.06L550.83,52.28L551.66,52.28L551.66,51.49L553.31,52.15L553.31,52.39L554.97,53.07L554.97,52.05L558.28,52.08L558.28,51.05L559.11,51.05L559.11,53.24L559.93,53.24L559.93,52.11L562.42,51.99L562.42,52.81L563.25,52.81L563.25,51.77L564.9,51.06L564.9,52.2L567.38,52.43L567.38,53.49L568.21,53.49L568.21,51.81L572.35,52.03L572.35,50.06L573.18,50.06L573.18,50.97L574,50.97L574,52.55L574.83,52.55L574.83,51.69L575.66,51.69L575.66,53L576.49,53L576.49,51.29L577.32,51.29L577.32,48.59L578.97,48.72L578.97,50.05L579.8,50.05L579.8,50.91L582.28,51.23L582.28,52.24L584.76,51.87L584.76,46.68L585.59,46.68L585.59,51L586.42,51L586.42,52.19L588.07,51.96L588.07,51.22L590.56,51.85L590.56,46.92L592.21,47.39L592.21,51.51L593.04,51.51L593.04,52.43L593.87,52.43L593.87,51.09L594.7,51.09L594.7,49.71L596.35,50.32L596.35,49.47L598.83,49.91L598.83,50.77L600.49,50.77L600.49,52.13L602.14,51.64L602.14,51.22L604.63,51.09L604.63,50.54L605.46,50.54L605.46,51.38L607.11,51.49L607.11,52.25L607.94,52.25L607.94,51.32L609.59,50.65L609.59,50.28L611.25,51.01L611.25,51.75L612.08,51.75L612.08,51.42" style="vector-effect: non-scaling-stroke; fill: none; stroke: rgb(0, 154, 250); stroke-opacity: 0.5; stroke-width: 1px; opacity: 1;"/></g><g class="points"/><g class="text"/></g><g class="trace scatter trace23129a" style="stroke-miterlimit: 2; opacity: 1;"><g class="fills"/><g class="errorbars"/><g class="lines"><path class="js-line" d="M17.83,88.97L18.66,88.97L18.66,86.54L21.14,86.67L21.14,87.66L21.97,87.66L21.97,88.55L22.79,88.55L22.79,87.02L23.62,87.02L23.62,85.91L24.45,85.91L24.45,86.93L25.28,86.93L25.28,88.18L26.93,88.76L26.93,86.97L28.59,87.5L28.59,85.83L30.24,86.1L30.24,86.82L31.07,86.82L31.07,85.38L31.9,85.38L31.9,91.34L32.73,91.34L32.73,86.43L33.55,86.43L33.55,87.37L34.38,87.37L34.38,85.95L35.21,85.95L35.21,88.49L36.86,88.18L36.86,86.43L37.69,86.43L37.69,91.63L38.52,91.63L38.52,86.68L39.35,86.68L39.35,91.57L40.17,91.57L40.17,87.37L41,87.37L41,88.17L42.66,87.6L42.66,88.98L43.48,88.98L43.48,86.11L44.31,86.11L44.31,88.1L45.14,88.1L45.14,85.01L45.97,85.01L45.97,88.71L46.8,88.71L46.8,90.84L47.62,90.84L47.62,86.23L48.45,86.23L48.45,87.71L49.28,87.71L49.28,88.47L50.11,88.47L50.11,85.6L50.93,85.6L50.93,88.39L51.76,88.39L51.76,86.78L52.59,86.78L52.59,89.42L54.24,89.18L54.24,87.95L55.07,87.95L55.07,90.61L55.9,90.61L55.9,87.66L56.73,87.66L56.73,89.21L58.38,88.55L58.38,90.3L59.21,90.3L59.21,84.26L60.04,84.26L60.04,88.74L60.86,88.74L60.86,85.64L61.69,85.64L61.69,88.14L64.18,87.86L64.18,87.23L65,87.23L65,87.99L65.83,87.99L65.83,90.24L66.66,90.24L66.66,87.2L67.49,87.2L67.49,85.25L68.31,85.25L68.31,90.15L69.14,90.15L69.14,89.37L69.97,89.37L69.97,87.3L70.8,87.3L70.8,88.37L72.45,88.04L72.45,86.64L73.28,86.64L73.28,89.27L74.11,89.27L74.11,86.8L75.76,87.4L75.76,82.91L76.59,82.91L76.59,90.19L77.42,90.19L77.42,87.01L78.25,87.01L78.25,90.64L79.07,90.64L79.07,83.71L79.9,83.71L79.9,88.35L80.73,88.35L80.73,86.32L82.38,86.88L82.38,89.06L84.04,88.69L84.04,89.77L84.87,89.77L84.87,85.27L85.69,85.27L85.69,92.36L86.52,92.36L86.52,86.59L87.35,86.59L87.35,89.71L88.18,89.71L88.18,88.31L89,88.31L89,89.88L89.83,89.88L89.83,88.5L90.66,88.5L90.66,89.67L91.49,89.67L91.49,87.14L92.32,87.14L92.32,84.69L93.14,84.69L93.14,89.78L93.97,89.78L93.97,87.84L95.63,88.52L95.63,87.27L96.45,87.27L96.45,89.81L97.28,89.81L97.28,87.2L98.11,87.2L98.11,90.51L99.76,90.02L99.76,88.76L100.59,88.76L100.59,87.31L102.25,87.61L102.25,91.04L103.07,91.04L103.07,87.78L104.73,88.41L104.73,91.22L105.56,91.22L105.56,89.09L106.39,89.09L106.39,90.31L107.21,90.31L107.21,86.18L108.04,86.18L108.04,91.34L108.87,91.34L108.87,90.36L109.7,90.36L109.7,88.35L110.52,88.35L110.52,90.68L112.18,90.26L112.18,92.69L113.01,92.69L113.01,89.29L113.83,89.29L113.83,92.89L114.66,92.89L114.66,91.75L115.49,91.75L115.49,90.84L117.14,90.17L117.14,91.08L119.63,90.49L119.63,91.59L120.46,91.59L120.46,88.7L121.28,88.7L121.28,90.72L122.11,90.72L122.11,89.78L123.77,89.44L123.77,90.77L124.59,90.77L124.59,89.89L127.08,89.78L127.08,88.91L127.9,88.91L127.9,90.69L128.73,90.69L128.73,89.76L130.39,90.45L130.39,91.34L132.04,91.09L132.04,93.46L132.87,93.46L132.87,89.27L134.53,89.68L134.53,88.68L136.18,88.54L136.18,91.08L137.84,91.82L137.84,90.52L139.49,91.1L139.49,93.02L140.32,93.02L140.32,90.16L141.15,90.16L141.15,94.73L141.97,94.73L141.97,89.04L142.8,89.04L142.8,92.78L143.63,92.78L143.63,89.9L144.46,89.9L144.46,92.16L145.28,92.16L145.28,88.32L146.11,88.32L146.11,90.57L146.94,90.57L146.94,92.36L147.77,92.36L147.77,90.22L148.6,90.22L148.6,92.83L149.42,92.83L149.42,90.36L150.25,90.36L150.25,93L151.08,93L151.08,86.86L151.91,86.86L151.91,93.24L152.73,93.24L152.73,91.87L155.22,91.77L155.22,93.88L156.04,93.88L156.04,89.74L156.87,89.74L156.87,91.42L157.7,91.42L157.7,95.5L158.53,95.5L158.53,91.68L159.35,91.68L159.35,94.46L160.18,94.46L160.18,89.24L161.01,89.24L161.01,94.28L161.84,94.28L161.84,92.63L162.67,92.63L162.67,90.36L164.32,90.54L164.32,93.12L165.15,93.12L165.15,90.98L166.8,91.43L166.8,96.52L167.63,96.52L167.63,91.27L168.46,91.27L168.46,92.29L170.11,91.54L170.11,91.48L170.94,91.48L170.94,93.19L171.77,93.19L171.77,89.71L172.6,89.71L172.6,93.26L173.42,93.26L173.42,89.7L174.25,89.7L174.25,91.87L175.08,91.87L175.08,94.18L176.74,94.03L176.74,89.88L177.56,89.88L177.56,91.86L179.22,91.89L179.22,92.85L180.87,92.19L180.87,91.88L182.53,91.19L182.53,96.25L183.36,96.25L183.36,92.53L184.18,92.53L184.18,93.88L185.01,93.88L185.01,91.46L185.84,91.46L185.84,90.34L186.67,90.34L186.67,93.27L187.49,93.27L187.49,94.28L189.15,93.63L189.15,93.12L189.98,93.12L189.98,96.85L190.81,96.85L190.81,93.37L191.63,93.37L191.63,95.55L192.46,95.55L192.46,91.59L193.29,91.59L193.29,95.02L194.12,95.02L194.12,93.58L194.94,93.58L194.94,94.7L195.77,94.7L195.77,96.26L196.6,96.26L196.6,92.72L197.43,92.72L197.43,94.08L198.25,94.08L198.25,89.93L199.08,89.93L199.08,94.05L199.91,94.05L199.91,85.05L200.74,85.05L200.74,90.9L202.39,91.23L202.39,92.73L203.22,92.73L203.22,94.57L204.05,94.57L204.05,92.32L204.88,92.32L204.88,94.92L205.7,94.92L205.7,91.68L206.53,91.68L206.53,94.93L207.36,94.93L207.36,92.48L208.19,92.48L208.19,90.59L209.84,91.34L209.84,89.08L211.5,89.69L211.5,87.37L212.32,87.37L212.32,93.12L213.98,93.34L213.98,96.5L214.81,96.5L214.81,91.48L215.63,91.48L215.63,95.82L216.46,95.82L216.46,90.25L217.29,90.25L217.29,92.93L218.12,92.93L218.12,91.86L218.95,91.86L218.95,90.82L220.6,91.21L220.6,89.74L221.43,89.74L221.43,94.3L222.26,94.3L222.26,90.13L223.91,89.55L223.91,86.17L224.74,86.17L224.74,87.04L225.57,87.04L225.57,82.96L226.39,82.96L226.39,85.36L227.22,85.36L227.22,82.92L229.7,82.84L229.7,87.89L231.36,87.63L231.36,86.04L232.19,86.04L232.19,89.7L233.02,89.7L233.02,87.76L233.84,87.76L233.84,90.4L234.67,90.4L234.67,88.7L235.5,88.7L235.5,89.9L236.33,89.9L236.33,87.14L237.15,87.14L237.15,89.25L238.81,89.3L238.81,88.19L239.64,88.19L239.64,90.16L241.29,89.79L241.29,91.05L242.12,91.05L242.12,89.5L242.95,89.5L242.95,87.56L243.77,87.56L243.77,89.34L244.6,89.34L244.6,85.2L245.43,85.2L245.43,88.52L246.26,88.52L246.26,87.72L247.09,87.72L247.09,91.73L247.91,91.73L247.91,89.91L249.57,89.37L249.57,91.22L250.4,91.22L250.4,89.06L252.05,89.29L252.05,87.12L253.71,86.98L253.71,88.44L254.53,88.44L254.53,65.8L255.36,65.8L255.36,88.46L257.02,88.54L257.02,89.5L257.84,89.5L257.84,90.44L259.5,89.95L259.5,87.02L260.33,87.02L260.33,90.2L261.98,89.94L261.98,92.15L262.81,92.15L262.81,89.93L263.64,89.93L263.64,90.71L264.47,90.71L264.47,83.18L265.29,83.18L265.29,89.78L266.95,90.21L266.95,93.27L267.78,93.27L267.78,90.24L268.6,90.24L268.6,92.41L269.43,92.41L269.43,86.39L270.26,86.39L270.26,91.83L271.09,91.83L271.09,90.84L272.74,90.58L272.74,83.8L273.57,83.8L273.57,86.45L275.22,85.92L275.22,87.04L276.05,87.04L276.05,85.6L276.88,85.6L276.88,86.99L277.71,86.99L277.71,88.99L278.54,88.99L278.54,87.03L279.36,87.03L279.36,85.84L280.19,85.84L280.19,89.25L281.02,89.25L281.02,86.21L281.85,86.21L281.85,85.3L282.67,85.3L282.67,84.03L283.5,84.03L283.5,86.26L285.98,86.33L285.98,87.67L286.81,87.67L286.81,90.25L289.29,90.38L289.29,90.75L290.12,90.75L290.12,91.62L290.95,91.62L290.95,96.64L291.78,96.64L291.78,95.76L292.61,95.76L292.61,93.41L293.43,93.41L293.43,92.29L294.26,92.29L294.26,88.78L295.09,88.78L295.09,94.14L295.92,94.14L295.92,48.82L296.74,48.82L296.74,4.33L297.57,4.33L297.57,74.52L298.4,74.52L298.4,55.97L299.23,55.97L299.23,22.15L300.05,22.15L300.05,67.11L300.88,67.11L300.88,58.39L301.71,58.39L301.71,80.69L302.54,80.69L302.54,83.94L303.36,83.94L303.36,82.39L304.19,82.39L304.19,84.95L305.02,84.95L305.02,80.36L305.85,80.36L305.85,83.29L308.33,83.61L308.33,80.94L309.16,80.94L309.16,83.85L309.99,83.85L309.99,82.59L310.81,82.59L310.81,74.77L311.64,74.77L311.64,83.26L312.47,83.26L312.47,86.12L313.3,86.12L313.3,84.58L314.12,84.58L314.12,75.01L314.95,75.01L314.95,84.45L316.61,84.39L316.61,70.33L317.43,70.33L317.43,77.7L318.26,77.7L318.26,72.39L319.92,72.55L319.92,73.79L321.57,73.9L321.57,75.68L323.23,75.32L323.23,72.8L324.06,72.8L324.06,76.48L324.88,76.48L324.88,73.66L326.54,74.38L326.54,76.27L327.37,76.27L327.37,80.75L328.19,80.75L328.19,78.1L329.02,78.1L329.02,71.08L329.85,71.08L329.85,69.9L330.68,69.9L330.68,75.17L333.16,75.78L333.16,78.92L333.99,78.92L333.99,73.81L334.82,73.81L334.82,75.6L335.64,75.6L335.64,79.82L336.47,79.82L336.47,68.67L337.3,68.67L337.3,56.81L338.13,56.81L338.13,68.75L338.95,68.75L338.95,74.13L340.61,74.77L340.61,78.99L341.44,78.99L341.44,82.79L342.26,82.79L342.26,79.11L343.09,79.11L343.09,75.14L343.92,75.14L343.92,81.21L344.75,81.21L344.75,79.83L345.57,79.83L345.57,82.2L346.4,82.2L346.4,81.27L347.23,81.27L347.23,67.3L348.06,67.3L348.06,77.51L348.89,77.51L348.89,81.58L350.54,81.68L350.54,79.91L351.37,79.91L351.37,82.28L352.2,82.28L352.2,80.64L353.85,80.02L353.85,81.17L355.51,81.37L355.51,79.71L356.33,79.71L356.33,80.83L357.16,80.83L357.16,53.89L357.99,53.89L357.99,78.56L358.82,78.56L358.82,82.01L360.47,81.3L360.47,79.35L361.3,79.35L361.3,80.32L362.96,80.49L362.96,79.25L364.61,78.72L364.61,75.21L365.44,75.21L365.44,62.58L366.27,62.58L366.27,53.84L367.09,53.84L367.09,56.07L367.92,56.07L367.92,55.16L368.75,55.16L368.75,57.22L369.58,57.22L369.58,53.49L371.23,53.67L371.23,52.8L372.06,52.8L372.06,56.11L372.89,56.11L372.89,55.25L374.54,55.61L374.54,56.41L375.37,56.41L375.37,57.69L376.2,57.69L376.2,56.9L377.03,56.9L377.03,56L379.51,55.83L379.51,56.54L380.34,56.54L380.34,55.23L381.16,55.23L381.16,56.62L381.99,56.62L381.99,55.24L382.82,55.24L382.82,57.52L383.65,57.52L383.65,54.25L384.47,54.25L384.47,57.05L385.3,57.05L385.3,58.82L386.96,58.47L386.96,77.04L387.78,77.04L387.78,79.44L389.44,80.02L389.44,68.15L390.27,68.15L390.27,72.37L391.1,72.37L391.1,79.87L391.92,79.87L391.92,75.82L392.75,75.82L392.75,78.24L393.58,78.24L393.58,76.42L394.41,76.42L394.41,79.51L396.06,79.32L396.06,80.24L396.89,80.24L396.89,82.95L398.54,82.68L398.54,82.02L400.2,81.61L400.2,83.22L401.85,82.47L401.85,82.05L402.68,82.05L402.68,83.08L403.51,83.08L403.51,82.11L405.99,82.43L405.99,83.16L406.82,83.16L406.82,81.21L407.65,81.21L407.65,79.47L408.48,79.47L408.48,80.54L409.3,80.54L409.3,78.69L410.13,78.69L410.13,80.26L410.96,80.26L410.96,82.27L411.79,82.27L411.79,84.15L412.61,84.15L412.61,79.82L414.27,80.49L414.27,81.9L415.1,81.9L415.1,77.34L415.92,77.34L415.92,80.74L416.75,80.74L416.75,55.85L417.58,55.85L417.58,83.43L418.41,83.43L418.41,85.63L419.24,85.63L419.24,87.4L420.06,87.4L420.06,84.95L420.89,84.95L420.89,85.83L421.72,85.83L421.72,81.42L422.55,81.42L422.55,82.62L423.37,82.62L423.37,84.33L425.86,84.57L425.86,85.6L426.68,85.6L426.68,82.63L428.34,82.39L428.34,84.65L430.82,84.65L430.82,86.08L431.65,86.08L431.65,83.25L432.48,83.25L432.48,85.7L433.31,85.7L433.31,81.84L434.13,81.84L434.13,83.32L435.79,83.34L435.79,85.73L437.44,86.35L437.44,85.08L438.27,85.08L438.27,86.13L439.1,86.13L439.1,84.6L440.75,84.82L440.75,82.07L441.58,82.07L441.58,86.04L442.41,86.04L442.41,84.46L444.06,84.87L444.06,87.51L445.72,87.87L445.72,86.11L446.55,86.11L446.55,83.15L448.2,83.82L448.2,89.84L449.03,89.84L449.03,88.91L449.86,88.91L449.86,95.95L450.69,95.95L450.69,89.63L451.51,89.63L451.51,92.49L453.17,92.1L453.17,91.73L454,91.73L454,93.41L454.82,93.41L454.82,90.9L456.48,90.29L456.48,92.08L458.96,92.81L458.96,89.46L459.79,89.46L459.79,93.29L460.62,93.29L460.62,88.9L461.44,88.9L461.44,93.69L462.27,93.69L462.27,91.14L463.1,91.14L463.1,93.69L464.76,93.23L464.76,94.65L465.58,94.65L465.58,93.18L467.24,92.72L467.24,92.23L468.89,92.12L468.89,91.32L470.55,91.58L470.55,99.47L471.38,99.47L471.38,92.97L472.2,92.97L472.2,95.29L473.03,95.29L473.03,97.62L473.86,97.62L473.86,99.94L474.69,99.94L474.69,97.69L475.51,97.69L475.51,99.43L477.17,99.69L477.17,97.52L478,97.52L478,99.32L479.65,98.77L479.65,98.07L482.96,98.58L482.96,101.89L483.79,101.89L483.79,98.68L484.62,98.68L484.62,100.06L485.45,100.06L485.45,99L487.93,98.56L487.93,99.57L489.58,100.09L489.58,96.35L490.41,96.35L490.41,94.26L493.72,94.95L493.72,93.76L494.55,93.76L494.55,97.42L495.38,97.42L495.38,99.73L496.21,99.73L496.21,97.96L497.86,97.59L497.86,95.41L499.52,95.1L499.52,96.56L500.34,96.56L500.34,74.66L501.17,74.66L501.17,76.05L502,76.05L502,94.66L502.83,94.66L502.83,96.7L503.65,96.7L503.65,98.66L504.48,98.66L504.48,100.38L505.31,100.38L505.31,99.05L506.14,99.05L506.14,97.58L507.79,97.77L507.79,100.05L508.62,100.05L508.62,96.94L509.45,96.94L509.45,91.55L510.28,91.55L510.28,100.54L511.1,100.54L511.1,97.78L511.93,97.78L511.93,99.38L514.41,99.1L514.41,95.92L515.24,95.92L515.24,98.17L516.07,98.17L516.07,100.95L516.9,100.95L516.9,98.82L517.72,98.82L517.72,100.92L518.55,100.92L518.55,98.33L520.21,98.04L520.21,94.18L521.04,94.18L521.04,95.28L523.52,95.25L523.52,95.78L524.35,95.78L524.35,98.13L525.17,98.13L525.17,99.01L526,99.01L526,100.55L526.83,100.55L526.83,101.57L527.66,101.57L527.66,97.98L528.48,97.98L528.48,99.24L530.14,99.11L530.14,98.14L531.79,97.42L531.79,95.25L532.62,95.25L532.62,99.83L534.28,99.71L534.28,96.12L535.93,96.81L535.93,98.11L536.76,98.11L536.76,99.81L538.42,99.23L538.42,96.37L539.24,96.37L539.24,99.68L540.07,99.68L540.07,101.32L540.9,101.32L540.9,99.93L544.21,100.54L544.21,100.87L545.86,100.64L545.86,98.36L547.52,97.63L547.52,95.33L548.35,95.33L548.35,99.83L549.18,99.83L549.18,97.22L550,97.22L550,94.87L550.83,94.87L550.83,98.43L551.66,98.43L551.66,100.5L552.49,100.5L552.49,96.32L553.31,96.32L553.31,100.04L554.14,100.04L554.14,100.92L554.97,100.92L554.97,99.66L556.62,100L556.62,97.8L557.45,97.8L557.45,99.44L558.28,99.44L558.28,98.03L559.93,98.1L559.93,100.1L561.59,99.6L561.59,98.02L563.25,97.84L563.25,100.91L564.07,100.91L564.07,98.96L565.73,99.51L565.73,101.44L566.56,101.44L566.56,99.75L567.38,99.75L567.38,95.67L568.21,95.67L568.21,100.03L569.04,100.03L569.04,97.41L569.87,97.41L569.87,99.06L570.69,99.06L570.69,100.19L571.52,100.19L571.52,101.11L572.35,101.11L572.35,99.83L574,100.54L574,102L574.83,102L574.83,95.64L576.49,96.16L576.49,93.76L577.32,93.76L577.32,95.46L578.14,95.46L578.14,96.76L578.97,96.76L578.97,97.85L579.8,97.85L579.8,99.94L580.63,99.94L580.63,101.5L581.45,101.5L581.45,97.09L582.28,97.09L582.28,95.99L583.94,96.72L583.94,95.44L584.76,95.44L584.76,98.2L585.59,98.2L585.59,100.15L588.9,99.91L588.9,98.8L589.73,98.8L589.73,100.43L590.56,100.43L590.56,102.43L592.21,102.5L592.21,99.4L593.04,99.4L593.04,97.28L593.87,97.28L593.87,98.58L595.52,98.93L595.52,100.13L597.18,99.72L597.18,99.33L598.83,99.8L598.83,101.11L599.66,101.11L599.66,100.23L600.49,100.23L600.49,101.18L601.32,101.18L601.32,99.06L602.14,99.06L602.14,102.44L602.97,102.44L602.97,100.89L603.8,100.89L603.8,94.45L604.63,94.45L604.63,98.98L605.46,98.98L605.46,98.15L606.28,98.15L606.28,95.76L607.11,95.76L607.11,97.85L607.94,97.85L607.94,100.1L608.77,100.1L608.77,99.13L610.42,99.76L610.42,101.96L612.08,101.32L612.08,100.88" style="vector-effect: non-scaling-stroke; fill: none; stroke: rgb(62, 164, 78); stroke-opacity: 0.5; stroke-width: 1px; opacity: 1;"/></g><g class="points"/><g class="text"/></g></g></g><g class="overplot"/><path class="xlines-above crisp" d="M65.15923009623796,271.60582930222154H696.0629921259842" style="fill: none; stroke-width: 1px; stroke: rgb(0, 0, 0); stroke-opacity: 1;"/><path class="ylines-above crisp" d="M65.65923009623796,165.6170732979466V271.10582930222154" style="fill: none; stroke-width: 1px; stroke: rgb(0, 0, 0); stroke-opacity: 1;"/><g class="overlines-above"/><g class="xaxislayer-above"><path class="xtick ticks crisp" d="M0,271.10582930222154v-5" transform="translate(83.15923009623796,0)" style="stroke: rgb(0, 0, 0); stroke-opacity: 1; stroke-width: 1px;"/><path class="xtick ticks crisp" d="M0,271.10582930222154v-5" transform="translate(107.98923009623796,0)" style="stroke: rgb(0, 0, 0); stroke-opacity: 1; stroke-width: 1px;"/><path class="xtick ticks crisp" d="M0,271.10582930222154v-5" transform="translate(132.81923009623796,0)" style="stroke: rgb(0, 0, 0); stroke-opacity: 1; stroke-width: 1px;"/><path class="xtick ticks crisp" d="M0,271.10582930222154v-5" transform="translate(157.64923009623794,0)" style="stroke: rgb(0, 0, 0); stroke-opacity: 1; stroke-width: 1px;"/><path class="xtick ticks crisp" d="M0,271.10582930222154v-5" transform="translate(182.47923009623796,0)" style="stroke: rgb(0, 0, 0); stroke-opacity: 1; stroke-width: 1px;"/><path class="xtick ticks crisp" d="M0,271.10582930222154v-5" transform="translate(207.30923009623797,0)" style="stroke: rgb(0, 0, 0); stroke-opacity: 1; stroke-width: 1px;"/><path class="xtick ticks crisp" d="M0,271.10582930222154v-5" transform="translate(232.13923009623795,0)" style="stroke: rgb(0, 0, 0); stroke-opacity: 1; stroke-width: 1px;"/><path class="xtick ticks crisp" d="M0,271.10582930222154v-5" transform="translate(256.969230096238,0)" style="stroke: rgb(0, 0, 0); stroke-opacity: 1; stroke-width: 1px;"/><path class="xtick ticks crisp" d="M0,271.10582930222154v-5" transform="translate(281.78923009623793,0)" style="stroke: rgb(0, 0, 0); stroke-opacity: 1; stroke-width: 1px;"/><path class="xtick ticks crisp" d="M0,271.10582930222154v-5" transform="translate(306.61923009623797,0)" style="stroke: rgb(0, 0, 0); stroke-opacity: 1; stroke-width: 1px;"/><path class="xtick ticks crisp" d="M0,271.10582930222154v-5" transform="translate(331.449230096238,0)" style="stroke: rgb(0, 0, 0); stroke-opacity: 1; stroke-width: 1px;"/><path class="xtick ticks crisp" d="M0,271.10582930222154v-5" transform="translate(356.27923009623794,0)" style="stroke: rgb(0, 0, 0); stroke-opacity: 1; stroke-width: 1px;"/><path class="xtick ticks crisp" d="M0,271.10582930222154v-5" transform="translate(381.109230096238,0)" style="stroke: rgb(0, 0, 0); stroke-opacity: 1; stroke-width: 1px;"/><path class="xtick ticks crisp" d="M0,271.10582930222154v-5" transform="translate(405.9392300962379,0)" style="stroke: rgb(0, 0, 0); stroke-opacity: 1; stroke-width: 1px;"/><path class="xtick ticks crisp" d="M0,271.10582930222154v-5" transform="translate(430.76923009623795,0)" style="stroke: rgb(0, 0, 0); stroke-opacity: 1; stroke-width: 1px;"/><path class="xtick ticks crisp" d="M0,271.10582930222154v-5" transform="translate(455.599230096238,0)" style="stroke: rgb(0, 0, 0); stroke-opacity: 1; stroke-width: 1px;"/><path class="xtick ticks crisp" d="M0,271.10582930222154v-5" transform="translate(480.4292300962379,0)" style="stroke: rgb(0, 0, 0); stroke-opacity: 1; stroke-width: 1px;"/><path class="xtick ticks crisp" d="M0,271.10582930222154v-5" transform="translate(505.25923009623796,0)" style="stroke: rgb(0, 0, 0); stroke-opacity: 1; stroke-width: 1px;"/><path class="xtick ticks crisp" d="M0,271.10582930222154v-5" transform="translate(530.089230096238,0)" style="stroke: rgb(0, 0, 0); stroke-opacity: 1; stroke-width: 1px;"/><path class="xtick ticks crisp" d="M0,271.10582930222154v-5" transform="translate(554.9192300962379,0)" style="stroke: rgb(0, 0, 0); stroke-opacity: 1; stroke-width: 1px;"/><path class="xtick ticks crisp" d="M0,271.10582930222154v-5" transform="translate(579.749230096238,0)" style="stroke: rgb(0, 0, 0); stroke-opacity: 1; stroke-width: 1px;"/><path class="xtick ticks crisp" d="M0,271.10582930222154v-5" transform="translate(604.5792300962379,0)" style="stroke: rgb(0, 0, 0); stroke-opacity: 1; stroke-width: 1px;"/><path class="xtick ticks crisp" d="M0,271.10582930222154v-5" transform="translate(629.4092300962379,0)" style="stroke: rgb(0, 0, 0); stroke-opacity: 1; stroke-width: 1px;"/><path class="xtick ticks crisp" d="M0,271.10582930222154v-5" transform="translate(654.229230096238,0)" style="stroke: rgb(0, 0, 0); stroke-opacity: 1; stroke-width: 1px;"/><path class="xtick ticks crisp" d="M0,271.10582930222154v-5" transform="translate(679.0592300962379,0)" style="stroke: rgb(0, 0, 0); stroke-opacity: 1; stroke-width: 1px;"/><g class="xtick"><text text-anchor="start" x="0" y="285.3058293022215" transform="translate(83.15923009623796,0) rotate(22,0,279.8058293022215)" style="font-family: sans-serif; font-size: 11px; fill: rgb(0, 0, 0); fill-opacity: 1; white-space: pre; opacity: 1;">2022-10-27 00:00:00</text></g><g class="xtick"><text text-anchor="start" x="0" y="285.3058293022215" style="font-family: sans-serif; font-size: 11px; fill: rgb(0, 0, 0); fill-opacity: 1; white-space: pre; opacity: 1;" transform="translate(107.98923009623796,0) rotate(22,0,279.8058293022215)">01:00:00</text></g><g class="xtick"><text text-anchor="start" x="0" y="285.3058293022215" style="font-family: sans-serif; font-size: 11px; fill: rgb(0, 0, 0); fill-opacity: 1; white-space: pre; opacity: 1;" transform="translate(132.81923009623796,0) rotate(22,0,279.8058293022215)">02:00:00</text></g><g class="xtick"><text text-anchor="start" x="0" y="285.3058293022215" style="font-family: sans-serif; font-size: 11px; fill: rgb(0, 0, 0); fill-opacity: 1; white-space: pre; opacity: 1;" transform="translate(157.64923009623794,0) rotate(22,0,279.8058293022215)">03:00:00</text></g><g class="xtick"><text text-anchor="start" x="0" y="285.3058293022215" style="font-family: sans-serif; font-size: 11px; fill: rgb(0, 0, 0); fill-opacity: 1; white-space: pre; opacity: 1;" transform="translate(182.47923009623796,0) rotate(22,0,279.8058293022215)">04:00:00</text></g><g class="xtick"><text text-anchor="start" x="0" y="285.3058293022215" style="font-family: sans-serif; font-size: 11px; fill: rgb(0, 0, 0); fill-opacity: 1; white-space: pre; opacity: 1;" transform="translate(207.30923009623797,0) rotate(22,0,279.8058293022215)">05:00:00</text></g><g class="xtick"><text text-anchor="start" x="0" y="285.3058293022215" style="font-family: sans-serif; font-size: 11px; fill: rgb(0, 0, 0); fill-opacity: 1; white-space: pre; opacity: 1;" transform="translate(232.13923009623795,0) rotate(22,0,279.8058293022215)">06:00:00</text></g><g class="xtick"><text text-anchor="start" x="0" y="285.3058293022215" style="font-family: sans-serif; font-size: 11px; fill: rgb(0, 0, 0); fill-opacity: 1; white-space: pre; opacity: 1;" transform="translate(256.969230096238,0) rotate(22,0,279.8058293022215)">07:00:00</text></g><g class="xtick"><text text-anchor="start" x="0" y="285.3058293022215" style="font-family: sans-serif; font-size: 11px; fill: rgb(0, 0, 0); fill-opacity: 1; white-space: pre; opacity: 1;" transform="translate(281.78923009623793,0) rotate(22,0,279.8058293022215)">08:00:00</text></g><g class="xtick"><text text-anchor="start" x="0" y="285.3058293022215" style="font-family: sans-serif; font-size: 11px; fill: rgb(0, 0, 0); fill-opacity: 1; white-space: pre; opacity: 1;" transform="translate(306.61923009623797,0) rotate(22,0,279.8058293022215)">09:00:00</text></g><g class="xtick"><text text-anchor="start" x="0" y="285.3058293022215" style="font-family: sans-serif; font-size: 11px; fill: rgb(0, 0, 0); fill-opacity: 1; white-space: pre; opacity: 1;" transform="translate(331.449230096238,0) rotate(22,0,279.8058293022215)">10:00:00</text></g><g class="xtick"><text text-anchor="start" x="0" y="285.3058293022215" style="font-family: sans-serif; font-size: 11px; fill: rgb(0, 0, 0); fill-opacity: 1; white-space: pre; opacity: 1;" transform="translate(356.27923009623794,0) rotate(22,0,279.8058293022215)">11:00:00</text></g><g class="xtick"><text text-anchor="start" x="0" y="285.3058293022215" style="font-family: sans-serif; font-size: 11px; fill: rgb(0, 0, 0); fill-opacity: 1; white-space: pre; opacity: 1;" transform="translate(381.109230096238,0) rotate(22,0,279.8058293022215)">12:00:00</text></g><g class="xtick"><text text-anchor="start" x="0" y="285.3058293022215" style="font-family: sans-serif; font-size: 11px; fill: rgb(0, 0, 0); fill-opacity: 1; white-space: pre; opacity: 1;" transform="translate(405.9392300962379,0) rotate(22,0,279.8058293022215)">13:00:00</text></g><g class="xtick"><text text-anchor="start" x="0" y="285.3058293022215" style="font-family: sans-serif; font-size: 11px; fill: rgb(0, 0, 0); fill-opacity: 1; white-space: pre; opacity: 1;" transform="translate(430.76923009623795,0) rotate(22,0,279.8058293022215)">14:00:00</text></g><g class="xtick"><text text-anchor="start" x="0" y="285.3058293022215" style="font-family: sans-serif; font-size: 11px; fill: rgb(0, 0, 0); fill-opacity: 1; white-space: pre; opacity: 1;" transform="translate(455.599230096238,0) rotate(22,0,279.8058293022215)">15:00:00</text></g><g class="xtick"><text text-anchor="start" x="0" y="285.3058293022215" style="font-family: sans-serif; font-size: 11px; fill: rgb(0, 0, 0); fill-opacity: 1; white-space: pre; opacity: 1;" transform="translate(480.4292300962379,0) rotate(22,0,279.8058293022215)">16:00:00</text></g><g class="xtick"><text text-anchor="start" x="0" y="285.3058293022215" style="font-family: sans-serif; font-size: 11px; fill: rgb(0, 0, 0); fill-opacity: 1; white-space: pre; opacity: 1;" transform="translate(505.25923009623796,0) rotate(22,0,279.8058293022215)">17:00:00</text></g><g class="xtick"><text text-anchor="start" x="0" y="285.3058293022215" style="font-family: sans-serif; font-size: 11px; fill: rgb(0, 0, 0); fill-opacity: 1; white-space: pre; opacity: 1;" transform="translate(530.089230096238,0) rotate(22,0,279.8058293022215)">18:00:00</text></g><g class="xtick"><text text-anchor="start" x="0" y="285.3058293022215" style="font-family: sans-serif; font-size: 11px; fill: rgb(0, 0, 0); fill-opacity: 1; white-space: pre; opacity: 1;" transform="translate(554.9192300962379,0) rotate(22,0,279.8058293022215)">19:00:00</text></g><g class="xtick"><text text-anchor="start" x="0" y="285.3058293022215" style="font-family: sans-serif; font-size: 11px; fill: rgb(0, 0, 0); fill-opacity: 1; white-space: pre; opacity: 1;" transform="translate(579.749230096238,0) rotate(22,0,279.8058293022215)">20:00:00</text></g><g class="xtick"><text text-anchor="start" x="0" y="285.3058293022215" style="font-family: sans-serif; font-size: 11px; fill: rgb(0, 0, 0); fill-opacity: 1; white-space: pre; opacity: 1;" transform="translate(604.5792300962379,0) rotate(22,0,279.8058293022215)">21:00:00</text></g><g class="xtick"><text text-anchor="start" x="0" y="285.3058293022215" style="font-family: sans-serif; font-size: 11px; fill: rgb(0, 0, 0); fill-opacity: 1; white-space: pre; opacity: 1;" transform="translate(629.4092300962379,0) rotate(22,0,279.8058293022215)">22:00:00</text></g><g class="xtick"><text text-anchor="start" x="0" y="285.3058293022215" style="font-family: sans-serif; font-size: 11px; fill: rgb(0, 0, 0); fill-opacity: 1; white-space: pre; opacity: 1;" transform="translate(654.229230096238,0) rotate(22,0,279.8058293022215)">23:00:00</text></g><g class="xtick"><text text-anchor="start" x="0" y="285.3058293022215" style="font-family: sans-serif; font-size: 11px; fill: rgb(0, 0, 0); fill-opacity: 1; white-space: pre; opacity: 0;" transform="translate(679.0592300962379,0) rotate(22,0,279.8058293022215)">2022-10-28 00:00:00</text></g></g><g class="yaxislayer-above"><path class="y2tick ticks crisp" d="M66.15923009623796,0h5" transform="translate(0,236.90707329794662)" style="stroke: rgb(0, 0, 0); stroke-opacity: 1; stroke-width: 1px;"/><path class="y2tick ticks crisp" d="M66.15923009623796,0h5" transform="translate(0,182.3970732979466)" style="stroke: rgb(0, 0, 0); stroke-opacity: 1; stroke-width: 1px;"/><g class="y2tick"><text text-anchor="end" x="62.95923009623796" y="3.8499999999999996" transform="translate(0,236.90707329794662)" style="font-family: sans-serif; font-size: 11px; fill: rgb(0, 0, 0); fill-opacity: 1; white-space: pre; opacity: 1;">10^3</text></g><g class="y2tick"><text text-anchor="end" x="62.95923009623796" y="3.8499999999999996" style="font-family: sans-serif; font-size: 11px; fill: rgb(0, 0, 0); fill-opacity: 1; white-space: pre; opacity: 1;" transform="translate(0,182.3970732979466)">10^4</text></g></g><g class="overaxes-above"/></g></g><g class="polarlayer"/><g class="ternarylayer"/><g class="geolayer"/><g class="funnelarealayer"/><g class="pielayer"/><g class="iciclelayer"/><g class="treemaplayer"/><g class="sunburstlayer"/><g class="glimages"/><defs id="topdefs-e3bf64"><g class="clips"/></defs><g class="layer-above"><g class="imagelayer"/><g class="shapelayer"/></g><g class="infolayer"><g class="g-gtitle"/><g class="g-xtitle"/><g class="g-ytitle"/><g class="g-y2title"/><g class="annotation" data-index="0" style="opacity: 1;"><g class="annotation-text-g" transform="rotate(0,381.1111111111111,28.500000000000007)"><g class="cursor-pointer" transform="translate(258,20)"><rect class="bg" x="0.5" y="0.5" width="245" height="16" style="stroke-width: 1px; stroke: rgb(0, 0, 0); stroke-opacity: 0; fill: rgb(0, 0, 0); fill-opacity: 0;"/><text class="annotation-text" text-anchor="middle" x="122.9169921875" y="12.126953125" style="font-family: sans-serif; font-size: 11px; fill: rgb(0, 0, 0); fill-opacity: 1; white-space: pre;">2022-10-27 | mdt | compute | l_open | unit/second</text></g></g></g><g class="annotation" data-index="1" style="opacity: 1;"><g class="annotation-text-g" transform="rotate(0,381.1111111111111,160.74096753338938)"><g class="cursor-pointer" transform="translate(258,152)"><rect class="bg" x="0.5" y="0.5" width="246" height="16" style="stroke-width: 1px; stroke: rgb(0, 0, 0); stroke-opacity: 0; fill: rgb(0, 0, 0); fill-opacity: 0;"/><text class="annotation-text" text-anchor="middle" x="123.5234375" y="12.126953125" style="font-family: sans-serif; font-size: 11px; fill: rgb(0, 0, 0); fill-opacity: 1; white-space: pre;">2022-10-27 | mdt | compute | l_close | unit/second</text></g></g></g></g></svg>