<svg class="main-svg" xmlns="http://www.w3.org/2000/svg" xmlns:xlink="http://www.w3.org/1999/xlink" width="720" height="400" style=""><rect x="0" y="0" width="720" height="400" style="fill: rgb(255, 255, 255); fill-opacity: 1;"/><defs id="defs-b2ef5b"><g class="clips"><clipPath id="clipb2ef5bxyplot" class="plotclip"><rect width="623.2370953630796" height="124.01905816369495"/></clipPath><clipPath id="clipb2ef5bxy2plot" class="plotclip"><rect width="623.2370953630796" height="124.01905816369495"/></clipPath><clipPath class="axesclip" id="clipb2ef5bx"><rect x="92.82589676290463" y="0" width="623.2370953630796" height="400"/></clipPath><clipPath class="axesclip" id="clipb2ef5by"><rect x="0" y="36.043307086614206" width="720" height="124.01905816369495"/></clipPath><clipPath class="axesclip" id="clipb2ef5bxy"><rect x="92.82589676290463" y="36.043307086614206" width="623.2370953630796" height="124.01905816369495"/></clipPath><clipPath class="axesclip" id="clipb2ef5by2"><rect x="0" y="192.14897942353753" width="720" height="124.01905816369495"/></clipPath><clipPath class="axesclip" id="clipb2ef5bxy2"><rect x="92.82589676290463" y="192.14897942353753" width="623.2370953630796" height="124.01905816369495"/></clipPath></g><g class="gradients"/><g class="patterns"/></defs><g class="bglayer"/><g class="layer-below"><g class="imagelayer"/><g class="shapelayer"/></g><g class="cartesianlayer"><g class="subplot xy"><g class="layer-subplot"><g class="shapelayer"/><g class="imagelayer"/></g><g class="gridlayer"><g class="x"><path class="xgrid crisp" transform="translate(110.46589676290463,0)" d="M0,36.043307086614206v124.01905816369495" style="stroke: rgb(0, 0, 0); stroke-opacity: 0.1; stroke-width: 0.5px;"/><path class="xgrid crisp" transform="translate(134.96589676290463,0)" d="M0,36.043307086614206v124.01905816369495" style="stroke: rgb(0, 0, 0); stroke-opacity: 0.1; stroke-width: 0.5px;"/><path class="xgrid crisp" transform="translate(159.46589676290463,0)" d="M0,36.043307086614206v124.01905816369495" style="stroke: rgb(0, 0, 0); stroke-opacity: 0.1; stroke-width: 0.5px;"/><path class="xgrid crisp" transform="translate(183.95589676290462,0)" d="M0,36.043307086614206v124.01905816369495" style="stroke: rgb(0, 0, 0); stroke-opacity: 0.1; stroke-width: 0.5px;"/><path class="xgrid crisp" transform="translate(208.45589676290462,0)" d="M0,36.043307086614206v124.01905816369495" style="stroke: rgb(0, 0, 0); stroke-opacity: 0.1; stroke-width: 0.5px;"/><path class="xgrid crisp" transform="translate(232.95589676290462,0)" d="M0,36.043307086614206v124.01905816369495" style="stroke: rgb(0, 0, 0); stroke-opacity: 0.1; stroke-width: 0.5px;"/><path class="xgrid crisp" transform="translate(257.4558967629046,0)" d="M0,36.043307086614206v124.01905816369495" style="stroke: rgb(0, 0, 0); stroke-opacity: 0.1; stroke-width: 0.5px;"/><path class="xgrid crisp" transform="translate(281.9558967629046,0)" d="M0,36.043307086614206v124.01905816369495" style="stroke: rgb(0, 0, 0); stroke-opacity: 0.1; stroke-width: 0.5px;"/><path class="xgrid crisp" transform="translate(306.4558967629046,0)" d="M0,36.043307086614206v124.01905816369495" style="stroke: rgb(0, 0, 0); stroke-opacity: 0.1; stroke-width: 0.5px;"/><path class="xgrid crisp" transform="translate(330.9458967629046,0)" d="M0,36.043307086614206v124.01905816369495" style="stroke: rgb(0, 0, 0); stroke-opacity: 0.1; stroke-width: 0.5px;"/><path class="xgrid crisp" transform="translate(355.4458967629046,0)" d="M0,36.043307086614206v124.01905816369495" style="stroke: rgb(0, 0, 0); stroke-opacity: 0.1; stroke-width: 0.5px;"/><path class="xgrid crisp" transform="translate(379.9458967629046,0)" d="M0,36.043307086614206v124.01905816369495" style="stroke: rgb(0, 0, 0); stroke-opacity: 0.1; stroke-width: 0.5px;"/><path class="xgrid crisp" transform="translate(404.4458967629046,0)" d="M0,36.043307086614206v124.01905816369495" style="stroke: rgb(0, 0, 0); stroke-opacity: 0.1; stroke-width: 0.5px;"/><path class="xgrid crisp" transform="translate(428.9458967629046,0)" d="M0,36.043307086614206v124.01905816369495" style="stroke: rgb(0, 0, 0); stroke-opacity: 0.1; stroke-width: 0.5px;"/><path class="xgrid crisp" transform="translate(453.4458967629046,0)" d="M0,36.043307086614206v124.01905816369495" style="stroke: rgb(0, 0, 0); stroke-opacity: 0.1; stroke-width: 0.5px;"/><path class="xgrid crisp" transform="translate(477.93589676290463,0)" d="M0,36.043307086614206v124.01905816369495" style="stroke: rgb(0, 0, 0); stroke-opacity: 0.1; stroke-width: 0.5px;"/><path class="xgrid crisp" transform="translate(502.43589676290463,0)" d="M0,36.043307086614206v124.01905816369495" style="stroke: rgb(0, 0, 0); stroke-opacity: 0.1; stroke-width: 0.5px;"/><path class="xgrid crisp" transform="translate(526.9358967629047,0)" d="M0,36.043307086614206v124.01905816369495" style="stroke: rgb(0, 0, 0); stroke-opacity: 0.1; stroke-width: 0.5px;"/><path class="xgrid crisp" transform="translate(551.4358967629047,0)" d="M0,36.043307086614206v124.01905816369495" style="stroke: rgb(0, 0, 0); stroke-opacity: 0.1; stroke-width: 0.5px;"/><path class="xgrid crisp" transform="translate(575.9358967629047,0)" d="M0,36.043307086614206v124.01905816369495" style="stroke: rgb(0, 0, 0); stroke-opacity: 0.1; stroke-width: 0.5px;"/><path class="xgrid crisp" transform="translate(600.4358967629047,0)" d="M0,36.043307086614206v124.01905816369495" style="stroke: rgb(0, 0, 0); stroke-opacity: 0.1; stroke-width: 0.5px;"/><path class="xgrid crisp" transform="translate(624.9258967629047,0)" d="M0,36.043307086614206v124.01905816369495" style="stroke: rgb(0, 0, 0); stroke-opacity: 0.1; stroke-width: 0.5px;"/><path class="xgrid crisp" transform="translate(649.4258967629047,0)" d="M0,36.043307086614206v124.01905816369495" style="stroke: rgb(0, 0, 0); stroke-opacity: 0.1; stroke-width: 0.5px;"/><path class="xgrid crisp" transform="translate(673.9258967629047,0)" d="M0,36.043307086614206v124.01905816369495" style="stroke: rgb(0, 0, 0); stroke-opacity: 0.1; stroke-width: 0.5px;"/><path class="xgrid crisp" transform="translate(698.4258967629047,0)" d="M0,36.043307086614206v124.01905816369495" style="stroke: rgb(0, 0, 0); stroke-opacity: 0.1; stroke-width: 0.5px;"/></g><g class="y"><path class="ygrid crisp" transform="translate(0,156.5533070866142)" d="M92.82589676290463,0h623.2370953630796" style="stroke: rgb(0, 0, 0); stroke-opacity: 0.1; stroke-width: 0.5px;"/><path class="ygrid crisp" transform="translate(0,131.7633070866142)" d="M92.82589676290463,0h623.2370953630796" style="stroke: rgb(0, 0, 0); stroke-opacity: 0.1; stroke-width: 0.5px;"/><path class="ygrid crisp" transform="translate(0,106.97330708661421)" d="M92.82589676290463,0h623.2370953630796" style="stroke: rgb(0, 0, 0); stroke-opacity: 0.1; stroke-width: 0.5px;"/><path class="ygrid crisp" transform="translate(0,82.1833070866142)" d="M92.82589676290463,0h623.2370953630796" style="stroke: rgb(0, 0, 0); stroke-opacity: 0.1; stroke-width: 0.5px;"/><path class="ygrid crisp" transform="translate(0,57.39330708661421)" d="M92.82589676290463,0h623.2370953630796" style="stroke: rgb(0, 0, 0); stroke-opacity: 0.1; stroke-width: 0.5px;"/></g></g><g class="zerolinelayer"/><path class="xlines-below"/><path class="ylines-below"/><g class="overlines-below"/><g class="xaxislayer-below"/><g class="yaxislayer-below"/><g class="overaxes-below"/><g class="plot" transform="translate(92.82589676290463,36.043307086614206)" clip-path="url(#clipb2ef5bxyplot)"><g class="scatterlayer mlayer"><g class="trace scatter trace6b8c94" style="stroke-miterlimit: 2; opacity: 1;"><g class="fills"/><g class="errorbars"/><g class="lines"><path class="js-line" d="M17.83,120.51L597.24,120.51" style="vector-effect: non-scaling-stroke; fill: none; stroke: rgb(0, 154, 250); stroke-opacity: 1; stroke-width: 1px; opacity: 1;"/></g><g class="points"/><g class="text"/></g><g class="trace scatter trace5519fc" style="stroke-miterlimit: 2; opacity: 1;"><g class="fills"/><g class="errorbars"/><g class="lines"><path class="js-line" d="M18.34,91.52L156.44,90.73L156.44,90.73L157.16,90.73L297.68,89.93L297.68,89.93L298.42,89.93L434.89,89.17L434.89,89.17L435.66,89.17L567.99,88.42L567.99,88.41L605.52,88.21" style="vector-effect: non-scaling-stroke; fill: none; stroke: rgb(227, 111, 71); stroke-opacity: 1; stroke-width: 1px; opacity: 1;"/></g><g class="points"/><g class="text"/></g><g class="trace scatter tracef7b14f" style="stroke-miterlimit: 2; opacity: 1;"><g class="fills"/><g class="errorbars"/><g class="lines"><path class="js-line" d="M18.34,92.08L153.16,91.33L153.16,91.32L290.37,90.57L290.37,90.56L431.62,89.81L431.62,89.8L567.99,89.05L567.99,89.04L605.52,88.84" style="vector-effect: non-scaling-stroke; fill: none; stroke: rgb(62, 164, 78); stroke-opacity: 1; stroke-width: 1px; opacity: 1;"/></g><g class="points"/><g class="text"/></g><g class="trace scatter trace054836" style="stroke-miterlimit: 2; opacity: 1;"><g class="fills"/><g class="errorbars"/><g class="lines"><path class="js-line" d="M18.45,17.17L368.76,9.03L368.76,9.03L369.53,9.03L443.88,7.37L443.88,7.35L475.73,6.61L475.73,6.59L507.58,5.85L507.58,5.83L539.42,5.09L539.42,5.07L571.3,4.33L571.3,4.31L603.15,3.57L603.15,3.55L605.58,3.51" style="vector-effect: non-scaling-stroke; fill: none; stroke: rgb(195, 113, 210); stroke-opacity: 1; stroke-width: 1px; opacity: 1;"/></g><g class="points"/><g class="text"/></g><g class="trace scatter traceda57b0" style="stroke-miterlimit: 2; opacity: 1;"><g class="fills"/><g class="errorbars"/><g class="lines"><path class="js-line" d="M23.68,120.51L372.8,120.51" style="vector-effect: non-scaling-stroke; fill: none; stroke: rgb(172, 142, 24); stroke-opacity: 1; stroke-width: 1px; opacity: 1;"/></g><g class="points"/><g class="text"/></g><g class="trace scatter tracee33d96" style="stroke-miterlimit: 2; opacity: 1;"><g class="fills"/><g class="errorbars"/><g class="lines"><path class="js-line" d="M23.71,120.51L605.52,120.51" style="vector-effect: non-scaling-stroke; fill: none; stroke: rgb(0, 170, 174); stroke-opacity: 1; stroke-width: 1px; opacity: 1;"/></g><g class="points"/><g class="text"/></g><g class="trace scatter tracee02cea" style="stroke-miterlimit: 2; opacity: 1;"><g class="fills"/><g class="errorbars"/><g class="lines"><path class="js-line" d="M34.11,120.51L593.29,120.51" style="vector-effect: non-scaling-stroke; fill: none; stroke: rgb(237, 94, 147); stroke-opacity: 1; stroke-width: 1px; opacity: 1;"/></g><g class="points"/><g class="text"/></g><g class="trace scatter trace8e052b" style="stroke-miterlimit: 2; opacity: 1;"><g class="fills"/><g class="errorbars"/><g class="lines"><path class="js-line" d="M34.11,120.51L602.2,120.51" style="vector-effect: non-scaling-stroke; fill: none; stroke: rgb(198, 130, 37); stroke-opacity: 1; stroke-width: 1px; opacity: 1;"/></g><g class="points"/><g class="text"/></g><g class="trace scatter tracef86eba" style="stroke-miterlimit: 2; opacity: 1;"><g class="fills"/><g class="errorbars"/><g class="lines"><path class="js-line" d="M34.11,120.51L555.75,120.51" style="vector-effect: non-scaling-stroke; fill: none; stroke: rgb(0, 169, 141); stroke-opacity: 1; stroke-width: 1px; opacity: 1;"/></g><g class="points"/><g class="text"/></g><g class="trace scatter trace5c9bc3" style="stroke-miterlimit: 2; opacity: 1;"><g class="fills"/><g class="errorbars"/><g class="lines"><path class="js-line" d="M34.46,120.51L588.62,120.51" style="vector-effect: non-scaling-stroke; fill: none; stroke: rgb(142, 151, 30); stroke-opacity: 1; stroke-width: 1px; opacity: 1;"/></g><g class="points"/><g class="text"/></g><g class="trace scatter trace401baa" style="stroke-miterlimit: 2; opacity: 1;"><g class="fills"/><g class="errorbars"/><g class="lines"><path class="js-line" d="M60.78,120.51L588.59,120.51" style="vector-effect: non-scaling-stroke; fill: none; stroke: rgb(0, 169, 204); stroke-opacity: 1; stroke-width: 1px; opacity: 1;"/></g><g class="points"/><g class="text"/></g><g class="trace scatter trace309340" style="stroke-miterlimit: 2; opacity: 1;"><g class="fills"/><g class="errorbars"/><g class="lines"><path class="js-line" d="M87.36,120.51L571.56,120.51" style="vector-effect: non-scaling-stroke; fill: none; stroke: rgb(155, 127, 233); stroke-opacity: 1; stroke-width: 1px; opacity: 1;"/></g><g class="points"/><g class="text"/></g></g></g><g class="overplot"/><path class="xlines-above crisp" d="M0,0" style="fill: none;"/><path class="ylines-above crisp" d="M92.32589676290463,36.043307086614206V160.06236525030914" style="fill: none; stroke-width: 1px; stroke: rgb(0, 0, 0); stroke-opacity: 1;"/><g class="overlines-above"/><g class="xaxislayer-above"/><g class="yaxislayer-above"><path class="ytick ticks crisp" d="M92.82589676290463,0h5" transform="translate(0,156.5533070866142)" style="stroke: rgb(0, 0, 0); stroke-opacity: 1; stroke-width: 1px;"/><path class="ytick ticks crisp" d="M92.82589676290463,0h5" transform="translate(0,131.7633070866142)" style="stroke: rgb(0, 0, 0); stroke-opacity: 1; stroke-width: 1px;"/><path class="ytick ticks crisp" d="M92.82589676290463,0h5" transform="translate(0,106.97330708661421)" style="stroke: rgb(0, 0, 0); stroke-opacity: 1; stroke-width: 1px;"/><path class="ytick ticks crisp" d="M92.82589676290463,0h5" transform="translate(0,82.1833070866142)" style="stroke: rgb(0, 0, 0); stroke-opacity: 1; stroke-width: 1px;"/><path class="ytick ticks crisp" d="M92.82589676290463,0h5" transform="translate(0,57.39330708661421)" style="stroke: rgb(0, 0, 0); stroke-opacity: 1; stroke-width: 1px;"/><g class="ytick"><text text-anchor="end" x="89.02589676290464" y="4.8999999999999995" transform="translate(0,156.5533070866142)" style="font-family: sans-serif; font-size: 14px; fill: rgb(0, 0, 0); fill-opacity: 1; white-space: pre; opacity: 1;">0</text></g><g class="ytick"><text text-anchor="end" x="89.02589676290464" y="4.8999999999999995" style="font-family: sans-serif; font-size: 14px; fill: rgb(0, 0, 0); fill-opacity: 1; white-space: pre; opacity: 1;" transform="translate(0,131.7633070866142)">3.00×10⁴</text></g><g class="ytick"><text text-anchor="end" x="89.02589676290464" y="4.8999999999999995" style="font-family: sans-serif; font-size: 14px; fill: rgb(0, 0, 0); fill-opacity: 1; white-space: pre; opacity: 1;" transform="translate(0,106.97330708661421)">6.00×10⁴</text></g><g class="ytick"><text text-anchor="end" x="89.02589676290464" y="4.8999999999999995" style="font-family: sans-serif; font-size: 14px; fill: rgb(0, 0, 0); fill-opacity: 1; white-space: pre; opacity: 1;" transform="translate(0,82.1833070866142)">9.00×10⁴</text></g><g class="ytick"><text text-anchor="end" x="89.02589676290464" y="4.8999999999999995" style="font-family: sans-serif; font-size: 14px; fill: rgb(0, 0, 0); fill-opacity: 1; white-space: pre; opacity: 1;" transform="translate(0,57.39330708661421)">1.20×10⁵</text></g></g><g class="overaxes-above"/></g><g class="subplot xy2"><g class="layer-subplot"><g class="shapelayer"/><g class="imagelayer"/></g><g class="gridlayer"><g class="x"><path class="xgrid crisp" transform="translate(110.46589676290463,0)" d="M0,192.14897942353753v124.01905816369495" style="stroke: rgb(0, 0, 0); stroke-opacity: 0.1; stroke-width: 0.5px;"/><path class="xgrid crisp" transform="translate(134.96589676290463,0)" d="M0,192.14897942353753v124.01905816369495" style="stroke: rgb(0, 0, 0); stroke-opacity: 0.1; stroke-width: 0.5px;"/><path class="xgrid crisp" transform="translate(159.46589676290463,0)" d="M0,192.14897942353753v124.01905816369495" style="stroke: rgb(0, 0, 0); stroke-opacity: 0.1; stroke-width: 0.5px;"/><path class="xgrid crisp" transform="translate(183.95589676290462,0)" d="M0,192.14897942353753v124.01905816369495" style="stroke: rgb(0, 0, 0); stroke-opacity: 0.1; stroke-width: 0.5px;"/><path class="xgrid crisp" transform="translate(208.45589676290462,0)" d="M0,192.14897942353753v124.01905816369495" style="stroke: rgb(0, 0, 0); stroke-opacity: 0.1; stroke-width: 0.5px;"/><path class="xgrid crisp" transform="translate(232.95589676290462,0)" d="M0,192.14897942353753v124.01905816369495" style="stroke: rgb(0, 0, 0); stroke-opacity: 0.1; stroke-width: 0.5px;"/><path class="xgrid crisp" transform="translate(257.4558967629046,0)" d="M0,192.14897942353753v124.01905816369495" style="stroke: rgb(0, 0, 0); stroke-opacity: 0.1; stroke-width: 0.5px;"/><path class="xgrid crisp" transform="translate(281.9558967629046,0)" d="M0,192.14897942353753v124.01905816369495" style="stroke: rgb(0, 0, 0); stroke-opacity: 0.1; stroke-width: 0.5px;"/><path class="xgrid crisp" transform="translate(306.4558967629046,0)" d="M0,192.14897942353753v124.01905816369495" style="stroke: rgb(0, 0, 0); stroke-opacity: 0.1; stroke-width: 0.5px;"/><path class="xgrid crisp" transform="translate(330.9458967629046,0)" d="M0,192.14897942353753v124.01905816369495" style="stroke: rgb(0, 0, 0); stroke-opacity: 0.1; stroke-width: 0.5px;"/><path class="xgrid crisp" transform="translate(355.4458967629046,0)" d="M0,192.14897942353753v124.01905816369495" style="stroke: rgb(0, 0, 0); stroke-opacity: 0.1; stroke-width: 0.5px;"/><path class="xgrid crisp" transform="translate(379.9458967629046,0)" d="M0,192.14897942353753v124.01905816369495" style="stroke: rgb(0, 0, 0); stroke-opacity: 0.1; stroke-width: 0.5px;"/><path class="xgrid crisp" transform="translate(404.4458967629046,0)" d="M0,192.14897942353753v124.01905816369495" style="stroke: rgb(0, 0, 0); stroke-opacity: 0.1; stroke-width: 0.5px;"/><path class="xgrid crisp" transform="translate(428.9458967629046,0)" d="M0,192.14897942353753v124.01905816369495" style="stroke: rgb(0, 0, 0); stroke-opacity: 0.1; stroke-width: 0.5px;"/><path class="xgrid crisp" transform="translate(453.4458967629046,0)" d="M0,192.14897942353753v124.01905816369495" style="stroke: rgb(0, 0, 0); stroke-opacity: 0.1; stroke-width: 0.5px;"/><path class="xgrid crisp" transform="translate(477.93589676290463,0)" d="M0,192.14897942353753v124.01905816369495" style="stroke: rgb(0, 0, 0); stroke-opacity: 0.1; stroke-width: 0.5px;"/><path class="xgrid crisp" transform="translate(502.43589676290463,0)" d="M0,192.14897942353753v124.01905816369495" style="stroke: rgb(0, 0, 0); stroke-opacity: 0.1; stroke-width: 0.5px;"/><path class="xgrid crisp" transform="translate(526.9358967629047,0)" d="M0,192.14897942353753v124.01905816369495" style="stroke: rgb(0, 0, 0); stroke-opacity: 0.1; stroke-width: 0.5px;"/><path class="xgrid crisp" transform="translate(551.4358967629047,0)" d="M0,192.14897942353753v124.01905816369495" style="stroke: rgb(0, 0, 0); stroke-opacity: 0.1; stroke-width: 0.5px;"/><path class="xgrid crisp" transform="translate(575.9358967629047,0)" d="M0,192.14897942353753v124.01905816369495" style="stroke: rgb(0, 0, 0); stroke-opacity: 0.1; stroke-width: 0.5px;"/><path class="xgrid crisp" transform="translate(600.4358967629047,0)" d="M0,192.14897942353753v124.01905816369495" style="stroke: rgb(0, 0, 0); stroke-opacity: 0.1; stroke-width: 0.5px;"/><path class="xgrid crisp" transform="translate(624.9258967629047,0)" d="M0,192.14897942353753v124.01905816369495" style="stroke: rgb(0, 0, 0); stroke-opacity: 0.1; stroke-width: 0.5px;"/><path class="xgrid crisp" transform="translate(649.4258967629047,0)" d="M0,192.14897942353753v124.01905816369495" style="stroke: rgb(0, 0, 0); stroke-opacity: 0.1; stroke-width: 0.5px;"/><path class="xgrid crisp" transform="translate(673.9258967629047,0)" d="M0,192.14897942353753v124.01905816369495" style="stroke: rgb(0, 0, 0); stroke-opacity: 0.1; stroke-width: 0.5px;"/><path class="xgrid crisp" transform="translate(698.4258967629047,0)" d="M0,192.14897942353753v124.01905816369495" style="stroke: rgb(0, 0, 0); stroke-opacity: 0.1; stroke-width: 0.5px;"/></g><g class="y2"><path class="y2grid crisp" transform="translate(0,312.6589794235375)" d="M92.82589676290463,0h623.2370953630796" style="stroke: rgb(0, 0, 0); stroke-opacity: 0.1; stroke-width: 0.5px;"/><path class="y2grid crisp" transform="translate(0,286.0289794235375)" d="M92.82589676290463,0h623.2370953630796" style="stroke: rgb(0, 0, 0); stroke-opacity: 0.1; stroke-width: 0.5px;"/><path class="y2grid crisp" transform="translate(0,259.4089794235375)" d="M92.82589676290463,0h623.2370953630796" style="stroke: rgb(0, 0, 0); stroke-opacity: 0.1; stroke-width: 0.5px;"/><path class="y2grid crisp" transform="translate(0,232.77897942353752)" d="M92.82589676290463,0h623.2370953630796" style="stroke: rgb(0, 0, 0); stroke-opacity: 0.1; stroke-width: 0.5px;"/><path class="y2grid crisp" transform="translate(0,206.15897942353752)" d="M92.82589676290463,0h623.2370953630796" style="stroke: rgb(0, 0, 0); stroke-opacity: 0.1; stroke-width: 0.5px;"/></g></g><g class="zerolinelayer"/><path class="xlines-below"/><path class="ylines-below"/><g class="overlines-below"/><g class="xaxislayer-below"/><g class="yaxislayer-below"/><g class="overaxes-below"/><g class="plot" transform="translate(92.82589676290463,192.14897942353753)" clip-path="url(#clipb2ef5bxy2plot)"><g class="scatterlayer mlayer"><g class="trace scatter trace6d807d" style="stroke-miterlimit: 2; opacity: 1;"><g class="fills"/><g class="errorbars"/><g class="lines"><path class="js-line" d="M17.64,120.51L97.67,120.33L97.67,119.25L103.38,119.34L103.38,120.51L216.89,120.3L216.89,117.97L219.34,117.97L219.34,119.45L220.16,119.45L220.16,120.51L347.55,120.26L347.55,117.48L348.37,117.48L348.37,118.87L349.18,118.87L349.18,120.51L597.43,120.51L597.43,120.51" style="vector-effect: non-scaling-stroke; fill: none; stroke: rgb(0, 154, 250); stroke-opacity: 1; stroke-width: 1px; opacity: 1;"/></g><g class="points"/><g class="text"/></g><g class="trace scatter tracea19021" style="stroke-miterlimit: 2; opacity: 1;"><g class="fills"/><g class="errorbars"/><g class="lines"><path class="js-line" d="M17.64,117.11L18.46,117.11L18.46,96.46L21.72,95.82L21.72,95.62L22.54,95.62L22.54,96.59L23.36,96.59L23.36,95.63L24.17,95.63L24.17,96.78L24.99,96.78L24.99,95.55L26.62,95.76L26.62,96.45L29.07,96.31L29.07,92.57L29.89,92.57L29.89,95.55L31.52,95.75L31.52,96.46L34.79,95.82L34.79,95.34L35.6,95.34L35.6,92.43L36.42,92.43L36.42,95.63L37.24,95.63L37.24,96.78L38.05,96.78L38.05,95.55L39.69,95.76L39.69,96.45L40.5,96.45L40.5,95.35L41.32,95.35L41.32,92.62L42.14,92.62L42.14,95.94L47.04,96.47L47.04,95.43L47.85,95.43L47.85,92.53L48.67,92.53L48.67,95.62L50.3,95.63L50.3,96.78L51.12,96.78L51.12,95.55L53.57,96.29L53.57,92.77L54.39,92.77L54.39,95.37L56.02,95.94L56.02,96.46L56.84,96.46L56.84,95.61L58.47,95.65L58.47,96.76L59.29,96.76L59.29,95.33L60.1,95.33L60.1,92.65L60.92,92.65L60.92,95.57L62.55,95.96L62.55,96.44L65,96.45L65,95.35L65.82,95.35L65.82,92.61L66.64,92.61L66.64,95.61L68.27,95.66L68.27,96.75L69.09,96.75L69.09,95.57L70.72,95.97L70.72,96.42L71.54,96.42L71.54,95.55L72.35,95.55L72.35,92.24L73.17,92.24L73.17,95.96L75.62,95.81L75.62,95.66L76.43,95.66L76.43,96.55L77.25,96.55L77.25,95.37L78.07,95.37L78.07,93.73L78.88,93.73L78.88,94.52L79.7,94.52L79.7,96.56L80.52,96.56L80.52,95.66L81.33,95.66L81.33,96.75L82.15,96.75L82.15,95.65L82.97,95.65L82.97,96.88L84.6,96.34L84.6,91.3L85.42,91.3L85.42,95.64L86.23,95.64L86.23,96.77L87.05,96.77L87.05,95.63L87.87,95.63L87.87,96.78L88.68,96.78L88.68,95.61L90.32,96.11L90.32,91.66L91.13,91.66L91.13,96.79L91.95,96.79L91.95,95.61L92.77,95.61L92.77,96.81L93.58,96.81L93.58,95.59L94.4,95.59L94.4,96.62L95.22,96.62L95.22,95.59L96.03,95.59L96.03,96.44L96.85,96.44L96.85,91.52L97.67,91.52L97.67,96.66L102.57,96.21L102.57,91.67L103.38,91.67L103.38,95.81L104.2,95.81L104.2,96.67L105.83,96.59L105.83,95.63L106.65,95.63L106.65,96.78L107.47,96.78L107.47,95.61L108.28,95.61L108.28,96.6L109.1,96.6L109.1,95.62L109.92,95.62L109.92,96.79L110.73,96.79L110.73,95.61L111.55,95.61L111.55,96.93L113.18,96.54L113.18,95.69L114.82,96.24L114.82,92.7L115.63,92.7L115.63,96.79L116.45,96.79L116.45,95.6L117.27,95.6L117.27,96.76L118.9,96.71L118.9,95.69L119.72,95.69L119.72,96.72L120.53,96.72L120.53,95.22L121.35,95.22L121.35,92.69L122.16,92.69L122.16,96.45L126.25,96.46L126.25,95.18L127.06,95.18L127.06,92.63L127.88,92.63L127.88,96.85L128.7,96.85L128.7,95.98L133.6,96.05L133.6,91.75L134.41,91.75L134.41,96.6L135.23,96.6L135.23,95.78L138.5,96.44L138.5,95.14L139.31,95.14L139.31,92.85L140.13,92.85L140.13,95.95L143.4,96.46L143.4,95.61L145.03,95.65L145.03,96.76L145.85,96.76L145.85,95.64L146.66,95.64L146.66,96.77L147.48,96.77L147.48,95.62L148.3,95.62L148.3,96.59L149.11,96.59L149.11,95.63L149.93,95.63L149.93,96.78L150.75,96.78L150.75,95.39L151.56,95.39L151.56,92.77L152.38,92.77L152.38,95.36L154.01,95.75L154.01,96.46L158.1,96.3L158.1,91.67L158.91,91.67L158.91,96.47L162.18,95.82L162.18,95.61L163.81,96.11L163.81,91.66L164.63,91.66L164.63,96.79L165.45,96.79L165.45,95.56L167.08,95.94L167.08,96.46L169.53,96.46L169.53,95.41L170.34,95.41L170.34,92.57L171.16,92.57L171.16,95.93L176.06,96.44L176.06,91.71L176.88,91.71L176.88,96.3L178.51,95.77L178.51,96.71L179.33,96.71L179.33,95.67L180.14,95.67L180.14,96.54L180.96,96.54L180.96,95.58L182.59,95.18L182.59,92.79L183.41,92.79L183.41,95.98L188.31,96.24L188.31,93.35L189.13,93.35L189.13,94.89L189.94,94.89L189.94,97.05L191.58,97.42L191.58,95.66L192.39,95.66L192.39,96.75L193.21,96.75L193.21,95.57L194.84,95.27L194.84,92.69L195.66,92.69L195.66,95.78L200.56,96.29L200.56,92.75L201.38,92.75L201.38,95.19L202.19,95.19L202.19,95.95L203.83,96.5L203.83,96.81L204.64,96.81L204.64,95.59L205.46,95.59L205.46,96.62L206.28,96.62L206.28,95.44L207.09,95.44L207.09,92.54L207.91,92.54L207.91,95.58L208.73,95.58L208.73,96.63L209.54,96.63L209.54,95.58L210.36,95.58L210.36,96.83L211.18,96.83L211.18,95.57L211.99,95.57L211.99,96.67L212.81,96.67L212.81,93.33L213.63,93.33L213.63,94.61L214.44,94.61L214.44,95.56L215.26,95.56L215.26,96.87L216.08,96.87L216.08,95.96L217.71,96.51L217.71,96.78L218.52,96.78L218.52,95.3L219.34,95.3L219.34,91.57L220.16,91.57L220.16,96.51L222.61,96.49L222.61,95.83L225.06,96.23L225.06,93.91L226.69,94.26L226.69,95.98L228.32,96.41L228.32,95.57L229.14,95.57L229.14,96.64L229.96,96.64L229.96,95.57L230.77,95.57L230.77,96.53L231.59,96.53L231.59,91.43L232.41,91.43L232.41,96.87L233.22,96.87L233.22,95.8L234.86,95.67L234.86,96.57L237.31,95.89L237.31,91.9L238.12,91.9L238.12,96.77L238.94,96.77L238.94,95.77L240.57,96.21L240.57,96.8L241.39,96.8L241.39,95.94L243.84,95.86L243.84,92.51L244.66,92.51L244.66,96L245.47,96L245.47,96.93L246.29,96.93L246.29,95.77L247.92,96.21L247.92,96.78L248.74,96.78L248.74,95.16L249.56,95.16L249.56,92.82L250.37,92.82L250.37,95.81L252.01,95.64L252.01,96.73L254.46,96.04L254.46,95.79L256.09,96.41L256.09,91.72L256.91,91.72L256.91,95.96L258.54,96.67L258.54,97.29L259.36,97.29L259.36,96.14L260.99,96.46L260.99,95.41L261.81,95.41L261.81,92.57L262.62,92.57L262.62,95.93L268.34,96.24L268.34,91.66L269.15,91.66L269.15,97.08L269.97,97.08L269.97,95.96L273.24,96.46L273.24,95.41L274.05,95.41L274.05,92.57L274.87,92.57L274.87,95.93L280.59,95.98L280.59,92.02L281.4,92.02L281.4,96.6L282.22,96.6L282.22,95.74L283.04,95.74L283.04,96.9L283.85,96.9L283.85,96.14L285.49,96.46L285.49,95.25L286.3,95.25L286.3,91.95L287.12,91.95L287.12,96.71L289.57,96.43L289.57,95.95L290.39,95.95L290.39,96.84L291.2,96.84L291.2,95.56L292.02,95.56L292.02,96.53L292.84,96.53L292.84,91.7L293.65,91.7L293.65,96.62L294.47,96.62L294.47,95.81L296.1,95.68L296.1,96.79L296.92,96.79L296.92,95.93L298.55,95.33L298.55,92.85L299.37,92.85L299.37,95.98L301,96.64L301,95.81L302.64,95.64L302.64,96.77L303.45,96.77L303.45,95.62L305.09,96.07L305.09,91.65L305.9,91.65L305.9,95.98L307.54,96.62L307.54,95.78L308.35,95.78L308.35,96.65L310.8,96.01L310.8,92.18L311.62,92.18L311.62,96.3L314.88,96.79L314.88,95.84L316.52,95.83L316.52,96.81L317.33,96.81L317.33,95.98L318.15,95.98L318.15,96.83L318.97,96.83L318.97,95.99L320.6,96.55L320.6,96.94L321.42,96.94L321.42,95.83L323.05,96.35L323.05,92.57L323.87,92.57L323.87,95.84L325.5,95.81L325.5,97.01L326.32,97.01L326.32,95.75L327.95,96.18L327.95,96.7L328.77,96.7L328.77,95.19L329.58,95.19L329.58,92.85L330.4,92.85L330.4,96.02L331.22,96.02L331.22,96.78L332.03,96.78L332.03,95.82L332.85,95.82L332.85,96.93L334.48,96.84L334.48,95.67L335.3,95.67L335.3,91.69L336.12,91.69L336.12,96.2L337.75,96.93L337.75,95.79L338.57,95.79L338.57,97.67L339.38,97.67L339.38,104.05L340.2,104.05L340.2,96.78L341.02,96.78L341.02,95.32L341.83,95.32L341.83,91.79L342.65,91.79L342.65,96.86L343.47,96.86L343.47,102.06L344.28,102.06L344.28,94.57L345.1,94.57L345.1,95.96L346.73,96.67L346.73,96.89L347.55,96.89L347.55,93.81L348.37,93.81L348.37,103.9L349.18,103.9L349.18,107.71L350,107.71L350,101.86L350.82,101.86L350.82,97.96L351.63,97.96L351.63,94.78L352.45,94.78L352.45,97.14L354.9,96.48L354.9,95.93L357.35,95.75L357.35,96.66L358.98,96.66L358.98,95.55L359.8,95.55L359.8,92.44L360.62,92.44L360.62,95.96L364.7,96.53L364.7,101.57L365.51,101.57L365.51,100.76L366.33,100.76L366.33,93.59L367.15,93.59L367.15,95.57L367.96,95.57L367.96,97.92L369.6,97.47L369.6,102.69L370.41,102.69L370.41,94.57L372.05,95.18L372.05,92.59L372.86,92.59L372.86,95.94L376.95,95.96L376.95,96.66L377.76,96.66L377.76,95.26L378.58,95.26L378.58,92.51L379.4,92.51L379.4,95.92L381.03,96.49L381.03,96.93L382.66,96.89L382.66,97.74L383.48,97.74L383.48,96.38L384.3,96.38L384.3,93.66L385.11,93.66L385.11,97.86L385.93,97.86L385.93,96.9L386.75,96.9L386.75,97.79L387.56,97.79L387.56,97.03L390.83,97.14L390.83,93.26L391.65,93.26L391.65,97.34L394.1,97.79L394.1,96.85L396.55,96.64L396.55,94.11L397.36,94.11L397.36,96.13L398.18,96.13L398.18,97.91L399,97.91L399,96.76L400.63,97.1L400.63,97.85L402.26,97.35L402.26,96.67L403.08,96.67L403.08,93.57L403.9,93.57L403.9,97.01L406.35,97.01L406.35,97.84L407.16,97.84L407.16,96.77L408.8,96.23L408.8,93.7L409.61,93.7L409.61,97.06L411.25,97.75L411.25,96.49L415.33,96.6L415.33,85.33L416.14,85.33L416.14,96.7L417.78,96.46L417.78,95.94L422.68,95.95L422.68,96.85L423.49,96.85L423.49,95.82L424.31,95.82L424.31,96.6L425.13,96.6L425.13,95.78L427.58,96.25L427.58,91.63L428.39,91.63L428.39,95.77L430.03,96.51L430.03,96.78L430.84,96.78L430.84,95.62L431.66,95.62L431.66,96.79L432.48,96.79L432.48,95.41L433.29,95.41L433.29,92.55L434.11,92.55L434.11,95.42L434.93,95.42L434.93,96.84L435.74,96.84L435.74,95.98L439.83,96.28L439.83,92.62L440.64,92.62L440.64,95.94L447.18,95.94L447.18,96.66L449.63,96.42L449.63,95.56L450.44,95.56L450.44,96.93L452.89,96.47L452.89,95.93L454.53,96.49L454.53,96.84L455.34,96.84L455.34,95.56L456.16,95.56L456.16,96.75L457.79,96.21L457.79,91.76L458.61,91.76L458.61,96.89L460.24,96.47L460.24,95.73L461.06,95.73L461.06,96.49L462.69,96.85L462.69,95.82L464.32,96.35L464.32,92.58L465.14,92.58L465.14,96.47L466.77,95.82L466.77,95.62L467.59,95.62L467.59,96.59L468.41,96.59L468.41,95.63L470.04,96.3L470.04,91.66L470.86,91.66L470.86,96.79L471.67,96.79L471.67,95.6L472.49,95.6L472.49,96.61L473.31,96.61L473.31,95.56L474.94,95.94L474.94,96.46L475.76,96.46L475.76,95.41L476.57,95.41L476.57,92.56L477.39,92.56L477.39,95.74L481.47,95.75L481.47,96.62L482.29,96.62L482.29,91.59L483.11,91.59L483.11,95.24L483.92,95.24L483.92,96.79L484.74,96.79L484.74,95.6L485.56,95.6L485.56,96.61L486.37,96.61L486.37,95.56L488.82,96.3L488.82,91.67L489.64,91.67L489.64,96.49L491.27,96.63L491.27,95.55L492.91,95.93L492.91,96.49L494.54,96.53L494.54,91.43L495.36,91.43L495.36,96.65L496.17,96.65L496.17,95.56L496.99,95.56L496.99,96.86L497.81,96.86L497.81,95.81L498.62,95.81L498.62,96.6L499.44,96.6L499.44,95.61L501.07,95.22L501.07,92.91L501.89,92.91L501.89,96.44L505.97,96.46L505.97,95.22L506.79,95.22L506.79,91.79L507.61,91.79L507.61,96.57L508.42,96.57L508.42,95.65L509.24,95.65L509.24,96.88L510.87,96.47L510.87,95.82L513.32,96.07L513.32,91.65L514.14,91.65L514.14,95.96L519.04,96.31L519.04,92.57L519.85,92.57L519.85,95.55L521.49,95.75L521.49,96.46L525.57,96.39L525.57,91.38L526.39,91.38L526.39,96.48L528.84,96.48L528.84,95.62L531.29,96.34L531.29,91.62L532.1,91.62L532.1,96.81L532.92,96.81L532.92,95.59L533.74,95.59L533.74,96.62L534.55,96.62L534.55,95.56L536.19,95.94L536.19,96.47L537,96.47L537,95.43L537.82,95.43L537.82,92.53L538.64,92.53L538.64,95.73L541.09,95.82L541.09,95.61L541.9,95.61L541.9,96.6L542.72,96.6L542.72,95.39L543.54,95.39L543.54,92.77L544.35,92.77L544.35,95.37L546.8,95.64L546.8,96.57L547.62,96.57L547.62,95.65L548.44,95.65L548.44,96.76L549.25,96.76L549.25,95.33L550.07,95.33L550.07,92.65L550.89,92.65L550.89,95.55L552.52,95.77L552.52,96.45L554.97,96.44L554.97,95.13L555.79,95.13L555.79,92.65L556.6,92.65L556.6,95.81L558.23,95.66L558.23,96.75L559.05,96.75L559.05,95.55L560.68,95.78L560.68,96.42L561.5,96.42L561.5,95.52L562.32,95.52L562.32,92.45L563.13,92.45L563.13,95.55L563.95,95.55L563.95,96.87L564.77,96.87L564.77,95.61L566.4,95.69L566.4,96.87L568.03,96.29L568.03,92.64L568.85,92.64L568.85,94.36L569.67,94.36L569.67,96.74L570.48,96.74L570.48,95.66L571.3,95.66L571.3,96.75L572.12,96.75L572.12,95.55L574.57,96.07L574.57,91.9L575.38,91.9L575.38,96.52L577.02,96.77L577.02,95.62L577.83,95.62L577.83,96.59L578.65,96.59L578.65,95.63L580.28,96.3L580.28,91.65L581.1,91.65L581.1,96.73L582.73,96.66L582.73,95.77L583.55,95.77L583.55,96.71L584.37,96.71L584.37,95.67L585.18,95.67L585.18,96.54L586,96.54L586,95.08L586.82,95.08L586.82,92.04L587.63,92.04L587.63,96.43L590.08,96.41L590.08,95.55L591.72,95.73L591.72,96.48L594.98,96.85L594.98,95.55L595.8,95.55L595.8,96.68L599.07,96.07L599.07,91.71L599.88,91.71L599.88,96.78L600.7,96.78L600.7,95.56L602.33,95.95L602.33,96.5L603.97,96.61L603.97,95.61L604.78,95.61L604.78,99.3L605.6,99.3L605.6,120.51" style="vector-effect: non-scaling-stroke; fill: none; stroke: rgb(227, 111, 71); stroke-opacity: 1; stroke-width: 1px; opacity: 1;"/></g><g class="points"/><g class="text"/></g><g class="trace scatter trace244e91" style="stroke-miterlimit: 2; opacity: 1;"><g class="fills"/><g class="errorbars"/><g class="lines"><path class="js-line" d="M17.64,117.11L18.46,117.11L18.46,96.46L21.72,95.82L21.72,95.62L22.54,95.62L22.54,96.59L23.36,96.59L23.36,95.63L24.17,95.63L24.17,96.78L24.99,96.78L24.99,95.55L26.62,95.76L26.62,96.45L29.07,96.5L29.07,96.81L29.89,96.81L29.89,95.55L31.52,95.75L31.52,96.46L34.79,95.82L34.79,95.62L35.6,95.62L35.6,96.59L36.42,96.59L36.42,95.63L37.24,95.63L37.24,96.78L38.05,96.78L38.05,95.55L39.69,95.76L39.69,96.45L40.5,96.45L40.5,94.75L41.32,94.75L41.32,88.79L42.14,88.79L42.14,95.94L48.67,96.47L48.67,95.62L50.3,95.63L50.3,96.78L51.12,96.78L51.12,95.55L53.57,96.11L53.57,89.29L54.39,89.29L54.39,94.59L55.2,94.59L55.2,95.94L56.84,96.46L56.84,95.61L58.47,95.65L58.47,96.76L59.29,96.76L59.29,95.64L60.1,95.64L60.1,96.77L60.92,96.77L60.92,95.57L62.55,95.96L62.55,96.44L66.64,96.45L66.64,95.61L68.27,95.66L68.27,96.75L69.09,96.75L69.09,95.57L70.72,95.97L70.72,96.42L71.54,96.42L71.54,95.55L72.35,95.55L72.35,96.68L74.8,96.45L74.8,95.81L76.43,95.66L76.43,96.55L77.25,96.55L77.25,95.78L78.07,95.78L78.07,97.75L78.88,97.75L78.88,94.52L79.7,94.52L79.7,96.56L80.52,96.56L80.52,95.66L81.33,95.66L81.33,96.75L82.15,96.75L82.15,95.65L82.97,95.65L82.97,96.88L84.6,96.46L84.6,95.61L86.23,95.64L86.23,96.77L87.05,96.77L87.05,95.63L87.87,95.63L87.87,96.78L88.68,96.78L88.68,95.61L90.32,95.63L90.32,87.71L91.13,87.71L91.13,96.79L91.95,96.79L91.95,95.61L92.77,95.61L92.77,96.81L93.58,96.81L93.58,95.59L94.4,95.59L94.4,96.62L95.22,96.62L95.22,95.59L96.03,95.59L96.03,96.82L96.85,96.82L96.85,95.58L97.67,95.58L97.67,96.66L101.75,96.52L101.75,96.76L102.57,96.76L102.57,95.55L104.2,95.81L104.2,96.67L105.83,96.59L105.83,95.63L106.65,95.63L106.65,96.78L107.47,96.78L107.47,95.61L108.28,95.61L108.28,96.6L109.1,96.6L109.1,95.62L109.92,95.62L109.92,96.79L110.73,96.79L110.73,95.61L111.55,95.61L111.55,96.93L113.18,96.54L113.18,95.69L114,95.69L114,96.87L116.45,96.79L116.45,95.6L117.27,95.6L117.27,96.76L118.9,96.71L118.9,95.69L119.72,95.69L119.72,96.72L120.53,96.72L120.53,95.66L121.35,95.66L121.35,96.7L124.61,96.46L124.61,95.94L127.88,96.5L127.88,96.85L128.7,96.85L128.7,95.98L134.41,95.82L134.41,96.6L135.23,96.6L135.23,95.78L139.31,95.8L139.31,96.62L143.4,96.46L143.4,95.61L145.03,95.65L145.03,96.76L145.85,96.76L145.85,95.64L146.66,95.64L146.66,96.77L147.48,96.77L147.48,95.62L148.3,95.62L148.3,96.59L149.11,96.59L149.11,95.63L149.93,95.63L149.93,96.78L150.75,96.78L150.75,95.63L151.56,95.63L151.56,96.97L152.38,96.97L152.38,95.36L154.01,95.75L154.01,96.46L162.18,95.82L162.18,95.61L163,95.61L163,96.6L163.81,96.6L163.81,95.62L164.63,95.62L164.63,96.79L165.45,96.79L165.45,95.56L167.08,95.94L167.08,96.46L178.51,95.77L178.51,96.71L179.33,96.71L179.33,95.67L180.14,95.67L180.14,96.54L180.96,96.54L180.96,95.58L182.59,95.98L182.59,96.43L187.49,95.78L187.49,96.58L188.31,96.58L188.31,97.45L189.13,97.45L189.13,94.89L189.94,94.89L189.94,97.05L191.58,97.42L191.58,95.66L192.39,95.66L192.39,96.75L193.21,96.75L193.21,95.57L194.84,95.97L194.84,96.43L200.56,96.52L200.56,96.95L201.38,96.95L201.38,95.19L202.19,95.19L202.19,95.95L203.83,96.5L203.83,96.81L204.64,96.81L204.64,95.59L205.46,95.59L205.46,96.62L206.28,96.62L206.28,95.59L207.09,95.59L207.09,96.82L207.91,96.82L207.91,95.58L208.73,95.58L208.73,96.63L209.54,96.63L209.54,95.58L210.36,95.58L210.36,96.83L211.18,96.83L211.18,95.57L211.99,95.57L211.99,97.01L213.63,97.43L213.63,94.61L214.44,94.61L214.44,95.56L215.26,95.56L215.26,97.01L216.89,97.66L216.89,94.67L217.71,94.67L217.71,96.78L218.52,96.78L218.52,95.55L220.16,95.76L220.16,96.51L221.79,96.83L221.79,95.99L224.24,95.8L224.24,96.67L225.06,96.67L225.06,97.9L225.87,97.9L225.87,94.26L226.69,94.26L226.69,95.98L228.32,96.41L228.32,95.57L229.14,95.57L229.14,96.64L229.96,96.64L229.96,95.57L230.77,95.57L230.77,96.84L231.59,96.84L231.59,95.56L232.41,95.56L232.41,96.87L233.22,96.87L233.22,95.8L234.86,95.67L234.86,96.57L237.31,96.55L237.31,95.68L238.12,95.68L238.12,96.77L238.94,96.77L238.94,95.77L240.57,96.21L240.57,96.8L241.39,96.8L241.39,95.94L245.47,96L245.47,96.93L246.29,96.93L246.29,95.77L247.92,96.21L247.92,96.78L248.74,96.78L248.74,95.79L249.56,95.79L249.56,96.63L250.37,96.63L250.37,95.81L252.01,95.64L252.01,96.73L254.46,96.04L254.46,95.79L255.27,95.79L255.27,96.83L256.09,96.83L256.09,95.74L257.72,95.96L257.72,96.67L259.36,97.29L259.36,96.14L265.89,96.66L265.89,95.67L267.52,96.2L267.52,96.59L268.34,96.59L268.34,95.76L269.15,95.76L269.15,98.29L269.97,98.29L269.97,94.73L270.79,94.73L270.79,96.47L282.22,96.6L282.22,95.74L283.04,95.74L283.04,96.9L283.85,96.9L283.85,96.14L287.12,95.81L287.12,96.71L289.57,96.43L289.57,95.95L290.39,95.95L290.39,96.84L291.2,96.84L291.2,95.56L292.02,95.56L292.02,96.85L292.84,96.85L292.84,95.55L293.65,95.55L293.65,96.88L294.47,96.88L294.47,95.81L296.1,95.68L296.1,96.79L296.92,96.79L296.92,95.93L301,96.64L301,95.81L302.64,95.64L302.64,96.77L303.45,96.77L303.45,95.62L304.27,95.62L304.27,96.59L305.09,96.59L305.09,95.57L306.72,95.98L306.72,96.62L307.54,96.62L307.54,95.78L308.35,95.78L308.35,96.65L314.88,96.79L314.88,95.84L316.52,95.83L316.52,96.81L317.33,96.81L317.33,95.98L318.15,95.98L318.15,96.83L318.97,96.83L318.97,95.99L320.6,96.55L320.6,96.94L321.42,96.94L321.42,95.83L322.23,95.83L322.23,96.88L323.87,96.47L323.87,95.84L325.5,95.81L325.5,97.01L326.32,97.01L326.32,95.75L327.95,96.18L327.95,96.7L328.77,96.7L328.77,95.7L329.58,95.7L329.58,96.78L330.4,96.78L330.4,96.02L331.22,96.02L331.22,96.78L332.03,96.78L332.03,95.82L332.85,95.82L332.85,96.93L334.48,96.84L334.48,96.05L336.93,96.2L336.93,96.93L337.75,96.93L337.75,95.79L338.57,95.79L338.57,97.67L339.38,97.67L339.38,104.05L340.2,104.05L340.2,96.78L341.02,96.78L341.02,95.56L342.65,95.98L342.65,96.86L343.47,96.86L343.47,102.06L344.28,102.06L344.28,94.57L345.1,94.57L345.1,95.96L346.73,96.67L346.73,97.16L347.55,97.16L347.55,97.98L348.37,97.98L348.37,103.9L349.18,103.9L349.18,107.71L350,107.71L350,101.86L350.82,101.86L350.82,97.96L351.63,97.96L351.63,94.78L352.45,94.78L352.45,97.14L354.9,96.48L354.9,95.93L357.35,95.75L357.35,96.66L358.98,96.66L358.98,95.55L359.8,95.55L359.8,96.88L360.62,96.88L360.62,95.96L364.7,96.53L364.7,101.57L366.33,101.02L366.33,97.76L367.15,97.76L367.15,95.57L367.96,95.57L367.96,97.92L369.6,97.47L369.6,102.69L370.41,102.69L370.41,94.57L371.23,94.57L371.23,95.75L376.95,95.96L376.95,96.66L377.76,96.66L377.76,95.73L380.21,95.92L380.21,96.49L382.66,96.89L382.66,97.74L383.48,97.74L383.48,96.53L384.3,96.53L384.3,97.94L385.93,97.86L385.93,96.9L386.75,96.9L386.75,97.79L387.56,97.79L387.56,97.03L390.01,96.89L390.01,97.8L390.83,97.8L390.83,97.03L393.28,97.05L393.28,97.79L394.1,97.79L394.1,96.85L396.55,97.08L396.55,98.1L397.36,98.1L397.36,96.13L398.18,96.13L398.18,97.91L399,97.91L399,96.76L399.81,96.76L399.81,97.57L400.63,97.57L400.63,101.01L401.45,101.01L401.45,93.71L402.26,93.71L402.26,97.01L406.35,97.01L406.35,97.84L407.16,97.84L407.16,96.77L410.43,97.06L410.43,97.75L411.25,97.75L411.25,96.49L413.69,97.01L413.69,97.36L415.33,97L415.33,97.85L416.14,97.85L416.14,96.7L417.78,96.46L417.78,95.94L422.68,95.95L422.68,96.85L423.49,96.85L423.49,95.82L424.31,95.82L424.31,96.6L425.13,96.6L425.13,95.78L426.76,96.52L426.76,96.77L427.58,96.77L427.58,95.55L429.21,95.77L429.21,96.51L430.84,96.78L430.84,95.62L431.66,95.62L431.66,96.79L432.48,96.79L432.48,95.61L433.29,95.61L433.29,96.79L434.11,96.79L434.11,95.42L434.93,95.42L434.93,96.84L435.74,96.84L435.74,95.98L439.01,96.53L439.01,96.88L440.64,96.46L440.64,95.94L447.18,95.94L447.18,96.66L449.63,96.42L449.63,95.56L450.44,95.56L450.44,96.93L452.89,96.47L452.89,95.93L454.53,96.49L454.53,96.84L455.34,96.84L455.34,95.56L456.16,95.56L456.16,96.75L457.79,96.76L457.79,95.64L458.61,95.64L458.61,96.89L460.24,96.47L460.24,95.73L461.06,95.73L461.06,96.49L462.69,96.85L462.69,95.82L463.51,95.82L463.51,96.67L465.96,96.47L465.96,95.82L467.59,95.62L467.59,96.59L468.41,96.59L468.41,95.63L470.04,95.81L470.04,87.71L470.86,87.71L470.86,96.79L471.67,96.79L471.67,95.6L472.49,95.6L472.49,96.61L473.31,96.61L473.31,95.56L474.94,95.94L474.94,96.46L481.47,95.75L481.47,96.66L483.11,95.99L483.11,95.24L483.92,95.24L483.92,96.79L484.74,96.79L484.74,95.6L485.56,95.6L485.56,96.61L486.37,96.61L486.37,95.56L488.01,95.94L488.01,96.46L491.27,96.63L491.27,95.55L492.91,95.93L492.91,96.49L494.54,96.84L494.54,95.56L495.36,95.56L495.36,96.65L496.17,96.65L496.17,95.56L496.99,95.56L496.99,96.85L497.81,96.85L497.81,95.55L498.62,95.55L498.62,96.87L499.44,96.87L499.44,95.61L501.07,95.69L501.07,96.87L502.71,96.44L502.71,95.76L506.79,95.81L506.79,95.64L507.61,95.64L507.61,96.57L508.42,96.57L508.42,95.65L509.24,95.65L509.24,96.88L510.87,96.47L510.87,95.82L512.5,95.62L512.5,96.59L513.32,96.59L513.32,95.57L514.95,95.96L514.95,96.44L519.04,96.5L519.04,96.81L519.85,96.81L519.85,95.55L521.49,95.75L521.49,96.46L528.84,96.48L528.84,95.62L530.47,95.62L530.47,96.79L531.29,96.79L531.29,95.61L532.1,95.61L532.1,96.81L532.92,96.81L532.92,95.59L533.74,95.59L533.74,96.62L534.55,96.62L534.55,95.56L536.19,95.94L536.19,96.47L541.09,95.82L541.09,95.61L541.9,95.61L541.9,96.6L542.72,96.6L542.72,95.63L543.54,95.63L543.54,96.97L544.35,96.97L544.35,95.37L546.8,95.64L546.8,96.57L547.62,96.57L547.62,95.65L548.44,95.65L548.44,96.76L549.25,96.76L549.25,95.64L550.07,95.64L550.07,96.77L550.89,96.77L550.89,95.55L552.52,95.77L552.52,96.45L557.42,95.81L557.42,95.66L558.23,95.66L558.23,96.75L559.05,96.75L559.05,95.55L560.68,95.78L560.68,96.42L561.5,96.42L561.5,95.56L562.32,95.56L562.32,96.85L563.13,96.85L563.13,95.55L563.95,95.55L563.95,96.87L564.77,96.87L564.77,95.61L566.4,95.69L566.4,96.87L568.85,96.85L568.85,94.36L569.67,94.36L569.67,96.74L570.48,96.74L570.48,95.66L571.3,95.66L571.3,96.75L572.12,96.75L572.12,95.55L574.57,95.7L574.57,87.83L575.38,87.83L575.38,96.52L577.02,96.77L577.02,95.62L577.83,95.62L577.83,96.59L578.65,96.59L578.65,95.63L579.47,95.63L579.47,96.78L580.28,96.78L580.28,95.61L581.1,95.61L581.1,96.73L582.73,96.66L582.73,95.72L583.55,95.72L583.55,96.49L586,96.54L586,95.58L587.63,95.98L587.63,96.43L590.08,96.41L590.08,95.55L591.72,95.73L591.72,96.48L594.98,96.85L594.98,95.55L595.8,95.55L595.8,96.68L599.07,96.59L599.07,95.63L599.88,95.63L599.88,96.78L600.7,96.78L600.7,95.56L602.33,95.95L602.33,96.5L603.97,96.61L603.97,95.61L604.78,95.61L604.78,99.3L605.6,99.3L605.6,120.51" style="vector-effect: non-scaling-stroke; fill: none; stroke: rgb(62, 164, 78); stroke-opacity: 1; stroke-width: 1px; opacity: 1;"/></g><g class="points"/><g class="text"/></g><g class="trace scatter trace571230" style="stroke-miterlimit: 2; opacity: 1;"><g class="fills"/><g class="errorbars"/><g class="lines"><path class="js-line" d="M17.64,119.64L18.46,119.64L18.46,15.85L19.27,15.85L19.27,16.6L22.54,16.7L22.54,15.68L23.36,15.68L23.36,12.35L24.17,12.35L24.17,16.71L27.44,16.6L27.44,15.85L29.07,16.53L29.07,12.35L29.89,12.35L29.89,16.71L31.52,16.6L31.52,15.85L32.34,15.85L32.34,16.6L35.6,16.62L35.6,11.5L36.42,11.5L36.42,16.6L40.5,16.6L40.5,15.74L41.32,15.74L41.32,12.38L42.14,12.38L42.14,16.6L44.59,16.6L44.59,15.85L45.4,15.85L45.4,16.6L47.85,16.6L47.85,12.26L48.67,12.26L48.67,15.86L50.3,16.6L50.3,16.71L53.57,16.6L53.57,11.41L54.39,11.41L54.39,16.6L57.65,16.6L57.65,15.85L58.47,15.85L58.47,16.6L60.1,16.6L60.1,12.27L60.92,12.27L60.92,16.71L64.19,16.69L64.19,15.76L65,15.76L65,16.6L65.82,16.6L65.82,12.27L66.64,12.27L66.64,16.71L68.27,16.68L68.27,15.77L69.09,15.77L69.09,16.71L72.35,16.6L72.35,11.41L73.17,11.41L73.17,16.6L77.25,16.69L77.25,15.72L78.07,15.72L78.07,12.31L78.88,12.31L78.88,16.6L81.33,16.68L81.33,15.77L82.15,15.77L82.15,16.71L84.6,16.6L84.6,12.27L85.42,12.27L85.42,15.85L86.23,15.85L86.23,16.71L90.32,16.58L90.32,11.43L91.13,11.43L91.13,16.71L94.4,16.68L94.4,15.77L95.22,15.77L95.22,16.71L96.85,16.57L96.85,12.31L97.67,12.31L97.67,16.6L98.48,16.6L98.48,15.85L99.3,15.85L99.3,16.71L102.57,16.57L102.57,12.31L103.38,12.31L103.38,16.71L105.02,16.59L105.02,15.86L106.65,16.6L106.65,16.71L109.1,16.6L109.1,12.27L109.92,12.27L109.92,15.85L110.73,15.85L110.73,16.71L114,16.6L114,15.71L114.82,15.71L114.82,12.31L115.63,12.31L115.63,16.71L118.08,16.59L118.08,15.86L119.72,16.6L119.72,16.71L121.35,16.57L121.35,12.31L122.16,12.31L122.16,16.6L122.98,16.6L122.98,15.85L123.8,15.85L123.8,16.71L127.06,16.56L127.06,11.45L127.88,11.45L127.88,16.6L131.15,16.7L131.15,15.86L133.6,16.56L133.6,12.31L134.41,12.31L134.41,16.71L136.05,16.6L136.05,15.85L136.86,15.85L136.86,16.6L139.31,16.56L139.31,12.31L140.13,12.31L140.13,16.71L144.21,16.6L144.21,15.85L145.85,16.57L145.85,12.31L146.66,12.31L146.66,16.6L149.11,16.68L149.11,15.77L149.93,15.77L149.93,16.71L151.56,16.57L151.56,12.31L152.38,12.31L152.38,16.6L153.2,16.6L153.2,15.85L154.01,15.85L154.01,16.71L157.28,16.6L157.28,15.71L158.1,15.71L158.1,12.31L158.91,12.31L158.91,16.71L163.81,16.6L163.81,12.27L164.63,12.27L164.63,15.85L165.45,15.85L165.45,16.6L168.71,16.6L168.71,15.85L170.34,16.57L170.34,12.31L171.16,12.31L171.16,16.6L172.79,16.7L172.79,15.86L174.43,16.6L174.43,16.71L176.06,16.57L176.06,12.31L176.88,12.31L176.88,16.6L177.69,16.6L177.69,15.85L178.51,15.85L178.51,16.71L181.78,16.6L181.78,15.71L182.59,15.71L182.59,12.31L183.41,12.31L183.41,16.71L188.31,16.58L188.31,11.43L189.13,11.43L189.13,16.71L192.39,16.68L192.39,15.77L193.21,15.77L193.21,16.71L194.84,16.57L194.84,12.31L195.66,12.31L195.66,16.6L196.48,16.6L196.48,15.85L197.29,15.85L197.29,16.6L200.56,16.57L200.56,12.29L201.38,12.29L201.38,15.76L202.19,15.76L202.19,16.71L205.46,16.68L205.46,15.77L206.28,15.77L206.28,16.56L207.09,16.56L207.09,12.31L207.91,12.31L207.91,16.71L209.54,16.6L209.54,15.85L210.36,15.85L210.36,16.6L212.81,16.56L212.81,12.31L213.63,12.31L213.63,16.69L214.44,16.69L214.44,15.76L215.26,15.76L215.26,16.73L216.89,17.44L216.89,11.42L217.71,11.42L217.71,16.71L219.34,16.57L219.34,12.31L220.16,12.31L220.16,16.6L220.97,16.6L220.97,15.85L221.79,15.85L221.79,16.71L225.06,16.56L225.06,11.45L225.87,11.45L225.87,16.6L229.14,16.7L229.14,15.86L229.96,15.86L229.96,16.62L230.77,16.62L230.77,17.43L231.59,17.43L231.59,11.43L232.41,11.43L232.41,16.71L237.31,16.6L237.31,12.27L238.12,12.27L238.12,15.87L238.94,15.87L238.94,17.61L239.76,17.61L239.76,18.41L240.57,18.41L240.57,17.44L243.02,16.77L243.02,18.24L243.84,18.24L243.84,12.31L244.66,12.31L244.66,16.73L245.47,16.73L245.47,17.61L246.29,17.61L246.29,18.41L247.11,18.41L247.11,17.44L248.74,17.57L248.74,15.74L249.56,15.74L249.56,13.15L250.37,13.15L250.37,16.71L253.64,16.73L253.64,17.58L256.09,17.54L256.09,12.33L256.91,12.33L256.91,17.55L257.72,17.55L257.72,16.62L258.54,16.62L258.54,18.44L259.36,18.44L259.36,17.57L260.17,17.57L260.17,16.71L261.81,16.57L261.81,12.31L262.62,12.31L262.62,16.71L265.07,16.74L265.07,17.44L266.7,16.73L266.7,17.56L267.52,17.56L267.52,16.56L268.34,16.56L268.34,13.18L269.15,13.18L269.15,17.57L269.97,17.57L269.97,16.71L271.6,16.61L271.6,17.57L272.42,17.57L272.42,16.71L274.05,16.57L274.05,12.31L274.87,12.31L274.87,16.6L278.14,16.61L278.14,17.59L279.77,17.54L279.77,15.83L280.59,15.83L280.59,25.53L281.4,25.53L281.4,17.58L283.04,17.44L283.04,16.73L283.85,16.73L283.85,17.56L284.67,17.56L284.67,16.6L285.49,16.6L285.49,17.54L286.3,17.54L286.3,12.31L287.12,12.31L287.12,16.6L287.94,16.6L287.94,18.55L288.75,18.55L288.75,16.63L289.57,16.63L289.57,18.41L290.39,18.41L290.39,16.71L292.84,16.6L292.84,12.27L293.65,12.27L293.65,16.71L296.92,16.73L296.92,17.56L297.74,17.56L297.74,16.25L298.55,16.25L298.55,5.48L299.37,5.48L299.37,15.87L300.19,15.87L300.19,17.55L301,17.55L301,16.6L304.27,16.64L304.27,12.27L305.9,12.24L305.9,16.71L307.54,16.6L307.54,15.87L308.35,15.87L308.35,17.61L309.17,17.61L309.17,18.47L310.8,19.13L310.8,13.25L311.62,13.25L311.62,17.44L312.44,17.44L312.44,18.62L314.88,18.44L314.88,16.71L317.33,16.58L317.33,14.03L318.15,14.03L318.15,16.73L318.97,16.73L318.97,17.55L319.78,17.55L319.78,16.6L321.42,16.73L321.42,17.55L322.23,17.55L322.23,16.57L323.05,16.57L323.05,12.33L323.87,12.33L323.87,17.55L324.68,17.55L324.68,16.61L325.5,16.61L325.5,17.59L328.77,17.44L328.77,16.64L329.58,16.64L329.58,12.38L330.4,12.38L330.4,17.58L332.03,17.43L332.03,16.73L332.85,16.73L332.85,17.58L335.3,17.55L335.3,13.18L336.12,13.18L336.12,17.61L336.93,17.61L336.93,18.42L337.75,18.42L337.75,17.6L338.57,17.6L338.57,26.73L339.38,26.73L339.38,87.81L340.2,87.81L340.2,47.25L341.02,47.25L341.02,16.57L341.83,16.57L341.83,13.17L342.65,13.17L342.65,18.67L343.47,18.67L343.47,75.26L344.28,75.26L344.28,72.43L345.1,72.43L345.1,54.87L345.92,54.87L345.92,58.56L346.73,58.56L346.73,55.69L347.55,55.69L347.55,67.96L348.37,67.96L348.37,95.43L349.18,95.43L349.18,97.14L350,97.14L350,76.44L350.82,76.44L350.82,73.92L351.63,73.92L351.63,39.18L352.45,39.18L352.45,55.07L353.27,55.07L353.27,54.27L354.08,54.27L354.08,51.85L354.9,51.85L354.9,16.71L358.17,16.6L358.17,15.85L358.98,15.85L358.98,16.6L359.8,16.6L359.8,13.13L360.62,13.13L360.62,15.85L361.43,15.85L361.43,16.6L363.88,16.6L363.88,17.53L364.7,17.53L364.7,69.81L365.51,69.81L365.51,85.03L366.33,85.03L366.33,72.74L367.15,72.74L367.15,68.61L367.96,68.61L367.96,75.45L368.78,75.45L368.78,79.37L369.6,79.37L369.6,86.93L370.41,86.93L370.41,28.42L371.23,28.42L371.23,15.87L372.05,15.87L372.05,12.35L372.86,12.35L372.86,16.6L375.31,16.6L375.31,15.87L376.13,15.87L376.13,17.44L377.76,16.71L377.76,15.71L378.58,15.71L378.58,12.31L379.4,12.31L379.4,16.71L382.66,16.6L382.66,15.85L384.3,16.56L384.3,12.31L385.11,12.31L385.11,16.71L386.75,16.6L386.75,15.85L387.56,15.85L387.56,16.6L390.83,16.67L390.83,11.45L391.65,11.45L391.65,16.6L395.73,16.6L395.73,15.77L396.55,15.77L396.55,12.35L397.36,12.35L397.36,16.6L399.81,16.6L399.81,15.85L400.63,15.85L400.63,16.6L403.08,16.56L403.08,12.3L403.9,12.3L403.9,15.85L404.71,15.85L404.71,16.6L408.8,16.6L408.8,11.41L409.61,11.41L409.61,16.71L412.88,16.6L412.88,15.85L413.69,15.85L413.69,16.6L415.33,16.64L415.33,12.78L416.14,12.78L416.14,29.48L416.96,29.48L416.96,15.85L417.78,15.85L417.78,16.6L420.23,16.6L420.23,34.45L421.04,34.45L421.04,19.08L421.86,19.08L421.86,54.15L422.68,54.15L422.68,66.14L423.49,66.14L423.49,59.89L424.31,59.89L424.31,61.29L425.13,61.29L425.13,89.53L425.94,89.53L425.94,80.25L426.76,80.25L426.76,29.59L427.58,29.59L427.58,56.73L428.39,56.73L428.39,21.65L429.21,21.65L429.21,33.81L430.03,33.81L430.03,22.78L430.84,22.78L430.84,36.45L431.66,36.45L431.66,39.04L432.48,39.04L432.48,29.59L433.29,29.59L433.29,12.26L434.11,12.26L434.11,15.86L435.74,16.6L435.74,16.85L436.56,16.85L436.56,20.9L437.38,20.9L437.38,16.82L438.19,16.82L438.19,20.93L439.01,20.93L439.01,29.16L439.83,29.16L439.83,16.6L440.64,16.6L440.64,21.15L441.46,21.15L441.46,16.71L443.09,16.71L443.09,29.05L443.91,29.05L443.91,16.6L445.54,16.6L445.54,12.27L446.36,12.27L446.36,16.7L447.18,16.7L447.18,15.86L448.81,16.6L448.81,16.71L452.08,16.6L452.08,11.41L452.89,11.41L452.89,16.6L456.16,16.6L456.16,15.85L457.79,16.57L457.79,12.31L458.61,12.31L458.61,16.6L460.24,16.7L460.24,15.86L461.87,16.6L461.87,16.71L464.32,16.6L464.32,12.27L465.14,12.27L465.14,15.85L465.96,15.85L465.96,16.71L469.22,16.6L469.22,15.71L470.04,15.71L470.04,12.31L470.86,12.31L470.86,16.71L473.31,16.7L473.31,15.86L474.94,16.6L474.94,16.71L476.57,16.53L476.57,7.91L477.39,7.91L477.39,16.6L478.21,16.6L478.21,15.85L479.02,15.85L479.02,16.6L482.29,16.67L482.29,11.45L483.11,11.45L483.11,16.6L486.37,16.7L486.37,15.86L488.82,16.56L488.82,12.31L489.64,12.31L489.64,16.71L491.27,16.6L491.27,15.85L492.09,15.85L492.09,16.6L494.54,16.56L494.54,12.3L495.36,12.3L495.36,15.85L496.17,15.85L496.17,16.6L499.44,16.7L499.44,15.86L501.07,16.53L501.07,12.35L501.89,12.35L501.89,16.6L504.34,16.6L504.34,15.85L505.16,15.85L505.16,16.6L506.79,16.64L506.79,12.35L507.61,12.35L507.61,16.6L508.42,16.6L508.42,15.85L509.24,15.85L509.24,16.6L513.32,16.6L513.32,11.41L514.14,11.41L514.14,16.71L517.4,16.6L517.4,15.85L518.22,15.85L518.22,16.6L521.49,16.6L521.49,15.85L522.3,15.85L522.3,16.6L525.57,16.64L525.57,12.27L526.39,12.27L526.39,15.81L527.2,15.81L527.2,16.71L530.47,16.6L530.47,15.74L531.29,15.74L531.29,12.27L532.1,12.27L532.1,16.71L534.55,16.6L534.55,15.85L535.37,15.85L535.37,16.6L537.82,16.6L537.82,12.26L538.64,12.26L538.64,15.86L540.27,16.6L540.27,16.71L543.54,16.6L543.54,11.41L544.35,11.41L544.35,16.6L547.62,16.6L547.62,15.85L548.44,15.85L548.44,16.6L550.07,16.6L550.07,12.27L550.89,12.27L550.89,16.7L551.7,16.7L551.7,15.86L553.34,16.6L553.34,16.71L555.79,16.6L555.79,12.27L556.6,12.27L556.6,15.85L557.42,15.85L557.42,16.71L560.68,16.6L560.68,15.85L562.32,16.57L562.32,12.31L563.13,12.31L563.13,16.6L564.77,16.7L564.77,15.86L566.4,16.6L566.4,16.71L568.03,16.49L568.03,3.51L568.85,3.51L568.85,16.6L569.67,16.6L569.67,15.85L570.48,15.85L570.48,16.6L573.75,16.6L573.75,15.71L574.57,15.71L574.57,12.31L575.38,12.31L575.38,16.71L577.83,16.7L577.83,15.86L580.28,16.56L580.28,12.31L581.1,12.31L581.1,16.71L582.73,16.6L582.73,15.85L583.55,15.85L583.55,16.6L586.82,16.56L586.82,11.45L587.63,11.45L587.63,16.6L590.9,16.7L590.9,15.86L592.53,16.53L592.53,12.35L593.35,12.35L593.35,16.6L595.8,16.6L595.8,15.85L596.62,15.85L596.62,16.6L599.07,16.56L599.07,12.3L599.88,12.3L599.88,15.85L600.7,15.85L600.7,16.6L603.97,16.7L603.97,15.68L604.78,15.68L604.78,14.08L605.6,14.08L605.6,120.51" style="vector-effect: non-scaling-stroke; fill: none; stroke: rgb(195, 113, 210); stroke-opacity: 1; stroke-width: 1px; opacity: 1;"/></g><g class="points"/><g class="text"/></g><g class="trace scatter trace85dd46" style="stroke-miterlimit: 2; opacity: 1;"><g class="fills"/><g class="errorbars"/><g class="lines"><path class="js-line" d="M23.36,120.49L372.86,120.4L372.86,120.51" style="vector-effect: non-scaling-stroke; fill: none; stroke: rgb(172, 142, 24); stroke-opacity: 1; stroke-width: 1px; opacity: 1;"/></g><g class="points"/><g class="text"/></g><g class="trace scatter trace4fcb48" style="stroke-miterlimit: 2; opacity: 1;"><g class="fills"/><g class="errorbars"/><g class="lines"><path class="js-line" d="M23.36,120.51L305.9,119.84L305.9,119.32L317.33,119.92L317.33,120.26L347.55,120.51L347.55,117.71L348.37,117.71L348.37,118.87L349.18,118.87L349.18,120.51L495.36,120.39L495.36,119.33L507.61,119.96L507.61,120.51L514.14,119.84L514.14,119.33L525.57,119.91L525.57,120.27L605.6,120.51L605.6,120.51" style="vector-effect: non-scaling-stroke; fill: none; stroke: rgb(0, 170, 174); stroke-opacity: 1; stroke-width: 1px; opacity: 1;"/></g><g class="points"/><g class="text"/></g><g class="trace scatter traceb0e29a" style="stroke-miterlimit: 2; opacity: 1;"><g class="fills"/><g class="errorbars"/><g class="lines"><path class="js-line" d="M33.97,120.51L590.08,120.51L590.08,119.27L590.9,119.27L590.9,117.9L593.35,118.09L593.35,120.51" style="vector-effect: non-scaling-stroke; fill: none; stroke: rgb(237, 94, 147); stroke-opacity: 1; stroke-width: 1px; opacity: 1;"/></g><g class="points"/><g class="text"/></g><g class="trace scatter trace308778" style="stroke-miterlimit: 2; opacity: 1;"><g class="fills"/><g class="errorbars"/><g class="lines"><path class="js-line" d="M33.97,120.51L140.13,120.51L140.13,119.72L146.66,119.97L146.66,120.51L602.33,120.51L602.33,120.51" style="vector-effect: non-scaling-stroke; fill: none; stroke: rgb(198, 130, 37); stroke-opacity: 1; stroke-width: 1px; opacity: 1;"/></g><g class="points"/><g class="text"/></g><g class="trace scatter tracefbcdf1" style="stroke-miterlimit: 2; opacity: 1;"><g class="fills"/><g class="errorbars"/><g class="lines"><path class="js-line" d="M33.97,117.23L35.6,116.54L35.6,118.89L36.42,118.89L36.42,120.51L475.76,120.51L475.76,115.02L476.57,115.02L476.57,117.12L477.39,117.12L477.39,120.51L555.79,120.51L555.79,120.51" style="vector-effect: non-scaling-stroke; fill: none; stroke: rgb(0, 169, 141); stroke-opacity: 1; stroke-width: 1px; opacity: 1;"/></g><g class="points"/><g class="text"/></g><g class="trace scatter trace89931c" style="stroke-miterlimit: 2; opacity: 1;"><g class="fills"/><g class="errorbars"/><g class="lines"><path class="js-line" d="M33.97,120.4L358.17,120.51L358.17,119.7L358.98,119.7L358.98,116.27L360.62,116.69L360.62,120.51L482.29,120.25L482.29,119.49L489.64,120.07L489.64,120.51L589.27,120.51L589.27,120.51" style="vector-effect: non-scaling-stroke; fill: none; stroke: rgb(142, 151, 30); stroke-opacity: 1; stroke-width: 1px; opacity: 1;"/></g><g class="points"/><g class="text"/></g><g class="trace scatter traceb7a2ec" style="stroke-miterlimit: 2; opacity: 1;"><g class="fills"/><g class="errorbars"/><g class="lines"><path class="js-line" d="M60.1,120.49L589.27,120.51L589.27,120.51" style="vector-effect: non-scaling-stroke; fill: none; stroke: rgb(0, 169, 204); stroke-opacity: 1; stroke-width: 1px; opacity: 1;"/></g><g class="points"/><g class="text"/></g><g class="trace scatter trace8c8b9f" style="stroke-miterlimit: 2; opacity: 1;"><g class="fills"/><g class="errorbars"/><g class="lines"><path class="js-line" d="M87.05,120.35L545.17,120.19L545.17,119.17L550.07,119.17L550.07,119.97L572.12,120.51L572.12,120.51" style="vector-effect: non-scaling-stroke; fill: none; stroke: rgb(155, 127, 233); stroke-opacity: 1; stroke-width: 1px; opacity: 1;"/></g><g class="points"/><g class="text"/></g></g></g><g class="overplot"/><path class="xlines-above crisp" d="M91.82589676290463,316.66803758723245H716.0629921259842" style="fill: none; stroke-width: 1px; stroke: rgb(0, 0, 0); stroke-opacity: 1;"/><path class="ylines-above crisp" d="M92.32589676290463,192.14897942353753V316.16803758723245" style="fill: none; stroke-width: 1px; stroke: rgb(0, 0, 0); stroke-opacity: 1;"/><g class="overlines-above"/><g class="xaxislayer-above"><path class="xtick ticks crisp" d="M0,316.16803758723245v-5" transform="translate(110.46589676290463,0)" style="stroke: rgb(0, 0, 0); stroke-opacity: 1; stroke-width: 1px;"/><path class="xtick ticks crisp" d="M0,316.16803758723245v-5" transform="translate(134.96589676290463,0)" style="stroke: rgb(0, 0, 0); stroke-opacity: 1; stroke-width: 1px;"/><path class="xtick ticks crisp" d="M0,316.16803758723245v-5" transform="translate(159.46589676290463,0)" style="stroke: rgb(0, 0, 0); stroke-opacity: 1; stroke-width: 1px;"/><path class="xtick ticks crisp" d="M0,316.16803758723245v-5" transform="translate(183.95589676290462,0)" style="stroke: rgb(0, 0, 0); stroke-opacity: 1; stroke-width: 1px;"/><path class="xtick ticks crisp" d="M0,316.16803758723245v-5" transform="translate(208.45589676290462,0)" style="stroke: rgb(0, 0, 0); stroke-opacity: 1; stroke-width: 1px;"/><path class="xtick ticks crisp" d="M0,316.16803758723245v-5" transform="translate(232.95589676290462,0)" style="stroke: rgb(0, 0, 0); stroke-opacity: 1; stroke-width: 1px;"/><path class="xtick ticks crisp" d="M0,316.16803758723245v-5" transform="translate(257.4558967629046,0)" style="stroke: rgb(0, 0, 0); stroke-opacity: 1; stroke-width: 1px;"/><path class="xtick ticks crisp" d="M0,316.16803758723245v-5" transform="translate(281.9558967629046,0)" style="stroke: rgb(0, 0, 0); stroke-opacity: 1; stroke-width: 1px;"/><path class="xtick ticks crisp" d="M0,316.16803758723245v-5" transform="translate(306.4558967629046,0)" style="stroke: rgb(0, 0, 0); stroke-opacity: 1; stroke-width: 1px;"/><path class="xtick ticks crisp" d="M0,316.16803758723245v-5" transform="translate(330.9458967629046,0)" style="stroke: rgb(0, 0, 0); stroke-opacity: 1; stroke-width: 1px;"/><path class="xtick ticks crisp" d="M0,316.16803758723245v-5" transform="translate(355.4458967629046,0)" style="stroke: rgb(0, 0, 0); stroke-opacity: 1; stroke-width: 1px;"/><path class="xtick ticks crisp" d="M0,316.16803758723245v-5" transform="translate(379.9458967629046,0)" style="stroke: rgb(0, 0, 0); stroke-opacity: 1; stroke-width: 1px;"/><path class="xtick ticks crisp" d="M0,316.16803758723245v-5" transform="translate(404.4458967629046,0)" style="stroke: rgb(0, 0, 0); stroke-opacity: 1; stroke-width: 1px;"/><path class="xtick ticks crisp" d="M0,316.16803758723245v-5" transform="translate(428.9458967629046,0)" style="stroke: rgb(0, 0, 0); stroke-opacity: 1; stroke-width: 1px;"/><path class="xtick ticks crisp" d="M0,316.16803758723245v-5" transform="translate(453.4458967629046,0)" style="stroke: rgb(0, 0, 0); stroke-opacity: 1; stroke-width: 1px;"/><path class="xtick ticks crisp" d="M0,316.16803758723245v-5" transform="translate(477.93589676290463,0)" style="stroke: rgb(0, 0, 0); stroke-opacity: 1; stroke-width: 1px;"/><path class="xtick ticks crisp" d="M0,316.16803758723245v-5" transform="translate(502.43589676290463,0)" style="stroke: rgb(0, 0, 0); stroke-opacity: 1; stroke-width: 1px;"/><path class="xtick ticks crisp" d="M0,316.16803758723245v-5" transform="translate(526.9358967629047,0)" style="stroke: rgb(0, 0, 0); stroke-opacity: 1; stroke-width: 1px;"/><path class="xtick ticks crisp" d="M0,316.16803758723245v-5" transform="translate(551.4358967629047,0)" style="stroke: rgb(0, 0, 0); stroke-opacity: 1; stroke-width: 1px;"/><path class="xtick ticks crisp" d="M0,316.16803758723245v-5" transform="translate(575.9358967629047,0)" style="stroke: rgb(0, 0, 0); stroke-opacity: 1; stroke-width: 1px;"/><path class="xtick ticks crisp" d="M0,316.16803758723245v-5" transform="translate(600.4358967629047,0)" style="stroke: rgb(0, 0, 0); stroke-opacity: 1; stroke-width: 1px;"/><path class="xtick ticks crisp" d="M0,316.16803758723245v-5" transform="translate(624.9258967629047,0)" style="stroke: rgb(0, 0, 0); stroke-opacity: 1; stroke-width: 1px;"/><path class="xtick ticks crisp" d="M0,316.16803758723245v-5" transform="translate(649.4258967629047,0)" style="stroke: rgb(0, 0, 0); stroke-opacity: 1; stroke-width: 1px;"/><path class="xtick ticks crisp" d="M0,316.16803758723245v-5" transform="translate(673.9258967629047,0)" style="stroke: rgb(0, 0, 0); stroke-opacity: 1; stroke-width: 1px;"/><path class="xtick ticks crisp" d="M0,316.16803758723245v-5" transform="translate(698.4258967629047,0)" style="stroke: rgb(0, 0, 0); stroke-opacity: 1; stroke-width: 1px;"/><g class="xtick"><text text-anchor="start" x="0" y="333.96803758723246" transform="translate(110.46589676290463,0) rotate(22,0,326.96803758723246)" style="font-family: sans-serif; font-size: 14px; fill: rgb(0, 0, 0); fill-opacity: 1; white-space: pre; opacity: 1;">00 2022-10-27</text></g><g class="xtick"><text text-anchor="start" x="0" y="333.96803758723246" style="font-family: sans-serif; font-size: 14px; fill: rgb(0, 0, 0); fill-opacity: 1; white-space: pre; opacity: 1;" transform="translate(134.96589676290463,0) rotate(22,0,326.96803758723246)">01</text></g><g class="xtick"><text text-anchor="start" x="0" y="333.96803758723246" style="font-family: sans-serif; font-size: 14px; fill: rgb(0, 0, 0); fill-opacity: 1; white-space: pre; opacity: 1;" transform="translate(159.46589676290463,0) rotate(22,0,326.96803758723246)">02</text></g><g class="xtick"><text text-anchor="start" x="0" y="333.96803758723246" style="font-family: sans-serif; font-size: 14px; fill: rgb(0, 0, 0); fill-opacity: 1; white-space: pre; opacity: 1;" transform="translate(183.95589676290462,0) rotate(22,0,326.96803758723246)">03</text></g><g class="xtick"><text text-anchor="start" x="0" y="333.96803758723246" style="font-family: sans-serif; font-size: 14px; fill: rgb(0, 0, 0); fill-opacity: 1; white-space: pre; opacity: 1;" transform="translate(208.45589676290462,0) rotate(22,0,326.96803758723246)">04</text></g><g class="xtick"><text text-anchor="start" x="0" y="333.96803758723246" style="font-family: sans-serif; font-size: 14px; fill: rgb(0, 0, 0); fill-opacity: 1; white-space: pre; opacity: 1;" transform="translate(232.95589676290462,0) rotate(22,0,326.96803758723246)">05</text></g><g class="xtick"><text text-anchor="start" x="0" y="333.96803758723246" style="font-family: sans-serif; font-size: 14px; fill: rgb(0, 0, 0); fill-opacity: 1; white-space: pre; opacity: 1;" transform="translate(257.4558967629046,0) rotate(22,0,326.96803758723246)">06</text></g><g class="xtick"><text text-anchor="start" x="0" y="333.96803758723246" style="font-family: sans-serif; font-size: 14px; fill: rgb(0, 0, 0); fill-opacity: 1; white-space: pre; opacity: 1;" transform="translate(281.9558967629046,0) rotate(22,0,326.96803758723246)">07</text></g><g class="xtick"><text text-anchor="start" x="0" y="333.96803758723246" style="font-family: sans-serif; font-size: 14px; fill: rgb(0, 0, 0); fill-opacity: 1; white-space: pre; opacity: 1;" transform="translate(306.4558967629046,0) rotate(22,0,326.96803758723246)">08</text></g><g class="xtick"><text text-anchor="start" x="0" y="333.96803758723246" style="font-family: sans-serif; font-size: 14px; fill: rgb(0, 0, 0); fill-opacity: 1; white-space: pre; opacity: 1;" transform="translate(330.9458967629046,0) rotate(22,0,326.96803758723246)">09</text></g><g class="xtick"><text text-anchor="start" x="0" y="333.96803758723246" style="font-family: sans-serif; font-size: 14px; fill: rgb(0, 0, 0); fill-opacity: 1; white-space: pre; opacity: 1;" transform="translate(355.4458967629046,0) rotate(22,0,326.96803758723246)">10</text></g><g class="xtick"><text text-anchor="start" x="0" y="333.96803758723246" style="font-family: sans-serif; font-size: 14px; fill: rgb(0, 0, 0); fill-opacity: 1; white-space: pre; opacity: 1;" transform="translate(379.9458967629046,0) rotate(22,0,326.96803758723246)">11</text></g><g class="xtick"><text text-anchor="start" x="0" y="333.96803758723246" style="font-family: sans-serif; font-size: 14px; fill: rgb(0, 0, 0); fill-opacity: 1; white-space: pre; opacity: 1;" transform="translate(404.4458967629046,0) rotate(22,0,326.96803758723246)">12</text></g><g class="xtick"><text text-anchor="start" x="0" y="333.96803758723246" style="font-family: sans-serif; font-size: 14px; fill: rgb(0, 0, 0); fill-opacity: 1; white-space: pre; opacity: 1;" transform="translate(428.9458967629046,0) rotate(22,0,326.96803758723246)">13</text></g><g class="xtick"><text text-anchor="start" x="0" y="333.96803758723246" style="font-family: sans-serif; font-size: 14px; fill: rgb(0, 0, 0); fill-opacity: 1; white-space: pre; opacity: 1;" transform="translate(453.4458967629046,0) rotate(22,0,326.96803758723246)">14</text></g><g class="xtick"><text text-anchor="start" x="0" y="333.96803758723246" style="font-family: sans-serif; font-size: 14px; fill: rgb(0, 0, 0); fill-opacity: 1; white-space: pre; opacity: 1;" transform="translate(477.93589676290463,0) rotate(22,0,326.96803758723246)">15</text></g><g class="xtick"><text text-anchor="start" x="0" y="333.96803758723246" style="font-family: sans-serif; font-size: 14px; fill: rgb(0, 0, 0); fill-opacity: 1; white-space: pre; opacity: 1;" transform="translate(502.43589676290463,0) rotate(22,0,326.96803758723246)">16</text></g><g class="xtick"><text text-anchor="start" x="0" y="333.96803758723246" style="font-family: sans-serif; font-size: 14px; fill: rgb(0, 0, 0); fill-opacity: 1; white-space: pre; opacity: 1;" transform="translate(526.9358967629047,0) rotate(22,0,326.96803758723246)">17</text></g><g class="xtick"><text text-anchor="start" x="0" y="333.96803758723246" style="font-family: sans-serif; font-size: 14px; fill: rgb(0, 0, 0); fill-opacity: 1; white-space: pre; opacity: 1;" transform="translate(551.4358967629047,0) rotate(22,0,326.96803758723246)">18</text></g><g class="xtick"><text text-anchor="start" x="0" y="333.96803758723246" style="font-family: sans-serif; font-size: 14px; fill: rgb(0, 0, 0); fill-opacity: 1; white-space: pre; opacity: 1;" transform="translate(575.9358967629047,0) rotate(22,0,326.96803758723246)">19</text></g><g class="xtick"><text text-anchor="start" x="0" y="333.96803758723246" style="font-family: sans-serif; font-size: 14px; fill: rgb(0, 0, 0); fill-opacity: 1; white-space: pre; opacity: 1;" transform="translate(600.4358967629047,0) rotate(22,0,326.96803758723246)">20</text></g><g class="xtick"><text text-anchor="start" x="0" y="333.96803758723246" style="font-family: sans-serif; font-size: 14px; fill: rgb(0, 0, 0); fill-opacity: 1; white-space: pre; opacity: 1;" transform="translate(624.9258967629047,0) rotate(22,0,326.96803758723246)">21</text></g><g class="xtick"><text text-anchor="start" x="0" y="333.96803758723246" style="font-family: sans-serif; font-size: 14px; fill: rgb(0, 0, 0); fill-opacity: 1; white-space: pre; opacity: 1;" transform="translate(649.4258967629047,0) rotate(22,0,326.96803758723246)">22</text></g><g class="xtick"><text text-anchor="start" x="0" y="333.96803758723246" style="font-family: sans-serif; font-size: 14px; fill: rgb(0, 0, 0); fill-opacity: 1; white-space: pre; opacity: 1;" transform="translate(673.9258967629047,0) rotate(22,0,326.96803758723246)">23</text></g><g class="xtick"><text text-anchor="start" x="0" y="333.96803758723246" style="font-family: sans-serif; font-size: 14px; fill: rgb(0, 0, 0); fill-opacity: 1; white-space: pre; opacity: 0;" transform="translate(698.4258967629047,0) rotate(22,0,326.96803758723246)">00 2022-10-28</text></g></g><g class="yaxislayer-above"><path class="y2tick ticks crisp" d="M92.82589676290463,0h5" transform="translate(0,312.6589794235375)" style="stroke: rgb(0, 0, 0); stroke-opacity: 1; stroke-width: 1px;"/><path class="y2tick ticks crisp" d="M92.82589676290463,0h5" transform="translate(0,286.0289794235375)" style="stroke: rgb(0, 0, 0); stroke-opacity: 1; stroke-width: 1px;"/><path class="y2tick ticks crisp" d="M92.82589676290463,0h5" transform="translate(0,259.4089794235375)" style="stroke: rgb(0, 0, 0); stroke-opacity: 1; stroke-width: 1px;"/><path class="y2tick ticks crisp" d="M92.82589676290463,0h5" transform="translate(0,232.77897942353752)" style="stroke: rgb(0, 0, 0); stroke-opacity: 1; stroke-width: 1px;"/><path class="y2tick ticks crisp" d="M92.82589676290463,0h5" transform="translate(0,206.15897942353752)" style="stroke: rgb(0, 0, 0); stroke-opacity: 1; stroke-width: 1px;"/><g class="y2tick"><text text-anchor="end" x="89.02589676290464" y="4.8999999999999995" transform="translate(0,312.6589794235375)" style="font-family: sans-serif; font-size: 14px; fill: rgb(0, 0, 0); fill-opacity: 1; white-space: pre; opacity: 1;">0.00</text></g><g class="y2tick"><text text-anchor="end" x="89.02589676290464" y="4.8999999999999995" style="font-family: sans-serif; font-size: 14px; fill: rgb(0, 0, 0); fill-opacity: 1; white-space: pre; opacity: 1;" transform="translate(0,286.0289794235375)">0.05</text></g><g class="y2tick"><text text-anchor="end" x="89.02589676290464" y="4.8999999999999995" style="font-family: sans-serif; font-size: 14px; fill: rgb(0, 0, 0); fill-opacity: 1; white-space: pre; opacity: 1;" transform="translate(0,259.4089794235375)">0.10</text></g><g class="y2tick"><text text-anchor="end" x="89.02589676290464" y="4.8999999999999995" style="font-family: sans-serif; font-size: 14px; fill: rgb(0, 0, 0); fill-opacity: 1; white-space: pre; opacity: 1;" transform="translate(0,232.77897942353752)">0.15</text></g><g class="y2tick"><text text-anchor="end" x="89.02589676290464" y="4.8999999999999995" style="font-family: sans-serif; font-size: 14px; fill: rgb(0, 0, 0); fill-opacity: 1; white-space: pre; opacity: 1;" transform="translate(0,206.15897942353752)">0.20</text></g></g><g class="overaxes-above"/></g></g><g class="polarlayer"/><g class="ternarylayer"/><g class="geolayer"/><g class="funnelarealayer"/><g class="pielayer"/><g class="iciclelayer"/><g class="treemaplayer"/><g class="sunburstlayer"/><g class="glimages"/><defs id="topdefs-b2ef5b"><g class="clips"/></defs><g class="layer-above"><g class="imagelayer"/><g class="shapelayer"/></g><g class="infolayer"><g class="g-gtitle"/><g class="g-xtitle"/><g class="g-ytitle"/><g class="g-y2title"/><g class="annotation" data-index="0" style="opacity: 1;"><g class="annotation-text-g" transform="rotate(0,404.44444444444446,30.000000000000004)"><g class="cursor-pointer" transform="translate(353,20)"><rect class="bg" x="0.5" y="0.5" width="102" height="19" style="stroke-width: 1px; stroke: rgb(0, 0, 0); stroke-opacity: 0; fill: rgb(0, 0, 0); fill-opacity: 0;"/><text class="annotation-text" text-anchor="middle" x="51.275390625" y="14.7314453125" style="font-family: sans-serif; font-size: 14px; fill: rgb(0, 0, 0); fill-opacity: 1; white-space: pre;">l_write | counter</text></g></g></g><g class="annotation" data-index="1" style="opacity: 1;"><g class="annotation-text-g" transform="rotate(0,404.44444444444446,186.1056723369233)"><g class="cursor-pointer" transform="translate(364,176)"><rect class="bg" x="0.5" y="0.5" width="79" height="19" style="stroke-width: 1px; stroke: rgb(0, 0, 0); stroke-opacity: 0; fill: rgb(0, 0, 0); fill-opacity: 0;"/><text class="annotation-text" text-anchor="middle" x="39.9912109375" y="14.7314453125" style="font-family: sans-serif; font-size: 14px; fill: rgb(0, 0, 0); fill-opacity: 1; white-space: pre;">l_write | rate</text></g></g></g></g></svg>