<svg class="main-svg" xmlns="http://www.w3.org/2000/svg" xmlns:xlink="http://www.w3.org/1999/xlink" width="720" height="360" style=""><rect x="0" y="0" width="720" height="360" style="fill: rgb(255, 255, 255); fill-opacity: 1;"/><defs id="defs-28186d"><g class="clips"><clipPath id="clip28186dxyplot" class="plotclip"><rect width="623.2370953630796" height="104.71018090241475"/></clipPath><clipPath id="clip28186dxy2plot" class="plotclip"><rect width="623.2370953630796" height="104.71018090241475"/></clipPath><clipPath class="axesclip" id="clip28186dx"><rect x="92.82589676290463" y="0" width="623.2370953630796" height="360"/></clipPath><clipPath class="axesclip" id="clip28186dy"><rect x="0" y="35.84524156702635" width="720" height="104.71018090241475"/></clipPath><clipPath class="axesclip" id="clip28186dxy"><rect x="92.82589676290463" y="35.84524156702635" width="623.2370953630796" height="104.71018090241475"/></clipPath><clipPath class="axesclip" id="clip28186dy2"><rect x="0" y="172.2459056034938" width="720" height="104.71018090241475"/></clipPath><clipPath class="axesclip" id="clip28186dxy2"><rect x="92.82589676290463" y="172.2459056034938" width="623.2370953630796" height="104.71018090241475"/></clipPath></g><g class="gradients"/><g class="patterns"/></defs><g class="bglayer"/><g class="layer-below"><g class="imagelayer"/><g class="shapelayer"/></g><g class="cartesianlayer"><g class="subplot xy"><g class="layer-subplot"><g class="shapelayer"/><g class="imagelayer"/></g><g class="gridlayer"><g class="x"><path class="xgrid crisp" transform="translate(110.46589676290463,0)" d="M0,35.84524156702635v104.71018090241475" style="stroke: rgb(0, 0, 0); stroke-opacity: 0.1; stroke-width: 0.5px;"/><path class="xgrid crisp" transform="translate(134.96589676290463,0)" d="M0,35.84524156702635v104.71018090241475" style="stroke: rgb(0, 0, 0); stroke-opacity: 0.1; stroke-width: 0.5px;"/><path class="xgrid crisp" transform="translate(159.46589676290463,0)" d="M0,35.84524156702635v104.71018090241475" style="stroke: rgb(0, 0, 0); stroke-opacity: 0.1; stroke-width: 0.5px;"/><path class="xgrid crisp" transform="translate(183.95589676290462,0)" d="M0,35.84524156702635v104.71018090241475" style="stroke: rgb(0, 0, 0); stroke-opacity: 0.1; stroke-width: 0.5px;"/><path class="xgrid crisp" transform="translate(208.45589676290462,0)" d="M0,35.84524156702635v104.71018090241475" style="stroke: rgb(0, 0, 0); stroke-opacity: 0.1; stroke-width: 0.5px;"/><path class="xgrid crisp" transform="translate(232.95589676290462,0)" d="M0,35.84524156702635v104.71018090241475" style="stroke: rgb(0, 0, 0); stroke-opacity: 0.1; stroke-width: 0.5px;"/><path class="xgrid crisp" transform="translate(257.4558967629046,0)" d="M0,35.84524156702635v104.71018090241475" style="stroke: rgb(0, 0, 0); stroke-opacity: 0.1; stroke-width: 0.5px;"/><path class="xgrid crisp" transform="translate(281.9558967629046,0)" d="M0,35.84524156702635v104.71018090241475" style="stroke: rgb(0, 0, 0); stroke-opacity: 0.1; stroke-width: 0.5px;"/><path class="xgrid crisp" transform="translate(306.4558967629046,0)" d="M0,35.84524156702635v104.71018090241475" style="stroke: rgb(0, 0, 0); stroke-opacity: 0.1; stroke-width: 0.5px;"/><path class="xgrid crisp" transform="translate(330.9458967629046,0)" d="M0,35.84524156702635v104.71018090241475" style="stroke: rgb(0, 0, 0); stroke-opacity: 0.1; stroke-width: 0.5px;"/><path class="xgrid crisp" transform="translate(355.4458967629046,0)" d="M0,35.84524156702635v104.71018090241475" style="stroke: rgb(0, 0, 0); stroke-opacity: 0.1; stroke-width: 0.5px;"/><path class="xgrid crisp" transform="translate(379.9458967629046,0)" d="M0,35.84524156702635v104.71018090241475" style="stroke: rgb(0, 0, 0); stroke-opacity: 0.1; stroke-width: 0.5px;"/><path class="xgrid crisp" transform="translate(404.4458967629046,0)" d="M0,35.84524156702635v104.71018090241475" style="stroke: rgb(0, 0, 0); stroke-opacity: 0.1; stroke-width: 0.5px;"/><path class="xgrid crisp" transform="translate(428.9458967629046,0)" d="M0,35.84524156702635v104.71018090241475" style="stroke: rgb(0, 0, 0); stroke-opacity: 0.1; stroke-width: 0.5px;"/><path class="xgrid crisp" transform="translate(453.4458967629046,0)" d="M0,35.84524156702635v104.71018090241475" style="stroke: rgb(0, 0, 0); stroke-opacity: 0.1; stroke-width: 0.5px;"/><path class="xgrid crisp" transform="translate(477.93589676290463,0)" d="M0,35.84524156702635v104.71018090241475" style="stroke: rgb(0, 0, 0); stroke-opacity: 0.1; stroke-width: 0.5px;"/><path class="xgrid crisp" transform="translate(502.43589676290463,0)" d="M0,35.84524156702635v104.71018090241475" style="stroke: rgb(0, 0, 0); stroke-opacity: 0.1; stroke-width: 0.5px;"/><path class="xgrid crisp" transform="translate(526.9358967629047,0)" d="M0,35.84524156702635v104.71018090241475" style="stroke: rgb(0, 0, 0); stroke-opacity: 0.1; stroke-width: 0.5px;"/><path class="xgrid crisp" transform="translate(551.4358967629047,0)" d="M0,35.84524156702635v104.71018090241475" style="stroke: rgb(0, 0, 0); stroke-opacity: 0.1; stroke-width: 0.5px;"/><path class="xgrid crisp" transform="translate(575.9358967629047,0)" d="M0,35.84524156702635v104.71018090241475" style="stroke: rgb(0, 0, 0); stroke-opacity: 0.1; stroke-width: 0.5px;"/><path class="xgrid crisp" transform="translate(600.4358967629047,0)" d="M0,35.84524156702635v104.71018090241475" style="stroke: rgb(0, 0, 0); stroke-opacity: 0.1; stroke-width: 0.5px;"/><path class="xgrid crisp" transform="translate(624.9258967629047,0)" d="M0,35.84524156702635v104.71018090241475" style="stroke: rgb(0, 0, 0); stroke-opacity: 0.1; stroke-width: 0.5px;"/><path class="xgrid crisp" transform="translate(649.4258967629047,0)" d="M0,35.84524156702635v104.71018090241475" style="stroke: rgb(0, 0, 0); stroke-opacity: 0.1; stroke-width: 0.5px;"/><path class="xgrid crisp" transform="translate(673.9258967629047,0)" d="M0,35.84524156702635v104.71018090241475" style="stroke: rgb(0, 0, 0); stroke-opacity: 0.1; stroke-width: 0.5px;"/><path class="xgrid crisp" transform="translate(698.4258967629047,0)" d="M0,35.84524156702635v104.71018090241475" style="stroke: rgb(0, 0, 0); stroke-opacity: 0.1; stroke-width: 0.5px;"/></g><g class="y"><path class="ygrid crisp" transform="translate(0,137.59524156702633)" d="M92.82589676290463,0h623.2370953630796" style="stroke: rgb(0, 0, 0); stroke-opacity: 0.1; stroke-width: 0.5px;"/><path class="ygrid crisp" transform="translate(0,116.66524156702634)" d="M92.82589676290463,0h623.2370953630796" style="stroke: rgb(0, 0, 0); stroke-opacity: 0.1; stroke-width: 0.5px;"/><path class="ygrid crisp" transform="translate(0,95.73524156702635)" d="M92.82589676290463,0h623.2370953630796" style="stroke: rgb(0, 0, 0); stroke-opacity: 0.1; stroke-width: 0.5px;"/><path class="ygrid crisp" transform="translate(0,74.80524156702634)" d="M92.82589676290463,0h623.2370953630796" style="stroke: rgb(0, 0, 0); stroke-opacity: 0.1; stroke-width: 0.5px;"/><path class="ygrid crisp" transform="translate(0,53.87524156702635)" d="M92.82589676290463,0h623.2370953630796" style="stroke: rgb(0, 0, 0); stroke-opacity: 0.1; stroke-width: 0.5px;"/></g></g><g class="zerolinelayer"/><path class="xlines-below"/><path class="ylines-below"/><g class="overlines-below"/><g class="xaxislayer-below"/><g class="yaxislayer-below"/><g class="overaxes-below"/><g class="plot" transform="translate(92.82589676290463,35.84524156702635)" clip-path="url(#clip28186dxyplot)"><g class="scatterlayer mlayer"><g class="trace scatter tracea092e0" style="stroke-miterlimit: 2; opacity: 1;"><g class="fills"/><g class="errorbars"/><g class="lines"><path class="js-line" d="M17.83,101.75L597.24,101.75" style="vector-effect: non-scaling-stroke; fill: none; stroke: rgb(0, 154, 250); stroke-opacity: 1; stroke-width: 1px; opacity: 1;"/></g><g class="points"/><g class="text"/></g><g class="trace scatter trace35bac4" style="stroke-miterlimit: 2; opacity: 1;"><g class="fills"/><g class="errorbars"/><g class="lines"><path class="js-line" d="M18.34,77.27L136.81,76.7L136.81,76.7L137.54,76.7L257.62,76.12L257.62,76.12L258.53,76.12L350.78,75.68L350.78,75.68L351.59,75.68L457.68,75.18L457.68,75.18L458.55,75.18L550.01,74.74L550.01,74.74L550.78,74.74L605.52,74.47" style="vector-effect: non-scaling-stroke; fill: none; stroke: rgb(227, 111, 71); stroke-opacity: 1; stroke-width: 1px; opacity: 1;"/></g><g class="points"/><g class="text"/></g><g class="trace scatter trace41a2d7" style="stroke-miterlimit: 2; opacity: 1;"><g class="fills"/><g class="errorbars"/><g class="lines"><path class="js-line" d="M18.34,77.75L135.9,77.19L135.9,77.19L136.81,77.19L220.03,76.79L220.93,76.79L385.07,76.04L385.07,76.03L548.37,75.28L548.37,75.27L605.52,75.01" style="vector-effect: non-scaling-stroke; fill: none; stroke: rgb(62, 164, 78); stroke-opacity: 1; stroke-width: 1px; opacity: 1;"/></g><g class="points"/><g class="text"/></g><g class="trace scatter trace502c34" style="stroke-miterlimit: 2; opacity: 1;"><g class="fills"/><g class="errorbars"/><g class="lines"><path class="js-line" d="M18.45,14.49L118.07,12.49L118.07,12.47L155.63,11.73L155.63,11.71L194,10.96L194,10.94L231.57,10.2L231.57,10.18L269.96,9.43L269.96,9.42L307.54,8.68L307.54,8.66L350.78,7.91L350.78,7.9L393.26,7.16L393.26,7.14L434.89,6.4L434.89,6.38L473.29,5.63L473.29,5.61L511.69,4.86L511.69,4.84L549.25,4.1L549.25,4.08L587.61,3.33L587.61,3.31L605.58,2.96" style="vector-effect: non-scaling-stroke; fill: none; stroke: rgb(195, 113, 210); stroke-opacity: 1; stroke-width: 1px; opacity: 1;"/></g><g class="points"/><g class="text"/></g><g class="trace scatter trace192e57" style="stroke-miterlimit: 2; opacity: 1;"><g class="fills"/><g class="errorbars"/><g class="lines"><path class="js-line" d="M23.68,101.75L372.8,101.75" style="vector-effect: non-scaling-stroke; fill: none; stroke: rgb(172, 142, 24); stroke-opacity: 1; stroke-width: 1px; opacity: 1;"/></g><g class="points"/><g class="text"/></g><g class="trace scatter trace385239" style="stroke-miterlimit: 2; opacity: 1;"><g class="fills"/><g class="errorbars"/><g class="lines"><path class="js-line" d="M23.71,101.75L605.52,101.75" style="vector-effect: non-scaling-stroke; fill: none; stroke: rgb(0, 170, 174); stroke-opacity: 1; stroke-width: 1px; opacity: 1;"/></g><g class="points"/><g class="text"/></g><g class="trace scatter tracee59dc7" style="stroke-miterlimit: 2; opacity: 1;"><g class="fills"/><g class="errorbars"/><g class="lines"><path class="js-line" d="M34.11,101.75L593.29,101.75" style="vector-effect: non-scaling-stroke; fill: none; stroke: rgb(237, 94, 147); stroke-opacity: 1; stroke-width: 1px; opacity: 1;"/></g><g class="points"/><g class="text"/></g><g class="trace scatter trace09146e" style="stroke-miterlimit: 2; opacity: 1;"><g class="fills"/><g class="errorbars"/><g class="lines"><path class="js-line" d="M34.11,101.75L602.2,101.75" style="vector-effect: non-scaling-stroke; fill: none; stroke: rgb(198, 130, 37); stroke-opacity: 1; stroke-width: 1px; opacity: 1;"/></g><g class="points"/><g class="text"/></g><g class="trace scatter trace1bb6ba" style="stroke-miterlimit: 2; opacity: 1;"><g class="fills"/><g class="errorbars"/><g class="lines"><path class="js-line" d="M34.11,101.75L555.75,101.75" style="vector-effect: non-scaling-stroke; fill: none; stroke: rgb(0, 169, 141); stroke-opacity: 1; stroke-width: 1px; opacity: 1;"/></g><g class="points"/><g class="text"/></g><g class="trace scatter trace4dc8d4" style="stroke-miterlimit: 2; opacity: 1;"><g class="fills"/><g class="errorbars"/><g class="lines"><path class="js-line" d="M34.46,101.75L588.62,101.75" style="vector-effect: non-scaling-stroke; fill: none; stroke: rgb(142, 151, 30); stroke-opacity: 1; stroke-width: 1px; opacity: 1;"/></g><g class="points"/><g class="text"/></g><g class="trace scatter tracecce0d1" style="stroke-miterlimit: 2; opacity: 1;"><g class="fills"/><g class="errorbars"/><g class="lines"><path class="js-line" d="M60.78,101.75L588.59,101.75" style="vector-effect: non-scaling-stroke; fill: none; stroke: rgb(0, 169, 204); stroke-opacity: 1; stroke-width: 1px; opacity: 1;"/></g><g class="points"/><g class="text"/></g><g class="trace scatter trace554e99" style="stroke-miterlimit: 2; opacity: 1;"><g class="fills"/><g class="errorbars"/><g class="lines"><path class="js-line" d="M87.36,101.75L571.56,101.75" style="vector-effect: non-scaling-stroke; fill: none; stroke: rgb(155, 127, 233); stroke-opacity: 1; stroke-width: 1px; opacity: 1;"/></g><g class="points"/><g class="text"/></g></g></g><g class="overplot"/><path class="xlines-above crisp" d="M0,0" style="fill: none;"/><path class="ylines-above crisp" d="M92.32589676290463,35.84524156702635V140.5554224694411" style="fill: none; stroke-width: 1px; stroke: rgb(0, 0, 0); stroke-opacity: 1;"/><g class="overlines-above"/><g class="xaxislayer-above"/><g class="yaxislayer-above"><path class="ytick ticks crisp" d="M92.82589676290463,0h5" transform="translate(0,137.59524156702633)" style="stroke: rgb(0, 0, 0); stroke-opacity: 1; stroke-width: 1px;"/><path class="ytick ticks crisp" d="M92.82589676290463,0h5" transform="translate(0,116.66524156702634)" style="stroke: rgb(0, 0, 0); stroke-opacity: 1; stroke-width: 1px;"/><path class="ytick ticks crisp" d="M92.82589676290463,0h5" transform="translate(0,95.73524156702635)" style="stroke: rgb(0, 0, 0); stroke-opacity: 1; stroke-width: 1px;"/><path class="ytick ticks crisp" d="M92.82589676290463,0h5" transform="translate(0,74.80524156702634)" style="stroke: rgb(0, 0, 0); stroke-opacity: 1; stroke-width: 1px;"/><path class="ytick ticks crisp" d="M92.82589676290463,0h5" transform="translate(0,53.87524156702635)" style="stroke: rgb(0, 0, 0); stroke-opacity: 1; stroke-width: 1px;"/><g class="ytick"><text text-anchor="end" x="89.02589676290464" y="4.8999999999999995" transform="translate(0,137.59524156702633)" style="font-family: sans-serif; font-size: 14px; fill: rgb(0, 0, 0); fill-opacity: 1; white-space: pre; opacity: 1;">0</text></g><g class="ytick"><text text-anchor="end" x="89.02589676290464" y="4.8999999999999995" style="font-family: sans-serif; font-size: 14px; fill: rgb(0, 0, 0); fill-opacity: 1; white-space: pre; opacity: 1;" transform="translate(0,116.66524156702634)">3.00×10⁴</text></g><g class="ytick"><text text-anchor="end" x="89.02589676290464" y="4.8999999999999995" style="font-family: sans-serif; font-size: 14px; fill: rgb(0, 0, 0); fill-opacity: 1; white-space: pre; opacity: 1;" transform="translate(0,95.73524156702635)">6.00×10⁴</text></g><g class="ytick"><text text-anchor="end" x="89.02589676290464" y="4.8999999999999995" style="font-family: sans-serif; font-size: 14px; fill: rgb(0, 0, 0); fill-opacity: 1; white-space: pre; opacity: 1;" transform="translate(0,74.80524156702634)">9.00×10⁴</text></g><g class="ytick"><text text-anchor="end" x="89.02589676290464" y="4.8999999999999995" style="font-family: sans-serif; font-size: 14px; fill: rgb(0, 0, 0); fill-opacity: 1; white-space: pre; opacity: 1;" transform="translate(0,53.87524156702635)">1.20×10⁵</text></g></g><g class="overaxes-above"/></g><g class="subplot xy2"><g class="layer-subplot"><g class="shapelayer"/><g class="imagelayer"/></g><g class="gridlayer"><g class="x"><path class="xgrid crisp" transform="translate(110.46589676290463,0)" d="M0,172.2459056034938v104.71018090241475" style="stroke: rgb(0, 0, 0); stroke-opacity: 0.1; stroke-width: 0.5px;"/><path class="xgrid crisp" transform="translate(134.96589676290463,0)" d="M0,172.2459056034938v104.71018090241475" style="stroke: rgb(0, 0, 0); stroke-opacity: 0.1; stroke-width: 0.5px;"/><path class="xgrid crisp" transform="translate(159.46589676290463,0)" d="M0,172.2459056034938v104.71018090241475" style="stroke: rgb(0, 0, 0); stroke-opacity: 0.1; stroke-width: 0.5px;"/><path class="xgrid crisp" transform="translate(183.95589676290462,0)" d="M0,172.2459056034938v104.71018090241475" style="stroke: rgb(0, 0, 0); stroke-opacity: 0.1; stroke-width: 0.5px;"/><path class="xgrid crisp" transform="translate(208.45589676290462,0)" d="M0,172.2459056034938v104.71018090241475" style="stroke: rgb(0, 0, 0); stroke-opacity: 0.1; stroke-width: 0.5px;"/><path class="xgrid crisp" transform="translate(232.95589676290462,0)" d="M0,172.2459056034938v104.71018090241475" style="stroke: rgb(0, 0, 0); stroke-opacity: 0.1; stroke-width: 0.5px;"/><path class="xgrid crisp" transform="translate(257.4558967629046,0)" d="M0,172.2459056034938v104.71018090241475" style="stroke: rgb(0, 0, 0); stroke-opacity: 0.1; stroke-width: 0.5px;"/><path class="xgrid crisp" transform="translate(281.9558967629046,0)" d="M0,172.2459056034938v104.71018090241475" style="stroke: rgb(0, 0, 0); stroke-opacity: 0.1; stroke-width: 0.5px;"/><path class="xgrid crisp" transform="translate(306.4558967629046,0)" d="M0,172.2459056034938v104.71018090241475" style="stroke: rgb(0, 0, 0); stroke-opacity: 0.1; stroke-width: 0.5px;"/><path class="xgrid crisp" transform="translate(330.9458967629046,0)" d="M0,172.2459056034938v104.71018090241475" style="stroke: rgb(0, 0, 0); stroke-opacity: 0.1; stroke-width: 0.5px;"/><path class="xgrid crisp" transform="translate(355.4458967629046,0)" d="M0,172.2459056034938v104.71018090241475" style="stroke: rgb(0, 0, 0); stroke-opacity: 0.1; stroke-width: 0.5px;"/><path class="xgrid crisp" transform="translate(379.9458967629046,0)" d="M0,172.2459056034938v104.71018090241475" style="stroke: rgb(0, 0, 0); stroke-opacity: 0.1; stroke-width: 0.5px;"/><path class="xgrid crisp" transform="translate(404.4458967629046,0)" d="M0,172.2459056034938v104.71018090241475" style="stroke: rgb(0, 0, 0); stroke-opacity: 0.1; stroke-width: 0.5px;"/><path class="xgrid crisp" transform="translate(428.9458967629046,0)" d="M0,172.2459056034938v104.71018090241475" style="stroke: rgb(0, 0, 0); stroke-opacity: 0.1; stroke-width: 0.5px;"/><path class="xgrid crisp" transform="translate(453.4458967629046,0)" d="M0,172.2459056034938v104.71018090241475" style="stroke: rgb(0, 0, 0); stroke-opacity: 0.1; stroke-width: 0.5px;"/><path class="xgrid crisp" transform="translate(477.93589676290463,0)" d="M0,172.2459056034938v104.71018090241475" style="stroke: rgb(0, 0, 0); stroke-opacity: 0.1; stroke-width: 0.5px;"/><path class="xgrid crisp" transform="translate(502.43589676290463,0)" d="M0,172.2459056034938v104.71018090241475" style="stroke: rgb(0, 0, 0); stroke-opacity: 0.1; stroke-width: 0.5px;"/><path class="xgrid crisp" transform="translate(526.9358967629047,0)" d="M0,172.2459056034938v104.71018090241475" style="stroke: rgb(0, 0, 0); stroke-opacity: 0.1; stroke-width: 0.5px;"/><path class="xgrid crisp" transform="translate(551.4358967629047,0)" d="M0,172.2459056034938v104.71018090241475" style="stroke: rgb(0, 0, 0); stroke-opacity: 0.1; stroke-width: 0.5px;"/><path class="xgrid crisp" transform="translate(575.9358967629047,0)" d="M0,172.2459056034938v104.71018090241475" style="stroke: rgb(0, 0, 0); stroke-opacity: 0.1; stroke-width: 0.5px;"/><path class="xgrid crisp" transform="translate(600.4358967629047,0)" d="M0,172.2459056034938v104.71018090241475" style="stroke: rgb(0, 0, 0); stroke-opacity: 0.1; stroke-width: 0.5px;"/><path class="xgrid crisp" transform="translate(624.9258967629047,0)" d="M0,172.2459056034938v104.71018090241475" style="stroke: rgb(0, 0, 0); stroke-opacity: 0.1; stroke-width: 0.5px;"/><path class="xgrid crisp" transform="translate(649.4258967629047,0)" d="M0,172.2459056034938v104.71018090241475" style="stroke: rgb(0, 0, 0); stroke-opacity: 0.1; stroke-width: 0.5px;"/><path class="xgrid crisp" transform="translate(673.9258967629047,0)" d="M0,172.2459056034938v104.71018090241475" style="stroke: rgb(0, 0, 0); stroke-opacity: 0.1; stroke-width: 0.5px;"/><path class="xgrid crisp" transform="translate(698.4258967629047,0)" d="M0,172.2459056034938v104.71018090241475" style="stroke: rgb(0, 0, 0); stroke-opacity: 0.1; stroke-width: 0.5px;"/></g><g class="y2"><path class="y2grid crisp" transform="translate(0,273.99590560349384)" d="M92.82589676290463,0h623.2370953630796" style="stroke: rgb(0, 0, 0); stroke-opacity: 0.1; stroke-width: 0.5px;"/><path class="y2grid crisp" transform="translate(0,251.51590560349382)" d="M92.82589676290463,0h623.2370953630796" style="stroke: rgb(0, 0, 0); stroke-opacity: 0.1; stroke-width: 0.5px;"/><path class="y2grid crisp" transform="translate(0,229.0359056034938)" d="M92.82589676290463,0h623.2370953630796" style="stroke: rgb(0, 0, 0); stroke-opacity: 0.1; stroke-width: 0.5px;"/><path class="y2grid crisp" transform="translate(0,206.5559056034938)" d="M92.82589676290463,0h623.2370953630796" style="stroke: rgb(0, 0, 0); stroke-opacity: 0.1; stroke-width: 0.5px;"/><path class="y2grid crisp" transform="translate(0,184.0659056034938)" d="M92.82589676290463,0h623.2370953630796" style="stroke: rgb(0, 0, 0); stroke-opacity: 0.1; stroke-width: 0.5px;"/></g></g><g class="zerolinelayer"/><path class="xlines-below"/><path class="ylines-below"/><g class="overlines-below"/><g class="xaxislayer-below"/><g class="yaxislayer-below"/><g class="overaxes-below"/><g class="plot" transform="translate(92.82589676290463,172.2459056034938)" clip-path="url(#clip28186dxy2plot)"><g class="scatterlayer mlayer"><g class="trace scatter tracebd72d9" style="stroke-miterlimit: 2; opacity: 1;"><g class="fills"/><g class="errorbars"/><g class="lines"><path class="js-line" d="M17.64,101.75L97.67,101.6L97.67,100.69L103.38,100.76L103.38,101.75L216.89,101.57L216.89,99.61L219.34,99.61L219.34,100.85L220.16,100.85L220.16,101.75L347.55,101.53L347.55,99.19L348.37,99.19L348.37,100.37L349.18,100.37L349.18,101.75L597.43,101.75L597.43,101.75" style="vector-effect: non-scaling-stroke; fill: none; stroke: rgb(0, 154, 250); stroke-opacity: 1; stroke-width: 1px; opacity: 1;"/></g><g class="points"/><g class="text"/></g><g class="trace scatter tracee6be9c" style="stroke-miterlimit: 2; opacity: 1;"><g class="fills"/><g class="errorbars"/><g class="lines"><path class="js-line" d="M17.64,98.87L18.46,98.87L18.46,81.45L22.54,80.73L22.54,81.55L23.36,81.55L23.36,80.74L24.17,80.74L24.17,81.71L24.99,81.71L24.99,80.67L26.62,80.85L26.62,81.44L29.07,81.31L29.07,78.15L29.89,78.15L29.89,80.67L31.52,80.84L31.52,81.45L34.79,80.9L34.79,80.5L35.6,80.5L35.6,78.04L36.42,78.04L36.42,80.74L37.24,80.74L37.24,81.71L38.05,81.71L38.05,80.67L39.69,80.85L39.69,81.44L40.5,81.44L40.5,80.5L41.32,80.5L41.32,78.2L42.14,78.2L42.14,81.01L47.04,81.45L47.04,80.58L47.85,80.58L47.85,78.13L48.67,78.13L48.67,80.73L50.3,80.74L50.3,81.71L51.12,81.71L51.12,80.67L53.57,81.29L53.57,78.33L54.39,78.33L54.39,80.52L56.02,81.01L56.02,81.44L58.47,80.76L58.47,81.69L59.29,81.69L59.29,80.48L60.1,80.48L60.1,78.22L60.92,78.22L60.92,80.69L65,81.44L65,80.5L65.82,80.5L65.82,78.19L66.64,78.19L66.64,80.73L68.27,80.77L68.27,81.69L69.09,81.69L69.09,80.69L72.35,80.67L72.35,77.88L73.17,77.88L73.17,81.02L76.43,80.76L76.43,81.52L77.25,81.52L77.25,80.53L78.07,80.53L78.07,79.13L79.7,79.8L79.7,81.52L81.33,80.77L81.33,81.69L82.15,81.69L82.15,80.76L82.97,80.76L82.97,81.8L84.6,81.34L84.6,77.09L85.42,77.09L85.42,80.75L86.23,80.75L86.23,81.7L87.05,81.7L87.05,80.74L87.87,80.74L87.87,81.71L88.68,81.71L88.68,80.72L90.32,81.15L90.32,77.39L91.13,77.39L91.13,81.72L91.95,81.72L91.95,80.72L92.77,80.72L92.77,81.73L93.58,81.73L93.58,80.7L94.4,80.7L94.4,81.57L95.22,81.57L95.22,80.71L96.85,81.42L96.85,77.27L97.67,77.27L97.67,81.61L102.57,81.23L102.57,77.4L103.38,77.4L103.38,80.89L105.83,81.55L105.83,80.74L106.65,80.74L106.65,81.71L107.47,81.71L107.47,80.72L108.28,80.72L108.28,81.56L109.1,81.56L109.1,80.73L109.92,80.73L109.92,81.72L110.73,81.72L110.73,80.72L111.55,80.72L111.55,81.83L113.18,81.51L113.18,80.79L114.82,81.26L114.82,78.27L115.63,78.27L115.63,81.72L116.45,81.72L116.45,80.71L117.27,80.71L117.27,81.69L118.9,81.66L118.9,80.79L119.72,80.79L119.72,81.67L120.53,81.67L120.53,80.4L121.35,80.4L121.35,78.26L122.16,78.26L122.16,81.44L126.25,81.44L126.25,80.36L127.06,80.36L127.06,78.21L127.88,78.21L127.88,81.77L130.33,81.4L130.33,80.88L133.6,81.09L133.6,77.47L134.41,77.47L134.41,81.56L138.5,81.42L138.5,80.32L139.31,80.32L139.31,78.39L140.13,78.39L140.13,81.01L145.03,80.76L145.03,81.69L145.85,81.69L145.85,80.75L146.66,80.75L146.66,81.7L147.48,81.7L147.48,80.73L148.3,80.73L148.3,81.55L149.11,81.55L149.11,80.74L149.93,80.74L149.93,81.71L150.75,81.71L150.75,80.54L151.56,80.54L151.56,78.33L152.38,78.33L152.38,80.51L154.01,80.85L154.01,81.44L158.1,81.31L158.1,77.39L158.91,77.39L158.91,81.45L163.81,81.15L163.81,77.39L164.63,77.39L164.63,81.72L165.45,81.72L165.45,80.68L167.08,81.01L167.08,81.44L169.53,81.45L169.53,80.55L170.34,80.55L170.34,78.15L171.16,78.15L171.16,81L176.06,81.43L176.06,77.43L176.88,77.43L176.88,81.31L178.51,80.86L178.51,81.66L179.33,81.66L179.33,80.77L180.96,81.51L180.96,80.7L182.59,80.36L182.59,78.34L183.41,78.34L183.41,81.03L188.31,81.26L188.31,78.82L189.13,78.82L189.13,80.12L189.94,80.12L189.94,81.94L191.58,82.25L191.58,80.77L192.39,80.77L192.39,81.69L193.21,81.69L193.21,80.69L194.84,80.43L194.84,78.26L195.66,78.26L195.66,80.86L200.56,81.29L200.56,78.31L201.38,78.31L201.38,80.37L203.01,81.01L203.01,81.48L204.64,81.73L204.64,80.7L205.46,80.7L205.46,81.57L206.28,81.57L206.28,80.58L207.09,80.58L207.09,78.13L207.91,78.13L207.91,80.7L208.73,80.7L208.73,81.58L209.54,81.58L209.54,80.7L210.36,80.7L210.36,81.75L211.18,81.75L211.18,80.69L211.99,80.69L211.99,81.62L212.81,81.62L212.81,78.8L213.63,78.8L213.63,79.88L214.44,79.88L214.44,80.68L215.26,80.68L215.26,81.79L216.08,81.79L216.08,81.02L218.52,81.71L218.52,80.46L219.34,80.46L219.34,77.32L220.16,77.32L220.16,81.48L222.61,81.46L222.61,80.91L225.06,81.24L225.06,79.28L226.69,79.59L226.69,81.03L229.14,80.69L229.14,81.59L229.96,81.59L229.96,80.69L230.77,80.69L230.77,81.5L231.59,81.5L231.59,77.2L232.41,77.2L232.41,81.79L233.22,81.79L233.22,80.89L234.86,80.77L234.86,81.53L237.31,80.96L237.31,77.59L238.12,77.59L238.12,81.7L238.94,81.7L238.94,80.86L240.57,81.23L240.57,81.73L243.02,81.46L243.02,80.93L243.84,80.93L243.84,78.11L244.66,78.11L244.66,81.05L245.47,81.05L245.47,81.84L246.29,81.84L246.29,80.86L247.92,81.23L247.92,81.71L248.74,81.71L248.74,80.34L249.56,80.34L249.56,78.37L250.37,78.37L250.37,80.89L252.01,80.75L252.01,81.67L254.46,81.09L254.46,80.88L256.09,81.4L256.09,77.44L256.91,77.44L256.91,81.02L258.54,81.62L258.54,82.14L259.36,82.14L259.36,81.17L260.99,81.45L260.99,80.55L261.81,80.55L261.81,78.15L262.62,78.15L262.62,81L268.34,81.26L268.34,77.39L269.15,77.39L269.15,81.96L269.97,81.96L269.97,81.02L273.24,81.45L273.24,80.55L274.05,80.55L274.05,78.15L274.87,78.15L274.87,81L280.59,81.03L280.59,77.7L281.4,77.7L281.4,81.56L283.04,80.83L283.04,81.81L285.49,81.44L285.49,80.42L286.3,80.42L286.3,77.64L287.12,77.64L287.12,81.65L291.2,81.76L291.2,80.68L292.02,80.68L292.02,81.5L292.84,81.5L292.84,77.42L293.65,77.42L293.65,81.58L295.29,80.89L295.29,80.78L296.1,80.78L296.1,81.72L297.74,80.99L297.74,80.49L298.55,80.49L298.55,78.39L299.37,78.39L299.37,81.03L301.82,80.9L301.82,80.75L302.64,80.75L302.64,81.7L303.45,81.7L303.45,80.73L305.09,81.11L305.09,77.38L305.9,77.38L305.9,81.04L310.8,81.06L310.8,77.83L311.62,77.83L311.62,81.31L314.88,81.72L314.88,80.92L316.52,80.91L316.52,81.74L320.6,81.52L320.6,81.85L321.42,81.85L321.42,80.91L323.05,81.35L323.05,78.15L323.87,78.15L323.87,80.92L325.5,80.89L325.5,81.91L326.32,81.91L326.32,80.84L327.95,81.21L327.95,81.65L328.77,81.65L328.77,80.37L329.58,80.37L329.58,78.39L330.4,78.39L330.4,81.07L332.03,81.71L332.03,80.9L332.85,80.9L332.85,81.84L334.48,81.76L334.48,80.78L335.3,80.78L335.3,77.41L336.12,77.41L336.12,81.22L337.75,81.84L337.75,80.87L338.57,80.87L338.57,82.46L339.38,82.46L339.38,87.85L340.2,87.85L340.2,81.71L341.02,81.71L341.02,80.48L341.83,80.48L341.83,77.5L342.65,77.5L342.65,81.78L343.47,81.78L343.47,86.17L344.28,86.17L344.28,79.84L345.1,79.84L345.1,81.02L346.73,81.62L346.73,81.81L347.55,81.81L347.55,79.21L348.37,79.21L348.37,87.72L349.18,87.72L349.18,90.94L350,90.94L350,86L350.82,86L350.82,82.71L351.63,82.71L351.63,80.03L352.45,80.03L352.45,82.02L354.9,81.45L354.9,80.99L357.35,80.84L357.35,81.61L358.98,81.61L358.98,80.67L359.8,80.67L359.8,78.05L360.62,78.05L360.62,81.02L364.7,81.5L364.7,85.75L366.33,85.07L366.33,79.02L367.15,79.02L367.15,80.69L367.96,80.69L367.96,82.67L369.6,82.29L369.6,86.7L370.41,86.7L370.41,79.85L372.05,80.36L372.05,78.18L372.86,78.18L372.86,81L376.95,81.02L376.95,81.61L377.76,81.61L377.76,80.43L378.58,80.43L378.58,78.11L379.4,78.11L379.4,80.99L381.03,81.46L381.03,81.84L383.48,82.52L383.48,81.38L384.3,81.38L384.3,79.08L385.11,79.08L385.11,82.63L385.93,82.63L385.93,81.81L386.75,81.81L386.75,82.57L389.2,82.17L389.2,81.8L390.83,82.01L390.83,78.74L391.65,78.74L391.65,82.18L394.1,82.57L394.1,81.78L396.55,81.59L396.55,79.45L397.36,79.45L397.36,81.17L398.18,81.17L398.18,82.67L399,82.67L399,81.69L400.63,81.98L400.63,82.61L402.26,82.19L402.26,81.62L403.08,81.62L403.08,79.01L403.9,79.01L403.9,81.91L407.16,82.61L407.16,81.7L408.8,81.25L408.8,79.11L409.61,79.11L409.61,81.95L411.25,82.53L411.25,81.47L415.33,81.56L415.33,72.05L416.14,72.05L416.14,81.64L422.68,81.01L422.68,81.77L423.49,81.77L423.49,80.9L427.58,81.27L427.58,77.37L428.39,77.37L428.39,80.86L430.03,81.49L430.03,81.71L430.84,81.71L430.84,80.73L431.66,80.73L431.66,81.72L432.48,81.72L432.48,80.55L433.29,80.55L433.29,78.14L434.11,78.14L434.11,80.56L434.93,80.56L434.93,81.76L437.38,81.4L437.38,80.88L439.83,81.29L439.83,78.2L440.64,78.2L440.64,81.01L447.18,81.01L447.18,81.61L449.63,81.4L449.63,80.68L450.44,80.68L450.44,81.84L452.89,81.45L452.89,81L454.53,81.47L454.53,81.76L455.34,81.76L455.34,80.68L456.16,80.68L456.16,81.69L457.79,81.23L457.79,77.47L458.61,77.47L458.61,81.8L460.24,81.45L460.24,80.83L461.87,81.47L461.87,81.77L462.69,81.77L462.69,80.9L464.32,81.35L464.32,78.17L465.14,78.17L465.14,81.45L467.59,80.73L467.59,81.55L468.41,81.55L468.41,80.74L470.04,81.3L470.04,77.39L470.86,77.39L470.86,81.72L471.67,81.72L471.67,80.71L472.49,80.71L472.49,81.57L473.31,81.57L473.31,80.68L474.94,81.01L474.94,81.45L475.76,81.45L475.76,80.55L476.57,80.55L476.57,78.15L477.39,78.15L477.39,80.83L482.29,81.58L482.29,77.33L483.11,77.33L483.11,80.41L483.92,80.41L483.92,81.72L484.74,81.72L484.74,80.71L485.56,80.71L485.56,81.57L486.37,81.57L486.37,80.68L488.82,81.31L488.82,77.39L489.64,77.39L489.64,81.47L491.27,81.58L491.27,80.68L492.91,81L492.91,81.47L494.54,81.5L494.54,77.2L495.36,77.2L495.36,81.6L496.17,81.6L496.17,80.68L496.99,80.68L496.99,81.78L497.81,81.78L497.81,80.89L499.44,81.56L499.44,80.73L501.07,80.39L501.07,78.44L501.89,78.44L501.89,81.43L505.97,81.44L505.97,80.4L506.79,80.4L506.79,77.5L507.61,77.5L507.61,81.53L508.42,81.53L508.42,80.76L509.24,80.76L509.24,81.8L510.87,81.45L510.87,80.9L513.32,81.11L513.32,77.38L514.14,77.38L514.14,81.02L519.04,81.31L519.04,78.15L519.85,78.15L519.85,80.67L521.49,80.84L521.49,81.45L525.57,81.38L525.57,77.15L526.39,77.15L526.39,81.45L531.29,81.34L531.29,77.35L532.1,77.35L532.1,81.73L532.92,81.73L532.92,80.7L533.74,80.7L533.74,81.57L534.55,81.57L534.55,80.68L536.19,81L536.19,81.45L537,81.45L537,80.58L537.82,80.58L537.82,78.13L538.64,78.13L538.64,80.83L541.9,80.72L541.9,81.56L542.72,81.56L542.72,80.54L543.54,80.54L543.54,78.33L544.35,78.33L544.35,80.52L546.8,80.75L546.8,81.53L547.62,81.53L547.62,80.76L548.44,80.76L548.44,81.69L549.25,81.69L549.25,80.48L550.07,80.48L550.07,78.22L550.89,78.22L550.89,80.68L554.97,81.43L554.97,80.32L555.79,80.32L555.79,78.23L556.6,78.23L556.6,80.89L558.23,80.77L558.23,81.69L559.05,81.69L559.05,80.68L562.32,80.65L562.32,78.06L563.13,78.06L563.13,80.67L563.95,80.67L563.95,81.79L564.77,81.79L564.77,80.73L566.4,80.79L566.4,81.79L568.03,81.29L568.03,78.22L568.85,78.22L568.85,79.67L569.67,79.67L569.67,81.68L570.48,81.68L570.48,80.77L571.3,80.77L571.3,81.69L572.12,81.69L572.12,80.68L574.57,81.11L574.57,77.59L575.38,77.59L575.38,81.49L577.02,81.7L577.02,80.73L577.83,80.73L577.83,81.55L578.65,81.55L578.65,80.74L580.28,81.3L580.28,77.38L581.1,77.38L581.1,81.67L582.73,81.61L582.73,80.86L583.55,80.86L583.55,81.66L584.37,81.66L584.37,80.77L586,81.51L586,80.28L586.82,80.28L586.82,77.71L587.63,77.71L587.63,81.41L591.72,80.83L591.72,81.46L594.98,81.77L594.98,80.67L595.8,80.67L595.8,81.63L599.07,81.11L599.07,77.43L599.88,77.43L599.88,81.71L600.7,81.71L600.7,80.68L602.33,81.01L602.33,81.47L603.97,81.57L603.97,80.72L604.78,80.72L604.78,83.84L605.6,83.84L605.6,101.75" style="vector-effect: non-scaling-stroke; fill: none; stroke: rgb(227, 111, 71); stroke-opacity: 1; stroke-width: 1px; opacity: 1;"/></g><g class="points"/><g class="text"/></g><g class="trace scatter tracefdc356" style="stroke-miterlimit: 2; opacity: 1;"><g class="fills"/><g class="errorbars"/><g class="lines"><path class="js-line" d="M17.64,98.87L18.46,98.87L18.46,81.45L22.54,80.73L22.54,81.55L23.36,81.55L23.36,80.74L24.17,80.74L24.17,81.71L24.99,81.71L24.99,80.67L26.62,80.85L26.62,81.44L29.89,81.73L29.89,80.67L31.52,80.84L31.52,81.45L35.6,80.73L35.6,81.55L36.42,81.55L36.42,80.74L37.24,80.74L37.24,81.71L38.05,81.71L38.05,80.67L39.69,80.85L39.69,81.44L40.5,81.44L40.5,80L41.32,80L41.32,74.96L42.14,74.96L42.14,81.01L50.3,80.74L50.3,81.71L51.12,81.71L51.12,80.67L53.57,81.14L53.57,75.39L54.39,75.39L54.39,79.86L55.2,79.86L55.2,81.01L58.47,80.76L58.47,81.69L59.29,81.69L59.29,80.75L60.1,80.75L60.1,81.7L60.92,81.7L60.92,80.69L68.27,80.77L68.27,81.69L69.09,81.69L69.09,80.69L72.35,80.67L72.35,81.63L75.62,80.89L75.62,80.76L76.43,80.76L76.43,81.52L78.07,80.87L78.07,82.53L78.88,82.53L78.88,79.8L79.7,79.8L79.7,81.52L81.33,80.77L81.33,81.69L82.15,81.69L82.15,80.76L82.97,80.76L82.97,81.8L84.6,81.45L84.6,80.73L86.23,80.75L86.23,81.7L87.05,81.7L87.05,80.74L87.87,80.74L87.87,81.71L88.68,81.71L88.68,80.72L90.32,80.74L90.32,74.06L91.13,74.06L91.13,81.72L91.95,81.72L91.95,80.72L92.77,80.72L92.77,81.73L93.58,81.73L93.58,80.7L94.4,80.7L94.4,81.57L95.22,81.57L95.22,80.71L96.03,80.71L96.03,81.74L96.85,81.74L96.85,80.7L97.67,80.7L97.67,81.61L102.57,81.69L102.57,80.68L104.2,80.89L104.2,81.62L105.83,81.55L105.83,80.74L106.65,80.74L106.65,81.71L107.47,81.71L107.47,80.72L108.28,80.72L108.28,81.56L109.1,81.56L109.1,80.73L109.92,80.73L109.92,81.72L110.73,81.72L110.73,80.72L111.55,80.72L111.55,81.83L113.18,81.51L113.18,80.79L114,80.79L114,81.79L116.45,81.72L116.45,80.71L117.27,80.71L117.27,81.69L118.9,81.66L118.9,80.79L119.72,80.79L119.72,81.67L120.53,81.67L120.53,80.76L121.35,80.76L121.35,81.64L126.25,81.44L126.25,80.84L127.88,81.48L127.88,81.77L130.33,81.4L130.33,80.88L143.4,81.44L143.4,80.73L145.03,80.76L145.03,81.69L145.85,81.69L145.85,80.75L146.66,80.75L146.66,81.7L147.48,81.7L147.48,80.73L148.3,80.73L148.3,81.55L149.11,81.55L149.11,80.74L149.93,80.74L149.93,81.71L150.75,81.71L150.75,80.74L151.56,80.74L151.56,81.87L152.38,81.87L152.38,80.51L154.01,80.85L154.01,81.44L163,80.72L163,81.56L163.81,81.56L163.81,80.73L164.63,80.73L164.63,81.72L165.45,81.72L165.45,80.68L167.08,81.01L167.08,81.44L178.51,80.86L178.51,81.66L179.33,81.66L179.33,80.77L180.96,81.51L180.96,80.7L187.49,80.87L187.49,81.54L189.13,82.28L189.13,80.12L189.94,80.12L189.94,81.94L191.58,82.25L191.58,80.77L192.39,80.77L192.39,81.69L193.21,81.69L193.21,80.69L199.74,81.02L199.74,81.49L201.38,81.86L201.38,80.37L203.01,81.01L203.01,81.48L204.64,81.73L204.64,80.7L205.46,80.7L205.46,81.57L206.28,81.57L206.28,80.71L207.09,80.71L207.09,81.74L207.91,81.74L207.91,80.7L208.73,80.7L208.73,81.58L209.54,81.58L209.54,80.7L210.36,80.7L210.36,81.75L211.18,81.75L211.18,80.69L211.99,80.69L211.99,81.9L213.63,82.26L213.63,79.88L214.44,79.88L214.44,80.68L215.26,80.68L215.26,81.91L216.89,82.46L216.89,79.93L217.71,79.93L217.71,81.71L218.52,81.71L218.52,80.67L220.16,80.85L220.16,81.48L223.42,81.39L223.42,80.89L225.06,81.62L225.06,82.66L225.87,82.66L225.87,79.59L226.69,79.59L226.69,81.03L229.14,80.69L229.14,81.59L229.96,81.59L229.96,80.69L230.77,80.69L230.77,81.76L231.59,81.76L231.59,80.68L232.41,80.68L232.41,81.79L233.22,81.79L233.22,80.89L234.86,80.77L234.86,81.53L238.12,80.78L238.12,81.7L238.94,81.7L238.94,80.86L240.57,81.23L240.57,81.73L245.47,81.05L245.47,81.84L246.29,81.84L246.29,80.86L247.92,81.23L247.92,81.71L248.74,81.71L248.74,80.88L251.19,80.89L251.19,80.75L252.01,80.75L252.01,81.67L254.46,81.09L254.46,80.88L255.27,80.88L255.27,81.75L256.09,81.75L256.09,80.84L257.72,81.02L257.72,81.62L259.36,82.14L259.36,81.17L265.89,81.61L265.89,80.78L267.52,81.22L267.52,81.55L269.15,80.85L269.15,82.99L269.97,82.99L269.97,79.99L270.79,79.99L270.79,81.45L283.04,80.83L283.04,81.81L285.49,81.44L285.49,80.92L287.12,80.89L287.12,81.65L291.2,81.76L291.2,80.68L292.02,80.68L292.02,81.77L292.84,81.77L292.84,80.67L293.65,80.67L293.65,81.8L294.47,81.8L294.47,80.89L296.1,80.78L296.1,81.72L301,81.59L301,80.9L302.64,80.75L302.64,81.7L303.45,81.7L303.45,80.73L304.27,80.73L304.27,81.55L305.09,81.55L305.09,80.69L306.72,81.04L306.72,81.58L314.07,81.23L314.07,81.72L314.88,81.72L314.88,80.92L316.52,80.91L316.52,81.74L320.6,81.52L320.6,81.85L321.42,81.85L321.42,80.91L322.23,80.91L322.23,81.8L323.87,81.45L323.87,80.92L325.5,80.89L325.5,81.91L326.32,81.91L326.32,80.84L327.95,81.21L327.95,81.65L328.77,81.65L328.77,80.8L329.58,80.8L329.58,81.71L332.03,81.71L332.03,80.9L332.85,80.9L332.85,81.84L335.3,81.1L335.3,80.84L336.93,81.22L336.93,81.84L337.75,81.84L337.75,80.87L338.57,80.87L338.57,82.46L339.38,82.46L339.38,87.85L340.2,87.85L340.2,81.71L341.02,81.71L341.02,80.68L342.65,81.03L342.65,81.78L343.47,81.78L343.47,86.17L344.28,86.17L344.28,79.84L345.1,79.84L345.1,81.02L346.73,81.62L346.73,82.04L348.37,82.73L348.37,87.72L349.18,87.72L349.18,90.94L350,90.94L350,86L350.82,86L350.82,82.71L351.63,82.71L351.63,80.03L352.45,80.03L352.45,82.02L354.9,81.45L354.9,80.99L357.35,80.84L357.35,81.61L358.98,81.61L358.98,80.67L359.8,80.67L359.8,81.8L360.62,81.8L360.62,81.02L364.7,81.5L364.7,85.75L366.33,85.3L366.33,82.54L367.15,82.54L367.15,80.69L367.96,80.69L367.96,82.67L369.6,82.29L369.6,86.7L370.41,86.7L370.41,79.85L371.23,79.85L371.23,80.84L376.95,81.02L376.95,81.61L377.76,81.61L377.76,80.82L381.03,81.46L381.03,81.84L383.48,82.52L383.48,81.5L384.3,81.5L384.3,82.7L385.93,82.63L385.93,81.81L386.75,81.81L386.75,82.57L389.2,82.17L389.2,81.8L390.01,81.8L390.01,82.58L394.1,82.57L394.1,81.78L396.55,81.97L396.55,82.83L397.36,82.83L397.36,81.17L398.18,81.17L398.18,82.67L399,82.67L399,81.69L400.63,82.38L400.63,85.29L401.45,85.29L401.45,79.12L402.26,79.12L402.26,81.9L407.16,82.61L407.16,81.7L410.43,81.95L410.43,82.53L411.25,82.53L411.25,81.47L415.33,81.9L415.33,82.62L416.14,82.62L416.14,81.64L422.68,81.01L422.68,81.77L423.49,81.77L423.49,80.9L426.76,81.49L426.76,81.7L427.58,81.7L427.58,80.68L429.21,80.86L429.21,81.49L430.84,81.71L430.84,80.73L431.66,80.73L431.66,81.72L432.48,81.72L432.48,80.72L433.29,80.72L433.29,81.72L434.11,81.72L434.11,80.56L434.93,80.56L434.93,81.76L437.38,81.4L437.38,80.88L439.01,81.5L439.01,81.79L440.64,81.44L440.64,81.01L447.18,81.01L447.18,81.61L449.63,81.4L449.63,80.68L450.44,80.68L450.44,81.84L452.89,81.45L452.89,81L454.53,81.47L454.53,81.76L455.34,81.76L455.34,80.68L456.16,80.68L456.16,81.69L457.79,81.69L457.79,80.75L458.61,80.75L458.61,81.8L460.24,81.45L460.24,80.83L461.87,81.47L461.87,81.77L462.69,81.77L462.69,80.9L466.77,80.9L466.77,80.73L467.59,80.73L467.59,81.55L468.41,81.55L468.41,80.74L470.04,80.9L470.04,74.06L470.86,74.06L470.86,81.72L471.67,81.72L471.67,80.71L472.49,80.71L472.49,81.57L473.31,81.57L473.31,80.68L474.94,81.01L474.94,81.45L481.47,80.85L481.47,81.61L483.11,81.04L483.11,80.41L483.92,80.41L483.92,81.72L484.74,81.72L484.74,80.71L485.56,80.71L485.56,81.57L486.37,81.57L486.37,80.68L488.01,81.01L488.01,81.45L491.27,81.58L491.27,80.68L492.91,81L492.91,81.47L494.54,81.76L494.54,80.68L495.36,80.68L495.36,81.6L496.17,81.6L496.17,80.68L496.99,80.68L496.99,81.77L497.81,81.77L497.81,80.67L498.62,80.67L498.62,81.79L499.44,81.79L499.44,80.73L501.07,80.79L501.07,81.79L502.71,81.43L502.71,80.85L507.61,80.75L507.61,81.53L508.42,81.53L508.42,80.76L509.24,80.76L509.24,81.8L510.87,81.45L510.87,80.9L512.5,80.73L512.5,81.55L513.32,81.55L513.32,80.69L518.22,81.01L518.22,81.48L519.85,81.73L519.85,80.67L521.49,80.84L521.49,81.45L530.47,80.73L530.47,81.72L531.29,81.72L531.29,80.72L532.1,80.72L532.1,81.73L532.92,81.73L532.92,80.7L533.74,80.7L533.74,81.57L534.55,81.57L534.55,80.68L536.19,81L536.19,81.45L541.9,80.72L541.9,81.56L542.72,81.56L542.72,80.74L543.54,80.74L543.54,81.87L544.35,81.87L544.35,80.52L546.8,80.75L546.8,81.53L547.62,81.53L547.62,80.76L548.44,80.76L548.44,81.69L549.25,81.69L549.25,80.75L550.07,80.75L550.07,81.7L550.89,81.7L550.89,80.68L555.79,80.85L555.79,81.44L558.23,80.77L558.23,81.69L559.05,81.69L559.05,80.68L562.32,80.68L562.32,81.77L563.13,81.77L563.13,80.67L563.95,80.67L563.95,81.79L564.77,81.79L564.77,80.73L566.4,80.79L566.4,81.79L568.85,81.77L568.85,79.67L569.67,79.67L569.67,81.68L570.48,81.68L570.48,80.77L571.3,80.77L571.3,81.69L572.12,81.69L572.12,80.68L574.57,80.8L574.57,74.16L575.38,74.16L575.38,81.49L577.02,81.7L577.02,80.73L577.83,80.73L577.83,81.55L578.65,81.55L578.65,80.74L579.47,80.74L579.47,81.71L580.28,81.71L580.28,80.72L581.1,80.72L581.1,81.67L582.73,81.61L582.73,80.82L586,81.51L586,80.7L591.72,80.83L591.72,81.46L594.98,81.77L594.98,80.67L595.8,80.67L595.8,81.63L599.07,81.55L599.07,80.74L599.88,80.74L599.88,81.71L600.7,81.71L600.7,80.68L602.33,81.01L602.33,81.47L603.97,81.57L603.97,80.72L604.78,80.72L604.78,83.84L605.6,83.84L605.6,101.75" style="vector-effect: non-scaling-stroke; fill: none; stroke: rgb(62, 164, 78); stroke-opacity: 1; stroke-width: 1px; opacity: 1;"/></g><g class="points"/><g class="text"/></g><g class="trace scatter trace0f868c" style="stroke-miterlimit: 2; opacity: 1;"><g class="fills"/><g class="errorbars"/><g class="lines"><path class="js-line" d="M17.64,101.01L18.46,101.01L18.46,13.38L22.54,14.1L22.54,13.24L23.36,13.24L23.36,10.42L24.17,10.42L24.17,14.11L29.07,13.95L29.07,10.42L29.89,10.42L29.89,14.11L35.6,14.03L35.6,9.71L36.42,9.71L36.42,14.02L40.5,14.02L40.5,13.29L41.32,13.29L41.32,10.46L42.14,10.46L42.14,14.02L47.85,14.02L47.85,10.35L48.67,10.35L48.67,13.39L53.57,14.02L53.57,9.63L54.39,9.63L54.39,14.02L60.1,14.02L60.1,10.36L60.92,10.36L60.92,14.11L64.19,14.09L64.19,13.31L65.82,14.02L65.82,10.36L66.64,10.36L66.64,14.11L68.27,14.08L68.27,13.31L69.09,13.31L69.09,14.11L72.35,14.02L72.35,9.63L73.17,9.63L73.17,14.02L77.25,14.09L77.25,13.27L78.07,13.27L78.07,10.39L78.88,10.39L78.88,14.02L81.33,14.08L81.33,13.31L82.15,13.31L82.15,14.11L84.6,14.02L84.6,10.36L85.42,10.36L85.42,13.38L90.32,14L90.32,9.65L91.13,9.65L91.13,14.11L94.4,14.08L94.4,13.31L95.22,13.31L95.22,14.11L96.85,13.99L96.85,10.39L97.67,10.39L97.67,14.02L102.57,13.99L102.57,10.4L103.38,10.4L103.38,14.11L109.1,14.02L109.1,10.36L109.92,10.36L109.92,13.38L114,14.01L114,13.26L114.82,13.26L114.82,10.39L115.63,10.39L115.63,14.11L121.35,13.99L121.35,10.39L122.16,10.39L122.16,14.02L127.06,13.98L127.06,9.67L127.88,9.67L127.88,14.02L133.6,13.99L133.6,10.39L134.41,10.39L134.41,14.11L139.31,13.99L139.31,10.39L140.13,10.39L140.13,14.11L145.85,13.99L145.85,10.39L146.66,10.39L146.66,14.02L149.11,14.08L149.11,13.31L149.93,13.31L149.93,14.11L151.56,13.99L151.56,10.39L152.38,10.39L152.38,14.02L157.28,14.01L157.28,13.26L158.1,13.26L158.1,10.39L158.91,10.39L158.91,14.11L163.81,14.02L163.81,10.36L164.63,10.36L164.63,13.38L170.34,13.99L170.34,10.39L171.16,10.39L171.16,14.02L176.06,13.99L176.06,10.39L176.88,10.39L176.88,14.02L181.78,14.01L181.78,13.26L182.59,13.26L182.59,10.39L183.41,10.39L183.41,14.11L188.31,14L188.31,9.65L189.13,9.65L189.13,14.11L192.39,14.08L192.39,13.31L193.21,13.31L193.21,14.11L194.84,13.99L194.84,10.39L195.66,10.39L195.66,14.02L200.56,13.99L200.56,10.38L201.38,10.38L201.38,13.31L202.19,13.31L202.19,14.11L205.46,14.08L205.46,13.31L207.09,13.99L207.09,10.39L207.91,10.39L207.91,14.11L212.81,13.99L212.81,10.39L213.63,10.39L213.63,14.09L214.44,14.09L214.44,13.31L215.26,13.31L215.26,14.13L216.89,14.73L216.89,9.64L217.71,9.64L217.71,14.11L219.34,13.99L219.34,10.39L220.16,10.39L220.16,14.02L225.06,13.98L225.06,9.67L225.87,9.67L225.87,14.02L230.77,14.03L230.77,14.72L231.59,14.72L231.59,9.65L232.41,9.65L232.41,14.11L237.31,14.02L237.31,10.36L238.12,10.36L238.12,13.4L238.94,13.4L238.94,14.87L240.57,15.54L240.57,14.73L243.02,14.16L243.02,15.4L243.84,15.4L243.84,10.39L244.66,10.39L244.66,14.13L246.29,14.87L246.29,15.54L247.11,15.54L247.11,14.73L248.74,14.83L248.74,13.29L249.56,13.29L249.56,11.1L250.37,11.1L250.37,14.11L253.64,14.13L253.64,14.84L256.09,14.81L256.09,10.41L256.91,10.41L256.91,14.82L257.72,14.82L257.72,14.03L258.54,14.03L258.54,15.57L260.17,14.83L260.17,14.11L261.81,13.99L261.81,10.4L262.62,10.4L262.62,14.11L266.7,14.12L266.7,14.83L267.52,14.83L267.52,13.99L268.34,13.99L268.34,11.13L269.15,11.13L269.15,14.83L270.79,14.11L270.79,14.02L271.6,14.02L271.6,14.83L273.24,14.11L273.24,13.99L274.05,13.99L274.05,10.39L274.87,10.39L274.87,14.02L278.14,14.02L278.14,14.85L279.77,14.81L279.77,13.37L280.59,13.37L280.59,21.56L281.4,21.56L281.4,14.84L284.67,14.83L284.67,14.02L285.49,14.02L285.49,14.81L286.3,14.81L286.3,10.39L287.12,10.39L287.12,14.02L287.94,14.02L287.94,15.66L288.75,15.66L288.75,14.04L289.57,14.04L289.57,15.55L290.39,15.55L290.39,14.11L292.84,14.02L292.84,10.36L293.65,10.36L293.65,14.11L297.74,14.83L297.74,13.72L298.55,13.72L298.55,4.63L299.37,4.63L299.37,13.4L300.19,13.4L300.19,14.82L301,14.82L301,14.02L304.27,14.05L304.27,10.36L305.9,10.33L305.9,14.11L308.35,13.4L308.35,14.87L309.99,15.6L309.99,16.15L310.8,16.15L310.8,11.19L311.62,11.19L311.62,14.73L312.44,14.73L312.44,15.72L314.88,15.57L314.88,14.11L317.33,14L317.33,11.84L318.15,11.84L318.15,14.13L319.78,14.82L319.78,14.02L321.42,14.13L321.42,14.82L322.23,14.82L322.23,13.99L323.05,13.99L323.05,10.41L323.87,10.41L323.87,14.82L324.68,14.82L324.68,14.02L325.5,14.02L325.5,14.85L328.77,14.73L328.77,14.05L329.58,14.05L329.58,10.45L330.4,10.45L330.4,14.84L335.3,14.82L335.3,11.13L336.12,11.13L336.12,14.87L338.57,14.86L338.57,22.57L339.38,22.57L339.38,74.14L340.2,74.14L340.2,39.89L341.02,39.89L341.02,13.99L341.83,13.99L341.83,11.12L342.65,11.12L342.65,15.76L343.47,15.76L343.47,63.54L344.28,63.54L344.28,61.15L345.1,61.15L345.1,46.33L345.92,46.33L345.92,49.44L346.73,49.44L346.73,47.02L347.55,47.02L347.55,57.38L348.37,57.38L348.37,80.57L349.18,80.57L349.18,82.01L350,82.01L350,64.54L350.82,64.54L350.82,62.41L351.63,62.41L351.63,33.08L352.45,33.08L352.45,46.5L354.08,45.82L354.08,43.77L354.9,43.77L354.9,14.11L359.8,14.02L359.8,11.09L360.62,11.09L360.62,13.38L363.88,14.02L363.88,14.8L364.7,14.8L364.7,58.94L365.51,58.94L365.51,71.79L366.33,71.79L366.33,61.42L367.15,61.42L367.15,57.93L367.96,57.93L367.96,63.7L368.78,63.7L368.78,67.02L369.6,67.02L369.6,73.4L370.41,73.4L370.41,23.99L371.23,23.99L371.23,13.4L372.05,13.4L372.05,10.42L372.86,10.42L372.86,14.02L376.13,13.4L376.13,14.73L377.76,14.11L377.76,13.26L378.58,13.26L378.58,10.39L379.4,10.39L379.4,14.11L384.3,13.99L384.3,10.39L385.11,10.39L385.11,14.11L390.83,14.07L390.83,9.67L391.65,9.67L391.65,14.02L395.73,14.02L395.73,13.32L396.55,13.32L396.55,10.42L397.36,10.42L397.36,14.02L403.08,13.99L403.08,10.39L403.9,10.39L403.9,13.38L408.8,14.02L408.8,9.63L409.61,9.63L409.61,14.11L415.33,14.05L415.33,10.79L416.14,10.79L416.14,24.89L416.96,24.89L416.96,13.38L420.23,14.02L420.23,29.09L421.04,29.09L421.04,16.11L421.86,16.11L421.86,45.72L422.68,45.72L422.68,55.84L423.49,55.84L423.49,50.57L424.31,50.57L424.31,51.75L425.13,51.75L425.13,75.59L425.94,75.59L425.94,67.75L426.76,67.75L426.76,24.98L427.58,24.98L427.58,47.9L428.39,47.9L428.39,18.28L429.21,18.28L429.21,28.55L430.03,28.55L430.03,19.23L430.84,19.23L430.84,30.78L431.66,30.78L431.66,32.96L432.48,32.96L432.48,24.98L433.29,24.98L433.29,10.35L434.11,10.35L434.11,13.39L435.74,14.02L435.74,14.23L436.56,14.23L436.56,17.64L437.38,17.64L437.38,14.2L438.19,14.2L438.19,17.67L439.01,17.67L439.01,24.62L439.83,24.62L439.83,14.02L440.64,14.02L440.64,17.86L441.46,17.86L441.46,14.11L443.09,14.11L443.09,24.53L443.91,24.53L443.91,14.02L445.54,14.02L445.54,10.36L446.36,10.36L446.36,14.1L452.08,14.02L452.08,9.63L452.89,9.63L452.89,14.02L457.79,13.99L457.79,10.39L458.61,10.39L458.61,14.02L464.32,14.02L464.32,10.36L465.14,10.36L465.14,13.38L469.22,14.01L469.22,13.26L470.04,13.26L470.04,10.39L470.86,10.39L470.86,14.11L476.57,13.96L476.57,6.68L477.39,6.68L477.39,14.02L482.29,14.07L482.29,9.67L483.11,9.67L483.11,14.02L488.82,13.99L488.82,10.39L489.64,10.39L489.64,14.11L494.54,13.99L494.54,10.39L495.36,10.39L495.36,13.38L501.07,13.96L501.07,10.42L501.89,10.42L501.89,14.02L506.79,14.05L506.79,10.42L507.61,10.42L507.61,14.01L513.32,14.02L513.32,9.63L514.14,9.63L514.14,14.11L525.57,14.05L525.57,10.36L526.39,10.36L526.39,13.35L527.2,13.35L527.2,14.11L530.47,14.02L530.47,13.29L531.29,13.29L531.29,10.36L532.1,10.36L532.1,14.11L537.82,14.02L537.82,10.35L538.64,10.35L538.64,13.39L543.54,14.02L543.54,9.63L544.35,9.63L544.35,14.02L550.07,14.02L550.07,10.36L550.89,10.36L550.89,14.1L555.79,14.02L555.79,10.36L556.6,10.36L556.6,13.38L562.32,13.99L562.32,10.39L563.13,10.39L563.13,14.02L568.03,13.92L568.03,2.96L568.85,2.96L568.85,14.02L573.75,14.01L573.75,13.26L574.57,13.26L574.57,10.39L575.38,10.39L575.38,14.11L580.28,13.99L580.28,10.39L581.1,10.39L581.1,14.11L586.82,13.98L586.82,9.67L587.63,9.67L587.63,14.02L592.53,13.96L592.53,10.42L593.35,10.42L593.35,14.02L599.07,13.99L599.07,10.39L599.88,10.39L599.88,13.38L603.97,14.1L603.97,13.24L604.78,13.24L604.78,11.89L605.6,11.89L605.6,101.75" style="vector-effect: non-scaling-stroke; fill: none; stroke: rgb(195, 113, 210); stroke-opacity: 1; stroke-width: 1px; opacity: 1;"/></g><g class="points"/><g class="text"/></g><g class="trace scatter traceaa4e53" style="stroke-miterlimit: 2; opacity: 1;"><g class="fills"/><g class="errorbars"/><g class="lines"><path class="js-line" d="M23.36,101.73L372.86,101.65L372.86,101.75" style="vector-effect: non-scaling-stroke; fill: none; stroke: rgb(172, 142, 24); stroke-opacity: 1; stroke-width: 1px; opacity: 1;"/></g><g class="points"/><g class="text"/></g><g class="trace scatter trace7881f2" style="stroke-miterlimit: 2; opacity: 1;"><g class="fills"/><g class="errorbars"/><g class="lines"><path class="js-line" d="M23.36,101.75L305.9,101.18L305.9,100.75L311.62,100.82L311.62,101.75L316.52,101.75L316.52,99.59L318.15,100.15L318.15,101.75L347.55,101.75L347.55,99.38L348.37,99.38L348.37,100.37L349.18,100.37L349.18,101.75L495.36,101.65L495.36,100.75L501.89,101.34L501.89,101.75L506.79,101.47L506.79,98.28L507.61,98.28L507.61,101.75L514.14,101.18L514.14,100.75L519.85,100.81L519.85,101.75L524.75,101.75L524.75,99.53L526.39,100.22L526.39,101.75L598.25,101.75L598.25,99.62L599.88,100.12L599.88,101.75L605.6,101.75L605.6,101.75" style="vector-effect: non-scaling-stroke; fill: none; stroke: rgb(0, 170, 174); stroke-opacity: 1; stroke-width: 1px; opacity: 1;"/></g><g class="points"/><g class="text"/></g><g class="trace scatter traceab406b" style="stroke-miterlimit: 2; opacity: 1;"><g class="fills"/><g class="errorbars"/><g class="lines"><path class="js-line" d="M33.97,101.75L590.08,101.75L590.08,100.7L590.9,100.7L590.9,99.54L593.35,99.71L593.35,101.75" style="vector-effect: non-scaling-stroke; fill: none; stroke: rgb(237, 94, 147); stroke-opacity: 1; stroke-width: 1px; opacity: 1;"/></g><g class="points"/><g class="text"/></g><g class="trace scatter trace2e5429" style="stroke-miterlimit: 2; opacity: 1;"><g class="fills"/><g class="errorbars"/><g class="lines"><path class="js-line" d="M33.97,101.75L140.95,101.08L140.95,100.68L146.66,101.29L146.66,101.75L602.33,101.75L602.33,101.75" style="vector-effect: non-scaling-stroke; fill: none; stroke: rgb(198, 130, 37); stroke-opacity: 1; stroke-width: 1px; opacity: 1;"/></g><g class="points"/><g class="text"/></g><g class="trace scatter trace6b5371" style="stroke-miterlimit: 2; opacity: 1;"><g class="fills"/><g class="errorbars"/><g class="lines"><path class="js-line" d="M33.97,98.98L35.6,98.39L35.6,100.38L36.42,100.38L36.42,101.75L475.76,101.75L475.76,97.11L476.57,97.11L476.57,98.89L477.39,98.89L477.39,101.75L555.79,101.75L555.79,101.75" style="vector-effect: non-scaling-stroke; fill: none; stroke: rgb(0, 169, 141); stroke-opacity: 1; stroke-width: 1px; opacity: 1;"/></g><g class="points"/><g class="text"/></g><g class="trace scatter trace3824c3" style="stroke-miterlimit: 2; opacity: 1;"><g class="fills"/><g class="errorbars"/><g class="lines"><path class="js-line" d="M33.97,101.65L358.98,101.06L358.98,98.16L360.62,98.52L360.62,101.75L482.29,101.52L482.29,100.88L489.64,101.37L489.64,101.75L589.27,101.75L589.27,101.75" style="vector-effect: non-scaling-stroke; fill: none; stroke: rgb(142, 151, 30); stroke-opacity: 1; stroke-width: 1px; opacity: 1;"/></g><g class="points"/><g class="text"/></g><g class="trace scatter traced0143b" style="stroke-miterlimit: 2; opacity: 1;"><g class="fills"/><g class="errorbars"/><g class="lines"><path class="js-line" d="M60.1,101.73L589.27,101.75L589.27,101.75" style="vector-effect: non-scaling-stroke; fill: none; stroke: rgb(0, 169, 204); stroke-opacity: 1; stroke-width: 1px; opacity: 1;"/></g><g class="points"/><g class="text"/></g><g class="trace scatter tracec7182d" style="stroke-miterlimit: 2; opacity: 1;"><g class="fills"/><g class="errorbars"/><g class="lines"><path class="js-line" d="M87.05,101.61L545.17,101.47L545.17,100.62L550.89,101.3L550.89,101.75L572.12,101.75L572.12,101.75" style="vector-effect: non-scaling-stroke; fill: none; stroke: rgb(155, 127, 233); stroke-opacity: 1; stroke-width: 1px; opacity: 1;"/></g><g class="points"/><g class="text"/></g></g></g><g class="overplot"/><path class="xlines-above crisp" d="M91.82589676290463,277.45608650590856H716.0629921259842" style="fill: none; stroke-width: 1px; stroke: rgb(0, 0, 0); stroke-opacity: 1;"/><path class="ylines-above crisp" d="M92.32589676290463,172.2459056034938V276.95608650590856" style="fill: none; stroke-width: 1px; stroke: rgb(0, 0, 0); stroke-opacity: 1;"/><g class="overlines-above"/><g class="xaxislayer-above"><path class="xtick ticks crisp" d="M0,276.95608650590856v-5" transform="translate(110.46589676290463,0)" style="stroke: rgb(0, 0, 0); stroke-opacity: 1; stroke-width: 1px;"/><path class="xtick ticks crisp" d="M0,276.95608650590856v-5" transform="translate(134.96589676290463,0)" style="stroke: rgb(0, 0, 0); stroke-opacity: 1; stroke-width: 1px;"/><path class="xtick ticks crisp" d="M0,276.95608650590856v-5" transform="translate(159.46589676290463,0)" style="stroke: rgb(0, 0, 0); stroke-opacity: 1; stroke-width: 1px;"/><path class="xtick ticks crisp" d="M0,276.95608650590856v-5" transform="translate(183.95589676290462,0)" style="stroke: rgb(0, 0, 0); stroke-opacity: 1; stroke-width: 1px;"/><path class="xtick ticks crisp" d="M0,276.95608650590856v-5" transform="translate(208.45589676290462,0)" style="stroke: rgb(0, 0, 0); stroke-opacity: 1; stroke-width: 1px;"/><path class="xtick ticks crisp" d="M0,276.95608650590856v-5" transform="translate(232.95589676290462,0)" style="stroke: rgb(0, 0, 0); stroke-opacity: 1; stroke-width: 1px;"/><path class="xtick ticks crisp" d="M0,276.95608650590856v-5" transform="translate(257.4558967629046,0)" style="stroke: rgb(0, 0, 0); stroke-opacity: 1; stroke-width: 1px;"/><path class="xtick ticks crisp" d="M0,276.95608650590856v-5" transform="translate(281.9558967629046,0)" style="stroke: rgb(0, 0, 0); stroke-opacity: 1; stroke-width: 1px;"/><path class="xtick ticks crisp" d="M0,276.95608650590856v-5" transform="translate(306.4558967629046,0)" style="stroke: rgb(0, 0, 0); stroke-opacity: 1; stroke-width: 1px;"/><path class="xtick ticks crisp" d="M0,276.95608650590856v-5" transform="translate(330.9458967629046,0)" style="stroke: rgb(0, 0, 0); stroke-opacity: 1; stroke-width: 1px;"/><path class="xtick ticks crisp" d="M0,276.95608650590856v-5" transform="translate(355.4458967629046,0)" style="stroke: rgb(0, 0, 0); stroke-opacity: 1; stroke-width: 1px;"/><path class="xtick ticks crisp" d="M0,276.95608650590856v-5" transform="translate(379.9458967629046,0)" style="stroke: rgb(0, 0, 0); stroke-opacity: 1; stroke-width: 1px;"/><path class="xtick ticks crisp" d="M0,276.95608650590856v-5" transform="translate(404.4458967629046,0)" style="stroke: rgb(0, 0, 0); stroke-opacity: 1; stroke-width: 1px;"/><path class="xtick ticks crisp" d="M0,276.95608650590856v-5" transform="translate(428.9458967629046,0)" style="stroke: rgb(0, 0, 0); stroke-opacity: 1; stroke-width: 1px;"/><path class="xtick ticks crisp" d="M0,276.95608650590856v-5" transform="translate(453.4458967629046,0)" style="stroke: rgb(0, 0, 0); stroke-opacity: 1; stroke-width: 1px;"/><path class="xtick ticks crisp" d="M0,276.95608650590856v-5" transform="translate(477.93589676290463,0)" style="stroke: rgb(0, 0, 0); stroke-opacity: 1; stroke-width: 1px;"/><path class="xtick ticks crisp" d="M0,276.95608650590856v-5" transform="translate(502.43589676290463,0)" style="stroke: rgb(0, 0, 0); stroke-opacity: 1; stroke-width: 1px;"/><path class="xtick ticks crisp" d="M0,276.95608650590856v-5" transform="translate(526.9358967629047,0)" style="stroke: rgb(0, 0, 0); stroke-opacity: 1; stroke-width: 1px;"/><path class="xtick ticks crisp" d="M0,276.95608650590856v-5" transform="translate(551.4358967629047,0)" style="stroke: rgb(0, 0, 0); stroke-opacity: 1; stroke-width: 1px;"/><path class="xtick ticks crisp" d="M0,276.95608650590856v-5" transform="translate(575.9358967629047,0)" style="stroke: rgb(0, 0, 0); stroke-opacity: 1; stroke-width: 1px;"/><path class="xtick ticks crisp" d="M0,276.95608650590856v-5" transform="translate(600.4358967629047,0)" style="stroke: rgb(0, 0, 0); stroke-opacity: 1; stroke-width: 1px;"/><path class="xtick ticks crisp" d="M0,276.95608650590856v-5" transform="translate(624.9258967629047,0)" style="stroke: rgb(0, 0, 0); stroke-opacity: 1; stroke-width: 1px;"/><path class="xtick ticks crisp" d="M0,276.95608650590856v-5" transform="translate(649.4258967629047,0)" style="stroke: rgb(0, 0, 0); stroke-opacity: 1; stroke-width: 1px;"/><path class="xtick ticks crisp" d="M0,276.95608650590856v-5" transform="translate(673.9258967629047,0)" style="stroke: rgb(0, 0, 0); stroke-opacity: 1; stroke-width: 1px;"/><path class="xtick ticks crisp" d="M0,276.95608650590856v-5" transform="translate(698.4258967629047,0)" style="stroke: rgb(0, 0, 0); stroke-opacity: 1; stroke-width: 1px;"/><g class="xtick"><text text-anchor="start" x="0" y="294.75608650590857" transform="translate(110.46589676290463,0) rotate(22,0,287.75608650590857)" style="font-family: sans-serif; font-size: 14px; fill: rgb(0, 0, 0); fill-opacity: 1; white-space: pre; opacity: 1;">00 2022-10-27</text></g><g class="xtick"><text text-anchor="start" x="0" y="294.75608650590857" style="font-family: sans-serif; font-size: 14px; fill: rgb(0, 0, 0); fill-opacity: 1; white-space: pre; opacity: 1;" transform="translate(134.96589676290463,0) rotate(22,0,287.75608650590857)">01</text></g><g class="xtick"><text text-anchor="start" x="0" y="294.75608650590857" style="font-family: sans-serif; font-size: 14px; fill: rgb(0, 0, 0); fill-opacity: 1; white-space: pre; opacity: 1;" transform="translate(159.46589676290463,0) rotate(22,0,287.75608650590857)">02</text></g><g class="xtick"><text text-anchor="start" x="0" y="294.75608650590857" style="font-family: sans-serif; font-size: 14px; fill: rgb(0, 0, 0); fill-opacity: 1; white-space: pre; opacity: 1;" transform="translate(183.95589676290462,0) rotate(22,0,287.75608650590857)">03</text></g><g class="xtick"><text text-anchor="start" x="0" y="294.75608650590857" style="font-family: sans-serif; font-size: 14px; fill: rgb(0, 0, 0); fill-opacity: 1; white-space: pre; opacity: 1;" transform="translate(208.45589676290462,0) rotate(22,0,287.75608650590857)">04</text></g><g class="xtick"><text text-anchor="start" x="0" y="294.75608650590857" style="font-family: sans-serif; font-size: 14px; fill: rgb(0, 0, 0); fill-opacity: 1; white-space: pre; opacity: 1;" transform="translate(232.95589676290462,0) rotate(22,0,287.75608650590857)">05</text></g><g class="xtick"><text text-anchor="start" x="0" y="294.75608650590857" style="font-family: sans-serif; font-size: 14px; fill: rgb(0, 0, 0); fill-opacity: 1; white-space: pre; opacity: 1;" transform="translate(257.4558967629046,0) rotate(22,0,287.75608650590857)">06</text></g><g class="xtick"><text text-anchor="start" x="0" y="294.75608650590857" style="font-family: sans-serif; font-size: 14px; fill: rgb(0, 0, 0); fill-opacity: 1; white-space: pre; opacity: 1;" transform="translate(281.9558967629046,0) rotate(22,0,287.75608650590857)">07</text></g><g class="xtick"><text text-anchor="start" x="0" y="294.75608650590857" style="font-family: sans-serif; font-size: 14px; fill: rgb(0, 0, 0); fill-opacity: 1; white-space: pre; opacity: 1;" transform="translate(306.4558967629046,0) rotate(22,0,287.75608650590857)">08</text></g><g class="xtick"><text text-anchor="start" x="0" y="294.75608650590857" style="font-family: sans-serif; font-size: 14px; fill: rgb(0, 0, 0); fill-opacity: 1; white-space: pre; opacity: 1;" transform="translate(330.9458967629046,0) rotate(22,0,287.75608650590857)">09</text></g><g class="xtick"><text text-anchor="start" x="0" y="294.75608650590857" style="font-family: sans-serif; font-size: 14px; fill: rgb(0, 0, 0); fill-opacity: 1; white-space: pre; opacity: 1;" transform="translate(355.4458967629046,0) rotate(22,0,287.75608650590857)">10</text></g><g class="xtick"><text text-anchor="start" x="0" y="294.75608650590857" style="font-family: sans-serif; font-size: 14px; fill: rgb(0, 0, 0); fill-opacity: 1; white-space: pre; opacity: 1;" transform="translate(379.9458967629046,0) rotate(22,0,287.75608650590857)">11</text></g><g class="xtick"><text text-anchor="start" x="0" y="294.75608650590857" style="font-family: sans-serif; font-size: 14px; fill: rgb(0, 0, 0); fill-opacity: 1; white-space: pre; opacity: 1;" transform="translate(404.4458967629046,0) rotate(22,0,287.75608650590857)">12</text></g><g class="xtick"><text text-anchor="start" x="0" y="294.75608650590857" style="font-family: sans-serif; font-size: 14px; fill: rgb(0, 0, 0); fill-opacity: 1; white-space: pre; opacity: 1;" transform="translate(428.9458967629046,0) rotate(22,0,287.75608650590857)">13</text></g><g class="xtick"><text text-anchor="start" x="0" y="294.75608650590857" style="font-family: sans-serif; font-size: 14px; fill: rgb(0, 0, 0); fill-opacity: 1; white-space: pre; opacity: 1;" transform="translate(453.4458967629046,0) rotate(22,0,287.75608650590857)">14</text></g><g class="xtick"><text text-anchor="start" x="0" y="294.75608650590857" style="font-family: sans-serif; font-size: 14px; fill: rgb(0, 0, 0); fill-opacity: 1; white-space: pre; opacity: 1;" transform="translate(477.93589676290463,0) rotate(22,0,287.75608650590857)">15</text></g><g class="xtick"><text text-anchor="start" x="0" y="294.75608650590857" style="font-family: sans-serif; font-size: 14px; fill: rgb(0, 0, 0); fill-opacity: 1; white-space: pre; opacity: 1;" transform="translate(502.43589676290463,0) rotate(22,0,287.75608650590857)">16</text></g><g class="xtick"><text text-anchor="start" x="0" y="294.75608650590857" style="font-family: sans-serif; font-size: 14px; fill: rgb(0, 0, 0); fill-opacity: 1; white-space: pre; opacity: 1;" transform="translate(526.9358967629047,0) rotate(22,0,287.75608650590857)">17</text></g><g class="xtick"><text text-anchor="start" x="0" y="294.75608650590857" style="font-family: sans-serif; font-size: 14px; fill: rgb(0, 0, 0); fill-opacity: 1; white-space: pre; opacity: 1;" transform="translate(551.4358967629047,0) rotate(22,0,287.75608650590857)">18</text></g><g class="xtick"><text text-anchor="start" x="0" y="294.75608650590857" style="font-family: sans-serif; font-size: 14px; fill: rgb(0, 0, 0); fill-opacity: 1; white-space: pre; opacity: 1;" transform="translate(575.9358967629047,0) rotate(22,0,287.75608650590857)">19</text></g><g class="xtick"><text text-anchor="start" x="0" y="294.75608650590857" style="font-family: sans-serif; font-size: 14px; fill: rgb(0, 0, 0); fill-opacity: 1; white-space: pre; opacity: 1;" transform="translate(600.4358967629047,0) rotate(22,0,287.75608650590857)">20</text></g><g class="xtick"><text text-anchor="start" x="0" y="294.75608650590857" style="font-family: sans-serif; font-size: 14px; fill: rgb(0, 0, 0); fill-opacity: 1; white-space: pre; opacity: 1;" transform="translate(624.9258967629047,0) rotate(22,0,287.75608650590857)">21</text></g><g class="xtick"><text text-anchor="start" x="0" y="294.75608650590857" style="font-family: sans-serif; font-size: 14px; fill: rgb(0, 0, 0); fill-opacity: 1; white-space: pre; opacity: 1;" transform="translate(649.4258967629047,0) rotate(22,0,287.75608650590857)">22</text></g><g class="xtick"><text text-anchor="start" x="0" y="294.75608650590857" style="font-family: sans-serif; font-size: 14px; fill: rgb(0, 0, 0); fill-opacity: 1; white-space: pre; opacity: 1;" transform="translate(673.9258967629047,0) rotate(22,0,287.75608650590857)">23</text></g><g class="xtick"><text text-anchor="start" x="0" y="294.75608650590857" style="font-family: sans-serif; font-size: 14px; fill: rgb(0, 0, 0); fill-opacity: 1; white-space: pre; opacity: 0;" transform="translate(698.4258967629047,0) rotate(22,0,287.75608650590857)">00 2022-10-28</text></g></g><g class="yaxislayer-above"><path class="y2tick ticks crisp" d="M92.82589676290463,0h5" transform="translate(0,273.99590560349384)" style="stroke: rgb(0, 0, 0); stroke-opacity: 1; stroke-width: 1px;"/><path class="y2tick ticks crisp" d="M92.82589676290463,0h5" transform="translate(0,251.51590560349382)" style="stroke: rgb(0, 0, 0); stroke-opacity: 1; stroke-width: 1px;"/><path class="y2tick ticks crisp" d="M92.82589676290463,0h5" transform="translate(0,229.0359056034938)" style="stroke: rgb(0, 0, 0); stroke-opacity: 1; stroke-width: 1px;"/><path class="y2tick ticks crisp" d="M92.82589676290463,0h5" transform="translate(0,206.5559056034938)" style="stroke: rgb(0, 0, 0); stroke-opacity: 1; stroke-width: 1px;"/><path class="y2tick ticks crisp" d="M92.82589676290463,0h5" transform="translate(0,184.0659056034938)" style="stroke: rgb(0, 0, 0); stroke-opacity: 1; stroke-width: 1px;"/><g class="y2tick"><text text-anchor="end" x="89.02589676290464" y="4.8999999999999995" transform="translate(0,273.99590560349384)" style="font-family: sans-serif; font-size: 14px; fill: rgb(0, 0, 0); fill-opacity: 1; white-space: pre; opacity: 1;">0.00</text></g><g class="y2tick"><text text-anchor="end" x="89.02589676290464" y="4.8999999999999995" style="font-family: sans-serif; font-size: 14px; fill: rgb(0, 0, 0); fill-opacity: 1; white-space: pre; opacity: 1;" transform="translate(0,251.51590560349382)">0.05</text></g><g class="y2tick"><text text-anchor="end" x="89.02589676290464" y="4.8999999999999995" style="font-family: sans-serif; font-size: 14px; fill: rgb(0, 0, 0); fill-opacity: 1; white-space: pre; opacity: 1;" transform="translate(0,229.0359056034938)">0.10</text></g><g class="y2tick"><text text-anchor="end" x="89.02589676290464" y="4.8999999999999995" style="font-family: sans-serif; font-size: 14px; fill: rgb(0, 0, 0); fill-opacity: 1; white-space: pre; opacity: 1;" transform="translate(0,206.5559056034938)">0.15</text></g><g class="y2tick"><text text-anchor="end" x="89.02589676290464" y="4.8999999999999995" style="font-family: sans-serif; font-size: 14px; fill: rgb(0, 0, 0); fill-opacity: 1; white-space: pre; opacity: 1;" transform="translate(0,184.0659056034938)">0.20</text></g></g><g class="overaxes-above"/></g></g><g class="polarlayer"/><g class="ternarylayer"/><g class="geolayer"/><g class="funnelarealayer"/><g class="pielayer"/><g class="iciclelayer"/><g class="treemaplayer"/><g class="sunburstlayer"/><g class="glimages"/><defs id="topdefs-28186d"><g class="clips"/></defs><g class="layer-above"><g class="imagelayer"/><g class="shapelayer"/></g><g class="infolayer"><g class="g-gtitle"/><g class="g-xtitle"/><g class="g-ytitle"/><g class="g-y2title"/><g class="annotation" data-index="0" style="opacity: 1;"><g class="annotation-text-g" transform="rotate(0,404.44444444444446,30.000000000000004)"><g class="cursor-pointer" transform="translate(353,20)"><rect class="bg" x="0.5" y="0.5" width="102" height="19" style="stroke-width: 1px; stroke: rgb(0, 0, 0); stroke-opacity: 0; fill: rgb(0, 0, 0); fill-opacity: 0;"/><text class="annotation-text" text-anchor="middle" x="51.275390625" y="14.7314453125" style="font-family: sans-serif; font-size: 14px; fill: rgb(0, 0, 0); fill-opacity: 1; white-space: pre;">l_write | counter</text></g></g></g><g class="annotation" data-index="1" style="opacity: 1;"><g class="annotation-text-g" transform="rotate(0,404.44444444444446,166.40066403646745)"><g class="cursor-pointer" transform="translate(364,156)"><rect class="bg" x="0.5" y="0.5" width="79" height="19" style="stroke-width: 1px; stroke: rgb(0, 0, 0); stroke-opacity: 0; fill: rgb(0, 0, 0); fill-opacity: 0;"/><text class="annotation-text" text-anchor="middle" x="39.9912109375" y="14.7314453125" style="font-family: sans-serif; font-size: 14px; fill: rgb(0, 0, 0); fill-opacity: 1; white-space: pre;">l_write | rate</text></g></g></g></g></svg>