<svg class="main-svg" xmlns="http://www.w3.org/2000/svg" xmlns:xlink="http://www.w3.org/1999/xlink" width="720" height="400" style=""><rect x="0" y="0" width="720" height="400" style="fill: rgb(255, 255, 255); fill-opacity: 1;"/><defs id="defs-ee983b"><g class="clips"><clipPath id="clipee983bxyplot" class="plotclip"><rect width="676.5704286964129" height="117.30736545432843"/></clipPath><clipPath id="clipee983bxy2plot" class="plotclip"><rect width="676.5704286964129" height="117.30736545432843"/></clipPath><clipPath class="axesclip" id="clipee983bx"><rect x="39.4925634295713" y="0" width="676.5704286964129" height="400"/></clipPath><clipPath class="axesclip" id="clipee983by"><rect x="0" y="41.043307086614185" width="720" height="117.30736545432843"/></clipPath><clipPath class="axesclip" id="clipee983bxy"><rect x="39.4925634295713" y="41.043307086614185" width="676.5704286964129" height="117.30736545432843"/></clipPath><clipPath class="axesclip" id="clipee983by2"><rect x="0" y="192.93728671417094" width="720" height="117.30736545432843"/></clipPath><clipPath class="axesclip" id="clipee983bxy2"><rect x="39.4925634295713" y="192.93728671417094" width="676.5704286964129" height="117.30736545432843"/></clipPath></g><g class="gradients"/><g class="patterns"/></defs><g class="bglayer"/><g class="layer-below"><g class="imagelayer"/><g class="shapelayer"/></g><g class="cartesianlayer"><g class="subplot xy"><g class="layer-subplot"><g class="shapelayer"/><g class="imagelayer"/></g><g class="gridlayer"><g class="x"><path class="xgrid crisp" transform="translate(58.6425634295713,0)" d="M0,41.043307086614185v117.30736545432843" style="stroke: rgb(0, 0, 0); stroke-opacity: 0.1; stroke-width: 0.5px;"/><path class="xgrid crisp" transform="translate(85.7225634295713,0)" d="M0,41.043307086614185v117.30736545432843" style="stroke: rgb(0, 0, 0); stroke-opacity: 0.1; stroke-width: 0.5px;"/><path class="xgrid crisp" transform="translate(112.8125634295713,0)" d="M0,41.043307086614185v117.30736545432843" style="stroke: rgb(0, 0, 0); stroke-opacity: 0.1; stroke-width: 0.5px;"/><path class="xgrid crisp" transform="translate(139.8925634295713,0)" d="M0,41.043307086614185v117.30736545432843" style="stroke: rgb(0, 0, 0); stroke-opacity: 0.1; stroke-width: 0.5px;"/><path class="xgrid crisp" transform="translate(166.9725634295713,0)" d="M0,41.043307086614185v117.30736545432843" style="stroke: rgb(0, 0, 0); stroke-opacity: 0.1; stroke-width: 0.5px;"/><path class="xgrid crisp" transform="translate(194.0625634295713,0)" d="M0,41.043307086614185v117.30736545432843" style="stroke: rgb(0, 0, 0); stroke-opacity: 0.1; stroke-width: 0.5px;"/><path class="xgrid crisp" transform="translate(221.1425634295713,0)" d="M0,41.043307086614185v117.30736545432843" style="stroke: rgb(0, 0, 0); stroke-opacity: 0.1; stroke-width: 0.5px;"/><path class="xgrid crisp" transform="translate(248.2225634295713,0)" d="M0,41.043307086614185v117.30736545432843" style="stroke: rgb(0, 0, 0); stroke-opacity: 0.1; stroke-width: 0.5px;"/><path class="xgrid crisp" transform="translate(275.3125634295713,0)" d="M0,41.043307086614185v117.30736545432843" style="stroke: rgb(0, 0, 0); stroke-opacity: 0.1; stroke-width: 0.5px;"/><path class="xgrid crisp" transform="translate(302.3925634295713,0)" d="M0,41.043307086614185v117.30736545432843" style="stroke: rgb(0, 0, 0); stroke-opacity: 0.1; stroke-width: 0.5px;"/><path class="xgrid crisp" transform="translate(329.4825634295713,0)" d="M0,41.043307086614185v117.30736545432843" style="stroke: rgb(0, 0, 0); stroke-opacity: 0.1; stroke-width: 0.5px;"/><path class="xgrid crisp" transform="translate(356.5625634295713,0)" d="M0,41.043307086614185v117.30736545432843" style="stroke: rgb(0, 0, 0); stroke-opacity: 0.1; stroke-width: 0.5px;"/><path class="xgrid crisp" transform="translate(383.6425634295713,0)" d="M0,41.043307086614185v117.30736545432843" style="stroke: rgb(0, 0, 0); stroke-opacity: 0.1; stroke-width: 0.5px;"/><path class="xgrid crisp" transform="translate(410.7325634295713,0)" d="M0,41.043307086614185v117.30736545432843" style="stroke: rgb(0, 0, 0); stroke-opacity: 0.1; stroke-width: 0.5px;"/><path class="xgrid crisp" transform="translate(437.8125634295713,0)" d="M0,41.043307086614185v117.30736545432843" style="stroke: rgb(0, 0, 0); stroke-opacity: 0.1; stroke-width: 0.5px;"/><path class="xgrid crisp" transform="translate(464.8925634295713,0)" d="M0,41.043307086614185v117.30736545432843" style="stroke: rgb(0, 0, 0); stroke-opacity: 0.1; stroke-width: 0.5px;"/><path class="xgrid crisp" transform="translate(491.9825634295713,0)" d="M0,41.043307086614185v117.30736545432843" style="stroke: rgb(0, 0, 0); stroke-opacity: 0.1; stroke-width: 0.5px;"/><path class="xgrid crisp" transform="translate(519.0625634295712,0)" d="M0,41.043307086614185v117.30736545432843" style="stroke: rgb(0, 0, 0); stroke-opacity: 0.1; stroke-width: 0.5px;"/><path class="xgrid crisp" transform="translate(546.1525634295713,0)" d="M0,41.043307086614185v117.30736545432843" style="stroke: rgb(0, 0, 0); stroke-opacity: 0.1; stroke-width: 0.5px;"/><path class="xgrid crisp" transform="translate(573.2325634295713,0)" d="M0,41.043307086614185v117.30736545432843" style="stroke: rgb(0, 0, 0); stroke-opacity: 0.1; stroke-width: 0.5px;"/><path class="xgrid crisp" transform="translate(600.3125634295714,0)" d="M0,41.043307086614185v117.30736545432843" style="stroke: rgb(0, 0, 0); stroke-opacity: 0.1; stroke-width: 0.5px;"/><path class="xgrid crisp" transform="translate(627.4025634295713,0)" d="M0,41.043307086614185v117.30736545432843" style="stroke: rgb(0, 0, 0); stroke-opacity: 0.1; stroke-width: 0.5px;"/><path class="xgrid crisp" transform="translate(654.4825634295713,0)" d="M0,41.043307086614185v117.30736545432843" style="stroke: rgb(0, 0, 0); stroke-opacity: 0.1; stroke-width: 0.5px;"/><path class="xgrid crisp" transform="translate(681.5625634295714,0)" d="M0,41.043307086614185v117.30736545432843" style="stroke: rgb(0, 0, 0); stroke-opacity: 0.1; stroke-width: 0.5px;"/><path class="xgrid crisp" transform="translate(708.6525634295713,0)" d="M0,41.043307086614185v117.30736545432843" style="stroke: rgb(0, 0, 0); stroke-opacity: 0.1; stroke-width: 0.5px;"/></g><g class="y"><path class="ygrid crisp" transform="translate(0,155.03330708661417)" d="M39.4925634295713,0h676.5704286964129" style="stroke: rgb(0, 0, 0); stroke-opacity: 0.1; stroke-width: 0.5px;"/><path class="ygrid crisp" transform="translate(0,127.36330708661418)" d="M39.4925634295713,0h676.5704286964129" style="stroke: rgb(0, 0, 0); stroke-opacity: 0.1; stroke-width: 0.5px;"/><path class="ygrid crisp" transform="translate(0,99.69330708661418)" d="M39.4925634295713,0h676.5704286964129" style="stroke: rgb(0, 0, 0); stroke-opacity: 0.1; stroke-width: 0.5px;"/><path class="ygrid crisp" transform="translate(0,72.03330708661419)" d="M39.4925634295713,0h676.5704286964129" style="stroke: rgb(0, 0, 0); stroke-opacity: 0.1; stroke-width: 0.5px;"/><path class="ygrid crisp" transform="translate(0,44.363307086614185)" d="M39.4925634295713,0h676.5704286964129" style="stroke: rgb(0, 0, 0); stroke-opacity: 0.1; stroke-width: 0.5px;"/></g></g><g class="zerolinelayer"/><path class="xlines-below"/><path class="ylines-below"/><g class="overlines-below"/><g class="xaxislayer-below"/><g class="yaxislayer-below"/><g class="overaxes-below"/><g class="plot" transform="translate(39.4925634295713,41.043307086614185)" clip-path="url(#clipee983bxyplot)"><g class="scatterlayer mlayer"><g class="trace scatter traceeefd5c" style="stroke-miterlimit: 2; opacity: 1;"><g class="fills"/><g class="errorbars"/><g class="lines"><path class="js-line" d="M19.24,102.92L19.24,101.81L21.74,101.81L21.74,100.71L24.41,100.71L24.41,99.6L27.01,99.6L27.01,98.49L29.77,98.49L29.77,97.39L32.39,97.39L32.39,96.28L35.02,96.28L35.02,95.17L37.62,95.17L37.62,94.07L40.12,94.07L40.12,92.96L42.59,92.96L42.59,91.85L42.75,108.45L61.2,108.45L64.18,108.45L64.18,107.35L64.3,106.24L67.29,106.24L67.29,105.13L70.3,105.13L70.3,104.03L73.47,104.03L73.47,102.92L76.72,102.92L76.72,101.81L79.42,101.81L79.42,100.71L82.29,100.71L82.29,99.6L85.27,99.6L87.73,99.6L87.73,98.49L87.84,97.39L90.45,97.39L90.45,96.28L93.07,96.28L93.07,95.17L95.75,95.17L95.75,94.07L98.49,94.07L98.49,92.96L101.26,92.96L101.26,91.85L103.92,91.85L103.92,89.64L106.45,89.64L106.45,108.45L125.64,108.45L125.64,107.35L128.75,107.35L128.75,106.24L131.89,106.24L131.89,105.13L134.93,105.13L134.93,104.03L137.99,104.03L137.99,101.81L141.38,101.81L141.38,100.71L144.39,100.71L144.39,99.6L147.14,99.6L150.03,99.6L150.03,98.49L150.17,97.39L153.15,97.39L153.15,96.28L155.79,96.28L155.79,95.17L158.38,95.17L158.38,94.07L161.01,94.07L161.01,92.96L163.74,92.96L163.74,91.85L166.43,91.85L169,91.85L169,90.75L171.61,90.75L171.61,89.64L174.27,89.64L174.27,87.43L174.44,87.43L174.44,108.45L193.24,108.45L193.24,107.35L196.31,107.35L196.31,105.13L199.32,105.13L199.32,104.03L202.13,104.03L202.13,102.92L204.99,102.92L204.99,101.81L207.96,101.81L207.96,100.71L211.13,100.71L211.13,99.6L214.12,99.6L214.12,98.49L219.56,98.49L219.56,97.39L219.65,96.28L222.71,96.28L222.71,95.17L225.44,95.17L225.44,94.07L228.22,94.07L228.22,92.96L231.02,92.96L231.02,91.85L233.64,91.85L233.64,89.64L236.33,89.64L236.33,113.99L255.65,113.99L256.07,107.35L259.28,107.35L259.28,105.13L262.42,105.13L262.42,104.03L265.35,104.03L268.22,104.03L268.22,102.92L268.33,101.81L271.23,101.81L271.23,100.71L274.07,100.71L274.07,99.6L276.88,99.6L276.88,98.49L279.66,98.49L279.66,97.39L282.48,97.39L282.48,96.28L285.32,96.28L285.32,95.17L288.3,95.17L288.3,94.07L291.49,94.07L291.49,92.96L294.21,92.96L294.21,91.85L297.04,91.85L299.9,91.85L299.9,90.75L299.96,88.53L302.53,88.53L302.53,113.99L321.58,113.99L321.73,107.35L324.96,107.35L324.96,106.24L328.02,106.24L328.02,105.13L331.01,105.13L331.01,104.03L333.97,104.03L333.97,102.92L336.83,102.92L339.63,102.92L339.63,101.81L339.72,100.71L342.55,100.71L342.55,99.6L345.37,99.6L345.37,98.49L348.09,98.49L348.09,97.39L350.74,97.39L350.74,96.28L353.4,96.28L353.4,95.17L356.22,95.17L356.22,94.07L359.21,94.07L359.21,92.96L361.75,92.96L361.75,90.75L364.51,90.75L364.51,89.64L367.23,89.64L367.23,86.32L369.66,86.32L369.66,108.45L389.18,108.45L389.18,107.35L392.42,107.35L392.42,106.24L395.57,106.24L395.57,105.13L398.7,105.13L398.7,102.92L401.74,102.92L404.63,102.92L404.63,101.81L404.74,100.71L407.67,100.71L407.67,99.6L410.59,99.6L410.59,98.49L413.47,98.49L413.47,97.39L416.28,97.39L419,97.39L419,96.28L421.78,96.28L421.78,95.17L422,95.17L422,94.07L424.6,94.07L424.6,92.96L427.46,92.96L427.46,91.85L430.57,91.85L430.57,90.75L433.76,90.75L433.76,89.64L436.76,89.64L436.76,86.32L439.38,86.32L439.38,108.45L459.53,108.45L459.53,107.35L466.03,107.35L466.03,106.24L466.23,106.24L466.23,105.13L469.42,105.13L469.42,104.03L472.6,104.03L472.6,102.92L475.74,102.92L475.74,101.81L478.79,101.81L478.79,100.71L481.91,100.71L481.91,99.6L484.87,99.6L484.87,98.49L487.66,98.49L487.66,97.39L487.78,96.28L490.66,96.28L490.66,95.17L493.58,95.17L493.58,94.07L496.45,94.07L496.45,92.96L499.36,92.96L499.36,91.85L502.29,91.85L502.29,90.75L505.11,90.75L505.11,89.64L508.11,89.64L511.15,89.64L511.15,88.53L511.24,87.43L514.17,87.43L514.17,85.21L516.9,85.21L516.9,108.45L537.18,108.45L537.18,107.35L540.44,107.35L540.44,106.24L543.81,106.24L543.81,105.13L547.1,105.13L547.1,104.03L550.27,104.03L550.27,102.92L553.35,102.92L556.2,102.92L556.2,101.81L556.45,101.81L556.45,100.71L559.46,100.71L559.46,99.6L565.24,99.6L565.24,98.49L565.36,97.39L568.29,97.39L568.29,95.17L571.25,95.17L571.25,92.96L574.16,92.96L574.16,91.85L576.95,91.85L576.95,90.75L579.88,90.75L579.88,88.53L582.75,88.53L582.75,86.32L585.52,86.32L585.52,85.21L588.42,85.21L591.38,85.21L591.38,83L591.52,112.88L612.21,112.88L612.3,107.35L615.65,107.35L615.65,106.24L618.83,106.24L618.83,105.13L621.99,105.13L621.99,104.03L625.06,104.03L625.06,102.92L628.06,102.92L628.06,101.81L631.09,101.81L631.09,100.71L633.94,100.71L633.94,99.6L636.95,99.6L636.95,98.49L639.9,98.49L639.9,97.39L642.88,97.39L642.88,96.28L645.84,96.28L645.84,95.17L648.58,95.17L648.58,94.07L651.42,94.07L651.42,92.96L654.16,92.96L654.16,90.75L656.87,90.75" style="vector-effect: non-scaling-stroke; fill: none; stroke: rgb(0, 154, 250); stroke-opacity: 1; stroke-width: 1px; opacity: 1;"/></g><g class="points"/><g class="text"/></g><g class="trace scatter traceba853c" style="stroke-miterlimit: 2; opacity: 1;"><g class="fills"/><g class="errorbars"/><g class="lines"><path class="js-line" d="M19.24,99.6L19.24,97.39L21.74,97.39L21.74,94.07L24.41,94.07L24.41,91.85L27.01,91.85L27.01,89.64L29.77,89.64L29.77,87.43L32.39,87.43L32.39,85.21L35.02,85.21L35.02,83L37.62,83L39.88,83L39.88,79.68L40.12,79.68L40.12,77.47L42.59,77.47L42.59,111.77L64.18,111.77L64.18,109.56L64.3,106.24L67.29,106.24L67.29,104.03L70.3,104.03L70.3,101.81L73.47,101.81L73.47,99.6L76.72,99.6L76.72,97.39L79.42,97.39L79.42,95.17L82.29,95.17L82.29,92.96L85.27,92.96L87.73,92.96L87.73,90.75L87.84,88.53L90.45,88.53L90.45,85.21L93.07,85.21L93.07,81.89L95.75,81.89L95.75,79.68L98.49,79.68L98.49,77.47L101.26,77.47L101.26,75.25L103.92,75.25L103.92,71.93L106.45,71.93L106.45,111.77L125.63,111.77L125.63,109.56L128.75,109.56L128.75,106.24L131.89,106.24L131.89,104.03L134.93,104.03L134.93,100.71L138,100.71L138,96.28L141.38,96.28L141.38,91.85L144.39,91.85L144.39,88.53L147.14,88.53L147.14,87.43L150.03,87.43L150.17,83L153.15,83L153.15,80.79L155.79,80.79L155.79,76.36L158.38,76.36L158.38,75.25L160.86,75.25L161.01,71.93L163.54,71.93L163.74,68.61L166.23,68.61L166.23,66.4L166.43,66.4L169,66.4L169.07,63.08L171.61,63.08L171.61,60.87L171.74,60.87L174.27,60.87L174.27,58.65L174.44,111.77L193.21,111.77L193.21,109.56L196.31,109.56L196.31,105.13L199.32,105.13L199.32,102.92L202.13,102.92L202.13,99.6L204.99,99.6L204.99,98.49L207.76,98.49L207.96,92.96L211.13,92.96L211.13,88.53L214.12,88.53L214.12,86.32L216.78,86.32L216.78,85.21L219.56,85.21L219.65,80.79L222.71,80.79L222.71,77.47L225.44,77.47L225.44,73.04L228.22,73.04L228.22,69.72L231.02,69.72L231.02,65.29L233.64,65.29L233.64,63.08L236.33,63.08L236.33,111.77L256.07,111.77L256.07,109.56L259.28,109.56L259.28,105.13L262.42,105.13L262.42,102.92L265.35,102.92L265.35,100.71L268.22,100.71L268.33,95.17L271.23,95.17L271.23,91.85L274.07,91.85L274.07,87.43L276.88,87.43L276.88,84.11L279.66,84.11L279.66,79.68L282.48,79.68L282.48,77.47L285.32,77.47L285.32,76.36L288.11,76.36L288.3,70.83L291.49,70.83L291.49,67.51L294.21,67.51L294.21,64.19L297.04,64.19L299.9,64.19L299.9,61.97L299.96,58.65L302.53,58.65L302.53,113.99L321.58,113.99L321.73,109.56L324.96,109.56L324.96,108.45L327.9,108.45L328.02,104.03L331.01,104.03L331.01,100.71L333.97,100.71L333.97,97.39L336.83,97.39L336.83,96.28L339.63,96.28L339.72,92.96L342.34,92.96L342.55,87.43L345.37,87.43L345.37,84.11L348.09,84.11L348.09,81.89L350.74,81.89L353.17,81.89L353.17,78.57L353.4,78.57L353.4,75.25L356.22,75.25L356.22,71.93L359.21,71.93L359.21,68.61L361.75,68.61L361.75,66.4L364.51,66.4L364.51,61.97L367.23,61.97L367.23,59.76L369.66,59.76L369.66,111.77L389.17,111.77L389.17,108.45L392.42,108.45L392.42,105.13L395.57,105.13L395.57,102.92L398.7,102.92L398.7,98.49L401.74,98.49L401.74,96.28L404.63,96.28L404.63,94.07L404.74,90.75L407.67,90.75L407.67,87.43L410.59,87.43L410.59,85.21L413.47,85.21L413.47,81.89L416.28,81.89L419,81.89L419,79.68L419.1,78.57L421.78,78.57L422,75.25L424.43,75.25L424.6,68.61L427.5,68.61L427.5,65.29L430.57,65.29L430.57,63.08L433.76,63.08L433.76,59.76L436.76,59.76L436.76,57.55L439.38,57.55L439.38,111.77L459.53,111.77L459.53,109.56L462.77,109.56L462.77,108.45L465.92,108.45L466.23,102.92L469.42,102.92L469.42,100.71L472.6,100.71L472.6,97.39L475.74,97.39L475.74,96.28L478.62,96.28L478.79,90.75L481.91,90.75L481.91,88.53L484.87,88.53L484.87,86.32L487.66,86.32L487.78,81.89L490.66,81.89L490.66,78.57L493.58,78.57L493.58,76.36L496.45,76.36L496.45,74.15L499.36,74.15L499.36,73.04L502.1,73.04L502.29,69.72L505.11,69.72L505.11,66.4L508.11,66.4L511.15,66.4L511.15,64.19L511.24,60.87L514.17,60.87L514.17,57.55L516.9,57.55L516.9,111.77L537.14,111.77L537.14,109.56L540.44,109.56L540.44,108.45L543.65,108.45L543.81,104.03L547.1,104.03L547.1,99.6L550.27,99.6L550.27,96.28L553.43,96.28L553.43,95.17L556.2,95.17L556.45,88.53L559.46,88.53L559.46,86.32L562.43,86.32L562.43,85.21L565.24,85.21L565.36,80.79L568.29,80.79L568.29,76.36L571.25,76.36L571.25,71.93L574.16,71.93L574.16,69.72L576.95,69.72L576.95,68.61L579.72,68.61L579.88,64.19L582.75,64.19L582.75,59.76L585.52,59.76L585.52,57.55L588.42,57.55L588.42,55.33L591.38,55.33L591.38,54.23L591.52,112.88L612.21,112.88L612.3,109.56L615.65,109.56L615.65,107.35L618.83,107.35L618.83,105.13L621.99,105.13L621.99,104.03L624.83,104.03L625.06,97.39L628.06,97.39L628.06,94.07L631.09,94.07L631.09,90.75L633.94,90.75L634.09,87.43L636.95,87.43L636.95,84.11L639.9,84.11L639.9,81.89L642.88,81.89L642.88,80.79L645.65,80.79L645.84,75.25L648.74,75.25L648.74,71.93L651.42,71.93L651.42,68.61L654.16,68.61L654.16,66.4L656.87,66.4" style="vector-effect: non-scaling-stroke; fill: none; stroke: rgb(227, 111, 71); stroke-opacity: 1; stroke-width: 1px; opacity: 1;"/></g><g class="points"/><g class="text"/></g><g class="trace scatter tracef91f45" style="stroke-miterlimit: 2; opacity: 1;"><g class="fills"/><g class="errorbars"/><g class="lines"><path class="js-line" d="M19.25,97.39L19.25,95.17L21.74,95.17L21.74,91.85L24.41,91.85L24.41,89.64L27.01,89.64L27.01,87.43L29.77,87.43L29.77,86.32L32.39,86.32L32.39,84.11L35.02,84.11L35.02,83L37.62,83L39.88,83L39.88,79.68L40.12,79.68L40.12,77.47L42.59,77.47L42.59,111.77L64.18,111.77L64.18,109.56L64.3,106.24L67.29,106.24L67.29,104.03L70.3,104.03L73.24,104.03L73.24,101.81L73.47,101.81L73.47,99.6L76.72,99.6L76.72,97.39L79.42,97.39L79.42,95.17L82.29,95.17L82.29,92.96L87.73,92.96L87.73,90.75L87.84,89.64L90.45,89.64L90.45,86.32L93.07,86.32L93.07,84.11L95.75,84.11L95.75,81.89L98.49,81.89L98.49,79.68L101.26,79.68L101.26,77.47L103.92,77.47L103.92,74.15L106.45,74.15L106.45,111.77L125.63,111.77L125.63,108.45L128.75,108.45L128.75,105.13L131.89,105.13L134.67,105.13L134.67,102.92L134.93,102.92L134.93,99.6L138,99.6L138,96.28L141.38,96.28L141.38,92.96L144.39,92.96L144.39,89.64L147.14,89.64L147.14,87.43L150.03,87.43L150.03,86.32L150.17,83L153.15,83L153.15,80.79L155.79,80.79L155.79,76.36L158.38,76.36L158.38,75.25L160.86,75.25L161.01,73.04L163.54,73.04L163.74,69.72L166.23,69.72L166.43,66.4L169,66.4L169.07,63.08L171.61,63.08L171.74,59.76L174.27,59.76L174.27,57.55L174.44,111.77L193.21,111.77L196.08,111.77L196.08,108.45L196.31,108.45L196.31,105.13L199.32,105.13L199.32,101.81L202.13,101.81L202.13,98.49L204.99,98.49L204.99,97.39L207.76,97.39L207.76,95.17L207.96,95.17L207.96,91.85L211.13,91.85L211.13,88.53L214.12,88.53L214.12,86.32L216.78,86.32L216.78,85.21L219.56,85.21L219.56,83L219.65,80.79L222.71,80.79L222.71,77.47L225.44,77.47L225.44,74.15L228.22,74.15L228.22,70.83L231.02,70.83L231.02,67.51L233.64,67.51L233.64,64.19L236.33,64.19L236.33,111.77L256.07,111.77L256.07,108.45L259.28,108.45L259.28,105.13L262.42,105.13L262.42,101.81L265.35,101.81L265.35,99.6L268.22,99.6L268.33,95.17L271.23,95.17L271.23,91.85L274.07,91.85L274.07,88.53L276.88,88.53L276.88,85.21L279.66,85.21L279.66,80.79L282.48,80.79L282.48,77.47L285.32,77.47L285.32,76.36L288.11,76.36L288.3,70.83L291.49,70.83L291.49,67.51L294.21,67.51L294.21,64.19L297.04,64.19L297.04,63.08L299.9,63.08L299.96,57.55L302.53,57.55L302.53,113.99L321.58,113.99L321.73,108.45L324.96,108.45L324.96,107.35L327.9,107.35L328.02,102.92L331.01,102.92L331.01,99.6L333.97,99.6L333.97,96.28L336.83,96.28L336.83,95.17L339.63,95.17L339.72,91.85L342.34,91.85L342.55,86.32L345.37,86.32L345.37,83L348.09,83L348.09,80.79L350.74,80.79L353.17,80.79L353.17,77.47L353.4,77.47L353.4,75.25L356.22,75.25L356.22,71.93L359.21,71.93L359.21,68.61L361.75,68.61L361.75,65.29L364.51,65.29L364.51,61.97L367.23,61.97L367.23,60.87L369.42,60.87L369.42,58.65L369.66,58.65L369.66,111.77L389.17,111.77L389.17,107.35L392.42,107.35L392.42,104.03L395.57,104.03L395.57,100.71L398.7,100.71L398.7,97.39L401.74,97.39L401.74,95.17L404.63,95.17L404.63,94.07L404.74,90.75L407.67,90.75L407.67,86.32L410.59,86.32L410.59,83L413.47,83L413.47,79.68L416.28,79.68L419,79.68L419,78.57L419.1,77.47L421.78,77.47L421.78,75.25L422,75.25L424.43,75.25L424.6,67.51L427.5,67.51L427.5,64.19L430.58,64.19L430.58,63.08L433.53,63.08L433.76,57.55L436.76,57.55L436.76,54.23L439.38,54.23L439.38,111.77L459.53,111.77L459.53,108.45L462.77,108.45L462.77,107.35L465.92,107.35L466.23,102.92L469.42,102.92L469.42,100.71L472.6,100.71L472.6,98.49L475.74,98.49L475.74,97.39L478.62,97.39L478.79,91.85L481.92,91.85L481.92,89.64L484.87,89.64L484.87,87.43L487.66,87.43L487.78,84.11L490.66,84.11L490.66,80.79L493.58,80.79L493.58,79.68L496.45,79.68L496.45,76.36L499.36,76.36L499.36,75.25L502.1,75.25L502.29,70.83L505.11,70.83L505.11,67.51L508.12,67.51L508.12,66.4L511.15,66.4L511.24,61.97L514.17,61.97L514.17,58.65L516.9,58.65L516.9,111.77L537.14,111.77L537.14,108.45L540.44,108.45L540.44,107.35L543.65,107.35L543.81,102.92L547.1,102.92L547.1,99.6L550.27,99.6L550.27,97.39L553.43,97.39L553.43,95.17L556.24,95.17L556.45,89.64L559.46,89.64L559.46,87.43L562.43,87.43L562.43,86.32L565.24,86.32L565.36,83L568,83L568.29,77.47L571.25,77.47L571.25,74.15L574.16,74.15L574.16,70.83L576.95,70.83L576.95,69.72L579.72,69.72L579.88,65.29L582.75,65.29L582.75,61.97L585.52,61.97L585.52,59.76L588.42,59.76L588.42,57.55L591.38,57.55L591.38,56.44L591.52,113.99L612.21,113.99L612.3,108.45L615.65,108.45L615.65,106.24L618.83,106.24L618.83,102.92L621.99,102.92L621.99,101.81L624.83,101.81L625.06,95.17L628.06,95.17L628.06,91.85L631.09,91.85L631.09,88.53L633.94,88.53L634.09,85.21L636.95,85.21L636.95,81.89L639.9,81.89L639.9,79.68L642.88,79.68L642.88,78.57L645.65,78.57L645.84,73.04L648.74,73.04L648.74,69.72L651.42,69.72L651.42,66.4L654.16,66.4L654.16,63.08L656.87,63.08" style="vector-effect: non-scaling-stroke; fill: none; stroke: rgb(62, 164, 78); stroke-opacity: 1; stroke-width: 1px; opacity: 1;"/></g><g class="points"/><g class="text"/></g><g class="trace scatter traced3c7f4" style="stroke-miterlimit: 2; opacity: 1;"><g class="fills"/><g class="errorbars"/><g class="lines"><path class="js-line" d="M19.25,96.28L19.25,94.07L21.74,94.07L21.74,90.75L24.41,90.75L24.41,88.53L27.01,88.53L27.01,86.32L29.77,86.32L29.77,84.11L32.39,84.11L32.39,81.89L35.02,81.89L35.02,79.68L37.62,79.68L39.88,79.68L39.88,76.36L40.12,76.36L40.12,74.15L42.59,74.15L42.59,113.99L60.67,113.99L60.67,110.67L64.18,110.67L64.18,108.45L64.3,105.13L67.29,105.13L67.29,102.92L70.3,102.92L73.24,102.92L73.24,100.71L73.47,100.71L73.47,98.49L76.72,98.49L76.72,96.28L79.42,96.28L79.42,94.07L82.29,94.07L82.29,91.85L87.73,91.85L87.73,89.64L87.84,87.43L90.45,87.43L90.45,84.11L93.07,84.11L93.07,80.79L95.75,80.79L95.75,78.57L98.49,78.57L98.49,76.36L101.26,76.36L101.26,74.15L103.92,74.15L103.92,71.93L106.45,71.93L106.45,110.67L125.63,110.67L125.63,107.35L128.75,107.35L128.75,104.03L131.89,104.03L131.89,101.81L134.93,101.81L134.93,98.49L138,98.49L138,95.17L141.38,95.17L141.38,91.85L144.39,91.85L144.39,88.53L147.14,88.53L147.14,86.32L150.03,86.32L150.17,81.89L153.15,81.89L153.15,78.57L155.79,78.57L155.79,75.25L158.38,75.25L158.38,74.15L160.86,74.15L161.01,70.83L163.54,70.83L163.74,67.51L166.23,67.51L166.43,64.19L169,64.19L169.07,60.87L171.61,60.87L171.74,57.55L174.27,57.55L174.27,55.33L174.44,110.67L193.21,110.67L196.08,110.67L196.08,107.35L196.31,107.35L196.31,104.03L199.32,104.03L199.32,100.71L202.13,100.71L202.13,97.39L204.99,97.39L204.99,96.28L207.76,96.28L207.76,94.07L207.96,94.07L207.96,90.75L211.13,90.75L211.13,86.32L214.12,86.32L214.12,83L216.78,83L216.78,81.89L219.56,81.89L219.56,79.68L219.65,76.36L222.71,76.36L222.71,73.04L225.44,73.04L225.44,68.61L228.22,68.61L228.22,65.29L231.02,65.29L231.02,60.87L233.64,60.87L233.64,57.55L236.33,57.55L236.33,110.67L256.07,110.67L256.07,107.35L259.28,107.35L259.28,104.03L262.42,104.03L262.42,100.71L265.35,100.71L265.35,98.49L268.22,98.49L268.33,94.07L271.23,94.07L271.23,90.75L274.07,90.75L274.07,87.43L276.88,87.43L276.88,83L279.66,83L279.66,79.68L282.48,79.68L282.48,76.36L285.32,76.36L285.32,75.25L288.11,75.25L288.3,68.61L291.49,68.61L291.49,65.29L294.21,65.29L294.21,61.97L297.04,61.97L297.04,60.87L299.9,60.87L299.96,55.33L302.53,55.33L302.53,113.99L321.58,113.99L321.73,107.35L324.96,107.35L324.96,106.24L327.9,106.24L328.02,101.81L331.01,101.81L331.01,98.49L333.97,98.49L333.97,95.17L336.83,95.17L336.83,94.07L339.63,94.07L339.72,90.75L342.34,90.75L342.55,85.21L345.37,85.21L345.37,81.89L348.09,81.89L348.09,78.57L350.74,78.57L353.17,78.57L353.17,75.25L353.4,75.25L353.4,71.93L356.22,71.93L356.22,68.61L359.21,68.61L359.21,65.29L361.75,65.29L361.75,61.97L364.51,61.97L364.51,58.65L367.23,58.65L367.23,57.55L369.42,57.55L369.42,55.33L369.66,55.33L369.66,110.67L389.17,110.67L389.17,106.24L392.42,106.24L392.42,102.92L395.57,102.92L395.57,99.6L398.7,99.6L398.7,96.28L401.74,96.28L401.74,94.07L404.63,94.07L404.63,92.96L404.74,89.64L407.67,89.64L407.67,85.21L410.59,85.21L410.59,81.89L413.47,81.89L413.47,78.57L416.28,78.57L419,78.57L419,76.36L419.1,75.25L421.78,75.25L422,71.93L424.43,71.93L424.6,64.19L427.5,64.19L427.5,60.87L430.57,60.87L430.57,59.76L433.53,59.76L433.76,54.23L436.76,54.23L436.76,50.91L439.38,50.91L439.38,110.67L459.53,110.67L459.53,107.35L462.77,107.35L462.77,105.13L466.03,105.13L466.23,100.71L469.42,100.71L469.42,98.49L472.6,98.49L472.6,95.17L475.74,95.17L475.74,94.07L478.62,94.07L478.79,89.64L481.91,89.64L481.91,86.32L484.87,86.32L484.87,84.11L487.66,84.11L487.78,79.68L490.66,79.68L490.66,77.47L493.58,77.47L493.58,75.25L496.45,75.25L496.45,71.93L499.36,71.93L499.36,70.83L502.1,70.83L502.29,65.29L505.11,65.29L505.11,61.97L508.11,61.97L508.11,59.76L511.15,59.76L511.24,54.23L514.17,54.23L514.17,50.91L516.9,50.91L516.9,110.67L537.14,110.67L537.14,107.35L540.44,107.35L540.44,106.24L543.65,106.24L543.81,100.71L547.1,100.71L547.1,97.39L550.27,97.39L550.27,94.07L553.43,94.07L553.43,92.96L556.24,92.96L556.45,87.43L559.46,87.43L559.46,84.11L562.43,84.11L562.43,83L565.24,83L565.36,80.79L568,80.79L568.29,75.25L571.25,75.25L571.25,70.83L574.16,70.83L574.16,67.51L576.95,67.51L576.95,66.4L579.72,66.4L579.88,60.87L582.75,60.87L582.75,57.55L585.52,57.55L585.52,54.23L588.42,54.23L588.42,52.01L591.38,52.01L591.38,50.91L591.52,113.99L612.21,113.99L612.3,107.35L615.65,107.35L615.65,105.13L618.83,105.13L618.83,101.81L621.99,101.81L621.99,100.71L624.83,100.71L625.06,94.07L628.06,94.07L628.06,90.75L631.09,90.75L631.09,88.53L633.94,88.53L634.09,84.11L636.95,84.11L636.95,80.79L639.9,80.79L639.9,77.47L642.88,77.47L642.88,76.36L645.65,76.36L645.84,70.83L648.74,70.83L648.74,67.51L651.42,67.51L651.42,64.19L654.16,64.19L654.16,60.87L656.87,60.87" style="vector-effect: non-scaling-stroke; fill: none; stroke: rgb(195, 113, 210); stroke-opacity: 1; stroke-width: 1px; opacity: 1;"/></g><g class="points"/><g class="text"/></g><g class="trace scatter trace4da176" style="stroke-miterlimit: 2; opacity: 1;"><g class="fills"/><g class="errorbars"/><g class="lines"><path class="js-line" d="M19.36,80.79L19.36,77.47L21.74,77.47L21.89,70.83L24.41,70.83L24.41,66.4L27.21,66.4L27.21,61.97L29.92,61.97L29.92,57.55L32.54,57.55L32.54,53.12L35.18,53.12L35.18,48.69L37.78,48.69L39.88,48.69L39.88,43.16L40.12,43.16L40.12,39.84L42.59,39.84L42.59,38.73L42.75,38.73L42.75,106.24L61.2,106.24L61.2,105.13L64.18,105.13L64.18,100.71L64.42,100.71L64.42,95.17L67.29,95.17L67.29,90.75L70.45,90.75L70.45,86.32L73.47,86.32L73.47,81.89L76.83,81.89L76.83,77.47L79.58,77.47L79.58,74.15L82.29,74.15L82.29,73.04L82.44,68.61L85.42,68.61L85.42,67.51L87.73,67.51L87.99,60.87L90.45,60.87L90.6,54.23L93.07,54.23L93.07,48.69L95.75,48.69L95.75,44.27L98.49,44.27L98.49,39.84L101.26,39.84L101.26,35.41L103.92,35.41L104.08,28.77L106.45,28.77L106.45,106.24L125.64,106.24L125.64,100.71L128.75,100.71L128.75,95.17L131.89,95.17L131.89,90.75L135.04,90.75L135.04,85.21L138.04,85.21L138.04,79.68L141.38,79.68L141.38,73.04L144.39,73.04L144.39,67.51L147.14,67.51L147.14,64.19L150.03,64.19L150.17,56.44L153.15,56.44L153.15,50.91L155.79,50.91L155.79,45.37L158.54,45.37L158.54,44.27L160.86,44.27L161.01,38.73L163.54,38.73L163.74,33.2L166.23,33.2L166.43,26.56L169,26.56L169.07,21.03L171.61,21.03L171.74,15.49L174.27,15.49L174.27,12.17L174.44,106.24L193.21,106.24L196.08,106.24L196.08,100.71L196.31,100.71L196.31,95.17L199.32,95.17L199.32,89.64L202.13,89.64L202.13,84.11L205.03,84.11L205.03,83L207.76,83L207.76,78.57L207.96,78.57L207.96,73.04L211.13,73.04L211.13,67.51L214.12,67.51L214.12,61.97L216.78,61.97L216.78,59.76L219.56,59.76L219.56,56.44L219.65,50.91L222.71,50.91L222.71,45.37L225.44,45.37L225.44,39.84L228.22,39.84L228.22,34.31L231.02,34.31L231.02,28.77L233.64,28.77L233.64,23.24L236.33,23.24L236.33,106.24L256.07,106.24L256.07,100.71L259.28,100.71L259.28,95.17L262.42,95.17L262.42,89.64L265.35,89.64L265.35,86.32L268.22,86.32L268.33,78.57L271.27,78.57L271.27,73.04L274.07,73.04L274.07,67.51L276.88,67.51L276.88,60.87L279.66,60.87L279.66,55.33L282.48,55.33L282.48,49.8L285.32,49.8L285.32,48.69L288.11,48.69L288.3,38.73L291.49,38.73L291.49,33.2L294.21,33.2L294.21,27.67L297.04,27.67L297.04,25.45L299.9,25.45L299.96,16.6L302.53,16.6L302.53,111.77L321.59,111.77L321.73,100.71L324.96,100.71L324.96,99.6L327.9,99.6L328.02,90.75L331.17,90.75L331.17,85.21L333.97,85.21L333.97,79.68L336.83,79.68L336.83,77.47L339.63,77.47L339.72,73.04L342.34,73.04L342.55,63.08L345.37,63.08L345.37,57.55L348.09,57.55L348.09,52.01L350.74,52.01L353.17,52.01L353.17,46.48L353.4,46.48L353.4,40.95L356.22,40.95L356.22,35.41L359.21,35.41L359.21,29.88L361.75,29.88L361.75,24.35L364.51,24.35L364.51,18.81L367.23,18.81L367.23,17.71L369.42,17.71L369.42,13.28L369.66,13.28L369.66,106.24L389.18,106.24L389.18,98.49L392.42,98.49L392.42,92.96L395.57,92.96L395.57,87.43L398.7,87.43L398.7,81.89L401.74,81.89L401.74,78.57L404.63,78.57L404.63,76.36L404.74,70.83L407.67,70.83L407.67,65.29L410.59,65.29L410.59,59.76L413.47,59.76L413.47,54.23L416.28,54.23L416.28,53.12L419,53.12L419.25,47.59L421.78,47.59L422.03,43.16L424.43,43.16L424.76,30.99L427.5,30.99L427.5,25.45L430.57,25.45L430.57,24.35L433.53,24.35L433.76,14.39L436.76,14.39L436.76,8.85L439.38,8.85L439.38,106.24L459.53,106.24L459.53,100.71L462.77,100.71L462.77,99.6L466.03,99.6L466.23,89.64L469.42,89.64L469.42,85.21L472.6,85.21L472.6,79.68L475.74,79.68L475.74,78.57L478.62,78.57L478.79,68.61L481.96,68.61L481.96,63.08L484.87,63.08L484.87,59.76L487.67,59.76L487.78,52.01L490.66,52.01L490.66,46.48L493.58,46.48L493.58,42.05L496.6,42.05L496.6,36.52L499.36,36.52L499.36,35.41L502.1,35.41L502.29,25.45L505.11,25.45L505.11,19.92L508.12,19.92L508.12,17.71L511.15,17.71L511.24,8.85L514.17,8.85L514.17,3.32L516.9,3.32L516.9,106.24L537.14,106.24L537.14,99.6L540.63,99.6L540.63,98.49L543.65,98.49L543.81,88.53L547.1,88.53L547.1,83L550.27,83L550.27,77.47L553.43,77.47L553.43,75.25L556.24,75.25L556.45,65.29L559.46,65.29L559.46,59.76L562.43,59.76L562.43,57.55L565.24,57.55L565.41,53.12L568,53.12L568.29,43.16L571.25,43.16L571.25,37.63L574.16,37.63L574.16,32.09L576.95,32.09L576.95,30.99L579.72,30.99L579.88,21.03L582.75,21.03L582.75,15.49L585.52,15.49L585.52,9.96L588.42,9.96L588.42,4.43L591.52,4.43L591.52,111.77L612.21,111.77L612.3,100.71L615.69,100.71L615.69,96.28L618.83,96.28L618.83,90.75L621.99,90.75L621.99,89.64L624.83,89.64L625.06,78.57L628.06,78.57L628.06,73.04L631.09,73.04L631.09,67.51L633.94,67.51L634.09,60.87L636.95,60.87L636.95,55.33L639.9,55.33L639.9,49.8L642.88,49.8L642.88,48.69L645.65,48.69L645.84,36.52L648.74,36.52L648.74,30.99L651.42,30.99L651.42,25.45L654.16,25.45L654.16,19.92L656.87,19.92" style="vector-effect: non-scaling-stroke; fill: none; stroke: rgb(172, 142, 24); stroke-opacity: 1; stroke-width: 1px; opacity: 1;"/></g><g class="points"/><g class="text"/></g><g class="trace scatter trace6d69bb" style="stroke-miterlimit: 2; opacity: 1;"><g class="fills"/><g class="errorbars"/><g class="lines"><path class="js-line" d="M21.64,112.88L42.5,112.88L42.5,111.77L42.75,111.77L42.75,112.88L103.82,112.88L103.82,111.77L106.45,111.77L106.45,112.88L174.27,112.88L174.27,111.77L174.44,111.77L174.44,112.88L233.54,112.88L233.54,111.77L236.33,111.77L236.33,112.88L299.9,112.88L299.9,111.77L302.53,111.77L302.53,113.99L321.58,113.99L321.58,112.88L367.11,112.88L367.11,111.77L369.66,111.77L369.66,112.88L436.66,112.88L436.66,111.77L439.38,111.77L439.38,112.88L514.1,112.88L514.1,111.77L516.9,111.77L516.9,112.88L591.38,112.88L591.38,111.77L591.52,113.99L612.21,113.99L612.21,112.88L612.3,112.88L615.52,112.88L654.1,112.88L654.1,111.77L656.87,111.77" style="vector-effect: non-scaling-stroke; fill: none; stroke: rgb(0, 170, 174); stroke-opacity: 1; stroke-width: 1px; opacity: 1;"/></g><g class="points"/><g class="text"/></g></g></g><g class="overplot"/><path class="xlines-above crisp" d="M0,0" style="fill: none;"/><path class="ylines-above crisp" d="M38.9925634295713,41.043307086614185V158.3506725409426" style="fill: none; stroke-width: 1px; stroke: rgb(0, 0, 0); stroke-opacity: 1;"/><g class="overlines-above"/><g class="xaxislayer-above"/><g class="yaxislayer-above"><path class="ytick ticks crisp" d="M39.4925634295713,0h5" transform="translate(0,155.03330708661417)" style="stroke: rgb(0, 0, 0); stroke-opacity: 1; stroke-width: 1px;"/><path class="ytick ticks crisp" d="M39.4925634295713,0h5" transform="translate(0,127.36330708661418)" style="stroke: rgb(0, 0, 0); stroke-opacity: 1; stroke-width: 1px;"/><path class="ytick ticks crisp" d="M39.4925634295713,0h5" transform="translate(0,99.69330708661418)" style="stroke: rgb(0, 0, 0); stroke-opacity: 1; stroke-width: 1px;"/><path class="ytick ticks crisp" d="M39.4925634295713,0h5" transform="translate(0,72.03330708661419)" style="stroke: rgb(0, 0, 0); stroke-opacity: 1; stroke-width: 1px;"/><path class="ytick ticks crisp" d="M39.4925634295713,0h5" transform="translate(0,44.363307086614185)" style="stroke: rgb(0, 0, 0); stroke-opacity: 1; stroke-width: 1px;"/><g class="ytick"><text text-anchor="end" x="36.292563429571295" y="3.8499999999999996" transform="translate(0,155.03330708661417)" style="font-family: sans-serif; font-size: 11px; fill: rgb(0, 0, 0); fill-opacity: 1; white-space: pre; opacity: 1;">0</text></g><g class="ytick"><text text-anchor="end" x="36.292563429571295" y="3.8499999999999996" style="font-family: sans-serif; font-size: 11px; fill: rgb(0, 0, 0); fill-opacity: 1; white-space: pre; opacity: 1;" transform="translate(0,127.36330708661418)">25</text></g><g class="ytick"><text text-anchor="end" x="36.292563429571295" y="3.8499999999999996" style="font-family: sans-serif; font-size: 11px; fill: rgb(0, 0, 0); fill-opacity: 1; white-space: pre; opacity: 1;" transform="translate(0,99.69330708661418)">50</text></g><g class="ytick"><text text-anchor="end" x="36.292563429571295" y="3.8499999999999996" style="font-family: sans-serif; font-size: 11px; fill: rgb(0, 0, 0); fill-opacity: 1; white-space: pre; opacity: 1;" transform="translate(0,72.03330708661419)">75</text></g><g class="ytick"><text text-anchor="end" x="36.292563429571295" y="3.8499999999999996" style="font-family: sans-serif; font-size: 11px; fill: rgb(0, 0, 0); fill-opacity: 1; white-space: pre; opacity: 1;" transform="translate(0,44.363307086614185)">100</text></g></g><g class="overaxes-above"/></g><g class="subplot xy2"><g class="layer-subplot"><g class="shapelayer"/><g class="imagelayer"/></g><g class="gridlayer"><g class="x"><path class="xgrid crisp" transform="translate(58.6425634295713,0)" d="M0,192.93728671417094v117.30736545432843" style="stroke: rgb(0, 0, 0); stroke-opacity: 0.1; stroke-width: 0.5px;"/><path class="xgrid crisp" transform="translate(85.7225634295713,0)" d="M0,192.93728671417094v117.30736545432843" style="stroke: rgb(0, 0, 0); stroke-opacity: 0.1; stroke-width: 0.5px;"/><path class="xgrid crisp" transform="translate(112.8125634295713,0)" d="M0,192.93728671417094v117.30736545432843" style="stroke: rgb(0, 0, 0); stroke-opacity: 0.1; stroke-width: 0.5px;"/><path class="xgrid crisp" transform="translate(139.8925634295713,0)" d="M0,192.93728671417094v117.30736545432843" style="stroke: rgb(0, 0, 0); stroke-opacity: 0.1; stroke-width: 0.5px;"/><path class="xgrid crisp" transform="translate(166.9725634295713,0)" d="M0,192.93728671417094v117.30736545432843" style="stroke: rgb(0, 0, 0); stroke-opacity: 0.1; stroke-width: 0.5px;"/><path class="xgrid crisp" transform="translate(194.0625634295713,0)" d="M0,192.93728671417094v117.30736545432843" style="stroke: rgb(0, 0, 0); stroke-opacity: 0.1; stroke-width: 0.5px;"/><path class="xgrid crisp" transform="translate(221.1425634295713,0)" d="M0,192.93728671417094v117.30736545432843" style="stroke: rgb(0, 0, 0); stroke-opacity: 0.1; stroke-width: 0.5px;"/><path class="xgrid crisp" transform="translate(248.2225634295713,0)" d="M0,192.93728671417094v117.30736545432843" style="stroke: rgb(0, 0, 0); stroke-opacity: 0.1; stroke-width: 0.5px;"/><path class="xgrid crisp" transform="translate(275.3125634295713,0)" d="M0,192.93728671417094v117.30736545432843" style="stroke: rgb(0, 0, 0); stroke-opacity: 0.1; stroke-width: 0.5px;"/><path class="xgrid crisp" transform="translate(302.3925634295713,0)" d="M0,192.93728671417094v117.30736545432843" style="stroke: rgb(0, 0, 0); stroke-opacity: 0.1; stroke-width: 0.5px;"/><path class="xgrid crisp" transform="translate(329.4825634295713,0)" d="M0,192.93728671417094v117.30736545432843" style="stroke: rgb(0, 0, 0); stroke-opacity: 0.1; stroke-width: 0.5px;"/><path class="xgrid crisp" transform="translate(356.5625634295713,0)" d="M0,192.93728671417094v117.30736545432843" style="stroke: rgb(0, 0, 0); stroke-opacity: 0.1; stroke-width: 0.5px;"/><path class="xgrid crisp" transform="translate(383.6425634295713,0)" d="M0,192.93728671417094v117.30736545432843" style="stroke: rgb(0, 0, 0); stroke-opacity: 0.1; stroke-width: 0.5px;"/><path class="xgrid crisp" transform="translate(410.7325634295713,0)" d="M0,192.93728671417094v117.30736545432843" style="stroke: rgb(0, 0, 0); stroke-opacity: 0.1; stroke-width: 0.5px;"/><path class="xgrid crisp" transform="translate(437.8125634295713,0)" d="M0,192.93728671417094v117.30736545432843" style="stroke: rgb(0, 0, 0); stroke-opacity: 0.1; stroke-width: 0.5px;"/><path class="xgrid crisp" transform="translate(464.8925634295713,0)" d="M0,192.93728671417094v117.30736545432843" style="stroke: rgb(0, 0, 0); stroke-opacity: 0.1; stroke-width: 0.5px;"/><path class="xgrid crisp" transform="translate(491.9825634295713,0)" d="M0,192.93728671417094v117.30736545432843" style="stroke: rgb(0, 0, 0); stroke-opacity: 0.1; stroke-width: 0.5px;"/><path class="xgrid crisp" transform="translate(519.0625634295712,0)" d="M0,192.93728671417094v117.30736545432843" style="stroke: rgb(0, 0, 0); stroke-opacity: 0.1; stroke-width: 0.5px;"/><path class="xgrid crisp" transform="translate(546.1525634295713,0)" d="M0,192.93728671417094v117.30736545432843" style="stroke: rgb(0, 0, 0); stroke-opacity: 0.1; stroke-width: 0.5px;"/><path class="xgrid crisp" transform="translate(573.2325634295713,0)" d="M0,192.93728671417094v117.30736545432843" style="stroke: rgb(0, 0, 0); stroke-opacity: 0.1; stroke-width: 0.5px;"/><path class="xgrid crisp" transform="translate(600.3125634295714,0)" d="M0,192.93728671417094v117.30736545432843" style="stroke: rgb(0, 0, 0); stroke-opacity: 0.1; stroke-width: 0.5px;"/><path class="xgrid crisp" transform="translate(627.4025634295713,0)" d="M0,192.93728671417094v117.30736545432843" style="stroke: rgb(0, 0, 0); stroke-opacity: 0.1; stroke-width: 0.5px;"/><path class="xgrid crisp" transform="translate(654.4825634295713,0)" d="M0,192.93728671417094v117.30736545432843" style="stroke: rgb(0, 0, 0); stroke-opacity: 0.1; stroke-width: 0.5px;"/><path class="xgrid crisp" transform="translate(681.5625634295714,0)" d="M0,192.93728671417094v117.30736545432843" style="stroke: rgb(0, 0, 0); stroke-opacity: 0.1; stroke-width: 0.5px;"/><path class="xgrid crisp" transform="translate(708.6525634295713,0)" d="M0,192.93728671417094v117.30736545432843" style="stroke: rgb(0, 0, 0); stroke-opacity: 0.1; stroke-width: 0.5px;"/></g><g class="y2"><path class="y2grid crisp" transform="translate(0,306.9272867141709)" d="M39.4925634295713,0h676.5704286964129" style="stroke: rgb(0, 0, 0); stroke-opacity: 0.1; stroke-width: 0.5px;"/><path class="y2grid crisp" transform="translate(0,285.4172867141709)" d="M39.4925634295713,0h676.5704286964129" style="stroke: rgb(0, 0, 0); stroke-opacity: 0.1; stroke-width: 0.5px;"/><path class="y2grid crisp" transform="translate(0,263.9172867141709)" d="M39.4925634295713,0h676.5704286964129" style="stroke: rgb(0, 0, 0); stroke-opacity: 0.1; stroke-width: 0.5px;"/><path class="y2grid crisp" transform="translate(0,242.40728671417094)" d="M39.4925634295713,0h676.5704286964129" style="stroke: rgb(0, 0, 0); stroke-opacity: 0.1; stroke-width: 0.5px;"/><path class="y2grid crisp" transform="translate(0,220.90728671417094)" d="M39.4925634295713,0h676.5704286964129" style="stroke: rgb(0, 0, 0); stroke-opacity: 0.1; stroke-width: 0.5px;"/><path class="y2grid crisp" transform="translate(0,199.39728671417095)" d="M39.4925634295713,0h676.5704286964129" style="stroke: rgb(0, 0, 0); stroke-opacity: 0.1; stroke-width: 0.5px;"/></g></g><g class="zerolinelayer"/><path class="xlines-below"/><path class="ylines-below"/><g class="overlines-below"/><g class="xaxislayer-below"/><g class="yaxislayer-below"/><g class="overaxes-below"/><g class="plot" transform="translate(39.4925634295713,192.93728671417094)" clip-path="url(#clipee983bxy2plot)"><g class="scatterlayer mlayer"><g class="trace scatter trace078e72" style="stroke-miterlimit: 2; opacity: 1;"><g class="fills"/><g class="errorbars"/><g class="lines"><path class="js-line" d="M19.15,108.18L41.72,107.45L41.72,104.26L42.62,104.26L42.62,95.72L43.52,95.72L43.52,109.6L60.68,109.6L60.68,111.43L61.58,111.43L61.58,113.99L63.39,113.99L63.39,98.31L64.29,98.31L64.29,106.42L65.19,106.42L65.19,108.57L76.93,108.76L76.93,108L85.05,108.56L85.05,112.67L85.95,112.67L85.95,113.99L86.86,113.99L86.86,108.87L87.76,108.87L87.76,95.51L88.66,95.51L88.66,107.79L103.11,107.9L103.11,107.22L104.01,107.22L104.01,101.19L105.82,101.19L105.82,103.76L106.72,103.76L106.72,109.77L125.68,109.73L125.68,108.78L137.41,108.7L137.41,107.17L138.32,107.17L138.32,104.43L141.03,104.43L141.03,106.97L141.93,106.97L141.93,108.61L146.44,108.11L146.44,109.43L147.34,109.43L147.34,113.99L149.15,113.99L149.15,111.16L150.05,111.16L150.05,94.18L150.96,94.18L150.96,108.54L156.37,107.79L156.37,107.74L166.3,107.98L166.3,113.14L167.21,113.14L167.21,113.99L168.11,113.99L168.11,110.4L169.01,110.4L169.01,99.65L169.91,99.65L169.91,113.99L170.82,113.99L170.82,99.23L171.72,99.23L171.72,110.82L172.62,110.82L172.62,113.99L173.53,113.99L173.53,79.77L174.43,79.77L174.43,108.09L175.33,108.09L175.33,109.69L193.39,109.53L193.39,108.7L196.1,108.7L196.1,104.51L197,104.51L197,103.23L198.8,103.23L198.8,105.4L199.71,105.4L199.71,108.24L214.15,108.56L214.15,107.9L216.86,108.45L216.86,113.99L218.67,113.99L218.67,112.49L219.57,112.49L219.57,92.76L220.47,92.76L220.47,108.7L231.3,108.09L231.3,107.83L233.11,107.83L233.11,105.42L234.01,105.42L234.01,101.94L235.82,101.94L235.82,107.16L236.72,107.16L236.72,113.99L254.78,113.99L254.78,107.59L255.68,107.59L255.68,27.93L256.58,27.93L256.58,108.95L259.29,108.91L259.29,103.67L262,103.67L262,106.23L262.9,106.23L262.9,108.47L264.71,108.47L264.71,110.04L265.61,110.04L265.61,113.99L267.42,113.99L267.42,97.35L268.32,97.35L268.32,107.18L269.22,107.18L269.22,108.42L291.79,108.62L291.79,108.03L296.31,108.28L296.31,109.33L297.21,109.33L297.21,113.99L299.01,113.99L299.01,109.51L299.92,109.51L299.92,88.6L300.82,88.6L300.82,101.41L301.72,101.41L301.72,102.67L302.62,102.67L302.62,113.99L320.68,113.99L320.68,109.51L321.58,109.51L321.58,24.65L322.49,24.65L322.49,108.99L336.93,108.99L336.93,113.99L338.74,113.99L338.74,112.49L339.64,112.49L339.64,92.36L340.54,92.36L340.54,108.27L359.5,108.27L359.5,107.61L361.31,107.61L361.31,104.89L362.21,104.89L362.21,102.27L364.01,102.27L364.01,104.86L364.92,104.86L364.92,108.03L366.72,108.03L366.72,101.87L367.63,101.87L367.63,94.07L369.43,94.07L369.43,105.77L370.33,105.77L370.33,109.84L389.29,109.74L389.29,108.99L398.32,108.82L398.32,105.62L399.22,105.62L399.22,103.34L401.03,103.34L401.03,105.65L401.93,105.65L401.93,113.99L403.74,113.99L403.74,111.6L404.64,111.6L404.64,93.54L405.54,93.54L405.54,108.47L416.38,108.85L416.38,113.99L418.18,113.99L418.18,98.82L419.09,98.82L419.09,111.23L419.99,111.23L419.99,113.99L420.89,113.99L420.89,112.75L421.79,112.75L421.79,92.49L422.7,92.49L422.7,107.77L427.21,108.33L427.21,108.66L436.24,108.58L436.24,103L437.14,103L437.14,95.45L438.95,95.45L438.95,103.07L439.85,103.07L439.85,109.97L459.71,109.78L459.71,109L462.42,109L462.42,112.03L463.32,112.03L463.32,113.99L466.03,113.99L466.03,92.09L466.93,92.09L466.93,108.92L486.79,108.19L486.79,102.83L487.7,102.83L487.7,96.57L488.6,96.57L488.6,108.37L507.56,108.58L507.56,110.7L508.46,110.7L508.46,113.99L510.27,113.99L510.27,110.73L511.17,110.73L511.17,94.22L512.07,94.22L512.07,108.47L513.88,108.47L513.88,104.2L514.78,104.2L514.78,102.14L516.59,102.14L516.59,107.25L517.49,107.25L517.49,110L537.35,109.81L537.35,109.02L552.7,108.73L552.7,110.22L553.6,110.22L553.6,113.99L555.41,113.99L555.41,106.38L556.31,106.38L556.31,99.14L557.21,99.14L557.21,108.61L561.73,108.53L561.73,109.76L562.63,109.76L562.63,113.99L564.43,113.99L564.43,99.43L565.34,99.43L565.34,105.25L566.24,105.25L566.24,108.47L568.05,108.47L568.05,104.54L568.95,104.54L568.95,103.04L573.46,102.87L573.46,104.07L574.37,104.07L574.37,108.18L579.78,108.47L579.78,103.35L582.49,102.73L582.49,102.42L585.2,102.3L585.2,106.21L586.1,106.21L586.1,108.4L587.91,108.4L587.91,110.82L588.81,110.82L588.81,113.99L590.62,113.99L590.62,78.14L591.52,78.14L591.52,113.21L611.38,113.21L611.38,54.61L612.28,54.61L612.28,96.21L613.19,96.21L613.19,109.17L631.24,108.59L631.24,108.31L653.81,108.1L653.81,104.41L654.71,104.41L654.71,102.04L656.52,102.04L656.52,109.31L657.42,109.31L657.42,113.99" style="vector-effect: non-scaling-stroke; fill: none; stroke: rgb(0, 154, 250); stroke-opacity: 1; stroke-width: 1px; opacity: 1;"/></g><g class="points"/><g class="text"/></g><g class="trace scatter trace5dbe0b" style="stroke-miterlimit: 2; opacity: 1;"><g class="fills"/><g class="errorbars"/><g class="lines"><path class="js-line" d="M19.15,102.36L20.05,102.36L20.05,101.07L21.86,100.41L21.86,95.81L23.66,95.81L23.66,96.76L24.56,96.76L24.56,101.52L37.2,101.52L37.2,108.27L38.11,108.27L38.11,113.99L39.01,113.99L39.01,107.05L39.91,107.05L39.91,57.03L40.82,57.03L40.82,100.91L42.62,101.29L42.62,112.25L61.58,112.97L61.58,113.99L63.39,113.99L63.39,82.63L64.29,82.63L64.29,93.53L65.19,93.53L65.19,97.74L67,97.74L67,101.45L67.9,101.45L67.9,103.23L74.22,103.97L74.22,104.01L76.93,103.54L76.93,102.01L82.34,102.75L82.34,103.13L85.05,103.13L85.05,111.36L85.95,111.36L85.95,113.99L86.86,113.99L86.86,103.75L87.76,103.75L87.76,77.02L88.66,77.02L88.66,101.59L90.47,101.44L90.47,95.5L94.98,95.86L94.98,96.81L95.89,96.81L95.89,102.17L103.11,101.8L103.11,101.1L104.01,101.1L104.01,94.79L105.82,94.79L105.82,100.04L106.72,100.04L106.72,112.3L125.68,111.87L125.68,103.6L128.39,103.6L128.39,100.57L129.29,100.57L129.29,98.55L132,99.11L132,103.34L134.71,103.34L134.71,99.47L135.61,99.47L135.61,98.17L137.41,98.17L137.41,97L138.32,97L138.32,94.83L141.03,94.83L141.03,93.4L141.93,93.4L141.93,92.48L143.73,92.48L143.73,93.55L144.64,93.55L144.64,96.36L146.44,96.36L146.44,99.07L147.34,99.07L147.34,108.39L149.15,108.39L149.15,105.7L150.05,105.7L150.05,84.74L150.96,84.74L150.96,97.65L152.76,97.65L152.76,100.02L153.66,100.02L153.66,101.77L155.47,101.77L155.47,93.56L156.37,93.56L156.37,88.98L158.18,88.98L158.18,103.3L159.08,103.3L159.08,107.45L159.98,107.45L159.98,100.84L160.89,100.84L160.89,79.48L161.79,79.48L161.79,107.59L162.69,107.59L162.69,98.31L163.59,98.31L163.59,82.33L164.5,82.33L164.5,107.49L165.4,107.49L165.4,94.76L166.3,94.76L166.3,91.42L167.21,91.42L167.21,113.99L168.11,113.99L168.11,106.82L169.01,106.82L169.01,79.37L169.91,79.37L169.91,107.62L170.82,107.62L170.82,78.85L171.72,78.85L171.72,107.66L172.62,107.66L172.62,113.99L173.53,113.99L173.53,79.77L174.43,79.77L174.43,110.65L175.33,110.65L175.33,112.26L192.48,112.26L192.48,110.52L193.39,110.52L193.39,103.55L196.1,103.55L196.1,95.06L197,95.06L197,92.48L198.8,92.48L198.8,96.82L199.71,96.82L199.71,102.49L201.51,102.49L201.51,100.75L202.42,100.75L202.42,97.01L204.22,97.01L204.22,98.68L205.12,98.68L205.12,108.16L206.93,108.16L206.93,96.19L207.83,96.19L207.83,77.4L208.73,77.4L208.73,98.66L210.54,98.66L210.54,96.46L211.44,96.46L211.44,92.37L214.15,92.69L214.15,101.8L216.86,102.39L216.86,108.18L218.67,108.18L218.67,105.24L219.57,105.24L219.57,71.53L220.47,71.53L220.47,103.42L222.28,103.42L222.28,99.7L223.18,99.7L223.18,96.21L224.98,96.21L224.98,93.49L225.89,93.49L225.89,90.68L227.69,90.68L227.69,93.16L228.6,93.16L228.6,96.64L230.4,96.64L230.4,94.33L231.3,94.33L231.3,89.34L233.11,89.34L233.11,94.48L234.01,94.48L234.01,101.94L235.82,101.94L235.82,106.45L236.72,106.45L236.72,112.35L255.68,112.35L255.68,107.57L256.58,107.57L256.58,103.91L259.29,103.83L259.29,93.36L262,93.36L262,98.48L262.9,98.48L262.9,102.96L267.42,102.7L267.42,70.64L268.32,70.64L268.32,94.85L269.22,94.85L269.22,97.27L273.74,96.92L273.74,93.17L274.64,93.17L274.64,90.93L276.44,90.93L276.44,93.83L277.35,93.83L277.35,96.55L279.15,96.55L279.15,94.14L280.06,94.14L280.06,90.99L281.86,90.99L281.86,94.67L282.76,94.67L282.76,102.61L284.57,102.61L284.57,103.54L285.47,103.54L285.47,108.18L287.28,108.18L287.28,94.87L288.18,94.87L288.18,78.74L289.08,78.74L289.08,98.77L290.89,98.77L290.89,97.89L291.79,97.89L291.79,96.12L296.31,96.87L296.31,100.01L297.21,100.01L297.21,113.99L299.01,113.99L299.01,105.03L299.92,105.03L299.92,69.18L300.82,69.18L300.82,95.12L301.72,95.12L301.72,97.01L302.62,97.01L302.62,113.99L320.68,113.99L320.68,112.2L321.58,112.2L321.58,71.52L322.49,71.52L322.49,103.98L324.29,103.98L324.29,105.15L325.19,105.15L325.19,108.49L327.9,108.49L327.9,68.69L328.81,68.69L328.81,103.18L330.61,103.18L330.61,100.05L331.51,100.05L331.51,97.57L336.03,97.01L336.03,98.32L336.93,98.32L336.93,108.22L338.74,108.22L338.74,105.28L339.64,105.28L339.64,75.52L340.54,75.52L340.54,107.81L341.44,107.81L341.44,105.94L342.35,105.94L342.35,53.25L343.25,53.25L343.25,102.52L345.06,102.52L345.06,98.36L345.96,98.36L345.96,96.12L347.76,96.12L347.76,99.74L348.67,99.74L348.67,101.77L350.47,101.77L350.47,110.42L351.38,110.42L351.38,113.99L352.28,113.99L352.28,112.2L353.18,112.2L353.18,48.97L354.08,48.97L354.08,96.78L356.79,97.41L356.79,97.78L358.6,97.78L358.6,96.85L359.5,96.85L359.5,94.84L361.31,94.84L361.31,98.62L362.21,98.62L362.21,102.27L364.01,102.27L364.01,96.82L364.92,96.82L364.92,90.16L366.72,90.16L366.72,94.82L367.63,94.82L367.63,100.71L369.43,100.71L369.43,109.33L370.33,109.33L370.33,112.33L388.39,112.33L388.39,110.55L389.29,110.55L389.29,99.02L395.61,98.84L395.61,103.65L398.32,103.65L398.32,97.26L399.22,97.26L399.22,92.69L401.03,92.69L401.03,94.88L401.93,94.88L401.93,102.79L403.74,102.79L403.74,98.19L404.64,98.19L404.64,68.17L405.54,68.17L405.54,97.44L410.06,97.36L410.06,99.56L410.96,99.56L410.96,102.76L412.77,102.76L412.77,101.44L413.67,101.44L413.67,96.69L415.47,96.69L415.47,98.56L416.38,98.56L416.38,113.99L418.18,113.99L418.18,83.66L419.09,83.66L419.09,102.53L419.99,102.53L419.99,107.95L420.89,107.95L420.89,105.58L421.79,105.58L421.79,75.47L422.7,75.47L422.7,107.35L423.6,107.35L423.6,85.85L424.5,85.85L424.5,67.28L425.4,67.28L425.4,97.23L428.11,97.9L428.11,98.21L429.92,98.21L429.92,99.76L430.82,99.76L430.82,103.84L433.53,103.84L433.53,99.34L434.43,99.34L434.43,97.78L436.24,97.78L436.24,99.41L437.14,99.41L437.14,101.63L438.95,101.63L438.95,107.27L439.85,107.27L439.85,112.38L458.81,112.38L458.81,110.71L459.71,110.71L459.71,104.01L462.42,104.01L462.42,106.95L463.32,106.95L463.32,108.84L465.13,108.84L465.13,89.82L466.03,89.82L466.03,71.95L466.93,71.95L466.93,103.84L472.35,103.82L472.35,99.97L473.25,99.97L473.25,98.52L475.06,98.52L475.06,100.98L475.96,100.98L475.96,108.39L477.77,108.39L477.77,98.89L478.67,98.89L478.67,74.45L479.57,74.45L479.57,98.44L481.38,98.44L481.38,100.32L482.28,100.32L482.28,103.04L486.79,102.39L486.79,91.68L487.7,91.68L487.7,79.15L488.6,79.15L488.6,102.76L490.41,102.76L490.41,98.89L491.31,98.89L491.31,97.36L493.11,97.36L493.11,99.95L494.02,99.95L494.02,102.73L499.43,103.28L499.43,108.08L501.24,108.08L501.24,100.1L502.14,100.1L502.14,81.64L503.04,81.64L503.04,108.25L504.85,108.25L504.85,100.83L505.75,100.83L505.75,97.78L507.56,97.78L507.56,104.13L508.46,104.13L508.46,113.99L510.27,113.99L510.27,107.47L511.17,107.47L511.17,69.36L512.07,69.36L512.07,97.44L513.88,97.44L513.88,96.61L516.59,96.21L516.59,106.73L517.49,106.73L517.49,112.39L536.45,112.39L536.45,110.47L537.35,110.47L537.35,104.17L540.06,104.17L540.06,106.96L540.96,106.96L540.96,108.95L542.77,108.95L542.77,104.19L543.67,104.19L543.67,74.75L544.57,74.75L544.57,104.15L546.38,104.15L546.38,102.03L547.28,102.03L547.28,93.55L549.99,93.55L549.99,97.06L550.89,97.06L550.89,98.63L552.7,98.63L552.7,100.45L553.6,100.45L553.6,108.16L555.41,108.16L555.41,93.63L556.31,93.63L556.31,75.25L557.21,75.25L557.21,92.48L559.02,92.48L559.02,97.86L559.92,97.86L559.92,103.07L561.73,103.07L561.73,104.23L562.63,104.23L562.63,108.24L564.43,108.24L564.43,79.74L565.34,79.74L565.34,96.51L566.24,96.51L566.24,102.96L568.05,102.96L568.05,95.09L568.95,95.09L568.95,92.1L573.46,91.76L573.46,94.15L574.37,94.15L574.37,102.36L576.17,102.36L576.17,103.18L577.07,103.18L577.07,108.16L578.88,108.16L578.88,94.89L579.78,94.89L579.78,81.76L580.68,81.76L580.68,102.73L582.49,102.73L582.49,94.15L583.39,94.15L583.39,90.61L585.2,90.61L585.2,98.44L586.1,98.44L586.1,102.82L590.62,103.07L590.62,86.79L591.52,86.79L591.52,113.21L611.38,113.21L611.38,98.6L612.28,98.6L612.28,101.25L613.19,101.25L613.19,104.34L621.31,103.75L621.31,104.88L622.21,104.88L622.21,108.3L624.02,108.3L624.02,88.06L624.92,88.06L624.92,67.39L625.82,67.39L625.82,97.78L631.24,97.81L631.24,96.96L633.95,96.21L633.95,87.44L634.85,87.44L634.85,102.67L636.66,102.67L636.66,99.2L637.56,99.2L637.56,97.53L639.37,97.53L639.37,99.81L640.27,99.81L640.27,103.13L642.98,103.67L642.98,108.14L644.78,108.14L644.78,101.49L645.69,101.49L645.69,71.21L646.59,71.21L646.59,97.23L648.39,97.23L648.39,96.39L653.81,96.31L653.81,99.8L654.71,99.8L654.71,102.04L656.52,102.04L656.52,109.31L657.42,109.31L657.42,113.99" style="vector-effect: non-scaling-stroke; fill: none; stroke: rgb(227, 111, 71); stroke-opacity: 1; stroke-width: 1px; opacity: 1;"/></g><g class="points"/><g class="text"/></g><g class="trace scatter trace777a2a" style="stroke-miterlimit: 2; opacity: 1;"><g class="fills"/><g class="errorbars"/><g class="lines"><path class="js-line" d="M19.15,102.44L20.05,102.44L20.05,101.03L21.86,100.38L21.86,95.81L23.66,95.81L23.66,96.76L24.56,96.76L24.56,101.52L29.08,102.27L29.08,103.56L29.98,103.56L29.98,107.81L31.79,107.81L31.79,105.77L32.69,105.77L32.69,101.7L34.5,101.7L34.5,104.22L35.4,104.22L35.4,107.75L37.2,107.75L37.2,111.13L38.11,111.13L38.11,113.99L39.01,113.99L39.01,107.05L39.91,107.05L39.91,57.03L40.82,57.03L40.82,100.91L42.62,101.29L42.62,112.25L61.58,112.97L61.58,113.99L63.39,113.99L63.39,82.63L64.29,82.63L64.29,93.53L65.19,93.53L65.19,97.74L67,97.74L67,101.45L67.9,101.45L67.9,103.23L69.7,103.23L69.7,106.91L70.61,106.91L70.61,113.99L72.41,113.99L72.41,102.43L73.32,102.43L73.32,81.47L74.22,81.47L74.22,104.01L76.93,103.54L76.93,102.01L82.34,102.75L82.34,103.13L85.05,103.13L85.05,111.36L85.95,111.36L85.95,113.99L86.86,113.99L86.86,103.75L87.76,103.75L87.76,82.7L88.66,82.7L88.66,107.79L90.47,107.48L90.47,95.5L93.18,96.25L93.18,101.91L103.11,101.8L103.11,101.1L104.01,101.1L104.01,94.79L105.82,94.79L105.82,100.04L106.72,100.04L106.72,112.3L125.68,111.61L125.68,98.4L131.09,98.55L131.09,100.35L132,100.35L132,113.99L133.8,113.99L133.8,108.87L134.71,108.87L134.71,71.41L135.61,71.41L135.61,98.17L138.32,98.68L138.32,99.62L141.03,99.62L141.03,98.55L143.73,97.86L143.73,97.45L144.64,97.45L144.64,96.36L146.44,96.36L146.44,97.81L147.34,97.81L147.34,102.79L149.15,102.79L149.15,100.24L150.05,100.24L150.05,84.74L150.96,84.74L150.96,97.65L152.76,97.65L152.76,100.02L153.66,100.02L153.66,101.77L155.47,101.77L155.47,93.56L156.37,93.56L156.37,88.98L158.18,88.98L158.18,103.3L159.08,103.3L159.08,107.45L159.98,107.45L159.98,104.26L160.89,104.26L160.89,93.99L161.79,93.99L161.79,107.59L162.69,107.59L162.69,98.31L163.59,98.31L163.59,82.33L164.5,82.33L164.5,107.49L165.4,107.49L165.4,94.76L166.3,94.76L166.3,86.01L167.21,86.01L167.21,107.68L168.11,107.68L168.11,100.62L169.01,100.62L169.01,79.37L169.91,79.37L169.91,107.62L170.82,107.62L170.82,78.85L171.72,78.85L171.72,101.42L172.62,101.42L172.62,107.59L173.53,107.59L173.53,74.49L174.43,74.49L174.43,110.65L175.33,110.65L175.33,112.26L193.39,112.61L193.39,113.99L195.19,113.99L195.19,110.4L196.1,110.4L196.1,51.47L197,51.47L197,97.9L199.71,97.39L199.71,96.69L204.22,97.01L204.22,98.68L205.12,98.68L205.12,108.16L206.93,108.16L206.93,96.19L207.83,96.19L207.83,77.4L208.73,77.4L208.73,98.66L211.44,98.35L211.44,97.78L214.15,97.91L214.15,101.8L216.86,102.39L216.86,108.18L218.67,108.18L218.67,105.24L219.57,105.24L219.57,71.53L220.47,71.53L220.47,103.42L222.28,103.42L222.28,99.7L223.18,99.7L223.18,96.21L231.3,96.28L231.3,95.5L235.82,95.92L235.82,103.04L236.72,103.04L236.72,112.35L255.68,112.35L255.68,104.72L256.58,104.72L256.58,98.88L262,98.52L262,97.94L264.71,97.44L264.71,98.93L265.61,98.93L265.61,102.7L267.42,102.7L267.42,88.39L268.32,88.39L268.32,95.12L269.22,95.12L269.22,97.23L279.15,96.55L279.15,94.14L280.06,94.14L280.06,90.99L281.86,90.99L281.86,92.87L282.76,92.87L282.76,96.92L284.57,96.92L284.57,98.8L285.47,98.8L285.47,108.18L287.28,108.18L287.28,94.87L288.18,94.87L288.18,78.74L289.08,78.74L289.08,98.77L290.89,98.77L290.89,97.89L291.79,97.89L291.79,96.12L296.31,96.87L296.31,98.97L297.21,98.97L297.21,108.33L299.01,108.33L299.01,99.46L299.92,99.46L299.92,69.18L300.82,69.18L300.82,95.12L301.72,95.12L301.72,97.01L302.62,97.01L302.62,113.99L320.68,113.99L320.68,112.2L321.58,112.2L321.58,67.31L322.49,67.31L322.49,98.98L324.29,98.98L324.29,101.44L325.19,101.44L325.19,108.49L327.9,108.49L327.9,68.69L328.81,68.69L328.81,103.18L330.61,103.18L330.61,100.05L331.51,100.05L331.51,97.57L336.03,97.01L336.03,98.32L336.93,98.32L336.93,108.22L338.74,108.22L338.74,105.28L339.64,105.28L339.64,75.52L340.54,75.52L340.54,107.81L341.44,107.81L341.44,106.58L342.35,106.58L342.35,66.09L343.25,66.09L343.25,96.78L347.76,96.12L347.76,99.74L348.67,99.74L348.67,101.77L350.47,101.77L350.47,110.42L351.38,110.42L351.38,113.99L352.28,113.99L352.28,112.2L353.18,112.2L353.18,53.32L354.08,53.32L354.08,102.52L355.89,102.52L355.89,99.52L356.79,99.52L356.79,97.78L358.6,97.78L358.6,96.85L359.5,96.85L359.5,94.84L361.31,94.84L361.31,95.64L362.21,95.64L362.21,96.41L366.72,96.12L366.72,100.76L367.63,100.76L367.63,106.62L368.53,106.62L368.53,105.56L369.43,105.56L369.43,78.03L370.33,78.03L370.33,112.33L388.39,112.33L388.39,109.89L389.29,109.89L389.29,94.03L392,94.03L392,96.5L392.9,96.5L392.9,98.59L401.03,98.02L401.03,99.06L401.93,99.06L401.93,102.82L403.74,102.82L403.74,101.63L404.64,101.63L404.64,82.6L405.54,82.6L405.54,97.44L407.35,97.44L407.35,93.83L408.25,93.83L408.25,91.82L410.06,91.82L410.06,93.99L410.96,93.99L410.96,97.14L415.47,96.69L415.47,98.56L416.38,98.56L416.38,113.99L418.18,113.99L418.18,98.82L419.09,98.82L419.09,105.29L419.99,105.29L419.99,107.95L420.89,107.95L420.89,105.58L421.79,105.58L421.79,80.62L422.7,80.62L422.7,113.99L423.6,113.99L423.6,91.99L424.5,91.99L424.5,62.3L425.4,62.3L425.4,91.64L427.21,91.64L427.21,96.16L428.11,96.16L428.11,98.25L429.92,98.25L429.92,100.98L430.82,100.98L430.82,108.5L433.53,108.5L433.53,66.12L434.43,66.12L434.43,97.78L436.24,97.78L436.24,96.79L437.14,96.79L437.14,95.45L438.95,95.45L438.95,104.34L439.85,104.34L439.85,112.38L458.81,112.38L458.81,109.71L459.71,109.71L459.71,99.02L462.42,99.02L462.42,104.99L463.32,104.99L463.32,108.84L465.13,108.84L465.13,96.68L466.03,96.68L466.03,83.07L466.93,83.07L466.93,103.82L475.06,103.67L475.06,104.85L475.96,104.85L475.96,108.39L477.77,108.39L477.77,98.89L478.67,98.89L478.67,74.48L479.57,74.48L479.57,98.48L481.38,98.48L481.38,100.29L482.28,100.29L482.28,103.02L486.79,102.39L486.79,97.28L487.7,97.28L487.7,91.47L488.6,91.47L488.6,102.76L490.41,102.76L490.41,98.89L491.31,98.89L491.31,97.36L493.11,97.36L493.11,102.68L494.02,102.68L494.02,108.36L495.82,108.36L495.82,105.03L496.73,105.03L496.73,97.27L498.53,97.27L498.53,98.17L499.43,98.17L499.43,108.08L501.24,108.08L501.24,104.24L502.14,104.24L502.14,85.86L503.04,85.86L503.04,96.78L505.75,97.52L505.75,97.82L507.56,97.82L507.56,101.98L508.46,101.98L508.46,108.66L510.27,108.66L510.27,105.49L511.17,105.49L511.17,84.02L512.07,84.02L512.07,97.44L513.88,97.44L513.88,96.61L516.59,96.21L516.59,106.73L517.49,106.73L517.49,112.39L536.45,112.39L536.45,109.32L537.35,109.32L537.35,99.26L540.06,99.26L540.06,104.91L540.96,104.91L540.96,108.95L542.77,108.95L542.77,104.19L543.67,104.19L543.67,74.75L544.57,74.75L544.57,104.15L546.38,104.15L546.38,103.05L547.28,103.05L547.28,98.66L549.99,98.66L549.99,102.18L550.89,102.18L550.89,103.75L553.6,103.51L553.6,102.49L555.41,102.49L555.41,91.83L556.31,91.83L556.31,76.09L557.21,76.09L557.21,97.86L559.02,97.86L559.02,100.51L559.92,100.51L559.92,103.07L561.73,103.07L561.73,104.23L562.63,104.23L562.63,108.24L564.43,108.24L564.43,79.74L565.34,79.74L565.34,101.29L566.24,101.29L566.24,107.86L567.14,107.86L567.14,105.41L568.05,105.41L568.05,82.95L568.95,82.95L568.95,92.1L570.75,92.1L570.75,94.45L571.66,94.45L571.66,97.32L574.37,97.14L574.37,96.55L576.17,96.55L576.17,98.2L577.07,98.2L577.07,108.16L578.88,108.16L578.88,101.72L579.78,101.72L579.78,87.83L580.68,87.83L580.68,97.1L585.2,96.46L585.2,100.54L586.1,100.54L586.1,102.82L590.62,103.07L590.62,86.79L591.52,86.79L591.52,113.99L611.38,113.99L611.38,84.66L612.28,84.66L612.28,93.25L613.19,93.25L613.19,99.52L614.99,99.52L614.99,100.66L615.89,100.66L615.89,103.8L618.6,103.8L618.6,99.92L619.5,99.92L619.5,98.63L621.31,98.63L621.31,101.04L622.21,101.04L622.21,108.3L624.02,108.3L624.02,88.06L624.92,88.06L624.92,67.39L625.82,67.39L625.82,97.78L631.24,97.81L631.24,96.96L633.95,96.21L633.95,87.44L634.85,87.44L634.85,102.67L636.66,102.67L636.66,99.2L637.56,99.2L637.56,97.53L639.37,97.53L639.37,99.81L640.27,99.81L640.27,103.13L642.98,103.67L642.98,108.14L644.78,108.14L644.78,101.49L645.69,101.49L645.69,71.21L646.59,71.21L646.59,97.23L648.39,97.23L648.39,96.39L656.52,96.07L656.52,106.97L657.42,106.97L657.42,113.99" style="vector-effect: non-scaling-stroke; fill: none; stroke: rgb(62, 164, 78); stroke-opacity: 1; stroke-width: 1px; opacity: 1;"/></g><g class="points"/><g class="text"/></g><g class="trace scatter trace92b00b" style="stroke-miterlimit: 2; opacity: 1;"><g class="fills"/><g class="errorbars"/><g class="lines"><path class="js-line" d="M19.15,102.44L20.05,102.44L20.05,101.03L21.86,100.38L21.86,95.81L23.66,95.81L23.66,96.76L24.56,96.76L24.56,101.52L37.2,101.52L37.2,108.27L38.11,108.27L38.11,113.99L39.01,113.99L39.01,107.05L39.91,107.05L39.91,57.03L40.82,57.03L40.82,100.91L42.62,101.35L42.62,113.99L59.77,113.99L59.77,113.23L60.68,113.23L60.68,60.98L61.58,60.98L61.58,113.99L63.39,113.99L63.39,82.63L64.29,82.63L64.29,93.53L65.19,93.53L65.19,97.74L67,97.74L67,101.45L67.9,101.45L67.9,103.23L69.7,103.23L69.7,106.91L70.61,106.91L70.61,113.99L72.41,113.99L72.41,102.43L73.32,102.43L73.32,81.47L74.22,81.47L74.22,104.01L76.93,103.54L76.93,102.01L82.34,102.75L82.34,103.13L85.05,103.13L85.05,111.36L85.95,111.36L85.95,113.99L86.86,113.99L86.86,103.75L87.76,103.75L87.76,77.02L88.66,77.02L88.66,101.59L90.47,101.44L90.47,95.5L94.98,95.86L94.98,96.81L95.89,96.81L95.89,102.17L104.01,101.74L104.01,101.19L105.82,101.19L105.82,104.27L106.72,104.27L106.72,111.46L125.68,110.8L125.68,98.4L132,99.11L132,103.34L134.71,103.34L134.71,99.47L135.61,99.47L135.61,98.17L138.32,98.68L138.32,99.62L141.03,99.62L141.03,98.55L143.73,97.86L143.73,97.45L144.64,97.45L144.64,96.36L146.44,96.36L146.44,97.81L147.34,97.81L147.34,102.79L149.15,102.79L149.15,100.24L150.05,100.24L150.05,84.74L150.96,84.74L150.96,97.65L152.76,97.65L152.76,96.51L153.66,96.51L153.66,95.66L158.18,95.23L158.18,104.7L159.08,104.7L159.08,107.45L159.98,107.45L159.98,100.84L160.89,100.84L160.89,79.48L161.79,79.48L161.79,107.59L162.69,107.59L162.69,98.31L163.59,98.31L163.59,82.33L164.5,82.33L164.5,107.49L165.4,107.49L165.4,94.76L166.3,94.76L166.3,86.01L167.21,86.01L167.21,107.68L168.11,107.68L168.11,100.62L169.01,100.62L169.01,79.37L169.91,79.37L169.91,107.62L170.82,107.62L170.82,78.85L171.72,78.85L171.72,101.42L172.62,101.42L172.62,107.59L173.53,107.59L173.53,74.49L174.43,74.49L174.43,109.79L175.33,109.79L175.33,111.4L193.39,111.92L193.39,113.99L195.19,113.99L195.19,110.4L196.1,110.4L196.1,51.44L197,51.44L197,97.86L199.71,97.37L199.71,96.74L204.22,97.01L204.22,98.68L205.12,98.68L205.12,108.16L206.93,108.16L206.93,96.19L207.83,96.19L207.83,77.4L208.73,77.4L208.73,98.66L210.54,98.66L210.54,96.46L211.44,96.46L211.44,92.37L214.15,92.49L214.15,95.71L215.96,95.71L215.96,96.85L216.86,96.85L216.86,108.18L218.67,108.18L218.67,105.24L219.57,105.24L219.57,66.73L220.47,66.73L220.47,98.14L222.28,98.14L222.28,97.14L223.18,97.14L223.18,96.21L224.98,96.21L224.98,93.49L225.89,93.49L225.89,90.68L227.69,90.68L227.69,93.16L228.6,93.16L228.6,96.64L230.4,96.64L230.4,94.33L231.3,94.33L231.3,89.34L233.11,89.34L233.11,92.02L234.01,92.02L234.01,95.92L235.82,95.92L235.82,102.68L236.72,102.68L236.72,111.53L255.68,111.53L255.68,104.36L256.58,104.36L256.58,98.88L262,98.52L262,97.94L264.71,97.44L264.71,98.93L265.61,98.93L265.61,102.7L267.42,102.7L267.42,87.28L268.32,87.28L268.32,96.13L269.22,96.13L269.22,97.27L276.44,96.69L276.44,93.62L277.35,93.62L277.35,90.74L279.15,90.74L279.15,93.34L280.06,93.34L280.06,96.74L284.57,96.92L284.57,98.8L285.47,98.8L285.47,108.18L287.28,108.18L287.28,94.87L288.18,94.87L288.18,74.35L289.08,74.35L289.08,93.7L290.89,93.7L290.89,94.5L291.79,94.5L291.79,96.12L296.31,96.87L296.31,98.97L297.21,98.97L297.21,108.33L299.01,108.33L299.01,99.46L299.92,99.46L299.92,69.18L300.82,69.18L300.82,95.12L301.72,95.12L301.72,97.01L302.62,97.01L302.62,113.99L321.58,113.99L321.58,47.6L322.49,47.6L322.49,98.98L324.29,98.98L324.29,101.44L325.19,101.44L325.19,108.49L327.9,108.49L327.9,68.69L328.81,68.69L328.81,103.18L330.61,103.18L330.61,100.05L331.51,100.05L331.51,97.57L336.03,97.01L336.03,98.32L336.93,98.32L336.93,108.22L338.74,108.22L338.74,105.28L339.64,105.28L339.64,75.52L340.54,75.52L340.54,107.81L341.44,107.81L341.44,106.58L342.35,106.58L342.35,66.09L343.25,66.09L343.25,96.78L347.76,96.12L347.76,95.82L350.47,95.66L350.47,108.64L351.38,108.64L351.38,113.99L352.28,113.99L352.28,112.2L353.18,112.2L353.18,48.97L354.08,48.97L354.08,96.78L356.79,97.41L356.79,97.78L358.6,97.78L358.6,96.85L359.5,96.85L359.5,94.84L361.31,94.84L361.31,95.64L362.21,95.64L362.21,96.41L366.72,96.12L366.72,100.76L367.63,100.76L367.63,106.62L368.53,106.62L368.53,105.56L369.43,105.56L369.43,77.42L370.33,77.42L370.33,111.5L388.39,111.5L388.39,109.17L389.29,109.17L389.29,94.03L392,94.03L392,96.5L392.9,96.5L392.9,98.59L401.03,98.02L401.03,99.05L401.93,99.05L401.93,102.79L403.74,102.79L403.74,100.58L404.64,100.58L404.64,83.71L405.54,83.71L405.54,97.44L407.35,97.44L407.35,93.83L408.25,93.83L408.25,91.82L410.06,91.82L410.06,93.99L410.96,93.99L410.96,97.14L415.47,96.69L415.47,98.56L416.38,98.56L416.38,113.99L418.18,113.99L418.18,83.66L419.09,83.66L419.09,102.53L419.99,102.53L419.99,107.95L420.89,107.95L420.89,105.58L421.79,105.58L421.79,75.47L422.7,75.47L422.7,107.35L423.6,107.35L423.6,78.52L424.5,78.52L424.5,56.69L425.4,56.69L425.4,97.23L428.11,97.9L428.11,98.21L429.92,98.21L429.92,101.05L430.82,101.05L430.82,108.52L433.53,108.52L433.53,66.12L434.43,66.12L434.43,97.78L436.24,97.78L436.24,96.79L437.14,96.79L437.14,95.45L438.95,95.45L438.95,103.92L439.85,103.92L439.85,111.58L458.81,111.58L458.81,109.07L459.71,109.07L459.71,99.02L462.42,99.02L462.42,102.08L463.32,102.08L463.32,104.05L466.03,104.05L466.03,84.25L466.93,84.25L466.93,98.74L468.74,98.74L468.74,100.01L469.64,100.01L469.64,103.82L472.35,103.82L472.35,99.97L473.25,99.97L473.25,98.52L475.06,98.52L475.06,100.98L475.96,100.98L475.96,108.39L477.77,108.39L477.77,98.89L478.67,98.89L478.67,78.94L479.57,78.94L479.57,103.62L481.38,103.62L481.38,101.15L482.28,101.15L482.28,97.57L484.99,98.21L484.99,102.39L486.79,102.39L486.79,97.28L487.7,97.28L487.7,86.37L488.6,86.37L488.6,97.14L490.41,97.14L490.41,101.27L491.31,101.27L491.31,102.9L495.82,102.73L495.82,101.09L496.73,101.09L496.73,97.27L498.53,97.27L498.53,98.17L499.43,98.17L499.43,108.08L501.24,108.08L501.24,100.1L502.14,100.1L502.14,72.08L503.04,72.08L503.04,96.78L505.75,97.49L505.75,97.78L507.56,97.78L507.56,99.97L508.46,99.97L508.46,103.37L510.27,103.37L510.27,97.03L511.17,97.03L511.17,69.36L512.07,69.36L512.07,97.44L513.88,97.44L513.88,96.61L516.59,96.21L516.59,106.21L517.49,106.21L517.49,111.59L536.45,111.59L536.45,108.71L537.35,108.71L537.35,99.26L540.06,99.26L540.06,104.91L540.96,104.91L540.96,108.95L542.77,108.95L542.77,104.19L543.67,104.19L543.67,70.61L544.57,70.61L544.57,99.22L552.7,98.63L552.7,100.47L553.6,100.47L553.6,108.24L555.41,108.24L555.41,97.15L556.31,97.15L556.31,76.09L557.21,76.09L557.21,97.86L561.73,97.61L561.73,100L562.63,100L562.63,108.24L564.43,108.24L564.43,94.3L565.34,94.3L565.34,104.65L566.24,104.65L566.24,107.86L567.14,107.86L567.14,102.65L568.05,102.65L568.05,71.76L568.95,71.76L568.95,97.57L570.75,97.57L570.75,94.96L571.66,94.96L571.66,91.76L573.46,91.76L573.46,92.84L574.37,92.84L574.37,96.55L576.17,96.55L576.17,98.2L577.07,98.2L577.07,108.16L578.88,108.16L578.88,94.89L579.78,94.89L579.78,76.74L580.68,76.74L580.68,97.1L586.1,96.95L586.1,97.23L587.91,97.23L587.91,99.76L588.81,99.76L588.81,103.07L590.62,103.07L590.62,86.79L591.52,86.79L591.52,113.99L611.38,113.99L611.38,70L612.28,70L612.28,89.99L613.19,89.99L613.19,99.52L614.99,99.52L614.99,100.66L615.89,100.66L615.89,103.8L618.6,103.8L618.6,99.92L619.5,99.92L619.5,98.63L621.31,98.63L621.31,101.04L622.21,101.04L622.21,108.3L624.02,108.3L624.02,88.06L624.92,88.06L624.92,67.39L625.82,67.39L625.82,97.78L630.34,97.98L630.34,98.76L631.24,98.76L631.24,102.64L633.05,102.64L633.05,101.84L633.95,101.84L633.95,82.67L634.85,82.67L634.85,97.01L642.07,97.7L642.07,98.83L642.98,98.83L642.98,108.14L644.78,108.14L644.78,101.49L645.69,101.49L645.69,71.21L646.59,71.21L646.59,97.23L648.39,97.23L648.39,96.39L656.52,96.07L656.52,106.97L657.42,106.97L657.42,113.99" style="vector-effect: non-scaling-stroke; fill: none; stroke: rgb(195, 113, 210); stroke-opacity: 1; stroke-width: 1px; opacity: 1;"/></g><g class="points"/><g class="text"/></g><g class="trace scatter tracef0834f" style="stroke-miterlimit: 2; opacity: 1;"><g class="fills"/><g class="errorbars"/><g class="lines"><path class="js-line" d="M19.15,98.38L20.05,98.38L20.05,93.64L20.95,93.64L20.95,82.74L21.86,82.74L21.86,78.75L22.76,78.75L22.76,81.89L23.66,81.89L23.66,83.37L24.56,83.37L24.56,90.8L29.98,90.1L29.98,89.27L37.2,89.05L37.2,98.2L38.11,98.2L38.11,113.99L39.01,113.99L39.01,102.43L39.91,102.43L39.91,20.75L40.82,20.75L40.82,94.38L41.72,94.38L41.72,91.62L42.62,91.62L42.62,94.21L43.52,94.21L43.52,107.85L63.39,108.56L63.39,76.82L64.29,76.82L64.29,50.52L65.19,50.52L65.19,85.84L67,85.84L67,91.01L67.9,91.01L67.9,93.51L70.61,93.35L70.61,92.59L73.32,92.59L73.32,94.33L76.93,94.24L76.93,90.42L79.64,90.8L79.64,96.12L81.44,96.12L81.44,90.89L82.34,90.89L82.34,82.97L83.25,82.97L83.25,92.26L85.05,92.26L85.05,100.97L85.95,100.97L85.95,106.98L86.86,106.98L86.86,100.89L87.76,100.89L87.76,51.75L88.66,51.75L88.66,94.26L89.57,94.26L89.57,92.19L90.47,92.19L90.47,70.76L91.37,70.76L91.37,81.2L93.18,81.51L93.18,83.78L94.98,83.78L94.98,84.77L95.89,84.77L95.89,90.35L101.3,90.63L101.3,89.62L103.11,89.62L103.11,81.81L104.01,81.81L104.01,74.73L104.91,74.73L104.91,79.85L105.82,79.85L105.82,88.32L106.72,88.32L106.72,108.09L124.77,108.09L124.77,107.25L125.68,107.25L125.68,87.95L131.09,88.26L131.09,88.87L132,88.87L132,93.46L134.71,93.46L134.71,89.4L135.61,89.4L135.61,86.97L137.41,86.97L137.41,87.83L138.32,87.83L138.32,89.77L141.03,89.77L141.03,84.88L141.93,84.88L141.93,81.73L143.73,81.73L143.73,82.52L144.64,82.52L144.64,84.61L146.44,84.61L146.44,87.44L147.34,87.44L147.34,97.19L149.15,97.19L149.15,91.95L150.05,91.95L150.05,60.21L150.96,60.21L150.96,86.77L152.76,86.77L152.76,84.85L153.66,84.85L153.66,83.44L156.37,84.14L156.37,84.53L158.18,84.53L158.18,98.01L159.08,98.01L159.08,107.01L159.98,107.01L159.98,93.58L160.89,93.58L160.89,50.46L161.79,50.46L161.79,107.59L162.69,107.59L162.69,88.66L163.59,88.66L163.59,56.13L164.5,56.13L164.5,107.49L165.4,107.49L165.4,81.48L166.3,81.48L166.3,58.03L167.21,58.03L167.21,101.37L168.11,101.37L168.11,90.83L169.01,90.83L169.01,59.1L169.91,59.1L169.91,101.26L170.82,101.26L170.82,58.47L171.72,58.47L171.72,92.02L172.62,92.02L172.62,101.19L173.53,101.19L173.53,52.11L174.43,52.11L174.43,105.56L175.33,105.56L175.33,107.95L192.48,107.95L192.48,109.16L193.39,109.16L193.39,113.99L195.19,113.99L195.19,108.01L196.1,108.01L196.1,9.8L197,9.8L197,87.17L198.8,87.17L198.8,86.32L199.71,86.32L199.71,85.16L202.42,85.47L202.42,86.13L204.22,86.13L204.22,88.32L205.12,88.32L205.12,108.06L206.93,108.06L206.93,83.69L207.83,83.69L207.83,45.19L208.73,45.19L208.73,88.45L211.44,87.93L211.44,86.97L214.15,86.86L214.15,83.53L215.96,83.53L215.96,85.25L216.86,85.25L216.86,102.36L218.67,102.36L218.67,97.98L219.57,97.98L219.57,40.71L220.47,40.71L220.47,87.57L222.28,87.57L222.28,85.91L223.18,85.91L223.18,84.37L231.3,84.48L231.3,83.18L235.82,83.87L235.82,94.43L236.72,94.43L236.72,108.25L255.68,108.25L255.68,97.23L256.58,97.23L256.58,88.81L262,88.2L262,87.25L262.9,87.25L262.9,86.42L264.71,86.42L264.71,89.43L265.61,89.43L265.61,97.05L267.42,97.05L267.42,67.82L268.32,67.82L268.32,82.1L269.22,82.1L269.22,86.42L271.03,86.42L271.03,85.49L276.44,85.16L276.44,82.04L277.35,82.04L277.35,79.11L279.15,79.11L279.15,81.77L280.06,81.77L280.06,85.24L284.57,85.54L284.57,89.31L285.47,89.31L285.47,108.18L287.28,108.18L287.28,81.09L288.18,81.09L288.18,47.89L289.08,47.89L289.08,88.63L290.89,88.63L290.89,87.15L291.79,87.15L291.79,84.2L294.5,84.61L294.5,85.47L296.31,85.47L296.31,88.62L297.21,88.62L297.21,102.67L299.01,102.67L299.01,89.42L299.92,89.42L299.92,43.8L300.82,43.8L300.82,82.55L301.72,82.55L301.72,85.52L302.62,85.52L302.62,112.29L321.58,112.29L321.58,3.32L322.49,3.32L322.49,88.98L324.29,88.98L324.29,94.02L325.19,94.02L325.19,108.49L327.9,108.49L327.9,24.34L328.81,24.34L328.81,93.46L330.61,93.46L330.61,90.25L331.51,90.25L331.51,85.08L336.03,85.69L336.03,87.65L336.93,87.65L336.93,102.46L338.74,102.46L338.74,98.07L339.64,98.07L339.64,59.09L340.54,59.09L340.54,107.81L341.44,107.81L341.44,105.3L342.35,105.3L342.35,22.64L343.25,22.64L343.25,85.31L345.96,84.59L345.96,84.2L348.67,83.71L348.67,83.44L350.47,83.44L350.47,105.08L351.38,105.08L351.38,113.99L352.28,113.99L352.28,111L353.18,111L353.18,5.62L354.08,5.62L354.08,85.31L355.89,85.31L355.89,86.36L358.6,86.97L358.6,85.42L359.5,85.42L359.5,82.08L361.31,82.08L361.31,83.41L362.21,83.41L362.21,84.69L366.72,84.2L366.72,94.1L367.63,94.1L367.63,106.62L368.53,106.62L368.53,104.44L369.43,104.44L369.43,40.24L370.33,40.24L370.33,108.18L388.39,108.18L388.39,104.53L389.29,104.53L389.29,78.98L392,78.98L392,84.04L392.9,84.04L392.9,88.32L399.22,87.69L399.22,87.37L401.03,87.37L401.03,89.51L401.93,89.51L401.93,97.23L403.74,97.23L403.74,94.81L404.64,94.81L404.64,56.12L405.54,56.12L405.54,86.42L413.67,85.75L413.67,85.16L415.47,85.16L415.47,87.64L416.38,87.64L416.38,108.05L418.18,108.05L418.18,90.67L419.09,90.67L419.09,67.69L419.99,67.69L419.99,101.19L420.89,101.19L420.89,98.24L421.79,98.24L421.79,58.44L422.7,58.44L422.7,107.25L423.6,107.25L423.6,89L424.5,89L424.5,17.73L425.4,17.73L425.4,78.54L427.21,78.54L427.21,84.8L428.11,84.8L428.11,87.7L429.92,87.7L429.92,93.42L430.82,93.42L430.82,108.52L433.53,108.52L433.53,22.26L434.43,22.26L434.43,86.97L436.24,86.97L436.24,85.32L437.14,85.32L437.14,83.09L438.95,83.09L438.95,96.36L439.85,96.36L439.85,108.37L458.81,108.37L458.81,104.5L459.71,104.5L459.71,89.04L462.42,89.04L462.42,101.19L463.32,101.19L463.32,109.02L466.03,109.02L466.03,22.6L466.93,22.6L466.93,88.57L468.74,88.57L468.74,89.84L469.64,89.84L469.64,93.65L472.35,93.65L472.35,89.7L473.25,89.7L473.25,88.2L475.06,88.2L475.06,93.25L475.96,93.25L475.96,108.39L477.77,108.39L477.77,89.12L478.67,89.12L478.67,39.72L479.57,39.72L479.57,88.45L481.38,88.45L481.38,87.64L482.28,87.64L482.28,86.2L484.09,86.2L484.09,87.59L484.99,87.59L484.99,96.64L486.79,96.64L486.79,87.66L487.7,87.66L487.7,62.2L488.6,62.2L488.6,85.91L493.11,86.27L493.11,89.33L494.02,89.33L494.02,92.59L495.82,92.59L495.82,91.52L496.73,91.52L496.73,84.61L498.53,84.61L498.53,86.56L499.43,86.56L499.43,108.08L501.24,108.08L501.24,91.83L502.14,91.83L502.14,34.95L503.04,34.95L503.04,85.31L504.85,85.31L504.85,86.54L507.56,87.04L507.56,93.29L508.46,93.29L508.46,103.34L510.27,103.34L510.27,93.74L511.17,93.74L511.17,44.5L512.07,44.5L512.07,86.42L513.88,86.42L513.88,85.03L516.59,84.37L516.59,99.98L517.49,99.98L517.49,108.39L536.45,108.39L536.45,103.21L537.35,103.21L537.35,86.18L540.06,86.18L540.06,94.41L540.96,94.41L540.96,108.62L542.77,108.62L542.77,98.98L543.67,98.98L543.67,31.37L544.57,31.37L544.57,89.38L547.28,89.19L547.28,88.45L552.7,88.39L552.7,91.09L553.6,91.09L553.6,102.49L555.41,102.49L555.41,80.31L556.31,80.31L556.31,42.72L557.21,42.72L557.21,87.11L561.73,86.7L561.73,90.25L562.63,90.25L562.63,102.49L564.43,102.49L564.43,71.96L565.34,71.96L565.34,86.23L566.24,86.23L566.24,107.75L567.14,107.75L567.14,97.04L568.05,97.04L568.05,33.49L568.95,33.49L568.95,86.63L574.37,85.92L574.37,84.93L576.17,84.93L576.17,88.22L577.07,88.22L577.07,108.16L578.88,108.16L578.88,81.24L579.78,81.24L579.78,44.51L580.68,44.51L580.68,85.84L582.49,85.84L582.49,85.08L585.2,84.77L585.2,85.6L587.91,86.06L587.91,86.85L588.81,86.85L588.81,87.89L591.52,87.89L591.52,112.42L611.38,112.42L611.38,39.23L612.28,39.23L612.28,74.25L613.19,74.25L613.19,90.15L615.89,90.87L615.89,93.36L618.6,93.36L618.6,89.63L619.5,89.63L619.5,88.39L621.31,88.39L621.31,93.36L622.21,93.36L622.21,108.3L624.02,108.3L624.02,74.18L624.92,74.18L624.92,36.33L625.82,36.33L625.82,86.97L631.24,87.02L631.24,85.62L633.95,84.96L633.95,73.15L634.85,73.15L634.85,85.69L637.56,86.28L637.56,86.56L642.07,86.83L642.07,89.14L642.98,89.14L642.98,108.14L644.78,108.14L644.78,94.6L645.69,94.6L645.69,23.83L646.59,23.83L646.59,74.89L648.39,74.89L648.39,80.37L649.3,80.37L649.3,83.78L656.52,84.12L656.52,102.29L657.42,102.29L657.42,113.99" style="vector-effect: non-scaling-stroke; fill: none; stroke: rgb(172, 142, 24); stroke-opacity: 1; stroke-width: 1px; opacity: 1;"/></g><g class="points"/><g class="text"/></g><g class="trace scatter trace05c222" style="stroke-miterlimit: 2; opacity: 1;"><g class="fills"/><g class="errorbars"/><g class="lines"><path class="js-line" d="M20.95,113.99L41.72,113.99L41.72,105.3L42.62,105.3L42.62,104L43.52,104L43.52,113.11L61.58,113.48L61.58,113.99L103.11,113.99L103.11,112.7L104.01,112.7L104.01,107.83L105.82,107.83L105.82,109.42L106.72,109.42L106.72,113.14L125.68,113.18L125.68,113.99L173.53,113.99L173.53,96.88L174.43,96.88L174.43,112.32L175.33,112.32L175.33,113.13L193.39,113.26L193.39,113.99L233.11,113.99L233.11,110.94L234.01,110.94L234.01,108.19L235.82,108.19L235.82,110.35L236.72,110.35L236.72,113.17L256.58,113.63L256.58,113.99L299.92,113.88L299.92,107.84L302.62,108.46L302.62,113.99L320.68,113.99L320.68,113.09L321.58,113.09L321.58,96.96L322.49,96.96L322.49,113.99L366.72,113.99L366.72,110.35L367.63,110.35L367.63,107.66L369.43,107.66L369.43,111.74L370.33,111.74L370.33,113.16L389.29,113.26L389.29,113.99L436.24,113.99L436.24,110.81L437.14,110.81L437.14,108.03L438.95,108.03L438.95,110.74L439.85,110.74L439.85,113.18L459.71,113.35L459.71,113.99L513.88,113.99L513.88,109.62L514.78,109.62L514.78,108.22L516.59,108.22L516.59,111.45L517.49,111.45L517.49,113.19L537.35,113.34L537.35,113.99L590.62,113.99L590.62,96.07L591.52,96.07L591.52,113.99L611.38,113.99L611.38,99.32L612.28,99.32L612.28,110.73L613.19,110.73L613.19,113.99L653.81,113.99L653.81,110.04L654.71,110.04L654.71,108.14L656.52,108.14L656.52,111.7L657.42,111.7L657.42,113.99" style="vector-effect: non-scaling-stroke; fill: none; stroke: rgb(0, 170, 174); stroke-opacity: 1; stroke-width: 1px; opacity: 1;"/></g><g class="points"/><g class="text"/></g></g></g><g class="overplot"/><path class="xlines-above crisp" d="M38.4925634295713,310.7446521684994H716.0629921259842" style="fill: none; stroke-width: 1px; stroke: rgb(0, 0, 0); stroke-opacity: 1;"/><path class="ylines-above crisp" d="M38.9925634295713,192.93728671417094V310.2446521684994" style="fill: none; stroke-width: 1px; stroke: rgb(0, 0, 0); stroke-opacity: 1;"/><g class="overlines-above"/><g class="xaxislayer-above"><path class="xtick ticks crisp" d="M0,310.2446521684994v-5" transform="translate(58.6425634295713,0)" style="stroke: rgb(0, 0, 0); stroke-opacity: 1; stroke-width: 1px;"/><path class="xtick ticks crisp" d="M0,310.2446521684994v-5" transform="translate(85.7225634295713,0)" style="stroke: rgb(0, 0, 0); stroke-opacity: 1; stroke-width: 1px;"/><path class="xtick ticks crisp" d="M0,310.2446521684994v-5" transform="translate(112.8125634295713,0)" style="stroke: rgb(0, 0, 0); stroke-opacity: 1; stroke-width: 1px;"/><path class="xtick ticks crisp" d="M0,310.2446521684994v-5" transform="translate(139.8925634295713,0)" style="stroke: rgb(0, 0, 0); stroke-opacity: 1; stroke-width: 1px;"/><path class="xtick ticks crisp" d="M0,310.2446521684994v-5" transform="translate(166.9725634295713,0)" style="stroke: rgb(0, 0, 0); stroke-opacity: 1; stroke-width: 1px;"/><path class="xtick ticks crisp" d="M0,310.2446521684994v-5" transform="translate(194.0625634295713,0)" style="stroke: rgb(0, 0, 0); stroke-opacity: 1; stroke-width: 1px;"/><path class="xtick ticks crisp" d="M0,310.2446521684994v-5" transform="translate(221.1425634295713,0)" style="stroke: rgb(0, 0, 0); stroke-opacity: 1; stroke-width: 1px;"/><path class="xtick ticks crisp" d="M0,310.2446521684994v-5" transform="translate(248.2225634295713,0)" style="stroke: rgb(0, 0, 0); stroke-opacity: 1; stroke-width: 1px;"/><path class="xtick ticks crisp" d="M0,310.2446521684994v-5" transform="translate(275.3125634295713,0)" style="stroke: rgb(0, 0, 0); stroke-opacity: 1; stroke-width: 1px;"/><path class="xtick ticks crisp" d="M0,310.2446521684994v-5" transform="translate(302.3925634295713,0)" style="stroke: rgb(0, 0, 0); stroke-opacity: 1; stroke-width: 1px;"/><path class="xtick ticks crisp" d="M0,310.2446521684994v-5" transform="translate(329.4825634295713,0)" style="stroke: rgb(0, 0, 0); stroke-opacity: 1; stroke-width: 1px;"/><path class="xtick ticks crisp" d="M0,310.2446521684994v-5" transform="translate(356.5625634295713,0)" style="stroke: rgb(0, 0, 0); stroke-opacity: 1; stroke-width: 1px;"/><path class="xtick ticks crisp" d="M0,310.2446521684994v-5" transform="translate(383.6425634295713,0)" style="stroke: rgb(0, 0, 0); stroke-opacity: 1; stroke-width: 1px;"/><path class="xtick ticks crisp" d="M0,310.2446521684994v-5" transform="translate(410.7325634295713,0)" style="stroke: rgb(0, 0, 0); stroke-opacity: 1; stroke-width: 1px;"/><path class="xtick ticks crisp" d="M0,310.2446521684994v-5" transform="translate(437.8125634295713,0)" style="stroke: rgb(0, 0, 0); stroke-opacity: 1; stroke-width: 1px;"/><path class="xtick ticks crisp" d="M0,310.2446521684994v-5" transform="translate(464.8925634295713,0)" style="stroke: rgb(0, 0, 0); stroke-opacity: 1; stroke-width: 1px;"/><path class="xtick ticks crisp" d="M0,310.2446521684994v-5" transform="translate(491.9825634295713,0)" style="stroke: rgb(0, 0, 0); stroke-opacity: 1; stroke-width: 1px;"/><path class="xtick ticks crisp" d="M0,310.2446521684994v-5" transform="translate(519.0625634295712,0)" style="stroke: rgb(0, 0, 0); stroke-opacity: 1; stroke-width: 1px;"/><path class="xtick ticks crisp" d="M0,310.2446521684994v-5" transform="translate(546.1525634295713,0)" style="stroke: rgb(0, 0, 0); stroke-opacity: 1; stroke-width: 1px;"/><path class="xtick ticks crisp" d="M0,310.2446521684994v-5" transform="translate(573.2325634295713,0)" style="stroke: rgb(0, 0, 0); stroke-opacity: 1; stroke-width: 1px;"/><path class="xtick ticks crisp" d="M0,310.2446521684994v-5" transform="translate(600.3125634295714,0)" style="stroke: rgb(0, 0, 0); stroke-opacity: 1; stroke-width: 1px;"/><path class="xtick ticks crisp" d="M0,310.2446521684994v-5" transform="translate(627.4025634295713,0)" style="stroke: rgb(0, 0, 0); stroke-opacity: 1; stroke-width: 1px;"/><path class="xtick ticks crisp" d="M0,310.2446521684994v-5" transform="translate(654.4825634295713,0)" style="stroke: rgb(0, 0, 0); stroke-opacity: 1; stroke-width: 1px;"/><path class="xtick ticks crisp" d="M0,310.2446521684994v-5" transform="translate(681.5625634295714,0)" style="stroke: rgb(0, 0, 0); stroke-opacity: 1; stroke-width: 1px;"/><path class="xtick ticks crisp" d="M0,310.2446521684994v-5" transform="translate(708.6525634295713,0)" style="stroke: rgb(0, 0, 0); stroke-opacity: 1; stroke-width: 1px;"/><g class="xtick"><text text-anchor="start" x="0" y="324.4446521684994" transform="translate(58.6425634295713,0) rotate(22,0,318.9446521684994)" style="font-family: sans-serif; font-size: 11px; fill: rgb(0, 0, 0); fill-opacity: 1; white-space: pre; opacity: 1;">2022-10-27 00:00:00</text></g><g class="xtick"><text text-anchor="start" x="0" y="324.4446521684994" style="font-family: sans-serif; font-size: 11px; fill: rgb(0, 0, 0); fill-opacity: 1; white-space: pre; opacity: 1;" transform="translate(85.7225634295713,0) rotate(22,0,318.9446521684994)">01:00:00</text></g><g class="xtick"><text text-anchor="start" x="0" y="324.4446521684994" style="font-family: sans-serif; font-size: 11px; fill: rgb(0, 0, 0); fill-opacity: 1; white-space: pre; opacity: 1;" transform="translate(112.8125634295713,0) rotate(22,0,318.9446521684994)">02:00:00</text></g><g class="xtick"><text text-anchor="start" x="0" y="324.4446521684994" style="font-family: sans-serif; font-size: 11px; fill: rgb(0, 0, 0); fill-opacity: 1; white-space: pre; opacity: 1;" transform="translate(139.8925634295713,0) rotate(22,0,318.9446521684994)">03:00:00</text></g><g class="xtick"><text text-anchor="start" x="0" y="324.4446521684994" style="font-family: sans-serif; font-size: 11px; fill: rgb(0, 0, 0); fill-opacity: 1; white-space: pre; opacity: 1;" transform="translate(166.9725634295713,0) rotate(22,0,318.9446521684994)">04:00:00</text></g><g class="xtick"><text text-anchor="start" x="0" y="324.4446521684994" style="font-family: sans-serif; font-size: 11px; fill: rgb(0, 0, 0); fill-opacity: 1; white-space: pre; opacity: 1;" transform="translate(194.0625634295713,0) rotate(22,0,318.9446521684994)">05:00:00</text></g><g class="xtick"><text text-anchor="start" x="0" y="324.4446521684994" style="font-family: sans-serif; font-size: 11px; fill: rgb(0, 0, 0); fill-opacity: 1; white-space: pre; opacity: 1;" transform="translate(221.1425634295713,0) rotate(22,0,318.9446521684994)">06:00:00</text></g><g class="xtick"><text text-anchor="start" x="0" y="324.4446521684994" style="font-family: sans-serif; font-size: 11px; fill: rgb(0, 0, 0); fill-opacity: 1; white-space: pre; opacity: 1;" transform="translate(248.2225634295713,0) rotate(22,0,318.9446521684994)">07:00:00</text></g><g class="xtick"><text text-anchor="start" x="0" y="324.4446521684994" style="font-family: sans-serif; font-size: 11px; fill: rgb(0, 0, 0); fill-opacity: 1; white-space: pre; opacity: 1;" transform="translate(275.3125634295713,0) rotate(22,0,318.9446521684994)">08:00:00</text></g><g class="xtick"><text text-anchor="start" x="0" y="324.4446521684994" style="font-family: sans-serif; font-size: 11px; fill: rgb(0, 0, 0); fill-opacity: 1; white-space: pre; opacity: 1;" transform="translate(302.3925634295713,0) rotate(22,0,318.9446521684994)">09:00:00</text></g><g class="xtick"><text text-anchor="start" x="0" y="324.4446521684994" style="font-family: sans-serif; font-size: 11px; fill: rgb(0, 0, 0); fill-opacity: 1; white-space: pre; opacity: 1;" transform="translate(329.4825634295713,0) rotate(22,0,318.9446521684994)">10:00:00</text></g><g class="xtick"><text text-anchor="start" x="0" y="324.4446521684994" style="font-family: sans-serif; font-size: 11px; fill: rgb(0, 0, 0); fill-opacity: 1; white-space: pre; opacity: 1;" transform="translate(356.5625634295713,0) rotate(22,0,318.9446521684994)">11:00:00</text></g><g class="xtick"><text text-anchor="start" x="0" y="324.4446521684994" style="font-family: sans-serif; font-size: 11px; fill: rgb(0, 0, 0); fill-opacity: 1; white-space: pre; opacity: 1;" transform="translate(383.6425634295713,0) rotate(22,0,318.9446521684994)">12:00:00</text></g><g class="xtick"><text text-anchor="start" x="0" y="324.4446521684994" style="font-family: sans-serif; font-size: 11px; fill: rgb(0, 0, 0); fill-opacity: 1; white-space: pre; opacity: 1;" transform="translate(410.7325634295713,0) rotate(22,0,318.9446521684994)">13:00:00</text></g><g class="xtick"><text text-anchor="start" x="0" y="324.4446521684994" style="font-family: sans-serif; font-size: 11px; fill: rgb(0, 0, 0); fill-opacity: 1; white-space: pre; opacity: 1;" transform="translate(437.8125634295713,0) rotate(22,0,318.9446521684994)">14:00:00</text></g><g class="xtick"><text text-anchor="start" x="0" y="324.4446521684994" style="font-family: sans-serif; font-size: 11px; fill: rgb(0, 0, 0); fill-opacity: 1; white-space: pre; opacity: 1;" transform="translate(464.8925634295713,0) rotate(22,0,318.9446521684994)">15:00:00</text></g><g class="xtick"><text text-anchor="start" x="0" y="324.4446521684994" style="font-family: sans-serif; font-size: 11px; fill: rgb(0, 0, 0); fill-opacity: 1; white-space: pre; opacity: 1;" transform="translate(491.9825634295713,0) rotate(22,0,318.9446521684994)">16:00:00</text></g><g class="xtick"><text text-anchor="start" x="0" y="324.4446521684994" style="font-family: sans-serif; font-size: 11px; fill: rgb(0, 0, 0); fill-opacity: 1; white-space: pre; opacity: 1;" transform="translate(519.0625634295712,0) rotate(22,0,318.9446521684994)">17:00:00</text></g><g class="xtick"><text text-anchor="start" x="0" y="324.4446521684994" style="font-family: sans-serif; font-size: 11px; fill: rgb(0, 0, 0); fill-opacity: 1; white-space: pre; opacity: 1;" transform="translate(546.1525634295713,0) rotate(22,0,318.9446521684994)">18:00:00</text></g><g class="xtick"><text text-anchor="start" x="0" y="324.4446521684994" style="font-family: sans-serif; font-size: 11px; fill: rgb(0, 0, 0); fill-opacity: 1; white-space: pre; opacity: 1;" transform="translate(573.2325634295713,0) rotate(22,0,318.9446521684994)">19:00:00</text></g><g class="xtick"><text text-anchor="start" x="0" y="324.4446521684994" style="font-family: sans-serif; font-size: 11px; fill: rgb(0, 0, 0); fill-opacity: 1; white-space: pre; opacity: 1;" transform="translate(600.3125634295714,0) rotate(22,0,318.9446521684994)">20:00:00</text></g><g class="xtick"><text text-anchor="start" x="0" y="324.4446521684994" style="font-family: sans-serif; font-size: 11px; fill: rgb(0, 0, 0); fill-opacity: 1; white-space: pre; opacity: 1;" transform="translate(627.4025634295713,0) rotate(22,0,318.9446521684994)">21:00:00</text></g><g class="xtick"><text text-anchor="start" x="0" y="324.4446521684994" style="font-family: sans-serif; font-size: 11px; fill: rgb(0, 0, 0); fill-opacity: 1; white-space: pre; opacity: 1;" transform="translate(654.4825634295713,0) rotate(22,0,318.9446521684994)">22:00:00</text></g><g class="xtick"><text text-anchor="start" x="0" y="324.4446521684994" style="font-family: sans-serif; font-size: 11px; fill: rgb(0, 0, 0); fill-opacity: 1; white-space: pre; opacity: 0;" transform="translate(681.5625634295714,0) rotate(22,0,318.9446521684994)">23:00:00</text></g><g class="xtick"><text text-anchor="start" x="0" y="324.4446521684994" style="font-family: sans-serif; font-size: 11px; fill: rgb(0, 0, 0); fill-opacity: 1; white-space: pre; opacity: 0;" transform="translate(708.6525634295713,0) rotate(22,0,318.9446521684994)">2022-10-28 00:00:00</text></g></g><g class="yaxislayer-above"><path class="y2tick ticks crisp" d="M39.4925634295713,0h5" transform="translate(0,306.9272867141709)" style="stroke: rgb(0, 0, 0); stroke-opacity: 1; stroke-width: 1px;"/><path class="y2tick ticks crisp" d="M39.4925634295713,0h5" transform="translate(0,285.4172867141709)" style="stroke: rgb(0, 0, 0); stroke-opacity: 1; stroke-width: 1px;"/><path class="y2tick ticks crisp" d="M39.4925634295713,0h5" transform="translate(0,263.9172867141709)" style="stroke: rgb(0, 0, 0); stroke-opacity: 1; stroke-width: 1px;"/><path class="y2tick ticks crisp" d="M39.4925634295713,0h5" transform="translate(0,242.40728671417094)" style="stroke: rgb(0, 0, 0); stroke-opacity: 1; stroke-width: 1px;"/><path class="y2tick ticks crisp" d="M39.4925634295713,0h5" transform="translate(0,220.90728671417094)" style="stroke: rgb(0, 0, 0); stroke-opacity: 1; stroke-width: 1px;"/><path class="y2tick ticks crisp" d="M39.4925634295713,0h5" transform="translate(0,199.39728671417095)" style="stroke: rgb(0, 0, 0); stroke-opacity: 1; stroke-width: 1px;"/><g class="y2tick"><text text-anchor="end" x="36.292563429571295" y="3.8499999999999996" transform="translate(0,306.9272867141709)" style="font-family: sans-serif; font-size: 11px; fill: rgb(0, 0, 0); fill-opacity: 1; white-space: pre; opacity: 1;">0.00</text></g><g class="y2tick"><text text-anchor="end" x="36.292563429571295" y="3.8499999999999996" style="font-family: sans-serif; font-size: 11px; fill: rgb(0, 0, 0); fill-opacity: 1; white-space: pre; opacity: 1;" transform="translate(0,285.4172867141709)">0.01</text></g><g class="y2tick"><text text-anchor="end" x="36.292563429571295" y="3.8499999999999996" style="font-family: sans-serif; font-size: 11px; fill: rgb(0, 0, 0); fill-opacity: 1; white-space: pre; opacity: 1;" transform="translate(0,263.9172867141709)">0.02</text></g><g class="y2tick"><text text-anchor="end" x="36.292563429571295" y="3.8499999999999996" style="font-family: sans-serif; font-size: 11px; fill: rgb(0, 0, 0); fill-opacity: 1; white-space: pre; opacity: 1;" transform="translate(0,242.40728671417094)">0.03</text></g><g class="y2tick"><text text-anchor="end" x="36.292563429571295" y="3.8499999999999996" style="font-family: sans-serif; font-size: 11px; fill: rgb(0, 0, 0); fill-opacity: 1; white-space: pre; opacity: 1;" transform="translate(0,220.90728671417094)">0.04</text></g><g class="y2tick"><text text-anchor="end" x="36.292563429571295" y="3.8499999999999996" style="font-family: sans-serif; font-size: 11px; fill: rgb(0, 0, 0); fill-opacity: 1; white-space: pre; opacity: 1;" transform="translate(0,199.39728671417095)">0.05</text></g></g><g class="overaxes-above"/></g></g><g class="polarlayer"/><g class="ternarylayer"/><g class="geolayer"/><g class="funnelarealayer"/><g class="pielayer"/><g class="iciclelayer"/><g class="treemaplayer"/><g class="sunburstlayer"/><g class="glimages"/><defs id="topdefs-ee983b"><g class="clips"/></defs><g class="layer-above"><g class="imagelayer"/><g class="shapelayer"/></g><g class="infolayer"><g class="g-gtitle"/><g class="g-xtitle"/><g class="g-ytitle"/><g class="g-y2title"/><g class="annotation" data-index="0" style="opacity: 1;"><g class="annotation-text-g" transform="rotate(0,377.77777777777777,33)"><g class="cursor-pointer" transform="translate(305,20)"><rect class="bg" x="0.5" y="0.5" width="144" height="25" style="stroke-width: 1px; stroke: rgb(0, 0, 0); stroke-opacity: 0; fill: rgb(0, 0, 0); fill-opacity: 0;"/><text class="annotation-text" text-anchor="middle" x="72.3798828125" y="19.939453125" style="font-family: sans-serif; font-size: 20px; fill: rgb(0, 0, 0); fill-opacity: 1; white-space: pre;">l_write | counter</text></g></g></g><g class="annotation" data-index="1" style="opacity: 1;"><g class="annotation-text-g" transform="rotate(0,377.77777777777777,184.89397962755675)"><g class="cursor-pointer" transform="translate(321,172)"><rect class="bg" x="0.5" y="0.5" width="112" height="25" style="stroke-width: 1px; stroke: rgb(0, 0, 0); stroke-opacity: 0; fill: rgb(0, 0, 0); fill-opacity: 0;"/><text class="annotation-text" text-anchor="middle" x="56.2626953125" y="19.939453125" style="font-family: sans-serif; font-size: 20px; fill: rgb(0, 0, 0); fill-opacity: 1; white-space: pre;">l_write | rate</text></g></g></g></g></svg>