<svg class="main-svg" xmlns="http://www.w3.org/2000/svg" xmlns:xlink="http://www.w3.org/1999/xlink" width="720" height="300" style=""><rect x="0" y="0" width="720" height="300" style="fill: rgb(255, 255, 255); fill-opacity: 1;"/><defs id="defs-208d2f"><g class="clips"><clipPath id="clip208d2fxyplot" class="plotclip"><rect width="692.1259842519685" height="188.50419396188062"/></clipPath><clipPath class="axesclip" id="clip208d2fx"><rect x="23.93700787401575" y="0" width="692.1259842519685" height="300"/></clipPath><clipPath class="axesclip" id="clip208d2fy"><rect x="0" y="40.26392534266549" width="720" height="188.50419396188062"/></clipPath><clipPath class="axesclip" id="clip208d2fxy"><rect x="23.93700787401575" y="40.26392534266549" width="692.1259842519685" height="188.50419396188062"/></clipPath></g><g class="gradients"/><g class="patterns"/></defs><g class="bglayer"/><g class="layer-below"><g class="imagelayer"/><g class="shapelayer"/></g><g class="cartesianlayer"><g class="subplot xy"><g class="layer-subplot"><g class="shapelayer"/><g class="imagelayer"/></g><g class="gridlayer"><g class="x"><path class="xgrid crisp" transform="translate(43.52700787401575,0)" d="M0,40.26392534266549v188.50419396188062" style="stroke: rgb(0, 0, 0); stroke-opacity: 0.1; stroke-width: 0.5px;"/><path class="xgrid crisp" transform="translate(70.72700787401575,0)" d="M0,40.26392534266549v188.50419396188062" style="stroke: rgb(0, 0, 0); stroke-opacity: 0.1; stroke-width: 0.5px;"/><path class="xgrid crisp" transform="translate(97.93700787401575,0)" d="M0,40.26392534266549v188.50419396188062" style="stroke: rgb(0, 0, 0); stroke-opacity: 0.1; stroke-width: 0.5px;"/><path class="xgrid crisp" transform="translate(125.14700787401574,0)" d="M0,40.26392534266549v188.50419396188062" style="stroke: rgb(0, 0, 0); stroke-opacity: 0.1; stroke-width: 0.5px;"/><path class="xgrid crisp" transform="translate(152.34700787401576,0)" d="M0,40.26392534266549v188.50419396188062" style="stroke: rgb(0, 0, 0); stroke-opacity: 0.1; stroke-width: 0.5px;"/><path class="xgrid crisp" transform="translate(179.55700787401577,0)" d="M0,40.26392534266549v188.50419396188062" style="stroke: rgb(0, 0, 0); stroke-opacity: 0.1; stroke-width: 0.5px;"/><path class="xgrid crisp" transform="translate(206.76700787401577,0)" d="M0,40.26392534266549v188.50419396188062" style="stroke: rgb(0, 0, 0); stroke-opacity: 0.1; stroke-width: 0.5px;"/><path class="xgrid crisp" transform="translate(233.96700787401576,0)" d="M0,40.26392534266549v188.50419396188062" style="stroke: rgb(0, 0, 0); stroke-opacity: 0.1; stroke-width: 0.5px;"/><path class="xgrid crisp" transform="translate(261.17700787401577,0)" d="M0,40.26392534266549v188.50419396188062" style="stroke: rgb(0, 0, 0); stroke-opacity: 0.1; stroke-width: 0.5px;"/><path class="xgrid crisp" transform="translate(288.37700787401576,0)" d="M0,40.26392534266549v188.50419396188062" style="stroke: rgb(0, 0, 0); stroke-opacity: 0.1; stroke-width: 0.5px;"/><path class="xgrid crisp" transform="translate(315.58700787401574,0)" d="M0,40.26392534266549v188.50419396188062" style="stroke: rgb(0, 0, 0); stroke-opacity: 0.1; stroke-width: 0.5px;"/><path class="xgrid crisp" transform="translate(342.7970078740158,0)" d="M0,40.26392534266549v188.50419396188062" style="stroke: rgb(0, 0, 0); stroke-opacity: 0.1; stroke-width: 0.5px;"/><path class="xgrid crisp" transform="translate(369.99700787401576,0)" d="M0,40.26392534266549v188.50419396188062" style="stroke: rgb(0, 0, 0); stroke-opacity: 0.1; stroke-width: 0.5px;"/><path class="xgrid crisp" transform="translate(397.20700787401574,0)" d="M0,40.26392534266549v188.50419396188062" style="stroke: rgb(0, 0, 0); stroke-opacity: 0.1; stroke-width: 0.5px;"/><path class="xgrid crisp" transform="translate(424.4170078740158,0)" d="M0,40.26392534266549v188.50419396188062" style="stroke: rgb(0, 0, 0); stroke-opacity: 0.1; stroke-width: 0.5px;"/><path class="xgrid crisp" transform="translate(451.61700787401577,0)" d="M0,40.26392534266549v188.50419396188062" style="stroke: rgb(0, 0, 0); stroke-opacity: 0.1; stroke-width: 0.5px;"/><path class="xgrid crisp" transform="translate(478.82700787401575,0)" d="M0,40.26392534266549v188.50419396188062" style="stroke: rgb(0, 0, 0); stroke-opacity: 0.1; stroke-width: 0.5px;"/><path class="xgrid crisp" transform="translate(506.02700787401574,0)" d="M0,40.26392534266549v188.50419396188062" style="stroke: rgb(0, 0, 0); stroke-opacity: 0.1; stroke-width: 0.5px;"/><path class="xgrid crisp" transform="translate(533.2370078740157,0)" d="M0,40.26392534266549v188.50419396188062" style="stroke: rgb(0, 0, 0); stroke-opacity: 0.1; stroke-width: 0.5px;"/><path class="xgrid crisp" transform="translate(560.4470078740158,0)" d="M0,40.26392534266549v188.50419396188062" style="stroke: rgb(0, 0, 0); stroke-opacity: 0.1; stroke-width: 0.5px;"/><path class="xgrid crisp" transform="translate(587.6470078740158,0)" d="M0,40.26392534266549v188.50419396188062" style="stroke: rgb(0, 0, 0); stroke-opacity: 0.1; stroke-width: 0.5px;"/><path class="xgrid crisp" transform="translate(614.8570078740157,0)" d="M0,40.26392534266549v188.50419396188062" style="stroke: rgb(0, 0, 0); stroke-opacity: 0.1; stroke-width: 0.5px;"/><path class="xgrid crisp" transform="translate(642.0670078740158,0)" d="M0,40.26392534266549v188.50419396188062" style="stroke: rgb(0, 0, 0); stroke-opacity: 0.1; stroke-width: 0.5px;"/><path class="xgrid crisp" transform="translate(669.2670078740158,0)" d="M0,40.26392534266549v188.50419396188062" style="stroke: rgb(0, 0, 0); stroke-opacity: 0.1; stroke-width: 0.5px;"/><path class="xgrid crisp" transform="translate(696.4770078740157,0)" d="M0,40.26392534266549v188.50419396188062" style="stroke: rgb(0, 0, 0); stroke-opacity: 0.1; stroke-width: 0.5px;"/></g><g class="y"><path class="ygrid crisp" transform="translate(0,223.43392534266548)" d="M23.93700787401575,0h692.1259842519685" style="stroke: rgb(0, 0, 0); stroke-opacity: 0.1; stroke-width: 0.5px;"/><path class="ygrid crisp" transform="translate(0,196.7339253426655)" d="M23.93700787401575,0h692.1259842519685" style="stroke: rgb(0, 0, 0); stroke-opacity: 0.1; stroke-width: 0.5px;"/><path class="ygrid crisp" transform="translate(0,170.0339253426655)" d="M23.93700787401575,0h692.1259842519685" style="stroke: rgb(0, 0, 0); stroke-opacity: 0.1; stroke-width: 0.5px;"/><path class="ygrid crisp" transform="translate(0,143.3439253426655)" d="M23.93700787401575,0h692.1259842519685" style="stroke: rgb(0, 0, 0); stroke-opacity: 0.1; stroke-width: 0.5px;"/><path class="ygrid crisp" transform="translate(0,116.64392534266548)" d="M23.93700787401575,0h692.1259842519685" style="stroke: rgb(0, 0, 0); stroke-opacity: 0.1; stroke-width: 0.5px;"/><path class="ygrid crisp" transform="translate(0,89.9439253426655)" d="M23.93700787401575,0h692.1259842519685" style="stroke: rgb(0, 0, 0); stroke-opacity: 0.1; stroke-width: 0.5px;"/><path class="ygrid crisp" transform="translate(0,63.24392534266549)" d="M23.93700787401575,0h692.1259842519685" style="stroke: rgb(0, 0, 0); stroke-opacity: 0.1; stroke-width: 0.5px;"/></g></g><g class="zerolinelayer"/><path class="xlines-below"/><path class="ylines-below"/><g class="overlines-below"/><g class="xaxislayer-below"/><g class="yaxislayer-below"/><g class="overaxes-below"/><g class="plot" transform="translate(23.93700787401575,40.26392534266549)" clip-path="url(#clip208d2fxyplot)"><g class="scatterlayer mlayer"><g class="trace scatter trace3b202e" style="stroke-miterlimit: 2; opacity: 1;"><g class="fills"/><g class="errorbars"/><g class="lines"><path class="js-line" d="M19.59,183.17L161.97,183.15L161.97,180.67L163.78,180.67L163.78,183.17L210.03,183.14L210.03,96.17L210.94,96.17L210.94,101.97L211.85,101.97L211.85,183.16L253.56,182.86L253.56,181.21L254.47,181.21L254.47,146.94L255.38,146.94L255.38,152.78L256.28,152.78L256.28,182.82L298,182.69L298,181.14L298.91,181.14L298.91,172.64L299.81,172.64L299.81,160.8L300.72,160.8L300.72,181.89L301.63,181.89L301.63,150.1L302.53,150.1L302.53,182.89L324.3,182.4L324.3,182.15L327.02,182.72L327.02,182.94L344.25,182.79L344.25,182.17L345.16,182.17L345.16,177.55L346.06,177.55L346.06,169.6L346.97,169.6L346.97,167.68L347.88,167.68L347.88,182.28L348.78,182.28L348.78,154.73L349.69,154.73L349.69,177.78L350.6,177.78L350.6,182.81L392.31,182.99L392.31,180.46L393.22,180.46L393.22,172.13L394.13,172.13L394.13,161.96L395.03,161.96L395.03,158.15L395.94,158.15L395.94,174.86L396.85,174.86L396.85,182.99L405.92,182.74L405.92,181.27L406.82,181.27L406.82,182.39L422.24,182.76L422.24,181.9L423.15,181.9L423.15,180.79L424.05,180.79L424.05,182.81L438.56,182.97L438.56,176.36L439.47,176.36L439.47,165.54L440.38,165.54L440.38,163.73L441.28,163.73L441.28,166.82L442.19,166.82L442.19,174.81L443.1,174.81L443.1,182.99L484.81,182.57L484.81,177.39L485.72,177.39L485.72,174.01L486.63,174.01L486.63,148.11L487.54,148.11L487.54,169.26L488.44,169.26L488.44,179.09L489.35,179.09L489.35,182.98L531.07,183L531.07,175.08L531.97,175.08L531.97,168.81L532.88,168.81L532.88,166.49L533.79,166.49L533.79,165.35L534.69,165.35L534.69,175.85L535.6,175.85L535.6,178.88L536.51,178.88L536.51,182.96L578.22,183.04L578.22,177.47L580.04,177.39L580.04,180.39L580.94,180.39L580.94,152.18L581.85,152.18L581.85,170.19L582.76,170.19L582.76,176.37L583.66,176.37L583.66,180.01L584.57,180.01L584.57,183L626.29,183.04L626.29,173.58L627.19,173.58L627.19,175.36L629.01,175.92L629.01,162.65L629.91,162.65L629.91,170.79L630.82,170.79L630.82,175.25L631.73,175.25L631.73,180.14L632.64,180.14L632.64,182.97L672.54,182.82L672.54,183.17" style="vector-effect: non-scaling-stroke; fill: none; stroke: rgb(0, 154, 250); stroke-opacity: 0.5; stroke-width: 1px; opacity: 1;"/></g><g class="points"/><g class="text"/></g><g class="trace scatter traceb72896" style="stroke-miterlimit: 2; opacity: 1;"><g class="fills"/><g class="errorbars"/><g class="lines"><path class="js-line" d="M19.59,183.17L202.78,183.16L202.78,179.29L203.68,179.29L203.68,147.44L208.22,146.99L208.22,145.78L209.13,145.78L209.13,144.91L210.03,144.91L210.03,146.88L211.85,147.44L211.85,182.12L212.75,182.12L212.75,183.16L247.21,182.89L247.21,181.41L248.12,181.41L248.12,167.77L252.66,167.68L252.66,165.23L255.38,165.25L255.38,167.57L256.28,167.57L256.28,180.43L264.44,180.58L264.44,176.56L265.35,176.56L265.35,178.03L279.86,178.14L279.86,179.44L280.77,179.44L280.77,180.48L284.4,180.94L284.4,182.5L298,182.65L298,179.85L298.91,179.85L298.91,163.43L299.81,163.43L299.81,137.67L300.72,137.67L300.72,180.84L301.63,180.84L301.63,117.55L302.53,117.55L302.53,182.88L314.32,182.92L314.32,180.52L344.25,180.03L344.25,178.52L345.16,178.52L345.16,167.98L346.06,167.98L346.06,151.8L346.97,151.8L346.97,143.28L347.88,143.28L347.88,150.64L348.78,150.64L348.78,158.08L349.69,158.08L349.69,170.36L350.6,170.36L350.6,180.19L351.5,180.19L351.5,182.17L356.95,182.73L356.95,182.94L392.31,182.99L392.31,178.13L393.22,178.13L393.22,161.76L394.13,161.76L394.13,141.12L395.03,141.12L395.03,132.97L395.94,132.97L395.94,166.75L396.85,166.75L396.85,183.05L421.33,182.94L421.33,178.56L422.24,178.56L422.24,179.5L423.15,179.5L423.15,178.28L424.05,178.28L424.05,180.47L435.84,180.16L435.84,175.63L439.47,175.69L439.47,153.06L440.38,153.06L440.38,141.07L441.28,141.07L441.28,147.08L442.19,147.08L442.19,166.57L443.1,166.57L443.1,180.51L452.17,180.49L452.17,181.59L453.07,181.59L453.07,182.97L483.91,182.96L483.91,182.22L484.81,182.22L484.81,171.85L485.72,171.85L485.72,164.14L486.63,164.14L486.63,114.42L487.54,114.42L487.54,155.58L488.44,155.58L488.44,175.41L489.35,175.41L489.35,182.98L531.07,182.91L531.07,167.33L531.97,167.33L531.97,155.28L532.88,155.28L532.88,149.89L533.79,149.89L533.79,147.59L534.69,147.59L534.69,168.87L535.6,168.87L535.6,174.88L536.51,174.88L536.51,183.08L571.87,183.06L571.87,181.27L572.78,181.27L572.78,180.16L579.13,180.2L579.13,181.51L580.04,181.51L580.04,172.49L580.94,172.49L580.94,125.6L581.85,125.6L581.85,158.08L582.76,158.08L582.76,169.74L583.66,169.74L583.66,177.07L584.57,177.07L584.57,183L626.29,182.86L626.29,164.06L627.19,164.06L627.19,165.37L629.01,165.76L629.01,169.81L629.91,169.81L629.91,183.13L672.54,182.93L672.54,183.17" style="vector-effect: non-scaling-stroke; fill: none; stroke: rgb(227, 111, 71); stroke-opacity: 0.5; stroke-width: 1px; opacity: 1;"/></g><g class="points"/><g class="text"/></g><g class="trace scatter trace68d0b4" style="stroke-miterlimit: 2; opacity: 1;"><g class="fills"/><g class="errorbars"/><g class="lines"><path class="js-line" d="M19.59,183.17L161.97,183.08L161.97,178.13L163.78,178.14L163.78,183.14L210.03,183.11L210.03,9.88L210.94,9.88L210.94,19.99L211.85,19.99L211.85,183.11L244.49,182.5L244.49,182.23L246.31,182.15L246.31,180.21L249.93,179.85L249.93,180.76L253.56,180.93L253.56,178.06L254.47,178.06L254.47,109.88L255.38,109.88L255.38,120.44L256.28,120.44L256.28,181.7L275.33,181.86L275.33,181.17L280.77,181.17L280.77,181.78L288.93,182.21L288.93,182.6L298,182.54L298,179.69L298.91,179.69L298.91,162.31L299.81,162.31L299.81,138.34L300.72,138.34L300.72,181.47L301.63,181.47L301.63,116.71L302.53,116.71L302.53,182.71L345.16,182.33L345.16,172.47L346.06,172.47L346.06,155.55L346.97,155.55L346.97,146.06L347.88,146.06L347.88,153.18L348.78,153.18L348.78,161.9L349.69,161.9L349.69,173.37L350.6,173.37L350.6,182.73L355.13,182.69L355.13,182.93L392.31,183.03L392.31,178.15L393.22,178.15L393.22,161.35L394.13,161.35L394.13,142.28L395.03,142.28L395.03,131.97L395.94,131.97L395.94,166.68L396.85,166.68L396.85,182.98L403.2,182.56L403.2,182.21L409.54,182.88L409.54,182.96L410.45,182.96L410.45,178.6L411.36,178.6L411.36,180.35L422.24,180.4L422.24,179.26L423.15,179.26L423.15,177.34L424.05,177.34L424.05,178.77L432.22,179.33L432.22,179.57L433.12,179.57L433.12,181.69L438.56,182.24L438.56,169.24L439.47,169.24L439.47,147.69L440.38,147.69L440.38,142.46L441.28,142.46L441.28,148.06L442.19,148.06L442.19,169.84L443.1,169.84L443.1,182.42L483.91,183.01L483.91,182.09L484.81,182.09L484.81,171.9L485.72,171.9L485.72,162.97L486.63,162.97L486.63,115.41L487.54,115.41L487.54,155.62L488.44,155.62L488.44,175.31L489.35,175.31L489.35,182.99L531.07,182.99L531.07,167.26L531.97,167.26L531.97,154.98L532.88,154.98L532.88,150.85L534.69,150.52L534.69,165.19L535.6,165.19L535.6,174.86L536.51,174.86L536.51,183.02L578.22,182.95L578.22,171.92L580.04,171.7L580.04,178.69L580.94,178.69L580.94,120.07L581.85,120.07L581.85,157.41L582.76,157.41L582.76,169.68L583.66,169.68L583.66,176.98L584.57,176.98L584.57,183.1L619.94,182.94L619.94,180.34L627.19,180.16L627.19,171.76L628.1,171.76L628.1,169.9L629.01,169.9L629.01,161.85L629.91,161.85L629.91,182.89L672.54,182.84L672.54,183.17" style="vector-effect: non-scaling-stroke; fill: none; stroke: rgb(62, 164, 78); stroke-opacity: 0.5; stroke-width: 1px; opacity: 1;"/></g><g class="points"/><g class="text"/></g><g class="trace scatter tracea215c1" style="stroke-miterlimit: 2; opacity: 1;"><g class="fills"/><g class="errorbars"/><g class="lines"><path class="js-line" d="M19.59,183.16L161.97,182.95L161.97,180.46L163.78,180.46L163.78,182.95L210.03,182.87L210.03,93.2L210.94,93.2L210.94,104.43L211.85,104.43L211.85,182.92L250.84,182.23L250.84,179.98L253.56,180.17L253.56,178.67L254.47,178.67L254.47,144.11L255.38,144.11L255.38,150.21L256.28,150.21L256.28,180.18L266.26,180.08L266.26,181.83L267.16,181.83L267.16,182.66L298,182.63L298,181.09L298.91,181.09L298.91,172.55L299.81,172.55L299.81,160.52L300.72,160.52L300.72,181.48L301.63,181.48L301.63,150.29L302.53,150.29L302.53,182.65L325.2,182.71L325.2,180.19L344.25,180.26L344.25,179.45L345.16,179.45L345.16,174.71L346.06,174.71L346.06,166.86L346.97,166.86L346.97,162.21L347.88,162.21L347.88,165.34L348.78,165.34L348.78,169.31L349.69,169.31L349.69,175.29L350.6,175.29L350.6,180.23L368.73,180.33L368.73,181.97L369.64,181.97L369.64,182.82L392.31,182.79L392.31,180.38L393.22,180.38L393.22,171.95L394.13,171.95L394.13,162L395.03,162L395.03,157.56L395.94,157.56L395.94,174.78L396.85,174.78L396.85,182.77L414.08,182.52L414.08,177.33L421.33,177.46L421.33,176.9L423.15,176.86L423.15,175.08L424.05,175.08L424.05,176.64L438.56,176.91L438.56,170.41L439.47,170.41L439.47,159.55L441.28,160.23L441.28,165.4L442.19,165.4L442.19,170.19L443.1,170.19L443.1,182.07L484.81,182.28L484.81,177.04L485.72,177.04L485.72,176.14L486.63,176.14L486.63,161.71L487.54,161.71L487.54,152.91L488.44,152.91L488.44,178.84L489.35,178.84L489.35,182.62L531.07,182.81L531.07,174.87L531.97,174.87L531.97,168.67L532.88,168.67L532.88,166.28L533.79,166.28L533.79,165.16L534.69,165.16L534.69,175.39L535.6,175.39L535.6,178.83L536.51,178.83L536.51,182.77L578.22,182.8L578.22,177.14L580.94,176.5L580.94,155.1L581.85,155.1L581.85,170.16L582.76,170.16L582.76,176.02L583.66,176.02L583.66,179.74L584.57,179.74L584.57,182.66L626.29,182.77L626.29,173.38L627.19,173.38L627.19,175.98L629.01,176.66L629.01,160.22L629.91,160.22L629.91,170.89L630.82,170.89L630.82,175.2L631.73,175.2L631.73,180.02L632.64,180.02L632.64,182.85L672.54,182.56L672.54,183.17" style="vector-effect: non-scaling-stroke; fill: none; stroke: rgb(195, 113, 210); stroke-opacity: 0.5; stroke-width: 1px; opacity: 1;"/></g><g class="points"/><g class="text"/></g><g class="trace scatter trace853dc3" style="stroke-miterlimit: 2; opacity: 1;"><g class="fills"/><g class="errorbars"/><g class="lines"><path class="js-line" d="M19.59,183.17L47.7,182.9L47.7,179.59L48.61,179.59L48.61,183.1L162.87,182.96L162.87,173.28L163.78,173.28L163.78,183.13L206.4,183.13L206.4,155.8L207.31,155.8L207.31,120.06L210.94,120.04L210.94,126.37L211.85,126.37L211.85,183.14L249.03,182.78L249.03,180.33L254.47,180.34L254.47,172.91L255.38,172.91L255.38,53L256.28,53L256.28,180.41L266.26,180.28L266.26,179.55L268.98,179.59L268.98,180.25L277.14,180.22L277.14,177.71L278.05,177.71L278.05,181.65L278.95,181.65L278.95,180.34L279.86,180.34L279.86,182.86L287.12,182.53L287.12,179.73L288.02,179.73L288.02,182.83L298,182.68L298,179.9L298.91,179.9L298.91,163.57L299.81,163.57L299.81,145.72L300.72,145.72L300.72,173.18L301.63,173.18L301.63,132.69L302.53,132.69L302.53,167.25L303.44,167.25L303.44,182.86L326.11,182.99L326.11,181.92L344.25,181.91L344.25,181.22L346.97,181.87L346.97,180.84L347.88,180.84L347.88,138.11L348.78,138.11L348.78,140.28L349.69,140.28L349.69,160.57L350.6,160.57L350.6,182.9L356.95,182.97L356.95,180.61L362.39,180.21L362.39,179.01L363.29,179.01L363.29,180.51L379.62,180.66L379.62,182.21L381.43,182.82L381.43,183.03L383.24,183.04L383.24,181.47L393.22,181.11L393.22,179.06L394.13,179.06L394.13,149.3L395.03,149.3L395.03,128.98L395.94,128.98L395.94,160.97L396.85,160.97L396.85,182.96L410.45,182.51L410.45,180.3L417.71,180.34L417.71,179.56L420.43,179.61L420.43,178.01L421.33,178.01L421.33,176.82L422.24,176.82L422.24,179.47L423.15,179.47L423.15,177.73L424.05,177.73L424.05,179.42L427.68,178.87L427.68,178.19L429.5,178.3L429.5,176.78L431.31,176.72L431.31,178.33L432.22,178.33L432.22,179.74L437.66,180.2L437.66,180.23L439.47,180.47L439.47,179.41L440.38,179.41L440.38,135.93L441.28,135.93L441.28,140.18L442.19,140.18L442.19,160.19L443.1,160.19L443.1,182.49L483.91,183.03L483.91,182.26L484.81,182.26L484.81,172.03L485.72,172.03L485.72,170.79L486.63,170.79L486.63,135.48L487.54,135.48L487.54,140.03L488.44,140.03L488.44,162.88L489.35,162.88L489.35,182.99L531.07,183.06L531.07,167.12L531.97,167.12L531.97,155.24L532.88,155.24L532.88,152.85L533.79,152.85L533.79,157.68L534.69,157.68L534.69,169.13L535.6,169.13L535.6,161.93L536.51,161.93L536.51,183.01L571.87,183.07L571.87,181.57L572.78,181.57L572.78,180.17L579.13,180.28L579.13,181.45L580.04,181.45L580.04,180.29L580.94,180.29L580.94,141L581.85,141L581.85,138.22L582.76,138.22L582.76,179.3L583.66,179.3L583.66,164.44L584.57,164.44L584.57,183.06L603.62,182.79L603.62,182.21L628.1,182.28L628.1,175.01L629.01,175.01L629.01,125.33L629.91,125.33L629.91,159.14L630.82,159.14L630.82,183.03L631.73,183.03L631.73,160.62L632.64,160.62L632.64,183.1L672.54,182.84L672.54,183.17" style="vector-effect: non-scaling-stroke; fill: none; stroke: rgb(172, 142, 24); stroke-opacity: 0.5; stroke-width: 1px; opacity: 1;"/></g><g class="points"/><g class="text"/></g><g class="trace scatter traced4b3e9" style="stroke-miterlimit: 2; opacity: 1;"><g class="fills"/><g class="errorbars"/><g class="lines"><path class="js-line" d="M19.59,183.16L47.7,183.11L47.7,181.97L48.61,181.97L48.61,183.11L161.97,183.09L161.97,178.13L163.78,178.13L163.78,183.12L210.03,183.07L210.03,8.35L210.94,8.35L210.94,21.47L211.85,21.47L211.85,183.09L246.31,182.8L246.31,182.02L253.56,182.19L253.56,179.12L254.47,179.12L254.47,110.39L255.38,110.39L255.38,122.27L256.28,122.27L256.28,182.2L259,182.53L259,180.09L276.23,180.16L276.23,181.08L280.77,181.42L280.77,181.86L283.49,182.6L283.49,182.65L298,182.46L298,179.75L298.91,179.75L298.91,162.33L299.81,162.33L299.81,138.23L300.72,138.23L300.72,180.41L301.63,180.41L301.63,117.72L302.53,117.72L302.53,182.67L345.16,182.25L345.16,172.18L346.06,172.18L346.06,155.5L346.97,155.5L346.97,146.11L347.88,146.11L347.88,153.43L348.78,153.43L348.78,160.89L349.69,160.89L349.69,172.53L350.6,172.53L350.6,182.34L366.01,182.89L366.01,182.96L392.31,182.94L392.31,178.12L393.22,178.12L393.22,161.41L394.13,161.41L394.13,142.13L395.03,142.13L395.03,130.55L395.94,130.55L395.94,168.04L396.85,168.04L396.85,182.92L404.1,182.58L404.1,182.05L405.92,182.46L405.92,182.96L407.73,182.78L407.73,181.98L408.64,181.98L408.64,182.88L423.15,182.87L423.15,181.09L424.05,181.09L424.05,182.51L438.56,182.95L438.56,169.71L439.47,169.71L439.47,148.19L440.38,148.19L440.38,146.01L441.28,146.01L441.28,148.05L442.19,148.05L442.19,168.2L443.1,168.2L443.1,182.93L483.91,182.93L483.91,182.15L484.81,182.15L484.81,171.81L485.72,171.81L485.72,162.01L486.63,162.01L486.63,116.5L487.54,116.5L487.54,155.62L488.44,155.62L488.44,175.4L489.35,175.4L489.35,183.02L531.07,183.01L531.07,167.21L531.97,167.21L531.97,154.92L532.88,154.92L532.88,151.11L534.69,151.5L534.69,163.45L535.6,163.45L535.6,175.19L536.51,175.19L536.51,182.99L578.22,183.01L578.22,171.79L580.04,171.88L580.04,168.46L580.94,168.46L580.94,129.05L581.85,129.05L581.85,158.09L582.76,158.09L582.76,169.57L583.66,169.57L583.66,177.65L584.57,177.65L584.57,183.02L626.29,182.99L626.29,164.07L627.19,164.07L627.19,175.29L628.1,175.29L628.1,177.81L629.01,177.81L629.01,135.95L629.91,135.95L629.91,170.98L630.82,170.98L630.82,175.21L631.73,175.21L631.73,181.2L632.64,181.2L632.64,183.05L672.54,182.8L672.54,183.17" style="vector-effect: non-scaling-stroke; fill: none; stroke: rgb(0, 170, 174); stroke-opacity: 0.5; stroke-width: 1px; opacity: 1;"/></g><g class="points"/><g class="text"/></g><g class="trace scatter trace2661c3" style="stroke-miterlimit: 2; opacity: 1;"><g class="fills"/><g class="errorbars"/><g class="lines"><path class="js-line" d="M19.59,183.17L161.97,183.11L161.97,180.63L163.78,180.64L163.78,183.13L210.03,183.11L210.03,93.42L210.94,93.42L210.94,104.19L211.85,104.19L211.85,183.11L249.93,182.59L249.93,182.23L251.75,182.67L251.75,180.26L253.56,180.38L253.56,178.88L254.47,178.88L254.47,144.17L255.38,144.17L255.38,150.42L256.28,150.42L256.28,180.15L278.05,180.3L278.05,182.52L298,182.64L298,181.28L298.91,181.28L298.91,172.6L299.81,172.6L299.81,160.62L300.72,160.62L300.72,181.73L301.63,181.73L301.63,150.11L302.53,150.11L302.53,182.75L344.25,182.87L344.25,182.19L345.16,182.19L345.16,177.11L346.06,177.11L346.06,169.49L346.97,169.49L346.97,164.84L347.88,164.84L347.88,167.88L348.78,167.88L348.78,171.86L349.69,171.86L349.69,177.84L350.6,177.84L350.6,182.39L354.22,181.86L354.22,181.13L355.13,181.13L355.13,182.21L375.99,182.95L375.99,183.01L392.31,183.03L392.31,180.52L393.22,180.52L393.22,172.19L394.13,172.19L394.13,161.92L395.03,161.92L395.03,157.7L395.94,157.7L395.94,175.22L396.85,175.22L396.85,182.9L404.1,182.93L404.1,182.01L405.01,182.01L405.01,182.99L423.15,182.89L423.15,180.94L424.05,180.94L424.05,182.47L438.56,182.91L438.56,176.3L439.47,176.3L439.47,165.6L440.38,165.6L440.38,163.5L441.28,163.5L441.28,166.41L442.19,166.41L442.19,175.38L443.1,175.38L443.1,182.91L484.81,182.54L484.81,177.45L485.72,177.45L485.72,173.47L486.63,173.47L486.63,148.62L487.54,148.62L487.54,169.25L488.44,169.25L488.44,179.23L489.35,179.23L489.35,182.99L531.07,182.89L531.07,174.99L531.97,174.99L531.97,169.31L532.88,169.31L532.88,166.85L533.79,166.85L533.79,164.54L534.69,164.54L534.69,175.89L535.6,175.89L535.6,178.95L536.51,178.95L536.51,183.02L578.22,183.07L578.22,177.43L580.94,177.18L580.94,154.83L581.85,154.83L581.85,170.51L582.76,170.51L582.76,176.39L583.66,176.39L583.66,180.04L584.57,180.04L584.57,183.06L626.29,182.83L626.29,173.49L627.19,173.49L627.19,175.97L629.01,176.65L629.01,160.83L629.91,160.83L629.91,170.71L630.82,170.71L630.82,175.14L631.73,175.14L631.73,181.29L632.64,181.29L632.64,183.08L672.54,182.86L672.54,183.17" style="vector-effect: non-scaling-stroke; fill: none; stroke: rgb(237, 94, 147); stroke-opacity: 0.5; stroke-width: 1px; opacity: 1;"/></g><g class="points"/><g class="text"/></g><g class="trace scatter traceb3a62a" style="stroke-miterlimit: 2; opacity: 1;"><g class="fills"/><g class="errorbars"/><g class="lines"><path class="js-line" d="M19.59,183.17L47.7,183.14L47.7,182.01L48.61,182.01L48.61,183.14L161.97,183.1L161.97,178.16L163.78,178.15L163.78,183.15L209.13,183.12L209.13,181.68L210.03,181.68L210.03,9.16L210.94,9.16L210.94,22.21L211.85,22.21L211.85,183.15L245.4,182.91L245.4,181.94L253.56,181.89L253.56,178.43L254.47,178.43L254.47,110.16L255.38,110.16L255.38,122.63L256.28,122.63L256.28,181.98L271.7,182.38L271.7,178.86L272.61,178.86L272.61,179.94L293.46,180.33L293.46,180.95L294.37,180.95L294.37,181.82L298,182.39L298,180.03L298.91,180.03L298.91,163.26L299.81,163.26L299.81,125.85L300.72,125.85L300.72,153.29L301.63,153.29L301.63,157.43L302.53,157.43L302.53,182.91L344.25,182.86L344.25,182.28L345.16,182.28L345.16,172.3L346.06,172.3L346.06,154.11L346.97,154.11L346.97,144.38L347.88,144.38L347.88,153.06L348.78,153.06L348.78,162.42L349.69,162.42L349.69,176.22L350.6,176.22L350.6,182.95L392.31,182.99L392.31,178.1L393.22,178.1L393.22,161.28L394.13,161.28L394.13,142.29L395.03,142.29L395.03,126.79L395.94,126.79L395.94,171.91L396.85,171.91L396.85,182.88L409.54,182.86L409.54,182.07L411.36,182.66L411.36,180.35L413.17,180.14L413.17,179.5L414.99,179.99L414.99,180.31L417.71,180.33L417.71,179.16L418.61,179.16L418.61,180.36L423.15,180.43L423.15,178.47L424.05,178.47L424.05,180.24L438.56,180.38L438.56,167.22L439.47,167.22L439.47,142.42L440.38,142.42L440.38,129.3L441.28,129.3L441.28,149.38L442.19,149.38L442.19,181.44L443.1,181.44L443.1,182.76L483.91,183.04L483.91,181.54L484.81,181.54L484.81,163.74L485.72,163.74L485.72,141.62L486.63,141.62L486.63,140.84L487.54,140.84L487.54,157.2L488.44,157.2L488.44,178.77L489.35,178.77L489.35,182.96L531.07,182.99L531.07,167.2L531.97,167.2L531.97,153.76L532.88,153.76L532.88,149.18L534.69,149.49L534.69,166.75L535.6,166.75L535.6,177.19L536.51,177.19L536.51,183L578.22,183.03L578.22,171.85L579.13,171.85L579.13,159.73L580.04,159.73L580.04,154.41L581.85,154.13L581.85,158.72L582.76,158.72L582.76,169.22L583.66,169.22L583.66,178.64L584.57,178.64L584.57,182.93L626.29,183.02L626.29,164.36L627.19,164.36L627.19,168.47L628.1,168.47L628.1,169.66L629.01,169.66L629.01,150.13L629.91,150.13L629.91,171.35L630.82,171.35L630.82,175.17L631.73,175.17L631.73,181.31L632.64,181.31L632.64,183.07L672.54,182.89L672.54,183.17" style="vector-effect: non-scaling-stroke; fill: none; stroke: rgb(198, 130, 37); stroke-opacity: 0.5; stroke-width: 1px; opacity: 1;"/></g><g class="points"/><g class="text"/></g><g class="trace scatter trace18aca3" style="stroke-miterlimit: 2; opacity: 1;"><g class="fills"/><g class="errorbars"/><g class="lines"><path class="js-line" d="M19.59,183.16L161.97,183.11L161.97,178.19L163.78,178.19L163.78,183.11L202.78,183.15L202.78,181.03L203.68,181.03L203.68,146.86L210.94,146.85L210.94,149.27L211.85,149.27L211.85,183.15L247.21,182.81L247.21,180.33L248.12,180.33L248.12,177.71L250.84,177.58L250.84,165.13L251.75,165.13L251.75,152.51L255.38,152.51L255.38,154.35L256.28,154.35L256.28,175.54L257.19,175.54L257.19,173.06L267.16,173.06L267.16,175.03L271.7,175.38L271.7,177.75L275.33,178.26L275.33,178.57L276.23,178.57L276.23,179.82L280.77,180.42L280.77,178.88L281.67,178.88L281.67,180.3L288.93,180.46L288.93,178.66L299.81,178.46L299.81,138.44L300.72,138.44L300.72,180.32L301.63,180.32L301.63,118.11L302.53,118.11L302.53,182.91L344.25,182.92L344.25,182.1L345.16,182.1L345.16,173.66L346.06,173.66L346.06,164.49L346.97,164.49L346.97,140.96L347.88,140.96L347.88,152.77L348.78,152.77L348.78,156.63L349.69,156.63L349.69,171.09L350.6,171.09L350.6,182.99L392.31,183.06L392.31,178.14L393.22,178.14L393.22,161.39L394.13,161.39L394.13,141.4L395.03,141.4L395.03,131.66L395.94,131.66L395.94,168.08L396.85,168.08L396.85,183.06L414.99,183.03L414.99,182.29L423.15,182.5L423.15,180.14L424.05,180.14L424.05,181.83L431.31,182.23L431.31,182.66L435.84,182.14L435.84,177.64L439.47,177.73L439.47,163.34L440.38,163.34L440.38,150.18L441.28,150.18L441.28,142.4L442.19,142.4L442.19,160.23L443.1,160.23L443.1,182.71L483.91,182.99L483.91,182.19L484.81,182.19L484.81,171.83L485.72,171.83L485.72,169.87L486.63,169.87L486.63,141.36L487.54,141.36L487.54,135.1L488.44,135.1L488.44,163.22L489.35,163.22L489.35,183.06L527.44,183.09L527.44,181.77L528.34,181.77L528.34,178.22L531.97,178.22L531.97,159.95L532.88,159.95L532.88,150.05L533.79,150.05L533.79,147.72L534.69,147.72L534.69,181.52L535.6,181.52L535.6,162.11L536.51,162.11L536.51,183.05L578.22,183.04L578.22,171.74L580.04,171.91L580.04,169.48L580.94,169.48L580.94,128.19L581.85,128.19L581.85,161.85L582.76,161.85L582.76,178.84L583.66,178.84L583.66,164.8L584.57,164.8L584.57,183.04L626.29,182.94L626.29,164.09L627.19,164.09L627.19,168.43L628.1,168.43L628.1,169.52L629.01,169.52L629.01,151.54L629.91,151.54L629.91,172.08L630.82,172.08L630.82,182.59L631.73,182.59L631.73,172.4L632.64,172.4L632.64,183.09L672.54,182.84L672.54,183.17" style="vector-effect: non-scaling-stroke; fill: none; stroke: rgb(0, 169, 141); stroke-opacity: 0.5; stroke-width: 1px; opacity: 1;"/></g><g class="points"/><g class="text"/></g><g class="trace scatter trace028bd0" style="stroke-miterlimit: 2; opacity: 1;"><g class="fills"/><g class="errorbars"/><g class="lines"><path class="js-line" d="M19.59,183.17L161.97,183.13L161.97,178.13L163.78,178.12L163.78,183.14L200.06,183.11L200.06,182.14L200.96,182.14L200.96,183.11L210.03,183.12L210.03,15.87L211.85,15.9L211.85,181.26L212.75,181.26L212.75,183.13L253.56,182.94L253.56,180.11L254.47,180.11L254.47,117.09L255.38,117.09L255.38,114.45L256.28,114.45L256.28,180.12L258.1,180.27L258.1,177.92L272.61,177.85L272.61,179.72L276.23,180.39L276.23,180.5L279.86,180.38L279.86,181.57L280.77,181.57L280.77,182.79L298,182.64L298,180.03L298.91,180.03L298.91,163L299.81,163L299.81,137.94L300.72,137.94L300.72,179.65L301.63,179.65L301.63,118.79L302.53,118.79L302.53,182.87L318.86,182.88L318.86,180.45L344.25,180.24L344.25,179.69L345.16,179.69L345.16,169.65L346.06,169.65L346.06,152.88L346.97,152.88L346.97,143.43L347.88,143.43L347.88,150.35L348.78,150.35L348.78,158.6L349.69,158.6L349.69,170.94L350.6,170.94L350.6,180.02L351.5,180.02L351.5,181.72L352.41,181.72L352.41,182.6L392.31,182.98L392.31,178.16L393.22,178.16L393.22,162.17L394.13,162.17L394.13,150.72L395.03,150.72L395.03,121.07L395.94,121.07L395.94,167.97L396.85,167.97L396.85,182.98L405.92,182.84L405.92,182.01L406.82,182.01L406.82,182.94L411.36,182.92L411.36,178.82L412.26,178.82L412.26,180.1L419.52,180.36L419.52,179.26L420.43,179.26L420.43,180.38L423.15,179.82L423.15,177.83L424.05,177.83L424.05,180.43L434.03,180.38L434.03,182.67L438.56,182.84L438.56,169.73L439.47,169.73L439.47,148.06L440.38,148.06L440.38,146.8L441.28,146.8L441.28,154.4L442.19,154.4L442.19,160.9L443.1,160.9L443.1,182.82L452.17,182.9L452.17,182.95L483.91,182.94L483.91,182.16L484.81,182.16L484.81,171.94L485.72,171.94L485.72,170.59L486.63,170.59L486.63,138.57L487.54,138.57L487.54,123.57L488.44,123.57L488.44,176.5L489.35,176.5L489.35,183.05L531.07,182.97L531.07,167.13L531.97,167.13L531.97,155.05L532.88,155.05L532.88,151.85L533.79,151.85L533.79,154.18L534.69,154.18L534.69,159.9L535.6,159.9L535.6,175.28L536.51,175.28L536.51,183.06L578.22,183.04L578.22,171.91L580.04,171.67L580.04,167.27L580.94,167.27L580.94,131.09L581.85,131.09L581.85,157.77L582.76,157.77L582.76,169.23L583.66,169.23L583.66,177.55L584.57,177.55L584.57,183.05L626.29,182.89L626.29,164.07L627.19,164.07L627.19,175.37L628.1,175.37L628.1,177.98L629.01,177.98L629.01,147.4L629.91,147.4L629.91,183.06L672.54,182.78L672.54,183.17" style="vector-effect: non-scaling-stroke; fill: none; stroke: rgb(142, 151, 30); stroke-opacity: 0.5; stroke-width: 1px; opacity: 1;"/></g><g class="points"/><g class="text"/></g><g class="trace scatter tracec8b0ec" style="stroke-miterlimit: 2; opacity: 1;"><g class="fills"/><g class="errorbars"/><g class="lines"><path class="js-line" d="M19.59,183.17L161.97,183.12L161.97,178.18L163.78,178.18L163.78,183.16L210.03,183.15L210.03,8.42L210.94,8.42L210.94,21.53L211.85,21.53L211.85,183.16L245.4,182.92L245.4,181.91L249.93,181.77L249.93,179.27L252.66,179.24L252.66,176.76L253.56,176.76L253.56,173.85L254.47,173.85L254.47,106.17L255.38,106.17L255.38,115.39L256.28,115.39L256.28,176.74L267.16,177.29L267.16,177.5L268.98,177.98L268.98,179.71L272.61,180.07L272.61,180.83L278.05,181.48L278.05,181.8L279.86,182.51L279.86,182.66L298,182.63L298,179.94L298.91,179.94L298.91,162.61L299.81,162.61L299.81,130.24L300.72,130.24L300.72,151.19L301.63,151.19L301.63,155.56L302.53,155.56L302.53,182.95L319.76,182.92L319.76,180.85L321.58,180.42L321.58,177.99L344.25,177.88L344.25,177.27L345.16,177.27L345.16,169.02L346.06,169.02L346.06,157.19L346.97,157.19L346.97,135.75L347.88,135.75L347.88,149.02L348.78,149.02L348.78,152.45L349.69,152.45L349.69,169.24L350.6,169.24L350.6,177.91L352.41,177.92L352.41,178.77L353.32,178.77L353.32,180.02L361.48,180.44L361.48,182.25L362.39,182.25L362.39,183.04L392.31,182.87L392.31,177.85L393.22,177.85L393.22,161.55L394.13,161.55L394.13,142.5L395.03,142.5L395.03,136.79L395.94,136.79L395.94,161.46L396.85,161.46L396.85,182.95L404.1,182.85L404.1,182L405.92,182.56L405.92,182.83L421.33,182.83L421.33,181.77L423.15,181.7L423.15,179.64L424.05,179.64L424.05,180.98L424.96,180.98L424.96,181.88L438.56,182.27L438.56,173.38L439.47,173.38L439.47,168.88L440.38,168.88L440.38,129.54L441.28,129.54L441.28,127.31L442.19,127.31L442.19,177.46L443.1,177.46L443.1,182.5L483.91,183L483.91,182.1L484.81,182.1L484.81,170.96L485.72,170.96L485.72,164.68L486.63,164.68L486.63,141.06L487.54,141.06L487.54,139.5L488.44,139.5L488.44,165.05L489.35,165.05L489.35,182.99L531.07,182.99L531.07,167.08L531.97,167.08L531.97,154.57L532.88,154.57L532.88,151.43L533.79,151.43L533.79,154.46L534.69,154.46L534.69,172.41L535.6,172.41L535.6,163.46L536.51,163.46L536.51,183L578.22,183.03L578.22,171.8L580.04,171.85L580.04,173.32L580.94,173.32L580.94,147.44L581.85,147.44L581.85,138.72L582.76,138.72L582.76,175.96L583.66,175.96L583.66,167.46L584.57,167.46L584.57,182.9L626.29,182.89L626.29,172L628.1,171.71L628.1,181.89L629.01,181.89L629.01,128.96L629.91,128.96L629.91,171.08L630.82,171.08L630.82,177.55L632.64,177.36L632.64,183.07L672.54,182.76L672.54,183.17" style="vector-effect: non-scaling-stroke; fill: none; stroke: rgb(0, 169, 204); stroke-opacity: 0.5; stroke-width: 1px; opacity: 1;"/></g><g class="points"/><g class="text"/></g><g class="trace scatter traceee0647" style="stroke-miterlimit: 2; opacity: 1;"><g class="fills"/><g class="errorbars"/><g class="lines"><path class="js-line" d="M19.59,183.16L161.97,183.09L161.97,178.15L163.78,178.15L163.78,183.13L210.03,183.1L210.03,9.89L210.94,9.89L210.94,20.01L211.85,20.01L211.85,183.13L249.03,182.82L249.03,180.49L253.56,180.55L253.56,177.6L254.47,177.6L254.47,110.03L255.38,110.03L255.38,119.15L256.28,119.15L256.28,180.55L263.54,180.38L263.54,176.41L264.44,176.41L264.44,178.05L268.07,178.05L268.07,175.5L281.67,175.5L281.67,177.16L282.58,177.16L282.58,178.39L283.49,178.39L283.49,180.43L286.21,180.33L286.21,182.54L291.65,182.88L291.65,182.13L292.56,182.13L292.56,179.99L299.81,179.57L299.81,138.62L300.72,138.62L300.72,180.96L301.63,180.96L301.63,117.55L302.53,117.55L302.53,182.85L327.93,182.76L327.93,180.31L329.74,180.19L329.74,177.8L344.25,177.71L344.25,177.07L345.16,177.07L345.16,168.88L346.06,168.88L346.06,157.38L346.97,157.38L346.97,136.65L347.88,136.65L347.88,148.24L348.78,148.24L348.78,153.39L349.69,153.39L349.69,166.89L350.6,166.89L350.6,177.82L364.2,177.98L364.2,179.32L365.11,179.32L365.11,182.35L392.31,182.91L392.31,178.06L393.22,178.06L393.22,162.43L394.13,162.43L394.13,146.8L395.03,146.8L395.03,132.53L395.94,132.53L395.94,160.51L396.85,160.51L396.85,182.97L407.73,182.83L407.73,182.07L410.45,182.79L410.45,182.87L423.15,182.81L423.15,180L424.05,180L424.05,181.77L431.31,182.3L431.31,182.52L438.56,182.59L438.56,173.66L439.47,173.66L439.47,169.08L440.38,169.08L440.38,133.28L441.28,133.28L441.28,135.55L442.19,135.55L442.19,166.91L443.1,166.91L443.1,182.57L472.12,182.39L472.12,181.57L485.72,181.56L485.72,179.27L486.63,179.27L486.63,135.85L487.54,135.85L487.54,140.27L488.44,140.27L488.44,162.91L489.35,162.91L489.35,182.87L524.72,183.05L524.72,180.7L531.97,180.24L531.97,161.47L532.88,161.47L532.88,153.99L533.79,153.99L533.79,162.33L535.6,162.93L535.6,161.14L536.51,161.14L536.51,182.99L559.18,182.88L559.18,181.96L580.04,182.47L580.04,180.89L580.94,180.89L580.94,139.9L581.85,139.9L581.85,138.64L582.76,138.64L582.76,182.25L583.66,182.25L583.66,161.39L584.57,161.39L584.57,182.89L622.66,183.08L622.66,181.43L623.57,181.43L623.57,178.89L628.1,178.84L628.1,161.77L629.01,161.77L629.01,138.99L629.91,138.99L629.91,158.58L630.82,158.58L630.82,183.1L631.73,183.1L631.73,160.67L632.64,160.67L632.64,183L672.54,182.87L672.54,183.17" style="vector-effect: non-scaling-stroke; fill: none; stroke: rgb(155, 127, 233); stroke-opacity: 0.5; stroke-width: 1px; opacity: 1;"/></g><g class="points"/><g class="text"/></g><g class="trace scatter trace3a17d1" style="stroke-miterlimit: 2; opacity: 1;"><g class="fills"/><g class="errorbars"/><g class="lines"><path class="js-line" d="M19.59,183.17L161.97,183.14L161.97,180.66L163.78,180.68L163.78,183.16L210.03,183.12L210.03,93.41L210.94,93.41L210.94,104.67L211.85,104.67L211.85,183.16L246.31,182.76L246.31,181.91L248.12,181.97L248.12,179.72L253.56,179.68L253.56,178.1L254.47,178.1L254.47,143.6L255.38,143.6L255.38,149.84L256.28,149.84L256.28,180.21L272.61,180.43L272.61,182.48L298,182.67L298,181.28L298.91,181.28L298.91,172.95L299.81,172.95L299.81,160.11L300.72,160.11L300.72,181.49L301.63,181.49L301.63,150.5L302.53,150.5L302.53,182.72L313.42,182.83L313.42,180.52L319.76,180.52L319.76,179.35L320.67,179.35L320.67,180.47L344.25,180.42L344.25,179.78L345.16,179.78L345.16,174.87L346.06,174.87L346.06,166.77L346.97,166.77L346.97,162.02L347.88,162.02L347.88,165.41L348.78,165.41L348.78,169.92L349.69,169.92L349.69,175.6L350.6,175.6L350.6,180.89L351.5,180.89L351.5,182.75L392.31,182.88L392.31,180.44L393.22,180.44L393.22,172.06L394.13,172.06L394.13,162.07L395.03,162.07L395.03,157.2L395.94,157.2L395.94,175.59L396.85,175.59L396.85,183.04L413.17,182.75L413.17,181.57L414.08,181.57L414.08,182.98L423.15,182.4L423.15,180.56L424.05,180.56L424.05,182.8L438.56,183.01L438.56,176.35L439.47,176.35L439.47,165.6L440.38,165.6L440.38,164.84L441.28,164.84L441.28,168.66L442.19,168.66L442.19,172.01L443.1,172.01L443.1,182.88L445.82,182.94L445.82,182.11L452.17,182.67L452.17,183.02L484.81,182.57L484.81,177.52L485.72,177.52L485.72,176.53L486.63,176.53L486.63,161.82L487.54,161.82L487.54,153.06L488.44,153.06L488.44,179.27L489.35,179.27L489.35,183.04L531.07,182.99L531.07,175.14L531.97,175.14L531.97,168.87L532.88,168.87L532.88,166.46L533.79,166.46L533.79,165.36L534.69,165.36L534.69,175.7L535.6,175.7L535.6,179.16L536.51,179.16L536.51,182.96L578.22,183.01L578.22,177.39L580.94,176.73L580.94,155.35L581.85,155.35L581.85,170.56L582.76,170.56L582.76,176.15L583.66,176.15L583.66,180.26L584.57,180.26L584.57,183.07L626.29,182.95L626.29,173.45L627.19,173.45L627.19,177.07L628.1,177.07L628.1,177.87L629.01,177.87L629.01,158.21L629.91,158.21L629.91,170.95L630.82,170.95L630.82,175.11L631.73,175.11L631.73,181.25L632.64,181.25L632.64,183.01L672.54,182.76L672.54,183.17" style="vector-effect: non-scaling-stroke; fill: none; stroke: rgb(97, 141, 246); stroke-opacity: 0.5; stroke-width: 1px; opacity: 1;"/></g><g class="points"/><g class="text"/></g><g class="trace scatter tracea5e1f9" style="stroke-miterlimit: 2; opacity: 1;"><g class="fills"/><g class="errorbars"/><g class="lines"><path class="js-line" d="M19.59,183.16L210.03,183.1L210.03,18.05L211.85,18.06L211.85,176.83L212.75,176.83L212.75,183.11L245.4,182.58L245.4,180.22L249.03,180.31L249.03,177.15L253.56,177.84L253.56,174.74L254.47,174.74L254.47,106.69L255.38,106.69L255.38,117.1L256.28,117.1L256.28,177.81L269.89,178.12L269.89,180.44L270.79,180.44L270.79,182.8L295.28,182.48L295.28,179.54L296.18,179.54L296.18,177.7L299.81,177.28L299.81,138.33L300.72,138.33L300.72,180.2L301.63,180.2L301.63,117.74L302.53,117.74L302.53,182.61L314.32,182.84L314.32,178.82L315.23,178.82L315.23,180.45L317.95,180.37L317.95,177.96L328.83,177.81L328.83,177.54L344.25,177.84L344.25,177.21L345.16,177.21L345.16,167.33L346.06,167.33L346.06,150.58L346.97,150.58L346.97,141.02L347.88,141.02L347.88,148.11L348.78,148.11L348.78,156.83L349.69,156.83L349.69,168.31L350.6,168.31L350.6,177.35L352.41,177.63L352.41,178.22L354.22,178.81L354.22,179.35L356.04,179.67L356.04,181.74L360.57,182.21L360.57,182.76L385.97,183.07L385.97,182.09L386.87,182.09L386.87,180.35L393.22,180.33L393.22,176.96L394.13,176.96L394.13,143.49L395.03,143.49L395.03,129.85L395.94,129.85L395.94,167.17L396.85,167.17L396.85,183.02L404.1,182.94L404.1,182.12L405.01,182.12L405.01,182.94L407.73,182.37L407.73,182.05L408.64,182.05L408.64,182.97L411.36,182.96L411.36,181.99L412.26,181.99L412.26,183.04L418.61,182.82L418.61,182.04L419.52,182.04L419.52,182.95L420.43,182.95L420.43,180.34L423.15,180.06L423.15,178.45L424.05,178.45L424.05,180.3L435.84,180L435.84,175.56L439.47,175.54L439.47,152.7L440.38,152.7L440.38,143.44L441.28,143.44L441.28,145.12L442.19,145.12L442.19,166.17L443.1,166.17L443.1,180.44L450.35,180.75L450.35,181.63L452.17,181.83L452.17,182.63L483.91,183.07L483.91,182.18L484.81,182.18L484.81,172L485.72,172L485.72,163.98L486.63,163.98L486.63,114.39L487.54,114.39L487.54,155.56L488.44,155.56L488.44,175.35L489.35,175.35L489.35,183.02L524.72,183L524.72,180.6L531.97,180.28L531.97,161.51L532.88,161.51L532.88,151.88L533.79,151.88L533.79,150.91L534.69,150.91L534.69,162.68L535.6,162.68L535.6,175.26L536.51,175.26L536.51,183L578.22,182.96L578.22,171.77L580.04,171.81L580.04,169.47L580.94,169.47L580.94,129.45L581.85,129.45L581.85,158L582.76,158L582.76,169.25L583.66,169.25L583.66,176.76L584.57,176.76L584.57,183.1L616.31,182.98L616.31,181.99L617.22,181.99L617.22,181.12L627.19,181.16L627.19,177.87L629.01,177.22L629.01,137.33L629.91,137.33L629.91,171.07L630.82,171.07L630.82,175.38L631.73,175.38L631.73,180.28L632.64,180.28L632.64,183.06L672.54,182.87L672.54,183.17" style="vector-effect: non-scaling-stroke; fill: none; stroke: rgb(240, 96, 115); stroke-opacity: 0.5; stroke-width: 1px; opacity: 1;"/></g><g class="points"/><g class="text"/></g><g class="trace scatter trace7472a8" style="stroke-miterlimit: 2; opacity: 1;"><g class="fills"/><g class="errorbars"/><g class="lines"><path class="js-line" d="M19.59,183.17L47.7,183.15L47.7,181.99L48.61,181.99L48.61,183.15L200.06,183.14L200.06,163.45L200.96,163.45L200.96,156.6L210.94,156.58L210.94,158.59L211.85,158.59L211.85,183.13L247.21,182.73L247.21,181.25L248.12,181.25L248.12,167.81L249.03,167.81L249.03,165.24L252.66,165.03L252.66,160.99L253.56,160.99L253.56,159.02L254.47,159.02L254.47,160.58L255.38,160.58L255.38,162.6L256.28,162.6L256.28,175.47L265.35,175.57L265.35,172.16L266.26,172.16L266.26,173.3L269.89,173.95L269.89,175.71L271.7,175.73L271.7,178.2L275.33,178.06L275.33,177.46L278.05,177.25L278.05,176.66L280.77,177.01L280.77,177.68L284.4,177.46L284.4,179.62L288.02,180.24L288.02,180.85L288.93,180.85L288.93,182.37L298,182.67L298,180.01L298.91,180.01L298.91,162.62L299.81,162.62L299.81,138.59L300.72,138.59L300.72,182.79L301.63,182.79L301.63,115.63L302.53,115.63L302.53,182.85L326.11,182.82L326.11,182.09L327.02,182.09L327.02,182.96L344.25,182.82L344.25,181.11L345.16,181.11L345.16,171.46L346.06,171.46L346.06,156.63L346.97,156.63L346.97,147.06L347.88,147.06L347.88,150.29L348.78,150.29L348.78,158.48L349.69,158.48L349.69,172.11L350.6,172.11L350.6,182.47L356.04,182.36L356.04,182.54L392.31,183.07L392.31,178.34L393.22,178.34L393.22,163.17L394.13,163.17L394.13,149.61L395.03,149.61L395.03,122.51L395.94,122.51L395.94,167.14L396.85,167.14L396.85,182.99L407.73,183.01L407.73,182.02L408.64,182.02L408.64,182.93L413.17,182.52L413.17,181.63L414.08,181.63L414.08,179.79L423.15,180.32L423.15,178.03L424.05,178.03L424.05,179.89L428.59,180.56L428.59,179.35L433.12,178.67L433.12,178.53L439.47,178.67L439.47,163.53L440.38,163.53L440.38,149.35L441.28,149.35L441.28,137.32L442.19,137.32L442.19,159.08L443.1,159.08L443.1,182.98L478.47,182.78L478.47,180.47L485.72,180.54L485.72,178.75L486.63,178.75L486.63,136.67L487.54,136.67L487.54,140.25L488.44,140.25L488.44,162.12L489.35,162.12L489.35,183.03L531.07,182.98L531.07,167.4L531.97,167.4L531.97,155.68L532.88,155.68L532.88,152.45L533.79,152.45L533.79,154.93L534.69,154.93L534.69,158.3L535.6,158.3L535.6,174.73L536.51,174.73L536.51,182.96L552.83,182.7L552.83,182.21L580.04,182.42L580.04,180.2L580.94,180.2L580.94,119.46L581.85,119.46L581.85,157.28L582.76,157.28L582.76,169.3L583.66,169.3L583.66,176.9L584.57,176.9L584.57,183.06L626.29,182.92L626.29,164.38L627.19,164.38L627.19,178.3L628.1,178.3L628.1,181.75L629.01,181.75L629.01,129.9L629.91,129.9L629.91,171.41L630.82,171.41L630.82,182.76L631.73,182.76L631.73,172.05L632.64,172.05L632.64,183.08L672.54,182.83L672.54,183.17" style="vector-effect: non-scaling-stroke; fill: none; stroke: rgb(221, 101, 182); stroke-opacity: 0.5; stroke-width: 1px; opacity: 1;"/></g><g class="points"/><g class="text"/></g><g class="trace scatter tracec0bed3" style="stroke-miterlimit: 2; opacity: 1;"><g class="fills"/><g class="errorbars"/><g class="lines"><path class="js-line" d="M19.59,183.17L161.97,183.12L161.97,180.66L163.78,180.65L163.78,183.14L210.03,183.14L210.03,95.39L210.94,95.39L210.94,102.72L211.85,102.72L211.85,183.14L249.03,182.88L249.03,180.36L253.56,180.44L253.56,178.87L254.47,178.87L254.47,147.44L256.28,147.38L256.28,180.44L274.42,180.35L274.42,177.84L276.23,177.9L276.23,179.39L277.14,179.39L277.14,180.45L289.84,180.89L289.84,182.59L298,182.7L298,181.3L298.91,181.3L298.91,172.46L299.81,172.46L299.81,160.69L300.72,160.69L300.72,181.52L301.63,181.52L301.63,150.44L302.53,150.44L302.53,182.85L313.42,182.95L313.42,180.41L322.48,180.45L322.48,178.02L344.25,177.7L344.25,179.2L345.16,179.2L345.16,175.53L346.06,175.53L346.06,168.71L346.97,168.71L346.97,159.77L347.88,159.77L347.88,165.55L348.78,165.55L348.78,169.18L349.69,169.18L349.69,175.19L350.6,175.19L350.6,180.22L362.39,180.17L362.39,180.87L366.01,181.49L366.01,181.63L371.46,182.19L371.46,182.53L392.31,182.98L392.31,180.53L393.22,180.53L393.22,172L394.13,172L394.13,162.09L395.03,162.09L395.03,159.62L395.94,159.62L395.94,173.3L396.85,173.3L396.85,182.94L416.8,182.79L416.8,182.23L419.52,182.36L419.52,182.75L422.24,182.83L422.24,181.33L423.15,181.33L423.15,179.99L424.05,179.99L424.05,181.8L431.31,182.19L431.31,182.63L438.56,182.64L438.56,177.83L439.47,177.83L439.47,172.48L440.38,172.48L440.38,157.04L441.28,157.04L441.28,160.11L442.19,160.11L442.19,178.49L443.1,178.49L443.1,182.5L484.81,182.47L484.81,177.3L485.72,177.3L485.72,175.62L486.63,175.62L486.63,155.04L487.54,155.04L487.54,162.64L488.44,162.64L488.44,176.73L489.35,176.73L489.35,182.79L531.07,182.98L531.07,175.01L531.97,175.01L531.97,168.87L532.88,168.87L532.88,166.45L533.79,166.45L533.79,165.32L534.69,165.32L534.69,178.44L535.6,178.44L535.6,176.38L536.51,176.38L536.51,183.01L578.22,183.02L578.22,177.37L580.04,177.07L580.04,181.96L580.94,181.96L580.94,157.72L581.85,157.72L581.85,164.9L582.76,164.9L582.76,178.83L583.66,178.83L583.66,175.93L584.57,175.93L584.57,183.03L626.29,183.03L626.29,177.56L628.1,177.37L628.1,167.63L629.01,167.63L629.01,176.03L629.91,176.03L629.91,182.98L672.54,182.88L672.54,183.17" style="vector-effect: non-scaling-stroke; fill: none; stroke: rgb(108, 159, 51); stroke-opacity: 0.5; stroke-width: 1px; opacity: 1;"/></g><g class="points"/><g class="text"/></g><g class="trace scatter trace5e55ae" style="stroke-miterlimit: 2; opacity: 1;"><g class="fills"/><g class="errorbars"/><g class="lines"><path class="js-line" d="M19.59,183.16L161.97,183L161.97,178.05L163.78,178.05L163.78,183.03L210.03,182.99L210.03,9.78L210.94,9.78L210.94,19.9L211.85,19.9L211.85,183.02L246.31,182.79L246.31,180.93L253.56,181.07L253.56,178.25L254.47,178.25L254.47,110.83L255.38,110.83L255.38,120.12L256.28,120.12L256.28,181.63L274.42,182.06L274.42,182.28L298,182.52L298,179.54L298.91,179.54L298.91,162.39L299.81,162.39L299.81,138.16L300.72,138.16L300.72,181.29L301.63,181.29L301.63,116.59L302.53,116.59L302.53,182.59L312.51,182.64L312.51,180.37L328.83,180.36L328.83,180.07L344.25,180L344.25,178.52L345.16,178.52L345.16,168.71L346.06,168.71L346.06,154.32L346.97,154.32L346.97,146.26L347.88,146.26L347.88,148.12L348.78,148.12L348.78,154.35L349.69,154.35L349.69,168.88L350.6,168.88L350.6,179.9L354.22,179.92L354.22,180.83L355.13,180.83L355.13,182.14L392.31,182.79L392.31,177.82L393.22,177.82L393.22,161.53L394.13,161.53L394.13,141.8L395.03,141.8L395.03,131.88L395.94,131.88L395.94,166.5L396.85,166.5L396.85,182.7L413.17,182.16L413.17,181.87L415.89,181.31L415.89,182.73L422.24,182.43L422.24,179.04L423.15,179.04L423.15,177.01L424.05,177.01L424.05,179.03L429.5,179.1L429.5,179.79L435.84,179.27L435.84,176.82L438.56,176.9L438.56,163.78L439.47,163.78L439.47,142.34L440.38,142.34L440.38,140.65L441.28,140.65L441.28,148.22L442.19,148.22L442.19,156.06L443.1,156.06L443.1,177.35L451.26,177.43L451.26,179.64L459.42,180.09L459.42,181.45L460.33,181.45L460.33,182.81L483.91,182.81L483.91,181.94L484.81,181.94L484.81,171.78L485.72,171.78L485.72,170.74L486.63,170.74L486.63,139.37L487.54,139.37L487.54,126.68L488.44,126.68L488.44,171.66L489.35,171.66L489.35,182.8L527.44,182.9L527.44,181.83L528.34,181.83L528.34,177.98L531.97,177.96L531.97,160.45L532.88,160.45L532.88,150.69L533.79,150.69L533.79,146.24L534.69,146.24L534.69,168.65L535.6,168.65L535.6,174.77L536.51,174.77L536.51,182.91L578.22,182.9L578.22,171.72L580.04,171.76L580.04,176.32L580.94,176.32L580.94,122.33L581.85,122.33L581.85,157.57L582.76,157.57L582.76,170.95L583.66,170.95L583.66,175.2L584.57,175.2L584.57,182.87L626.29,182.76L626.29,164L627.19,164L627.19,168.7L628.1,168.7L628.1,169.83L629.01,169.83L629.01,162.15L629.91,162.15L629.91,182.93L672.54,182.75L672.54,183.17" style="vector-effect: non-scaling-stroke; fill: none; stroke: rgb(0, 154, 250); stroke-opacity: 0.5; stroke-width: 1px; opacity: 1;"/></g><g class="points"/><g class="text"/></g><g class="trace scatter traceab3e9f" style="stroke-miterlimit: 2; opacity: 1;"><g class="fills"/><g class="errorbars"/><g class="lines"><path class="js-line" d="M19.59,183.16L47.7,183.1L47.7,180.24L48.61,180.24L48.61,183.09L161.97,183.04L161.97,178.11L163.78,178.12L163.78,183.11L210.03,183.1L210.03,9.15L210.94,9.15L210.94,20.75L211.85,20.75L211.85,183.11L245.4,182.95L245.4,181.77L251.75,181.82L251.75,181.02L252.66,181.02L252.66,178.26L254.47,178.93L254.47,111.34L255.38,111.34L255.38,120.43L256.28,120.43L256.28,181.76L268.07,182.34L268.07,179.99L286.21,180.37L286.21,181.1L287.12,181.1L287.12,182.13L290.74,182.73L290.74,182.9L298,182.73L298,179.93L298.91,179.93L298.91,163.08L299.81,163.08L299.81,126.78L300.72,126.78L300.72,152.53L301.63,152.53L301.63,157.24L302.53,157.24L302.53,182.86L327.02,182.83L327.02,179.34L327.93,179.34L327.93,180.52L344.25,180.5L344.25,179.72L345.16,179.72L345.16,170L346.06,170L346.06,151.68L346.97,151.68L346.97,142.14L347.88,142.14L347.88,151.26L348.78,151.26L348.78,159.37L349.69,159.37L349.69,173.42L350.6,173.42L350.6,180.43L370.55,180.85L370.55,182.96L392.31,183L392.31,178.12L393.22,178.12L393.22,161.31L394.13,161.31L394.13,141.71L395.03,141.71L395.03,127.6L395.94,127.6L395.94,171.65L396.85,171.65L396.85,182.88L405.92,182.47L405.92,182.06L408.64,182.7L408.64,182.82L423.15,182.24L423.15,180.86L424.05,180.86L424.05,182.66L438.56,182.91L438.56,169.73L439.47,169.73L439.47,144.76L440.38,144.76L440.38,146.88L441.28,146.88L441.28,154.16L442.19,154.16L442.19,164.38L443.1,164.38L443.1,182.91L483.91,182.96L483.91,181.46L484.81,181.46L484.81,163.12L485.72,163.12L485.72,142.15L487.54,141.68L487.54,156.34L488.44,156.34L488.44,178.15L489.35,178.15L489.35,182.88L531.07,182.98L531.07,167.14L531.97,167.14L531.97,153.81L532.88,153.81L532.88,149.27L534.69,149.45L534.69,166.8L535.6,166.8L535.6,176.95L536.51,176.95L536.51,183.05L578.22,183.06L578.22,171.87L579.13,171.87L579.13,159.23L580.04,159.23L580.04,154.12L581.85,154.66L581.85,159.03L582.76,159.03L582.76,169.25L583.66,169.25L583.66,178.67L584.57,178.67L584.57,183.06L626.29,182.87L626.29,164.08L627.19,164.08L627.19,167.96L628.1,167.96L628.1,168.88L629.01,168.88L629.01,151.87L629.91,151.87L629.91,171.25L630.82,171.25L630.82,175.19L631.73,175.19L631.73,181.3L632.64,181.3L632.64,183.04L672.54,182.84L672.54,183.17" style="vector-effect: non-scaling-stroke; fill: none; stroke: rgb(227, 111, 71); stroke-opacity: 0.5; stroke-width: 1px; opacity: 1;"/></g><g class="points"/><g class="text"/></g><g class="trace scatter tracef3405f" style="stroke-miterlimit: 2; opacity: 1;"><g class="fills"/><g class="errorbars"/><g class="lines"><path class="js-line" d="M19.59,183.17L161.97,182.73L161.97,180.11L163.78,180.04L163.78,182.64L208.22,182.77L208.22,180.3L209.13,180.3L209.13,182.65L210.03,182.65L210.03,94.85L210.94,94.85L210.94,102.44L211.85,102.44L211.85,182.84L249.03,182.32L249.03,179.9L253.56,180.03L253.56,178.6L254.47,178.6L254.47,144.37L255.38,144.37L255.38,149.94L256.28,149.94L256.28,180.1L259,179.84L259,176.14L259.91,176.14L259.91,177.64L267.16,177.44L267.16,174.76L274.42,175.07L274.42,177.09L280.77,177.47L280.77,178.17L281.67,178.17L281.67,179.4L286.21,179.87L286.21,180.67L287.12,180.67L287.12,182.07L298,182.43L298,181.03L298.91,181.03L298.91,172.43L299.81,172.43L299.81,160.56L300.72,160.56L300.72,181.93L301.63,181.93L301.63,149.63L302.53,149.63L302.53,182.61L336.09,182.78L336.09,180.07L337.9,179.66L337.9,180.45L345.16,179.87L345.16,174.47L346.06,174.47L346.06,166.46L346.97,166.46L346.97,162.09L347.88,162.09L347.88,166.01L348.78,166.01L348.78,169.59L349.69,169.59L349.69,175.5L350.6,175.5L350.6,180.52L377.8,180.49L377.8,181.54L378.71,181.54L378.71,182.92L392.31,183.03L392.31,180.6L393.22,180.6L393.22,172.18L394.13,172.18L394.13,161.98L395.03,161.98L395.03,159.22L395.94,159.22L395.94,173.79L396.85,173.79L396.85,183.05L417.71,182.4L417.71,182.13L419.52,182.77L419.52,180.14L421.33,180.56L421.33,176.31L422.24,176.31L422.24,177.43L423.15,177.43L423.15,176.39L424.05,176.39L424.05,177.93L438.56,178.05L438.56,171.46L439.47,171.46L439.47,161.16L440.38,161.16L440.38,159.65L441.28,159.65L441.28,164.18L442.19,164.18L442.19,170.14L443.1,170.14L443.1,180.46L446.73,180.83L446.73,183.01L484.81,182.6L484.81,177.47L485.72,177.47L485.72,174.12L486.63,174.12L486.63,148.15L487.54,148.15L487.54,169.3L488.44,169.3L488.44,179.18L489.35,179.18L489.35,182.95L531.07,183.06L531.07,175.12L531.97,175.12L531.97,169.27L532.88,169.27L532.88,166.88L533.79,166.88L533.79,164.62L534.69,164.62L534.69,176.08L535.6,176.08L535.6,178.74L536.51,178.74L536.51,183.03L578.22,183.01L578.22,177.49L580.04,177.43L580.04,179.82L580.94,179.82L580.94,153.11L581.85,153.11L581.85,170.2L582.76,170.2L582.76,176.14L583.66,176.14L583.66,179.91L584.57,179.91L584.57,183.04L626.29,182.94L626.29,173.56L627.19,173.56L627.19,176.22L629.01,176.3L629.01,161.66L629.91,161.66L629.91,170.93L630.82,170.93L630.82,175.21L631.73,175.21L631.73,180.13L632.64,180.13L632.64,182.98L672.54,182.85L672.54,183.17" style="vector-effect: non-scaling-stroke; fill: none; stroke: rgb(62, 164, 78); stroke-opacity: 0.5; stroke-width: 1px; opacity: 1;"/></g><g class="points"/><g class="text"/></g><g class="trace scatter tracee61e9b" style="stroke-miterlimit: 2; opacity: 1;"><g class="fills"/><g class="errorbars"/><g class="lines"><path class="js-line" d="M19.59,183.16L189.17,183.02L189.17,182.11L190.08,182.11L190.08,183.08L209.13,183.06L209.13,181.59L210.03,181.59L210.03,9.1L210.94,9.1L210.94,22.16L211.85,22.16L211.85,183.07L253.56,182.75L253.56,179.25L254.47,179.25L254.47,111.3L255.38,111.3L255.38,123.13L256.28,123.13L256.28,182.81L270.79,182.77L270.79,179.12L271.7,179.12L271.7,180.28L287.12,180.06L287.12,182.67L295.28,182.62L295.28,179.45L296.18,179.45L296.18,177.83L299.81,177.19L299.81,138.48L300.72,138.48L300.72,181.6L301.63,181.6L301.63,116.83L302.53,116.83L302.53,182.83L309.79,182.58L309.79,180.19L324.3,180.45L324.3,178.07L343.34,177.47L343.34,175.33L345.16,175.36L345.16,167.86L346.06,167.86L346.06,153.71L346.97,153.71L346.97,144.52L347.88,144.52L347.88,150.54L348.78,150.54L348.78,158.51L349.69,158.51L349.69,170.54L350.6,170.54L350.6,180.4L361.48,180.78L361.48,181.43L369.64,182.13L369.64,182.16L372.36,182.84L372.36,183.01L385.97,183.05L385.97,182.17L386.87,182.17L386.87,180.17L393.22,180.24L393.22,176.5L394.13,176.5L394.13,142.09L395.03,142.09L395.03,130.47L395.94,130.47L395.94,167.73L396.85,167.73L396.85,182.7L403.2,182.53L403.2,181.49L405.01,182.15L405.01,182.81L414.08,182.75L414.08,182.94L423.15,182.86L423.15,180.8L424.05,180.8L424.05,182.86L438.56,183.02L438.56,169.7L439.47,169.7L439.47,149.35L440.38,149.35L440.38,145.67L441.28,145.67L441.28,147L442.19,147L442.19,168.69L443.1,168.69L443.1,183.01L474.84,182.97L474.84,181.63L485.72,181.25L485.72,172.9L486.63,172.9L486.63,114.29L487.54,114.29L487.54,155.56L488.44,155.56L488.44,175.38L489.35,175.38L489.35,183.04L527.44,183.04L527.44,181.7L528.34,181.7L528.34,178.11L531.97,178.16L531.97,160.03L532.88,160.03L532.88,152.98L533.79,152.98L533.79,158.54L534.69,158.54L534.69,154.99L535.6,154.99L535.6,174.87L536.51,174.87L536.51,183.05L575.5,183.03L575.5,178.14L579.13,178.18L579.13,180.21L580.04,180.21L580.04,175.29L580.94,175.29L580.94,123.57L581.85,123.57L581.85,157.4L582.76,157.4L582.76,170L583.66,170L583.66,176.62L584.57,176.62L584.57,182.93L626.29,182.82L626.29,164.13L627.19,164.13L627.19,174.27L628.1,174.27L628.1,176.69L629.01,176.69L629.01,137.75L629.91,137.75L629.91,170.75L630.82,170.75L630.82,175.34L631.73,175.34L631.73,181.14L632.64,181.14L632.64,182.92L672.54,182.89L672.54,183.17" style="vector-effect: non-scaling-stroke; fill: none; stroke: rgb(195, 113, 210); stroke-opacity: 0.5; stroke-width: 1px; opacity: 1;"/></g><g class="points"/><g class="text"/></g><g class="trace scatter trace041f0c" style="stroke-miterlimit: 2; opacity: 1;"><g class="fills"/><g class="errorbars"/><g class="lines"><path class="js-line" d="M19.59,183.17L161.97,183.11L161.97,180.65L163.78,180.64L163.78,183.15L207.31,182.96L207.31,181.71L208.22,181.71L208.22,183.1L210.03,182.38L210.03,96.12L210.94,96.12L210.94,102.66L211.85,102.66L211.85,183.1L249.03,182.77L249.03,180.42L249.93,180.42L249.93,177.79L253.56,177.93L253.56,176.22L254.47,176.22L254.47,142.12L255.38,142.12L255.38,148.04L256.28,148.04L256.28,177.94L264.44,177.94L264.44,173.77L265.35,173.77L265.35,175.57L274.42,175.41L274.42,177.17L276.23,177.8L276.23,178.47L279.86,179.06L279.86,179.35L280.77,179.35L280.77,181.36L281.67,181.36L281.67,182.66L298,182.69L298,181.3L298.91,181.3L298.91,172.68L299.81,172.68L299.81,160.13L300.72,160.13L300.72,180.82L301.63,180.82L301.63,151.89L302.53,151.89L302.53,182.83L339.71,182.54L339.71,181.7L340.62,181.7L340.62,180.81L342.44,181.43L342.44,182.97L345.16,182.42L345.16,177.45L346.06,177.45L346.06,169.37L346.97,169.37L346.97,164.56L347.88,164.56L347.88,168.41L348.78,168.41L348.78,171.73L349.69,171.73L349.69,178.19L350.6,178.19L350.6,182.88L392.31,182.83L392.31,180.41L393.22,180.41L393.22,172.02L394.13,172.02L394.13,161.83L395.03,161.83L395.03,157.31L395.94,157.31L395.94,175.4L396.85,175.4L396.85,182.9L404.1,182.8L404.1,182L405.92,182.71L405.92,182.84L413.17,182.52L413.17,182.92L423.15,182.52L423.15,179.88L424.05,179.88L424.05,181.74L431.31,182.25L431.31,182.45L438.56,182.57L438.56,175.94L439.47,175.94L439.47,165.18L440.38,165.18L440.38,162.44L441.28,162.44L441.28,164.71L442.19,164.71L442.19,177.1L443.1,177.1L443.1,182.59L484.81,182.54L484.81,177.38L485.72,177.38L485.72,172.52L486.63,172.52L486.63,149.04L487.54,149.04L487.54,169.87L488.44,169.87L488.44,179.38L489.35,179.38L489.35,182.98L531.07,183.01L531.07,175.08L531.97,175.08L531.97,168.84L532.88,168.84L532.88,166.39L533.79,166.39L533.79,165.29L534.69,165.29L534.69,175.6L535.6,175.6L535.6,179.12L536.51,179.12L536.51,183.04L578.22,183.01L578.22,177.3L580.04,177.5L580.04,175.74L580.94,175.74L580.94,156.33L581.85,156.33L581.85,170.54L582.76,170.54L582.76,176.17L583.66,176.17L583.66,180.24L584.57,180.24L584.57,183.04L626.29,183.05L626.29,173.63L629.01,174.25L629.01,176.66L629.91,176.66L629.91,183.05L672.54,182.9L672.54,183.17" style="vector-effect: non-scaling-stroke; fill: none; stroke: rgb(172, 142, 24); stroke-opacity: 0.5; stroke-width: 1px; opacity: 1;"/></g><g class="points"/><g class="text"/></g><g class="trace scatter tracec0d615" style="stroke-miterlimit: 2; opacity: 1;"><g class="fills"/><g class="errorbars"/><g class="lines"><path class="js-line" d="M19.59,183.16L161.97,183.09L161.97,178.12L163.78,178.17L163.78,183.13L210.03,183.11L210.03,8.39L210.94,8.39L210.94,21.5L211.85,21.5L211.85,183.11L248.12,182.74L248.12,180.21L249.93,180.29L249.93,177.56L253.56,177.78L253.56,174.72L254.47,174.72L254.47,106.26L255.38,106.26L255.38,117.58L256.28,117.58L256.28,177.79L273.51,177.79L273.51,180.1L276.23,180.4L276.23,181.12L277.14,181.12L277.14,182.38L298,182.82L298,180.21L298.91,180.21L298.91,162.83L299.81,162.83L299.81,138.03L300.72,138.03L300.72,181.66L301.63,181.66L301.63,116.96L302.53,116.96L302.53,182.94L318.86,182.99L318.86,180.44L319.76,180.44L319.76,178.62L320.67,178.62L320.67,177.85L344.25,177.81L344.25,177.14L345.16,177.14L345.16,169.38L346.06,169.38L346.06,159.75L346.97,159.75L346.97,134.88L347.88,134.88L347.88,148.08L348.78,148.08L348.78,153.07L349.69,153.07L349.69,166.56L350.6,166.56L350.6,177.79L355.13,177.52L355.13,179.68L356.95,180.12L356.95,180.72L357.85,180.72L357.85,182.64L392.31,182.93L392.31,178.2L393.22,178.2L393.22,162.48L394.13,162.48L394.13,140.57L395.03,140.57L395.03,132.4L395.94,132.4L395.94,166.58L396.85,166.58L396.85,182.91L414.08,182.39L414.08,180.24L423.15,180.2L423.15,178.06L424.05,178.06L424.05,179.91L430.4,180.49L430.4,180.52L438.56,180.53L438.56,167.51L439.47,167.51L439.47,154.44L440.38,154.44L440.38,147.66L441.28,147.66L441.28,139.3L442.19,139.3L442.19,159.04L443.1,159.04L443.1,180.5L446.73,181.18L446.73,181.82L447.63,181.82L447.63,182.62L483.91,183.03L483.91,182.14L484.81,182.14L484.81,172.03L485.72,172.03L485.72,170.7L486.63,170.7L486.63,135.51L487.54,135.51L487.54,140.01L488.44,140.01L488.44,162.85L489.35,162.85L489.35,182.91L531.07,182.99L531.07,167.18L531.97,167.18L531.97,155.05L532.88,155.05L532.88,150.11L533.79,150.11L533.79,147.6L534.69,147.6L534.69,181.6L535.6,181.6L535.6,161.92L536.51,161.92L536.51,182.95L578.22,183.05L578.22,171.77L580.04,171.68L580.04,182.95L580.94,182.95L580.94,116.47L581.85,116.47L581.85,159.67L582.76,159.67L582.76,179.18L583.66,179.18L583.66,164.45L584.57,164.45L584.57,183.01L626.29,183L626.29,164.31L627.19,164.31L627.19,168.67L628.1,168.67L628.1,169.82L629.01,169.82L629.01,151.43L629.91,151.43L629.91,171.18L630.82,171.18L630.82,182.53L631.73,182.53L631.73,172.24L632.64,172.24L632.64,183.05L672.54,182.91L672.54,183.17" style="vector-effect: non-scaling-stroke; fill: none; stroke: rgb(0, 170, 174); stroke-opacity: 0.5; stroke-width: 1px; opacity: 1;"/></g><g class="points"/><g class="text"/></g><g class="trace scatter trace66ab75" style="stroke-miterlimit: 2; opacity: 1;"><g class="fills"/><g class="errorbars"/><g class="lines"><path class="js-line" d="M19.59,183.17L210.03,183.14L210.03,5.34L210.94,5.34L210.94,24.6L211.85,24.6L211.85,183.13L253.56,182.92L253.56,177.49L254.47,177.49L254.47,108.6L255.38,108.6L255.38,120.43L256.28,120.43L256.28,180.38L275.33,180.31L275.33,181.87L276.23,181.87L276.23,182.92L298,182.75L298,179.94L298.91,179.94L298.91,162.72L299.81,162.72L299.81,138.46L300.72,138.46L300.72,180.99L301.63,180.99L301.63,117.56L302.53,117.56L302.53,182.93L344.25,182.89L344.25,182.19L345.16,182.19L345.16,172.37L346.06,172.37L346.06,155.65L346.97,155.65L346.97,146.3L347.88,146.3L347.88,154.1L348.78,154.1L348.78,161.33L349.69,161.33L349.69,173.09L350.6,173.09L350.6,182.97L392.31,183.07L392.31,177.96L393.22,177.96L393.22,161.35L394.13,161.35L394.13,141.35L395.03,141.35L395.03,132.07L395.94,132.07L395.94,167.69L396.85,167.69L396.85,183.03L411.36,182.84L411.36,178L416.8,177.95L416.8,175.3L423.15,175.28L423.15,172.13L424.05,172.13L424.05,173.99L432.22,174.72L432.22,175.21L434.94,175.78L434.94,177.34L436.75,177.64L436.75,178.17L437.66,178.17L437.66,180L438.56,180L438.56,167.05L439.47,167.05L439.47,145.27L440.38,145.27L440.38,143.76L441.28,143.76L441.28,151.98L442.19,151.98L442.19,160.94L443.1,160.94L443.1,182.69L482.09,182.95L482.09,183L483.91,182.89L483.91,182.11L484.81,182.11L484.81,171.84L485.72,171.84L485.72,164.03L486.63,164.03L486.63,114.36L487.54,114.36L487.54,155.49L488.44,155.49L488.44,175.36L489.35,175.36L489.35,183.01L531.07,182.95L531.07,167.16L531.97,167.16L531.97,155.71L532.88,155.71L532.88,150.75L533.79,150.75L533.79,146.25L534.69,146.25L534.69,168.86L535.6,168.86L535.6,174.83L536.51,174.83L536.51,182.96L578.22,183.02L578.22,171.84L580.04,171.83L580.04,175.34L580.94,175.34L580.94,123.61L581.85,123.61L581.85,157.39L582.76,157.39L582.76,169.69L583.66,169.69L583.66,177.1L584.57,177.1L584.57,183.14L626.29,183.07L626.29,164.09L627.19,164.09L627.19,168.88L628.1,168.88L628.1,170.02L629.01,170.02L629.01,139.24L629.91,139.24L629.91,159.17L630.82,159.17L630.82,167.94L631.73,167.94L631.73,177.51L632.64,177.51L632.64,183.01L672.54,182.88L672.54,183.17" style="vector-effect: non-scaling-stroke; fill: none; stroke: rgb(237, 94, 147); stroke-opacity: 0.5; stroke-width: 1px; opacity: 1;"/></g><g class="points"/><g class="text"/></g><g class="trace scatter tracee7d32b" style="stroke-miterlimit: 2; opacity: 1;"><g class="fills"/><g class="errorbars"/><g class="lines"><path class="js-line" d="M19.59,183.17L161.97,183.13L161.97,180.66L163.78,180.67L163.78,183.16L210.03,182.41L210.03,97.62L210.94,97.62L210.94,101.2L211.85,101.2L211.85,183.15L246.31,182.85L246.31,181.93L253.56,181.96L253.56,180.16L254.47,180.16L254.47,146.02L255.38,146.02L255.38,152.52L256.28,152.52L256.28,182.49L259.91,182.61L259.91,180.12L275.33,180.13L275.33,180.92L276.23,180.92L276.23,182.6L288.93,182.7L288.93,181.68L299.81,181.51L299.81,160.65L300.72,160.65L300.72,181.52L301.63,181.52L301.63,150.41L302.53,150.41L302.53,182.86L323.39,182.9L323.39,180.44L331.55,180.02L331.55,179.19L334.27,178.88L334.27,180.51L344.25,180.32L344.25,179.75L345.16,179.75L345.16,174.86L346.06,174.86L346.06,166.86L346.97,166.86L346.97,162.15L347.88,162.15L347.88,166.08L348.78,166.08L348.78,169.68L349.69,169.68L349.69,175.54L350.6,175.54L350.6,180.56L364.2,180.88L364.2,182.98L392.31,183.03L392.31,180.62L393.22,180.62L393.22,172.18L394.13,172.18L394.13,162.05L395.03,162.05L395.03,158.2L395.94,158.2L395.94,174.88L396.85,174.88L396.85,182.99L407.73,182.57L407.73,182.29L413.17,183.01L413.17,183.1L423.15,182.35L423.15,181.14L424.05,181.14L424.05,182.83L438.56,183.02L438.56,176.53L439.47,176.53L439.47,165.81L440.38,165.81L440.38,160.54L441.28,160.54L441.28,161.96L442.19,161.96L442.19,182.79L484.81,182.64L484.81,177.52L485.72,177.52L485.72,173.55L486.63,173.55L486.63,148.81L487.54,148.81L487.54,169.31L488.44,169.31L488.44,179.15L489.35,179.15L489.35,182.91L531.07,183.09L531.07,175.18L531.97,175.18L531.97,168.89L532.88,168.89L532.88,166.37L533.79,166.37L533.79,165.48L534.69,165.48L534.69,175.72L535.6,175.72L535.6,179.05L536.51,179.05L536.51,183.05L578.22,183.06L578.22,177.48L580.04,177.47L580.04,176.22L580.94,176.22L580.94,155.94L581.85,155.94L581.85,170.61L582.76,170.61L582.76,176.48L583.66,176.48L583.66,179.83L584.57,179.83L584.57,182.82L626.29,182.9L626.29,173.73L627.19,173.73L627.19,172.39L629.01,172.18L629.01,180.19L629.91,180.19L629.91,183L672.54,182.86L672.54,183.17" style="vector-effect: non-scaling-stroke; fill: none; stroke: rgb(198, 130, 37); stroke-opacity: 0.5; stroke-width: 1px; opacity: 1;"/></g><g class="points"/><g class="text"/></g></g></g><g class="overplot"/><path class="xlines-above crisp" d="M22.93700787401575,229.2681193045461H716.0629921259842" style="fill: none; stroke-width: 1px; stroke: rgb(0, 0, 0); stroke-opacity: 1;"/><path class="ylines-above crisp" d="M23.43700787401575,40.26392534266549V228.7681193045461" style="fill: none; stroke-width: 1px; stroke: rgb(0, 0, 0); stroke-opacity: 1;"/><g class="overlines-above"/><g class="xaxislayer-above"><path class="xtick ticks crisp" d="M0,228.7681193045461v-5" transform="translate(43.52700787401575,0)" style="stroke: rgb(0, 0, 0); stroke-opacity: 1; stroke-width: 1px;"/><path class="xtick ticks crisp" d="M0,228.7681193045461v-5" transform="translate(70.72700787401575,0)" style="stroke: rgb(0, 0, 0); stroke-opacity: 1; stroke-width: 1px;"/><path class="xtick ticks crisp" d="M0,228.7681193045461v-5" transform="translate(97.93700787401575,0)" style="stroke: rgb(0, 0, 0); stroke-opacity: 1; stroke-width: 1px;"/><path class="xtick ticks crisp" d="M0,228.7681193045461v-5" transform="translate(125.14700787401574,0)" style="stroke: rgb(0, 0, 0); stroke-opacity: 1; stroke-width: 1px;"/><path class="xtick ticks crisp" d="M0,228.7681193045461v-5" transform="translate(152.34700787401576,0)" style="stroke: rgb(0, 0, 0); stroke-opacity: 1; stroke-width: 1px;"/><path class="xtick ticks crisp" d="M0,228.7681193045461v-5" transform="translate(179.55700787401577,0)" style="stroke: rgb(0, 0, 0); stroke-opacity: 1; stroke-width: 1px;"/><path class="xtick ticks crisp" d="M0,228.7681193045461v-5" transform="translate(206.76700787401577,0)" style="stroke: rgb(0, 0, 0); stroke-opacity: 1; stroke-width: 1px;"/><path class="xtick ticks crisp" d="M0,228.7681193045461v-5" transform="translate(233.96700787401576,0)" style="stroke: rgb(0, 0, 0); stroke-opacity: 1; stroke-width: 1px;"/><path class="xtick ticks crisp" d="M0,228.7681193045461v-5" transform="translate(261.17700787401577,0)" style="stroke: rgb(0, 0, 0); stroke-opacity: 1; stroke-width: 1px;"/><path class="xtick ticks crisp" d="M0,228.7681193045461v-5" transform="translate(288.37700787401576,0)" style="stroke: rgb(0, 0, 0); stroke-opacity: 1; stroke-width: 1px;"/><path class="xtick ticks crisp" d="M0,228.7681193045461v-5" transform="translate(315.58700787401574,0)" style="stroke: rgb(0, 0, 0); stroke-opacity: 1; stroke-width: 1px;"/><path class="xtick ticks crisp" d="M0,228.7681193045461v-5" transform="translate(342.7970078740158,0)" style="stroke: rgb(0, 0, 0); stroke-opacity: 1; stroke-width: 1px;"/><path class="xtick ticks crisp" d="M0,228.7681193045461v-5" transform="translate(369.99700787401576,0)" style="stroke: rgb(0, 0, 0); stroke-opacity: 1; stroke-width: 1px;"/><path class="xtick ticks crisp" d="M0,228.7681193045461v-5" transform="translate(397.20700787401574,0)" style="stroke: rgb(0, 0, 0); stroke-opacity: 1; stroke-width: 1px;"/><path class="xtick ticks crisp" d="M0,228.7681193045461v-5" transform="translate(424.4170078740158,0)" style="stroke: rgb(0, 0, 0); stroke-opacity: 1; stroke-width: 1px;"/><path class="xtick ticks crisp" d="M0,228.7681193045461v-5" transform="translate(451.61700787401577,0)" style="stroke: rgb(0, 0, 0); stroke-opacity: 1; stroke-width: 1px;"/><path class="xtick ticks crisp" d="M0,228.7681193045461v-5" transform="translate(478.82700787401575,0)" style="stroke: rgb(0, 0, 0); stroke-opacity: 1; stroke-width: 1px;"/><path class="xtick ticks crisp" d="M0,228.7681193045461v-5" transform="translate(506.02700787401574,0)" style="stroke: rgb(0, 0, 0); stroke-opacity: 1; stroke-width: 1px;"/><path class="xtick ticks crisp" d="M0,228.7681193045461v-5" transform="translate(533.2370078740157,0)" style="stroke: rgb(0, 0, 0); stroke-opacity: 1; stroke-width: 1px;"/><path class="xtick ticks crisp" d="M0,228.7681193045461v-5" transform="translate(560.4470078740158,0)" style="stroke: rgb(0, 0, 0); stroke-opacity: 1; stroke-width: 1px;"/><path class="xtick ticks crisp" d="M0,228.7681193045461v-5" transform="translate(587.6470078740158,0)" style="stroke: rgb(0, 0, 0); stroke-opacity: 1; stroke-width: 1px;"/><path class="xtick ticks crisp" d="M0,228.7681193045461v-5" transform="translate(614.8570078740157,0)" style="stroke: rgb(0, 0, 0); stroke-opacity: 1; stroke-width: 1px;"/><path class="xtick ticks crisp" d="M0,228.7681193045461v-5" transform="translate(642.0670078740158,0)" style="stroke: rgb(0, 0, 0); stroke-opacity: 1; stroke-width: 1px;"/><path class="xtick ticks crisp" d="M0,228.7681193045461v-5" transform="translate(669.2670078740158,0)" style="stroke: rgb(0, 0, 0); stroke-opacity: 1; stroke-width: 1px;"/><path class="xtick ticks crisp" d="M0,228.7681193045461v-5" transform="translate(696.4770078740157,0)" style="stroke: rgb(0, 0, 0); stroke-opacity: 1; stroke-width: 1px;"/><g class="xtick"><text text-anchor="start" x="0" y="239.3681193045461" transform="translate(43.52700787401575,0) rotate(22,0,235.3681193045461)" style="font-family: sans-serif; font-size: 8px; fill: rgb(0, 0, 0); fill-opacity: 1; white-space: pre; opacity: 1;">2022-10-27 00:00:00</text></g><g class="xtick"><text text-anchor="start" x="0" y="239.3681193045461" style="font-family: sans-serif; font-size: 8px; fill: rgb(0, 0, 0); fill-opacity: 1; white-space: pre; opacity: 1;" transform="translate(70.72700787401575,0) rotate(22,0,235.3681193045461)">01:00:00</text></g><g class="xtick"><text text-anchor="start" x="0" y="239.3681193045461" style="font-family: sans-serif; font-size: 8px; fill: rgb(0, 0, 0); fill-opacity: 1; white-space: pre; opacity: 1;" transform="translate(97.93700787401575,0) rotate(22,0,235.3681193045461)">02:00:00</text></g><g class="xtick"><text text-anchor="start" x="0" y="239.3681193045461" style="font-family: sans-serif; font-size: 8px; fill: rgb(0, 0, 0); fill-opacity: 1; white-space: pre; opacity: 1;" transform="translate(125.14700787401574,0) rotate(22,0,235.3681193045461)">03:00:00</text></g><g class="xtick"><text text-anchor="start" x="0" y="239.3681193045461" style="font-family: sans-serif; font-size: 8px; fill: rgb(0, 0, 0); fill-opacity: 1; white-space: pre; opacity: 1;" transform="translate(152.34700787401576,0) rotate(22,0,235.3681193045461)">04:00:00</text></g><g class="xtick"><text text-anchor="start" x="0" y="239.3681193045461" style="font-family: sans-serif; font-size: 8px; fill: rgb(0, 0, 0); fill-opacity: 1; white-space: pre; opacity: 1;" transform="translate(179.55700787401577,0) rotate(22,0,235.3681193045461)">05:00:00</text></g><g class="xtick"><text text-anchor="start" x="0" y="239.3681193045461" style="font-family: sans-serif; font-size: 8px; fill: rgb(0, 0, 0); fill-opacity: 1; white-space: pre; opacity: 1;" transform="translate(206.76700787401577,0) rotate(22,0,235.3681193045461)">06:00:00</text></g><g class="xtick"><text text-anchor="start" x="0" y="239.3681193045461" style="font-family: sans-serif; font-size: 8px; fill: rgb(0, 0, 0); fill-opacity: 1; white-space: pre; opacity: 1;" transform="translate(233.96700787401576,0) rotate(22,0,235.3681193045461)">07:00:00</text></g><g class="xtick"><text text-anchor="start" x="0" y="239.3681193045461" style="font-family: sans-serif; font-size: 8px; fill: rgb(0, 0, 0); fill-opacity: 1; white-space: pre; opacity: 1;" transform="translate(261.17700787401577,0) rotate(22,0,235.3681193045461)">08:00:00</text></g><g class="xtick"><text text-anchor="start" x="0" y="239.3681193045461" style="font-family: sans-serif; font-size: 8px; fill: rgb(0, 0, 0); fill-opacity: 1; white-space: pre; opacity: 1;" transform="translate(288.37700787401576,0) rotate(22,0,235.3681193045461)">09:00:00</text></g><g class="xtick"><text text-anchor="start" x="0" y="239.3681193045461" style="font-family: sans-serif; font-size: 8px; fill: rgb(0, 0, 0); fill-opacity: 1; white-space: pre; opacity: 1;" transform="translate(315.58700787401574,0) rotate(22,0,235.3681193045461)">10:00:00</text></g><g class="xtick"><text text-anchor="start" x="0" y="239.3681193045461" style="font-family: sans-serif; font-size: 8px; fill: rgb(0, 0, 0); fill-opacity: 1; white-space: pre; opacity: 1;" transform="translate(342.7970078740158,0) rotate(22,0,235.3681193045461)">11:00:00</text></g><g class="xtick"><text text-anchor="start" x="0" y="239.3681193045461" style="font-family: sans-serif; font-size: 8px; fill: rgb(0, 0, 0); fill-opacity: 1; white-space: pre; opacity: 1;" transform="translate(369.99700787401576,0) rotate(22,0,235.3681193045461)">12:00:00</text></g><g class="xtick"><text text-anchor="start" x="0" y="239.3681193045461" style="font-family: sans-serif; font-size: 8px; fill: rgb(0, 0, 0); fill-opacity: 1; white-space: pre; opacity: 1;" transform="translate(397.20700787401574,0) rotate(22,0,235.3681193045461)">13:00:00</text></g><g class="xtick"><text text-anchor="start" x="0" y="239.3681193045461" style="font-family: sans-serif; font-size: 8px; fill: rgb(0, 0, 0); fill-opacity: 1; white-space: pre; opacity: 1;" transform="translate(424.4170078740158,0) rotate(22,0,235.3681193045461)">14:00:00</text></g><g class="xtick"><text text-anchor="start" x="0" y="239.3681193045461" style="font-family: sans-serif; font-size: 8px; fill: rgb(0, 0, 0); fill-opacity: 1; white-space: pre; opacity: 1;" transform="translate(451.61700787401577,0) rotate(22,0,235.3681193045461)">15:00:00</text></g><g class="xtick"><text text-anchor="start" x="0" y="239.3681193045461" style="font-family: sans-serif; font-size: 8px; fill: rgb(0, 0, 0); fill-opacity: 1; white-space: pre; opacity: 1;" transform="translate(478.82700787401575,0) rotate(22,0,235.3681193045461)">16:00:00</text></g><g class="xtick"><text text-anchor="start" x="0" y="239.3681193045461" style="font-family: sans-serif; font-size: 8px; fill: rgb(0, 0, 0); fill-opacity: 1; white-space: pre; opacity: 1;" transform="translate(506.02700787401574,0) rotate(22,0,235.3681193045461)">17:00:00</text></g><g class="xtick"><text text-anchor="start" x="0" y="239.3681193045461" style="font-family: sans-serif; font-size: 8px; fill: rgb(0, 0, 0); fill-opacity: 1; white-space: pre; opacity: 1;" transform="translate(533.2370078740157,0) rotate(22,0,235.3681193045461)">18:00:00</text></g><g class="xtick"><text text-anchor="start" x="0" y="239.3681193045461" style="font-family: sans-serif; font-size: 8px; fill: rgb(0, 0, 0); fill-opacity: 1; white-space: pre; opacity: 1;" transform="translate(560.4470078740158,0) rotate(22,0,235.3681193045461)">19:00:00</text></g><g class="xtick"><text text-anchor="start" x="0" y="239.3681193045461" style="font-family: sans-serif; font-size: 8px; fill: rgb(0, 0, 0); fill-opacity: 1; white-space: pre; opacity: 1;" transform="translate(587.6470078740158,0) rotate(22,0,235.3681193045461)">20:00:00</text></g><g class="xtick"><text text-anchor="start" x="0" y="239.3681193045461" style="font-family: sans-serif; font-size: 8px; fill: rgb(0, 0, 0); fill-opacity: 1; white-space: pre; opacity: 1;" transform="translate(614.8570078740157,0) rotate(22,0,235.3681193045461)">21:00:00</text></g><g class="xtick"><text text-anchor="start" x="0" y="239.3681193045461" style="font-family: sans-serif; font-size: 8px; fill: rgb(0, 0, 0); fill-opacity: 1; white-space: pre; opacity: 1;" transform="translate(642.0670078740158,0) rotate(22,0,235.3681193045461)">22:00:00</text></g><g class="xtick"><text text-anchor="start" x="0" y="239.3681193045461" style="font-family: sans-serif; font-size: 8px; fill: rgb(0, 0, 0); fill-opacity: 1; white-space: pre; opacity: 1;" transform="translate(669.2670078740158,0) rotate(22,0,235.3681193045461)">23:00:00</text></g><g class="xtick"><text text-anchor="start" x="0" y="239.3681193045461" style="font-family: sans-serif; font-size: 8px; fill: rgb(0, 0, 0); fill-opacity: 1; white-space: pre; opacity: 0;" transform="translate(696.4770078740157,0) rotate(22,0,235.3681193045461)">2022-10-28 00:00:00</text></g></g><g class="yaxislayer-above"><path class="ytick ticks crisp" d="M23.93700787401575,0h5" transform="translate(0,223.43392534266548)" style="stroke: rgb(0, 0, 0); stroke-opacity: 1; stroke-width: 1px;"/><path class="ytick ticks crisp" d="M23.93700787401575,0h5" transform="translate(0,196.7339253426655)" style="stroke: rgb(0, 0, 0); stroke-opacity: 1; stroke-width: 1px;"/><path class="ytick ticks crisp" d="M23.93700787401575,0h5" transform="translate(0,170.0339253426655)" style="stroke: rgb(0, 0, 0); stroke-opacity: 1; stroke-width: 1px;"/><path class="ytick ticks crisp" d="M23.93700787401575,0h5" transform="translate(0,143.3439253426655)" style="stroke: rgb(0, 0, 0); stroke-opacity: 1; stroke-width: 1px;"/><path class="ytick ticks crisp" d="M23.93700787401575,0h5" transform="translate(0,116.64392534266548)" style="stroke: rgb(0, 0, 0); stroke-opacity: 1; stroke-width: 1px;"/><path class="ytick ticks crisp" d="M23.93700787401575,0h5" transform="translate(0,89.9439253426655)" style="stroke: rgb(0, 0, 0); stroke-opacity: 1; stroke-width: 1px;"/><path class="ytick ticks crisp" d="M23.93700787401575,0h5" transform="translate(0,63.24392534266549)" style="stroke: rgb(0, 0, 0); stroke-opacity: 1; stroke-width: 1px;"/><g class="ytick"><text text-anchor="end" x="21.33700787401575" y="2.8" transform="translate(0,223.43392534266548)" style="font-family: sans-serif; font-size: 8px; fill: rgb(0, 0, 0); fill-opacity: 1; white-space: pre; opacity: 1;">0</text></g><g class="ytick"><text text-anchor="end" x="21.33700787401575" y="2.8" style="font-family: sans-serif; font-size: 8px; fill: rgb(0, 0, 0); fill-opacity: 1; white-space: pre; opacity: 1;" transform="translate(0,196.7339253426655)">100</text></g><g class="ytick"><text text-anchor="end" x="21.33700787401575" y="2.8" style="font-family: sans-serif; font-size: 8px; fill: rgb(0, 0, 0); fill-opacity: 1; white-space: pre; opacity: 1;" transform="translate(0,170.0339253426655)">200</text></g><g class="ytick"><text text-anchor="end" x="21.33700787401575" y="2.8" style="font-family: sans-serif; font-size: 8px; fill: rgb(0, 0, 0); fill-opacity: 1; white-space: pre; opacity: 1;" transform="translate(0,143.3439253426655)">300</text></g><g class="ytick"><text text-anchor="end" x="21.33700787401575" y="2.8" style="font-family: sans-serif; font-size: 8px; fill: rgb(0, 0, 0); fill-opacity: 1; white-space: pre; opacity: 1;" transform="translate(0,116.64392534266548)">400</text></g><g class="ytick"><text text-anchor="end" x="21.33700787401575" y="2.8" style="font-family: sans-serif; font-size: 8px; fill: rgb(0, 0, 0); fill-opacity: 1; white-space: pre; opacity: 1;" transform="translate(0,89.9439253426655)">500</text></g><g class="ytick"><text text-anchor="end" x="21.33700787401575" y="2.8" style="font-family: sans-serif; font-size: 8px; fill: rgb(0, 0, 0); fill-opacity: 1; white-space: pre; opacity: 1;" transform="translate(0,63.24392534266549)">600</text></g></g><g class="overaxes-above"/></g></g><g class="polarlayer"/><g class="ternarylayer"/><g class="geolayer"/><g class="funnelarealayer"/><g class="pielayer"/><g class="iciclelayer"/><g class="treemaplayer"/><g class="sunburstlayer"/><g class="glimages"/><defs id="topdefs-208d2f"><g class="clips"/></defs><g class="layer-above"><g class="imagelayer"/><g class="shapelayer"/></g><g class="infolayer"><g class="g-gtitle"/><g class="g-xtitle"/><g class="g-ytitle"/><g class="annotation" data-index="0" style="opacity: 1;"><g class="annotation-text-g" transform="rotate(0,370.00000000000006,33.500000000000014)"><g class="cursor-pointer" transform="translate(147,20)"><rect class="bg" x="0.5" y="0.5" width="446" height="26" style="stroke-width: 1px; stroke: rgb(0, 0, 0); stroke-opacity: 0; fill: rgb(0, 0, 0); fill-opacity: 0;"/><text class="annotation-text" text-anchor="middle" x="223.625" y="20.3251953125" style="font-family: sans-serif; font-size: 20px; fill: rgb(0, 0, 0); fill-opacity: 1; white-space: pre;">2022-10-27 | ost | compute | l_punch | unit/second</text></g></g></g></g></svg>