<svg class="main-svg" xmlns="http://www.w3.org/2000/svg" xmlns:xlink="http://www.w3.org/1999/xlink" width="720" height="300" style=""><rect x="0" y="0" width="720" height="300" style="fill: rgb(255, 255, 255); fill-opacity: 1;"/><defs id="defs-613536"><g class="clips"><clipPath id="clip613536xyplot" class="plotclip"><rect width="649.9037620297463" height="172.56425822700055"/></clipPath><clipPath class="axesclip" id="clip613536x"><rect x="66.15923009623796" y="0" width="649.9037620297463" height="300"/></clipPath><clipPath class="axesclip" id="clip613536y"><rect x="0" y="40.26392534266549" width="720" height="172.56425822700055"/></clipPath><clipPath class="axesclip" id="clip613536xy"><rect x="66.15923009623796" y="40.26392534266549" width="649.9037620297463" height="172.56425822700055"/></clipPath></g><g class="gradients"/><g class="patterns"/></defs><g class="bglayer"/><g class="layer-below"><g class="imagelayer"/><g class="shapelayer"/></g><g class="cartesianlayer"><g class="subplot xy"><g class="layer-subplot"><g class="shapelayer"/><g class="imagelayer"/></g><g class="gridlayer"><g class="x"><path class="xgrid crisp" transform="translate(83.69923009623795,0)" d="M0,40.26392534266549v172.56425822700055" style="stroke: rgb(0, 0, 0); stroke-opacity: 0.1; stroke-width: 0.5px;"/><path class="xgrid crisp" transform="translate(109.31923009623796,0)" d="M0,40.26392534266549v172.56425822700055" style="stroke: rgb(0, 0, 0); stroke-opacity: 0.1; stroke-width: 0.5px;"/><path class="xgrid crisp" transform="translate(134.92923009623797,0)" d="M0,40.26392534266549v172.56425822700055" style="stroke: rgb(0, 0, 0); stroke-opacity: 0.1; stroke-width: 0.5px;"/><path class="xgrid crisp" transform="translate(160.54923009623798,0)" d="M0,40.26392534266549v172.56425822700055" style="stroke: rgb(0, 0, 0); stroke-opacity: 0.1; stroke-width: 0.5px;"/><path class="xgrid crisp" transform="translate(186.16923009623798,0)" d="M0,40.26392534266549v172.56425822700055" style="stroke: rgb(0, 0, 0); stroke-opacity: 0.1; stroke-width: 0.5px;"/><path class="xgrid crisp" transform="translate(211.78923009623796,0)" d="M0,40.26392534266549v172.56425822700055" style="stroke: rgb(0, 0, 0); stroke-opacity: 0.1; stroke-width: 0.5px;"/><path class="xgrid crisp" transform="translate(237.40923009623796,0)" d="M0,40.26392534266549v172.56425822700055" style="stroke: rgb(0, 0, 0); stroke-opacity: 0.1; stroke-width: 0.5px;"/><path class="xgrid crisp" transform="translate(263.01923009623795,0)" d="M0,40.26392534266549v172.56425822700055" style="stroke: rgb(0, 0, 0); stroke-opacity: 0.1; stroke-width: 0.5px;"/><path class="xgrid crisp" transform="translate(288.63923009623795,0)" d="M0,40.26392534266549v172.56425822700055" style="stroke: rgb(0, 0, 0); stroke-opacity: 0.1; stroke-width: 0.5px;"/><path class="xgrid crisp" transform="translate(314.25923009623796,0)" d="M0,40.26392534266549v172.56425822700055" style="stroke: rgb(0, 0, 0); stroke-opacity: 0.1; stroke-width: 0.5px;"/><path class="xgrid crisp" transform="translate(339.87923009623796,0)" d="M0,40.26392534266549v172.56425822700055" style="stroke: rgb(0, 0, 0); stroke-opacity: 0.1; stroke-width: 0.5px;"/><path class="xgrid crisp" transform="translate(365.489230096238,0)" d="M0,40.26392534266549v172.56425822700055" style="stroke: rgb(0, 0, 0); stroke-opacity: 0.1; stroke-width: 0.5px;"/><path class="xgrid crisp" transform="translate(391.109230096238,0)" d="M0,40.26392534266549v172.56425822700055" style="stroke: rgb(0, 0, 0); stroke-opacity: 0.1; stroke-width: 0.5px;"/><path class="xgrid crisp" transform="translate(416.729230096238,0)" d="M0,40.26392534266549v172.56425822700055" style="stroke: rgb(0, 0, 0); stroke-opacity: 0.1; stroke-width: 0.5px;"/><path class="xgrid crisp" transform="translate(442.349230096238,0)" d="M0,40.26392534266549v172.56425822700055" style="stroke: rgb(0, 0, 0); stroke-opacity: 0.1; stroke-width: 0.5px;"/><path class="xgrid crisp" transform="translate(467.959230096238,0)" d="M0,40.26392534266549v172.56425822700055" style="stroke: rgb(0, 0, 0); stroke-opacity: 0.1; stroke-width: 0.5px;"/><path class="xgrid crisp" transform="translate(493.579230096238,0)" d="M0,40.26392534266549v172.56425822700055" style="stroke: rgb(0, 0, 0); stroke-opacity: 0.1; stroke-width: 0.5px;"/><path class="xgrid crisp" transform="translate(519.199230096238,0)" d="M0,40.26392534266549v172.56425822700055" style="stroke: rgb(0, 0, 0); stroke-opacity: 0.1; stroke-width: 0.5px;"/><path class="xgrid crisp" transform="translate(544.819230096238,0)" d="M0,40.26392534266549v172.56425822700055" style="stroke: rgb(0, 0, 0); stroke-opacity: 0.1; stroke-width: 0.5px;"/><path class="xgrid crisp" transform="translate(570.4392300962379,0)" d="M0,40.26392534266549v172.56425822700055" style="stroke: rgb(0, 0, 0); stroke-opacity: 0.1; stroke-width: 0.5px;"/><path class="xgrid crisp" transform="translate(596.0492300962379,0)" d="M0,40.26392534266549v172.56425822700055" style="stroke: rgb(0, 0, 0); stroke-opacity: 0.1; stroke-width: 0.5px;"/><path class="xgrid crisp" transform="translate(621.6692300962379,0)" d="M0,40.26392534266549v172.56425822700055" style="stroke: rgb(0, 0, 0); stroke-opacity: 0.1; stroke-width: 0.5px;"/><path class="xgrid crisp" transform="translate(647.2892300962379,0)" d="M0,40.26392534266549v172.56425822700055" style="stroke: rgb(0, 0, 0); stroke-opacity: 0.1; stroke-width: 0.5px;"/><path class="xgrid crisp" transform="translate(672.9092300962379,0)" d="M0,40.26392534266549v172.56425822700055" style="stroke: rgb(0, 0, 0); stroke-opacity: 0.1; stroke-width: 0.5px;"/><path class="xgrid crisp" transform="translate(698.519230096238,0)" d="M0,40.26392534266549v172.56425822700055" style="stroke: rgb(0, 0, 0); stroke-opacity: 0.1; stroke-width: 0.5px;"/></g><g class="y"><path class="ygrid crisp" transform="translate(0,198.11392534266548)" d="M66.15923009623796,0h649.9037620297463" style="stroke: rgb(0, 0, 0); stroke-opacity: 0.1; stroke-width: 0.5px;"/><path class="ygrid crisp" transform="translate(0,162.33392534266548)" d="M66.15923009623796,0h649.9037620297463" style="stroke: rgb(0, 0, 0); stroke-opacity: 0.1; stroke-width: 0.5px;"/><path class="ygrid crisp" transform="translate(0,126.54392534266549)" d="M66.15923009623796,0h649.9037620297463" style="stroke: rgb(0, 0, 0); stroke-opacity: 0.1; stroke-width: 0.5px;"/><path class="ygrid crisp" transform="translate(0,90.76392534266549)" d="M66.15923009623796,0h649.9037620297463" style="stroke: rgb(0, 0, 0); stroke-opacity: 0.1; stroke-width: 0.5px;"/><path class="ygrid crisp" transform="translate(0,54.97392534266549)" d="M66.15923009623796,0h649.9037620297463" style="stroke: rgb(0, 0, 0); stroke-opacity: 0.1; stroke-width: 0.5px;"/></g></g><g class="zerolinelayer"/><path class="xlines-below"/><path class="ylines-below"/><g class="overlines-below"/><g class="xaxislayer-below"/><g class="yaxislayer-below"/><g class="overaxes-below"/><g class="plot" transform="translate(66.15923009623796,40.26392534266549)" clip-path="url(#clip613536xyplot)"><g class="scatterlayer mlayer"><g class="trace scatter tracecac235" style="stroke-miterlimit: 2; opacity: 1;"><g class="fills"/><g class="errorbars"/><g class="lines"><path class="js-line" d="M18.39,120.74L19.25,120.74L19.25,128.58L20.96,127.98L20.96,127.74L23.52,127.96L23.52,126.06L24.37,126.06L24.37,126.88L25.22,126.88L25.22,121.55L26.08,121.55L26.08,125.12L26.93,125.12L26.93,126.97L29.49,126.93L29.49,126.08L31.2,125.34L31.2,124.24L32.06,124.24L32.06,119.78L33.76,119.33L33.76,120.28L34.62,120.28L34.62,117.59L35.47,117.59L35.47,119.73L36.33,119.73L36.33,118.72L38.03,118.12L38.03,121.43L38.89,121.43L38.89,119.5L41.45,120.07L41.45,121.13L43.16,121.56L43.16,119.82L44.01,119.82L44.01,144.04L44.87,144.04L44.87,145.35L45.72,145.35L45.72,122.49L46.57,122.49L46.57,123.27L47.43,123.27L47.43,122.04L48.28,122.04L48.28,124.66L49.13,124.66L49.13,120.96L49.99,120.96L49.99,122.82L50.84,122.82L50.84,121.93L52.55,121.23L52.55,123.52L53.4,123.52L53.4,120.96L54.26,120.96L54.26,122.19L55.11,122.19L55.11,120.63L56.82,121.27L56.82,119.1L57.67,119.1L57.67,118.33L58.53,118.33L58.53,119.79L59.38,119.79L59.38,118.44L60.24,118.44L60.24,120.58L61.09,120.58L61.09,106.56L61.94,106.56L61.94,101.93L62.8,101.93L62.8,119.82L65.36,119.99L65.36,117.93L66.21,117.93L66.21,121.09L67.07,121.09L67.07,119.67L67.92,119.67L67.92,118.88L68.77,118.88L68.77,121.65L69.63,121.65L69.63,119.26L71.34,119.22L71.34,121.51L72.19,121.51L72.19,120.44L73.04,120.44L73.04,122.15L73.9,122.15L73.9,116.67L74.75,116.67L74.75,117.52L76.46,117.34L76.46,116.03L77.31,116.03L77.31,119.36L78.17,119.36L78.17,120.78L79.02,120.78L79.02,153.22L79.88,153.22L79.88,137.96L80.73,137.96L80.73,157.18L81.58,157.18L81.58,148.99L83.29,149.33L83.29,154.04L84.15,154.04L84.15,157.3L85,157.3L85,152.34L85.85,152.34L85.85,150.95L86.71,150.95L86.71,154.22L87.56,154.22L87.56,153.22L89.27,152.86L89.27,155.56L90.98,155.48L90.98,152.91L91.83,152.91L91.83,154.32L92.68,154.32L92.68,149.71L93.54,149.71L93.54,154.47L96.1,154.99L96.1,154.06L97.81,153.72L97.81,154.97L98.66,154.97L98.66,153.01L100.37,152.8L100.37,153.67L101.22,153.67L101.22,150.74L102.93,150.12L102.93,148.63L103.79,148.63L103.79,152.21L104.64,152.21L104.64,149.37L105.49,149.37L105.49,151.56L106.35,151.56L106.35,150.26L107.2,150.26L107.2,146.22L108.91,145.7L108.91,142.23L109.76,142.23L109.76,143.94L110.62,143.94L110.62,143.12L112.33,143.87L112.33,146.23L113.18,146.23L113.18,148.39L114.03,148.39L114.03,147.34L114.89,147.34L114.89,149.41L115.74,149.41L115.74,146.09L117.45,146.73L117.45,148.42L118.3,148.42L118.3,147.02L119.16,147.02L119.16,145.74L120.01,145.74L120.01,143.56L120.86,143.56L120.86,146.81L121.72,146.81L121.72,142.26L122.57,142.26L122.57,145.96L123.43,145.96L123.43,145.1L124.28,145.1L124.28,146.91L126.84,146.17L126.84,145.16L127.7,145.16L127.7,147.17L128.55,147.17L128.55,144.81L129.4,144.81L129.4,148.16L130.26,148.16L130.26,145.49L131.97,144.99L131.97,145.95L133.67,146.19L133.67,143.38L134.53,143.38L134.53,145.03L136.23,145.32L136.23,144.43L137.09,144.43L137.09,143.38L137.94,143.38L137.94,145.82L138.8,145.82L138.8,142.93L139.65,142.93L139.65,139.31L140.5,139.31L140.5,143.65L141.36,143.65L141.36,142.32L142.21,142.32L142.21,138.2L143.07,138.2L143.07,141.32L143.92,141.32L143.92,138.64L144.77,138.64L144.77,141.88L145.63,141.88L145.63,140.18L146.48,140.18L146.48,136.74L147.34,136.74L147.34,139.77L148.19,139.77L148.19,141.49L150.75,140.9L150.75,143.56L151.61,143.56L151.61,140.17L152.46,140.17L152.46,142.19L153.31,142.19L153.31,133.85L154.17,133.85L154.17,139.97L155.02,139.97L155.02,141.05L155.88,141.05L155.88,136.29L156.73,136.29L156.73,137.75L157.58,137.75L157.58,139.39L158.44,139.39L158.44,138.01L159.29,138.01L159.29,138.79L160.14,138.79L160.14,135.3L161,135.3L161,138.86L162.71,138.54L162.71,136.65L163.56,136.65L163.56,117.06L164.41,117.06L164.41,110.43L165.27,110.43L165.27,108.07L166.12,108.07L166.12,109.79L166.98,109.79L166.98,107.39L167.83,107.39L167.83,104.32L170.39,104.72L170.39,105.66L172.1,106.36L172.1,105.24L172.95,105.24L172.95,104.28L173.81,104.28L173.81,127.98L175.52,127.9L175.52,130.16L176.37,130.16L176.37,132.37L177.22,132.37L177.22,128.45L178.08,128.45L178.08,6.07L178.93,6.07L178.93,112.56L179.78,112.56L179.78,127.22L180.64,127.22L180.64,133L181.49,133L181.49,94L182.35,94L182.35,114.11L183.2,114.11L183.2,130.62L184.05,130.62L184.05,128.28L184.91,128.28L184.91,134.71L185.76,134.71L185.76,136.24L186.62,136.24L186.62,126.64L187.47,126.64L187.47,133.2L188.32,133.2L188.32,129.35L189.18,129.35L189.18,134.87L190.03,134.87L190.03,135.66L190.89,135.66L190.89,130.49L191.74,130.49L191.74,123.57L192.59,123.57L192.59,135.65L193.45,135.65L193.45,127.47L194.3,127.47L194.3,131.78L195.16,131.78L195.16,122.82L196.01,122.82L196.01,125.97L196.86,125.97L196.86,133.17L197.72,133.17L197.72,126.98L198.57,126.98L198.57,90.73L199.43,90.73L199.43,127.89L200.28,127.89L200.28,130.79L201.13,130.79L201.13,133.55L201.99,133.55L201.99,132.77L203.69,132.26L203.69,131.34L204.55,131.34L204.55,129.23L205.4,129.23L205.4,130.8L206.26,130.8L206.26,129.21L207.11,129.21L207.11,127.84L207.96,127.84L207.96,129L208.82,129L208.82,123.27L209.67,123.27L209.67,128.98L211.38,128.51L211.38,131.18L212.23,131.18L212.23,128.83L213.09,128.83L213.09,126.51L215.65,126.99L215.65,127.39L216.5,127.39L216.5,128.88L217.36,128.88L217.36,130.92L218.21,130.92L218.21,127.52L219.07,127.52L219.07,123.56L220.77,123.46L220.77,126.04L221.63,126.04L221.63,120.5L222.48,120.5L222.48,117.15L223.34,117.15L223.34,119.59L224.19,119.59L224.19,122.8L225.04,122.8L225.04,112.23L225.9,112.23L225.9,121.49L226.75,121.49L226.75,112.6L227.6,112.6L227.6,123.29L228.46,123.29L228.46,126.14L230.17,125.66L230.17,113.09L231.02,113.09L231.02,104.77L231.87,104.77L231.87,123.16L232.73,123.16L232.73,119.61L234.44,119.66L234.44,104L235.29,104L235.29,123.79L236.14,123.79L236.14,120.71L237,120.71L237,115.91L238.71,116.11L238.71,117.44L239.56,117.44L239.56,114.49L241.27,114.3L241.27,108.56L242.12,108.56L242.12,109.55L242.98,109.55L242.98,107.78L243.83,107.78L243.83,96.23L244.68,96.23L244.68,110.14L248.1,110.76L248.1,113.1L248.95,113.1L248.95,112.27L249.81,112.27L249.81,124.59L250.66,124.59L250.66,120.93L251.51,120.93L251.51,126.27L252.37,126.27L252.37,123.41L253.22,123.41L253.22,112.16L254.08,112.16L254.08,117L254.93,117L254.93,115.86L256.64,116.21L256.64,121.39L257.49,121.39L257.49,117.58L258.35,117.58L258.35,116.26L259.2,116.26L259.2,122.7L260.05,122.7L260.05,112.2L260.91,112.2L260.91,105.57L261.76,105.57L261.76,106.77L263.47,106.17L263.47,112.52L264.32,112.52L264.32,110.07L265.18,110.07L265.18,125.18L266.03,125.18L266.03,128.99L266.89,128.99L266.89,125.27L268.59,125.37L268.59,128.1L269.45,128.1L269.45,125.87L270.3,125.87L270.3,129.29L271.15,129.29L271.15,125.18L272.01,125.18L272.01,132.43L272.86,132.43L272.86,130.54L273.72,130.54L273.72,109.61L274.57,109.61L274.57,117.83L275.42,117.83L275.42,125.35L278.84,125.25L278.84,126.26L279.69,126.26L279.69,121.25L281.4,120.93L281.4,126.23L282.26,126.23L282.26,120.36L283.11,120.36L283.11,121.66L283.96,121.66L283.96,124.56L284.82,124.56L284.82,119.28L286.53,119.75L286.53,125.19L287.38,125.19L287.38,119.71L288.23,119.71L288.23,123.21L289.09,123.21L289.09,118.81L289.94,118.81L289.94,108.59L290.79,108.59L290.79,110.48L291.65,110.48L291.65,107.24L292.5,107.24L292.5,112.19L293.36,112.19L293.36,114.91L294.21,114.91L294.21,106.09L295.06,106.09L295.06,103.65L295.92,103.65L295.92,104.45L296.77,104.45L296.77,96.59L297.63,96.59L297.63,101.63L299.33,101.49L299.33,99.7L300.19,99.7L300.19,111.5L301.04,111.5L301.04,104.44L301.9,104.44L301.9,109.25L302.75,109.25L302.75,110.2L303.6,110.2L303.6,106.12L304.46,106.12L304.46,109.71L305.31,109.71L305.31,106.32L306.17,106.32L306.17,79.93L307.02,79.93L307.02,106.74L307.87,106.74L307.87,104.26L308.73,104.26L308.73,88.81L309.58,88.81L309.58,101.93L311.29,102.3L311.29,97.55L312.14,97.55L312.14,101.67L313,101.67L313,97.47L314.7,97.25L314.7,109.95L315.56,109.95L315.56,102.26L316.41,102.26L316.41,99.68L317.27,99.68L317.27,101.57L318.12,101.57L318.12,91.63L318.97,91.63L318.97,94.41L319.83,94.41L319.83,90.77L320.68,90.77L320.68,87.72L321.54,87.72L321.54,102.84L322.39,102.84L322.39,96.61L323.24,96.61L323.24,85.39L324.1,85.39L324.1,91.65L324.95,91.65L324.95,93.93L325.81,93.93L325.81,91.51L326.66,91.51L326.66,87.2L327.51,87.2L327.51,90.32L329.22,89.75L329.22,81.26L330.08,81.26L330.08,85.07L330.93,85.07L330.93,92.52L331.78,92.52L331.78,87.25L332.64,87.25L332.64,82.55L334.35,83.1L334.35,80.69L335.2,80.69L335.2,82.93L336.05,82.93L336.05,87.92L336.91,87.92L336.91,82.8L338.61,82.49L338.61,78.44L340.32,78.28L340.32,70.56L341.18,70.56L341.18,72.58L342.03,72.58L342.03,75.65L342.88,75.65L342.88,80.21L343.74,80.21L343.74,82.04L344.59,82.04L344.59,74.39L345.45,74.39L345.45,82.57L346.3,82.57L346.3,75.5L347.15,75.5L347.15,69.18L348.01,69.18L348.01,76.49L349.72,76.18L349.72,70.53L350.57,70.53L350.57,82.28L351.42,82.28L351.42,75.42L352.28,75.42L352.28,78.81L353.99,79.31L353.99,67.76L354.84,67.76L354.84,78.01L356.55,77.33L356.55,73.45L357.4,73.45L357.4,80.12L358.25,80.12L358.25,78.4L359.11,78.4L359.11,74.93L359.96,74.93L359.96,69.8L360.82,69.8L360.82,58.36L361.67,58.36L361.67,70.22L362.52,70.22L362.52,73.12L363.38,73.12L363.38,71.36L364.23,71.36L364.23,73.49L365.09,73.49L365.09,78.54L365.94,78.54L365.94,71.11L366.79,71.11L366.79,75.03L367.65,75.03L367.65,67.99L368.5,67.99L368.5,72.47L369.36,72.47L369.36,78.62L370.21,78.62L370.21,81.38L371.06,81.38L371.06,79.95L371.92,79.95L371.92,85.27L372.77,85.27L372.77,82.62L373.63,82.62L373.63,80.95L374.48,80.95L374.48,71.59L375.33,71.59L375.33,76.44L376.19,76.44L376.19,72.05L377.04,72.05L377.04,74.59L377.9,74.59L377.9,73.53L378.75,73.53L378.75,71.67L381.31,71.14L381.31,66.85L383.02,66.18L383.02,69.46L383.87,69.46L383.87,70.89L384.73,70.89L384.73,72.44L385.58,72.44L385.58,69.13L386.43,69.13L386.43,70.25L387.29,70.25L387.29,69.28L388.14,69.28L388.14,62.32L389,62.32L389,65.65L389.85,65.65L389.85,57.96L390.7,57.96L390.7,67.05L391.56,67.05L391.56,70.76L392.41,70.76L392.41,68.97L393.27,68.97L393.27,66.79L394.12,66.79L394.12,68.05L394.97,68.05L394.97,61.72L395.83,61.72L395.83,59.97L396.68,59.97L396.68,67.22L397.54,67.22L397.54,41.83L398.39,41.83L398.39,66.22L399.24,66.22L399.24,68.54L400.1,68.54L400.1,66.21L400.95,66.21L400.95,70.18L401.8,70.18L401.8,61.21L402.66,61.21L402.66,59.16L403.51,59.16L403.51,67.78L404.37,67.78L404.37,63.96L405.22,63.96L405.22,65.16L406.07,65.16L406.07,74.96L406.93,74.96L406.93,71.92L407.78,71.92L407.78,76.54L408.64,76.54L408.64,68.15L409.49,68.15L409.49,61.29L410.34,61.29L410.34,68.57L411.2,68.57L411.2,70.63L412.05,70.63L412.05,69.65L412.91,69.65L412.91,73.34L413.76,73.34L413.76,66.7L414.61,66.7L414.61,72.29L415.47,72.29L415.47,67.9L416.32,67.9L416.32,62.6L417.18,62.6L417.18,67.78L418.03,67.78L418.03,74.07L418.88,74.07L418.88,78.11L420.59,78L420.59,81.23L421.45,81.23L421.45,77.07L422.3,77.07L422.3,75.67L423.15,75.67L423.15,71.81L424.01,71.81L424.01,79.13L425.71,79.25L425.71,78.28L426.57,78.28L426.57,89.36L427.42,89.36L427.42,81.16L428.28,81.16L428.28,84.84L429.13,84.84L429.13,81.18L429.98,81.18L429.98,73.93L430.84,73.93L430.84,77.51L431.69,77.51L431.69,80.87L432.55,80.87L432.55,89.4L433.4,89.4L433.4,84.12L434.25,84.12L434.25,87.94L435.96,87.55L435.96,86.14L436.82,86.14L436.82,75.59L437.67,75.59L437.67,82.41L438.52,82.41L438.52,88.47L439.38,88.47L439.38,81.76L440.23,81.76L440.23,90.69L441.09,90.69L441.09,86.99L441.94,86.99L441.94,88.83L442.79,88.83L442.79,85.53L443.65,85.53L443.65,81.03L444.5,81.03L444.5,83.7L445.36,83.7L445.36,85.65L446.21,85.65L446.21,93.9L447.06,93.9L447.06,88.42L449.62,88.67L449.62,90.16L450.48,90.16L450.48,80.39L451.33,80.39L451.33,81.93L452.19,81.93L452.19,91.19L453.04,91.19L453.04,85.82L453.89,85.82L453.89,91.88L454.75,91.88L454.75,87.99L455.6,87.99L455.6,90.77L456.46,90.77L456.46,88.99L457.31,88.99L457.31,84.05L458.16,84.05L458.16,84.83L459.02,84.83L459.02,87.38L459.87,87.38L459.87,92.5L460.73,92.5L460.73,88.06L461.58,88.06L461.58,93.11L462.43,93.11L462.43,87.98L463.29,87.98L463.29,92.26L464.14,92.26L464.14,83.25L465,83.25L465,82.16L465.85,82.16L465.85,90.26L466.7,90.26L466.7,84.92L467.56,84.92L467.56,91.68L468.41,91.68L468.41,89.8L469.26,89.8L469.26,93.5L470.12,93.5L470.12,86.65L470.97,86.65L470.97,85.61L472.68,84.87L472.68,86.75L473.53,86.75L473.53,92.15L474.39,92.15L474.39,89.22L475.24,89.22L475.24,92.6L476.1,92.6L476.1,88.55L476.95,88.55L476.95,91.78L477.8,91.78L477.8,88.3L478.66,88.3L478.66,81.06L479.51,81.06L479.51,91.41L480.37,91.41L480.37,90.14L482.07,90.88L482.07,88.59L482.93,88.59L482.93,94.37L483.78,94.37L483.78,86.84L485.49,87.17L485.49,82.62L486.34,82.62L486.34,87.08L487.2,87.08L487.2,91L488.05,91L488.05,88.02L488.91,88.02L488.91,95.97L489.76,95.97L489.76,91.06L490.61,91.06L490.61,93.48L491.47,93.48L491.47,92.23L492.32,92.23L492.32,81.82L493.17,81.82L493.17,90.32L494.03,90.32L494.03,91.52L494.88,91.52L494.88,93.31L495.74,93.31L495.74,89.59L496.59,89.59L496.59,93.14L497.44,93.14L497.44,94.28L498.3,94.28L498.3,89.51L499.15,89.51L499.15,87.11L500.01,87.11L500.01,93L501.71,93.66L501.71,89.72L502.57,89.72L502.57,97.06L503.42,97.06L503.42,91.77L505.98,92.43L505.98,87.39L506.84,87.39L506.84,90.97L507.69,90.97L507.69,90.07L508.55,90.07L508.55,98.45L509.4,98.45L509.4,92.11L510.25,92.11L510.25,96.26L511.11,96.26L511.11,97.17L511.96,97.17L511.96,91.25L512.81,91.25L512.81,89.17L514.52,88.47L514.52,95.48L515.38,95.48L515.38,89.57L516.23,89.57L516.23,93.59L518.79,93.38L518.79,89.85L519.65,89.85L519.65,88.83L521.35,89.18L521.35,90.78L522.21,90.78L522.21,99.07L523.06,99.07L523.06,91.87L523.92,91.87L523.92,94.18L524.77,94.18L524.77,95.21L525.62,95.21L525.62,93.39L526.48,93.39L526.48,87.22L527.33,87.22L527.33,84.69L528.19,84.69L528.19,97.4L529.04,97.4L529.04,88.82L529.89,88.82L529.89,96.35L530.75,96.35L530.75,91.14L531.6,91.14L531.6,93.89L532.46,93.89L532.46,89.87L533.31,89.87L533.31,85.25L534.16,85.25L534.16,88.55L535.02,88.55L535.02,90.57L535.87,90.57L535.87,98.93L536.72,98.93L536.72,94.87L538.43,95.45L538.43,94.5L540.14,94.1L540.14,88.99L540.99,88.99L540.99,85.05L541.85,85.05L541.85,96.78L542.7,96.78L542.7,89.02L543.56,89.02L543.56,96.14L544.41,96.14L544.41,92.98L545.26,92.98L545.26,95.33L546.12,95.33L546.12,91.47L546.97,91.47L546.97,86.25L547.83,86.25L547.83,89.16L548.68,89.16L548.68,88.27L549.53,88.27L549.53,95.95L550.39,95.95L550.39,93.91L551.24,93.91L551.24,93.03L552.1,93.03L552.1,94.29L552.95,94.29L552.95,92.28L553.8,92.28L553.8,89.76L554.66,89.76L554.66,84.13L555.51,84.13L555.51,93.78L556.37,93.78L556.37,90.59L557.22,90.59L557.22,95.55L558.07,95.55L558.07,93.3L558.93,93.3L558.93,98.87L559.78,98.87L559.78,95L560.63,95L560.63,88.08L561.49,88.08L561.49,91.35L563.2,91.81L563.2,98.73L564.05,98.73L564.05,94.2L564.9,94.2L564.9,99.8L565.76,99.8L565.76,96.75L566.61,96.75L566.61,97.53L567.47,97.53L567.47,95.29L568.32,95.29L568.32,88.42L569.17,88.42L569.17,96.08L570.03,96.08L570.03,97.37L570.88,97.37L570.88,101.38L571.74,101.38L571.74,99.73L572.59,99.73L572.59,101.48L573.44,101.48L573.44,104.94L574.3,104.94L574.3,92.75L575.15,92.75L575.15,97.96L576.01,97.96L576.01,94.58L576.86,94.58L576.86,104.24L577.71,104.24L577.71,98.93L578.57,98.93L578.57,103.94L579.42,103.94L579.42,99.9L580.27,99.9L580.27,101.01L581.13,101.01L581.13,98.69L581.98,98.69L581.98,94.23L582.84,94.23L582.84,100.5L584.54,100.93L584.54,108.88L585.4,108.88L585.4,103.82L586.25,103.82L586.25,101.41L587.11,101.41L587.11,107.52L587.96,107.52L587.96,96.89L588.81,96.89L588.81,100.92L589.67,100.92L589.67,99.07L590.52,99.07L590.52,106.67L591.38,106.67L591.38,103.78L592.23,103.78L592.23,107.35L593.08,107.35L593.08,102.08L594.79,102.3L594.79,91.86L595.65,91.86L595.65,78.13L596.5,78.13L596.5,79.07L598.21,79.43L598.21,91.83L599.06,91.83L599.06,86.92L599.92,86.92L599.92,88.02L600.77,88.02L600.77,97.27L601.62,97.27L601.62,95.8L602.48,95.8L602.48,93.67L603.33,93.67L603.33,67.75L604.18,67.75L604.18,97.52L605.04,97.52L605.04,89.2L605.89,89.2L605.89,98.33L606.75,98.33L606.75,97.41L607.6,97.41L607.6,94.75L609.31,95.47L609.31,66L610.16,66L610.16,74.06L611.02,74.06L611.02,90.64L611.87,90.64L611.87,96.73L612.72,96.73L612.72,92.23L613.58,92.23L613.58,85.09L614.43,85.09L614.43,91.65L615.29,91.65L615.29,86.48L616.14,86.48L616.14,85.53L616.99,85.53L616.99,83.73L617.85,83.73L617.85,96.05L618.7,96.05L618.7,89.74L619.56,89.74L619.56,95.39L620.41,95.39L620.41,93.74L622.12,94.09L622.12,92.74L622.97,92.74L622.97,87.36L623.82,87.36L623.82,92.97L624.68,92.97L624.68,89.22L625.53,89.22L625.53,94.4L626.39,94.4L626.39,96.7L627.24,96.7L627.24,93.34L628.95,93.39L628.95,92.25L629.8,92.25L629.8,93.79L630.66,93.79L630.66,87.84L631.51,87.84L631.51,97.28" style="vector-effect: non-scaling-stroke; fill: none; stroke: rgb(0, 154, 250); stroke-opacity: 0.5; stroke-width: 1px; opacity: 1;"/></g><g class="points"/><g class="text"/></g><g class="trace scatter trace056458" style="stroke-miterlimit: 2; opacity: 1;"><g class="fills"/><g class="errorbars"/><g class="lines"><path class="js-line" d="M18.39,120.69L19.25,120.69L19.25,124.28L20.1,124.28L20.1,126.43L20.96,126.43L20.96,124.99L21.81,124.99L21.81,126.29L22.66,126.29L22.66,129.57L23.52,129.57L23.52,123.92L24.37,123.92L24.37,129.7L25.22,129.7L25.22,123.12L26.08,123.12L26.08,127.39L28.64,127.05L28.64,123L29.49,123L29.49,129.85L30.35,129.85L30.35,124.79L31.2,124.79L31.2,122.45L32.06,122.45L32.06,115.33L32.91,115.33L32.91,135.57L33.76,135.57L33.76,114.72L34.62,114.72L34.62,130.15L35.47,130.15L35.47,123.87L36.33,123.87L36.33,127.58L37.18,127.58L37.18,126.8L38.03,126.8L38.03,120.59L38.89,120.59L38.89,135.99L39.74,135.99L39.74,116.55L40.6,116.55L40.6,133.52L41.45,133.52L41.45,119.39L42.3,119.39L42.3,127.65L43.16,127.65L43.16,123.06L44.01,123.06L44.01,130.59L44.87,130.59L44.87,120.13L45.72,120.13L45.72,122.86L46.57,122.86L46.57,124.7L47.43,124.7L47.43,123.19L48.28,123.19L48.28,131.21L49.13,131.21L49.13,120.88L49.99,120.88L49.99,129.47L51.7,128.78L51.7,121.85L52.55,121.85L52.55,129.16L53.4,129.16L53.4,131.27L54.26,131.27L54.26,127.94L55.11,127.94L55.11,125.58L55.97,125.58L55.97,119.91L56.82,119.91L56.82,130.14L57.67,130.14L57.67,121.38L58.53,121.38L58.53,126.14L60.24,125.84L60.24,128.64L61.09,128.64L61.09,121.82L61.94,121.82L61.94,130.4L62.8,130.4L62.8,127.65L64.51,127.08L64.51,128.83L65.36,128.83L65.36,124.86L66.21,124.86L66.21,119.61L67.92,120.01L67.92,130.96L68.77,130.96L68.77,125.51L69.63,125.51L69.63,122.1L70.48,122.1L70.48,127.61L71.34,127.61L71.34,126.78L73.04,126.17L73.04,127.88L73.9,127.88L73.9,123.04L74.75,123.04L74.75,127.38L76.46,127.43L76.46,120.54L77.31,120.54L77.31,122.45L78.17,122.45L78.17,116.8L79.02,116.8L79.02,130.45L79.88,130.45L79.88,119.45L80.73,119.45L80.73,135.49L81.58,135.49L81.58,112.61L82.44,112.61L82.44,131.21L83.29,131.21L83.29,119.89L84.15,119.89L84.15,126.17L85,126.17L85,128.61L85.85,128.61L85.85,124.48L86.71,124.48L86.71,129.16L87.56,129.16L87.56,111.43L88.42,111.43L88.42,137.62L89.27,137.62L89.27,116.04L90.12,116.04L90.12,130.52L90.98,130.52L90.98,121.7L91.83,121.7L91.83,128.54L92.68,128.54L92.68,122.12L93.54,122.12L93.54,125.8L94.39,125.8L94.39,129.84L95.25,129.84L95.25,115.64L96.1,115.64L96.1,133.55L96.95,133.55L96.95,120.48L97.81,120.48L97.81,124.07L98.66,124.07L98.66,118.85L99.52,118.85L99.52,127.03L100.37,127.03L100.37,123.69L101.22,123.69L101.22,126.98L102.08,126.98L102.08,126.22L102.93,126.22L102.93,120.86L103.79,120.86L103.79,125.26L104.64,125.26L104.64,117.65L105.49,117.65L105.49,128.79L106.35,128.79L106.35,126.19L107.2,126.19L107.2,122.41L108.06,122.41L108.06,127.47L108.91,127.47L108.91,123.73L109.76,123.73L109.76,125.29L110.62,125.29L110.62,117.88L111.47,117.88L111.47,128.1L113.18,128.27L113.18,121.07L114.03,121.07L114.03,128.23L114.89,128.23L114.89,121.68L115.74,121.68L115.74,131.62L116.59,131.62L116.59,121.11L117.45,121.11L117.45,129.45L118.3,129.45L118.3,127.53L119.16,127.53L119.16,122.6L120.01,122.6L120.01,120.73L120.86,120.73L120.86,122.3L121.72,122.3L121.72,124.56L122.57,124.56L122.57,123.65L123.43,123.65L123.43,128.11L124.28,128.11L124.28,121.66L125.13,121.66L125.13,130.62L125.99,130.62L125.99,124.17L126.84,124.17L126.84,125.08L127.7,125.08L127.7,127.28L128.55,127.28L128.55,126.27L130.26,126.07L130.26,123.86L131.11,123.86L131.11,121.89L131.97,121.89L131.97,125.57L132.82,125.57L132.82,121.38L133.67,121.38L133.67,125.85L134.53,125.85L134.53,126.74L135.38,126.74L135.38,123.72L136.23,123.72L136.23,131.12L137.09,131.12L137.09,125.16L138.8,125.14L138.8,122.27L139.65,122.27L139.65,119.84L140.5,119.84L140.5,122.96L141.36,122.96L141.36,127.07L142.21,127.07L142.21,124.28L143.92,123.73L143.92,128.35L144.77,128.35L144.77,120.74L145.63,120.74L145.63,139.79L146.48,139.79L146.48,117.42L147.34,117.42L147.34,130.58L148.19,130.58L148.19,121.03L149.04,121.03L149.04,127.59L149.9,127.59L149.9,116.21L150.75,116.21L150.75,123.58L151.61,123.58L151.61,129.31L152.46,129.31L152.46,120.49L153.31,120.49L153.31,132.32L154.17,132.32L154.17,123.12L155.02,123.12L155.02,132.96L155.88,132.96L155.88,121.35L156.73,121.35L156.73,137.89L157.58,137.89L157.58,130.7L158.44,130.7L158.44,129.02L161,129.57L161,133.82L161.85,133.82L161.85,127.45L162.71,127.45L162.71,145.23L163.56,145.23L163.56,127.94L164.41,127.94L164.41,135.1L165.27,135.1L165.27,120.28L166.12,120.28L166.12,133.44L166.98,133.44L166.98,131.71L167.83,131.71L167.83,127.88L168.68,127.88L168.68,128.98L169.54,128.98L169.54,132.96L171.25,132.64L171.25,124.03L172.1,124.03L172.1,141.54L172.95,141.54L172.95,128.85L173.81,128.85L173.81,130.8L174.66,130.8L174.66,127.74L176.37,128.07L176.37,133.83L177.22,133.83L177.22,127.45L178.08,127.45L178.08,139.31L178.93,139.31L178.93,127.02L179.78,127.02L179.78,131.81L180.64,131.81L180.64,135.16L181.49,135.16L181.49,129.93L182.35,129.93L182.35,131.23L183.2,131.23L183.2,127.1L184.05,127.1L184.05,130.8L184.91,130.8L184.91,128.97L185.76,128.97L185.76,135.52L186.62,135.52L186.62,143.81L187.47,143.81L187.47,125.28L188.32,125.28L188.32,137.68L189.18,137.68L189.18,126.29L190.03,126.29L190.03,148.08L190.89,148.08L190.89,120.93L191.74,120.93L191.74,130.8L193.45,131.35L193.45,133.88L195.16,133.58L195.16,130.31L196.01,130.31L196.01,140.29L196.86,140.29L196.86,129.38L197.72,129.38L197.72,138.01L198.57,138.01L198.57,124.4L199.43,124.4L199.43,134.86L200.28,134.86L200.28,131.04L201.13,131.04L201.13,133.41L201.99,133.41L201.99,140.65L202.84,140.65L202.84,132.27L203.69,132.27L203.69,138.77L204.55,138.77L204.55,130.82L205.4,130.82L205.4,141.27L206.26,141.27L206.26,118.43L207.11,118.43L207.11,128.67L207.96,128.67L207.96,132.35L208.82,132.35L208.82,134.2L209.67,134.2L209.67,138.65L210.53,138.65L210.53,130.56L211.38,130.56L211.38,141.43L212.23,141.43L212.23,130.92L213.09,130.92L213.09,142.36L213.94,142.36L213.94,130.85L214.8,130.85L214.8,126.65L215.65,126.65L215.65,132.18L216.5,132.18L216.5,133.46L218.21,133.58L218.21,131.3L219.07,131.3L219.07,135.89L219.92,135.89L219.92,130.21L220.77,130.21L220.77,143.48L221.63,143.48L221.63,124.25L222.48,124.25L222.48,141.34L223.34,141.34L223.34,125.42L224.19,125.42L224.19,138.94L225.04,138.94L225.04,130.29L226.75,130.5L226.75,136.17L227.6,136.17L227.6,127.96L228.46,127.96L228.46,138.3L229.31,138.3L229.31,126.71L230.17,126.71L230.17,124.01L231.02,124.01L231.02,118.54L231.87,118.54L231.87,131.8L232.73,131.8L232.73,114.26L233.58,114.26L233.58,118.51L234.44,118.51L234.44,112.79L235.29,112.79L235.29,117.49L236.14,117.49L236.14,112.13L237,112.13L237,119.59L237.85,119.59L237.85,120.41L238.71,120.41L238.71,111.66L239.56,111.66L239.56,120.51L240.41,120.51L240.41,113.83L241.27,113.83L241.27,123.99L242.12,123.99L242.12,117.1L242.98,117.1L242.98,121.77L243.83,121.77L243.83,113.14L244.68,113.14L244.68,120.36L245.54,120.36L245.54,115.94L247.24,115.65L247.24,119.94L248.1,119.94L248.1,118.01L248.95,118.01L248.95,128.79L249.81,128.79L249.81,124.76L250.66,124.76L250.66,119.83L251.51,119.83L251.51,130.55L252.37,130.55L252.37,122.6L253.22,122.6L253.22,125.1L254.08,125.1L254.08,119.81L254.93,119.81L254.93,125.28L255.78,125.28L255.78,118.27L256.64,118.27L256.64,116.25L257.49,116.25L257.49,123.66L258.35,123.66L258.35,117.72L259.2,117.72L259.2,123.67L260.05,123.67L260.05,112.35L260.91,112.35L260.91,122.15L261.76,122.15L261.76,117.89L262.62,117.89L262.62,111.57L263.47,111.57L263.47,116.76L264.32,116.76L264.32,114.5L265.18,114.5L265.18,120.16L266.03,120.16L266.03,123.3L266.89,123.3L266.89,119.24L267.74,119.24L267.74,110.76L268.59,110.76L268.59,121.58L269.45,121.58L269.45,119.35L270.3,119.35L270.3,124.9L271.15,124.9L271.15,130.63L272.01,130.63L272.01,126.39L272.86,126.39L272.86,112.87L273.72,112.87L273.72,119.8L274.57,119.8L274.57,118.4L275.42,118.4L275.42,129.01L276.28,129.01L276.28,118.13L277.13,118.13L277.13,130.48L277.99,130.48L277.99,107.67L278.84,107.67L278.84,127.12L279.69,127.12L279.69,119.52L281.4,120.06L281.4,104.29L282.26,104.29L282.26,109.24L283.11,109.24L283.11,111.76L283.96,111.76L283.96,109.06L284.82,109.06L284.82,111.46L285.67,111.46L285.67,112.8L286.53,112.8L286.53,115.08L287.38,115.08L287.38,109.42L288.23,109.42L288.23,115.23L289.09,115.23L289.09,116.5L289.94,116.5L289.94,112.66L291.65,112.94L291.65,114.8L292.5,114.8L292.5,112.64L293.36,112.64L293.36,113.65L294.21,113.65L294.21,115.77L295.06,115.77L295.06,116.85L295.92,116.85L295.92,119.68L296.77,119.68L296.77,121.86L297.63,121.86L297.63,120.02L298.48,120.02L298.48,118.19L299.33,118.19L299.33,123.06L300.19,123.06L300.19,129.93L301.04,129.93L301.04,125.35L301.9,125.35L301.9,120.79L302.75,120.79L302.75,123.12L303.6,123.12L303.6,108.69L304.46,108.69L304.46,126.2L305.31,126.2L305.31,109.04L306.17,109.04L306.17,81.7L307.02,81.7L307.02,108.73L307.87,108.73L307.87,113.51L308.73,113.51L308.73,108.58L310.44,108.81L310.44,117.25L311.29,117.25L311.29,115.32L312.14,115.32L312.14,123.61L313,123.61L313,111.98L313.85,111.98L313.85,127.22L314.7,127.22L314.7,123.93L315.56,123.93L315.56,118.16L317.27,118L317.27,112.87L318.12,112.87L318.12,115.11L318.97,115.11L318.97,122.16L319.83,122.16L319.83,114.19L320.68,114.19L320.68,108.84L321.54,108.84L321.54,110.55L322.39,110.55L322.39,122.36L323.24,122.36L323.24,115.48L324.1,115.48L324.1,119.69L324.95,119.69L324.95,117.43L325.81,117.43L325.81,114.34L326.66,114.34L326.66,67.27L327.51,67.27L327.51,85.66L328.37,85.66L328.37,86.8L329.22,86.8L329.22,73.34L330.08,73.34L330.08,71.63L330.93,71.63L330.93,72.42L331.78,72.42L331.78,77.77L332.64,77.77L332.64,76.77L333.49,76.77L333.49,70.12L334.35,70.12L334.35,79.91L335.2,79.91L335.2,81.73L336.05,81.73L336.05,85.22L336.91,85.22L336.91,80.02L337.76,80.02L337.76,89.24L338.61,89.24L338.61,81.82L339.47,81.82L339.47,70.62L340.32,70.62L340.32,74.06L341.18,74.06L341.18,82.02L342.03,82.02L342.03,92.99L342.88,92.99L342.88,82.93L343.74,82.93L343.74,92L344.59,92L344.59,85.62L345.45,85.62L345.45,87.75L346.3,87.75L346.3,108.44L347.15,108.44L347.15,82.44L348.01,82.44L348.01,85.28L348.86,85.28L348.86,74.35L349.72,74.35L349.72,82.81L351.42,83.24L351.42,95.13L352.28,95.13L352.28,107.65L353.13,107.65L353.13,97.71L353.99,97.71L353.99,86.85L354.84,86.85L354.84,103.04L355.69,103.04L355.69,94.25L356.55,94.25L356.55,103.84L357.4,103.84L357.4,98.35L358.25,98.35L358.25,101.3L359.11,101.3L359.11,94.14L359.96,94.14L359.96,103.75L362.52,104.19L362.52,106.18L363.38,106.18L363.38,100.85L364.23,100.85L364.23,97.71L365.09,97.71L365.09,100.46L368.5,100.11L368.5,94.59L369.36,94.59L369.36,88.37L370.21,88.37L370.21,98.3L371.92,97.93L371.92,90.63L372.77,90.63L372.77,92.27L373.63,92.27L373.63,93.47L375.33,93.39L375.33,86.94L376.19,86.94L376.19,79.95L377.04,79.95L377.04,40.17L377.9,40.17L377.9,6.27L378.75,6.27L378.75,9.66L379.6,9.66L379.6,11.45L380.46,11.45L380.46,24.27L381.31,24.27L381.31,8.58L383.87,8.65L383.87,9.51L384.73,9.51L384.73,6.75L385.58,6.75L385.58,11.2L387.29,11.43L387.29,14.92L388.14,14.92L388.14,12.16L389,12.16L389,8.72L389.85,8.72L389.85,7.46L390.7,7.46L390.7,8.39L391.56,8.39L391.56,9.53L392.41,9.53L392.41,6.99L393.27,6.99L393.27,9.71L394.97,9.47L394.97,15.9L395.83,15.9L395.83,4.88L396.68,4.88L396.68,14.73L397.54,14.73L397.54,28.57L398.39,28.57L398.39,17.02L399.24,17.02L399.24,84.12L400.1,84.12L400.1,87.28L400.95,87.28L400.95,88.08L401.8,88.08L401.8,45.08L402.66,45.08L402.66,66.27L403.51,66.27L403.51,95.64L404.37,95.64L404.37,87.24L405.22,87.24L405.22,93.89L406.07,93.89L406.07,88.12L406.93,88.12L406.93,95.93L407.78,95.93L407.78,94.34L408.64,94.34L408.64,99.5L409.49,99.5L409.49,97.87L411.2,97.84L411.2,93.95L412.05,93.95L412.05,98L413.76,98.15L413.76,95.65L414.61,95.65L414.61,96.79L415.47,96.79L415.47,98.49L416.32,98.49L416.32,92.82L417.18,92.82L417.18,94.98L418.03,94.98L418.03,97.82L418.88,97.82L418.88,100.77L419.74,100.77L419.74,92.04L420.59,92.04L420.59,89.41L421.45,89.41L421.45,92.83L422.3,92.83L422.3,89.56L423.15,89.56L423.15,90.73L424.01,90.73L424.01,95.96L424.86,95.96L424.86,102.5L425.71,102.5L425.71,89.04L426.57,89.04L426.57,98.47L427.42,98.47L427.42,101.06L428.28,101.06L428.28,95.11L429.98,94.43L429.98,96.45L431.69,96.21L431.69,95.03L432.55,95.03L432.55,101.27L433.4,101.27L433.4,99.65L434.25,99.65L434.25,98.15L435.11,98.15L435.11,93.1L435.96,93.1L435.96,97.89L436.82,97.89L436.82,103.25L437.67,103.25L437.67,104.75L438.52,104.75L438.52,102.61L439.38,102.61L439.38,106.24L440.23,106.24L440.23,99.44L441.09,99.44L441.09,95.74L441.94,95.74L441.94,103.01L442.79,103.01L442.79,100.07L443.65,100.07L443.65,101.77L444.5,101.77L444.5,106.73L445.36,106.73L445.36,98.85L446.21,98.85L446.21,106.54L447.06,106.54L447.06,95.8L447.92,95.8L447.92,98.85L449.62,99.42L449.62,106.72L450.48,106.72L450.48,107.61L451.33,107.61L451.33,105.06L452.19,105.06L452.19,107.68L453.04,107.68L453.04,102.14L453.89,102.14L453.89,105.6L454.75,105.6L454.75,96.71L455.6,96.71L455.6,107.74L456.46,107.74L456.46,103.23L458.16,103.32L458.16,111.75L459.02,111.75L459.02,112.76L459.87,112.76L459.87,107.23L460.73,107.23L460.73,97.6L461.58,97.6L461.58,102.03L462.43,102.03L462.43,120.02L463.29,120.02L463.29,118.1L464.14,118.1L464.14,141.97L465,141.97L465,118.13L465.85,118.13L465.85,130.63L466.7,130.63L466.7,128.11L468.41,127.81L468.41,137.5L469.26,137.5L469.26,129.56L470.12,129.56L470.12,123.44L470.97,123.44L470.97,130.57L471.83,130.57L471.83,132.5L472.68,132.5L472.68,133.43L473.53,133.43L473.53,121.07L474.39,121.07L474.39,134.08L475.24,134.08L475.24,121.55L476.1,121.55L476.1,134.58L476.95,134.58L476.95,125.76L477.8,125.76L477.8,135.38L478.66,135.38L478.66,132.78L479.51,132.78L479.51,138.37L480.37,138.37L480.37,132.68L481.22,132.68L481.22,131.4L482.93,131.46L482.93,130.45L483.78,130.45L483.78,129.23L484.64,129.23L484.64,131.2L485.49,131.2L485.49,153.13L486.34,153.13L486.34,134.97L487.2,134.97L487.2,141.28L488.05,141.28L488.05,149.56L488.91,149.56L488.91,158.61L489.76,158.61L489.76,149.1L490.61,149.1L490.61,153.23L491.47,153.23L491.47,154.27L492.32,154.27L492.32,149.06L493.17,149.06L493.17,153.83L494.03,153.83L494.03,150.59L494.88,150.59L494.88,151.74L496.59,151.52L496.59,152.43L497.44,152.43L497.44,150.28L498.3,150.28L498.3,162.61L499.15,162.61L499.15,152.09L500.01,152.09L500.01,159.45L500.86,159.45L500.86,153.18L502.57,152.73L502.57,155.41L503.42,155.41L503.42,158.21L505.13,157.96L505.13,147.41L505.98,147.41L505.98,141.83L507.69,141.73L507.69,143.43L508.55,143.43L508.55,144.78L509.4,144.78L509.4,142.63L510.25,142.63L510.25,153.57L511.11,153.57L511.11,161.08L511.96,161.08L511.96,148.4L512.81,148.4L512.81,145.15L513.67,145.15L513.67,140.27L515.38,140.99L515.38,145.68L516.23,145.68L516.23,59.64L517.08,59.64L517.08,63.91L517.94,63.91L517.94,141.08L518.79,141.08L518.79,147.54L519.65,147.54L519.65,155.44L520.5,155.44L520.5,161.05L521.35,161.05L521.35,155.49L522.21,155.49L522.21,150.08L523.06,150.08L523.06,151.7L523.92,151.7L523.92,162.94L524.77,162.94L524.77,149.22L525.62,149.22L525.62,145.25L526.48,145.25L526.48,162.77L527.33,162.77L527.33,149.14L528.19,149.14L528.19,158.35L529.04,158.35L529.04,156.76L530.75,157.12L530.75,145.57L531.6,145.57L531.6,152.39L532.46,152.39L532.46,165.42L533.31,165.42L533.31,153.86L534.16,153.86L534.16,163.23L535.02,163.23L535.02,151.26L535.87,151.26L535.87,154.09L536.72,154.09L536.72,141.93L537.58,141.93L537.58,145.47L538.43,145.47L538.43,143.44L540.14,143.48L540.14,145.32L540.99,145.32L540.99,153.22L541.85,153.22L541.85,154.33L542.7,154.33L542.7,159.97L543.56,159.97L543.56,165.27L544.41,165.27L544.41,151.33L545.26,151.33L545.26,157.23L546.97,157.58L546.97,153.01L547.83,153.01L547.83,151.07L548.68,151.07L548.68,143.64L549.53,143.64L549.53,157.1L550.39,157.1L550.39,158.32L551.24,158.32L551.24,145.58L552.1,145.58L552.1,147.27L552.95,147.27L552.95,152.85L553.8,152.85L553.8,157.58L554.66,157.58L554.66,154.97L555.51,154.97L555.51,145.54L556.37,145.54L556.37,157.81L557.22,157.81L557.22,163.14L558.07,163.14L558.07,156.8L558.93,156.8L558.93,162.06L560.63,161.54L560.63,156.98L561.49,156.98L561.49,161.41L563.2,161.98L563.2,155.23L564.05,155.23L564.05,150.62L564.9,150.62L564.9,145.29L565.76,145.29L565.76,158.95L566.61,158.95L566.61,150.94L567.47,150.94L567.47,144.23L568.32,144.23L568.32,155.8L569.17,155.8L569.17,160.94L570.03,160.94L570.03,163.25L570.88,163.25L570.88,158.34L571.74,158.34L571.74,159.98L572.59,159.98L572.59,156.99L573.44,156.99L573.44,160.12L574.3,160.12L574.3,152.18L575.15,152.18L575.15,156.01L576.01,156.01L576.01,153.61L577.71,153.47L577.71,161.42L578.57,161.42L578.57,155.42L579.42,155.42L579.42,153.28L581.13,152.62L581.13,161.3L581.98,161.3L581.98,155.94L582.84,155.94L582.84,158.92L583.69,158.92L583.69,161.97L584.54,161.97L584.54,159.46L585.4,159.46L585.4,143.93L586.25,143.93L586.25,160.84L587.11,160.84L587.11,151.75L587.96,151.75L587.96,156.47L588.81,156.47L588.81,160.61L589.67,160.61L589.67,162.03L590.52,162.03L590.52,157.97L591.38,157.97L591.38,161.43L592.23,161.43L592.23,166.09L593.08,166.09L593.08,144.91L593.94,144.91L593.94,148.19L594.79,148.19L594.79,138.67L595.65,138.67L595.65,147.12L597.35,147.36L597.35,151.86L598.21,151.86L598.21,159.1L599.06,159.1L599.06,162.54L599.92,162.54L599.92,146.95L600.77,146.95L600.77,145.74L601.62,145.74L601.62,148.48L602.48,148.48L602.48,143.64L603.33,143.64L603.33,154.11L604.18,154.11L604.18,160.21L605.04,160.21L605.04,161.08L605.89,161.08L605.89,162.53L606.75,162.53L606.75,157.48L607.6,157.48L607.6,152.5L608.45,152.5L608.45,158.29L609.31,158.29L609.31,163.43L610.16,163.43L610.16,167.68L611.02,167.68L611.02,153.6L611.87,153.6L611.87,149.83L612.72,149.83L612.72,152.52L613.58,152.52L613.58,153.86L614.43,153.86L614.43,160.75L615.29,160.75L615.29,155.01L616.14,155.01L616.14,153.91L616.99,153.91L616.99,155.42L617.85,155.42L617.85,158.25L618.7,158.25L618.7,159.35L619.56,159.35L619.56,162.19L620.41,162.19L620.41,154.64L621.26,154.64L621.26,164.3L622.12,164.3L622.12,160.19L622.97,160.19L622.97,143.07L623.82,143.07L623.82,155.48L624.68,155.48L624.68,153.08L625.53,153.08L625.53,145.77L626.39,145.77L626.39,153.51L627.24,153.51L627.24,158.91L628.09,158.91L628.09,154.44L628.95,154.44L628.95,157.35L629.8,157.35L629.8,162.49L630.66,162.49L630.66,161.69L631.51,161.69L631.51,162.12" style="vector-effect: non-scaling-stroke; fill: none; stroke: rgb(62, 164, 78); stroke-opacity: 0.5; stroke-width: 1px; opacity: 1;"/></g><g class="points"/><g class="text"/></g></g></g><g class="overplot"/><path class="xlines-above crisp" d="M65.15923009623796,213.32818356966604H716.0629921259842" style="fill: none; stroke-width: 1px; stroke: rgb(0, 0, 0); stroke-opacity: 1;"/><path class="ylines-above crisp" d="M65.65923009623796,40.26392534266549V212.82818356966604" style="fill: none; stroke-width: 1px; stroke: rgb(0, 0, 0); stroke-opacity: 1;"/><g class="overlines-above"/><g class="xaxislayer-above"><path class="xtick ticks crisp" d="M0,212.82818356966604v-5" transform="translate(83.69923009623795,0)" style="stroke: rgb(0, 0, 0); stroke-opacity: 1; stroke-width: 1px;"/><path class="xtick ticks crisp" d="M0,212.82818356966604v-5" transform="translate(109.31923009623796,0)" style="stroke: rgb(0, 0, 0); stroke-opacity: 1; stroke-width: 1px;"/><path class="xtick ticks crisp" d="M0,212.82818356966604v-5" transform="translate(134.92923009623797,0)" style="stroke: rgb(0, 0, 0); stroke-opacity: 1; stroke-width: 1px;"/><path class="xtick ticks crisp" d="M0,212.82818356966604v-5" transform="translate(160.54923009623798,0)" style="stroke: rgb(0, 0, 0); stroke-opacity: 1; stroke-width: 1px;"/><path class="xtick ticks crisp" d="M0,212.82818356966604v-5" transform="translate(186.16923009623798,0)" style="stroke: rgb(0, 0, 0); stroke-opacity: 1; stroke-width: 1px;"/><path class="xtick ticks crisp" d="M0,212.82818356966604v-5" transform="translate(211.78923009623796,0)" style="stroke: rgb(0, 0, 0); stroke-opacity: 1; stroke-width: 1px;"/><path class="xtick ticks crisp" d="M0,212.82818356966604v-5" transform="translate(237.40923009623796,0)" style="stroke: rgb(0, 0, 0); stroke-opacity: 1; stroke-width: 1px;"/><path class="xtick ticks crisp" d="M0,212.82818356966604v-5" transform="translate(263.01923009623795,0)" style="stroke: rgb(0, 0, 0); stroke-opacity: 1; stroke-width: 1px;"/><path class="xtick ticks crisp" d="M0,212.82818356966604v-5" transform="translate(288.63923009623795,0)" style="stroke: rgb(0, 0, 0); stroke-opacity: 1; stroke-width: 1px;"/><path class="xtick ticks crisp" d="M0,212.82818356966604v-5" transform="translate(314.25923009623796,0)" style="stroke: rgb(0, 0, 0); stroke-opacity: 1; stroke-width: 1px;"/><path class="xtick ticks crisp" d="M0,212.82818356966604v-5" transform="translate(339.87923009623796,0)" style="stroke: rgb(0, 0, 0); stroke-opacity: 1; stroke-width: 1px;"/><path class="xtick ticks crisp" d="M0,212.82818356966604v-5" transform="translate(365.489230096238,0)" style="stroke: rgb(0, 0, 0); stroke-opacity: 1; stroke-width: 1px;"/><path class="xtick ticks crisp" d="M0,212.82818356966604v-5" transform="translate(391.109230096238,0)" style="stroke: rgb(0, 0, 0); stroke-opacity: 1; stroke-width: 1px;"/><path class="xtick ticks crisp" d="M0,212.82818356966604v-5" transform="translate(416.729230096238,0)" style="stroke: rgb(0, 0, 0); stroke-opacity: 1; stroke-width: 1px;"/><path class="xtick ticks crisp" d="M0,212.82818356966604v-5" transform="translate(442.349230096238,0)" style="stroke: rgb(0, 0, 0); stroke-opacity: 1; stroke-width: 1px;"/><path class="xtick ticks crisp" d="M0,212.82818356966604v-5" transform="translate(467.959230096238,0)" style="stroke: rgb(0, 0, 0); stroke-opacity: 1; stroke-width: 1px;"/><path class="xtick ticks crisp" d="M0,212.82818356966604v-5" transform="translate(493.579230096238,0)" style="stroke: rgb(0, 0, 0); stroke-opacity: 1; stroke-width: 1px;"/><path class="xtick ticks crisp" d="M0,212.82818356966604v-5" transform="translate(519.199230096238,0)" style="stroke: rgb(0, 0, 0); stroke-opacity: 1; stroke-width: 1px;"/><path class="xtick ticks crisp" d="M0,212.82818356966604v-5" transform="translate(544.819230096238,0)" style="stroke: rgb(0, 0, 0); stroke-opacity: 1; stroke-width: 1px;"/><path class="xtick ticks crisp" d="M0,212.82818356966604v-5" transform="translate(570.4392300962379,0)" style="stroke: rgb(0, 0, 0); stroke-opacity: 1; stroke-width: 1px;"/><path class="xtick ticks crisp" d="M0,212.82818356966604v-5" transform="translate(596.0492300962379,0)" style="stroke: rgb(0, 0, 0); stroke-opacity: 1; stroke-width: 1px;"/><path class="xtick ticks crisp" d="M0,212.82818356966604v-5" transform="translate(621.6692300962379,0)" style="stroke: rgb(0, 0, 0); stroke-opacity: 1; stroke-width: 1px;"/><path class="xtick ticks crisp" d="M0,212.82818356966604v-5" transform="translate(647.2892300962379,0)" style="stroke: rgb(0, 0, 0); stroke-opacity: 1; stroke-width: 1px;"/><path class="xtick ticks crisp" d="M0,212.82818356966604v-5" transform="translate(672.9092300962379,0)" style="stroke: rgb(0, 0, 0); stroke-opacity: 1; stroke-width: 1px;"/><path class="xtick ticks crisp" d="M0,212.82818356966604v-5" transform="translate(698.519230096238,0)" style="stroke: rgb(0, 0, 0); stroke-opacity: 1; stroke-width: 1px;"/><g class="xtick"><text text-anchor="start" x="0" y="227.02818356966603" transform="translate(83.69923009623795,0) rotate(22,0,221.52818356966603)" style="font-family: sans-serif; font-size: 11px; fill: rgb(0, 0, 0); fill-opacity: 1; white-space: pre; opacity: 1;">2022-10-27 00:00:00</text></g><g class="xtick"><text text-anchor="start" x="0" y="227.02818356966603" style="font-family: sans-serif; font-size: 11px; fill: rgb(0, 0, 0); fill-opacity: 1; white-space: pre; opacity: 1;" transform="translate(109.31923009623796,0) rotate(22,0,221.52818356966603)">01:00:00</text></g><g class="xtick"><text text-anchor="start" x="0" y="227.02818356966603" style="font-family: sans-serif; font-size: 11px; fill: rgb(0, 0, 0); fill-opacity: 1; white-space: pre; opacity: 1;" transform="translate(134.92923009623797,0) rotate(22,0,221.52818356966603)">02:00:00</text></g><g class="xtick"><text text-anchor="start" x="0" y="227.02818356966603" style="font-family: sans-serif; font-size: 11px; fill: rgb(0, 0, 0); fill-opacity: 1; white-space: pre; opacity: 1;" transform="translate(160.54923009623798,0) rotate(22,0,221.52818356966603)">03:00:00</text></g><g class="xtick"><text text-anchor="start" x="0" y="227.02818356966603" style="font-family: sans-serif; font-size: 11px; fill: rgb(0, 0, 0); fill-opacity: 1; white-space: pre; opacity: 1;" transform="translate(186.16923009623798,0) rotate(22,0,221.52818356966603)">04:00:00</text></g><g class="xtick"><text text-anchor="start" x="0" y="227.02818356966603" style="font-family: sans-serif; font-size: 11px; fill: rgb(0, 0, 0); fill-opacity: 1; white-space: pre; opacity: 1;" transform="translate(211.78923009623796,0) rotate(22,0,221.52818356966603)">05:00:00</text></g><g class="xtick"><text text-anchor="start" x="0" y="227.02818356966603" style="font-family: sans-serif; font-size: 11px; fill: rgb(0, 0, 0); fill-opacity: 1; white-space: pre; opacity: 1;" transform="translate(237.40923009623796,0) rotate(22,0,221.52818356966603)">06:00:00</text></g><g class="xtick"><text text-anchor="start" x="0" y="227.02818356966603" style="font-family: sans-serif; font-size: 11px; fill: rgb(0, 0, 0); fill-opacity: 1; white-space: pre; opacity: 1;" transform="translate(263.01923009623795,0) rotate(22,0,221.52818356966603)">07:00:00</text></g><g class="xtick"><text text-anchor="start" x="0" y="227.02818356966603" style="font-family: sans-serif; font-size: 11px; fill: rgb(0, 0, 0); fill-opacity: 1; white-space: pre; opacity: 1;" transform="translate(288.63923009623795,0) rotate(22,0,221.52818356966603)">08:00:00</text></g><g class="xtick"><text text-anchor="start" x="0" y="227.02818356966603" style="font-family: sans-serif; font-size: 11px; fill: rgb(0, 0, 0); fill-opacity: 1; white-space: pre; opacity: 1;" transform="translate(314.25923009623796,0) rotate(22,0,221.52818356966603)">09:00:00</text></g><g class="xtick"><text text-anchor="start" x="0" y="227.02818356966603" style="font-family: sans-serif; font-size: 11px; fill: rgb(0, 0, 0); fill-opacity: 1; white-space: pre; opacity: 1;" transform="translate(339.87923009623796,0) rotate(22,0,221.52818356966603)">10:00:00</text></g><g class="xtick"><text text-anchor="start" x="0" y="227.02818356966603" style="font-family: sans-serif; font-size: 11px; fill: rgb(0, 0, 0); fill-opacity: 1; white-space: pre; opacity: 1;" transform="translate(365.489230096238,0) rotate(22,0,221.52818356966603)">11:00:00</text></g><g class="xtick"><text text-anchor="start" x="0" y="227.02818356966603" style="font-family: sans-serif; font-size: 11px; fill: rgb(0, 0, 0); fill-opacity: 1; white-space: pre; opacity: 1;" transform="translate(391.109230096238,0) rotate(22,0,221.52818356966603)">12:00:00</text></g><g class="xtick"><text text-anchor="start" x="0" y="227.02818356966603" style="font-family: sans-serif; font-size: 11px; fill: rgb(0, 0, 0); fill-opacity: 1; white-space: pre; opacity: 1;" transform="translate(416.729230096238,0) rotate(22,0,221.52818356966603)">13:00:00</text></g><g class="xtick"><text text-anchor="start" x="0" y="227.02818356966603" style="font-family: sans-serif; font-size: 11px; fill: rgb(0, 0, 0); fill-opacity: 1; white-space: pre; opacity: 1;" transform="translate(442.349230096238,0) rotate(22,0,221.52818356966603)">14:00:00</text></g><g class="xtick"><text text-anchor="start" x="0" y="227.02818356966603" style="font-family: sans-serif; font-size: 11px; fill: rgb(0, 0, 0); fill-opacity: 1; white-space: pre; opacity: 1;" transform="translate(467.959230096238,0) rotate(22,0,221.52818356966603)">15:00:00</text></g><g class="xtick"><text text-anchor="start" x="0" y="227.02818356966603" style="font-family: sans-serif; font-size: 11px; fill: rgb(0, 0, 0); fill-opacity: 1; white-space: pre; opacity: 1;" transform="translate(493.579230096238,0) rotate(22,0,221.52818356966603)">16:00:00</text></g><g class="xtick"><text text-anchor="start" x="0" y="227.02818356966603" style="font-family: sans-serif; font-size: 11px; fill: rgb(0, 0, 0); fill-opacity: 1; white-space: pre; opacity: 1;" transform="translate(519.199230096238,0) rotate(22,0,221.52818356966603)">17:00:00</text></g><g class="xtick"><text text-anchor="start" x="0" y="227.02818356966603" style="font-family: sans-serif; font-size: 11px; fill: rgb(0, 0, 0); fill-opacity: 1; white-space: pre; opacity: 1;" transform="translate(544.819230096238,0) rotate(22,0,221.52818356966603)">18:00:00</text></g><g class="xtick"><text text-anchor="start" x="0" y="227.02818356966603" style="font-family: sans-serif; font-size: 11px; fill: rgb(0, 0, 0); fill-opacity: 1; white-space: pre; opacity: 1;" transform="translate(570.4392300962379,0) rotate(22,0,221.52818356966603)">19:00:00</text></g><g class="xtick"><text text-anchor="start" x="0" y="227.02818356966603" style="font-family: sans-serif; font-size: 11px; fill: rgb(0, 0, 0); fill-opacity: 1; white-space: pre; opacity: 1;" transform="translate(596.0492300962379,0) rotate(22,0,221.52818356966603)">20:00:00</text></g><g class="xtick"><text text-anchor="start" x="0" y="227.02818356966603" style="font-family: sans-serif; font-size: 11px; fill: rgb(0, 0, 0); fill-opacity: 1; white-space: pre; opacity: 1;" transform="translate(621.6692300962379,0) rotate(22,0,221.52818356966603)">21:00:00</text></g><g class="xtick"><text text-anchor="start" x="0" y="227.02818356966603" style="font-family: sans-serif; font-size: 11px; fill: rgb(0, 0, 0); fill-opacity: 1; white-space: pre; opacity: 1;" transform="translate(647.2892300962379,0) rotate(22,0,221.52818356966603)">22:00:00</text></g><g class="xtick"><text text-anchor="start" x="0" y="227.02818356966603" style="font-family: sans-serif; font-size: 11px; fill: rgb(0, 0, 0); fill-opacity: 1; white-space: pre; opacity: 1;" transform="translate(672.9092300962379,0) rotate(22,0,221.52818356966603)">23:00:00</text></g><g class="xtick"><text text-anchor="start" x="0" y="227.02818356966603" style="font-family: sans-serif; font-size: 11px; fill: rgb(0, 0, 0); fill-opacity: 1; white-space: pre; opacity: 0;" transform="translate(698.519230096238,0) rotate(22,0,221.52818356966603)">2022-10-28 00:00:00</text></g></g><g class="yaxislayer-above"><path class="ytick ticks crisp" d="M66.15923009623796,0h5" transform="translate(0,198.11392534266548)" style="stroke: rgb(0, 0, 0); stroke-opacity: 1; stroke-width: 1px;"/><path class="ytick ticks crisp" d="M66.15923009623796,0h5" transform="translate(0,162.33392534266548)" style="stroke: rgb(0, 0, 0); stroke-opacity: 1; stroke-width: 1px;"/><path class="ytick ticks crisp" d="M66.15923009623796,0h5" transform="translate(0,126.54392534266549)" style="stroke: rgb(0, 0, 0); stroke-opacity: 1; stroke-width: 1px;"/><path class="ytick ticks crisp" d="M66.15923009623796,0h5" transform="translate(0,90.76392534266549)" style="stroke: rgb(0, 0, 0); stroke-opacity: 1; stroke-width: 1px;"/><path class="ytick ticks crisp" d="M66.15923009623796,0h5" transform="translate(0,54.97392534266549)" style="stroke: rgb(0, 0, 0); stroke-opacity: 1; stroke-width: 1px;"/><g class="ytick"><text text-anchor="end" x="62.95923009623796" y="3.8499999999999996" transform="translate(0,198.11392534266548)" style="font-family: sans-serif; font-size: 11px; fill: rgb(0, 0, 0); fill-opacity: 1; white-space: pre; opacity: 1;">10^2.50</text></g><g class="ytick"><text text-anchor="end" x="62.95923009623796" y="3.8499999999999996" style="font-family: sans-serif; font-size: 11px; fill: rgb(0, 0, 0); fill-opacity: 1; white-space: pre; opacity: 1;" transform="translate(0,162.33392534266548)">10^2.75</text></g><g class="ytick"><text text-anchor="end" x="62.95923009623796" y="3.8499999999999996" style="font-family: sans-serif; font-size: 11px; fill: rgb(0, 0, 0); fill-opacity: 1; white-space: pre; opacity: 1;" transform="translate(0,126.54392534266549)">10^3.00</text></g><g class="ytick"><text text-anchor="end" x="62.95923009623796" y="3.8499999999999996" style="font-family: sans-serif; font-size: 11px; fill: rgb(0, 0, 0); fill-opacity: 1; white-space: pre; opacity: 1;" transform="translate(0,90.76392534266549)">10^3.25</text></g><g class="ytick"><text text-anchor="end" x="62.95923009623796" y="3.8499999999999996" style="font-family: sans-serif; font-size: 11px; fill: rgb(0, 0, 0); fill-opacity: 1; white-space: pre; opacity: 1;" transform="translate(0,54.97392534266549)">10^3.50</text></g></g><g class="overaxes-above"/></g></g><g class="polarlayer"/><g class="ternarylayer"/><g class="geolayer"/><g class="funnelarealayer"/><g class="pielayer"/><g class="iciclelayer"/><g class="treemaplayer"/><g class="sunburstlayer"/><g class="glimages"/><defs id="topdefs-613536"><g class="clips"/></defs><g class="layer-above"><g class="imagelayer"/><g class="shapelayer"/></g><g class="infolayer"><g class="g-gtitle"/><g class="g-xtitle"/><g class="g-ytitle"/><g class="annotation" data-index="0" style="opacity: 1;"><g class="annotation-text-g" transform="rotate(0,391.1111111111111,33.500000000000014)"><g class="cursor-pointer" transform="translate(169,20)"><rect class="bg" x="0.5" y="0.5" width="443" height="26" style="stroke-width: 1px; stroke: rgb(0, 0, 0); stroke-opacity: 0; fill: rgb(0, 0, 0); fill-opacity: 0;"/><text class="annotation-text" text-anchor="middle" x="221.9560546875" y="20.3251953125" style="font-family: sans-serif; font-size: 20px; fill: rgb(0, 0, 0); fill-opacity: 1; white-space: pre;">2022-10-27 | mdt | compute | l_open | unit/second</text></g></g></g></g></svg>