<svg class="main-svg" xmlns="http://www.w3.org/2000/svg" xmlns:xlink="http://www.w3.org/1999/xlink" width="720" height="360" style=""><rect x="0" y="0" width="720" height="360" style="fill: rgb(255, 255, 255); fill-opacity: 1;"/><defs id="defs-8d594d"><g class="clips"><clipPath id="clip8d594dxyplot" class="plotclip"><rect width="607.9593175853017" height="91.12993398883454"/></clipPath><clipPath id="clip8d594dxy2plot" class="plotclip"><rect width="607.9593175853017" height="91.1299339888345"/></clipPath><clipPath class="axesclip" id="clip8d594dx"><rect x="108.10367454068242" y="0" width="607.9593175853017" height="360"/></clipPath><clipPath class="axesclip" id="clip8d594dy"><rect x="0" y="35.84524156702635" width="720" height="91.12993398883454"/></clipPath><clipPath class="axesclip" id="clip8d594dxy"><rect x="108.10367454068242" y="35.84524156702635" width="607.9593175853017" height="91.12993398883454"/></clipPath><clipPath class="axesclip" id="clip8d594dy2"><rect x="0" y="172.24590560349384" width="720" height="91.1299339888345"/></clipPath><clipPath class="axesclip" id="clip8d594dxy2"><rect x="108.10367454068242" y="172.24590560349384" width="607.9593175853017" height="91.1299339888345"/></clipPath></g><g class="gradients"/><g class="patterns"/></defs><g class="bglayer"/><g class="layer-below"><g class="imagelayer"/><g class="shapelayer"/></g><g class="cartesianlayer"><g class="subplot xy"><g class="layer-subplot"><g class="shapelayer"/><g class="imagelayer"/></g><g class="gridlayer"><g class="x"><path class="xgrid crisp" transform="translate(125.31367454068243,0)" d="M0,35.84524156702635v91.12993398883454" style="stroke: rgb(0, 0, 0); stroke-opacity: 0.1; stroke-width: 0.5px;"/><path class="xgrid crisp" transform="translate(149.2036745406824,0)" d="M0,35.84524156702635v91.12993398883454" style="stroke: rgb(0, 0, 0); stroke-opacity: 0.1; stroke-width: 0.5px;"/><path class="xgrid crisp" transform="translate(173.10367454068242,0)" d="M0,35.84524156702635v91.12993398883454" style="stroke: rgb(0, 0, 0); stroke-opacity: 0.1; stroke-width: 0.5px;"/><path class="xgrid crisp" transform="translate(197.00367454068243,0)" d="M0,35.84524156702635v91.12993398883454" style="stroke: rgb(0, 0, 0); stroke-opacity: 0.1; stroke-width: 0.5px;"/><path class="xgrid crisp" transform="translate(220.9036745406824,0)" d="M0,35.84524156702635v91.12993398883454" style="stroke: rgb(0, 0, 0); stroke-opacity: 0.1; stroke-width: 0.5px;"/><path class="xgrid crisp" transform="translate(244.8036745406824,0)" d="M0,35.84524156702635v91.12993398883454" style="stroke: rgb(0, 0, 0); stroke-opacity: 0.1; stroke-width: 0.5px;"/><path class="xgrid crisp" transform="translate(268.6936745406824,0)" d="M0,35.84524156702635v91.12993398883454" style="stroke: rgb(0, 0, 0); stroke-opacity: 0.1; stroke-width: 0.5px;"/><path class="xgrid crisp" transform="translate(292.5936745406824,0)" d="M0,35.84524156702635v91.12993398883454" style="stroke: rgb(0, 0, 0); stroke-opacity: 0.1; stroke-width: 0.5px;"/><path class="xgrid crisp" transform="translate(316.4936745406824,0)" d="M0,35.84524156702635v91.12993398883454" style="stroke: rgb(0, 0, 0); stroke-opacity: 0.1; stroke-width: 0.5px;"/><path class="xgrid crisp" transform="translate(340.3936745406824,0)" d="M0,35.84524156702635v91.12993398883454" style="stroke: rgb(0, 0, 0); stroke-opacity: 0.1; stroke-width: 0.5px;"/><path class="xgrid crisp" transform="translate(364.28367454068245,0)" d="M0,35.84524156702635v91.12993398883454" style="stroke: rgb(0, 0, 0); stroke-opacity: 0.1; stroke-width: 0.5px;"/><path class="xgrid crisp" transform="translate(388.18367454068243,0)" d="M0,35.84524156702635v91.12993398883454" style="stroke: rgb(0, 0, 0); stroke-opacity: 0.1; stroke-width: 0.5px;"/><path class="xgrid crisp" transform="translate(412.0836745406824,0)" d="M0,35.84524156702635v91.12993398883454" style="stroke: rgb(0, 0, 0); stroke-opacity: 0.1; stroke-width: 0.5px;"/><path class="xgrid crisp" transform="translate(435.9836745406824,0)" d="M0,35.84524156702635v91.12993398883454" style="stroke: rgb(0, 0, 0); stroke-opacity: 0.1; stroke-width: 0.5px;"/><path class="xgrid crisp" transform="translate(459.88367454068236,0)" d="M0,35.84524156702635v91.12993398883454" style="stroke: rgb(0, 0, 0); stroke-opacity: 0.1; stroke-width: 0.5px;"/><path class="xgrid crisp" transform="translate(483.77367454068246,0)" d="M0,35.84524156702635v91.12993398883454" style="stroke: rgb(0, 0, 0); stroke-opacity: 0.1; stroke-width: 0.5px;"/><path class="xgrid crisp" transform="translate(507.67367454068244,0)" d="M0,35.84524156702635v91.12993398883454" style="stroke: rgb(0, 0, 0); stroke-opacity: 0.1; stroke-width: 0.5px;"/><path class="xgrid crisp" transform="translate(531.5736745406824,0)" d="M0,35.84524156702635v91.12993398883454" style="stroke: rgb(0, 0, 0); stroke-opacity: 0.1; stroke-width: 0.5px;"/><path class="xgrid crisp" transform="translate(555.4736745406824,0)" d="M0,35.84524156702635v91.12993398883454" style="stroke: rgb(0, 0, 0); stroke-opacity: 0.1; stroke-width: 0.5px;"/><path class="xgrid crisp" transform="translate(579.3636745406824,0)" d="M0,35.84524156702635v91.12993398883454" style="stroke: rgb(0, 0, 0); stroke-opacity: 0.1; stroke-width: 0.5px;"/><path class="xgrid crisp" transform="translate(603.2636745406825,0)" d="M0,35.84524156702635v91.12993398883454" style="stroke: rgb(0, 0, 0); stroke-opacity: 0.1; stroke-width: 0.5px;"/><path class="xgrid crisp" transform="translate(627.1636745406823,0)" d="M0,35.84524156702635v91.12993398883454" style="stroke: rgb(0, 0, 0); stroke-opacity: 0.1; stroke-width: 0.5px;"/><path class="xgrid crisp" transform="translate(651.0636745406824,0)" d="M0,35.84524156702635v91.12993398883454" style="stroke: rgb(0, 0, 0); stroke-opacity: 0.1; stroke-width: 0.5px;"/><path class="xgrid crisp" transform="translate(674.9636745406824,0)" d="M0,35.84524156702635v91.12993398883454" style="stroke: rgb(0, 0, 0); stroke-opacity: 0.1; stroke-width: 0.5px;"/><path class="xgrid crisp" transform="translate(698.8536745406824,0)" d="M0,35.84524156702635v91.12993398883454" style="stroke: rgb(0, 0, 0); stroke-opacity: 0.1; stroke-width: 0.5px;"/></g><g class="y"><path class="ygrid crisp" transform="translate(0,124.39524156702635)" d="M108.10367454068242,0h607.9593175853017" style="stroke: rgb(0, 0, 0); stroke-opacity: 0.1; stroke-width: 0.5px;"/><path class="ygrid crisp" transform="translate(0,106.18524156702635)" d="M108.10367454068242,0h607.9593175853017" style="stroke: rgb(0, 0, 0); stroke-opacity: 0.1; stroke-width: 0.5px;"/><path class="ygrid crisp" transform="translate(0,87.96524156702634)" d="M108.10367454068242,0h607.9593175853017" style="stroke: rgb(0, 0, 0); stroke-opacity: 0.1; stroke-width: 0.5px;"/><path class="ygrid crisp" transform="translate(0,69.75524156702635)" d="M108.10367454068242,0h607.9593175853017" style="stroke: rgb(0, 0, 0); stroke-opacity: 0.1; stroke-width: 0.5px;"/><path class="ygrid crisp" transform="translate(0,51.53524156702635)" d="M108.10367454068242,0h607.9593175853017" style="stroke: rgb(0, 0, 0); stroke-opacity: 0.1; stroke-width: 0.5px;"/></g></g><g class="zerolinelayer"/><path class="xlines-below"/><path class="ylines-below"/><g class="overlines-below"/><g class="xaxislayer-below"/><g class="yaxislayer-below"/><g class="overaxes-below"/><g class="plot" transform="translate(108.10367454068242,35.84524156702635)" clip-path="url(#clip8d594dxyplot)"><g class="scatterlayer mlayer"><g class="trace scatter trace9519d1" style="stroke-miterlimit: 2; opacity: 1;"><g class="fills"/><g class="errorbars"/><g class="lines"><path class="js-line" d="M17.39,88.55L582.6,88.55" style="vector-effect: non-scaling-stroke; fill: none; stroke: rgb(0, 154, 250); stroke-opacity: 1; stroke-width: 1px; opacity: 1;"/></g><g class="points"/><g class="text"/></g><g class="trace scatter trace31b9a9" style="stroke-miterlimit: 2; opacity: 1;"><g class="fills"/><g class="errorbars"/><g class="lines"><path class="js-line" d="M17.89,67.25L123.84,66.79L123.84,66.79L124.72,66.79L300.67,66.04L300.67,66.03L482.36,65.28L482.36,65.27L590.67,64.81" style="vector-effect: non-scaling-stroke; fill: none; stroke: rgb(227, 111, 71); stroke-opacity: 1; stroke-width: 1px; opacity: 1;"/></g><g class="points"/><g class="text"/></g><g class="trace scatter trace028518" style="stroke-miterlimit: 2; opacity: 1;"><g class="fills"/><g class="errorbars"/><g class="lines"><path class="js-line" d="M17.89,67.66L197.91,66.91L197.91,66.9L382.8,66.15L382.8,66.14L564.37,65.39L564.37,65.38L590.67,65.28" style="vector-effect: non-scaling-stroke; fill: none; stroke: rgb(62, 164, 78); stroke-opacity: 1; stroke-width: 1px; opacity: 1;"/></g><g class="points"/><g class="text"/></g><g class="trace scatter trace6fecae" style="stroke-miterlimit: 2; opacity: 1;"><g class="fills"/><g class="errorbars"/><g class="lines"><path class="js-line" d="M18,12.61L166.95,9.94L166.95,9.92L209.17,9.18L209.17,9.16L252.19,8.41L252.19,8.39L294.41,7.65L294.41,7.64L342.18,6.89L342.18,6.88L389.2,6.13L389.2,6.11L436.2,5.36L436.2,5.34L478.41,4.6L478.41,4.58L521.44,3.83L521.44,3.81L563.66,3.07L563.66,3.05L590.74,2.58" style="vector-effect: non-scaling-stroke; fill: none; stroke: rgb(195, 113, 210); stroke-opacity: 1; stroke-width: 1px; opacity: 1;"/></g><g class="points"/><g class="text"/></g><g class="trace scatter tracec8ab80" style="stroke-miterlimit: 2; opacity: 1;"><g class="fills"/><g class="errorbars"/><g class="lines"><path class="js-line" d="M23.1,88.55L363.66,88.55" style="vector-effect: non-scaling-stroke; fill: none; stroke: rgb(172, 142, 24); stroke-opacity: 1; stroke-width: 1px; opacity: 1;"/></g><g class="points"/><g class="text"/></g><g class="trace scatter traced2b1fe" style="stroke-miterlimit: 2; opacity: 1;"><g class="fills"/><g class="errorbars"/><g class="lines"><path class="js-line" d="M23.13,88.55L590.67,88.55" style="vector-effect: non-scaling-stroke; fill: none; stroke: rgb(0, 170, 174); stroke-opacity: 1; stroke-width: 1px; opacity: 1;"/></g><g class="points"/><g class="text"/></g><g class="trace scatter tracecfa953" style="stroke-miterlimit: 2; opacity: 1;"><g class="fills"/><g class="errorbars"/><g class="lines"><path class="js-line" d="M33.28,88.55L578.74,88.55" style="vector-effect: non-scaling-stroke; fill: none; stroke: rgb(237, 94, 147); stroke-opacity: 1; stroke-width: 1px; opacity: 1;"/></g><g class="points"/><g class="text"/></g><g class="trace scatter trace057285" style="stroke-miterlimit: 2; opacity: 1;"><g class="fills"/><g class="errorbars"/><g class="lines"><path class="js-line" d="M33.28,88.55L587.43,88.55" style="vector-effect: non-scaling-stroke; fill: none; stroke: rgb(198, 130, 37); stroke-opacity: 1; stroke-width: 1px; opacity: 1;"/></g><g class="points"/><g class="text"/></g><g class="trace scatter tracefaa143" style="stroke-miterlimit: 2; opacity: 1;"><g class="fills"/><g class="errorbars"/><g class="lines"><path class="js-line" d="M33.28,88.55L542.13,88.55" style="vector-effect: non-scaling-stroke; fill: none; stroke: rgb(0, 169, 141); stroke-opacity: 1; stroke-width: 1px; opacity: 1;"/></g><g class="points"/><g class="text"/></g><g class="trace scatter trace9d05f0" style="stroke-miterlimit: 2; opacity: 1;"><g class="fills"/><g class="errorbars"/><g class="lines"><path class="js-line" d="M33.62,88.55L574.19,88.55" style="vector-effect: non-scaling-stroke; fill: none; stroke: rgb(142, 151, 30); stroke-opacity: 1; stroke-width: 1px; opacity: 1;"/></g><g class="points"/><g class="text"/></g><g class="trace scatter trace7bf073" style="stroke-miterlimit: 2; opacity: 1;"><g class="fills"/><g class="errorbars"/><g class="lines"><path class="js-line" d="M59.29,88.55L574.16,88.55" style="vector-effect: non-scaling-stroke; fill: none; stroke: rgb(0, 169, 204); stroke-opacity: 1; stroke-width: 1px; opacity: 1;"/></g><g class="points"/><g class="text"/></g><g class="trace scatter trace5111b8" style="stroke-miterlimit: 2; opacity: 1;"><g class="fills"/><g class="errorbars"/><g class="lines"><path class="js-line" d="M85.22,88.55L557.55,88.55" style="vector-effect: non-scaling-stroke; fill: none; stroke: rgb(155, 127, 233); stroke-opacity: 1; stroke-width: 1px; opacity: 1;"/></g><g class="points"/><g class="text"/></g></g></g><g class="overplot"/><path class="xlines-above crisp" d="M0,0" style="fill: none;"/><path class="ylines-above crisp" d="M107.60367454068242,35.84524156702635V126.97517555586089" style="fill: none; stroke-width: 1px; stroke: rgb(0, 0, 0); stroke-opacity: 1;"/><g class="overlines-above"/><g class="xaxislayer-above"/><g class="yaxislayer-above"><path class="ytick ticks crisp" d="M108.10367454068242,0h5" transform="translate(0,124.39524156702635)" style="stroke: rgb(0, 0, 0); stroke-opacity: 1; stroke-width: 1px;"/><path class="ytick ticks crisp" d="M108.10367454068242,0h5" transform="translate(0,106.18524156702635)" style="stroke: rgb(0, 0, 0); stroke-opacity: 1; stroke-width: 1px;"/><path class="ytick ticks crisp" d="M108.10367454068242,0h5" transform="translate(0,87.96524156702634)" style="stroke: rgb(0, 0, 0); stroke-opacity: 1; stroke-width: 1px;"/><path class="ytick ticks crisp" d="M108.10367454068242,0h5" transform="translate(0,69.75524156702635)" style="stroke: rgb(0, 0, 0); stroke-opacity: 1; stroke-width: 1px;"/><path class="ytick ticks crisp" d="M108.10367454068242,0h5" transform="translate(0,51.53524156702635)" style="stroke: rgb(0, 0, 0); stroke-opacity: 1; stroke-width: 1px;"/><g class="ytick"><text text-anchor="end" x="104.30367454068242" y="4.8999999999999995" transform="translate(0,124.39524156702635)" style="font-family: sans-serif; font-size: 14px; fill: rgb(0, 0, 0); fill-opacity: 1; white-space: pre; opacity: 1;">0</text></g><g class="ytick"><text text-anchor="end" x="104.30367454068242" y="4.8999999999999995" style="font-family: sans-serif; font-size: 14px; fill: rgb(0, 0, 0); fill-opacity: 1; white-space: pre; opacity: 1;" transform="translate(0,106.18524156702635)">3.00×10⁴</text></g><g class="ytick"><text text-anchor="end" x="104.30367454068242" y="4.8999999999999995" style="font-family: sans-serif; font-size: 14px; fill: rgb(0, 0, 0); fill-opacity: 1; white-space: pre; opacity: 1;" transform="translate(0,87.96524156702634)">6.00×10⁴</text></g><g class="ytick"><text text-anchor="end" x="104.30367454068242" y="4.8999999999999995" style="font-family: sans-serif; font-size: 14px; fill: rgb(0, 0, 0); fill-opacity: 1; white-space: pre; opacity: 1;" transform="translate(0,69.75524156702635)">9.00×10⁴</text></g><g class="ytick"><text text-anchor="end" x="104.30367454068242" y="4.8999999999999995" style="font-family: sans-serif; font-size: 14px; fill: rgb(0, 0, 0); fill-opacity: 1; white-space: pre; opacity: 1;" transform="translate(0,51.53524156702635)">1.20×10⁵</text></g></g><g class="overaxes-above"/></g><g class="subplot xy2"><g class="layer-subplot"><g class="shapelayer"/><g class="imagelayer"/></g><g class="gridlayer"><g class="x"><path class="xgrid crisp" transform="translate(125.31367454068243,0)" d="M0,172.24590560349384v91.1299339888345" style="stroke: rgb(0, 0, 0); stroke-opacity: 0.1; stroke-width: 0.5px;"/><path class="xgrid crisp" transform="translate(149.2036745406824,0)" d="M0,172.24590560349384v91.1299339888345" style="stroke: rgb(0, 0, 0); stroke-opacity: 0.1; stroke-width: 0.5px;"/><path class="xgrid crisp" transform="translate(173.10367454068242,0)" d="M0,172.24590560349384v91.1299339888345" style="stroke: rgb(0, 0, 0); stroke-opacity: 0.1; stroke-width: 0.5px;"/><path class="xgrid crisp" transform="translate(197.00367454068243,0)" d="M0,172.24590560349384v91.1299339888345" style="stroke: rgb(0, 0, 0); stroke-opacity: 0.1; stroke-width: 0.5px;"/><path class="xgrid crisp" transform="translate(220.9036745406824,0)" d="M0,172.24590560349384v91.1299339888345" style="stroke: rgb(0, 0, 0); stroke-opacity: 0.1; stroke-width: 0.5px;"/><path class="xgrid crisp" transform="translate(244.8036745406824,0)" d="M0,172.24590560349384v91.1299339888345" style="stroke: rgb(0, 0, 0); stroke-opacity: 0.1; stroke-width: 0.5px;"/><path class="xgrid crisp" transform="translate(268.6936745406824,0)" d="M0,172.24590560349384v91.1299339888345" style="stroke: rgb(0, 0, 0); stroke-opacity: 0.1; stroke-width: 0.5px;"/><path class="xgrid crisp" transform="translate(292.5936745406824,0)" d="M0,172.24590560349384v91.1299339888345" style="stroke: rgb(0, 0, 0); stroke-opacity: 0.1; stroke-width: 0.5px;"/><path class="xgrid crisp" transform="translate(316.4936745406824,0)" d="M0,172.24590560349384v91.1299339888345" style="stroke: rgb(0, 0, 0); stroke-opacity: 0.1; stroke-width: 0.5px;"/><path class="xgrid crisp" transform="translate(340.3936745406824,0)" d="M0,172.24590560349384v91.1299339888345" style="stroke: rgb(0, 0, 0); stroke-opacity: 0.1; stroke-width: 0.5px;"/><path class="xgrid crisp" transform="translate(364.28367454068245,0)" d="M0,172.24590560349384v91.1299339888345" style="stroke: rgb(0, 0, 0); stroke-opacity: 0.1; stroke-width: 0.5px;"/><path class="xgrid crisp" transform="translate(388.18367454068243,0)" d="M0,172.24590560349384v91.1299339888345" style="stroke: rgb(0, 0, 0); stroke-opacity: 0.1; stroke-width: 0.5px;"/><path class="xgrid crisp" transform="translate(412.0836745406824,0)" d="M0,172.24590560349384v91.1299339888345" style="stroke: rgb(0, 0, 0); stroke-opacity: 0.1; stroke-width: 0.5px;"/><path class="xgrid crisp" transform="translate(435.9836745406824,0)" d="M0,172.24590560349384v91.1299339888345" style="stroke: rgb(0, 0, 0); stroke-opacity: 0.1; stroke-width: 0.5px;"/><path class="xgrid crisp" transform="translate(459.88367454068236,0)" d="M0,172.24590560349384v91.1299339888345" style="stroke: rgb(0, 0, 0); stroke-opacity: 0.1; stroke-width: 0.5px;"/><path class="xgrid crisp" transform="translate(483.77367454068246,0)" d="M0,172.24590560349384v91.1299339888345" style="stroke: rgb(0, 0, 0); stroke-opacity: 0.1; stroke-width: 0.5px;"/><path class="xgrid crisp" transform="translate(507.67367454068244,0)" d="M0,172.24590560349384v91.1299339888345" style="stroke: rgb(0, 0, 0); stroke-opacity: 0.1; stroke-width: 0.5px;"/><path class="xgrid crisp" transform="translate(531.5736745406824,0)" d="M0,172.24590560349384v91.1299339888345" style="stroke: rgb(0, 0, 0); stroke-opacity: 0.1; stroke-width: 0.5px;"/><path class="xgrid crisp" transform="translate(555.4736745406824,0)" d="M0,172.24590560349384v91.1299339888345" style="stroke: rgb(0, 0, 0); stroke-opacity: 0.1; stroke-width: 0.5px;"/><path class="xgrid crisp" transform="translate(579.3636745406824,0)" d="M0,172.24590560349384v91.1299339888345" style="stroke: rgb(0, 0, 0); stroke-opacity: 0.1; stroke-width: 0.5px;"/><path class="xgrid crisp" transform="translate(603.2636745406825,0)" d="M0,172.24590560349384v91.1299339888345" style="stroke: rgb(0, 0, 0); stroke-opacity: 0.1; stroke-width: 0.5px;"/><path class="xgrid crisp" transform="translate(627.1636745406823,0)" d="M0,172.24590560349384v91.1299339888345" style="stroke: rgb(0, 0, 0); stroke-opacity: 0.1; stroke-width: 0.5px;"/><path class="xgrid crisp" transform="translate(651.0636745406824,0)" d="M0,172.24590560349384v91.1299339888345" style="stroke: rgb(0, 0, 0); stroke-opacity: 0.1; stroke-width: 0.5px;"/><path class="xgrid crisp" transform="translate(674.9636745406824,0)" d="M0,172.24590560349384v91.1299339888345" style="stroke: rgb(0, 0, 0); stroke-opacity: 0.1; stroke-width: 0.5px;"/><path class="xgrid crisp" transform="translate(698.8536745406824,0)" d="M0,172.24590560349384v91.1299339888345" style="stroke: rgb(0, 0, 0); stroke-opacity: 0.1; stroke-width: 0.5px;"/></g><g class="y2"><path class="y2grid crisp" transform="translate(0,260.79590560349385)" d="M108.10367454068242,0h607.9593175853017" style="stroke: rgb(0, 0, 0); stroke-opacity: 0.1; stroke-width: 0.5px;"/><path class="y2grid crisp" transform="translate(0,241.23590560349385)" d="M108.10367454068242,0h607.9593175853017" style="stroke: rgb(0, 0, 0); stroke-opacity: 0.1; stroke-width: 0.5px;"/><path class="y2grid crisp" transform="translate(0,221.66590560349385)" d="M108.10367454068242,0h607.9593175853017" style="stroke: rgb(0, 0, 0); stroke-opacity: 0.1; stroke-width: 0.5px;"/><path class="y2grid crisp" transform="translate(0,202.10590560349385)" d="M108.10367454068242,0h607.9593175853017" style="stroke: rgb(0, 0, 0); stroke-opacity: 0.1; stroke-width: 0.5px;"/><path class="y2grid crisp" transform="translate(0,182.53590560349383)" d="M108.10367454068242,0h607.9593175853017" style="stroke: rgb(0, 0, 0); stroke-opacity: 0.1; stroke-width: 0.5px;"/></g></g><g class="zerolinelayer"/><path class="xlines-below"/><path class="ylines-below"/><g class="overlines-below"/><g class="xaxislayer-below"/><g class="yaxislayer-below"/><g class="overaxes-below"/><g class="plot" transform="translate(108.10367454068242,172.24590560349384)" clip-path="url(#clip8d594dxy2plot)"><g class="scatterlayer mlayer"><g class="trace scatter trace7ae855" style="stroke-miterlimit: 2; opacity: 1;"><g class="fills"/><g class="errorbars"/><g class="lines"><path class="js-line" d="M17.21,88.55L95.27,88.42L95.27,87.63L100.85,87.69L100.85,88.55L211.57,88.4L211.57,86.69L213.96,86.69L213.96,87.77L214.76,87.77L214.76,88.55L339.03,88.37L339.03,86.33L339.83,86.33L339.83,87.35L340.62,87.35L340.62,88.55L582.79,88.55L582.79,88.55" style="vector-effect: non-scaling-stroke; fill: none; stroke: rgb(0, 154, 250); stroke-opacity: 1; stroke-width: 1px; opacity: 1;"/></g><g class="points"/><g class="text"/></g><g class="trace scatter tracedbba84" style="stroke-miterlimit: 2; opacity: 1;"><g class="fills"/><g class="errorbars"/><g class="lines"><path class="js-line" d="M17.21,86.05L18,86.05L18,70.88L23.58,70.27L23.58,71.12L24.38,71.12L24.38,70.21L28.36,70.77L28.36,68.02L29.16,68.02L29.16,70.21L33.93,70.41L33.93,70.06L34.73,70.06L34.73,67.92L35.53,67.92L35.53,70.27L36.32,70.27L36.32,71.12L37.12,71.12L37.12,70.21L39.51,70.88L39.51,70.06L40.31,70.06L40.31,68.06L41.1,68.06L41.1,70.5L45.88,70.89L45.88,70.13L46.68,70.13L46.68,67.99L47.48,67.99L47.48,70.26L49.07,70.27L49.07,71.12L49.87,71.12L49.87,70.21L52.26,70.75L52.26,68.17L53.05,68.17L53.05,70.08L54.65,70.5L54.65,70.88L57.04,70.29L57.04,71.1L57.83,71.1L57.83,70.05L58.63,70.05L58.63,68.08L59.43,68.08L59.43,70.22L63.41,70.88L63.41,70.06L64.21,70.06L64.21,68.05L65,68.05L65,70.26L66.6,70.29L66.6,71.09L67.39,71.09L67.39,70.23L70.58,70.21L70.58,67.78L71.37,67.78L71.37,70.51L75.36,70.94L75.36,70.08L76.15,70.08L76.15,68.87L77.75,69.45L77.75,70.95L79.34,70.29L79.34,71.09L80.14,71.09L80.14,70.29L80.93,70.29L80.93,71.19L82.53,70.79L82.53,67.09L83.32,67.09L83.32,70.28L84.12,70.28L84.12,71.11L84.92,71.11L84.92,70.27L85.71,70.27L85.71,71.12L86.51,71.12L86.51,70.25L88.1,70.62L88.1,67.36L88.9,67.36L88.9,71.13L89.7,71.13L89.7,70.25L90.49,70.25L90.49,71.13L91.29,71.13L91.29,70.24L94.48,70.86L94.48,67.25L95.27,67.25L95.27,71.02L100.05,70.69L100.05,67.36L100.85,67.36L100.85,70.4L103.24,70.97L103.24,70.27L104.03,70.27L104.03,71.12L104.83,71.12L104.83,70.25L107.22,70.26L107.22,71.13L108.02,71.13L108.02,70.25L108.81,70.25L108.81,71.22L110.41,70.94L110.41,70.31L112,70.72L112,68.12L112.8,68.12L112.8,71.13L113.59,71.13L113.59,70.25L114.39,70.25L114.39,71.1L115.98,71.07L115.98,70.31L116.78,70.31L116.78,71.07L117.58,71.07L117.58,69.97L118.37,69.97L118.37,68.11L119.17,68.11L119.17,70.88L123.15,70.88L123.15,69.94L123.95,69.94L123.95,68.07L124.75,68.07L124.75,71.16L127.14,70.85L127.14,70.39L130.32,70.58L130.32,67.42L131.12,67.42L131.12,70.98L135.1,70.86L135.1,69.91L135.9,69.91L135.9,68.23L136.7,68.23L136.7,70.5L141.47,70.29L141.47,71.1L142.27,71.1L142.27,70.28L143.07,70.28L143.07,71.11L143.86,71.11L143.86,70.26L146.25,70.27L146.25,71.12L147.05,71.12L147.05,70.1L147.85,70.1L147.85,68.17L148.64,68.17L148.64,70.07L150.24,70.36L150.24,70.88L154.22,70.76L154.22,67.36L155.02,67.36L155.02,70.89L159.8,70.62L159.8,67.36L160.59,67.36L160.59,71.13L161.39,71.13L161.39,70.22L165.37,70.88L165.37,70.1L166.17,70.1L166.17,68.02L166.97,68.02L166.97,70.49L171.75,70.87L171.75,67.39L172.54,67.39L172.54,70.76L174.93,71.07L174.93,70.3L177.32,70.23L177.32,69.94L178.12,69.94L178.12,68.18L178.91,68.18L178.91,70.52L183.69,70.72L183.69,68.6L184.49,68.6L184.49,69.72L185.29,69.72L185.29,71.31L186.88,71.59L186.88,70.29L187.68,70.29L187.68,71.09L188.47,71.09L188.47,70.23L190.07,70L190.07,68.11L190.86,68.11L190.86,70.38L195.64,70.75L195.64,68.15L196.44,68.15L196.44,69.94L198.03,70.5L198.03,70.91L199.63,71.13L199.63,70.24L201.22,70.99L201.22,70.13L202.02,70.13L202.02,68L202.81,68L202.81,70.23L203.61,70.23L203.61,71L204.41,71L204.41,70.23L205.2,70.23L205.2,71.15L206,71.15L206,70.23L206.8,70.23L206.8,71.03L207.59,71.03L207.59,68.58L208.39,68.58L208.39,69.52L209.98,70.22L209.98,71.18L213.17,71.12L213.17,70.03L213.96,70.03L213.96,67.29L214.76,67.29L214.76,70.92L217.15,70.9L217.15,70.42L219.54,70.71L219.54,69L221.13,69.27L221.13,70.52L223.52,70.22L223.52,71.01L224.32,71.01L224.32,70.23L225.91,70.93L225.91,67.19L226.71,67.19L226.71,71.18L227.51,71.18L227.51,70.4L231.49,70.46L231.49,67.53L232.29,67.53L232.29,71.1L234.68,70.69L234.68,71.13L237.86,70.44L237.86,67.98L238.66,67.98L238.66,70.54L240.25,71.22L240.25,70.37L242.64,71.12L242.64,69.92L243.44,69.92L243.44,68.21L244.24,68.21L244.24,70.4L245.83,70.27L245.83,71.07L249.81,70.84L249.81,67.4L250.61,67.4L250.61,70.51L252.2,71.03L252.2,71.49L253,71.49L253,70.64L254.59,70.88L254.59,70.1L255.39,70.1L255.39,68.02L256.18,68.02L256.18,70.49L261.76,70.72L261.76,67.35L262.56,67.35L262.56,71.33L263.35,71.33L263.35,70.51L266.54,70.88L266.54,70.1L267.34,70.1L267.34,68.02L268.13,68.02L268.13,70.49L273.71,70.52L273.71,67.62L274.51,67.62L274.51,70.98L276.1,70.35L276.1,71.2L278.49,70.88L278.49,69.99L279.29,69.99L279.29,67.57L280.08,67.57L280.08,71.06L284.06,71.16L284.06,70.22L285.66,70.93L285.66,67.38L286.45,67.38L286.45,71L288.84,70.3L288.84,71.12L290.44,70.49L290.44,70.05L291.23,70.05L291.23,68.23L292.03,68.23L292.03,70.52L295.22,70.28L295.22,71.11L296.01,71.11L296.01,70.26L297.61,70.59L297.61,67.34L298.4,67.34L298.4,70.53L303.18,70.55L303.18,67.74L303.98,67.74L303.98,70.76L312.74,70.95L312.74,71.23L313.54,71.23L313.54,70.42L315.13,70.8L315.13,68.02L315.93,68.02L315.93,70.42L317.52,70.4L317.52,71.28L318.32,71.28L318.32,70.36L320.71,71.06L320.71,69.94L321.5,69.94L321.5,68.23L322.3,68.23L322.3,70.55L324.69,70.41L324.69,71.23L326.28,71.16L326.28,70.3L327.08,70.3L327.08,67.37L327.88,67.37L327.88,70.69L329.47,71.22L329.47,70.39L330.27,70.39L330.27,71.77L331.06,71.77L331.06,76.46L331.86,76.46L331.86,71.12L332.66,71.12L332.66,70.04L333.45,70.04L333.45,67.44L334.25,67.44L334.25,71.17L335.05,71.17L335.05,75L335.84,75L335.84,69.49L336.64,69.49L336.64,70.51L339.03,71.2L339.03,68.93L339.83,68.93L339.83,76.35L340.62,76.35L340.62,79.15L341.42,79.15L341.42,74.85L342.22,74.85L342.22,71.99L343.01,71.99L343.01,69.65L343.81,69.65L343.81,71.38L346.2,70.89L346.2,70.49L350.18,71.02L350.18,70.21L350.98,70.21L350.98,67.93L351.78,67.93L351.78,70.51L355.76,70.93L355.76,74.63L357.35,74.04L357.35,68.77L358.15,68.77L358.15,70.22L358.94,70.22L358.94,71.95L360.54,71.62L360.54,75.45L361.33,75.45L361.33,69.49L362.93,69.94L362.93,68.04L363.72,68.04L363.72,70.5L368.5,71.02L368.5,70L369.3,70L369.3,67.98L370.1,67.98L370.1,70.49L373.28,71.19L373.28,71.82L374.08,71.82L374.08,70.82L374.88,70.82L374.88,68.82L375.67,68.82L375.67,71.91L381.25,71.38L381.25,68.53L382.05,68.53L382.05,71.52L386.03,71.53L386.03,71.01L386.83,71.01L386.83,69.15L387.62,69.15L387.62,70.64L388.42,70.64L388.42,71.95L389.22,71.95L389.22,71.1L390.81,71.35L390.81,71.9L392.4,71.53L392.4,71.03L393.2,71.03L393.2,68.76L393.99,68.76L393.99,71.28L397.18,71.9L397.18,71.11L398.77,70.71L398.77,68.85L399.57,68.85L399.57,71.32L401.16,71.83L401.16,70.9L405.15,70.98L405.15,62.7L405.94,62.7L405.94,71.06L414.71,70.98L414.71,70.38L417.1,70.73L417.1,67.33L417.89,67.33L417.89,70.37L420.28,71.12L420.28,70.26L421.08,70.26L421.08,71.13L421.88,71.13L421.88,70.11L422.67,70.11L422.67,68L423.47,68L423.47,70.11L424.27,70.11L424.27,71.16L426.65,70.84L426.65,70.39L429.04,70.74L429.04,68.06L429.84,68.06L429.84,70.5L438.6,70.85L438.6,70.22L439.4,70.22L439.4,71.23L444.18,71.16L444.18,70.22L444.98,70.22L444.98,71.09L446.57,70.69L446.57,67.42L447.37,67.42L447.37,71.19L448.96,70.89L448.96,70.34L450.55,70.9L450.55,71.16L452.94,70.8L452.94,68.03L453.74,68.03L453.74,70.89L458.52,70.76L458.52,67.36L459.32,67.36L459.32,71.13L460.11,71.13L460.11,70.25L461.7,70.99L461.7,70.22L464.09,70.88L464.09,70.1L464.89,70.1L464.89,68.01L465.69,68.01L465.69,70.35L470.47,71L470.47,67.3L471.26,67.3L471.26,69.98L472.06,69.98L472.06,71.13L472.86,71.13L472.86,70.25L474.45,70.99L474.45,70.22L476.84,70.76L476.84,67.36L477.64,67.36L477.64,70.9L479.23,71L479.23,70.21L482.42,70.93L482.42,67.18L483.21,67.18L483.21,71.02L484.01,71.02L484.01,70.22L484.81,70.22L484.81,71.17L485.6,71.17L485.6,70.4L487.99,70.26L487.99,69.97L488.79,69.97L488.79,68.27L489.59,68.27L489.59,70.87L493.57,70.88L493.57,69.97L494.37,69.97L494.37,67.45L495.16,67.45L495.16,70.96L496.76,70.29L496.76,71.19L498.35,70.89L498.35,70.41L500.74,70.59L500.74,67.34L501.53,67.34L501.53,70.51L506.31,70.77L506.31,68.02L507.11,68.02L507.11,70.21L512.69,70.83L512.69,67.14L513.48,67.14L513.48,70.89L518.26,70.79L518.26,67.32L519.06,67.32L519.06,71.13L519.86,71.13L519.86,70.24L521.45,70.99L521.45,70.22L523.84,70.89L523.84,70.13L524.64,70.13L524.64,67.99L525.43,67.99L525.43,70.34L529.42,70.98L529.42,70.1L530.21,70.1L530.21,68.17L531.01,68.17L531.01,70.08L533.4,70.27L533.4,70.96L534.99,70.29L534.99,71.1L535.79,71.1L535.79,70.05L536.58,70.05L536.58,68.08L537.38,68.08L537.38,70.21L541.36,70.87L541.36,69.9L542.16,69.9L542.16,68.08L542.96,68.08L542.96,70.4L544.55,70.29L544.55,71.09L545.35,71.09L545.35,70.21L548.53,70.19L548.53,67.94L549.33,67.94L549.33,70.21L550.13,70.21L550.13,71.18L550.92,71.18L550.92,70.26L552.52,70.31L552.52,71.18L554.11,70.75L554.11,68.08L554.91,68.08L554.91,69.34L555.7,69.34L555.7,71.08L556.5,71.08L556.5,70.29L557.3,70.29L557.3,71.09L558.09,71.09L558.09,70.21L560.48,70.59L560.48,67.53L561.28,67.53L561.28,70.92L562.87,71.11L562.87,70.26L566.06,70.76L566.06,67.35L566.86,67.35L566.86,71.08L570.04,71.07L570.04,70.3L571.63,70.94L571.63,69.87L572.43,69.87L572.43,67.63L573.23,67.63L573.23,70.86L579.6,70.63L579.6,71.17L580.4,71.17L580.4,70.21L581.19,70.21L581.19,71.04L584.38,70.59L584.38,67.39L585.18,67.39L585.18,71.12L585.97,71.12L585.97,70.22L588.36,70.91L588.36,70.99L589.96,70.25L589.96,72.97L590.75,72.97L590.75,88.55" style="vector-effect: non-scaling-stroke; fill: none; stroke: rgb(227, 111, 71); stroke-opacity: 1; stroke-width: 1px; opacity: 1;"/></g><g class="points"/><g class="text"/></g><g class="trace scatter trace699325" style="stroke-miterlimit: 2; opacity: 1;"><g class="fills"/><g class="errorbars"/><g class="lines"><path class="js-line" d="M17.21,86.05L18,86.05L18,70.88L23.58,70.27L23.58,71.12L24.38,71.12L24.38,70.21L28.36,70.91L28.36,71.13L29.16,71.13L29.16,70.21L34.73,70.26L34.73,70.97L36.32,70.27L36.32,71.12L37.12,71.12L37.12,70.21L39.51,70.88L39.51,69.62L40.31,69.62L40.31,65.24L41.1,65.24L41.1,70.5L49.07,70.27L49.07,71.12L49.87,71.12L49.87,70.21L52.26,70.62L52.26,65.61L53.05,65.61L53.05,69.5L53.85,69.5L53.85,70.5L57.04,70.29L57.04,71.1L57.83,71.1L57.83,70.28L58.63,70.28L58.63,71.11L59.43,71.11L59.43,70.22L66.6,70.29L66.6,71.09L67.39,71.09L67.39,70.23L70.58,70.21L70.58,71.04L76.15,70.38L76.15,71.83L76.95,71.83L76.95,69.45L77.75,69.45L77.75,70.95L79.34,70.29L79.34,71.09L80.14,71.09L80.14,70.29L80.93,70.29L80.93,71.19L82.53,70.88L82.53,70.26L84.12,70.28L84.12,71.11L84.92,71.11L84.92,70.27L85.71,70.27L85.71,71.12L86.51,71.12L86.51,70.25L88.1,70.27L88.1,64.45L88.9,64.45L88.9,71.13L89.7,71.13L89.7,70.25L90.49,70.25L90.49,71.13L91.29,71.13L91.29,70.24L93.68,70.24L93.68,71.14L94.48,71.14L94.48,70.23L95.27,70.23L95.27,71.02L100.05,71.1L100.05,70.21L101.65,70.4L101.65,71.03L103.24,70.97L103.24,70.27L104.03,70.27L104.03,71.12L104.83,71.12L104.83,70.25L107.22,70.26L107.22,71.13L108.02,71.13L108.02,70.25L108.81,70.25L108.81,71.22L110.41,70.94L110.41,70.31L111.2,70.31L111.2,71.18L113.59,71.13L113.59,70.25L114.39,70.25L114.39,71.1L115.98,71.07L115.98,70.31L116.78,70.31L116.78,71.07L117.58,71.07L117.58,70.29L118.37,70.29L118.37,71.05L124.75,70.91L124.75,71.16L127.14,70.85L127.14,70.39L141.47,70.29L141.47,71.1L142.27,71.1L142.27,70.28L143.07,70.28L143.07,71.11L143.86,71.11L143.86,70.26L146.25,70.27L146.25,71.12L147.05,71.12L147.05,70.27L147.85,70.27L147.85,71.26L148.64,71.26L148.64,70.07L150.24,70.36L150.24,70.88L160.59,70.26L160.59,71.13L161.39,71.13L161.39,70.22L174.14,70.37L174.14,71.07L174.93,71.07L174.93,70.3L183.69,70.97L183.69,71.61L184.49,71.61L184.49,69.72L185.29,69.72L185.29,71.31L186.88,71.59L186.88,70.29L187.68,70.29L187.68,71.09L188.47,71.09L188.47,70.23L195.64,70.92L195.64,71.24L196.44,71.24L196.44,69.94L198.03,70.5L198.03,70.91L199.63,71.13L199.63,70.24L202.02,70.24L202.02,71.14L202.81,71.14L202.81,70.23L203.61,70.23L203.61,71L204.41,71L204.41,70.23L205.2,70.23L205.2,71.15L206,71.15L206,70.23L206.8,70.23L206.8,71.28L208.39,71.59L208.39,69.52L209.98,70.22L209.98,71.29L211.57,71.76L211.57,69.57L212.37,69.57L212.37,71.12L213.17,71.12L213.17,70.21L215.56,70.92L215.56,71.15L219.54,71.03L219.54,71.94L220.34,71.94L220.34,69.27L221.13,69.27L221.13,70.52L223.52,70.22L223.52,71.01L224.32,71.01L224.32,70.23L225.12,70.23L225.12,71.16L225.91,71.16L225.91,70.22L226.71,70.22L226.71,71.18L227.51,71.18L227.51,70.4L232.29,70.3L232.29,71.1L234.68,70.69L234.68,71.13L240.25,71.22L240.25,70.37L245.03,70.4L245.03,70.27L245.83,70.27L245.83,71.07L249.01,70.39L249.01,71.15L249.81,71.15L249.81,70.35L252.2,71.03L252.2,71.49L253,71.49L253,70.64L262.56,70.37L262.56,72.22L263.35,72.22L263.35,69.61L264.15,69.61L264.15,70.88L276.1,70.35L276.1,71.2L278.49,70.88L278.49,70.42L283.27,70.5L283.27,71.16L284.06,71.16L284.06,70.22L284.86,70.22L284.86,71.17L285.66,71.17L285.66,70.21L286.45,70.21L286.45,71.19L287.25,71.19L287.25,70.4L288.84,70.3L288.84,71.12L294.42,70.4L294.42,70.28L295.22,70.28L295.22,71.11L296.01,71.11L296.01,70.26L299.2,70.53L299.2,71L308.76,70.42L308.76,71.14L313.54,71.23L313.54,70.42L314.34,70.42L314.34,71.19L315.93,70.89L315.93,70.42L317.52,70.4L317.52,71.28L318.32,71.28L318.32,70.36L321.5,70.32L321.5,71.11L324.69,70.41L324.69,71.23L327.08,70.58L327.08,70.36L328.67,70.69L328.67,71.22L329.47,71.22L329.47,70.39L330.27,70.39L330.27,71.77L331.06,71.77L331.06,76.46L331.86,76.46L331.86,71.12L332.66,71.12L332.66,70.22L334.25,70.52L334.25,71.17L335.05,71.17L335.05,75L335.84,75L335.84,69.49L336.64,69.49L336.64,70.51L338.23,71.03L338.23,71.4L339.83,72L339.83,76.35L340.62,76.35L340.62,79.15L341.42,79.15L341.42,74.85L342.22,74.85L342.22,71.99L343.01,71.99L343.01,69.65L343.81,69.65L343.81,71.38L346.2,70.89L346.2,70.49L350.18,71.02L350.18,70.21L350.98,70.21L350.98,71.19L355.76,70.93L355.76,74.63L357.35,74.23L357.35,71.84L358.15,71.84L358.15,70.22L358.94,70.22L358.94,71.95L360.54,71.62L360.54,75.45L361.33,75.45L361.33,69.49L362.13,69.49L362.13,70.36L371.69,70.9L371.69,71.23L374.08,71.82L374.08,70.93L374.88,70.93L374.88,71.97L376.47,71.91L376.47,71.2L386.83,71.34L386.83,72.08L387.62,72.08L387.62,70.64L388.42,70.64L388.42,71.95L389.22,71.95L389.22,71.1L390.81,71.69L390.81,74.22L391.6,74.22L391.6,68.86L392.4,68.86L392.4,71.28L397.18,71.9L397.18,71.11L401.16,71.83L401.16,70.9L405.15,71.28L405.15,71.9L405.94,71.9L405.94,71.06L414.71,70.98L414.71,70.38L417.1,71.11L417.1,70.21L419.49,70.92L419.49,71.12L420.28,71.12L420.28,70.26L421.08,70.26L421.08,71.13L421.88,71.13L421.88,70.25L422.67,70.25L422.67,71.12L423.47,71.12L423.47,70.11L424.27,70.11L424.27,71.16L426.65,70.84L426.65,70.39L428.25,70.93L428.25,71.19L431.43,70.88L431.43,70.36L438.6,70.85L438.6,70.22L439.4,70.22L439.4,71.23L444.18,71.16L444.18,70.22L444.98,70.22L444.98,71.09L446.57,71.1L446.57,70.28L447.37,70.28L447.37,71.19L448.96,70.89L448.96,70.34L450.55,70.9L450.55,71.16L455.33,70.41L455.33,70.26L458.52,70.4L458.52,64.45L459.32,64.45L459.32,71.13L460.11,71.13L460.11,70.25L461.7,70.99L461.7,70.22L469.67,70.36L469.67,71.03L471.26,70.53L471.26,69.98L472.06,69.98L472.06,71.13L472.86,71.13L472.86,70.25L474.45,70.99L474.45,70.22L478.43,70.9L478.43,71L479.23,71L479.23,70.21L481.62,70.9L481.62,71.16L482.42,71.16L482.42,70.22L483.21,70.22L483.21,71.02L484.01,71.02L484.01,70.22L484.81,70.22L484.81,71.17L485.6,71.17L485.6,70.21L486.4,70.21L486.4,71.18L487.2,71.18L487.2,70.26L488.79,70.31L488.79,71.18L490.38,70.87L490.38,70.37L496.76,70.29L496.76,71.19L498.35,70.89L498.35,70.41L506.31,70.91L506.31,71.13L507.11,71.13L507.11,70.21L517.47,70.26L517.47,71.13L518.26,71.13L518.26,70.25L519.06,70.25L519.06,71.13L519.86,71.13L519.86,70.24L521.45,70.99L521.45,70.22L528.62,70.25L528.62,70.98L530.21,70.27L530.21,71.26L531.01,71.26L531.01,70.08L533.4,70.27L533.4,70.96L534.99,70.29L534.99,71.1L535.79,71.1L535.79,70.28L536.58,70.28L536.58,71.11L537.38,71.11L537.38,70.21L544.55,70.29L544.55,71.09L545.35,71.09L545.35,70.21L548.53,70.22L548.53,71.17L549.33,71.17L549.33,70.21L550.13,70.21L550.13,71.18L550.92,71.18L550.92,70.26L552.52,70.31L552.52,71.18L554.91,71.16L554.91,69.34L555.7,69.34L555.7,71.08L556.5,71.08L556.5,70.29L557.3,70.29L557.3,71.09L558.09,71.09L558.09,70.21L560.48,70.32L560.48,64.54L561.28,64.54L561.28,70.92L562.87,71.11L562.87,70.26L565.26,70.27L565.26,71.12L566.06,71.12L566.06,70.25L566.86,70.25L566.86,71.08L571.63,70.94L571.63,70.23L579.6,70.63L579.6,71.17L580.4,71.17L580.4,70.21L581.19,70.21L581.19,71.04L584.38,70.97L584.38,70.27L585.18,70.27L585.18,71.12L585.97,71.12L585.97,70.22L588.36,70.91L588.36,70.99L589.96,70.25L589.96,72.97L590.75,72.97L590.75,88.55" style="vector-effect: non-scaling-stroke; fill: none; stroke: rgb(62, 164, 78); stroke-opacity: 1; stroke-width: 1px; opacity: 1;"/></g><g class="points"/><g class="text"/></g><g class="trace scatter trace78a44d" style="stroke-miterlimit: 2; opacity: 1;"><g class="fills"/><g class="errorbars"/><g class="lines"><path class="js-line" d="M17.21,87.91L18,87.91L18,11.65L21.99,12.27L21.99,11.52L22.78,11.52L22.78,9.07L23.58,9.07L23.58,12.28L28.36,12.14L28.36,9.07L29.16,9.07L29.16,12.28L34.73,12.21L34.73,8.45L35.53,8.45L35.53,12.2L40.31,11.56L40.31,9.1L41.1,9.1L41.1,12.2L46.68,12.2L46.68,9.01L47.48,9.01L47.48,11.65L52.26,12.2L52.26,8.38L53.05,8.38L53.05,12.2L58.63,12.2L58.63,9.02L59.43,9.02L59.43,12.28L64.21,12.2L64.21,9.02L65,9.02L65,12.28L70.58,12.2L70.58,8.38L71.37,8.38L71.37,12.2L76.15,11.55L76.15,9.05L76.95,9.05L76.95,12.2L82.53,12.2L82.53,9.02L83.32,9.02L83.32,11.65L88.1,12.18L88.1,8.4L88.9,8.4L88.9,12.28L94.48,12.17L94.48,9.05L95.27,9.05L95.27,12.2L100.05,12.17L100.05,9.05L100.85,9.05L100.85,12.28L106.42,12.2L106.42,9.02L107.22,9.02L107.22,11.65L112,11.54L112,9.05L112.8,9.05L112.8,12.28L118.37,12.17L118.37,9.05L119.17,9.05L119.17,12.2L123.95,12.17L123.95,8.41L124.75,8.41L124.75,12.2L130.32,12.17L130.32,9.05L131.12,9.05L131.12,12.28L135.9,12.17L135.9,9.05L136.7,9.05L136.7,12.28L142.27,12.17L142.27,9.05L143.07,9.05L143.07,12.2L147.85,12.17L147.85,9.05L148.64,9.05L148.64,12.2L154.22,11.54L154.22,9.05L155.02,9.05L155.02,12.28L159.8,12.2L159.8,9.02L160.59,9.02L160.59,11.64L166.17,12.17L166.17,9.05L166.97,9.05L166.97,12.2L171.75,12.17L171.75,9.05L172.54,9.05L172.54,12.2L178.12,11.54L178.12,9.05L178.91,9.05L178.91,12.28L183.69,12.18L183.69,8.4L184.49,8.4L184.49,12.28L190.07,12.17L190.07,9.05L190.86,9.05L190.86,12.2L195.64,12.17L195.64,9.03L196.44,9.03L196.44,11.58L202.02,12.17L202.02,9.05L202.81,9.05L202.81,12.28L207.59,12.17L207.59,9.05L208.39,9.05L208.39,12.26L210.78,12.29L210.78,12.82L211.57,12.82L211.57,8.39L212.37,8.39L212.37,12.28L213.96,12.17L213.96,9.05L214.76,9.05L214.76,12.2L219.54,12.17L219.54,8.41L220.34,8.41L220.34,12.2L225.12,12.21L225.12,12.81L225.91,12.81L225.91,8.4L226.71,8.4L226.71,12.28L231.49,12.2L231.49,9.02L232.29,9.02L232.29,11.66L233.08,11.66L233.08,12.94L235.47,12.82L235.47,12.28L237.07,12.32L237.07,13.4L237.86,13.4L237.86,9.05L238.66,9.05L238.66,12.3L240.25,12.94L240.25,13.53L242.64,12.91L242.64,11.56L243.44,11.56L243.44,9.66L244.24,9.66L244.24,12.28L249.81,12.89L249.81,9.06L250.61,9.06L250.61,12.9L252.2,12.21L252.2,13.55L253.79,12.91L253.79,12.28L255.39,12.17L255.39,9.05L256.18,9.05L256.18,12.28L261.76,12.17L261.76,9.69L262.56,9.69L262.56,12.91L267.34,12.17L267.34,9.05L268.13,9.05L268.13,12.2L272.91,12.89L272.91,11.64L273.71,11.64L273.71,18.76L274.51,18.76L274.51,12.92L279.29,12.89L279.29,9.05L280.08,9.05L280.08,12.2L280.88,12.2L280.88,13.63L281.68,13.63L281.68,12.22L282.47,12.22L282.47,13.53L283.27,13.53L283.27,12.28L285.66,12.2L285.66,9.02L286.45,9.02L286.45,12.28L290.44,12.91L290.44,11.94L291.23,11.94L291.23,4.03L292.03,4.03L292.03,11.66L292.83,11.66L292.83,12.9L296.81,12.23L296.81,9.02L298.4,8.99L298.4,12.28L300.79,11.66L300.79,12.94L302.39,13.57L302.39,14.06L303.18,14.06L303.18,9.74L303.98,9.74L303.98,12.82L304.78,12.82L304.78,13.68L307.17,13.55L307.17,12.28L309.56,12.18L309.56,10.31L310.35,10.31L310.35,12.3L315.13,12.17L315.13,9.06L315.93,9.06L315.93,12.9L321.5,12.23L321.5,9.1L322.3,9.1L322.3,12.92L327.08,12.89L327.08,9.69L327.88,9.69L327.88,12.94L330.27,12.93L330.27,19.64L331.06,19.64L331.06,64.52L331.86,64.52L331.86,34.72L332.66,34.72L332.66,12.18L333.45,12.18L333.45,9.68L334.25,9.68L334.25,13.72L335.05,13.72L335.05,55.3L335.84,55.3L335.84,53.22L336.64,53.22L336.64,40.32L337.44,40.32L337.44,43.03L338.23,43.03L338.23,40.92L339.03,40.92L339.03,49.94L339.83,49.94L339.83,70.12L340.62,70.12L340.62,71.38L341.42,71.38L341.42,56.17L342.22,56.17L342.22,54.31L343.01,54.31L343.01,28.79L343.81,28.79L343.81,40.47L345.4,39.88L345.4,38.1L346.2,38.1L346.2,12.28L350.98,12.2L350.98,9.65L351.78,9.65L351.78,11.65L354.96,12.2L354.96,12.88L355.76,12.88L355.76,51.3L356.55,51.3L356.55,62.48L357.35,62.48L357.35,53.45L358.15,53.45L358.15,50.42L358.94,50.42L358.94,55.44L359.74,55.44L359.74,58.32L360.54,58.32L360.54,63.88L361.33,63.88L361.33,20.88L362.13,20.88L362.13,11.66L362.93,11.66L362.93,9.07L363.72,9.07L363.72,12.2L366.91,11.66L366.91,12.82L368.5,12.28L368.5,11.54L369.3,11.54L369.3,9.05L370.1,9.05L370.1,12.28L374.88,12.17L374.88,9.05L375.67,9.05L375.67,12.28L381.25,12.25L381.25,8.41L382.05,8.41L382.05,12.2L386.83,11.59L386.83,9.07L387.62,9.07L387.62,12.2L393.2,12.17L393.2,9.04L393.99,9.04L393.99,11.65L398.77,12.2L398.77,8.38L399.57,8.38L399.57,12.28L405.15,12.23L405.15,9.39L405.94,9.39L405.94,21.66L406.74,21.66L406.74,11.65L409.93,12.2L409.93,25.31L410.72,25.31L410.72,14.02L411.52,14.02L411.52,39.79L412.32,39.79L412.32,48.6L413.11,48.6L413.11,44.01L413.91,44.01L413.91,45.04L414.71,45.04L414.71,65.79L415.5,65.79L415.5,58.96L416.3,58.96L416.3,21.74L417.1,21.74L417.1,41.68L417.89,41.68L417.89,15.91L418.69,15.91L418.69,24.85L419.49,24.85L419.49,16.74L420.28,16.74L420.28,26.78L421.08,26.78L421.08,28.68L421.88,28.68L421.88,21.74L422.67,21.74L422.67,9.01L423.47,9.01L423.47,11.65L425.86,12.38L425.86,15.36L426.65,15.36L426.65,12.36L427.45,12.36L427.45,15.38L428.25,15.38L428.25,21.43L429.04,21.43L429.04,12.2L429.84,12.2L429.84,15.54L430.64,15.54L430.64,12.28L432.23,12.28L432.23,21.35L433.03,21.35L433.03,12.2L434.62,12.2L434.62,9.02L435.42,9.02L435.42,12.27L440.99,12.2L440.99,8.38L441.79,8.38L441.79,12.2L446.57,12.17L446.57,9.05L447.37,9.05L447.37,12.2L452.94,12.2L452.94,9.02L453.74,9.02L453.74,11.65L458.52,11.54L458.52,9.05L459.32,9.05L459.32,12.28L464.89,12.15L464.89,5.81L465.69,5.81L465.69,12.2L470.47,12.25L470.47,8.41L471.26,8.41L471.26,12.2L476.84,12.17L476.84,9.05L477.64,9.05L477.64,12.28L482.42,12.17L482.42,9.04L483.21,9.04L483.21,11.65L488.79,12.15L488.79,9.07L489.59,9.07L489.59,12.2L494.37,12.23L494.37,9.07L495.16,9.07L495.16,12.2L500.74,12.2L500.74,8.38L501.53,8.38L501.53,12.28L512.69,12.23L512.69,9.02L513.48,9.02L513.48,11.62L518.26,11.56L518.26,9.02L519.06,9.02L519.06,12.28L524.64,12.2L524.64,9.01L525.43,9.01L525.43,11.65L530.21,12.2L530.21,8.38L531.01,8.38L531.01,12.2L536.58,12.2L536.58,9.02L537.38,9.02L537.38,12.27L542.16,12.2L542.16,9.02L542.96,9.02L542.96,11.65L548.53,12.17L548.53,9.05L549.33,9.05L549.33,12.2L554.11,12.12L554.11,2.58L554.91,2.58L554.91,12.2L560.48,11.54L560.48,9.05L561.28,9.05L561.28,12.28L566.06,12.17L566.06,9.05L566.86,9.05L566.86,12.28L572.43,12.17L572.43,8.41L573.23,8.41L573.23,12.2L578.01,12.15L578.01,9.07L578.8,9.07L578.8,12.2L584.38,12.17L584.38,9.04L585.18,9.04L585.18,11.65L589.16,12.27L589.16,11.52L589.96,11.52L589.96,10.34L590.75,10.34L590.75,88.55" style="vector-effect: non-scaling-stroke; fill: none; stroke: rgb(195, 113, 210); stroke-opacity: 1; stroke-width: 1px; opacity: 1;"/></g><g class="points"/><g class="text"/></g><g class="trace scatter trace73c44f" style="stroke-miterlimit: 2; opacity: 1;"><g class="fills"/><g class="errorbars"/><g class="lines"><path class="js-line" d="M22.78,88.53L363.72,88.47L363.72,88.55" style="vector-effect: non-scaling-stroke; fill: none; stroke: rgb(172, 142, 24); stroke-opacity: 1; stroke-width: 1px; opacity: 1;"/></g><g class="points"/><g class="text"/></g><g class="trace scatter traceecee8f" style="stroke-miterlimit: 2; opacity: 1;"><g class="fills"/><g class="errorbars"/><g class="lines"><path class="js-line" d="M22.78,88.55L298.4,88.06L298.4,87.68L303.98,87.75L303.98,88.55L308.76,88.55L308.76,86.68L310.35,87.16L310.35,88.55L339.03,88.55L339.03,86.49L339.83,86.49L339.83,87.35L340.62,87.35L340.62,88.55L483.21,88.46L483.21,87.68L489.59,88.2L489.59,88.55L494.37,88.31L494.37,85.53L495.16,85.53L495.16,88.55L501.53,88.06L501.53,87.68L507.11,87.73L507.11,88.55L511.89,88.55L511.89,86.62L513.48,87.22L513.48,88.55L583.58,88.55L583.58,86.7L585.18,87.14L585.18,88.55L590.75,88.55L590.75,88.55" style="vector-effect: non-scaling-stroke; fill: none; stroke: rgb(0, 170, 174); stroke-opacity: 1; stroke-width: 1px; opacity: 1;"/></g><g class="points"/><g class="text"/></g><g class="trace scatter traceee6df8" style="stroke-miterlimit: 2; opacity: 1;"><g class="fills"/><g class="errorbars"/><g class="lines"><path class="js-line" d="M33.14,88.55L575.62,88.55L575.62,87.64L576.41,87.64L576.41,86.63L578.8,86.78L578.8,88.55" style="vector-effect: non-scaling-stroke; fill: none; stroke: rgb(237, 94, 147); stroke-opacity: 1; stroke-width: 1px; opacity: 1;"/></g><g class="points"/><g class="text"/></g><g class="trace scatter tracee6882d" style="stroke-miterlimit: 2; opacity: 1;"><g class="fills"/><g class="errorbars"/><g class="lines"><path class="js-line" d="M33.14,88.55L137.49,87.97L137.49,87.63L143.07,88.16L143.07,88.55L587.57,88.55L587.57,88.55" style="vector-effect: non-scaling-stroke; fill: none; stroke: rgb(198, 130, 37); stroke-opacity: 1; stroke-width: 1px; opacity: 1;"/></g><g class="points"/><g class="text"/></g><g class="trace scatter traced2787f" style="stroke-miterlimit: 2; opacity: 1;"><g class="fills"/><g class="errorbars"/><g class="lines"><path class="js-line" d="M33.14,86.14L34.73,85.63L34.73,87.36L35.53,87.36L35.53,88.55L464.09,88.55L464.09,84.52L464.89,84.52L464.89,86.06L465.69,86.06L465.69,88.55L542.16,88.55L542.16,88.55" style="vector-effect: non-scaling-stroke; fill: none; stroke: rgb(0, 169, 141); stroke-opacity: 1; stroke-width: 1px; opacity: 1;"/></g><g class="points"/><g class="text"/></g><g class="trace scatter trace2ae9a2" style="stroke-miterlimit: 2; opacity: 1;"><g class="fills"/><g class="errorbars"/><g class="lines"><path class="js-line" d="M33.14,88.47L350.18,87.95L350.18,85.43L351.78,85.74L351.78,88.55L574.82,88.55L574.82,88.55" style="vector-effect: non-scaling-stroke; fill: none; stroke: rgb(142, 151, 30); stroke-opacity: 1; stroke-width: 1px; opacity: 1;"/></g><g class="points"/><g class="text"/></g><g class="trace scatter trace53c795" style="stroke-miterlimit: 2; opacity: 1;"><g class="fills"/><g class="errorbars"/><g class="lines"><path class="js-line" d="M58.63,88.54L574.82,88.55L574.82,88.55" style="vector-effect: non-scaling-stroke; fill: none; stroke: rgb(0, 169, 204); stroke-opacity: 1; stroke-width: 1px; opacity: 1;"/></g><g class="points"/><g class="text"/></g><g class="trace scatter trace2625f6" style="stroke-miterlimit: 2; opacity: 1;"><g class="fills"/><g class="errorbars"/><g class="lines"><path class="js-line" d="M84.92,88.43L531.81,88.31L531.81,87.57L537.38,88.16L537.38,88.55L558.09,88.55L558.09,88.55" style="vector-effect: non-scaling-stroke; fill: none; stroke: rgb(155, 127, 233); stroke-opacity: 1; stroke-width: 1px; opacity: 1;"/></g><g class="points"/><g class="text"/></g></g></g><g class="overplot"/><path class="xlines-above crisp" d="M107.10367454068242,263.87583959232836H716.0629921259841" style="fill: none; stroke-width: 1px; stroke: rgb(0, 0, 0); stroke-opacity: 1;"/><path class="ylines-above crisp" d="M107.60367454068242,172.24590560349384V263.37583959232836" style="fill: none; stroke-width: 1px; stroke: rgb(0, 0, 0); stroke-opacity: 1;"/><g class="overlines-above"/><g class="xaxislayer-above"><path class="xtick ticks crisp" d="M0,263.37583959232836v-5" transform="translate(125.31367454068243,0)" style="stroke: rgb(0, 0, 0); stroke-opacity: 1; stroke-width: 1px;"/><path class="xtick ticks crisp" d="M0,263.37583959232836v-5" transform="translate(149.2036745406824,0)" style="stroke: rgb(0, 0, 0); stroke-opacity: 1; stroke-width: 1px;"/><path class="xtick ticks crisp" d="M0,263.37583959232836v-5" transform="translate(173.10367454068242,0)" style="stroke: rgb(0, 0, 0); stroke-opacity: 1; stroke-width: 1px;"/><path class="xtick ticks crisp" d="M0,263.37583959232836v-5" transform="translate(197.00367454068243,0)" style="stroke: rgb(0, 0, 0); stroke-opacity: 1; stroke-width: 1px;"/><path class="xtick ticks crisp" d="M0,263.37583959232836v-5" transform="translate(220.9036745406824,0)" style="stroke: rgb(0, 0, 0); stroke-opacity: 1; stroke-width: 1px;"/><path class="xtick ticks crisp" d="M0,263.37583959232836v-5" transform="translate(244.8036745406824,0)" style="stroke: rgb(0, 0, 0); stroke-opacity: 1; stroke-width: 1px;"/><path class="xtick ticks crisp" d="M0,263.37583959232836v-5" transform="translate(268.6936745406824,0)" style="stroke: rgb(0, 0, 0); stroke-opacity: 1; stroke-width: 1px;"/><path class="xtick ticks crisp" d="M0,263.37583959232836v-5" transform="translate(292.5936745406824,0)" style="stroke: rgb(0, 0, 0); stroke-opacity: 1; stroke-width: 1px;"/><path class="xtick ticks crisp" d="M0,263.37583959232836v-5" transform="translate(316.4936745406824,0)" style="stroke: rgb(0, 0, 0); stroke-opacity: 1; stroke-width: 1px;"/><path class="xtick ticks crisp" d="M0,263.37583959232836v-5" transform="translate(340.3936745406824,0)" style="stroke: rgb(0, 0, 0); stroke-opacity: 1; stroke-width: 1px;"/><path class="xtick ticks crisp" d="M0,263.37583959232836v-5" transform="translate(364.28367454068245,0)" style="stroke: rgb(0, 0, 0); stroke-opacity: 1; stroke-width: 1px;"/><path class="xtick ticks crisp" d="M0,263.37583959232836v-5" transform="translate(388.18367454068243,0)" style="stroke: rgb(0, 0, 0); stroke-opacity: 1; stroke-width: 1px;"/><path class="xtick ticks crisp" d="M0,263.37583959232836v-5" transform="translate(412.0836745406824,0)" style="stroke: rgb(0, 0, 0); stroke-opacity: 1; stroke-width: 1px;"/><path class="xtick ticks crisp" d="M0,263.37583959232836v-5" transform="translate(435.9836745406824,0)" style="stroke: rgb(0, 0, 0); stroke-opacity: 1; stroke-width: 1px;"/><path class="xtick ticks crisp" d="M0,263.37583959232836v-5" transform="translate(459.88367454068236,0)" style="stroke: rgb(0, 0, 0); stroke-opacity: 1; stroke-width: 1px;"/><path class="xtick ticks crisp" d="M0,263.37583959232836v-5" transform="translate(483.77367454068246,0)" style="stroke: rgb(0, 0, 0); stroke-opacity: 1; stroke-width: 1px;"/><path class="xtick ticks crisp" d="M0,263.37583959232836v-5" transform="translate(507.67367454068244,0)" style="stroke: rgb(0, 0, 0); stroke-opacity: 1; stroke-width: 1px;"/><path class="xtick ticks crisp" d="M0,263.37583959232836v-5" transform="translate(531.5736745406824,0)" style="stroke: rgb(0, 0, 0); stroke-opacity: 1; stroke-width: 1px;"/><path class="xtick ticks crisp" d="M0,263.37583959232836v-5" transform="translate(555.4736745406824,0)" style="stroke: rgb(0, 0, 0); stroke-opacity: 1; stroke-width: 1px;"/><path class="xtick ticks crisp" d="M0,263.37583959232836v-5" transform="translate(579.3636745406824,0)" style="stroke: rgb(0, 0, 0); stroke-opacity: 1; stroke-width: 1px;"/><path class="xtick ticks crisp" d="M0,263.37583959232836v-5" transform="translate(603.2636745406825,0)" style="stroke: rgb(0, 0, 0); stroke-opacity: 1; stroke-width: 1px;"/><path class="xtick ticks crisp" d="M0,263.37583959232836v-5" transform="translate(627.1636745406823,0)" style="stroke: rgb(0, 0, 0); stroke-opacity: 1; stroke-width: 1px;"/><path class="xtick ticks crisp" d="M0,263.37583959232836v-5" transform="translate(651.0636745406824,0)" style="stroke: rgb(0, 0, 0); stroke-opacity: 1; stroke-width: 1px;"/><path class="xtick ticks crisp" d="M0,263.37583959232836v-5" transform="translate(674.9636745406824,0)" style="stroke: rgb(0, 0, 0); stroke-opacity: 1; stroke-width: 1px;"/><path class="xtick ticks crisp" d="M0,263.37583959232836v-5" transform="translate(698.8536745406824,0)" style="stroke: rgb(0, 0, 0); stroke-opacity: 1; stroke-width: 1px;"/><g class="xtick"><text text-anchor="start" x="0" y="281.1758395923284" transform="translate(125.31367454068243,0) rotate(22,0,274.1758395923284)" style="font-family: sans-serif; font-size: 14px; fill: rgb(0, 0, 0); fill-opacity: 1; white-space: pre; opacity: 1;">00 2022-10-27</text></g><g class="xtick"><text text-anchor="start" x="0" y="281.1758395923284" style="font-family: sans-serif; font-size: 14px; fill: rgb(0, 0, 0); fill-opacity: 1; white-space: pre; opacity: 1;" transform="translate(149.2036745406824,0) rotate(22,0,274.1758395923284)">01</text></g><g class="xtick"><text text-anchor="start" x="0" y="281.1758395923284" style="font-family: sans-serif; font-size: 14px; fill: rgb(0, 0, 0); fill-opacity: 1; white-space: pre; opacity: 1;" transform="translate(173.10367454068242,0) rotate(22,0,274.1758395923284)">02</text></g><g class="xtick"><text text-anchor="start" x="0" y="281.1758395923284" style="font-family: sans-serif; font-size: 14px; fill: rgb(0, 0, 0); fill-opacity: 1; white-space: pre; opacity: 1;" transform="translate(197.00367454068243,0) rotate(22,0,274.1758395923284)">03</text></g><g class="xtick"><text text-anchor="start" x="0" y="281.1758395923284" style="font-family: sans-serif; font-size: 14px; fill: rgb(0, 0, 0); fill-opacity: 1; white-space: pre; opacity: 1;" transform="translate(220.9036745406824,0) rotate(22,0,274.1758395923284)">04</text></g><g class="xtick"><text text-anchor="start" x="0" y="281.1758395923284" style="font-family: sans-serif; font-size: 14px; fill: rgb(0, 0, 0); fill-opacity: 1; white-space: pre; opacity: 1;" transform="translate(244.8036745406824,0) rotate(22,0,274.1758395923284)">05</text></g><g class="xtick"><text text-anchor="start" x="0" y="281.1758395923284" style="font-family: sans-serif; font-size: 14px; fill: rgb(0, 0, 0); fill-opacity: 1; white-space: pre; opacity: 1;" transform="translate(268.6936745406824,0) rotate(22,0,274.1758395923284)">06</text></g><g class="xtick"><text text-anchor="start" x="0" y="281.1758395923284" style="font-family: sans-serif; font-size: 14px; fill: rgb(0, 0, 0); fill-opacity: 1; white-space: pre; opacity: 1;" transform="translate(292.5936745406824,0) rotate(22,0,274.1758395923284)">07</text></g><g class="xtick"><text text-anchor="start" x="0" y="281.1758395923284" style="font-family: sans-serif; font-size: 14px; fill: rgb(0, 0, 0); fill-opacity: 1; white-space: pre; opacity: 1;" transform="translate(316.4936745406824,0) rotate(22,0,274.1758395923284)">08</text></g><g class="xtick"><text text-anchor="start" x="0" y="281.1758395923284" style="font-family: sans-serif; font-size: 14px; fill: rgb(0, 0, 0); fill-opacity: 1; white-space: pre; opacity: 1;" transform="translate(340.3936745406824,0) rotate(22,0,274.1758395923284)">09</text></g><g class="xtick"><text text-anchor="start" x="0" y="281.1758395923284" style="font-family: sans-serif; font-size: 14px; fill: rgb(0, 0, 0); fill-opacity: 1; white-space: pre; opacity: 1;" transform="translate(364.28367454068245,0) rotate(22,0,274.1758395923284)">10</text></g><g class="xtick"><text text-anchor="start" x="0" y="281.1758395923284" style="font-family: sans-serif; font-size: 14px; fill: rgb(0, 0, 0); fill-opacity: 1; white-space: pre; opacity: 1;" transform="translate(388.18367454068243,0) rotate(22,0,274.1758395923284)">11</text></g><g class="xtick"><text text-anchor="start" x="0" y="281.1758395923284" style="font-family: sans-serif; font-size: 14px; fill: rgb(0, 0, 0); fill-opacity: 1; white-space: pre; opacity: 1;" transform="translate(412.0836745406824,0) rotate(22,0,274.1758395923284)">12</text></g><g class="xtick"><text text-anchor="start" x="0" y="281.1758395923284" style="font-family: sans-serif; font-size: 14px; fill: rgb(0, 0, 0); fill-opacity: 1; white-space: pre; opacity: 1;" transform="translate(435.9836745406824,0) rotate(22,0,274.1758395923284)">13</text></g><g class="xtick"><text text-anchor="start" x="0" y="281.1758395923284" style="font-family: sans-serif; font-size: 14px; fill: rgb(0, 0, 0); fill-opacity: 1; white-space: pre; opacity: 1;" transform="translate(459.88367454068236,0) rotate(22,0,274.1758395923284)">14</text></g><g class="xtick"><text text-anchor="start" x="0" y="281.1758395923284" style="font-family: sans-serif; font-size: 14px; fill: rgb(0, 0, 0); fill-opacity: 1; white-space: pre; opacity: 1;" transform="translate(483.77367454068246,0) rotate(22,0,274.1758395923284)">15</text></g><g class="xtick"><text text-anchor="start" x="0" y="281.1758395923284" style="font-family: sans-serif; font-size: 14px; fill: rgb(0, 0, 0); fill-opacity: 1; white-space: pre; opacity: 1;" transform="translate(507.67367454068244,0) rotate(22,0,274.1758395923284)">16</text></g><g class="xtick"><text text-anchor="start" x="0" y="281.1758395923284" style="font-family: sans-serif; font-size: 14px; fill: rgb(0, 0, 0); fill-opacity: 1; white-space: pre; opacity: 1;" transform="translate(531.5736745406824,0) rotate(22,0,274.1758395923284)">17</text></g><g class="xtick"><text text-anchor="start" x="0" y="281.1758395923284" style="font-family: sans-serif; font-size: 14px; fill: rgb(0, 0, 0); fill-opacity: 1; white-space: pre; opacity: 1;" transform="translate(555.4736745406824,0) rotate(22,0,274.1758395923284)">18</text></g><g class="xtick"><text text-anchor="start" x="0" y="281.1758395923284" style="font-family: sans-serif; font-size: 14px; fill: rgb(0, 0, 0); fill-opacity: 1; white-space: pre; opacity: 1;" transform="translate(579.3636745406824,0) rotate(22,0,274.1758395923284)">19</text></g><g class="xtick"><text text-anchor="start" x="0" y="281.1758395923284" style="font-family: sans-serif; font-size: 14px; fill: rgb(0, 0, 0); fill-opacity: 1; white-space: pre; opacity: 1;" transform="translate(603.2636745406825,0) rotate(22,0,274.1758395923284)">20</text></g><g class="xtick"><text text-anchor="start" x="0" y="281.1758395923284" style="font-family: sans-serif; font-size: 14px; fill: rgb(0, 0, 0); fill-opacity: 1; white-space: pre; opacity: 1;" transform="translate(627.1636745406823,0) rotate(22,0,274.1758395923284)">21</text></g><g class="xtick"><text text-anchor="start" x="0" y="281.1758395923284" style="font-family: sans-serif; font-size: 14px; fill: rgb(0, 0, 0); fill-opacity: 1; white-space: pre; opacity: 1;" transform="translate(651.0636745406824,0) rotate(22,0,274.1758395923284)">22</text></g><g class="xtick"><text text-anchor="start" x="0" y="281.1758395923284" style="font-family: sans-serif; font-size: 14px; fill: rgb(0, 0, 0); fill-opacity: 1; white-space: pre; opacity: 1;" transform="translate(674.9636745406824,0) rotate(22,0,274.1758395923284)">23</text></g><g class="xtick"><text text-anchor="start" x="0" y="281.1758395923284" style="font-family: sans-serif; font-size: 14px; fill: rgb(0, 0, 0); fill-opacity: 1; white-space: pre; opacity: 0;" transform="translate(698.8536745406824,0) rotate(22,0,274.1758395923284)">00 2022-10-28</text></g></g><g class="yaxislayer-above"><path class="y2tick ticks crisp" d="M108.10367454068242,0h5" transform="translate(0,260.79590560349385)" style="stroke: rgb(0, 0, 0); stroke-opacity: 1; stroke-width: 1px;"/><path class="y2tick ticks crisp" d="M108.10367454068242,0h5" transform="translate(0,241.23590560349385)" style="stroke: rgb(0, 0, 0); stroke-opacity: 1; stroke-width: 1px;"/><path class="y2tick ticks crisp" d="M108.10367454068242,0h5" transform="translate(0,221.66590560349385)" style="stroke: rgb(0, 0, 0); stroke-opacity: 1; stroke-width: 1px;"/><path class="y2tick ticks crisp" d="M108.10367454068242,0h5" transform="translate(0,202.10590560349385)" style="stroke: rgb(0, 0, 0); stroke-opacity: 1; stroke-width: 1px;"/><path class="y2tick ticks crisp" d="M108.10367454068242,0h5" transform="translate(0,182.53590560349383)" style="stroke: rgb(0, 0, 0); stroke-opacity: 1; stroke-width: 1px;"/><g class="y2tick"><text text-anchor="end" x="104.30367454068242" y="4.8999999999999995" transform="translate(0,260.79590560349385)" style="font-family: sans-serif; font-size: 14px; fill: rgb(0, 0, 0); fill-opacity: 1; white-space: pre; opacity: 1;">0.00</text></g><g class="y2tick"><text text-anchor="end" x="104.30367454068242" y="4.8999999999999995" style="font-family: sans-serif; font-size: 14px; fill: rgb(0, 0, 0); fill-opacity: 1; white-space: pre; opacity: 1;" transform="translate(0,241.23590560349385)">0.05</text></g><g class="y2tick"><text text-anchor="end" x="104.30367454068242" y="4.8999999999999995" style="font-family: sans-serif; font-size: 14px; fill: rgb(0, 0, 0); fill-opacity: 1; white-space: pre; opacity: 1;" transform="translate(0,221.66590560349385)">0.10</text></g><g class="y2tick"><text text-anchor="end" x="104.30367454068242" y="4.8999999999999995" style="font-family: sans-serif; font-size: 14px; fill: rgb(0, 0, 0); fill-opacity: 1; white-space: pre; opacity: 1;" transform="translate(0,202.10590560349385)">0.15</text></g><g class="y2tick"><text text-anchor="end" x="104.30367454068242" y="4.8999999999999995" style="font-family: sans-serif; font-size: 14px; fill: rgb(0, 0, 0); fill-opacity: 1; white-space: pre; opacity: 1;" transform="translate(0,182.53590560349383)">0.20</text></g></g><g class="overaxes-above"/></g></g><g class="polarlayer"/><g class="ternarylayer"/><g class="geolayer"/><g class="funnelarealayer"/><g class="pielayer"/><g class="iciclelayer"/><g class="treemaplayer"/><g class="sunburstlayer"/><g class="glimages"/><defs id="topdefs-8d594d"><g class="clips"/></defs><g class="layer-above"><g class="imagelayer"/><g class="shapelayer"/></g><g class="infolayer"><g class="g-gtitle"/><g class="g-xtitle"><text class="xtitle" x="412.08333333333326" y="318.37583959232836" text-anchor="middle" style="font-family: sans-serif; font-size: 15px; fill: rgb(0, 0, 0); opacity: 1; font-weight: normal; white-space: pre;">time</text></g><g class="g-ytitle" transform="translate(-24.349210739135742,0)"><text class="ytitle" transform="rotate(-90,68.10367454068242,81.41020856144362)" x="68.10367454068242" y="81.41020856144362" text-anchor="middle" style="font-family: sans-serif; font-size: 15px; fill: rgb(0, 0, 0); opacity: 1; font-weight: normal; white-space: pre;">ops</text></g><g class="g-y2title"><text class="y2title" transform="rotate(-90,68.10367454068242,217.8108725979111)" x="68.10367454068242" y="217.8108725979111" text-anchor="middle" style="font-family: sans-serif; font-size: 15px; fill: rgb(0, 0, 0); opacity: 1; font-weight: normal; white-space: pre;">ops/sec</text></g><g class="annotation" data-index="0" style="opacity: 1;"><g class="annotation-text-g" transform="rotate(0,412.08333333333337,30.000000000000004)"><g class="cursor-pointer" transform="translate(361,20)"><rect class="bg" x="0.5" y="0.5" width="102" height="19" style="stroke-width: 1px; stroke: rgb(0, 0, 0); stroke-opacity: 0; fill: rgb(0, 0, 0); fill-opacity: 0;"/><text class="annotation-text" text-anchor="middle" x="51.275390625" y="14.7314453125" style="font-family: sans-serif; font-size: 14px; fill: rgb(0, 0, 0); fill-opacity: 1; white-space: pre;">l_write | counter</text></g></g></g><g class="annotation" data-index="1" style="opacity: 1;"><g class="annotation-text-g" transform="rotate(0,412.08333333333337,166.40066403646745)"><g class="cursor-pointer" transform="translate(372,156)"><rect class="bg" x="0.5" y="0.5" width="79" height="19" style="stroke-width: 1px; stroke: rgb(0, 0, 0); stroke-opacity: 0; fill: rgb(0, 0, 0); fill-opacity: 0;"/><text class="annotation-text" text-anchor="middle" x="39.9912109375" y="14.7314453125" style="font-family: sans-serif; font-size: 14px; fill: rgb(0, 0, 0); fill-opacity: 1; white-space: pre;">l_write | rate</text></g></g></g></g></svg>