<svg class="main-svg" xmlns="http://www.w3.org/2000/svg" xmlns:xlink="http://www.w3.org/1999/xlink" width="720" height="400" style=""><rect x="0" y="0" width="720" height="400" style="fill: rgb(255, 255, 255); fill-opacity: 1;"/><defs id="defs-8e5977"><g class="clips"><clipPath id="clip8e5977xyplot" class="plotclip"><rect width="641.0148731408574" height="117.30736545432843"/></clipPath><clipPath id="clip8e5977xy2plot" class="plotclip"><rect width="641.0148731408574" height="117.30736545432843"/></clipPath><clipPath class="axesclip" id="clip8e5977x"><rect x="75.04811898512686" y="0" width="641.0148731408574" height="400"/></clipPath><clipPath class="axesclip" id="clip8e5977y"><rect x="0" y="41.043307086614185" width="720" height="117.30736545432843"/></clipPath><clipPath class="axesclip" id="clip8e5977xy"><rect x="75.04811898512686" y="41.043307086614185" width="641.0148731408574" height="117.30736545432843"/></clipPath><clipPath class="axesclip" id="clip8e5977y2"><rect x="0" y="192.93728671417094" width="720" height="117.30736545432843"/></clipPath><clipPath class="axesclip" id="clip8e5977xy2"><rect x="75.04811898512686" y="192.93728671417094" width="641.0148731408574" height="117.30736545432843"/></clipPath></g><g class="gradients"/><g class="patterns"/></defs><g class="bglayer"/><g class="layer-below"><g class="imagelayer"/><g class="shapelayer"/></g><g class="cartesianlayer"><g class="subplot xy"><g class="layer-subplot"><g class="shapelayer"/><g class="imagelayer"/></g><g class="gridlayer"><g class="x"><path class="xgrid crisp" transform="translate(93.18811898512686,0)" d="M0,41.043307086614185v117.30736545432843" style="stroke: rgb(0, 0, 0); stroke-opacity: 0.1; stroke-width: 0.5px;"/><path class="xgrid crisp" transform="translate(118.38811898512687,0)" d="M0,41.043307086614185v117.30736545432843" style="stroke: rgb(0, 0, 0); stroke-opacity: 0.1; stroke-width: 0.5px;"/><path class="xgrid crisp" transform="translate(143.58811898512687,0)" d="M0,41.043307086614185v117.30736545432843" style="stroke: rgb(0, 0, 0); stroke-opacity: 0.1; stroke-width: 0.5px;"/><path class="xgrid crisp" transform="translate(168.77811898512687,0)" d="M0,41.043307086614185v117.30736545432843" style="stroke: rgb(0, 0, 0); stroke-opacity: 0.1; stroke-width: 0.5px;"/><path class="xgrid crisp" transform="translate(193.97811898512686,0)" d="M0,41.043307086614185v117.30736545432843" style="stroke: rgb(0, 0, 0); stroke-opacity: 0.1; stroke-width: 0.5px;"/><path class="xgrid crisp" transform="translate(219.17811898512684,0)" d="M0,41.043307086614185v117.30736545432843" style="stroke: rgb(0, 0, 0); stroke-opacity: 0.1; stroke-width: 0.5px;"/><path class="xgrid crisp" transform="translate(244.36811898512684,0)" d="M0,41.043307086614185v117.30736545432843" style="stroke: rgb(0, 0, 0); stroke-opacity: 0.1; stroke-width: 0.5px;"/><path class="xgrid crisp" transform="translate(269.5681189851269,0)" d="M0,41.043307086614185v117.30736545432843" style="stroke: rgb(0, 0, 0); stroke-opacity: 0.1; stroke-width: 0.5px;"/><path class="xgrid crisp" transform="translate(294.7681189851269,0)" d="M0,41.043307086614185v117.30736545432843" style="stroke: rgb(0, 0, 0); stroke-opacity: 0.1; stroke-width: 0.5px;"/><path class="xgrid crisp" transform="translate(319.96811898512686,0)" d="M0,41.043307086614185v117.30736545432843" style="stroke: rgb(0, 0, 0); stroke-opacity: 0.1; stroke-width: 0.5px;"/><path class="xgrid crisp" transform="translate(345.15811898512686,0)" d="M0,41.043307086614185v117.30736545432843" style="stroke: rgb(0, 0, 0); stroke-opacity: 0.1; stroke-width: 0.5px;"/><path class="xgrid crisp" transform="translate(370.35811898512685,0)" d="M0,41.043307086614185v117.30736545432843" style="stroke: rgb(0, 0, 0); stroke-opacity: 0.1; stroke-width: 0.5px;"/><path class="xgrid crisp" transform="translate(395.55811898512684,0)" d="M0,41.043307086614185v117.30736545432843" style="stroke: rgb(0, 0, 0); stroke-opacity: 0.1; stroke-width: 0.5px;"/><path class="xgrid crisp" transform="translate(420.74811898512684,0)" d="M0,41.043307086614185v117.30736545432843" style="stroke: rgb(0, 0, 0); stroke-opacity: 0.1; stroke-width: 0.5px;"/><path class="xgrid crisp" transform="translate(445.9481189851268,0)" d="M0,41.043307086614185v117.30736545432843" style="stroke: rgb(0, 0, 0); stroke-opacity: 0.1; stroke-width: 0.5px;"/><path class="xgrid crisp" transform="translate(471.14811898512687,0)" d="M0,41.043307086614185v117.30736545432843" style="stroke: rgb(0, 0, 0); stroke-opacity: 0.1; stroke-width: 0.5px;"/><path class="xgrid crisp" transform="translate(496.34811898512686,0)" d="M0,41.043307086614185v117.30736545432843" style="stroke: rgb(0, 0, 0); stroke-opacity: 0.1; stroke-width: 0.5px;"/><path class="xgrid crisp" transform="translate(521.5381189851269,0)" d="M0,41.043307086614185v117.30736545432843" style="stroke: rgb(0, 0, 0); stroke-opacity: 0.1; stroke-width: 0.5px;"/><path class="xgrid crisp" transform="translate(546.7381189851269,0)" d="M0,41.043307086614185v117.30736545432843" style="stroke: rgb(0, 0, 0); stroke-opacity: 0.1; stroke-width: 0.5px;"/><path class="xgrid crisp" transform="translate(571.9381189851268,0)" d="M0,41.043307086614185v117.30736545432843" style="stroke: rgb(0, 0, 0); stroke-opacity: 0.1; stroke-width: 0.5px;"/><path class="xgrid crisp" transform="translate(597.1281189851269,0)" d="M0,41.043307086614185v117.30736545432843" style="stroke: rgb(0, 0, 0); stroke-opacity: 0.1; stroke-width: 0.5px;"/><path class="xgrid crisp" transform="translate(622.3281189851268,0)" d="M0,41.043307086614185v117.30736545432843" style="stroke: rgb(0, 0, 0); stroke-opacity: 0.1; stroke-width: 0.5px;"/><path class="xgrid crisp" transform="translate(647.5281189851269,0)" d="M0,41.043307086614185v117.30736545432843" style="stroke: rgb(0, 0, 0); stroke-opacity: 0.1; stroke-width: 0.5px;"/><path class="xgrid crisp" transform="translate(672.7281189851268,0)" d="M0,41.043307086614185v117.30736545432843" style="stroke: rgb(0, 0, 0); stroke-opacity: 0.1; stroke-width: 0.5px;"/><path class="xgrid crisp" transform="translate(697.9181189851269,0)" d="M0,41.043307086614185v117.30736545432843" style="stroke: rgb(0, 0, 0); stroke-opacity: 0.1; stroke-width: 0.5px;"/></g><g class="y"><path class="ygrid crisp" transform="translate(0,155.03330708661417)" d="M75.04811898512686,0h641.0148731408574" style="stroke: rgb(0, 0, 0); stroke-opacity: 0.1; stroke-width: 0.5px;"/><path class="ygrid crisp" transform="translate(0,138.27330708661418)" d="M75.04811898512686,0h641.0148731408574" style="stroke: rgb(0, 0, 0); stroke-opacity: 0.1; stroke-width: 0.5px;"/><path class="ygrid crisp" transform="translate(0,121.51330708661419)" d="M75.04811898512686,0h641.0148731408574" style="stroke: rgb(0, 0, 0); stroke-opacity: 0.1; stroke-width: 0.5px;"/><path class="ygrid crisp" transform="translate(0,104.75330708661419)" d="M75.04811898512686,0h641.0148731408574" style="stroke: rgb(0, 0, 0); stroke-opacity: 0.1; stroke-width: 0.5px;"/><path class="ygrid crisp" transform="translate(0,88.00330708661419)" d="M75.04811898512686,0h641.0148731408574" style="stroke: rgb(0, 0, 0); stroke-opacity: 0.1; stroke-width: 0.5px;"/><path class="ygrid crisp" transform="translate(0,71.24330708661418)" d="M75.04811898512686,0h641.0148731408574" style="stroke: rgb(0, 0, 0); stroke-opacity: 0.1; stroke-width: 0.5px;"/><path class="ygrid crisp" transform="translate(0,54.48330708661418)" d="M75.04811898512686,0h641.0148731408574" style="stroke: rgb(0, 0, 0); stroke-opacity: 0.1; stroke-width: 0.5px;"/></g></g><g class="zerolinelayer"/><path class="xlines-below"/><path class="ylines-below"/><g class="overlines-below"/><g class="xaxislayer-below"/><g class="yaxislayer-below"/><g class="overaxes-below"/><g class="plot" transform="translate(75.04811898512686,41.043307086614185)" clip-path="url(#clip8e5977xyplot)"><g class="scatterlayer mlayer"><g class="trace scatter traceb65beb" style="stroke-miterlimit: 2; opacity: 1;"><g class="fills"/><g class="errorbars"/><g class="lines"><path class="js-line" d="M18.23,113.99L616.69,113.99" style="vector-effect: non-scaling-stroke; fill: none; stroke: rgb(0, 154, 250); stroke-opacity: 1; stroke-width: 1px; opacity: 1;"/></g><g class="points"/><g class="text"/></g><g class="trace scatter trace2207a4" style="stroke-miterlimit: 2; opacity: 1;"><g class="fills"/><g class="errorbars"/><g class="lines"><path class="js-line" d="M18.23,113.99L408.77,113.99" style="vector-effect: non-scaling-stroke; fill: none; stroke: rgb(227, 111, 71); stroke-opacity: 1; stroke-width: 1px; opacity: 1;"/></g><g class="points"/><g class="text"/></g><g class="trace scatter trace10fb64" style="stroke-miterlimit: 2; opacity: 1;"><g class="fills"/><g class="errorbars"/><g class="lines"><path class="js-line" d="M18.95,14.49L160,11.78L160,11.78L160.9,11.78L286.9,9.31L286.9,9.29L328.01,8.54L328.01,8.52L383.43,7.78L383.43,7.76L440.52,7.01L440.52,7L497.71,6.26L497.71,6.24L530.46,5.49L530.46,5.47L563.22,4.72L563.22,4.7L595.97,3.95L595.97,3.93L622.84,3.32" style="vector-effect: non-scaling-stroke; fill: none; stroke: rgb(62, 164, 78); stroke-opacity: 1; stroke-width: 1px; opacity: 1;"/></g><g class="points"/><g class="text"/></g><g class="trace scatter trace7fe6fa" style="stroke-miterlimit: 2; opacity: 1;"><g class="fills"/><g class="errorbars"/><g class="lines"><path class="js-line" d="M18.95,85.66L161.61,84.91L161.61,84.9L302.82,84.15L302.82,84.14L448.07,83.39L448.07,83.38L586.65,82.63L586.65,82.62L622.74,82.42" style="vector-effect: non-scaling-stroke; fill: none; stroke: rgb(195, 113, 210); stroke-opacity: 1; stroke-width: 1px; opacity: 1;"/></g><g class="points"/><g class="text"/></g><g class="trace scatter trace5fe616" style="stroke-miterlimit: 2; opacity: 1;"><g class="fills"/><g class="errorbars"/><g class="lines"><path class="js-line" d="M18.95,86.28L110.4,85.8L110.4,85.8L111.33,85.8L205.3,85.31L205.3,85.31L206.23,85.31L298.66,84.82L298.66,84.82L299.41,84.82L434.57,84.12L434.57,84.12L435.57,84.12L537.13,83.58L537.13,83.58L538.02,83.58L622.74,83.11" style="vector-effect: non-scaling-stroke; fill: none; stroke: rgb(172, 142, 24); stroke-opacity: 1; stroke-width: 1px; opacity: 1;"/></g><g class="points"/><g class="text"/></g><g class="trace scatter trace206cdd" style="stroke-miterlimit: 2; opacity: 1;"><g class="fills"/><g class="errorbars"/><g class="lines"><path class="js-line" d="M24.53,113.99L604.07,113.99" style="vector-effect: non-scaling-stroke; fill: none; stroke: rgb(0, 170, 174); stroke-opacity: 1; stroke-width: 1px; opacity: 1;"/></g><g class="points"/><g class="text"/></g><g class="trace scatter trace74e5fe" style="stroke-miterlimit: 2; opacity: 1;"><g class="fills"/><g class="errorbars"/><g class="lines"><path class="js-line" d="M29.2,113.99L616.11,113.99" style="vector-effect: non-scaling-stroke; fill: none; stroke: rgb(237, 94, 147); stroke-opacity: 1; stroke-width: 1px; opacity: 1;"/></g><g class="points"/><g class="text"/></g><g class="trace scatter trace81a41d" style="stroke-miterlimit: 2; opacity: 1;"><g class="fills"/><g class="errorbars"/><g class="lines"><path class="js-line" d="M30.46,113.99L616.11,113.99" style="vector-effect: non-scaling-stroke; fill: none; stroke: rgb(198, 130, 37); stroke-opacity: 1; stroke-width: 1px; opacity: 1;"/></g><g class="points"/><g class="text"/></g><g class="trace scatter trace250325" style="stroke-miterlimit: 2; opacity: 1;"><g class="fills"/><g class="errorbars"/><g class="lines"><path class="js-line" d="M30.51,113.99L616.11,113.99" style="vector-effect: non-scaling-stroke; fill: none; stroke: rgb(0, 169, 141); stroke-opacity: 1; stroke-width: 1px; opacity: 1;"/></g><g class="points"/><g class="text"/></g><g class="trace scatter trace919e5c" style="stroke-miterlimit: 2; opacity: 1;"><g class="fills"/><g class="errorbars"/><g class="lines"><path class="js-line" d="M30.85,113.99L446.57,113.99" style="vector-effect: non-scaling-stroke; fill: none; stroke: rgb(142, 151, 30); stroke-opacity: 1; stroke-width: 1px; opacity: 1;"/></g><g class="points"/><g class="text"/></g><g class="trace scatter trace52eec9" style="stroke-miterlimit: 2; opacity: 1;"><g class="fills"/><g class="errorbars"/><g class="lines"><path class="js-line" d="M36.47,113.99L589.05,113.99" style="vector-effect: non-scaling-stroke; fill: none; stroke: rgb(0, 169, 204); stroke-opacity: 1; stroke-width: 1px; opacity: 1;"/></g><g class="points"/><g class="text"/></g><g class="trace scatter tracede1d3e" style="stroke-miterlimit: 2; opacity: 1;"><g class="fills"/><g class="errorbars"/><g class="lines"><path class="js-line" d="M49.73,113.99L616.69,113.99" style="vector-effect: non-scaling-stroke; fill: none; stroke: rgb(155, 127, 233); stroke-opacity: 1; stroke-width: 1px; opacity: 1;"/></g><g class="points"/><g class="text"/></g><g class="trace scatter tracee97870" style="stroke-miterlimit: 2; opacity: 1;"><g class="fills"/><g class="errorbars"/><g class="lines"><path class="js-line" d="M106.42,113.99L597.76,113.99" style="vector-effect: non-scaling-stroke; fill: none; stroke: rgb(97, 141, 246); stroke-opacity: 1; stroke-width: 1px; opacity: 1;"/></g><g class="points"/><g class="text"/></g><g class="trace scatter trace411b7f" style="stroke-miterlimit: 2; opacity: 1;"><g class="fills"/><g class="errorbars"/><g class="lines"><path class="js-line" d="M137.92,113.99L553.69,113.99" style="vector-effect: non-scaling-stroke; fill: none; stroke: rgb(240, 96, 115); stroke-opacity: 1; stroke-width: 1px; opacity: 1;"/></g><g class="points"/><g class="text"/></g><g class="trace scatter trace5341b2" style="stroke-miterlimit: 2; opacity: 1;"><g class="fills"/><g class="errorbars"/><g class="lines"><path class="js-line" d="M163.19,113.99L333.2,113.99" style="vector-effect: non-scaling-stroke; fill: none; stroke: rgb(221, 101, 182); stroke-opacity: 1; stroke-width: 1px; opacity: 1;"/></g><g class="points"/><g class="text"/></g><g class="trace scatter trace20d1aa" style="stroke-miterlimit: 2; opacity: 1;"><g class="fills"/><g class="errorbars"/><g class="lines"><path class="js-line" d="M301.74,113.99L572.57,113.99" style="vector-effect: non-scaling-stroke; fill: none; stroke: rgb(108, 159, 51); stroke-opacity: 1; stroke-width: 1px; opacity: 1;"/></g><g class="points"/><g class="text"/></g></g></g><g class="overplot"/><path class="xlines-above crisp" d="M0,0" style="fill: none;"/><path class="ylines-above crisp" d="M74.54811898512686,41.043307086614185V158.3506725409426" style="fill: none; stroke-width: 1px; stroke: rgb(0, 0, 0); stroke-opacity: 1;"/><g class="overlines-above"/><g class="xaxislayer-above"/><g class="yaxislayer-above"><path class="ytick ticks crisp" d="M75.04811898512686,0h5" transform="translate(0,155.03330708661417)" style="stroke: rgb(0, 0, 0); stroke-opacity: 1; stroke-width: 1px;"/><path class="ytick ticks crisp" d="M75.04811898512686,0h5" transform="translate(0,138.27330708661418)" style="stroke: rgb(0, 0, 0); stroke-opacity: 1; stroke-width: 1px;"/><path class="ytick ticks crisp" d="M75.04811898512686,0h5" transform="translate(0,121.51330708661419)" style="stroke: rgb(0, 0, 0); stroke-opacity: 1; stroke-width: 1px;"/><path class="ytick ticks crisp" d="M75.04811898512686,0h5" transform="translate(0,104.75330708661419)" style="stroke: rgb(0, 0, 0); stroke-opacity: 1; stroke-width: 1px;"/><path class="ytick ticks crisp" d="M75.04811898512686,0h5" transform="translate(0,88.00330708661419)" style="stroke: rgb(0, 0, 0); stroke-opacity: 1; stroke-width: 1px;"/><path class="ytick ticks crisp" d="M75.04811898512686,0h5" transform="translate(0,71.24330708661418)" style="stroke: rgb(0, 0, 0); stroke-opacity: 1; stroke-width: 1px;"/><path class="ytick ticks crisp" d="M75.04811898512686,0h5" transform="translate(0,54.48330708661418)" style="stroke: rgb(0, 0, 0); stroke-opacity: 1; stroke-width: 1px;"/><g class="ytick"><text text-anchor="end" x="71.84811898512686" y="3.8499999999999996" transform="translate(0,155.03330708661417)" style="font-family: sans-serif; font-size: 11px; fill: rgb(0, 0, 0); fill-opacity: 1; white-space: pre; opacity: 1;">0</text></g><g class="ytick"><text text-anchor="end" x="71.84811898512686" y="3.8499999999999996" style="font-family: sans-serif; font-size: 11px; fill: rgb(0, 0, 0); fill-opacity: 1; white-space: pre; opacity: 1;" transform="translate(0,138.27330708661418)">2.00×10⁴</text></g><g class="ytick"><text text-anchor="end" x="71.84811898512686" y="3.8499999999999996" style="font-family: sans-serif; font-size: 11px; fill: rgb(0, 0, 0); fill-opacity: 1; white-space: pre; opacity: 1;" transform="translate(0,121.51330708661419)">4.00×10⁴</text></g><g class="ytick"><text text-anchor="end" x="71.84811898512686" y="3.8499999999999996" style="font-family: sans-serif; font-size: 11px; fill: rgb(0, 0, 0); fill-opacity: 1; white-space: pre; opacity: 1;" transform="translate(0,104.75330708661419)">6.00×10⁴</text></g><g class="ytick"><text text-anchor="end" x="71.84811898512686" y="3.8499999999999996" style="font-family: sans-serif; font-size: 11px; fill: rgb(0, 0, 0); fill-opacity: 1; white-space: pre; opacity: 1;" transform="translate(0,88.00330708661419)">8.00×10⁴</text></g><g class="ytick"><text text-anchor="end" x="71.84811898512686" y="3.8499999999999996" style="font-family: sans-serif; font-size: 11px; fill: rgb(0, 0, 0); fill-opacity: 1; white-space: pre; opacity: 1;" transform="translate(0,71.24330708661418)">1.00×10⁵</text></g><g class="ytick"><text text-anchor="end" x="71.84811898512686" y="3.8499999999999996" style="font-family: sans-serif; font-size: 11px; fill: rgb(0, 0, 0); fill-opacity: 1; white-space: pre; opacity: 1;" transform="translate(0,54.48330708661418)">1.20×10⁵</text></g></g><g class="overaxes-above"/></g><g class="subplot xy2"><g class="layer-subplot"><g class="shapelayer"/><g class="imagelayer"/></g><g class="gridlayer"><g class="x"><path class="xgrid crisp" transform="translate(93.18811898512686,0)" d="M0,192.93728671417094v117.30736545432843" style="stroke: rgb(0, 0, 0); stroke-opacity: 0.1; stroke-width: 0.5px;"/><path class="xgrid crisp" transform="translate(118.38811898512687,0)" d="M0,192.93728671417094v117.30736545432843" style="stroke: rgb(0, 0, 0); stroke-opacity: 0.1; stroke-width: 0.5px;"/><path class="xgrid crisp" transform="translate(143.58811898512687,0)" d="M0,192.93728671417094v117.30736545432843" style="stroke: rgb(0, 0, 0); stroke-opacity: 0.1; stroke-width: 0.5px;"/><path class="xgrid crisp" transform="translate(168.77811898512687,0)" d="M0,192.93728671417094v117.30736545432843" style="stroke: rgb(0, 0, 0); stroke-opacity: 0.1; stroke-width: 0.5px;"/><path class="xgrid crisp" transform="translate(193.97811898512686,0)" d="M0,192.93728671417094v117.30736545432843" style="stroke: rgb(0, 0, 0); stroke-opacity: 0.1; stroke-width: 0.5px;"/><path class="xgrid crisp" transform="translate(219.17811898512684,0)" d="M0,192.93728671417094v117.30736545432843" style="stroke: rgb(0, 0, 0); stroke-opacity: 0.1; stroke-width: 0.5px;"/><path class="xgrid crisp" transform="translate(244.36811898512684,0)" d="M0,192.93728671417094v117.30736545432843" style="stroke: rgb(0, 0, 0); stroke-opacity: 0.1; stroke-width: 0.5px;"/><path class="xgrid crisp" transform="translate(269.5681189851269,0)" d="M0,192.93728671417094v117.30736545432843" style="stroke: rgb(0, 0, 0); stroke-opacity: 0.1; stroke-width: 0.5px;"/><path class="xgrid crisp" transform="translate(294.7681189851269,0)" d="M0,192.93728671417094v117.30736545432843" style="stroke: rgb(0, 0, 0); stroke-opacity: 0.1; stroke-width: 0.5px;"/><path class="xgrid crisp" transform="translate(319.96811898512686,0)" d="M0,192.93728671417094v117.30736545432843" style="stroke: rgb(0, 0, 0); stroke-opacity: 0.1; stroke-width: 0.5px;"/><path class="xgrid crisp" transform="translate(345.15811898512686,0)" d="M0,192.93728671417094v117.30736545432843" style="stroke: rgb(0, 0, 0); stroke-opacity: 0.1; stroke-width: 0.5px;"/><path class="xgrid crisp" transform="translate(370.35811898512685,0)" d="M0,192.93728671417094v117.30736545432843" style="stroke: rgb(0, 0, 0); stroke-opacity: 0.1; stroke-width: 0.5px;"/><path class="xgrid crisp" transform="translate(395.55811898512684,0)" d="M0,192.93728671417094v117.30736545432843" style="stroke: rgb(0, 0, 0); stroke-opacity: 0.1; stroke-width: 0.5px;"/><path class="xgrid crisp" transform="translate(420.74811898512684,0)" d="M0,192.93728671417094v117.30736545432843" style="stroke: rgb(0, 0, 0); stroke-opacity: 0.1; stroke-width: 0.5px;"/><path class="xgrid crisp" transform="translate(445.9481189851268,0)" d="M0,192.93728671417094v117.30736545432843" style="stroke: rgb(0, 0, 0); stroke-opacity: 0.1; stroke-width: 0.5px;"/><path class="xgrid crisp" transform="translate(471.14811898512687,0)" d="M0,192.93728671417094v117.30736545432843" style="stroke: rgb(0, 0, 0); stroke-opacity: 0.1; stroke-width: 0.5px;"/><path class="xgrid crisp" transform="translate(496.34811898512686,0)" d="M0,192.93728671417094v117.30736545432843" style="stroke: rgb(0, 0, 0); stroke-opacity: 0.1; stroke-width: 0.5px;"/><path class="xgrid crisp" transform="translate(521.5381189851269,0)" d="M0,192.93728671417094v117.30736545432843" style="stroke: rgb(0, 0, 0); stroke-opacity: 0.1; stroke-width: 0.5px;"/><path class="xgrid crisp" transform="translate(546.7381189851269,0)" d="M0,192.93728671417094v117.30736545432843" style="stroke: rgb(0, 0, 0); stroke-opacity: 0.1; stroke-width: 0.5px;"/><path class="xgrid crisp" transform="translate(571.9381189851268,0)" d="M0,192.93728671417094v117.30736545432843" style="stroke: rgb(0, 0, 0); stroke-opacity: 0.1; stroke-width: 0.5px;"/><path class="xgrid crisp" transform="translate(597.1281189851269,0)" d="M0,192.93728671417094v117.30736545432843" style="stroke: rgb(0, 0, 0); stroke-opacity: 0.1; stroke-width: 0.5px;"/><path class="xgrid crisp" transform="translate(622.3281189851268,0)" d="M0,192.93728671417094v117.30736545432843" style="stroke: rgb(0, 0, 0); stroke-opacity: 0.1; stroke-width: 0.5px;"/><path class="xgrid crisp" transform="translate(647.5281189851269,0)" d="M0,192.93728671417094v117.30736545432843" style="stroke: rgb(0, 0, 0); stroke-opacity: 0.1; stroke-width: 0.5px;"/><path class="xgrid crisp" transform="translate(672.7281189851268,0)" d="M0,192.93728671417094v117.30736545432843" style="stroke: rgb(0, 0, 0); stroke-opacity: 0.1; stroke-width: 0.5px;"/><path class="xgrid crisp" transform="translate(697.9181189851269,0)" d="M0,192.93728671417094v117.30736545432843" style="stroke: rgb(0, 0, 0); stroke-opacity: 0.1; stroke-width: 0.5px;"/></g><g class="y2"><path class="y2grid crisp" transform="translate(0,306.9272867141709)" d="M75.04811898512686,0h641.0148731408574" style="stroke: rgb(0, 0, 0); stroke-opacity: 0.1; stroke-width: 0.5px;"/><path class="y2grid crisp" transform="translate(0,284.07728671417095)" d="M75.04811898512686,0h641.0148731408574" style="stroke: rgb(0, 0, 0); stroke-opacity: 0.1; stroke-width: 0.5px;"/><path class="y2grid crisp" transform="translate(0,261.22728671417093)" d="M75.04811898512686,0h641.0148731408574" style="stroke: rgb(0, 0, 0); stroke-opacity: 0.1; stroke-width: 0.5px;"/><path class="y2grid crisp" transform="translate(0,238.38728671417095)" d="M75.04811898512686,0h641.0148731408574" style="stroke: rgb(0, 0, 0); stroke-opacity: 0.1; stroke-width: 0.5px;"/><path class="y2grid crisp" transform="translate(0,215.53728671417093)" d="M75.04811898512686,0h641.0148731408574" style="stroke: rgb(0, 0, 0); stroke-opacity: 0.1; stroke-width: 0.5px;"/></g></g><g class="zerolinelayer"/><path class="xlines-below"/><path class="ylines-below"/><g class="overlines-below"/><g class="xaxislayer-below"/><g class="yaxislayer-below"/><g class="overaxes-below"/><g class="plot" transform="translate(75.04811898512686,192.93728671417094)" clip-path="url(#clip8e5977xy2plot)"><g class="scatterlayer mlayer"><g class="trace scatter trace205aac" style="stroke-miterlimit: 2; opacity: 1;"><g class="fills"/><g class="errorbars"/><g class="lines"><path class="js-line" d="M18.14,113.99L93.73,113.99L93.73,113.18L106.33,113.48L106.33,113.93L118.93,113.99L118.93,113.11L131.53,113.47L131.53,113.94L194.52,113.99L194.52,113.09L207.12,113.48L207.12,113.94L276.83,113.59L276.83,112.97L289.43,113.68L289.43,113.99L345.7,113.99L345.7,113.16L358.3,113.49L358.3,113.86L421.3,113.99L421.3,113.07L433.89,113.48L433.89,113.93L616.99,113.99L616.99,113.99" style="vector-effect: non-scaling-stroke; fill: none; stroke: rgb(0, 154, 250); stroke-opacity: 1; stroke-width: 1px; opacity: 1;"/></g><g class="points"/><g class="text"/></g><g class="trace scatter trace466942" style="stroke-miterlimit: 2; opacity: 1;"><g class="fills"/><g class="errorbars"/><g class="lines"><path class="js-line" d="M18.14,113.99L87.85,113.58L87.85,112.99L93.73,112.99L93.73,113.77L409.54,113.99L409.54,113.99" style="vector-effect: non-scaling-stroke; fill: none; stroke: rgb(227, 111, 71); stroke-opacity: 1; stroke-width: 1px; opacity: 1;"/></g><g class="points"/><g class="text"/></g><g class="trace scatter trace1007ce" style="stroke-miterlimit: 2; opacity: 1;"><g class="fills"/><g class="errorbars"/><g class="lines"><path class="js-line" d="M18.14,111.38L18.98,111.38L18.98,51.7L19.82,51.7L19.82,54.16L20.66,54.16L20.66,44.98L21.5,44.98L21.5,42.9L22.34,42.9L22.34,51.97L23.18,51.97L23.18,50.27L24.02,50.27L24.02,28.54L24.86,28.54L24.86,24.18L27.38,24.83L27.38,26.88L28.22,26.88L28.22,49.52L29.06,49.52L29.06,24.18L30.74,24.8L30.74,21.24L31.58,21.24L31.58,28.54L32.42,28.54L32.42,32.52L33.26,32.52L33.26,24.68L34.1,24.68L34.1,37.16L34.94,37.16L34.94,47.12L36.62,46.96L36.62,29.07L37.46,29.07L37.46,42.14L38.3,42.14L38.3,86.07L39.14,86.07L39.14,74.72L39.98,74.72L39.98,82.78L40.82,82.78L40.82,81.05L41.66,81.05L41.66,70.95L42.5,70.95L42.5,46.71L43.34,46.71L43.34,21.14L44.18,21.14L44.18,24.92L46.7,25.1L46.7,35.42L47.54,35.42L47.54,24.76L48.38,24.76L48.38,21.05L50.06,21.14L50.06,25.85L50.9,25.85L50.9,61.98L51.74,61.98L51.74,25.24L52.58,25.24L52.58,73.17L53.42,73.17L53.42,93.38L54.26,93.38L54.26,86.01L55.1,86.01L55.1,89.78L55.94,89.78L55.94,59.21L56.78,59.21L56.78,89.34L57.62,89.34L57.62,83.52L58.46,83.52L58.46,56.87L59.3,56.87L59.3,24.91L61.82,24.76L61.82,23.05L62.66,23.05L62.66,72.01L63.5,72.01L63.5,40.6L64.34,40.6L64.34,24.83L66.02,24.37L66.02,32.65L67.7,32.14L67.7,27.2L68.54,27.2L68.54,53.87L69.38,53.87L69.38,51.08L70.22,51.08L70.22,58.12L71.06,58.12L71.06,40.58L71.9,40.58L71.9,31.88L72.74,31.88L72.74,24.91L73.58,24.91L73.58,24.03L74.42,24.03L74.42,21.43L75.26,21.43L75.26,39.89L76.1,39.89L76.1,24.83L78.62,24.83L78.62,31.98L80.29,32.26L80.29,25.84L81.13,25.84L81.13,81.42L81.97,81.42L81.97,89.7L82.81,89.7L82.81,42.78L83.65,42.78L83.65,24.83L86.17,24.83L86.17,36.14L87.01,36.14L87.01,12.8L87.85,12.8L87.85,21.18L88.69,21.18L88.69,24.92L90.37,25.05L90.37,51.35L91.21,51.35L91.21,24.83L92.05,24.83L92.05,69.91L92.89,69.91L92.89,85.55L93.73,85.55L93.73,44.13L94.57,44.13L94.57,24.92L96.25,24.82L96.25,24.05L97.09,24.05L97.09,24.92L97.93,24.92L97.93,63.03L98.77,63.03L98.77,24.83L99.61,24.83L99.61,21.1L100.45,21.1L100.45,24.81L101.29,24.81L101.29,39.44L102.13,39.44L102.13,25.78L102.97,25.78L102.97,50.84L103.81,50.84L103.81,51.63L104.65,51.63L104.65,35.97L105.49,35.97L105.49,24.08L106.33,24.08L106.33,21.21L107.17,21.21L107.17,25.03L108.01,25.03L108.01,36.5L108.85,36.5L108.85,32.08L109.69,32.08L109.69,24.18L111.37,24.89L111.37,32.56L112.21,32.56L112.21,28.54L113.05,28.54L113.05,26.25L113.89,26.25L113.89,54.08L114.73,54.08L114.73,43.09L115.57,43.09L115.57,24.92L119.77,25.01L119.77,35.51L120.61,35.51L120.61,24.83L123.13,24.98L123.13,43.06L123.97,43.06L123.97,25.11L124.81,25.11L124.81,62.4L125.65,62.4L125.65,85.11L126.49,85.11L126.49,49.62L128.17,48.88L128.17,57.11L129.01,57.11L129.01,70.25L129.85,70.25L129.85,36.67L130.69,36.67L130.69,31.61L131.53,31.61L131.53,21.11L132.37,21.11L132.37,24.18L134.05,24.83L134.05,36.34L134.89,36.34L134.89,24.92L136.57,24.82L136.57,24.05L137.41,24.05L137.41,27.09L138.25,27.09L138.25,49.45L139.09,49.45L139.09,24.83L139.93,24.83L139.93,82.06L140.77,82.06L140.77,86.53L142.45,87.09L142.45,88.59L143.29,88.59L143.29,76.37L144.13,76.37L144.13,21.14L144.97,21.14L144.97,24.83L147.49,24.83L147.49,47.77L148.33,47.77L148.33,24.79L149.17,24.79L149.17,21.1L150.85,21.03L150.85,43.38L151.69,43.38L151.69,40.03L152.53,40.03L152.53,30.65L153.37,30.65L153.37,92.3L154.21,92.3L154.21,76.99L155.05,76.99L155.05,75.93L155.89,75.93L155.89,42.24L156.73,42.24L156.73,32.32L157.57,32.32L157.57,40.97L158.41,40.97L158.41,67.61L159.25,67.61L159.25,98.22L160.09,98.22L160.09,88.64L160.93,88.64L160.93,80.14L161.77,80.14L161.77,88.58L162.61,88.58L162.61,84.26L163.45,84.26L163.45,62.58L164.29,62.58L164.29,78.45L165.13,78.45L165.13,55.29L165.97,55.29L165.97,89L167.64,88.96L167.64,85.1L168.48,85.1L168.48,77L169.32,77L169.32,36.89L170.16,36.89L170.16,21.11L171,21.11L171,24.91L172.68,24.34L172.68,28.61L173.52,28.61L173.52,32.4L174.36,32.4L174.36,24.8L175.2,24.8L175.2,21.14L176.04,21.14L176.04,24.83L176.88,24.83L176.88,43.22L177.72,43.22L177.72,24.83L178.56,24.83L178.56,47.97L179.4,47.97L179.4,38.25L180.24,38.25L180.24,46L181.08,46L181.08,43.03L181.92,43.03L181.92,32.45L182.76,32.45L182.76,55.71L183.6,55.71L183.6,47.83L184.44,47.83L184.44,39.9L185.28,39.9L185.28,31.31L186.12,31.31L186.12,24.83L187.8,24.79L187.8,21.21L188.64,21.21L188.64,32.75L189.48,32.75L189.48,35.97L190.32,35.97L190.32,24.18L192,24.83L192,25.12L192.84,25.12L192.84,37.35L193.68,37.35L193.68,38.88L194.52,38.88L194.52,28.86L195.36,28.86L195.36,51.78L196.2,51.78L196.2,47.4L197.04,47.4L197.04,58.26L197.88,58.26L197.88,44.21L198.72,44.21L198.72,40.55L199.56,40.55L199.56,58.09L200.4,58.09L200.4,47.92L201.24,47.92L201.24,42.31L202.08,42.31L202.08,53.52L202.92,53.52L202.92,61.98L203.76,61.98L203.76,24.18L207.96,24.89L207.96,31.73L208.8,31.73L208.8,24.83L211.32,24.83L211.32,43.96L212.16,43.96L212.16,25.17L213,25.17L213,32.39L213.84,32.39L213.84,48.04L214.68,48.04L214.68,44.04L215.52,44.04L215.52,50.65L216.36,50.65L216.36,43.4L217.2,43.4L217.2,40.41L219.72,40.4L219.72,38.55L220.56,38.55L220.56,24.86L221.4,24.86L221.4,30.11L222.24,30.11L222.24,82.15L223.08,82.15L223.08,87.54L223.92,87.54L223.92,84.74L224.76,84.74L224.76,95.71L225.6,95.71L225.6,91.85L226.44,91.85L226.44,99.13L228.96,98.82L228.96,95.4L229.8,95.4L229.8,40.69L230.64,40.69L230.64,47.11L231.48,47.11L231.48,48.06L232.32,48.06L232.32,54.15L233.16,54.15L233.16,40.63L234,40.63L234,47.16L234.84,47.16L234.84,51.63L235.68,51.63L235.68,35.97L236.52,35.97L236.52,24.91L237.36,24.91L237.36,24.03L238.2,24.03L238.2,21.24L239.04,21.24L239.04,29.16L239.88,29.16L239.88,39.56L240.72,39.56L240.72,24.9L241.56,24.9L241.56,24.1L242.4,24.1L242.4,24.92L244.92,24.76L244.92,21.15L245.76,21.15L245.76,24.11L246.6,24.11L246.6,24.94L248.28,25.55L248.28,24.18L250.8,24.76L250.8,21.17L251.64,21.17L251.64,24.83L257.51,24.86L257.51,21.2L258.35,21.2L258.35,25.55L259.19,25.55L259.19,24.22L260.03,24.22L260.03,26.37L260.87,26.37L260.87,24.95L263.39,24.82L263.39,21.21L264.23,21.21L264.23,24.83L266.75,24.83L266.75,25.75L267.59,25.75L267.59,58.26L268.43,58.26L268.43,75.27L269.27,75.27L269.27,88.09L270.11,88.09L270.11,25.55L272.63,25.07L272.63,29.37L273.47,29.37L273.47,26.25L274.31,26.25L274.31,24.92L275.99,24.79L275.99,21.14L276.83,21.14L276.83,24.9L277.67,24.9L277.67,24.11L278.51,24.11L278.51,25.64L279.35,25.64L279.35,24.19L281.03,24.84L281.03,25.63L281.87,25.63L281.87,24.07L282.71,24.07L282.71,21.15L283.55,21.15L283.55,24.92L288.59,24.83L288.59,21.11L289.43,21.11L289.43,24.92L291.95,24.96L291.95,26.37L292.79,26.37L292.79,24.83L295.31,24.79L295.31,21.18L296.15,21.18L296.15,28.69L296.99,28.69L296.99,24.83L300.35,25.55L300.35,28.45L301.19,28.45L301.19,43.4L302.03,43.4L302.03,61.77L302.87,61.77L302.87,66.18L303.71,66.18L303.71,49.81L304.55,49.81L304.55,59.27L305.39,59.27L305.39,58.16L306.23,58.16L306.23,47.82L307.07,47.82L307.07,59.57L307.91,59.57L307.91,39.8L308.75,39.8L308.75,47.03L309.59,47.03L309.59,52.61L311.27,51.96L311.27,48L312.11,48L312.11,43.47L312.95,43.47L312.95,51.74L313.79,51.74L313.79,40.85L314.63,40.85L314.63,50.8L315.47,50.8L315.47,49.69L316.31,49.69L316.31,60.23L317.15,60.23L317.15,48.16L318.83,48.35L318.83,52.35L319.67,52.35L319.67,56.87L320.51,56.87L320.51,44.54L321.35,44.54L321.35,59.72L322.19,59.72L322.19,58.15L323.03,58.15L323.03,44.38L323.87,44.38L323.87,48.42L324.71,48.42L324.71,54.57L325.55,54.57L325.55,55.34L326.39,55.34L326.39,39.39L327.23,39.39L327.23,57.8L328.07,57.8L328.07,56.87L328.91,56.87L328.91,46.87L329.75,46.87L329.75,56.46L330.59,56.46L330.59,47.33L331.43,47.33L331.43,59.72L332.27,59.72L332.27,58.11L333.11,58.11L333.11,40.23L333.95,40.23L333.95,54.31L334.79,54.31L334.79,63.59L335.63,63.59L335.63,47.12L336.47,47.12L336.47,52.08L337.31,52.08L337.31,55.08L338.15,55.08L338.15,47.87L338.99,47.87L338.99,73.36L339.83,73.36L339.83,65.72L340.67,65.72L340.67,73.04L341.51,73.04L341.51,70.81L342.34,70.81L342.34,54.41L343.18,54.41L343.18,75.19L344.02,75.19L344.02,73.01L344.86,73.01L344.86,59.92L345.7,59.92L345.7,65.69L346.54,65.69L346.54,59.25L347.38,59.25L347.38,66.17L348.22,66.17L348.22,71.28L349.06,71.28L349.06,48.2L349.9,48.2L349.9,65.71L350.74,65.71L350.74,67.63L351.58,67.63L351.58,52.33L352.42,52.33L352.42,71.16L353.26,71.16L353.26,68L354.1,68L354.1,70.82L354.94,70.82L354.94,58.25L355.78,58.25L355.78,74.39L356.62,74.39L356.62,65.3L357.46,65.3L357.46,60.72L358.3,60.72L358.3,71.02L359.14,71.02L359.14,63.13L359.98,63.13L359.98,48.82L360.82,48.82L360.82,61.53L361.66,61.53L361.66,62.45L362.5,62.45L362.5,59.51L363.34,59.51L363.34,67.13L364.18,67.13L364.18,58.34L365.02,58.34L365.02,64.33L365.86,64.33L365.86,72.68L366.7,72.68L366.7,63.1L367.54,63.1L367.54,60.16L368.38,60.16L368.38,67.28L369.22,67.28L369.22,64.01L370.06,64.01L370.06,67.45L370.9,67.45L370.9,62.85L371.74,62.85L371.74,54.76L372.58,54.76L372.58,67.21L373.42,67.21L373.42,58.21L374.26,58.21L374.26,52.22L375.1,52.22L375.1,59.92L375.94,59.92L375.94,62.14L376.78,62.14L376.78,47.74L377.62,47.74L377.62,62.07L378.46,62.07L378.46,67.21L379.3,67.21L379.3,58.4L380.14,58.4L380.14,74.75L380.98,74.75L380.98,69.29L381.82,69.29L381.82,56.04L382.66,56.04L382.66,61.63L383.5,61.63L383.5,63.93L384.34,63.93L384.34,59.27L386.02,58.52L386.02,72.57L386.86,72.57L386.86,60.46L387.7,60.46L387.7,63.5L388.54,63.5L388.54,65.89L389.38,65.89L389.38,47.99L390.22,47.99L390.22,63.73L391.06,63.73L391.06,65.49L391.9,65.49L391.9,54.82L392.74,54.82L392.74,73.61L393.58,73.61L393.58,75.57L394.42,75.57L394.42,58.3L395.26,58.3L395.26,66.97L396.1,66.97L396.1,62.45L396.94,62.45L396.94,56.02L397.78,56.02L397.78,63.16L398.62,63.16L398.62,61.88L399.46,61.88L399.46,56.23L400.3,56.23L400.3,65.71L401.98,65.79L401.98,52.14L402.82,52.14L402.82,67.85L403.66,67.85L403.66,74.03L404.5,74.03L404.5,58.42L405.34,58.42L405.34,67.65L406.18,67.65L406.18,70.52L407.02,70.52L407.02,54.57L407.86,54.57L407.86,69L408.7,69L408.7,63.78L409.54,63.78L409.54,57L410.38,57L410.38,72.6L411.22,72.6L411.22,63.16L412.06,63.16L412.06,62L412.9,62L412.9,63.53L413.74,63.53L413.74,65.76L414.58,65.76L414.58,52.56L415.42,52.56L415.42,69.32L416.26,69.32L416.26,63.13L417.1,63.13L417.1,60.26L417.94,60.26L417.94,70.84L418.78,70.84L418.78,61.9L419.62,61.9L419.62,59.75L420.46,59.75L420.46,58.86L421.3,58.86L421.3,53.4L422.14,53.4L422.14,65.86L422.98,65.86L422.98,70.78L423.82,70.78L423.82,63.93L424.66,63.93L424.66,59.73L425.5,59.73L425.5,69.31L426.34,69.31L426.34,63.47L427.18,63.47L427.18,58.4L428.02,58.4L428.02,74.93L428.86,74.93L428.86,61.98L429.69,61.98L429.69,65.19L430.53,65.19L430.53,66.63L431.37,66.63L431.37,56.94L432.21,56.94L432.21,61.88L433.05,61.88L433.05,67.41L433.89,67.41L433.89,48.2L434.73,48.2L434.73,65.72L435.57,65.72L435.57,68.9L436.41,68.9L436.41,60.44L437.25,60.44L437.25,63.77L438.09,63.77L438.09,70.18L438.93,70.18L438.93,50.97L439.77,50.97L439.77,60.2L440.61,60.2L440.61,68.73L441.45,68.73L441.45,63.1L442.29,63.1L442.29,78.13L443.13,78.13L443.13,70.8L443.97,70.8L443.97,58.52L444.81,58.52L444.81,70.89L445.65,70.89L445.65,56.03L446.49,56.03L446.49,60.61L447.33,60.61L447.33,76.09L448.17,76.09L448.17,64.31L449.01,64.31L449.01,71.6L450.69,72.15L450.69,58.21L451.53,58.21L451.53,56.14L452.37,56.14L452.37,72.64L453.21,72.64L453.21,45.9L454.05,45.9L454.05,92.9L455.73,92.87L455.73,73.12L456.57,73.12L456.57,55.25L457.41,55.25L457.41,86.96L458.25,86.96L458.25,67.93L459.09,67.93L459.09,75.06L459.93,75.06L459.93,86.34L460.77,86.34L460.77,66.95L461.61,66.95L461.61,61.96L462.45,61.96L462.45,60.06L463.29,60.06L463.29,71.55L464.13,71.55L464.13,75.14L464.97,75.14L464.97,73.13L466.65,72.81L466.65,75.94L468.33,75.8L468.33,27.35L469.17,27.35L469.17,3.32L470.01,3.32L470.01,55.87L470.85,55.87L470.85,74.76L471.69,74.76L471.69,79.72L472.53,79.72L472.53,90.56L473.37,90.56L473.37,32.55L474.21,32.55L474.21,67.07L475.05,67.07L475.05,70.62L475.89,70.62L475.89,91.45L476.73,91.45L476.73,94.73L477.57,94.73L477.57,90L478.41,90L478.41,89.22L479.25,89.22L479.25,48.88L480.09,48.88L480.09,93.97L480.93,93.97L480.93,83.81L481.77,83.81L481.77,88.22L482.61,88.22L482.61,78.07L483.45,78.07L483.45,82.56L484.29,82.56L484.29,39.08L485.13,39.08L485.13,73.58L485.97,73.58L485.97,89.46L486.81,89.46L486.81,79.2L487.65,79.2L487.65,28.82L488.49,28.82L488.49,50.66L489.33,50.66L489.33,32.41L490.17,32.41L490.17,47.76L491.01,47.76L491.01,51.82L491.85,51.82L491.85,39.31L492.69,39.31L492.69,28.48L493.53,28.48L493.53,24.92L496.89,24.83L496.89,20.27L497.73,20.27L497.73,21.21L498.57,21.21L498.57,24.83L501.93,24.21L501.93,25.55L502.77,25.55L502.77,20.37L503.61,20.37L503.61,24.83L509.49,24.83L509.49,21.11L510.33,21.11L510.33,24.18L514.53,24.82L514.53,24.06L515.37,24.06L515.37,21.14L516.21,21.14L516.21,24.92L527.96,24.79L527.96,20.41L528.8,20.41L528.8,24.83L533.84,24.76L533.84,21.05L535.52,21.14L535.52,24.92L540.56,24.55L540.56,13.77L541.4,13.77L541.4,24.18L547.28,24.89L547.28,28.66L548.12,28.66L548.12,24.83L559.04,24.91L559.04,24.03L559.88,24.03L559.88,21.18L560.72,21.18L560.72,24.92L564.08,24.83L564.08,24.08L564.92,24.08L564.92,21.11L565.76,21.11L565.76,28.73L566.6,28.73L566.6,24.92L572.48,24.84L572.48,20.44L573.32,20.44L573.32,24.83L577.52,24.83L577.52,23.9L578.36,23.9L578.36,13.68L579.2,13.68L579.2,24.92L590.96,24.83L590.96,27.98L591.8,27.98L591.8,24.83L596.84,24.83L596.84,25.02L597.68,25.02L597.68,28.47L598.52,28.47L598.52,21.16L599.36,21.16L599.36,24.19L610.27,24.73L610.27,13.59L611.11,13.59L611.11,24.83L616.15,24.8L616.15,21.14L616.99,21.14L616.99,24.83L622.03,24.82L622.03,27.15L622.87,27.15L622.87,113.99" style="vector-effect: non-scaling-stroke; fill: none; stroke: rgb(62, 164, 78); stroke-opacity: 1; stroke-width: 1px; opacity: 1;"/></g><g class="points"/><g class="text"/></g><g class="trace scatter tracec761d0" style="stroke-miterlimit: 2; opacity: 1;"><g class="fills"/><g class="errorbars"/><g class="lines"><path class="js-line" d="M18.14,113.1L18.98,113.1L18.98,92.75L22.34,92.66L22.34,93.61L23.18,93.61L23.18,92.36L24.02,92.36L24.02,89.92L24.86,89.92L24.86,92.65L25.7,92.65L25.7,93.62L26.54,93.62L26.54,92.57L28.22,92.76L28.22,93.34L30.74,93.13L30.74,89.43L31.58,89.43L31.58,94.12L32.42,94.12L32.42,91.86L33.26,91.86L33.26,93.35L36.62,93.66L36.62,92.57L37.46,92.57L37.46,93.38L38.3,93.38L38.3,99.05L39.14,99.05L39.14,101.41L39.98,101.41L39.98,103.4L40.82,103.4L40.82,98.75L41.66,98.75L41.66,96.89L42.5,96.89L42.5,90.24L43.34,90.24L43.34,83.55L44.18,83.55L44.18,92.91L47.54,92.67L47.54,93.71L49.22,93.21L49.22,89.24L50.06,89.24L50.06,93.57L50.9,93.57L50.9,100.03L51.74,100.03L51.74,93.05L52.58,93.05L52.58,99.82L55.1,99.27L55.1,94.78L55.94,94.78L55.94,93.58L56.78,93.58L56.78,101.02L57.62,101.02L57.62,102.12L58.46,102.12L58.46,96.03L59.3,96.03L59.3,93.48L60.14,93.48L60.14,92.62L61.82,93.29L61.82,89.5L62.66,89.5L62.66,100.98L63.5,100.98L63.5,92.52L65.18,92.73L65.18,93.36L68.54,92.78L68.54,93.7L70.22,93.31L70.22,92.57L74.42,93.17L74.42,89.28L75.26,89.28L75.26,93.36L79.45,92.65L79.45,93.62L81.13,92.87L81.13,97.48L81.97,97.48L81.97,96L82.81,96L82.81,93.63L83.65,93.63L83.65,92.58L85.33,92.91L85.33,93.34L86.17,93.34L86.17,92.23L87.01,92.23L87.01,90.06L87.85,90.06L87.85,92.79L89.53,92.66L89.53,93.72L92.05,93.42L92.05,99.08L92.89,99.08L92.89,100.3L93.73,100.3L93.73,90.15L94.57,90.15L94.57,93.46L95.41,93.46L95.41,92.64L96.25,92.64L96.25,93.66L97.93,94.32L97.93,98.76L98.77,98.76L98.77,93.16L99.61,93.16L99.61,89.12L100.45,89.12L100.45,93.35L102.97,92.66L102.97,93.61L103.81,93.61L103.81,92.64L104.65,92.64L104.65,93.45L105.49,93.45L105.49,92.3L106.33,92.3L106.33,89.4L107.17,89.4L107.17,93.39L108.85,93.46L108.85,92.58L110.53,92.92L110.53,93.35L111.37,93.35L111.37,92.26L112.21,92.26L112.21,89.38L113.05,89.38L113.05,93.43L113.89,93.43L113.89,92.57L115.57,92.59L115.57,93.68L116.41,93.68L116.41,92.57L118.09,92.74L118.09,93.53L118.93,93.53L118.93,88.85L119.77,88.85L119.77,92.94L122.29,92.6L122.29,93.49L123.13,93.49L123.13,92.58L124.81,93.18L124.81,96.16L125.65,96.16L125.65,100.98L126.49,100.98L126.49,92.65L127.33,92.65L127.33,93.62L129.01,93.17L129.01,102.43L129.85,102.43L129.85,90.91L130.69,90.91L130.69,92.15L131.53,92.15L131.53,90.08L132.37,90.08L132.37,92.79L134.05,92.67L134.05,93.6L134.89,93.6L134.89,92.57L137.41,92.95L137.41,90.69L138.25,90.69L138.25,95.95L139.09,95.95L139.09,94.34L139.93,94.34L139.93,100.65L140.77,100.65L140.77,94.12L141.61,94.12L141.61,101.65L142.45,101.65L142.45,96.01L143.29,96.01L143.29,97.33L144.13,97.33L144.13,89.99L144.97,89.99L144.97,92.59L148.33,92.59L148.33,93.68L149.17,93.68L149.17,92.54L150.01,92.54L150.01,89.74L150.85,89.74L150.85,92.57L152.53,92.91L152.53,94.94L153.37,94.94L153.37,100.53L154.21,100.53L154.21,97.42L155.05,97.42L155.05,94.71L155.89,94.71L155.89,93.58L156.73,93.58L156.73,92.74L157.57,92.74L157.57,95.32L158.41,95.32L158.41,102.12L160.09,102.54L160.09,94.63L161.77,94.31L161.77,98.03L162.61,98.03L162.61,96.61L163.45,96.61L163.45,99.67L164.29,99.67L164.29,98.2L165.13,98.2L165.13,97.1L165.97,97.1L165.97,100.1L167.64,99.63L167.64,101.77L168.48,101.77L168.48,95.89L169.32,95.89L169.32,92.57L171,92.65L171,93.43L171.84,93.43L171.84,92.59L174.36,93.32L174.36,92.17L175.2,92.17L175.2,90.28L176.04,90.28L176.04,92.76L181.92,93.01L181.92,89.33L182.76,89.33L182.76,92.62L183.6,92.62L183.6,94.5L184.44,94.5L184.44,91.93L185.28,91.93L185.28,93.31L186.96,92.57L186.96,92.49L187.8,92.49L187.8,89.96L188.64,89.96L188.64,92.74L189.48,92.74L189.48,93.53L190.32,93.53L190.32,92.71L194.52,92.9L194.52,89.56L195.36,89.56L195.36,93.3L197.04,92.6L197.04,93.67L197.88,93.67L197.88,92.58L198.72,92.58L198.72,93.74L199.56,93.74L199.56,94.98L200.4,94.98L200.4,88.1L201.24,88.1L201.24,92.08L202.08,92.08L202.08,94.2L202.92,94.2L202.92,91.7L203.76,91.7L203.76,93.54L206.28,93.33L206.28,91.08L207.12,91.08L207.12,83.76L207.96,83.76L207.96,92.75L211.32,93.46L211.32,95.32L212.16,95.32L212.16,89.8L213,89.8L213,90.92L213.84,90.92L213.84,92.57L216.36,92.65L216.36,93.72L218.04,93.39L218.04,94.49L218.88,94.49L218.88,90.32L220.56,90.24L220.56,92.63L221.4,92.63L221.4,93.95L222.24,93.95L222.24,95.18L223.08,95.18L223.08,93.55L223.92,93.55L223.92,97.45L224.76,97.45L224.76,98.36L225.6,98.36L225.6,103.3L228.96,103.64L228.96,102.99L229.8,102.99L229.8,92.07L230.64,92.07L230.64,93.33L231.48,93.33L231.48,92.33L232.32,92.33L232.32,90.83L233.16,90.83L233.16,92.05L234,92.05L234,93.35L237.36,92.62L237.36,92.33L238.2,92.33L238.2,90.13L239.04,90.13L239.04,92.64L239.88,92.64L239.88,93.44L240.72,93.44L240.72,92.59L244.92,93.08L244.92,89.2L245.76,89.2L245.76,93.34L249.96,93.35L249.96,92.29L250.8,92.29L250.8,89.34L251.64,89.34L251.64,93.47L253.32,92.8L253.32,93.62L254.16,93.62L254.16,92.58L255.83,92.94L255.83,93.5L256.67,93.5L256.67,92.42L257.51,92.42L257.51,90.03L258.35,90.03L258.35,92.8L260.03,92.67L260.03,93.95L260.87,93.95L260.87,92.63L261.71,92.63L261.71,93.82L262.55,93.82L262.55,92.47L263.39,92.47L263.39,89.2L264.23,89.2L264.23,93.36L267.59,93.19L267.59,96.39L268.43,96.39L268.43,101.81L269.27,101.81L269.27,95.18L270.11,95.18L270.11,90.19L270.95,90.19L270.95,92.74L273.47,93.05L273.47,93.82L275.15,93.6L275.15,92.34L275.99,92.34L275.99,89.94L276.83,89.94L276.83,92.59L278.51,92.95L278.51,93.47L282.71,93.13L282.71,89.32L283.55,89.32L283.55,93.39L285.23,93.65L285.23,92.82L287.75,93.45L287.75,92.39L288.59,92.39L288.59,89.61L289.43,89.61L289.43,94.08L290.27,94.08L290.27,92.9L293.63,93.53L293.63,93.7L294.47,93.7L294.47,92.21L295.31,92.21L295.31,90.34L296.15,90.34L296.15,94.56L296.99,94.56L296.99,93.58L301.19,93.33L301.19,90.53L302.03,90.53L302.03,96.05L302.87,96.05L302.87,94.47L303.71,94.47L303.71,92.58L304.55,92.58L304.55,94.44L306.23,93.85L306.23,94.63L307.91,94.01L307.91,90.62L308.75,90.62L308.75,94.69L310.43,94.95L310.43,93.82L311.27,93.82L311.27,94.63L313.79,94.31L313.79,91.93L314.63,91.93L314.63,94.28L315.47,94.28L315.47,93.25L316.31,93.25L316.31,94.81L319.67,94.57L319.67,93.37L320.51,93.37L320.51,91.16L321.35,91.16L321.35,95.01L322.19,95.01L322.19,96.78L323.03,96.78L323.03,93.86L323.87,93.86L323.87,94.63L325.55,94.45L325.55,93.28L326.39,93.28L326.39,90.8L327.23,90.8L327.23,94.71L328.07,94.71L328.07,93.73L328.91,93.73L328.91,94.63L330.59,94.42L330.59,93.49L331.43,93.49L331.43,95.39L332.27,95.39L332.27,94.31L333.11,94.31L333.11,89.36L333.95,89.36L333.95,94.54L336.47,93.91L336.47,95.36L337.31,95.36L337.31,94.32L338.99,93.68L338.99,97.28L339.83,97.28L339.83,92.82L341.51,92.78L341.51,93.82L342.34,93.82L342.34,95.48L344.02,95.99L344.02,93.19L344.86,93.19L344.86,99.14L345.7,99.14L345.7,94.59L347.38,95.13L347.38,93.93L348.22,93.93L348.22,98.08L349.06,98.08L349.06,93.78L349.9,93.78L349.9,96.12L350.74,96.12L350.74,93.5L351.58,93.5L351.58,90.53L352.42,90.53L352.42,95.94L353.26,95.94L353.26,92.92L354.94,93.43L354.94,94.47L357.46,94.53L357.46,93.28L358.3,93.28L358.3,90.86L359.14,90.86L359.14,93.83L359.98,93.83L359.98,94.63L363.34,94.08L363.34,95.2L364.18,95.2L364.18,94.14L365.02,94.14L365.02,95.1L366.7,94.93L366.7,92.77L367.54,92.77L367.54,93.92L370.06,94.17L370.06,95.33L370.9,95.33L370.9,90.65L371.74,90.65L371.74,93.09L372.58,93.09L372.58,94.55L375.1,93.88L375.1,95.37L375.94,95.37L375.94,94.1L376.78,94.1L376.78,89L377.62,89L377.62,94.63L379.3,94.59L379.3,93.84L380.14,93.84L380.14,96.14L381.82,95.87L381.82,94.12L383.5,93.71L383.5,92.52L385.18,92.98L385.18,95.41L386.86,95.2L386.86,92.58L387.7,92.58L387.7,94.32L389.38,94.72L389.38,90.23L390.22,90.23L390.22,95.96L391.06,95.96L391.06,92.29L391.9,92.29L391.9,94.49L394.42,94.75L394.42,93.67L395.26,93.67L395.26,98.64L396.1,98.64L396.1,94.47L396.94,94.47L396.94,93.39L397.78,93.39L397.78,94.47L400.3,93.87L400.3,94.73L401.98,95.19L401.98,93.37L402.82,93.37L402.82,94.28L404.5,94.77L404.5,93.75L406.18,93.76L406.18,94.53L407.86,94.19L407.86,94.97L408.7,94.97L408.7,89.61L409.54,89.61L409.54,94.9L410.38,94.9L410.38,96.72L411.22,96.72L411.22,92.01L412.06,92.01L412.06,94.12L414.58,94.49L414.58,90.07L415.42,90.07L415.42,98.36L416.26,98.36L416.26,93.4L417.1,93.4L417.1,94.63L420.46,95.36L420.46,94.05L421.3,94.05L421.3,89.04L422.14,89.04L422.14,93.83L422.98,93.83L422.98,94.61L424.66,94.38L424.66,93.83L427.18,94.53L427.18,91.72L428.02,91.72L428.02,94.58L428.86,94.58L428.86,92.79L429.69,92.79L429.69,93.93L431.37,94.36L431.37,93.58L432.21,93.58L432.21,95.28L433.05,95.28L433.05,93.04L433.89,93.04L433.89,90.74L434.73,90.74L434.73,94.81L435.57,94.81L435.57,93.83L437.25,94.54L437.25,93.74L438.09,93.74L438.09,94.54L439.77,94.06L439.77,91.9L440.61,91.9L440.61,96.61L441.45,96.61L441.45,95.1L442.29,95.1L442.29,98.6L443.13,98.6L443.13,94.43L443.97,94.43L443.97,93.25L444.81,93.25L444.81,94.78L445.65,94.78L445.65,92.44L446.49,92.44L446.49,90.07L447.33,90.07L447.33,92.6L449.01,93.18L449.01,94.69L450.69,94.97L450.69,93.42L452.37,93.28L452.37,90.83L453.21,90.83L453.21,92.38L454.05,92.38L454.05,96.4L454.89,96.4L454.89,102.43L455.73,102.43L455.73,98.53L456.57,98.53L456.57,94.26L457.41,94.26L457.41,96.83L458.25,96.83L458.25,95.11L459.09,95.11L459.09,91.72L459.93,91.72L459.93,95.75L460.77,95.75L460.77,93.36L463.29,92.65L463.29,93.62L464.13,93.62L464.13,92.39L464.97,92.39L464.97,89.99L465.81,89.99L465.81,93.36L468.33,92.63L468.33,93.75L470.85,94.15L470.85,95.41L471.69,95.41L471.69,93.16L472.53,93.16L472.53,95.99L473.37,95.99L473.37,91.7L474.21,91.7L474.21,92.87L475.05,92.87L475.05,94.22L475.89,94.22L475.89,93.28L476.73,93.28L476.73,97.89L477.57,97.89L477.57,100.23L478.41,100.23L478.41,99.13L479.25,99.13L479.25,94.22L480.09,94.22L480.09,97.37L480.93,97.37L480.93,96.31L481.77,96.31L481.77,94.38L482.61,94.38L482.61,95.48L483.45,95.48L483.45,92.86L484.29,92.86L484.29,89.6L485.13,89.6L485.13,93.5L485.97,93.5L485.97,94.26L486.81,94.26L486.81,91.62L487.65,91.62L487.65,92.61L488.49,92.61L488.49,93.77L490.17,93.05L490.17,89.3L491.01,89.3L491.01,92.58L491.85,92.58L491.85,93.5L492.69,93.5L492.69,92.57L494.37,92.9L494.37,93.37L496.89,93.37L496.89,88.91L497.73,88.91L497.73,93.37L501.93,92.87L501.93,94.07L502.77,94.07L502.77,89.12L503.61,89.12L503.61,93.37L506.97,93.41L506.97,93.58L507.81,93.58L507.81,92.57L509.49,92.1L509.49,90.29L510.33,90.29L510.33,93.59L511.17,93.59L511.17,92.57L512.85,92.59L512.85,93.68L513.69,93.68L513.69,92.58L515.37,93.24L515.37,89.03L516.21,89.03L516.21,92.89L518.72,92.76L518.72,93.57L519.56,93.57L519.56,92.59L522.08,92.91L522.08,89.37L522.92,89.37L522.92,93.3L524.6,92.6L524.6,93.67L525.44,93.67L525.44,92.57L527.12,92.9L527.12,93.33L527.96,93.33L527.96,88.95L528.8,88.95L528.8,93.37L533.84,93.32L533.84,92.25L534.68,92.25L534.68,90.18L535.52,90.18L535.52,92.78L538.04,92.6L538.04,93.67L538.88,93.67L538.88,92.59L539.72,92.59L539.72,93.41L540.56,93.41L540.56,89.03L541.4,89.03L541.4,92.72L547.28,92.9L547.28,89.56L548.12,89.56L548.12,93.3L549.8,92.59L549.8,93.49L550.64,93.49L550.64,92.6L551.48,92.6L551.48,93.67L552.32,93.67L552.32,92.52L553.16,92.52L553.16,89.94L554,89.94L554,92.57L555.68,92.72L555.68,93.37L559.04,92.66L559.04,92.23L559.88,92.23L559.88,90.23L560.72,90.23L560.72,92.94L565.76,92.98L565.76,89.48L566.6,89.48L566.6,93.31L568.28,92.58L568.28,93.51L569.12,93.51L569.12,92.58L569.96,92.58L569.96,93.69L570.8,93.69L570.8,92.79L572.48,93.23L572.48,89.2L573.32,89.2L573.32,93.34L578.36,93.19L578.36,90.06L579.2,90.06L579.2,92.79L580.88,92.64L580.88,93.56L584.24,93.36L584.24,92.47L585.08,92.47L585.08,89.98L585.92,89.98L585.92,92.73L590.96,93.37L590.96,88.91L591.8,88.91L591.8,93.37L596.84,93.32L596.84,92.28L597.68,92.28L597.68,90.16L598.52,90.16L598.52,92.78L601.04,92.59L601.04,93.68L601.88,93.68L601.88,92.58L602.72,92.58L602.72,93.45L603.56,93.45L603.56,89L604.4,89L604.4,93.54L606.07,92.79L606.07,92.57L610.27,92.97L610.27,89.09L611.11,89.09L611.11,92.9L613.63,93.5L613.63,92.57L615.31,92.9L615.31,93.33L616.15,93.33L616.15,89.12L616.99,89.12L616.99,93.37L618.67,92.76L618.67,93.57L619.51,93.57L619.51,92.67L622.03,92.69L622.03,96.97L622.87,96.97L622.87,113.99" style="vector-effect: non-scaling-stroke; fill: none; stroke: rgb(195, 113, 210); stroke-opacity: 1; stroke-width: 1px; opacity: 1;"/></g><g class="points"/><g class="text"/></g><g class="trace scatter tracee6a1e4" style="stroke-miterlimit: 2; opacity: 1;"><g class="fills"/><g class="errorbars"/><g class="lines"><path class="js-line" d="M18.14,113.1L18.98,113.1L18.98,92.75L22.34,92.66L22.34,93.61L23.18,93.61L23.18,92.64L24.02,92.64L24.02,93.45L24.86,93.45L24.86,92.65L25.7,92.65L25.7,93.62L26.54,93.62L26.54,92.57L28.22,92.76L28.22,93.34L31.58,93.03L31.58,94.12L32.42,94.12L32.42,91.86L33.26,91.86L33.26,93.35L36.62,93.66L36.62,92.57L37.46,92.57L37.46,93.38L38.3,93.38L38.3,99.05L39.14,99.05L39.14,101.41L39.98,101.41L39.98,103.4L40.82,103.4L40.82,98.75L41.66,98.75L41.66,96.89L42.5,96.89L42.5,91.87L43.34,91.87L43.34,93.35L47.54,92.67L47.54,93.71L49.22,93.36L49.22,92.9L50.9,93.57L50.9,100.03L51.74,100.03L51.74,93.05L52.58,93.05L52.58,99.82L55.1,99.27L55.1,95.81L56.78,96.36L56.78,101.02L57.62,101.02L57.62,102.12L58.46,102.12L58.46,96.03L59.3,96.03L59.3,93.48L60.14,93.48L60.14,92.62L60.98,92.62L60.98,93.65L62.66,92.95L62.66,100.98L63.5,100.98L63.5,92.52L65.18,92.73L65.18,93.36L68.54,92.78L68.54,93.7L70.22,93.31L70.22,92.57L73.58,92.75L73.58,93.35L79.45,92.65L79.45,93.62L81.13,93.1L81.13,101.05L81.97,101.05L81.97,96L82.81,96L82.81,93.63L83.65,93.63L83.65,92.58L85.33,92.91L85.33,93.34L89.53,92.66L89.53,93.72L92.05,93.42L92.05,99.08L92.89,99.08L92.89,100.87L93.73,100.87L93.73,93.39L95.41,93.46L95.41,92.64L96.25,92.64L96.25,93.66L97.93,94.32L97.93,98.76L98.77,98.76L98.77,93.34L102.97,92.66L102.97,93.61L103.81,93.61L103.81,92.64L104.65,92.64L104.65,93.45L105.49,93.45L105.49,92.59L107.17,92.92L107.17,93.39L108.85,93.46L108.85,92.58L110.53,92.92L110.53,93.35L113.05,92.65L113.05,93.43L113.89,93.43L113.89,92.57L115.57,92.59L115.57,93.68L116.41,93.68L116.41,92.57L118.09,92.74L118.09,93.53L118.93,93.53L118.93,92.66L122.29,92.6L122.29,93.49L123.13,93.49L123.13,92.58L124.81,93.18L124.81,96.16L125.65,96.16L125.65,100.98L126.49,100.98L126.49,92.65L127.33,92.65L127.33,93.62L129.01,93.17L129.01,102.43L129.85,102.43L129.85,90.91L130.69,90.91L130.69,92.7L134.05,92.67L134.05,93.6L134.89,93.6L134.89,92.57L136.57,92.77L136.57,93.34L137.41,93.34L137.41,94.1L138.25,94.1L138.25,95.95L139.09,95.95L139.09,94.34L139.93,94.34L139.93,100.65L140.77,100.65L140.77,94.12L141.61,94.12L141.61,101.65L142.45,101.65L142.45,96.01L143.29,96.01L143.29,97.71L144.13,97.71L144.13,93.43L144.97,93.43L144.97,92.59L148.33,92.59L148.33,93.68L149.17,93.68L149.17,92.58L150.01,92.58L150.01,93.51L150.85,93.51L150.85,92.57L152.53,92.91L152.53,94.94L153.37,94.94L153.37,100.53L154.21,100.53L154.21,97.42L155.05,97.42L155.05,94.71L155.89,94.71L155.89,93.58L156.73,93.58L156.73,92.74L157.57,92.74L157.57,95.32L158.41,95.32L158.41,102.12L160.09,102.54L160.09,94.63L161.77,94.31L161.77,98.74L162.61,98.74L162.61,99.71L164.29,99.67L164.29,98.2L165.13,98.2L165.13,97.1L165.97,97.1L165.97,100.1L167.64,99.63L167.64,101.77L168.48,101.77L168.48,95.89L169.32,95.89L169.32,92.57L171,92.65L171,93.43L171.84,93.43L171.84,92.59L175.2,92.8L175.2,93.47L177.72,93.32L177.72,92.57L179.4,92.91L179.4,93.42L181.08,92.69L181.08,93.58L181.92,93.58L181.92,92.57L183.6,92.62L183.6,94.5L184.44,94.5L184.44,91.93L185.28,91.93L185.28,93.31L187.8,92.9L187.8,93.37L189.48,92.74L189.48,93.53L190.32,93.53L190.32,92.76L191.16,92.76L191.16,93.57L192,93.57L192,92.57L197.04,92.6L197.04,93.67L197.88,93.67L197.88,92.58L198.72,92.58L198.72,93.74L199.56,93.74L199.56,95.2L200.4,95.2L200.4,91.69L202.08,92.08L202.08,94.2L202.92,94.2L202.92,91.7L203.76,91.7L203.76,93.54L206.28,93.33L206.28,92.76L211.32,93.46L211.32,95.32L212.16,95.32L212.16,90.09L213,90.09L213,94.44L213.84,94.44L213.84,92.57L216.36,92.65L216.36,93.72L218.04,93.39L218.04,94.49L218.88,94.49L218.88,91.09L219.72,91.09L219.72,93.28L221.4,92.63L221.4,93.95L222.24,93.95L222.24,95.54L223.08,95.54L223.08,97.01L224.76,97.45L224.76,98.36L225.6,98.36L225.6,103.3L228.96,103.64L228.96,102.99L229.8,102.99L229.8,92.07L230.64,92.07L230.64,93.33L232.32,92.88L232.32,94.08L233.16,94.08L233.16,92.05L234,92.05L234,93.35L238.2,92.67L238.2,93.6L239.04,93.6L239.04,92.64L239.88,92.64L239.88,93.44L240.72,93.44L240.72,92.59L247.44,92.94L247.44,93.49L250.8,92.79L250.8,92.64L251.64,92.64L251.64,93.47L253.32,92.8L253.32,93.62L254.16,93.62L254.16,92.58L255.83,92.94L255.83,93.5L259.19,92.8L259.19,92.67L260.03,92.67L260.03,93.95L260.87,93.95L260.87,92.63L261.71,92.63L261.71,93.82L262.55,93.82L262.55,92.57L264.23,92.9L264.23,93.36L267.59,93.19L267.59,96.39L268.43,96.39L268.43,101.81L269.27,101.81L269.27,95.35L270.11,95.35L270.11,93.83L270.95,93.83L270.95,92.74L273.47,93.05L273.47,93.82L275.15,93.6L275.15,92.64L275.99,92.64L275.99,93.44L276.83,93.44L276.83,92.59L278.51,92.95L278.51,93.47L284.39,93.39L284.39,93.65L285.23,93.65L285.23,92.82L287.75,93.45L287.75,92.74L289.43,93.07L289.43,94.08L290.27,94.08L290.27,92.9L293.63,93.53L293.63,93.7L294.47,93.7L294.47,92.78L295.31,92.78L295.31,93.58L296.15,93.58L296.15,94.56L296.99,94.56L296.99,93.58L301.19,93.6L301.19,94.06L302.03,94.06L302.03,96.05L302.87,96.05L302.87,94.47L303.71,94.47L303.71,92.58L304.55,92.58L304.55,94.44L306.23,93.85L306.23,94.63L308.75,93.93L308.75,94.69L310.43,94.95L310.43,93.67L311.27,93.67L311.27,94.78L314.63,95.33L314.63,94.28L315.47,94.28L315.47,93.25L316.31,93.25L316.31,94.81L319.67,94.57L319.67,92.88L320.51,92.88L320.51,87.85L321.35,87.85L321.35,95.01L322.19,95.01L322.19,96.78L323.03,96.78L323.03,93.86L323.87,93.86L323.87,94.63L325.55,94.45L325.55,93.41L326.39,93.41L326.39,94.48L328.07,94.71L328.07,93.73L328.91,93.73L328.91,94.63L330.59,94.42L330.59,93.49L331.43,93.49L331.43,95.39L332.27,95.39L332.27,94.53L333.11,94.53L333.11,92.95L333.95,92.95L333.95,94.54L336.47,93.91L336.47,95.36L337.31,95.36L337.31,94.32L338.99,94.28L338.99,100.48L339.83,100.48L339.83,92.82L341.51,92.78L341.51,93.82L342.34,93.82L342.34,95.48L344.02,95.99L344.02,93.19L344.86,93.19L344.86,99.14L345.7,99.14L345.7,94.59L347.38,95.13L347.38,93.93L348.22,93.93L348.22,98.08L349.06,98.08L349.06,93.78L349.9,93.78L349.9,96.12L350.74,96.12L350.74,93.77L352.42,94.06L352.42,95.94L353.26,95.94L353.26,92.92L354.94,93.43L354.94,94.47L357.46,94.53L357.46,93.83L359.98,93.83L359.98,94.63L363.34,94.08L363.34,95.2L364.18,95.2L364.18,94.14L365.02,94.14L365.02,95.1L366.7,94.93L366.7,92.77L367.54,92.77L367.54,93.92L370.06,94.17L370.06,95.4L370.9,95.4L370.9,94.39L371.74,94.39L371.74,93.09L372.58,93.09L372.58,94.55L375.1,93.88L375.1,95.37L375.94,95.37L375.94,94.33L376.78,94.33L376.78,92.57L377.62,92.57L377.62,94.63L379.3,94.59L379.3,93.84L380.14,93.84L380.14,96.14L381.82,95.87L381.82,94.12L383.5,94.5L383.5,95.54L384.34,95.54L384.34,92.98L385.18,92.98L385.18,95.41L386.86,95.2L386.86,92.58L387.7,92.58L387.7,94.32L389.38,94.89L389.38,93.86L390.22,93.86L390.22,95.96L391.06,95.96L391.06,92.29L391.9,92.29L391.9,94.49L394.42,94.75L394.42,93.67L395.26,93.67L395.26,98.5L396.1,98.5L396.1,93.37L396.94,93.37L396.94,94.62L400.3,93.87L400.3,94.73L401.98,95.19L401.98,93.37L402.82,93.37L402.82,94.28L404.5,94.77L404.5,93.75L406.18,93.76L406.18,94.53L407.86,94.19L407.86,95.6L408.7,95.6L408.7,92.79L409.54,92.79L409.54,94.9L410.38,94.9L410.38,96.72L411.22,96.72L411.22,92.01L412.06,92.01L412.06,94.12L414.58,94.71L414.58,93.66L415.42,93.66L415.42,98.36L416.26,98.36L416.26,93.4L417.1,93.4L417.1,94.63L420.46,95.36L420.46,93.78L421.3,93.78L421.3,85.5L422.14,85.5L422.14,93.83L422.98,93.83L422.98,94.61L424.66,94.38L424.66,93.83L426.34,94.13L426.34,94.65L427.18,94.65L427.18,95.41L428.02,95.41L428.02,94.58L428.86,94.58L428.86,92.79L429.69,92.79L429.69,93.93L431.37,94.36L431.37,93.58L432.21,93.58L432.21,95.28L433.05,95.28L433.05,93.61L434.73,93.98L434.73,94.81L435.57,94.81L435.57,93.83L437.25,94.54L437.25,93.74L438.09,93.74L438.09,94.54L439.77,94.14L439.77,95.63L440.61,95.63L440.61,96.61L441.45,96.61L441.45,95.1L442.29,95.1L442.29,98.6L443.13,98.6L443.13,94.43L443.97,94.43L443.97,93.25L444.81,93.25L444.81,94.78L445.65,94.78L445.65,92.92L447.33,93.4L447.33,92.6L449.01,93.18L449.01,94.69L450.69,94.97L450.69,93.42L453.21,94.08L453.21,92.38L454.05,92.38L454.05,96.4L454.89,96.4L454.89,102.43L455.73,102.43L455.73,98.53L456.57,98.53L456.57,94.26L457.41,94.26L457.41,96.83L458.25,96.83L458.25,95.83L459.09,95.83L459.09,94.81L459.93,94.81L459.93,95.75L460.77,95.75L460.77,93.36L463.29,92.65L463.29,93.62L464.13,93.62L464.13,92.63L464.97,92.63L464.97,93.56L466.65,93.36L466.65,92.8L468.33,92.63L468.33,93.75L471.69,93.57L471.69,95.07L472.53,95.07L472.53,95.99L473.37,95.99L473.37,91.7L474.21,91.7L474.21,92.87L475.05,92.87L475.05,94.22L475.89,94.22L475.89,93.28L476.73,93.28L476.73,97.89L477.57,97.89L477.57,100.27L479.25,100.82L479.25,92.48L480.09,92.48L480.09,97.37L480.93,97.37L480.93,96.31L481.77,96.31L481.77,94.38L482.61,94.38L482.61,95.48L483.45,95.48L483.45,93.37L485.97,93.01L485.97,94.26L486.81,94.26L486.81,91.62L487.65,91.62L487.65,92.61L488.49,92.61L488.49,93.77L490.17,93.59L490.17,92.57L491.85,92.58L491.85,93.5L492.69,93.5L492.69,92.57L494.37,92.9L494.37,93.37L499.41,92.91L499.41,93.58L501.93,92.87L501.93,94.11L502.77,94.11L502.77,92.89L505.29,93.04L505.29,96.23L506.13,96.23L506.13,89.74L506.97,89.74L506.97,93.58L507.81,93.58L507.81,92.57L509.49,92.78L509.49,93.41L511.17,93.59L511.17,92.57L512.85,92.59L512.85,93.68L513.69,93.68L513.69,92.58L514.53,92.58L514.53,93.51L515.37,93.51L515.37,92.57L517.05,92.91L517.05,93.41L518.72,92.7L518.72,93.57L519.56,93.57L519.56,92.59L524.6,92.6L524.6,93.67L525.44,93.67L525.44,92.57L527.12,92.9L527.12,93.37L537.2,93.3L537.2,92.6L538.04,92.6L538.04,93.67L538.88,93.67L538.88,92.59L539.72,92.59L539.72,93.68L540.56,93.68L540.56,92.57L542.24,92.72L542.24,93.37L548.96,93.3L548.96,92.59L549.8,92.59L549.8,93.49L550.64,93.49L550.64,92.6L551.48,92.6L551.48,93.67L552.32,93.67L552.32,92.59L553.16,92.59L553.16,93.68L554,93.68L554,92.57L555.68,92.72L555.68,93.37L567.44,93.31L567.44,92.58L568.28,92.58L568.28,93.51L569.12,93.51L569.12,92.58L569.96,92.58L569.96,93.69L570.8,93.69L570.8,92.79L575.84,93.34L575.84,92.62L577.52,92.68L577.52,93.71L579.2,93.35L579.2,92.79L580.88,92.64L580.88,93.56L585.92,93.36L585.92,92.73L590.96,93.37L590.96,85.14L591.8,85.14L591.8,93.57L592.64,93.57L592.64,92.57L601.04,92.59L601.04,93.68L601.88,93.68L601.88,92.58L602.72,92.58L602.72,93.69L603.56,93.69L603.56,92.57L604.4,92.57L604.4,93.54L606.07,92.79L606.07,92.57L611.95,92.9L611.95,93.38L613.63,93.5L613.63,92.57L615.31,92.9L615.31,93.37L618.67,92.76L618.67,93.57L619.51,93.57L619.51,92.67L622.03,92.69L622.03,96.97L622.87,96.97L622.87,113.99" style="vector-effect: non-scaling-stroke; fill: none; stroke: rgb(172, 142, 24); stroke-opacity: 1; stroke-width: 1px; opacity: 1;"/></g><g class="points"/><g class="text"/></g><g class="trace scatter trace4f90e7" style="stroke-miterlimit: 2; opacity: 1;"><g class="fills"/><g class="errorbars"/><g class="lines"><path class="js-line" d="M24.02,113.99L604.4,113.96L604.4,113.99" style="vector-effect: non-scaling-stroke; fill: none; stroke: rgb(0, 170, 174); stroke-opacity: 1; stroke-width: 1px; opacity: 1;"/></g><g class="points"/><g class="text"/></g><g class="trace scatter traceb751e2" style="stroke-miterlimit: 2; opacity: 1;"><g class="fills"/><g class="errorbars"/><g class="lines"><path class="js-line" d="M29.06,113.99L220.56,113.99L220.56,113.21L226.44,112.96L226.44,113.99L616.15,113.99L616.15,113.99" style="vector-effect: non-scaling-stroke; fill: none; stroke: rgb(237, 94, 147); stroke-opacity: 1; stroke-width: 1px; opacity: 1;"/></g><g class="points"/><g class="text"/></g><g class="trace scatter trace66ef86" style="stroke-miterlimit: 2; opacity: 1;"><g class="fills"/><g class="errorbars"/><g class="lines"><path class="js-line" d="M29.9,113.99L616.15,113.99L616.15,113.99" style="vector-effect: non-scaling-stroke; fill: none; stroke: rgb(198, 130, 37); stroke-opacity: 1; stroke-width: 1px; opacity: 1;"/></g><g class="points"/><g class="text"/></g><g class="trace scatter trace8a5513" style="stroke-miterlimit: 2; opacity: 1;"><g class="fills"/><g class="errorbars"/><g class="lines"><path class="js-line" d="M29.9,113.99L529.64,113.37L529.64,112.84L534.68,112.84L534.68,113.88L616.15,113.99L616.15,113.99" style="vector-effect: non-scaling-stroke; fill: none; stroke: rgb(0, 169, 141); stroke-opacity: 1; stroke-width: 1px; opacity: 1;"/></g><g class="points"/><g class="text"/></g><g class="trace scatter trace4eb527" style="stroke-miterlimit: 2; opacity: 1;"><g class="fills"/><g class="errorbars"/><g class="lines"><path class="js-line" d="M30.74,113.99L447.33,113.98L447.33,113.99" style="vector-effect: non-scaling-stroke; fill: none; stroke: rgb(142, 151, 30); stroke-opacity: 1; stroke-width: 1px; opacity: 1;"/></g><g class="points"/><g class="text"/></g><g class="trace scatter trace7fec0b" style="stroke-miterlimit: 2; opacity: 1;"><g class="fills"/><g class="errorbars"/><g class="lines"><path class="js-line" d="M35.78,113.99L589.28,113.99L589.28,113.99" style="vector-effect: non-scaling-stroke; fill: none; stroke: rgb(0, 169, 204); stroke-opacity: 1; stroke-width: 1px; opacity: 1;"/></g><g class="points"/><g class="text"/></g><g class="trace scatter trace317518" style="stroke-miterlimit: 2; opacity: 1;"><g class="fills"/><g class="errorbars"/><g class="lines"><path class="js-line" d="M49.22,113.99L475.05,113.99L475.05,112.74L475.89,112.74L475.89,111.58L477.57,111.58L477.57,112.44L478.41,112.44L478.41,113.99L616.15,113.43L616.15,106.93L616.99,106.93L616.99,113.99" style="vector-effect: non-scaling-stroke; fill: none; stroke: rgb(155, 127, 233); stroke-opacity: 1; stroke-width: 1px; opacity: 1;"/></g><g class="points"/><g class="text"/></g><g class="trace scatter trace37e78c" style="stroke-miterlimit: 2; opacity: 1;"><g class="fills"/><g class="errorbars"/><g class="lines"><path class="js-line" d="M106.33,113.99L598.52,113.99L598.52,113.99" style="vector-effect: non-scaling-stroke; fill: none; stroke: rgb(97, 141, 246); stroke-opacity: 1; stroke-width: 1px; opacity: 1;"/></g><g class="points"/><g class="text"/></g><g class="trace scatter tracec387de" style="stroke-miterlimit: 2; opacity: 1;"><g class="fills"/><g class="errorbars"/><g class="lines"><path class="js-line" d="M137.41,113.99L554,113.91L554,113.99" style="vector-effect: non-scaling-stroke; fill: none; stroke: rgb(240, 96, 115); stroke-opacity: 1; stroke-width: 1px; opacity: 1;"/></g><g class="points"/><g class="text"/></g><g class="trace scatter tracec93e25" style="stroke-miterlimit: 2; opacity: 1;"><g class="fills"/><g class="errorbars"/><g class="lines"><path class="js-line" d="M162.61,113.99L333.95,113.93L333.95,113.99" style="vector-effect: non-scaling-stroke; fill: none; stroke: rgb(221, 101, 182); stroke-opacity: 1; stroke-width: 1px; opacity: 1;"/></g><g class="points"/><g class="text"/></g><g class="trace scatter tracec1bdb7" style="stroke-miterlimit: 2; opacity: 1;"><g class="fills"/><g class="errorbars"/><g class="lines"><path class="js-line" d="M301.19,113.99L573.32,113.98L573.32,113.99" style="vector-effect: non-scaling-stroke; fill: none; stroke: rgb(108, 159, 51); stroke-opacity: 1; stroke-width: 1px; opacity: 1;"/></g><g class="points"/><g class="text"/></g></g></g><g class="overplot"/><path class="xlines-above crisp" d="M74.04811898512686,310.7446521684994H716.0629921259842" style="fill: none; stroke-width: 1px; stroke: rgb(0, 0, 0); stroke-opacity: 1;"/><path class="ylines-above crisp" d="M74.54811898512686,192.93728671417094V310.2446521684994" style="fill: none; stroke-width: 1px; stroke: rgb(0, 0, 0); stroke-opacity: 1;"/><g class="overlines-above"/><g class="xaxislayer-above"><path class="xtick ticks crisp" d="M0,310.2446521684994v-5" transform="translate(93.18811898512686,0)" style="stroke: rgb(0, 0, 0); stroke-opacity: 1; stroke-width: 1px;"/><path class="xtick ticks crisp" d="M0,310.2446521684994v-5" transform="translate(118.38811898512687,0)" style="stroke: rgb(0, 0, 0); stroke-opacity: 1; stroke-width: 1px;"/><path class="xtick ticks crisp" d="M0,310.2446521684994v-5" transform="translate(143.58811898512687,0)" style="stroke: rgb(0, 0, 0); stroke-opacity: 1; stroke-width: 1px;"/><path class="xtick ticks crisp" d="M0,310.2446521684994v-5" transform="translate(168.77811898512687,0)" style="stroke: rgb(0, 0, 0); stroke-opacity: 1; stroke-width: 1px;"/><path class="xtick ticks crisp" d="M0,310.2446521684994v-5" transform="translate(193.97811898512686,0)" style="stroke: rgb(0, 0, 0); stroke-opacity: 1; stroke-width: 1px;"/><path class="xtick ticks crisp" d="M0,310.2446521684994v-5" transform="translate(219.17811898512684,0)" style="stroke: rgb(0, 0, 0); stroke-opacity: 1; stroke-width: 1px;"/><path class="xtick ticks crisp" d="M0,310.2446521684994v-5" transform="translate(244.36811898512684,0)" style="stroke: rgb(0, 0, 0); stroke-opacity: 1; stroke-width: 1px;"/><path class="xtick ticks crisp" d="M0,310.2446521684994v-5" transform="translate(269.5681189851269,0)" style="stroke: rgb(0, 0, 0); stroke-opacity: 1; stroke-width: 1px;"/><path class="xtick ticks crisp" d="M0,310.2446521684994v-5" transform="translate(294.7681189851269,0)" style="stroke: rgb(0, 0, 0); stroke-opacity: 1; stroke-width: 1px;"/><path class="xtick ticks crisp" d="M0,310.2446521684994v-5" transform="translate(319.96811898512686,0)" style="stroke: rgb(0, 0, 0); stroke-opacity: 1; stroke-width: 1px;"/><path class="xtick ticks crisp" d="M0,310.2446521684994v-5" transform="translate(345.15811898512686,0)" style="stroke: rgb(0, 0, 0); stroke-opacity: 1; stroke-width: 1px;"/><path class="xtick ticks crisp" d="M0,310.2446521684994v-5" transform="translate(370.35811898512685,0)" style="stroke: rgb(0, 0, 0); stroke-opacity: 1; stroke-width: 1px;"/><path class="xtick ticks crisp" d="M0,310.2446521684994v-5" transform="translate(395.55811898512684,0)" style="stroke: rgb(0, 0, 0); stroke-opacity: 1; stroke-width: 1px;"/><path class="xtick ticks crisp" d="M0,310.2446521684994v-5" transform="translate(420.74811898512684,0)" style="stroke: rgb(0, 0, 0); stroke-opacity: 1; stroke-width: 1px;"/><path class="xtick ticks crisp" d="M0,310.2446521684994v-5" transform="translate(445.9481189851268,0)" style="stroke: rgb(0, 0, 0); stroke-opacity: 1; stroke-width: 1px;"/><path class="xtick ticks crisp" d="M0,310.2446521684994v-5" transform="translate(471.14811898512687,0)" style="stroke: rgb(0, 0, 0); stroke-opacity: 1; stroke-width: 1px;"/><path class="xtick ticks crisp" d="M0,310.2446521684994v-5" transform="translate(496.34811898512686,0)" style="stroke: rgb(0, 0, 0); stroke-opacity: 1; stroke-width: 1px;"/><path class="xtick ticks crisp" d="M0,310.2446521684994v-5" transform="translate(521.5381189851269,0)" style="stroke: rgb(0, 0, 0); stroke-opacity: 1; stroke-width: 1px;"/><path class="xtick ticks crisp" d="M0,310.2446521684994v-5" transform="translate(546.7381189851269,0)" style="stroke: rgb(0, 0, 0); stroke-opacity: 1; stroke-width: 1px;"/><path class="xtick ticks crisp" d="M0,310.2446521684994v-5" transform="translate(571.9381189851268,0)" style="stroke: rgb(0, 0, 0); stroke-opacity: 1; stroke-width: 1px;"/><path class="xtick ticks crisp" d="M0,310.2446521684994v-5" transform="translate(597.1281189851269,0)" style="stroke: rgb(0, 0, 0); stroke-opacity: 1; stroke-width: 1px;"/><path class="xtick ticks crisp" d="M0,310.2446521684994v-5" transform="translate(622.3281189851268,0)" style="stroke: rgb(0, 0, 0); stroke-opacity: 1; stroke-width: 1px;"/><path class="xtick ticks crisp" d="M0,310.2446521684994v-5" transform="translate(647.5281189851269,0)" style="stroke: rgb(0, 0, 0); stroke-opacity: 1; stroke-width: 1px;"/><path class="xtick ticks crisp" d="M0,310.2446521684994v-5" transform="translate(672.7281189851268,0)" style="stroke: rgb(0, 0, 0); stroke-opacity: 1; stroke-width: 1px;"/><path class="xtick ticks crisp" d="M0,310.2446521684994v-5" transform="translate(697.9181189851269,0)" style="stroke: rgb(0, 0, 0); stroke-opacity: 1; stroke-width: 1px;"/><g class="xtick"><text text-anchor="start" x="0" y="324.4446521684994" transform="translate(93.18811898512686,0) rotate(22,0,318.9446521684994)" style="font-family: sans-serif; font-size: 11px; fill: rgb(0, 0, 0); fill-opacity: 1; white-space: pre; opacity: 1;">2022-10-27 00:00:00</text></g><g class="xtick"><text text-anchor="start" x="0" y="324.4446521684994" style="font-family: sans-serif; font-size: 11px; fill: rgb(0, 0, 0); fill-opacity: 1; white-space: pre; opacity: 1;" transform="translate(118.38811898512687,0) rotate(22,0,318.9446521684994)">01:00:00</text></g><g class="xtick"><text text-anchor="start" x="0" y="324.4446521684994" style="font-family: sans-serif; font-size: 11px; fill: rgb(0, 0, 0); fill-opacity: 1; white-space: pre; opacity: 1;" transform="translate(143.58811898512687,0) rotate(22,0,318.9446521684994)">02:00:00</text></g><g class="xtick"><text text-anchor="start" x="0" y="324.4446521684994" style="font-family: sans-serif; font-size: 11px; fill: rgb(0, 0, 0); fill-opacity: 1; white-space: pre; opacity: 1;" transform="translate(168.77811898512687,0) rotate(22,0,318.9446521684994)">03:00:00</text></g><g class="xtick"><text text-anchor="start" x="0" y="324.4446521684994" style="font-family: sans-serif; font-size: 11px; fill: rgb(0, 0, 0); fill-opacity: 1; white-space: pre; opacity: 1;" transform="translate(193.97811898512686,0) rotate(22,0,318.9446521684994)">04:00:00</text></g><g class="xtick"><text text-anchor="start" x="0" y="324.4446521684994" style="font-family: sans-serif; font-size: 11px; fill: rgb(0, 0, 0); fill-opacity: 1; white-space: pre; opacity: 1;" transform="translate(219.17811898512684,0) rotate(22,0,318.9446521684994)">05:00:00</text></g><g class="xtick"><text text-anchor="start" x="0" y="324.4446521684994" style="font-family: sans-serif; font-size: 11px; fill: rgb(0, 0, 0); fill-opacity: 1; white-space: pre; opacity: 1;" transform="translate(244.36811898512684,0) rotate(22,0,318.9446521684994)">06:00:00</text></g><g class="xtick"><text text-anchor="start" x="0" y="324.4446521684994" style="font-family: sans-serif; font-size: 11px; fill: rgb(0, 0, 0); fill-opacity: 1; white-space: pre; opacity: 1;" transform="translate(269.5681189851269,0) rotate(22,0,318.9446521684994)">07:00:00</text></g><g class="xtick"><text text-anchor="start" x="0" y="324.4446521684994" style="font-family: sans-serif; font-size: 11px; fill: rgb(0, 0, 0); fill-opacity: 1; white-space: pre; opacity: 1;" transform="translate(294.7681189851269,0) rotate(22,0,318.9446521684994)">08:00:00</text></g><g class="xtick"><text text-anchor="start" x="0" y="324.4446521684994" style="font-family: sans-serif; font-size: 11px; fill: rgb(0, 0, 0); fill-opacity: 1; white-space: pre; opacity: 1;" transform="translate(319.96811898512686,0) rotate(22,0,318.9446521684994)">09:00:00</text></g><g class="xtick"><text text-anchor="start" x="0" y="324.4446521684994" style="font-family: sans-serif; font-size: 11px; fill: rgb(0, 0, 0); fill-opacity: 1; white-space: pre; opacity: 1;" transform="translate(345.15811898512686,0) rotate(22,0,318.9446521684994)">10:00:00</text></g><g class="xtick"><text text-anchor="start" x="0" y="324.4446521684994" style="font-family: sans-serif; font-size: 11px; fill: rgb(0, 0, 0); fill-opacity: 1; white-space: pre; opacity: 1;" transform="translate(370.35811898512685,0) rotate(22,0,318.9446521684994)">11:00:00</text></g><g class="xtick"><text text-anchor="start" x="0" y="324.4446521684994" style="font-family: sans-serif; font-size: 11px; fill: rgb(0, 0, 0); fill-opacity: 1; white-space: pre; opacity: 1;" transform="translate(395.55811898512684,0) rotate(22,0,318.9446521684994)">12:00:00</text></g><g class="xtick"><text text-anchor="start" x="0" y="324.4446521684994" style="font-family: sans-serif; font-size: 11px; fill: rgb(0, 0, 0); fill-opacity: 1; white-space: pre; opacity: 1;" transform="translate(420.74811898512684,0) rotate(22,0,318.9446521684994)">13:00:00</text></g><g class="xtick"><text text-anchor="start" x="0" y="324.4446521684994" style="font-family: sans-serif; font-size: 11px; fill: rgb(0, 0, 0); fill-opacity: 1; white-space: pre; opacity: 1;" transform="translate(445.9481189851268,0) rotate(22,0,318.9446521684994)">14:00:00</text></g><g class="xtick"><text text-anchor="start" x="0" y="324.4446521684994" style="font-family: sans-serif; font-size: 11px; fill: rgb(0, 0, 0); fill-opacity: 1; white-space: pre; opacity: 1;" transform="translate(471.14811898512687,0) rotate(22,0,318.9446521684994)">15:00:00</text></g><g class="xtick"><text text-anchor="start" x="0" y="324.4446521684994" style="font-family: sans-serif; font-size: 11px; fill: rgb(0, 0, 0); fill-opacity: 1; white-space: pre; opacity: 1;" transform="translate(496.34811898512686,0) rotate(22,0,318.9446521684994)">16:00:00</text></g><g class="xtick"><text text-anchor="start" x="0" y="324.4446521684994" style="font-family: sans-serif; font-size: 11px; fill: rgb(0, 0, 0); fill-opacity: 1; white-space: pre; opacity: 1;" transform="translate(521.5381189851269,0) rotate(22,0,318.9446521684994)">17:00:00</text></g><g class="xtick"><text text-anchor="start" x="0" y="324.4446521684994" style="font-family: sans-serif; font-size: 11px; fill: rgb(0, 0, 0); fill-opacity: 1; white-space: pre; opacity: 1;" transform="translate(546.7381189851269,0) rotate(22,0,318.9446521684994)">18:00:00</text></g><g class="xtick"><text text-anchor="start" x="0" y="324.4446521684994" style="font-family: sans-serif; font-size: 11px; fill: rgb(0, 0, 0); fill-opacity: 1; white-space: pre; opacity: 1;" transform="translate(571.9381189851268,0) rotate(22,0,318.9446521684994)">19:00:00</text></g><g class="xtick"><text text-anchor="start" x="0" y="324.4446521684994" style="font-family: sans-serif; font-size: 11px; fill: rgb(0, 0, 0); fill-opacity: 1; white-space: pre; opacity: 1;" transform="translate(597.1281189851269,0) rotate(22,0,318.9446521684994)">20:00:00</text></g><g class="xtick"><text text-anchor="start" x="0" y="324.4446521684994" style="font-family: sans-serif; font-size: 11px; fill: rgb(0, 0, 0); fill-opacity: 1; white-space: pre; opacity: 1;" transform="translate(622.3281189851268,0) rotate(22,0,318.9446521684994)">21:00:00</text></g><g class="xtick"><text text-anchor="start" x="0" y="324.4446521684994" style="font-family: sans-serif; font-size: 11px; fill: rgb(0, 0, 0); fill-opacity: 1; white-space: pre; opacity: 1;" transform="translate(647.5281189851269,0) rotate(22,0,318.9446521684994)">22:00:00</text></g><g class="xtick"><text text-anchor="start" x="0" y="324.4446521684994" style="font-family: sans-serif; font-size: 11px; fill: rgb(0, 0, 0); fill-opacity: 1; white-space: pre; opacity: 1;" transform="translate(672.7281189851268,0) rotate(22,0,318.9446521684994)">23:00:00</text></g><g class="xtick"><text text-anchor="start" x="0" y="324.4446521684994" style="font-family: sans-serif; font-size: 11px; fill: rgb(0, 0, 0); fill-opacity: 1; white-space: pre; opacity: 0;" transform="translate(697.9181189851269,0) rotate(22,0,318.9446521684994)">2022-10-28 00:00:00</text></g></g><g class="yaxislayer-above"><path class="y2tick ticks crisp" d="M75.04811898512686,0h5" transform="translate(0,306.9272867141709)" style="stroke: rgb(0, 0, 0); stroke-opacity: 1; stroke-width: 1px;"/><path class="y2tick ticks crisp" d="M75.04811898512686,0h5" transform="translate(0,284.07728671417095)" style="stroke: rgb(0, 0, 0); stroke-opacity: 1; stroke-width: 1px;"/><path class="y2tick ticks crisp" d="M75.04811898512686,0h5" transform="translate(0,261.22728671417093)" style="stroke: rgb(0, 0, 0); stroke-opacity: 1; stroke-width: 1px;"/><path class="y2tick ticks crisp" d="M75.04811898512686,0h5" transform="translate(0,238.38728671417095)" style="stroke: rgb(0, 0, 0); stroke-opacity: 1; stroke-width: 1px;"/><path class="y2tick ticks crisp" d="M75.04811898512686,0h5" transform="translate(0,215.53728671417093)" style="stroke: rgb(0, 0, 0); stroke-opacity: 1; stroke-width: 1px;"/><g class="y2tick"><text text-anchor="end" x="71.84811898512686" y="3.8499999999999996" transform="translate(0,306.9272867141709)" style="font-family: sans-serif; font-size: 11px; fill: rgb(0, 0, 0); fill-opacity: 1; white-space: pre; opacity: 1;">0.00</text></g><g class="y2tick"><text text-anchor="end" x="71.84811898512686" y="3.8499999999999996" style="font-family: sans-serif; font-size: 11px; fill: rgb(0, 0, 0); fill-opacity: 1; white-space: pre; opacity: 1;" transform="translate(0,284.07728671417095)">0.05</text></g><g class="y2tick"><text text-anchor="end" x="71.84811898512686" y="3.8499999999999996" style="font-family: sans-serif; font-size: 11px; fill: rgb(0, 0, 0); fill-opacity: 1; white-space: pre; opacity: 1;" transform="translate(0,261.22728671417093)">0.10</text></g><g class="y2tick"><text text-anchor="end" x="71.84811898512686" y="3.8499999999999996" style="font-family: sans-serif; font-size: 11px; fill: rgb(0, 0, 0); fill-opacity: 1; white-space: pre; opacity: 1;" transform="translate(0,238.38728671417095)">0.15</text></g><g class="y2tick"><text text-anchor="end" x="71.84811898512686" y="3.8499999999999996" style="font-family: sans-serif; font-size: 11px; fill: rgb(0, 0, 0); fill-opacity: 1; white-space: pre; opacity: 1;" transform="translate(0,215.53728671417093)">0.20</text></g></g><g class="overaxes-above"/></g></g><g class="polarlayer"/><g class="ternarylayer"/><g class="geolayer"/><g class="funnelarealayer"/><g class="pielayer"/><g class="iciclelayer"/><g class="treemaplayer"/><g class="sunburstlayer"/><g class="glimages"/><defs id="topdefs-8e5977"><g class="clips"/></defs><g class="layer-above"><g class="imagelayer"/><g class="shapelayer"/></g><g class="infolayer"><g class="g-gtitle"/><g class="g-xtitle"/><g class="g-ytitle"/><g class="g-y2title"/><g class="annotation" data-index="0" style="opacity: 1;"><g class="annotation-text-g" transform="rotate(0,395.55555555555554,33)"><g class="cursor-pointer" transform="translate(323,20)"><rect class="bg" x="0.5" y="0.5" width="144" height="25" style="stroke-width: 1px; stroke: rgb(0, 0, 0); stroke-opacity: 0; fill: rgb(0, 0, 0); fill-opacity: 0;"/><text class="annotation-text" text-anchor="middle" x="72.3798828125" y="19.939453125" style="font-family: sans-serif; font-size: 20px; fill: rgb(0, 0, 0); fill-opacity: 1; white-space: pre;">l_write | counter</text></g></g></g><g class="annotation" data-index="1" style="opacity: 1;"><g class="annotation-text-g" transform="rotate(0,395.55555555555554,184.89397962755675)"><g class="cursor-pointer" transform="translate(339,172)"><rect class="bg" x="0.5" y="0.5" width="112" height="25" style="stroke-width: 1px; stroke: rgb(0, 0, 0); stroke-opacity: 0; fill: rgb(0, 0, 0); fill-opacity: 0;"/><text class="annotation-text" text-anchor="middle" x="56.2626953125" y="19.939453125" style="font-family: sans-serif; font-size: 20px; fill: rgb(0, 0, 0); fill-opacity: 1; white-space: pre;">l_write | rate</text></g></g></g></g></svg>