<svg class="main-svg" xmlns="http://www.w3.org/2000/svg" xmlns:xlink="http://www.w3.org/1999/xlink" width="720" height="400" style=""><rect x="0" y="0" width="720" height="400" style="fill: rgb(255, 255, 255); fill-opacity: 1;"/><defs id="defs-9e7c90"><g class="clips"><clipPath id="clip9e7c90xyplot" class="plotclip"><rect width="667.681539807524" height="124.01905816369495"/></clipPath><clipPath id="clip9e7c90xy2plot" class="plotclip"><rect width="667.681539807524" height="124.01905816369495"/></clipPath><clipPath class="axesclip" id="clip9e7c90x"><rect x="48.38145231846019" y="0" width="667.681539807524" height="400"/></clipPath><clipPath class="axesclip" id="clip9e7c90y"><rect x="0" y="36.043307086614206" width="720" height="124.01905816369495"/></clipPath><clipPath class="axesclip" id="clip9e7c90xy"><rect x="48.38145231846019" y="36.043307086614206" width="667.681539807524" height="124.01905816369495"/></clipPath><clipPath class="axesclip" id="clip9e7c90y2"><rect x="0" y="192.14897942353753" width="720" height="124.01905816369495"/></clipPath><clipPath class="axesclip" id="clip9e7c90xy2"><rect x="48.38145231846019" y="192.14897942353753" width="667.681539807524" height="124.01905816369495"/></clipPath></g><g class="gradients"/><g class="patterns"/></defs><g class="bglayer"/><g class="layer-below"><g class="imagelayer"/><g class="shapelayer"/></g><g class="cartesianlayer"><g class="subplot xy"><g class="layer-subplot"><g class="shapelayer"/><g class="imagelayer"/></g><g class="gridlayer"><g class="x"><path class="xgrid crisp" transform="translate(67.2814523184602,0)" d="M0,36.043307086614206v124.01905816369495" style="stroke: rgb(0, 0, 0); stroke-opacity: 0.1; stroke-width: 0.5px;"/><path class="xgrid crisp" transform="translate(93.52145231846019,0)" d="M0,36.043307086614206v124.01905816369495" style="stroke: rgb(0, 0, 0); stroke-opacity: 0.1; stroke-width: 0.5px;"/><path class="xgrid crisp" transform="translate(119.77145231846019,0)" d="M0,36.043307086614206v124.01905816369495" style="stroke: rgb(0, 0, 0); stroke-opacity: 0.1; stroke-width: 0.5px;"/><path class="xgrid crisp" transform="translate(146.0114523184602,0)" d="M0,36.043307086614206v124.01905816369495" style="stroke: rgb(0, 0, 0); stroke-opacity: 0.1; stroke-width: 0.5px;"/><path class="xgrid crisp" transform="translate(172.2614523184602,0)" d="M0,36.043307086614206v124.01905816369495" style="stroke: rgb(0, 0, 0); stroke-opacity: 0.1; stroke-width: 0.5px;"/><path class="xgrid crisp" transform="translate(198.5014523184602,0)" d="M0,36.043307086614206v124.01905816369495" style="stroke: rgb(0, 0, 0); stroke-opacity: 0.1; stroke-width: 0.5px;"/><path class="xgrid crisp" transform="translate(224.7514523184602,0)" d="M0,36.043307086614206v124.01905816369495" style="stroke: rgb(0, 0, 0); stroke-opacity: 0.1; stroke-width: 0.5px;"/><path class="xgrid crisp" transform="translate(250.9914523184602,0)" d="M0,36.043307086614206v124.01905816369495" style="stroke: rgb(0, 0, 0); stroke-opacity: 0.1; stroke-width: 0.5px;"/><path class="xgrid crisp" transform="translate(277.24145231846023,0)" d="M0,36.043307086614206v124.01905816369495" style="stroke: rgb(0, 0, 0); stroke-opacity: 0.1; stroke-width: 0.5px;"/><path class="xgrid crisp" transform="translate(303.4814523184602,0)" d="M0,36.043307086614206v124.01905816369495" style="stroke: rgb(0, 0, 0); stroke-opacity: 0.1; stroke-width: 0.5px;"/><path class="xgrid crisp" transform="translate(329.73145231846024,0)" d="M0,36.043307086614206v124.01905816369495" style="stroke: rgb(0, 0, 0); stroke-opacity: 0.1; stroke-width: 0.5px;"/><path class="xgrid crisp" transform="translate(355.98145231846024,0)" d="M0,36.043307086614206v124.01905816369495" style="stroke: rgb(0, 0, 0); stroke-opacity: 0.1; stroke-width: 0.5px;"/><path class="xgrid crisp" transform="translate(382.22145231846014,0)" d="M0,36.043307086614206v124.01905816369495" style="stroke: rgb(0, 0, 0); stroke-opacity: 0.1; stroke-width: 0.5px;"/><path class="xgrid crisp" transform="translate(408.47145231846014,0)" d="M0,36.043307086614206v124.01905816369495" style="stroke: rgb(0, 0, 0); stroke-opacity: 0.1; stroke-width: 0.5px;"/><path class="xgrid crisp" transform="translate(434.71145231846015,0)" d="M0,36.043307086614206v124.01905816369495" style="stroke: rgb(0, 0, 0); stroke-opacity: 0.1; stroke-width: 0.5px;"/><path class="xgrid crisp" transform="translate(460.96145231846015,0)" d="M0,36.043307086614206v124.01905816369495" style="stroke: rgb(0, 0, 0); stroke-opacity: 0.1; stroke-width: 0.5px;"/><path class="xgrid crisp" transform="translate(487.20145231846016,0)" d="M0,36.043307086614206v124.01905816369495" style="stroke: rgb(0, 0, 0); stroke-opacity: 0.1; stroke-width: 0.5px;"/><path class="xgrid crisp" transform="translate(513.4514523184602,0)" d="M0,36.043307086614206v124.01905816369495" style="stroke: rgb(0, 0, 0); stroke-opacity: 0.1; stroke-width: 0.5px;"/><path class="xgrid crisp" transform="translate(539.6914523184602,0)" d="M0,36.043307086614206v124.01905816369495" style="stroke: rgb(0, 0, 0); stroke-opacity: 0.1; stroke-width: 0.5px;"/><path class="xgrid crisp" transform="translate(565.9414523184602,0)" d="M0,36.043307086614206v124.01905816369495" style="stroke: rgb(0, 0, 0); stroke-opacity: 0.1; stroke-width: 0.5px;"/><path class="xgrid crisp" transform="translate(592.1814523184602,0)" d="M0,36.043307086614206v124.01905816369495" style="stroke: rgb(0, 0, 0); stroke-opacity: 0.1; stroke-width: 0.5px;"/><path class="xgrid crisp" transform="translate(618.4314523184602,0)" d="M0,36.043307086614206v124.01905816369495" style="stroke: rgb(0, 0, 0); stroke-opacity: 0.1; stroke-width: 0.5px;"/><path class="xgrid crisp" transform="translate(644.6714523184602,0)" d="M0,36.043307086614206v124.01905816369495" style="stroke: rgb(0, 0, 0); stroke-opacity: 0.1; stroke-width: 0.5px;"/><path class="xgrid crisp" transform="translate(670.9214523184602,0)" d="M0,36.043307086614206v124.01905816369495" style="stroke: rgb(0, 0, 0); stroke-opacity: 0.1; stroke-width: 0.5px;"/><path class="xgrid crisp" transform="translate(697.1614523184602,0)" d="M0,36.043307086614206v124.01905816369495" style="stroke: rgb(0, 0, 0); stroke-opacity: 0.1; stroke-width: 0.5px;"/></g><g class="y"><path class="ygrid crisp" transform="translate(0,156.5533070866142)" d="M48.38145231846019,0h667.681539807524" style="stroke: rgb(0, 0, 0); stroke-opacity: 0.1; stroke-width: 0.5px;"/><path class="ygrid crisp" transform="translate(0,134.60330708661422)" d="M48.38145231846019,0h667.681539807524" style="stroke: rgb(0, 0, 0); stroke-opacity: 0.1; stroke-width: 0.5px;"/><path class="ygrid crisp" transform="translate(0,112.6533070866142)" d="M48.38145231846019,0h667.681539807524" style="stroke: rgb(0, 0, 0); stroke-opacity: 0.1; stroke-width: 0.5px;"/><path class="ygrid crisp" transform="translate(0,90.7033070866142)" d="M48.38145231846019,0h667.681539807524" style="stroke: rgb(0, 0, 0); stroke-opacity: 0.1; stroke-width: 0.5px;"/><path class="ygrid crisp" transform="translate(0,68.74330708661421)" d="M48.38145231846019,0h667.681539807524" style="stroke: rgb(0, 0, 0); stroke-opacity: 0.1; stroke-width: 0.5px;"/><path class="ygrid crisp" transform="translate(0,46.793307086614206)" d="M48.38145231846019,0h667.681539807524" style="stroke: rgb(0, 0, 0); stroke-opacity: 0.1; stroke-width: 0.5px;"/></g></g><g class="zerolinelayer"/><path class="xlines-below"/><path class="ylines-below"/><g class="overlines-below"/><g class="xaxislayer-below"/><g class="yaxislayer-below"/><g class="overaxes-below"/><g class="plot" transform="translate(48.38145231846019,36.043307086614206)" clip-path="url(#clip9e7c90xyplot)"><g class="scatterlayer mlayer"><g class="trace scatter trace2deedd" style="stroke-miterlimit: 2; opacity: 1;"><g class="fills"/><g class="errorbars"/><g class="lines"><path class="js-line" d="M19.04,78.36L19.04,78.14L20.01,78.14L20.01,77.92L20.88,77.92L20.88,77.27L22.23,77.27L22.94,75.51L24.14,75.51L24.14,73.97L24.99,73.97L24.99,71.78L25.85,71.78L25.85,70.46L26.73,70.46L26.73,68.05L27.57,68.05L27.57,65.19L28.46,65.19L28.46,62.34L29.36,62.34L29.36,59.05L30.22,59.05L30.22,56.63L31.04,56.63L31.04,54.22L31.98,54.22L32.68,51.14L33.73,51.14L34.14,50.05L35.34,50.05L35.34,49.83L40.14,49.83L40.14,119.85L53.37,119.85L53.37,120.07L64.86,120.07L64.86,119.85L71.29,119.85L71.29,119.63L74.01,119.63L74.01,119.19L75.59,119.19L75.59,118.75L76.99,118.75L76.99,118.53L77.98,118.53L77.98,117.87L79.26,117.87L79.26,116.78L80.11,116.78L80.79,113.7L81.88,113.7L81.88,111.73L82.73,111.73L82.73,109.31L83.59,109.31L83.59,106.46L84.42,106.46L84.42,104.05L85.35,104.05L85.35,101.41L86.16,101.41L86.16,98.78L87.1,98.78L87.1,96.14L87.96,96.14L87.96,94.61L88.78,94.61L88.78,93.07L89.6,93.07L89.6,91.53L90.5,91.53L90.5,90L91.32,90L92.03,88.24L93,88.24L93.63,87.36L94.38,87.36L94.38,87.14L95.39,87.14L95.39,86.92L96.69,86.92L96.69,86.7L98.49,86.7L98.49,86.05L100.44,86.05L100.44,85.83L102.59,85.83L102.59,85.39L104.9,85.39L104.9,85.17L107.05,85.17L107.05,84.73L108.81,84.73L108.81,84.29L110.17,84.29L110.17,83.85L111.25,83.85L111.25,83.41L112.09,83.41L112.09,82.75L113.32,82.75L113.32,81.88L114.23,81.88L114.23,81L115.12,81L115.87,77.7L116.8,77.7L116.8,75.29L117.73,75.29L117.73,72.44L118.63,72.44L118.63,69.36L119.45,69.36L119.45,66.51L120.34,66.51L120.34,63.66L121.2,63.66L121.2,61.24L122.1,61.24L122.1,58.39L123,58.39L123,56.41L123.78,56.41L124.37,54.88L124.94,54.88L124.94,54.66L128.75,54.66L128.75,54.44L133.41,54.44L133.41,54L137.94,54L137.94,53.56L142.86,53.56L142.86,120.07L148.07,120.07L148.07,119.63L151.2,119.63L151.2,119.41L154.26,119.41L154.26,119.19L157.46,119.19L157.46,118.97L160.19,118.97L160.19,118.75L161.8,118.75L161.8,118.53L163.14,118.53L163.14,118.31L164.11,118.31L164.67,116.78L165.84,116.78L166.46,114.8L167.58,114.8L167.58,113.7L168.41,113.7L168.41,112.17L169.3,112.17L169.3,110.41L170.16,110.41L170.16,108.44L171.11,108.44L171.11,106.24L171.99,106.24L171.99,104.27L172.81,104.27L172.81,102.29L173.67,102.29L173.67,100.75L174.45,100.75L174.45,99.22L175.42,99.22L175.42,98.12L176.32,98.12L176.32,97.46L177.14,97.46L177.14,97.02L177.92,97.02L178.6,96.36L179.38,96.36L179.38,96.14L180.42,96.14L180.42,95.92L181.88,95.92L181.88,95.7L183.3,95.7L183.56,95.27L185.36,95.27L185.36,95.05L187.22,95.05L187.22,94.83L188.9,94.83L188.9,94.61L190.32,94.61L191.4,94.39L191.4,93.73L193.49,93.51L193.49,92.85L195.4,92.19L195.4,91.53L197.12,90.88L197.12,90L198.9,89.34L198.9,88.68L199.87,88.68L199.87,87.36L202.64,86.7L202.64,86.48L207.19,85.83L207.19,85.61L212.92,84.95L212.92,84.73L215.18,84.29L215.18,83.85L217.95,83.41L217.95,82.97L221.83,82.31L221.83,82.09L226.87,81.66L226.87,81.22L229.33,80.78L229.33,79.9L231.45,79.24L231.45,77.92L232.32,77.92L232.32,76.61L233.22,76.61L233.22,75.29L234.05,75.29L234.05,73.53L234.98,73.53L234.98,71.78L235.69,71.78L235.69,70.24L236.7,70.24L236.7,69.14L237.56,69.14L237.56,68.27L238.35,68.27L238.35,67.39L239.91,66.95L239.91,66.29L242.75,65.63L242.75,65.41L248.65,64.75L248.65,64.53L254.54,63.88L254.54,63.44L255.4,63.44L255.4,62.56L257.49,61.9L257.49,61.02L258.99,60.58L258.99,60.14L263.24,59.49L263.24,59.27L267.24,58.61L267.24,58.39L271.3,57.73L271.3,57.29L275.16,56.63L275.16,56.41L276.8,55.75L276.8,55.31L278.33,54.88L278.33,54.22L279.3,54.22L279.3,52.68L280.46,52.68L280.46,50.92L281.28,50.92L281.28,48.73L282.22,48.73L282.22,47.19L283.03,47.19L283.03,46.31L283.85,46.31L283.85,45L285.53,44.34L285.53,44.12L291.4,43.46L291.4,43.24L295.95,42.8L295.95,42.36L297.81,41.92L297.81,41.27L298.71,41.27L298.71,40.39L300.6,39.73L300.6,38.85L302.32,38.19L302.32,37.31L303.11,37.31L303.11,35.56L304.01,35.56L304.01,34.46L305.66,33.8L305.66,33.14L306.51,33.14L306.51,32.27L308.19,31.83L308.19,31.39L310.88,30.73L310.88,30.51L316.63,29.85L316.63,29.63L321.29,28.97L321.29,28.75L333.43,28.1L333.43,27.66L344.4,27L344.4,26.56L350.11,26.12L350.11,25.68L352.95,25.24L352.95,24.58L354.84,23.92L354.84,23.05L356.49,22.39L356.49,21.51L358.17,20.85L358.17,20.19L359.89,19.53L359.89,18.66L362.6,18L362.6,17.78L366.57,17.12L366.57,16.9L374.07,16.24L374.07,15.8L376.56,15.14L376.56,14.49L378.33,13.83L378.33,13.17L380.05,12.51L380.05,11.85L381.78,11.19L381.78,10.31L383.63,9.66L383.63,8.56L384.54,8.56L384.54,7.68L386.02,7.24L386.02,6.58L388.08,5.92L388.08,5.49L390.53,4.83L390.53,4.61L395.98,3.95L395.98,3.73L400.09,3.51L400.09,120.29L436.93,120.07L436.93,119.19L443.03,118.53L443.03,117.44L443.88,117.44L443.88,115.9L444.84,115.9L444.84,113.48L445.82,113.48L445.82,110.63L446.64,110.63L446.64,107.56L447.53,107.56L447.53,104.05L448.45,104.05L448.45,100.97L449.31,100.97L449.31,97.9L450.17,97.9L450.17,95.27L451.06,95.27L451.06,93.29L451.88,93.29L451.88,91.97L453.9,91.31L453.9,91.09L457.3,90.44L457.3,90.22L463.08,89.78L463.08,89.34L465.69,88.9L465.69,87.58L466.78,87.58L466.78,85.83L467.64,85.83L467.64,82.09L468.54,82.09L468.54,80.34L469.34,80.34L469.34,77.49L470.32,77.49L470.32,73.53L471.14,73.53L471.14,70.9L472.04,70.9L472.04,67.61L472.84,67.61L472.84,65.19L473.78,65.19L473.78,64.31L475.39,63.66L475.39,63L477.24,62.56L477.24,61.9L480.04,61.24L480.04,61.02L484.04,60.58L484.04,120.29L527.94,119.63L527.94,119.19L529.41,118.97L529.41,118.31L530.57,118.31L530.57,117.44L532.29,116.78L532.29,115.9L533.23,115.9L533.23,114.58L534.16,114.58L534.16,113.05L534.98,113.05L534.98,111.95L535.88,111.95L535.88,110.19L536.78,110.19L536.78,107.78L537.67,107.78L537.67,106.02L538.45,106.02L538.45,104.7L540.03,104.05L540.03,103.61L544.61,102.95L544.61,102.73L551.63,102.07L551.63,101.85L553.28,101.41L553.28,100.53L554.86,100.09L554.86,99.22L555.93,99.22L555.93,97.9L556.83,97.9L556.83,96.58L557.73,96.58L557.73,95.27L558.66,95.27L558.66,94.17L559.49,94.17L559.49,92.63L560.42,92.63L560.42,91.75L561.06,91.75L561.06,90.66L561.91,90.66L561.91,89.78L563.56,89.12L563.56,88.68L565.57,88.02L565.57,87.8L567.81,87.36L567.81,120.29L617.09,119.63L617.09,119.41L618.85,118.97L618.85,118.53L620.56,118.09L620.56,117.22L622.25,116.78L622.25,115.24L623.36,115.24L623.36,113.05L624.26,113.05L624.26,110.63L625.12,110.63L625.12,108.66L625.91,108.66L625.91,106.46L626.84,106.46L626.84,105.58L628.37,104.92L628.37,104.27L629.94,103.61L629.94,102.95L634.39,102.29L634.39,102.07L640.18,101.63L640.18,101.19L643.28,100.53L643.28,98.34L644.36,98.34L644.36,96.14L645.11,96.14L645.11,93.07L646.08,93.07L646.08,90.44L646.98,90.44L646.98,88.46L647.84,88.46L647.84,86.48L648.73,86.48" style="vector-effect: non-scaling-stroke; fill: none; stroke: rgb(0, 154, 250); stroke-opacity: 1; stroke-width: 1px; opacity: 1;"/></g><g class="points"/><g class="text"/></g><g class="trace scatter tracef48153" style="stroke-miterlimit: 2; opacity: 1;"><g class="fills"/><g class="errorbars"/><g class="lines"><path class="js-line" d="M19.39,120.51L170.24,119.85L170.24,117.87L183.31,117.66L183.31,120.51L232.19,120.51L232.19,119.63L241.3,118.97L241.3,120.51L376.69,119.85L376.69,119.63L455.72,119.63L455.72,120.51L538.41,120.51L538.41,119.41L564.84,118.75L564.84,120.51L648.62,120.51" style="vector-effect: non-scaling-stroke; fill: none; stroke: rgb(227, 111, 71); stroke-opacity: 1; stroke-width: 1px; opacity: 1;"/></g><g class="points"/><g class="text"/></g><g class="trace scatter trace4e858f" style="stroke-miterlimit: 2; opacity: 1;"><g class="fills"/><g class="errorbars"/><g class="lines"><path class="js-line" d="M19.93,120.51L171.12,120.51L171.12,118.97L183.3,118.97L183.3,120.51L378.44,120.29L378.44,119.63L405.22,119.63L405.22,120.51L468.54,120.29L468.54,118.09L472.88,118.09L472.88,117.22L482.97,117L482.97,120.51L554.21,120.29L554.21,119.41L555.98,119.41L555.98,118.53L557.76,118.31L557.76,117.44L567.08,117.44L567.08,120.51L647.91,120.51L647.91,118.75L648.77,118.75" style="vector-effect: non-scaling-stroke; fill: none; stroke: rgb(62, 164, 78); stroke-opacity: 1; stroke-width: 1px; opacity: 1;"/></g><g class="points"/><g class="text"/></g><g class="trace scatter trace453637" style="stroke-miterlimit: 2; opacity: 1;"><g class="fills"/><g class="errorbars"/><g class="lines"><path class="js-line" d="M20.18,117.22L34.05,117.22L34.05,120.51L86.73,120.51L86.73,118.53L87.99,118.53L87.99,117.22L89.42,117.22L89.42,120.51L165.79,119.85L165.79,118.75L169.3,118.09L169.3,117L181.66,117L181.66,120.51L229.49,120.07L229.49,119.41L241.29,119.41L241.29,120.51L452.55,119.85L452.55,119.63L455.73,119.41L455.73,120.51L558.66,120.29L558.66,119.19L559.49,119.19L559.49,118.31L564.85,118.31L564.85,120.51L648.62,120.51" style="vector-effect: non-scaling-stroke; fill: none; stroke: rgb(195, 113, 210); stroke-opacity: 1; stroke-width: 1px; opacity: 1;"/></g><g class="points"/><g class="text"/></g><g class="trace scatter trace5f37e0" style="stroke-miterlimit: 2; opacity: 1;"><g class="fills"/><g class="errorbars"/><g class="lines"><path class="js-line" d="M21.44,120.51L171.78,120.51L171.78,119.41L183.29,118.75L183.29,120.51L304.01,119.85L304.01,119.63L314.59,119.63L314.59,120.51L383.66,120.07L383.66,119.41L393.96,119.19L393.96,120.51L556.34,120.51L556.34,119.41L567.77,119.41L567.77,120.51L647.01,120.07L647.01,118.75L648.63,118.75" style="vector-effect: non-scaling-stroke; fill: none; stroke: rgb(172, 142, 24); stroke-opacity: 1; stroke-width: 1px; opacity: 1;"/></g><g class="points"/><g class="text"/></g><g class="trace scatter tracef68dc4" style="stroke-miterlimit: 2; opacity: 1;"><g class="fills"/><g class="errorbars"/><g class="lines"><path class="js-line" d="M21.44,120.51L76.96,120.51L76.96,119.41L79.03,118.75L79.03,117.44L93.58,117.44L93.58,120.51L230.57,120.29L230.57,119.41L234.01,119.41L234.01,118.53L246.61,118.09L246.61,120.51L304.95,120.07L304.95,119.41L314.57,119.41L314.57,120.51L378.44,120.29L378.44,119.63L405.2,118.97L405.2,120.51L648.62,120.07" style="vector-effect: non-scaling-stroke; fill: none; stroke: rgb(0, 170, 174); stroke-opacity: 1; stroke-width: 1px; opacity: 1;"/></g><g class="points"/><g class="text"/></g><g class="trace scatter trace310dd0" style="stroke-miterlimit: 2; opacity: 1;"><g class="fills"/><g class="errorbars"/><g class="lines"><path class="js-line" d="M22,120.51L81.48,120.51L81.48,118.97L82.73,118.97L82.73,116.56L86.75,116.56L86.75,114.14L87.99,114.14L87.99,112.83L91.25,112.83L91.25,120.51L169.3,120.29L169.3,119.19L177.9,119.19L177.9,120.51L232.81,120.51L232.81,119.19L235.74,119.19L235.74,118.31L246.62,117.66L246.62,120.51L648.62,120.51" style="vector-effect: non-scaling-stroke; fill: none; stroke: rgb(237, 94, 147); stroke-opacity: 1; stroke-width: 1px; opacity: 1;"/></g><g class="points"/><g class="text"/></g><g class="trace scatter tracebc8c23" style="stroke-miterlimit: 2; opacity: 1;"><g class="fills"/><g class="errorbars"/><g class="lines"><path class="js-line" d="M22.46,120.51L85.98,120.51L85.98,118.75L87.1,118.75L87.1,116.78L93.57,116.78L93.57,120.51L232.32,120.29L232.32,119.63L241.29,119.63L241.29,120.51L559.14,120.51L559.14,119.41L564.84,119.19L564.84,120.51L648.62,120.51" style="vector-effect: non-scaling-stroke; fill: none; stroke: rgb(198, 130, 37); stroke-opacity: 1; stroke-width: 1px; opacity: 1;"/></g><g class="points"/><g class="text"/></g><g class="trace scatter trace94732f" style="stroke-miterlimit: 2; opacity: 1;"><g class="fills"/><g class="errorbars"/><g class="lines"><path class="js-line" d="M22.48,120.51L84.64,120.51L84.64,118.97L86.25,118.97L86.25,116.12L91.25,116.12L91.25,120.51L171.99,119.85L171.99,118.09L177.91,118.09L177.91,120.51L361.79,119.85L361.79,119.63L364.96,119.63L364.96,120.51L381.08,119.85L381.08,119.19L399.86,119.19L399.86,120.51L554.21,120.29L554.21,119.41L557.52,119.41L557.52,118.53L560.43,118.53L560.43,117.66L564.84,117.44L564.84,120.51L648.62,120.51" style="vector-effect: non-scaling-stroke; fill: none; stroke: rgb(0, 169, 141); stroke-opacity: 1; stroke-width: 1px; opacity: 1;"/></g><g class="points"/><g class="text"/></g><g class="trace scatter traceece103" style="stroke-miterlimit: 2; opacity: 1;"><g class="fills"/><g class="errorbars"/><g class="lines"><path class="js-line" d="M22.48,109.97L34.05,109.97L34.05,120.51L83.99,120.51L83.99,117.87L93.58,117.87L93.58,120.51L233.22,119.85L233.22,119.19L235.77,119.19L235.77,117L241.26,116.34L241.26,120.51L296.94,120.51L296.94,119.19L297.89,119.19L297.89,118.31L303.53,117.66L303.53,117L314.57,116.78L314.57,120.51L380.11,120.07L380.11,119.19L393.97,119.19L393.97,120.51L555.7,120.51L555.7,119.63L557.73,118.97L557.73,118.31L564.83,118.31L564.83,120.51L648.73,120.07" style="vector-effect: non-scaling-stroke; fill: none; stroke: rgb(142, 151, 30); stroke-opacity: 1; stroke-width: 1px; opacity: 1;"/></g><g class="points"/><g class="text"/></g><g class="trace scatter trace7239aa" style="stroke-miterlimit: 2; opacity: 1;"><g class="fills"/><g class="errorbars"/><g class="lines"><path class="js-line" d="M22.48,120.51L167.02,120.51L167.02,119.19L172.49,118.97L172.49,117.66L177.91,117L177.91,120.51L381.82,119.85L381.82,119.19L399.86,118.53L399.86,120.51L452.55,119.85L452.55,119.63L455.73,119.41L455.73,120.51L555.93,120.29L555.93,119.63L564.85,119.63L564.85,120.51L645.22,120.07L645.22,118.97L648.62,118.97" style="vector-effect: non-scaling-stroke; fill: none; stroke: rgb(0, 169, 204); stroke-opacity: 1; stroke-width: 1px; opacity: 1;"/></g><g class="points"/><g class="text"/></g><g class="trace scatter trace1ffe16" style="stroke-miterlimit: 2; opacity: 1;"><g class="fills"/><g class="errorbars"/><g class="lines"><path class="js-line" d="M22.48,120.51L76.96,120.51L76.96,116.34L80.97,116.34L80.97,112.83L81.84,112.83L81.84,109.97L93.56,109.97L93.56,120.51L167.02,120.51L167.02,119.19L168.48,119.19L168.48,117.44L172.5,117.44L172.5,116.12L177.89,115.46L177.89,120.51L234.02,120.51L234.02,119.63L241.29,119.19L241.29,120.51L304.07,119.85L304.07,119.63L309.24,119.63L309.24,120.51L641.3,120.51L641.3,119.41L643.43,118.75L643.43,117.87L648.62,117.87" style="vector-effect: non-scaling-stroke; fill: none; stroke: rgb(155, 127, 233); stroke-opacity: 1; stroke-width: 1px; opacity: 1;"/></g><g class="points"/><g class="text"/></g><g class="trace scatter traceeb3667" style="stroke-miterlimit: 2; opacity: 1;"><g class="fills"/><g class="errorbars"/><g class="lines"><path class="js-line" d="M22.48,120.51L80.09,120.51L80.09,118.97L81.84,118.97L81.84,116.12L100.3,116.12L100.3,120.51L167.5,120.07L167.5,119.63L177.9,119.63L177.9,120.51L232.32,120.29L232.32,119.63L241.28,119.63L241.28,120.51L303.52,119.85L303.52,119.19L314.56,118.97L314.56,120.51L466.75,120.29L466.75,118.97L470.8,118.75L470.8,116.12L472.04,116.12L472.04,114.58L482.94,114.58L482.94,120.51L645.66,120.51L645.66,119.19L646.9,119.19L646.9,118.09L648.62,117.66" style="vector-effect: non-scaling-stroke; fill: none; stroke: rgb(97, 141, 246); stroke-opacity: 1; stroke-width: 1px; opacity: 1;"/></g><g class="points"/><g class="text"/></g><g class="trace scatter trace5b209c" style="stroke-miterlimit: 2; opacity: 1;"><g class="fills"/><g class="errorbars"/><g class="lines"><path class="js-line" d="M22.48,117.22L34.05,117.22L34.05,120.51L230.57,120.29L230.57,119.41L234.05,119.19L234.05,118.09L246.63,118.09L246.63,120.51L557.73,120.07L557.73,119.41L559.15,119.41L559.15,118.31L564.82,118.09L564.82,120.51L648.62,120.51" style="vector-effect: non-scaling-stroke; fill: none; stroke: rgb(240, 96, 115); stroke-opacity: 1; stroke-width: 1px; opacity: 1;"/></g><g class="points"/><g class="text"/></g><g class="trace scatter trace5c5508" style="stroke-miterlimit: 2; opacity: 1;"><g class="fills"/><g class="errorbars"/><g class="lines"><path class="js-line" d="M22.48,120.51L85.32,120.51L85.32,118.97L86.25,118.97L86.25,115.9L91.25,115.9L91.25,120.51L170.16,119.85L170.16,118.97L171.11,118.97L171.11,117.87L183.31,117.22L183.31,120.51L379.3,119.85L379.3,119.41L405.18,118.75L405.18,120.51L466.75,120.51L466.75,119.41L469.34,118.97L469.34,118.09L470.28,118.09L470.28,115.9L472.47,115.9L472.47,115.02L477.52,114.8L477.52,120.51L648.62,120.51" style="vector-effect: non-scaling-stroke; fill: none; stroke: rgb(221, 101, 182); stroke-opacity: 1; stroke-width: 1px; opacity: 1;"/></g><g class="points"/><g class="text"/></g><g class="trace scatter traceb0b122" style="stroke-miterlimit: 2; opacity: 1;"><g class="fills"/><g class="errorbars"/><g class="lines"><path class="js-line" d="M22.48,120.51L82.38,120.51L82.38,118.75L83.63,118.75L83.63,117.22L83.96,117.22L83.96,114.58L91.27,114.58L91.27,120.51L237.6,119.85L237.6,119.63L239.4,119.63L239.4,120.51L470.8,120.29L470.8,118.31L482.94,118.31L482.94,120.51L648.03,120.51" style="vector-effect: non-scaling-stroke; fill: none; stroke: rgb(108, 159, 51); stroke-opacity: 1; stroke-width: 1px; opacity: 1;"/></g><g class="points"/><g class="text"/></g><g class="trace scatter tracee0095d" style="stroke-miterlimit: 2; opacity: 1;"><g class="fills"/><g class="errorbars"/><g class="lines"><path class="js-line" d="M22.48,116.34L34.05,116.34L34.05,120.51L82.41,120.51L82.41,118.53L83.63,118.53L83.63,117.22L85.38,117L85.38,113.92L93.58,113.92L93.58,120.51L470.21,120.51L470.21,118.97L482.94,118.31L482.94,120.51L647.47,120.51L647.47,118.75L648.7,118.75" style="vector-effect: non-scaling-stroke; fill: none; stroke: rgb(0, 154, 250); stroke-opacity: 1; stroke-width: 1px; opacity: 1;"/></g><g class="points"/><g class="text"/></g><g class="trace scatter tracec2a19e" style="stroke-miterlimit: 2; opacity: 1;"><g class="fills"/><g class="errorbars"/><g class="lines"><path class="js-line" d="M22.48,120.51L76.96,120.51L76.96,119.63L78.2,119.63L78.2,118.75L79.03,118.75L79.03,117.44L100.29,117.44L100.29,120.51L165.85,120.51L165.85,119.63L168.5,119.19L168.5,117.87L170.51,117.87L170.51,116.34L177.91,116.34L177.91,120.51L229.49,120.07L229.49,119.41L231.47,119.41L231.47,118.09L241.28,118.09L241.28,120.51L300.57,119.85L300.57,119.19L309.24,119.19L309.24,120.51L556.36,120.51L556.36,119.41L564.84,119.41L564.84,120.51L647.01,119.85L647.01,118.53L648.63,118.53" style="vector-effect: non-scaling-stroke; fill: none; stroke: rgb(227, 111, 71); stroke-opacity: 1; stroke-width: 1px; opacity: 1;"/></g><g class="points"/><g class="text"/></g><g class="trace scatter trace294965" style="stroke-miterlimit: 2; opacity: 1;"><g class="fills"/><g class="errorbars"/><g class="lines"><path class="js-line" d="M22.48,120.51L83.26,120.51L83.26,118.75L87.51,118.09L87.51,115.68L93.57,115.24L93.57,120.51L171.99,119.85L171.99,118.09L183.3,118.09L183.3,120.51L231.47,120.51L231.47,119.19L237.56,118.53L237.56,118.31L241.29,118.31L241.29,120.51L302.33,119.85L302.33,119.63L309.22,119.19L309.22,120.51L468.54,120.29L468.54,118.09L471.88,118.09L471.88,116.78L472.84,116.78L472.84,115.9L482.94,115.9L482.94,120.51L632.75,120.51L632.75,119.19L644.36,119.19L644.36,117.87L648.62,117.87" style="vector-effect: non-scaling-stroke; fill: none; stroke: rgb(62, 164, 78); stroke-opacity: 1; stroke-width: 1px; opacity: 1;"/></g><g class="points"/><g class="text"/></g><g class="trace scatter trace073939" style="stroke-miterlimit: 2; opacity: 1;"><g class="fills"/><g class="errorbars"/><g class="lines"><path class="js-line" d="M23.24,120.51L85.36,120.51L85.36,117.44L93.57,117.44L93.57,120.51L234.6,120.51L234.6,119.19L241.29,118.97L241.29,120.51L645.66,120.51L645.66,119.41L648.63,118.97" style="vector-effect: non-scaling-stroke; fill: none; stroke: rgb(195, 113, 210); stroke-opacity: 1; stroke-width: 1px; opacity: 1;"/></g><g class="points"/><g class="text"/></g><g class="trace scatter trace39c09e" style="stroke-miterlimit: 2; opacity: 1;"><g class="fills"/><g class="errorbars"/><g class="lines"><path class="js-line" d="M24.1,120.51L83.25,120.51L83.25,118.53L87.5,117.87L87.5,115.24L93.58,115.02L93.58,120.51L466.74,120.51L466.74,119.41L469.12,118.97L469.12,117L477.51,117L477.51,120.51L559.8,119.85L559.8,118.97L564.84,118.75L564.84,120.51L644.91,120.51L644.91,119.41L648.63,118.75" style="vector-effect: non-scaling-stroke; fill: none; stroke: rgb(172, 142, 24); stroke-opacity: 1; stroke-width: 1px; opacity: 1;"/></g><g class="points"/><g class="text"/></g><g class="trace scatter tracee68502" style="stroke-miterlimit: 2; opacity: 1;"><g class="fills"/><g class="errorbars"/><g class="lines"><path class="js-line" d="M24.1,120.51L80.1,120.51L80.1,116.34L80.97,116.34L80.97,114.58L81.46,114.58L81.46,113.05L82.73,113.05L82.73,110.41L100.29,110.41L100.29,120.51L167.5,120.07L167.5,119.63L169.87,119.63L169.87,118.53L174.74,118.31L174.74,120.51L234.05,120.51L234.05,119.41L246.63,119.41L246.63,120.51L641.79,120.29L641.79,119.63L643.43,118.97L643.43,118.09L645.22,117.66L645.22,116.56L648.63,116.56" style="vector-effect: non-scaling-stroke; fill: none; stroke: rgb(0, 170, 174); stroke-opacity: 1; stroke-width: 1px; opacity: 1;"/></g><g class="points"/><g class="text"/></g><g class="trace scatter trace7bd432" style="stroke-miterlimit: 2; opacity: 1;"><g class="fills"/><g class="errorbars"/><g class="lines"><path class="js-line" d="M24.11,120.51L232.8,120.51L232.8,119.19L246.62,119.19L246.62,120.51L469.34,120.07L469.34,117.44L472.04,116.78L472.04,115.24L477.5,115.24L477.5,120.51L555.93,120.29L555.93,119.63L558.66,119.41L558.66,118.09L559.49,118.09L559.49,117.22L561.88,117.22L561.88,120.51L648.62,120.51" style="vector-effect: non-scaling-stroke; fill: none; stroke: rgb(237, 94, 147); stroke-opacity: 1; stroke-width: 1px; opacity: 1;"/></g><g class="points"/><g class="text"/></g><g class="trace scatter trace156b32" style="stroke-miterlimit: 2; opacity: 1;"><g class="fills"/><g class="errorbars"/><g class="lines"><path class="js-line" d="M24.11,120.51L85.98,120.51L85.98,118.53L87.1,118.53L87.1,116.56L98.25,116.56L98.25,120.51L234.6,120.51L234.6,119.19L246.61,118.97L246.61,120.51L384.52,119.85L384.52,119.41L405.2,119.19L405.2,120.51L470.21,120.51L470.21,119.19L477.52,118.53L477.52,120.51L644.91,120.51L644.91,119.19L648.02,119.19" style="vector-effect: non-scaling-stroke; fill: none; stroke: rgb(198, 130, 37); stroke-opacity: 1; stroke-width: 1px; opacity: 1;"/></g><g class="points"/><g class="text"/></g></g></g><g class="overplot"/><path class="xlines-above crisp" d="M0,0" style="fill: none;"/><path class="ylines-above crisp" d="M47.88145231846019,36.043307086614206V160.06236525030914" style="fill: none; stroke-width: 1px; stroke: rgb(0, 0, 0); stroke-opacity: 1;"/><g class="overlines-above"/><g class="xaxislayer-above"/><g class="yaxislayer-above"><path class="ytick ticks crisp" d="M48.38145231846019,0h5" transform="translate(0,156.5533070866142)" style="stroke: rgb(0, 0, 0); stroke-opacity: 1; stroke-width: 1px;"/><path class="ytick ticks crisp" d="M48.38145231846019,0h5" transform="translate(0,134.60330708661422)" style="stroke: rgb(0, 0, 0); stroke-opacity: 1; stroke-width: 1px;"/><path class="ytick ticks crisp" d="M48.38145231846019,0h5" transform="translate(0,112.6533070866142)" style="stroke: rgb(0, 0, 0); stroke-opacity: 1; stroke-width: 1px;"/><path class="ytick ticks crisp" d="M48.38145231846019,0h5" transform="translate(0,90.7033070866142)" style="stroke: rgb(0, 0, 0); stroke-opacity: 1; stroke-width: 1px;"/><path class="ytick ticks crisp" d="M48.38145231846019,0h5" transform="translate(0,68.74330708661421)" style="stroke: rgb(0, 0, 0); stroke-opacity: 1; stroke-width: 1px;"/><path class="ytick ticks crisp" d="M48.38145231846019,0h5" transform="translate(0,46.793307086614206)" style="stroke: rgb(0, 0, 0); stroke-opacity: 1; stroke-width: 1px;"/><g class="ytick"><text text-anchor="end" x="44.581452318460194" y="4.8999999999999995" transform="translate(0,156.5533070866142)" style="font-family: sans-serif; font-size: 14px; fill: rgb(0, 0, 0); fill-opacity: 1; white-space: pre; opacity: 1;">0</text></g><g class="ytick"><text text-anchor="end" x="44.581452318460194" y="4.8999999999999995" style="font-family: sans-serif; font-size: 14px; fill: rgb(0, 0, 0); fill-opacity: 1; white-space: pre; opacity: 1;" transform="translate(0,134.60330708661422)">100</text></g><g class="ytick"><text text-anchor="end" x="44.581452318460194" y="4.8999999999999995" style="font-family: sans-serif; font-size: 14px; fill: rgb(0, 0, 0); fill-opacity: 1; white-space: pre; opacity: 1;" transform="translate(0,112.6533070866142)">200</text></g><g class="ytick"><text text-anchor="end" x="44.581452318460194" y="4.8999999999999995" style="font-family: sans-serif; font-size: 14px; fill: rgb(0, 0, 0); fill-opacity: 1; white-space: pre; opacity: 1;" transform="translate(0,90.7033070866142)">300</text></g><g class="ytick"><text text-anchor="end" x="44.581452318460194" y="4.8999999999999995" style="font-family: sans-serif; font-size: 14px; fill: rgb(0, 0, 0); fill-opacity: 1; white-space: pre; opacity: 1;" transform="translate(0,68.74330708661421)">400</text></g><g class="ytick"><text text-anchor="end" x="44.581452318460194" y="4.8999999999999995" style="font-family: sans-serif; font-size: 14px; fill: rgb(0, 0, 0); fill-opacity: 1; white-space: pre; opacity: 1;" transform="translate(0,46.793307086614206)">500</text></g></g><g class="overaxes-above"/></g><g class="subplot xy2"><g class="layer-subplot"><g class="shapelayer"/><g class="imagelayer"/></g><g class="gridlayer"><g class="x"><path class="xgrid crisp" transform="translate(67.2814523184602,0)" d="M0,192.14897942353753v124.01905816369495" style="stroke: rgb(0, 0, 0); stroke-opacity: 0.1; stroke-width: 0.5px;"/><path class="xgrid crisp" transform="translate(93.52145231846019,0)" d="M0,192.14897942353753v124.01905816369495" style="stroke: rgb(0, 0, 0); stroke-opacity: 0.1; stroke-width: 0.5px;"/><path class="xgrid crisp" transform="translate(119.77145231846019,0)" d="M0,192.14897942353753v124.01905816369495" style="stroke: rgb(0, 0, 0); stroke-opacity: 0.1; stroke-width: 0.5px;"/><path class="xgrid crisp" transform="translate(146.0114523184602,0)" d="M0,192.14897942353753v124.01905816369495" style="stroke: rgb(0, 0, 0); stroke-opacity: 0.1; stroke-width: 0.5px;"/><path class="xgrid crisp" transform="translate(172.2614523184602,0)" d="M0,192.14897942353753v124.01905816369495" style="stroke: rgb(0, 0, 0); stroke-opacity: 0.1; stroke-width: 0.5px;"/><path class="xgrid crisp" transform="translate(198.5014523184602,0)" d="M0,192.14897942353753v124.01905816369495" style="stroke: rgb(0, 0, 0); stroke-opacity: 0.1; stroke-width: 0.5px;"/><path class="xgrid crisp" transform="translate(224.7514523184602,0)" d="M0,192.14897942353753v124.01905816369495" style="stroke: rgb(0, 0, 0); stroke-opacity: 0.1; stroke-width: 0.5px;"/><path class="xgrid crisp" transform="translate(250.9914523184602,0)" d="M0,192.14897942353753v124.01905816369495" style="stroke: rgb(0, 0, 0); stroke-opacity: 0.1; stroke-width: 0.5px;"/><path class="xgrid crisp" transform="translate(277.24145231846023,0)" d="M0,192.14897942353753v124.01905816369495" style="stroke: rgb(0, 0, 0); stroke-opacity: 0.1; stroke-width: 0.5px;"/><path class="xgrid crisp" transform="translate(303.4814523184602,0)" d="M0,192.14897942353753v124.01905816369495" style="stroke: rgb(0, 0, 0); stroke-opacity: 0.1; stroke-width: 0.5px;"/><path class="xgrid crisp" transform="translate(329.73145231846024,0)" d="M0,192.14897942353753v124.01905816369495" style="stroke: rgb(0, 0, 0); stroke-opacity: 0.1; stroke-width: 0.5px;"/><path class="xgrid crisp" transform="translate(355.98145231846024,0)" d="M0,192.14897942353753v124.01905816369495" style="stroke: rgb(0, 0, 0); stroke-opacity: 0.1; stroke-width: 0.5px;"/><path class="xgrid crisp" transform="translate(382.22145231846014,0)" d="M0,192.14897942353753v124.01905816369495" style="stroke: rgb(0, 0, 0); stroke-opacity: 0.1; stroke-width: 0.5px;"/><path class="xgrid crisp" transform="translate(408.47145231846014,0)" d="M0,192.14897942353753v124.01905816369495" style="stroke: rgb(0, 0, 0); stroke-opacity: 0.1; stroke-width: 0.5px;"/><path class="xgrid crisp" transform="translate(434.71145231846015,0)" d="M0,192.14897942353753v124.01905816369495" style="stroke: rgb(0, 0, 0); stroke-opacity: 0.1; stroke-width: 0.5px;"/><path class="xgrid crisp" transform="translate(460.96145231846015,0)" d="M0,192.14897942353753v124.01905816369495" style="stroke: rgb(0, 0, 0); stroke-opacity: 0.1; stroke-width: 0.5px;"/><path class="xgrid crisp" transform="translate(487.20145231846016,0)" d="M0,192.14897942353753v124.01905816369495" style="stroke: rgb(0, 0, 0); stroke-opacity: 0.1; stroke-width: 0.5px;"/><path class="xgrid crisp" transform="translate(513.4514523184602,0)" d="M0,192.14897942353753v124.01905816369495" style="stroke: rgb(0, 0, 0); stroke-opacity: 0.1; stroke-width: 0.5px;"/><path class="xgrid crisp" transform="translate(539.6914523184602,0)" d="M0,192.14897942353753v124.01905816369495" style="stroke: rgb(0, 0, 0); stroke-opacity: 0.1; stroke-width: 0.5px;"/><path class="xgrid crisp" transform="translate(565.9414523184602,0)" d="M0,192.14897942353753v124.01905816369495" style="stroke: rgb(0, 0, 0); stroke-opacity: 0.1; stroke-width: 0.5px;"/><path class="xgrid crisp" transform="translate(592.1814523184602,0)" d="M0,192.14897942353753v124.01905816369495" style="stroke: rgb(0, 0, 0); stroke-opacity: 0.1; stroke-width: 0.5px;"/><path class="xgrid crisp" transform="translate(618.4314523184602,0)" d="M0,192.14897942353753v124.01905816369495" style="stroke: rgb(0, 0, 0); stroke-opacity: 0.1; stroke-width: 0.5px;"/><path class="xgrid crisp" transform="translate(644.6714523184602,0)" d="M0,192.14897942353753v124.01905816369495" style="stroke: rgb(0, 0, 0); stroke-opacity: 0.1; stroke-width: 0.5px;"/><path class="xgrid crisp" transform="translate(670.9214523184602,0)" d="M0,192.14897942353753v124.01905816369495" style="stroke: rgb(0, 0, 0); stroke-opacity: 0.1; stroke-width: 0.5px;"/><path class="xgrid crisp" transform="translate(697.1614523184602,0)" d="M0,192.14897942353753v124.01905816369495" style="stroke: rgb(0, 0, 0); stroke-opacity: 0.1; stroke-width: 0.5px;"/></g><g class="y2"><path class="y2grid crisp" transform="translate(0,312.6589794235375)" d="M48.38145231846019,0h667.681539807524" style="stroke: rgb(0, 0, 0); stroke-opacity: 0.1; stroke-width: 0.5px;"/><path class="y2grid crisp" transform="translate(0,275.32897942353753)" d="M48.38145231846019,0h667.681539807524" style="stroke: rgb(0, 0, 0); stroke-opacity: 0.1; stroke-width: 0.5px;"/><path class="y2grid crisp" transform="translate(0,237.99897942353752)" d="M48.38145231846019,0h667.681539807524" style="stroke: rgb(0, 0, 0); stroke-opacity: 0.1; stroke-width: 0.5px;"/><path class="y2grid crisp" transform="translate(0,200.66897942353754)" d="M48.38145231846019,0h667.681539807524" style="stroke: rgb(0, 0, 0); stroke-opacity: 0.1; stroke-width: 0.5px;"/></g></g><g class="zerolinelayer"/><path class="xlines-below"/><path class="ylines-below"/><g class="overlines-below"/><g class="xaxislayer-below"/><g class="yaxislayer-below"/><g class="overaxes-below"/><g class="plot" transform="translate(48.38145231846019,192.14897942353753)" clip-path="url(#clip9e7c90xy2plot)"><g class="scatterlayer mlayer"><g class="trace scatter trace2e883f" style="stroke-miterlimit: 2; opacity: 1;"><g class="fills"/><g class="errorbars"/><g class="lines"><path class="js-line" d="M18.9,115.83L19.77,115.83L19.77,114.42L20.65,114.42L20.65,109.96L21.52,109.96L21.52,107.8L22.4,107.8L22.4,100.74L23.27,100.74L23.27,93.05L24.15,93.05L24.15,75.22L25.02,75.22L25.02,58.55L25.9,58.55L25.9,82.06L26.77,82.06L26.77,48.42L27.65,48.42L27.65,41L29.39,40.93L29.39,26.9L30.27,26.9L30.27,48.83L31.14,48.83L31.14,56.48L32.02,56.48L32.02,66.24L32.89,66.24L32.89,90.09L33.77,90.09L33.77,104.47L34.64,104.47L34.64,105.86L35.52,105.86L35.52,119.38L71.39,119.53L71.39,118.51L74.01,118.51L74.01,113.63L75.76,113.45L75.76,112.69L76.64,112.69L76.64,114.09L77.51,114.09L77.51,111.64L78.39,111.64L78.39,107.78L79.26,107.78L79.26,88.4L80.14,88.4L80.14,79.13L81.01,79.13L81.01,75.31L81.89,75.31L81.89,62.67L82.76,62.67L82.76,50.1L83.64,50.1L83.64,36.97L84.51,36.97L84.51,55.69L85.38,55.69L85.38,41.6L86.26,41.6L86.26,50.27L87.13,50.27L87.13,46.32L88.01,46.32L88.01,74.21L89.76,74.61L89.76,77.42L91.51,77.61L91.51,93.12L92.38,93.12L92.38,99.64L93.26,99.64L93.26,104.88L94.13,104.88L94.13,112.52L95.01,112.52L95.01,115.8L96.76,116.42L96.76,117.47L98.51,117.34L98.51,112.15L100.26,112.15L100.26,116.76L101.13,116.76L101.13,117.98L102.88,117.25L102.88,115.8L104.63,115.8L104.63,117.31L106.38,117.98L106.38,117.12L107.26,117.12L107.26,114.31L109.01,113.91L109.01,112.52L109.88,112.52L109.88,111.12L110.76,111.12L110.76,109.17L111.63,109.17L111.63,107.4L112.51,107.4L112.51,106.53L113.38,106.53L113.38,96.42L115.13,96.01L115.13,70L116,70L116,72.24L116.88,72.24L116.88,55.98L117.75,55.98L117.75,41.6L118.63,41.6L118.63,28.15L119.5,28.15L119.5,41.46L120.38,41.46L120.38,39.16L121.25,39.16L121.25,53.34L122.13,53.34L122.13,41.74L123,41.74L123,58.66L123.88,58.66L123.88,85.35L124.75,85.35L124.75,117.36L125.63,117.36L125.63,119.08L133.5,119.22L133.5,118.1L148.37,117.94L148.37,117.02L151,117.02L151,118.35L159.75,118.51L159.75,117.83L161.5,117.12L161.5,116.68L163.25,116.26L163.25,114.82L164.12,114.82L164.12,99.53L165,99.53L165,96.92L165.87,96.92L165.87,88.92L166.75,88.92L166.75,95.9L167.62,95.9L167.62,86.53L168.5,86.53L168.5,77.38L169.37,77.38L169.37,69.4L171.12,68.66L171.12,58.83L171.99,58.83L171.99,61.21L172.87,61.21L172.87,64.24L173.74,64.24L173.74,73.5L174.62,73.5L174.62,81.96L175.49,81.96L175.49,90.77L176.37,90.77L176.37,101.37L177.24,101.37L177.24,107.89L178.12,107.89L178.12,109.81L178.99,109.81L178.99,111.43L179.87,111.43L179.87,115.83L180.74,115.83L180.74,116.78L182.49,116.71L182.49,115.41L183.37,115.41L183.37,113.49L184.24,113.49L184.24,117.47L190.37,116.87L190.37,119.18L191.24,119.18L191.24,106.7L192.12,106.7L192.12,109.78L193.87,109.29L193.87,105.64L194.74,105.64L194.74,99.49L195.62,99.49L195.62,101.94L196.49,101.94L196.49,100.39L197.36,100.39L197.36,99.53L199.11,99.76L199.11,100.61L199.99,100.61L199.99,86.34L200.86,86.34L200.86,108.86L201.74,108.86L201.74,115.78L210.49,115.63L210.49,116.3L211.36,116.3L211.36,117.52L212.24,117.52L212.24,114.72L213.99,114.34L213.99,115.58L214.86,115.58L214.86,113.73L215.74,113.73L215.74,112.6L219.24,111.96L219.24,113.41L220.11,113.41L220.11,114.51L221.86,115L221.86,116.95L223.61,117.23L223.61,117.94L225.36,117.94L225.36,116.77L226.23,116.77L226.23,114.98L227.11,114.98L227.11,110.75L227.98,110.75L227.98,112.44L228.86,112.44L228.86,106.95L229.73,106.95L229.73,101.37L230.61,101.37L230.61,103.73L231.48,103.73L231.48,83.22L232.36,83.22L232.36,84.04L233.23,84.04L233.23,80.72L234.11,80.72L234.11,73.85L234.98,73.85L234.98,63.48L235.86,63.48L235.86,82.9L236.73,82.9L236.73,89.12L237.61,89.12L237.61,93.55L238.48,93.55L238.48,97.13L239.36,97.13L239.36,104.86L240.23,104.86L240.23,106.19L241.11,106.19L241.11,110.6L241.98,110.6L241.98,112.21L242.86,112.21L242.86,115.96L245.48,116.52L245.48,117.19L252.48,116.94L252.48,116.66L253.36,116.66L253.36,115.74L254.23,115.74L254.23,110.65L255.1,110.65L255.1,104.89L255.98,104.89L255.98,102.76L256.85,102.76L256.85,100.31L257.73,100.31L257.73,99.52L258.6,99.52L258.6,105.34L259.48,105.34L259.48,112.52L260.35,112.52L260.35,117.33L261.23,117.33L261.23,115.94L262.1,115.94L262.1,111.36L262.98,111.36L262.98,114.9L270.85,115.1L270.85,112.12L271.73,112.12L271.73,111.08L272.6,111.08L272.6,114.65L275.23,114.85L275.23,108.76L276.1,108.76L276.1,105.98L276.98,105.98L276.98,109.97L277.85,109.97L277.85,100.67L278.73,100.67L278.73,98.19L279.6,98.19L279.6,87.3L280.48,87.3L280.48,66.8L281.35,66.8L281.35,62.73L282.22,62.73L282.22,75.35L283.1,75.35L283.1,91.15L283.97,91.15L283.97,84.18L284.85,84.18L284.85,105.81L285.72,105.81L285.72,115.8L286.6,115.8L286.6,114.29L287.47,114.29L287.47,117.04L289.22,117.28L289.22,118.2L293.6,117.63L293.6,116.58L295.35,116.02L295.35,112.99L296.22,112.99L296.22,108.33L297.97,108.64L297.97,101.63L298.85,101.63L298.85,98.29L299.72,98.29L299.72,102.73L300.6,102.73L300.6,94.14L301.47,94.14L301.47,102.41L302.35,102.41L302.35,90.47L303.22,90.47L303.22,73.67L304.1,73.67L304.1,90.27L304.97,90.27L304.97,99.96L305.85,99.96L305.85,100.98L306.72,100.98L306.72,99.92L307.6,99.92L307.6,105.5L308.47,105.5L308.47,109.86L309.35,109.86L309.35,108.57L310.22,108.57L310.22,113.93L311.09,113.93L311.09,115.24L311.97,115.24L311.97,116.22L313.72,116.84L313.72,117.19L318.97,116.97L318.97,116.51L319.84,116.51L319.84,111.99L320.72,111.99L320.72,116.23L321.59,116.23L321.59,119.22L329.47,119.2L329.47,117.96L340.84,117.59L340.84,118.81L344.34,118.94L344.34,115.71L346.09,115.48L346.09,116.42L346.96,116.42L346.96,117.53L349.59,117.35L349.59,116.52L350.46,116.52L350.46,115.29L352.21,115.13L352.21,105.54L353.09,105.54L353.09,103.05L354.84,103.41L354.84,95.45L355.71,95.45L355.71,99.49L356.59,99.49L356.59,97.24L357.46,97.24L357.46,98.59L358.34,98.59L358.34,100.4L359.21,100.4L359.21,102.41L360.09,102.41L360.09,99.06L360.96,99.06L360.96,108.44L361.84,108.44L361.84,114.76L362.71,114.76L362.71,112.16L363.59,112.16L363.59,113.42L364.46,113.42L364.46,116.6L366.21,117.12L366.21,117.88L371.46,118.15L371.46,117.04L373.21,116.67L373.21,114.57L374.08,114.57L374.08,104.27L374.96,104.27L374.96,113.07L375.83,113.07L375.83,110.75L376.71,110.75L376.71,101.79L379.33,102.1L379.33,100.81L381.96,101.52L381.96,99.63L383.71,99.28L383.71,90.79L384.58,90.79L384.58,94.94L385.46,94.94L385.46,104.48L388.08,104.51L388.08,105.54L388.96,105.54L388.96,110.22L389.83,110.22L389.83,113.49L390.71,113.49L390.71,115.45L391.58,115.45L391.58,120.29L392.46,120.29L392.46,111.78L393.33,111.78L393.33,117.01L394.21,117.01L394.21,120.51L395.08,120.51L395.08,115.07L395.95,115.07L395.95,117.17L399.45,117.85L399.45,118.3L400.33,118.3L400.33,119.49L405.58,119.67L405.58,120.51L416.95,120.51L416.95,114.29L417.83,114.29L417.83,120.05L437.07,119.86L437.07,116.41L441.45,116.41L441.45,115.01L442.32,115.01L442.32,97.47L443.2,97.47L443.2,86.94L444.07,86.94L444.07,78.39L444.95,78.39L444.95,59.22L445.82,59.22L445.82,34.63L447.57,34.42L447.57,24.95L448.45,24.95L448.45,32.66L449.32,32.66L449.32,31.72L450.2,31.72L450.2,47.78L451.07,47.78L451.07,62.28L451.94,62.28L451.94,85.3L452.82,85.3L452.82,106.2L453.69,106.2L453.69,111.46L455.44,110.84L455.44,114.56L456.32,114.56L456.32,116.95L457.19,116.95L457.19,117.98L461.57,117.91L461.57,116.81L462.44,116.81L462.44,115.27L463.32,115.27L463.32,111.4L464.19,111.4L464.19,112.67L465.07,112.67L465.07,106.47L465.94,106.47L465.94,89.59L466.82,89.59L466.82,66.87L467.69,66.87L467.69,19.34L468.57,19.34L468.57,63.66L469.44,63.66L469.44,48.08L470.32,48.08L470.32,4.31L471.19,4.31L471.19,47.5L472.07,47.5L472.07,22.33L472.94,22.33L472.94,58.44L473.82,58.44L473.82,95.41L474.69,95.41L474.69,99.5L475.57,99.5L475.57,103.54L476.44,103.54L476.44,108.52L477.32,108.52L477.32,103.2L478.19,103.2L478.19,114.44L479.07,114.44L479.07,109.33L479.94,109.33L479.94,115.69L480.81,115.69L480.81,116.8L482.56,117.37L482.56,116.39L484.31,116.21L484.31,120.19L524.56,120.51L524.56,118.56L525.43,118.56L525.43,114.85L527.18,115.23L527.18,113.13L528.06,113.13L528.06,108.7L529.81,108.84L529.81,104.84L530.68,104.84L530.68,95.23L531.56,95.23L531.56,101.97L532.43,101.97L532.43,96.11L533.31,96.11L533.31,85.23L534.18,85.23L534.18,75.59L535.06,75.59L535.06,89.1L535.93,89.1L535.93,71.33L536.8,71.33L536.8,53.39L537.68,53.39L537.68,67.23L538.55,67.23L538.55,84.56L539.43,84.56L539.43,101.7L540.3,101.7L540.3,110.62L541.18,110.62L541.18,114.93L542.05,114.93L542.05,120.32L542.93,120.32L542.93,111.72L543.8,111.72L543.8,116.84L544.68,116.84L544.68,117.81L549.05,118.3L549.05,116.74L550.8,116.33L550.8,115.47L551.68,115.47L551.68,111.23L552.55,111.23L552.55,107.67L553.43,107.67L553.43,97.81L554.3,97.81L554.3,102.36L555.18,102.36L555.18,98.17L556.05,98.17L556.05,84.09L557.8,84.21L557.8,85.55L558.68,85.55L558.68,86.89L559.55,86.89L559.55,79.74L560.43,79.74L560.43,87.13L561.3,87.13L561.3,91.95L562.18,91.95L562.18,99.11L563.92,99.26L563.92,107.16L565.67,107.17L565.67,113.15L567.42,113.5L567.42,116.95L568.3,116.95L568.3,120.23L611.17,120.37L611.17,117.65L614.67,117.35L614.67,116.81L615.54,116.81L615.54,117.7L616.42,117.7L616.42,115.07L617.29,115.07L617.29,112.86L619.04,112.59L619.04,109.38L619.92,109.38L619.92,103.91L620.79,103.91L620.79,100.5L621.66,100.5L621.66,96.98L622.54,96.98L622.54,84.8L623.41,84.8L623.41,59.51L624.29,59.51L624.29,51.28L625.16,51.28L625.16,58.88L626.04,58.88L626.04,64.82L626.91,64.82L626.91,94.42L627.79,94.42L627.79,100.09L628.66,100.09L628.66,102.82L629.54,102.82L629.54,97.57L630.41,97.57L630.41,108.13L631.29,108.13L631.29,114.73L632.16,114.73L632.16,115.72L633.04,115.72L633.04,116.68L634.79,117.1L634.79,117.59L636.54,117.88L636.54,118.49L639.16,117.89L639.16,116.12L640.04,116.12L640.04,112.41L642.66,111.82L642.66,98.93L643.54,98.93L643.54,68.78L644.41,68.78L644.41,46.8L645.29,46.8L645.29,42.45L646.16,42.45L646.16,48.73L647.04,48.73L647.04,63.76L647.91,63.76L647.91,69.07L648.78,69.07L648.78,120.51" style="vector-effect: non-scaling-stroke; fill: none; stroke: rgb(0, 154, 250); stroke-opacity: 1; stroke-width: 1px; opacity: 1;"/></g><g class="points"/><g class="text"/></g><g class="trace scatter trace36e003" style="stroke-miterlimit: 2; opacity: 1;"><g class="fills"/><g class="errorbars"/><g class="lines"><path class="js-line" d="M18.9,120.51L168.5,120.51L168.5,118.19L169.37,118.19L169.37,104.16L170.24,104.16L170.24,64.38L171.12,64.38L171.12,114.42L171.99,114.42L171.99,120.51L231.48,120.51L231.48,116.45L232.36,116.45L232.36,99.34L233.23,99.34L233.23,102.19L234.11,102.19L234.11,120.51L297.1,120.18L297.1,118.42L298.85,118.42L298.85,115.6L299.72,115.6L299.72,111.25L300.6,111.25L300.6,120.51L374.08,120.51L374.08,113.07L374.96,113.07L374.96,114.55L377.58,114.45L377.58,120.51L537.68,120.51L537.68,117.94L538.55,117.94L538.55,105.08L539.43,105.08L539.43,107.4L540.3,107.4L540.3,120.51L542.93,120.13L542.93,108.44L543.8,108.44L543.8,120.51L551.68,120.51L551.68,118.74L552.55,118.74L552.55,117.68L553.43,117.68L553.43,118.88L554.3,118.88L554.3,120.51L648.78,120.51L648.78,120.51" style="vector-effect: non-scaling-stroke; fill: none; stroke: rgb(227, 111, 71); stroke-opacity: 1; stroke-width: 1px; opacity: 1;"/></g><g class="points"/><g class="text"/></g><g class="trace scatter tracedcf34e" style="stroke-miterlimit: 2; opacity: 1;"><g class="fills"/><g class="errorbars"/><g class="lines"><path class="js-line" d="M19.77,120.51L171.12,120.51L171.12,76.96L171.99,76.96L171.99,120.51L377.58,119.89L377.58,114.59L378.46,114.59L378.46,102.16L379.33,102.16L379.33,120.51L467.69,119.97L467.69,113.16L468.57,113.16L468.57,59.96L469.44,59.96L469.44,120.51L472.07,120.51L472.07,118.93L472.94,118.93L472.94,97.09L473.82,97.09L473.82,114.4L474.69,114.4L474.69,120.51L552.55,120.51L552.55,119.54L553.43,119.54L553.43,112.93L554.3,112.93L554.3,97.96L555.18,97.96L555.18,118.45L556.05,118.45L556.05,97.22L556.93,97.22L556.93,113.54L557.8,113.54L557.8,96.83L558.68,96.83L558.68,120.51L647.91,120.51L647.91,70.74L648.78,70.74L648.78,120.51" style="vector-effect: non-scaling-stroke; fill: none; stroke: rgb(62, 164, 78); stroke-opacity: 1; stroke-width: 1px; opacity: 1;"/></g><g class="points"/><g class="text"/></g><g class="trace scatter trace5ae554" style="stroke-miterlimit: 2; opacity: 1;"><g class="fills"/><g class="errorbars"/><g class="lines"><path class="js-line" d="M19.77,120.51L86.26,120.51L86.26,102.49L87.13,102.49L87.13,80.46L88.01,80.46L88.01,85.25L88.88,85.25L88.88,120.51L162.37,120.51L162.37,119.66L163.25,119.66L163.25,117.21L164.12,117.21L164.12,114.81L165,114.81L165,109.03L165.87,109.03L165.87,91.46L166.75,91.46L166.75,108.68L167.62,108.68L167.62,120.51L168.5,120.51L168.5,110.65L169.37,110.65L169.37,93.04L170.24,93.04L170.24,120.51L228.86,119.83L228.86,103.79L229.73,103.79L229.73,106.8L230.61,106.8L230.61,120.51L451.07,120.51L451.07,110.45L452.82,110.66L452.82,116.47L453.69,116.47L453.69,117.29L455.44,117.53L455.44,119.54L456.32,119.54L456.32,120.51L556.93,120.51L556.93,117.42L558.68,116.82L558.68,88.22L559.55,88.22L559.55,97.36L560.43,97.36L560.43,120.51L648.78,120.51L648.78,120.51" style="vector-effect: non-scaling-stroke; fill: none; stroke: rgb(195, 113, 210); stroke-opacity: 1; stroke-width: 1px; opacity: 1;"/></g><g class="points"/><g class="text"/></g><g class="trace scatter trace345e79" style="stroke-miterlimit: 2; opacity: 1;"><g class="fills"/><g class="errorbars"/><g class="lines"><path class="js-line" d="M20.65,120.51L171.12,120.51L171.12,113.94L171.99,113.94L171.99,93.05L172.87,93.05L172.87,104.77L173.74,104.77L173.74,120.51L302.35,120.51L302.35,114.77L303.22,114.77L303.22,106.98L304.1,106.98L304.1,114.9L304.97,114.9L304.97,120.51L381.96,120.51L381.96,118.57L382.83,118.57L382.83,109.07L383.71,109.07L383.71,102.41L384.58,102.41L384.58,114.65L385.46,114.65L385.46,120.51L556.05,120.51L556.05,105.78L556.93,105.78L556.93,104.13L557.8,104.13L557.8,120.51L645.29,120.51L645.29,115.89L646.16,115.89L646.16,111.13L647.04,111.13L647.04,84.73L647.91,84.73L647.91,120.51L648.78,120.51L648.78,120.51" style="vector-effect: non-scaling-stroke; fill: none; stroke: rgb(172, 142, 24); stroke-opacity: 1; stroke-width: 1px; opacity: 1;"/></g><g class="points"/><g class="text"/></g><g class="trace scatter tracecde728" style="stroke-miterlimit: 2; opacity: 1;"><g class="fills"/><g class="errorbars"/><g class="lines"><path class="js-line" d="M20.65,120.51L76.64,120.51L76.64,107.18L77.51,107.18L77.51,99.31L78.39,99.31L78.39,97.4L79.26,97.4L79.26,91.05L80.14,91.05L80.14,120.51L229.73,119.95L229.73,118.92L230.61,118.92L230.61,96.68L231.48,96.68L231.48,120.51L233.23,120.51L233.23,118.08L234.11,118.08L234.11,98.06L234.98,98.06L234.98,108.07L235.86,108.07L235.86,120.51L302.35,119.85L302.35,108.72L303.22,108.72L303.22,120.51L304.97,119.93L304.97,102.42L305.85,102.42L305.85,120.51L375.83,120.51L375.83,119.03L376.71,119.03L376.71,118.12L378.46,117.81L378.46,102.19L379.33,102.19L379.33,120.51L381.96,120.51L381.96,116.22L382.83,116.22L382.83,112.05L383.71,112.05L383.71,114.59L384.58,114.59L384.58,120.51L629.54,120.39L629.54,119.59L641.79,120.1L641.79,120.51L648.78,120.51L648.78,120.51" style="vector-effect: non-scaling-stroke; fill: none; stroke: rgb(0, 170, 174); stroke-opacity: 1; stroke-width: 1px; opacity: 1;"/></g><g class="points"/><g class="text"/></g><g class="trace scatter trace178961" style="stroke-miterlimit: 2; opacity: 1;"><g class="fills"/><g class="errorbars"/><g class="lines"><path class="js-line" d="M21.52,120.51L81.01,120.51L81.01,106.33L81.89,106.33L81.89,87.17L82.76,87.17L82.76,56.04L83.64,56.04L83.64,120.51L86.26,120.51L86.26,99.3L87.13,99.3L87.13,71.21L88.01,71.21L88.01,85.25L88.88,85.25L88.88,120.51L168.5,120.51L168.5,110.65L169.37,110.65L169.37,93.04L170.24,93.04L170.24,120.51L232.36,120.51L232.36,107.77L233.23,107.77L233.23,95.92L234.11,95.92L234.11,120.51L234.98,120.51L234.98,117.47L235.86,117.47L235.86,96.87L236.73,96.87L236.73,103.64L237.61,103.64L237.61,120.51L282.22,120.51L282.22,119.16L283.1,119.16L283.1,112.44L283.97,112.44L283.97,117.48L284.85,117.48L284.85,120.51L286.6,120.51L286.6,114.29L287.47,114.29L287.47,120.51L301.47,120.51L301.47,117.88L302.35,117.88L302.35,113.91L303.22,113.91L303.22,111.08L304.1,111.08L304.1,120.51L377.58,120.51L377.58,119.12L378.46,119.12L378.46,116.81L381.08,116.78L381.08,114.35L381.96,114.35L381.96,120.51L551.68,119.89L551.68,118.33L553.43,118.33L553.43,119.26L554.3,119.26L554.3,120.51L648.78,120.51L648.78,120.51" style="vector-effect: non-scaling-stroke; fill: none; stroke: rgb(237, 94, 147); stroke-opacity: 1; stroke-width: 1px; opacity: 1;"/></g><g class="points"/><g class="text"/></g><g class="trace scatter trace2281bc" style="stroke-miterlimit: 2; opacity: 1;"><g class="fills"/><g class="errorbars"/><g class="lines"><path class="js-line" d="M22.4,120.51L85.38,120.51L85.38,108.15L86.26,108.15L86.26,78.1L87.13,78.1L87.13,69.51L88.01,69.51L88.01,120.51L230.61,119.83L230.61,117.68L231.48,117.68L231.48,116.5L232.36,116.5L232.36,103.14L233.23,103.14L233.23,120.51L298.85,120.51L298.85,116.38L299.72,116.38L299.72,112.11L300.6,112.11L300.6,114.36L301.47,114.36L301.47,120.51L381.08,120.35L381.08,102.01L381.96,102.01L381.96,120.51L558.68,120.51L558.68,110.55L559.55,110.55L559.55,98.94L560.43,98.94L560.43,114.7L561.3,114.7L561.3,120.51L648.78,120.51L648.78,120.51" style="vector-effect: non-scaling-stroke; fill: none; stroke: rgb(198, 130, 37); stroke-opacity: 1; stroke-width: 1px; opacity: 1;"/></g><g class="points"/><g class="text"/></g><g class="trace scatter trace8a07e2" style="stroke-miterlimit: 2; opacity: 1;"><g class="fills"/><g class="errorbars"/><g class="lines"><path class="js-line" d="M22.4,120.51L84.51,120.51L84.51,100.32L85.38,100.32L85.38,94.74L86.26,94.74L86.26,42.04L87.13,42.04L87.13,120.51L171.12,120.05L171.12,101.57L171.99,101.57L171.99,71.47L172.87,71.47L172.87,120.51L360.09,120.51L360.09,117.04L360.96,117.04L360.96,105.22L361.84,105.22L361.84,118.79L365.34,119.52L365.34,120.51L377.58,120.51L377.58,117.55L378.46,117.55L378.46,116.43L379.33,116.43L379.33,108.87L380.21,108.87L380.21,120.51L381.08,120.51L381.08,101.84L381.96,101.84L381.96,120.51L551.68,119.94L551.68,118.56L553.43,118.56L553.43,115.99L554.3,115.99L554.3,98.39L555.18,98.39L555.18,120.51L556.93,120.51L556.93,114.45L557.8,114.45L557.8,101.68L558.68,101.68L558.68,120.51L560.43,120.51L560.43,94.08L561.3,94.08L561.3,115.83L562.18,115.83L562.18,120.51L648.78,120.51L648.78,120.51" style="vector-effect: non-scaling-stroke; fill: none; stroke: rgb(0, 169, 141); stroke-opacity: 1; stroke-width: 1px; opacity: 1;"/></g><g class="points"/><g class="text"/></g><g class="trace scatter tracead4672" style="stroke-miterlimit: 2; opacity: 1;"><g class="fills"/><g class="errorbars"/><g class="lines"><path class="js-line" d="M22.4,120.51L83.64,120.51L83.64,90.97L84.51,90.97L84.51,75.39L85.38,75.39L85.38,120.51L231.48,120.51L231.48,117.46L232.36,117.46L232.36,104.55L233.23,104.55L233.23,102.18L234.11,102.18L234.11,120.51L234.98,120.51L234.98,114.63L235.86,114.63L235.86,63.42L236.73,63.42L236.73,102.6L237.61,102.6L237.61,120.51L296.22,120.51L296.22,114.48L297.1,114.48L297.1,85.61L297.97,85.61L297.97,99.22L298.85,99.22L298.85,120.51L299.72,120.51L299.72,117.87L300.6,117.87L300.6,115.95L301.47,115.95L301.47,109.05L302.35,109.05L302.35,120.51L303.22,120.51L303.22,112.77L304.1,112.77L304.1,108.88L304.97,108.88L304.97,114.99L305.85,114.99L305.85,120.51L378.46,120.51L378.46,116.69L379.33,116.69L379.33,109.27L380.21,109.27L380.21,98.24L381.08,98.24L381.08,120.51L555.18,120.51L555.18,112.8L556.05,112.8L556.05,101.36L556.93,101.36L556.93,102.21L557.8,102.21L557.8,103.45L558.68,103.45L558.68,120.51L647.04,120.51L647.04,116.05L647.91,116.05L647.91,112.52L648.78,112.52L648.78,120.51" style="vector-effect: non-scaling-stroke; fill: none; stroke: rgb(142, 151, 30); stroke-opacity: 1; stroke-width: 1px; opacity: 1;"/></g><g class="points"/><g class="text"/></g><g class="trace scatter trace0c2b68" style="stroke-miterlimit: 2; opacity: 1;"><g class="fills"/><g class="errorbars"/><g class="lines"><path class="js-line" d="M22.4,120.51L166.75,120.51L166.75,105.28L167.62,105.28L167.62,98.35L168.5,98.35L168.5,114.35L169.37,114.35L169.37,120.51L171.99,120.51L171.99,108.53L172.87,108.53L172.87,89.98L173.74,89.98L173.74,107.03L174.62,107.03L174.62,120.51L379.33,120.51L379.33,115.52L380.21,115.52L380.21,112.3L381.08,112.3L381.08,111.5L381.96,111.5L381.96,105.39L382.83,105.39L382.83,120.51L384.58,120.01L384.58,107.35L385.46,107.35L385.46,115.5L386.33,115.5L386.33,120.51L451.07,120.51L451.07,110.5L452.82,110.61L452.82,116.47L453.69,116.47L453.69,117.29L455.44,117.53L455.44,119.54L456.32,119.54L456.32,120.51L554.3,120.51L554.3,119.23L555.18,119.23L555.18,111.42L556.05,111.42L556.05,105.99L556.93,105.99L556.93,120.51L643.54,120.51L643.54,115.22L644.41,115.22L644.41,109.46L645.29,109.46L645.29,93.29L646.16,93.29L646.16,120.51L648.78,120.51L648.78,120.51" style="vector-effect: non-scaling-stroke; fill: none; stroke: rgb(0, 169, 204); stroke-opacity: 1; stroke-width: 1px; opacity: 1;"/></g><g class="points"/><g class="text"/></g><g class="trace scatter trace2b0f8d" style="stroke-miterlimit: 2; opacity: 1;"><g class="fills"/><g class="errorbars"/><g class="lines"><path class="js-line" d="M22.4,120.51L76.64,120.51L76.64,104.39L77.51,104.39L77.51,94.72L80.14,94.72L80.14,91.61L81.01,91.61L81.01,18.76L81.89,18.76L81.89,46.01L82.76,46.01L82.76,120.51L166.75,120.51L166.75,105.09L167.62,105.09L167.62,97.65L168.5,97.65L168.5,71.68L169.37,71.68L169.37,120.51L171.99,120.51L171.99,108.68L172.87,108.68L172.87,89.82L173.74,89.82L173.74,107.03L174.62,107.03L174.62,120.51L233.23,120.51L233.23,118.25L234.11,118.25L234.11,97.89L234.98,97.89L234.98,108.07L235.86,108.07L235.86,120.51L295.35,120.51L295.35,118.49L296.22,118.49L296.22,116.84L298.85,116.21L298.85,115.49L299.72,115.49L299.72,120.51L304.1,120.29L304.1,114.51L304.97,114.51L304.97,120.51L470.32,120.13L470.32,117.25L472.07,117.93L472.07,120.51L553.43,120.51L553.43,116.79L554.3,116.79L554.3,111.93L555.18,111.93L555.18,114.14L556.05,114.14L556.05,120.51L640.91,120.51L640.91,108.6L641.79,108.6L641.79,99.4L642.66,99.4L642.66,98.19L643.54,98.19L643.54,101.19L644.41,101.19L644.41,120.51L648.78,120.51L648.78,120.51" style="vector-effect: non-scaling-stroke; fill: none; stroke: rgb(155, 127, 233); stroke-opacity: 1; stroke-width: 1px; opacity: 1;"/></g><g class="points"/><g class="text"/></g><g class="trace scatter trace5fbef3" style="stroke-miterlimit: 2; opacity: 1;"><g class="fills"/><g class="errorbars"/><g class="lines"><path class="js-line" d="M22.4,120.51L79.26,120.51L79.26,119.42L80.14,119.42L80.14,98.73L81.01,98.73L81.01,93.52L81.89,93.52L81.89,45.93L82.76,45.93L82.76,120.51L165.87,120.34L165.87,113.93L166.75,113.93L166.75,110.57L167.62,110.57L167.62,112.3L168.5,112.3L168.5,120.51L231.48,120.15L231.48,113.35L232.36,113.35L232.36,103.14L233.23,103.14L233.23,120.51L300.6,120.51L300.6,117.42L301.47,117.42L301.47,110.99L302.35,110.99L302.35,114.46L303.22,114.46L303.22,112.62L304.1,112.62L304.1,108.91L304.97,108.91L304.97,115.11L305.85,115.11L305.85,120.51L372.33,120.51L372.33,119.3L373.21,119.3L373.21,117.72L374.96,118.28L374.96,119.37L375.83,119.37L375.83,114.01L376.71,114.01L376.71,115.7L377.58,115.7L377.58,120.51L462.44,120.51L462.44,119.02L463.32,119.02L463.32,115.81L464.19,115.81L464.19,120.47L465.94,120.51L465.94,117.86L466.82,117.86L466.82,85.71L467.69,85.71L467.69,114.4L468.57,114.4L468.57,120.51L470.32,120.51L470.32,96.93L471.19,96.93L471.19,67.51L472.07,67.51L472.07,78.88L472.94,78.88L472.94,120.51L645.29,120.51L645.29,105.45L646.16,105.45L646.16,94.03L647.04,94.03L647.04,93L647.91,93L647.91,108.68L648.78,108.68L648.78,120.51" style="vector-effect: non-scaling-stroke; fill: none; stroke: rgb(97, 141, 246); stroke-opacity: 1; stroke-width: 1px; opacity: 1;"/></g><g class="points"/><g class="text"/></g><g class="trace scatter trace3b33cf" style="stroke-miterlimit: 2; opacity: 1;"><g class="fills"/><g class="errorbars"/><g class="lines"><path class="js-line" d="M22.4,120.51L227.98,120.27L227.98,118.49L229.73,118.49L229.73,117.52L230.61,117.52L230.61,96.68L231.48,96.68L231.48,120.51L232.36,120.51L232.36,118.41L233.23,118.41L233.23,113.53L234.11,113.53L234.11,92.26L234.98,92.26L234.98,120.51L300.6,120.51L300.6,117.36L301.47,117.36L301.47,111.22L302.35,111.22L302.35,120.51L381.08,120.51L381.08,119.18L381.96,119.18L381.96,113.53L382.83,113.53L382.83,110.15L383.71,110.15L383.71,120.51L556.05,120.51L556.05,115.27L556.93,115.27L556.93,109.97L557.8,109.97L557.8,105.18L558.68,105.18L558.68,110.68L559.55,110.68L559.55,99.17L560.43,99.17L560.43,114.35L561.3,114.35L561.3,120.51L648.78,120.51L648.78,120.51" style="vector-effect: non-scaling-stroke; fill: none; stroke: rgb(240, 96, 115); stroke-opacity: 1; stroke-width: 1px; opacity: 1;"/></g><g class="points"/><g class="text"/></g><g class="trace scatter trace306ef1" style="stroke-miterlimit: 2; opacity: 1;"><g class="fills"/><g class="errorbars"/><g class="lines"><path class="js-line" d="M22.4,120.51L84.51,120.51L84.51,117.42L85.38,117.42L85.38,77.4L86.26,77.4L86.26,36.05L87.13,36.05L87.13,120.51L168.5,120.51L168.5,117.84L169.37,117.84L169.37,102.21L170.24,102.21L170.24,97.65L171.12,97.65L171.12,104.56L171.99,104.56L171.99,102.69L172.87,102.69L172.87,104.77L173.74,104.77L173.74,120.51L295.35,120.51L295.35,118.49L296.22,118.49L296.22,116.84L298.85,116.27L298.85,115.44L299.72,115.44L299.72,120.51L372.33,120.51L372.33,118.57L373.21,118.57L373.21,115.64L374.08,115.64L374.08,114.87L374.96,114.87L374.96,120.51L377.58,120.51L377.58,118.76L378.46,118.76L378.46,115.36L379.33,115.36L379.33,108.74L380.21,108.74L380.21,120.51L381.08,120.51L381.08,119.35L381.96,119.35L381.96,115.24L382.83,115.24L382.83,108.27L383.71,108.27L383.71,120.51L465.94,120.51L465.94,119.33L466.82,119.33L466.82,104.76L468.57,105.07L468.57,106.63L469.44,106.63L469.44,94.34L470.32,94.34L470.32,62.28L471.19,62.28L471.19,120.51L472.07,120.51L472.07,111.61L472.94,111.61L472.94,102.88L473.82,102.88L473.82,115.92L474.69,115.92L474.69,120.51L648.78,120.51L648.78,120.51" style="vector-effect: non-scaling-stroke; fill: none; stroke: rgb(221, 101, 182); stroke-opacity: 1; stroke-width: 1px; opacity: 1;"/></g><g class="points"/><g class="text"/></g><g class="trace scatter trace9252d1" style="stroke-miterlimit: 2; opacity: 1;"><g class="fills"/><g class="errorbars"/><g class="lines"><path class="js-line" d="M22.4,120.51L81.89,120.51L81.89,105.37L82.76,105.37L82.76,84.93L83.64,84.93L83.64,47.64L84.51,47.64L84.51,76.12L85.38,76.12L85.38,120.51L235.86,120.51L235.86,114.18L236.73,114.18L236.73,107.96L237.61,107.96L237.61,114.49L238.48,114.49L238.48,120.51L282.22,120.51L282.22,119.61L283.1,119.61L283.1,114.87L284.85,114.6L284.85,120.51L299.72,120.51L299.72,112.27L300.6,112.27L300.6,110.08L301.47,110.08L301.47,120.51L470.32,120.51L470.32,100.48L471.19,100.48L471.19,84.54L472.07,84.54L472.07,120.51L648.78,120.51L648.78,120.51" style="vector-effect: non-scaling-stroke; fill: none; stroke: rgb(108, 159, 51); stroke-opacity: 1; stroke-width: 1px; opacity: 1;"/></g><g class="points"/><g class="text"/></g><g class="trace scatter tracecea0dd" style="stroke-miterlimit: 2; opacity: 1;"><g class="fills"/><g class="errorbars"/><g class="lines"><path class="js-line" d="M22.4,120.51L81.89,120.51L81.89,104.41L82.76,104.41L82.76,79.83L83.64,79.83L83.64,81.6L84.51,81.6L84.51,116.64L85.38,116.64L85.38,33.41L86.26,33.41L86.26,120.51L302.35,120.24L302.35,108.34L303.22,108.34L303.22,120.51L360.09,120.51L360.09,117.22L360.96,117.22L360.96,111.27L361.84,111.27L361.84,118.79L365.34,119.52L365.34,120.51L469.44,120.51L469.44,115.6L470.32,115.6L470.32,80L471.19,80L471.19,103.71L472.07,103.71L472.07,120.51L628.66,120.51L628.66,117.98L629.54,117.98L629.54,110.59L630.41,110.59L630.41,120.51L647.04,120.51L647.04,102.73L647.91,102.73L647.91,88.51L648.78,88.51L648.78,120.51" style="vector-effect: non-scaling-stroke; fill: none; stroke: rgb(0, 154, 250); stroke-opacity: 1; stroke-width: 1px; opacity: 1;"/></g><g class="points"/><g class="text"/></g><g class="trace scatter tracea670a0" style="stroke-miterlimit: 2; opacity: 1;"><g class="fills"/><g class="errorbars"/><g class="lines"><path class="js-line" d="M22.4,120.51L76.64,120.51L76.64,109.53L77.51,109.53L77.51,101.14L78.39,101.14L78.39,92.99L79.26,92.99L79.26,91.27L80.14,91.27L80.14,120.51L165.87,119.89L165.87,95.63L166.75,95.63L166.75,108.68L167.62,108.68L167.62,120.51L168.5,120.51L168.5,83.18L169.37,83.18L169.37,120.51L170.24,120.51L170.24,99.49L171.12,99.49L171.12,97.97L171.99,97.97L171.99,120.51L228.86,119.83L228.86,103.79L229.73,103.79L229.73,106.8L230.61,106.8L230.61,119.87L231.48,119.87L231.48,83.82L232.36,83.82L232.36,120.51L297.97,120.51L297.97,117.67L298.85,117.67L298.85,115.23L299.72,115.23L299.72,109.44L300.6,109.44L300.6,102.36L301.47,102.36L301.47,120.51L556.05,120.51L556.05,105.98L556.93,105.98L556.93,103.93L557.8,103.93L557.8,120.51L638.29,120.51L638.29,119.43L639.16,119.43L639.16,118.41L640.91,118.41L640.91,119.57L641.79,119.57L641.79,120.51L645.29,120.51L645.29,115.89L646.16,115.89L646.16,111.13L647.04,111.13L647.04,84.73L647.91,84.73L647.91,120.51L648.78,120.51L648.78,120.51" style="vector-effect: non-scaling-stroke; fill: none; stroke: rgb(227, 111, 71); stroke-opacity: 1; stroke-width: 1px; opacity: 1;"/></g><g class="points"/><g class="text"/></g><g class="trace scatter tracecaddc1" style="stroke-miterlimit: 2; opacity: 1;"><g class="fills"/><g class="errorbars"/><g class="lines"><path class="js-line" d="M22.4,120.51L82.76,120.51L82.76,105.19L83.64,105.19L83.64,85.56L84.51,85.56L84.51,102.34L85.38,102.34L85.38,120.51L87.13,120.51L87.13,94.98L88.01,94.98L88.01,75.68L88.88,75.68L88.88,109.98L89.76,109.98L89.76,120.51L171.12,120.05L171.12,101.56L171.99,101.56L171.99,71.48L172.87,71.48L172.87,120.51L231.48,119.87L231.48,83.82L232.36,83.82L232.36,120.51L235.86,120.51L235.86,113.97L236.73,113.97L236.73,108L237.61,108L237.61,114.68L238.48,114.68L238.48,120.51L298.85,120.51L298.85,116.27L299.72,116.27L299.72,112.15L300.6,112.15L300.6,114.45L301.47,114.45L301.47,120.39L302.35,120.39L302.35,111.81L303.22,111.81L303.22,110.66L304.1,110.66L304.1,120.51L360.09,120.51L360.09,115.61L360.96,115.61L360.96,119.19L361.84,119.19L361.84,120.51L466.82,120.26L466.82,117.49L467.69,117.49L467.69,115.44L468.57,115.44L468.57,60.41L469.44,60.41L469.44,120.51L471.19,120.51L471.19,113.39L472.07,113.39L472.07,87.58L472.94,87.58L472.94,98.34L473.82,98.34L473.82,120.51L632.16,120.51L632.16,119.59L633.04,119.59L633.04,117.7L643.54,117.7L643.54,114.67L644.41,114.67L644.41,86.37L645.29,86.37L645.29,120.51L648.78,120.51L648.78,120.51" style="vector-effect: non-scaling-stroke; fill: none; stroke: rgb(62, 164, 78); stroke-opacity: 1; stroke-width: 1px; opacity: 1;"/></g><g class="points"/><g class="text"/></g><g class="trace scatter trace7ae97b" style="stroke-miterlimit: 2; opacity: 1;"><g class="fills"/><g class="errorbars"/><g class="lines"><path class="js-line" d="M22.4,120.51L84.51,120.51L84.51,116.46L85.38,116.46L85.38,37.46L86.26,37.46L86.26,120.51L234.11,120.51L234.11,107.9L234.98,107.9L234.98,91.48L235.86,91.48L235.86,118.59L236.73,118.59L236.73,120.51L300.6,120.4L300.6,113.4L301.47,113.4L301.47,109.06L302.35,109.06L302.35,120.51L645.29,120.51L645.29,113.45L646.16,113.45L646.16,108.23L648.78,108.66L648.78,120.51" style="vector-effect: non-scaling-stroke; fill: none; stroke: rgb(195, 113, 210); stroke-opacity: 1; stroke-width: 1px; opacity: 1;"/></g><g class="points"/><g class="text"/></g><g class="trace scatter trace941068" style="stroke-miterlimit: 2; opacity: 1;"><g class="fills"/><g class="errorbars"/><g class="lines"><path class="js-line" d="M23.27,120.51L82.76,120.51L82.76,103.05L83.64,103.05L83.64,81.48L84.51,81.48L84.51,102.34L85.38,102.34L85.38,120.51L87.13,120.51L87.13,92.41L88.01,92.41L88.01,72.99L88.88,72.99L88.88,115.24L89.76,115.24L89.76,120.51L282.22,120.51L282.22,119.69L283.1,119.69L283.1,115.1L283.97,115.1L283.97,120.51L465.94,120.51L465.94,118.08L466.82,118.08L466.82,91.61L467.69,91.61L467.69,108.29L468.57,108.29L468.57,104.08L469.44,104.08L469.44,80.94L470.32,80.94L470.32,120.51L553.43,120.51L553.43,116.85L554.3,116.85L554.3,111.89L555.18,111.89L555.18,114.12L556.05,114.12L556.05,120.51L559.55,120.51L559.55,108.62L560.43,108.62L560.43,105.99L561.3,105.99L561.3,115.81L562.18,115.81L562.18,120.51L644.41,120.51L644.41,110.59L645.29,110.59L645.29,97.52L646.16,97.52L646.16,103.65L647.04,103.65L647.04,120.51L648.78,120.51L648.78,120.51" style="vector-effect: non-scaling-stroke; fill: none; stroke: rgb(172, 142, 24); stroke-opacity: 1; stroke-width: 1px; opacity: 1;"/></g><g class="points"/><g class="text"/></g><g class="trace scatter trace76a7c9" style="stroke-miterlimit: 2; opacity: 1;"><g class="fills"/><g class="errorbars"/><g class="lines"><path class="js-line" d="M23.27,120.51L79.26,120.51L79.26,115.58L80.14,115.58L80.14,3.51L81.01,3.51L81.01,59.93L81.89,59.93L81.89,87.33L82.76,87.33L82.76,50L83.64,50L83.64,120.51L165.87,120.34L165.87,113.93L166.75,113.93L166.75,110.57L167.62,110.57L167.62,112.3L168.5,112.3L168.5,120.51L169.37,120.51L169.37,110.99L170.24,110.99L170.24,98.78L171.12,98.78L171.12,114.42L171.99,114.42L171.99,120.51L233.23,120.51L233.23,117.65L234.11,117.65L234.11,92.26L234.98,92.26L234.98,120.51L376.71,120.51L376.71,118.58L377.58,118.58L377.58,103.77L378.46,103.77L378.46,120.51L628.66,120.51L628.66,117.98L629.54,117.98L629.54,109.62L630.41,109.62L630.41,118.71L633.04,118.81L633.04,119.89L641.79,119.89L641.79,99.93L642.66,99.93L642.66,98.19L643.54,98.19L643.54,96.47L644.41,96.47L644.41,108.9L645.29,108.9L645.29,93.29L646.16,93.29L646.16,120.51L648.78,120.51L648.78,120.51" style="vector-effect: non-scaling-stroke; fill: none; stroke: rgb(0, 170, 174); stroke-opacity: 1; stroke-width: 1px; opacity: 1;"/></g><g class="points"/><g class="text"/></g><g class="trace scatter trace739def" style="stroke-miterlimit: 2; opacity: 1;"><g class="fills"/><g class="errorbars"/><g class="lines"><path class="js-line" d="M23.27,120.51L232.36,120.51L232.36,107.63L233.23,107.63L233.23,96.06L234.11,96.06L234.11,120.51L376.71,120.51L376.71,118.58L377.58,118.58L377.58,103.77L378.46,103.77L378.46,120.51L467.69,120.51L467.69,119.34L468.57,119.34L468.57,100.45L469.44,100.45L469.44,54.63L470.32,54.63L470.32,114.32L471.19,114.32L471.19,106.11L472.07,106.11L472.07,78.88L472.94,78.88L472.94,120.51L554.3,120.51L554.3,119.23L555.18,119.23L555.18,111.42L556.05,111.42L556.05,105.99L556.93,105.99L556.93,118.96L557.8,118.96L557.8,115.17L558.68,115.17L558.68,79.45L559.55,79.45L559.55,100.01L560.43,100.01L560.43,120.51L648.78,120.51L648.78,120.51" style="vector-effect: non-scaling-stroke; fill: none; stroke: rgb(237, 94, 147); stroke-opacity: 1; stroke-width: 1px; opacity: 1;"/></g><g class="points"/><g class="text"/></g><g class="trace scatter trace8e3817" style="stroke-miterlimit: 2; opacity: 1;"><g class="fills"/><g class="errorbars"/><g class="lines"><path class="js-line" d="M23.27,120.51L85.38,120.51L85.38,106.6L86.26,106.6L86.26,73.04L87.13,73.04L87.13,69.9L88.01,69.9L88.01,120.51L234.11,120.51L234.11,107.32L234.98,107.32L234.98,94.67L235.86,94.67L235.86,115.99L236.73,115.99L236.73,120.51L304.97,119.93L304.97,102.42L305.85,102.42L305.85,120.51L381.08,120.51L381.08,116.96L381.96,116.96L381.96,105.39L382.83,105.39L382.83,120.51L383.71,120.51L383.71,119.56L384.58,119.56L384.58,107.85L385.46,107.85L385.46,115.45L386.33,115.45L386.33,120.51L469.44,120.51L469.44,116.3L470.32,116.3L470.32,87L471.19,87L471.19,102.23L472.07,102.23L472.07,120.51L644.41,120.51L644.41,113.54L645.29,113.54L645.29,104.1L646.16,104.1L646.16,106.56L647.04,106.56L647.04,120.51L648.78,120.51L648.78,120.51" style="vector-effect: non-scaling-stroke; fill: none; stroke: rgb(198, 130, 37); stroke-opacity: 1; stroke-width: 1px; opacity: 1;"/></g><g class="points"/><g class="text"/></g></g></g><g class="overplot"/><path class="xlines-above crisp" d="M47.38145231846019,316.66803758723245H716.0629921259842" style="fill: none; stroke-width: 1px; stroke: rgb(0, 0, 0); stroke-opacity: 1;"/><path class="ylines-above crisp" d="M47.88145231846019,192.14897942353753V316.16803758723245" style="fill: none; stroke-width: 1px; stroke: rgb(0, 0, 0); stroke-opacity: 1;"/><g class="overlines-above"/><g class="xaxislayer-above"><path class="xtick ticks crisp" d="M0,316.16803758723245v-5" transform="translate(67.2814523184602,0)" style="stroke: rgb(0, 0, 0); stroke-opacity: 1; stroke-width: 1px;"/><path class="xtick ticks crisp" d="M0,316.16803758723245v-5" transform="translate(93.52145231846019,0)" style="stroke: rgb(0, 0, 0); stroke-opacity: 1; stroke-width: 1px;"/><path class="xtick ticks crisp" d="M0,316.16803758723245v-5" transform="translate(119.77145231846019,0)" style="stroke: rgb(0, 0, 0); stroke-opacity: 1; stroke-width: 1px;"/><path class="xtick ticks crisp" d="M0,316.16803758723245v-5" transform="translate(146.0114523184602,0)" style="stroke: rgb(0, 0, 0); stroke-opacity: 1; stroke-width: 1px;"/><path class="xtick ticks crisp" d="M0,316.16803758723245v-5" transform="translate(172.2614523184602,0)" style="stroke: rgb(0, 0, 0); stroke-opacity: 1; stroke-width: 1px;"/><path class="xtick ticks crisp" d="M0,316.16803758723245v-5" transform="translate(198.5014523184602,0)" style="stroke: rgb(0, 0, 0); stroke-opacity: 1; stroke-width: 1px;"/><path class="xtick ticks crisp" d="M0,316.16803758723245v-5" transform="translate(224.7514523184602,0)" style="stroke: rgb(0, 0, 0); stroke-opacity: 1; stroke-width: 1px;"/><path class="xtick ticks crisp" d="M0,316.16803758723245v-5" transform="translate(250.9914523184602,0)" style="stroke: rgb(0, 0, 0); stroke-opacity: 1; stroke-width: 1px;"/><path class="xtick ticks crisp" d="M0,316.16803758723245v-5" transform="translate(277.24145231846023,0)" style="stroke: rgb(0, 0, 0); stroke-opacity: 1; stroke-width: 1px;"/><path class="xtick ticks crisp" d="M0,316.16803758723245v-5" transform="translate(303.4814523184602,0)" style="stroke: rgb(0, 0, 0); stroke-opacity: 1; stroke-width: 1px;"/><path class="xtick ticks crisp" d="M0,316.16803758723245v-5" transform="translate(329.73145231846024,0)" style="stroke: rgb(0, 0, 0); stroke-opacity: 1; stroke-width: 1px;"/><path class="xtick ticks crisp" d="M0,316.16803758723245v-5" transform="translate(355.98145231846024,0)" style="stroke: rgb(0, 0, 0); stroke-opacity: 1; stroke-width: 1px;"/><path class="xtick ticks crisp" d="M0,316.16803758723245v-5" transform="translate(382.22145231846014,0)" style="stroke: rgb(0, 0, 0); stroke-opacity: 1; stroke-width: 1px;"/><path class="xtick ticks crisp" d="M0,316.16803758723245v-5" transform="translate(408.47145231846014,0)" style="stroke: rgb(0, 0, 0); stroke-opacity: 1; stroke-width: 1px;"/><path class="xtick ticks crisp" d="M0,316.16803758723245v-5" transform="translate(434.71145231846015,0)" style="stroke: rgb(0, 0, 0); stroke-opacity: 1; stroke-width: 1px;"/><path class="xtick ticks crisp" d="M0,316.16803758723245v-5" transform="translate(460.96145231846015,0)" style="stroke: rgb(0, 0, 0); stroke-opacity: 1; stroke-width: 1px;"/><path class="xtick ticks crisp" d="M0,316.16803758723245v-5" transform="translate(487.20145231846016,0)" style="stroke: rgb(0, 0, 0); stroke-opacity: 1; stroke-width: 1px;"/><path class="xtick ticks crisp" d="M0,316.16803758723245v-5" transform="translate(513.4514523184602,0)" style="stroke: rgb(0, 0, 0); stroke-opacity: 1; stroke-width: 1px;"/><path class="xtick ticks crisp" d="M0,316.16803758723245v-5" transform="translate(539.6914523184602,0)" style="stroke: rgb(0, 0, 0); stroke-opacity: 1; stroke-width: 1px;"/><path class="xtick ticks crisp" d="M0,316.16803758723245v-5" transform="translate(565.9414523184602,0)" style="stroke: rgb(0, 0, 0); stroke-opacity: 1; stroke-width: 1px;"/><path class="xtick ticks crisp" d="M0,316.16803758723245v-5" transform="translate(592.1814523184602,0)" style="stroke: rgb(0, 0, 0); stroke-opacity: 1; stroke-width: 1px;"/><path class="xtick ticks crisp" d="M0,316.16803758723245v-5" transform="translate(618.4314523184602,0)" style="stroke: rgb(0, 0, 0); stroke-opacity: 1; stroke-width: 1px;"/><path class="xtick ticks crisp" d="M0,316.16803758723245v-5" transform="translate(644.6714523184602,0)" style="stroke: rgb(0, 0, 0); stroke-opacity: 1; stroke-width: 1px;"/><path class="xtick ticks crisp" d="M0,316.16803758723245v-5" transform="translate(670.9214523184602,0)" style="stroke: rgb(0, 0, 0); stroke-opacity: 1; stroke-width: 1px;"/><path class="xtick ticks crisp" d="M0,316.16803758723245v-5" transform="translate(697.1614523184602,0)" style="stroke: rgb(0, 0, 0); stroke-opacity: 1; stroke-width: 1px;"/><g class="xtick"><text text-anchor="start" x="0" y="333.96803758723246" transform="translate(67.2814523184602,0) rotate(22,0,326.96803758723246)" style="font-family: sans-serif; font-size: 14px; fill: rgb(0, 0, 0); fill-opacity: 1; white-space: pre; opacity: 1;">00 2022-10-27</text></g><g class="xtick"><text text-anchor="start" x="0" y="333.96803758723246" style="font-family: sans-serif; font-size: 14px; fill: rgb(0, 0, 0); fill-opacity: 1; white-space: pre; opacity: 1;" transform="translate(93.52145231846019,0) rotate(22,0,326.96803758723246)">01</text></g><g class="xtick"><text text-anchor="start" x="0" y="333.96803758723246" style="font-family: sans-serif; font-size: 14px; fill: rgb(0, 0, 0); fill-opacity: 1; white-space: pre; opacity: 1;" transform="translate(119.77145231846019,0) rotate(22,0,326.96803758723246)">02</text></g><g class="xtick"><text text-anchor="start" x="0" y="333.96803758723246" style="font-family: sans-serif; font-size: 14px; fill: rgb(0, 0, 0); fill-opacity: 1; white-space: pre; opacity: 1;" transform="translate(146.0114523184602,0) rotate(22,0,326.96803758723246)">03</text></g><g class="xtick"><text text-anchor="start" x="0" y="333.96803758723246" style="font-family: sans-serif; font-size: 14px; fill: rgb(0, 0, 0); fill-opacity: 1; white-space: pre; opacity: 1;" transform="translate(172.2614523184602,0) rotate(22,0,326.96803758723246)">04</text></g><g class="xtick"><text text-anchor="start" x="0" y="333.96803758723246" style="font-family: sans-serif; font-size: 14px; fill: rgb(0, 0, 0); fill-opacity: 1; white-space: pre; opacity: 1;" transform="translate(198.5014523184602,0) rotate(22,0,326.96803758723246)">05</text></g><g class="xtick"><text text-anchor="start" x="0" y="333.96803758723246" style="font-family: sans-serif; font-size: 14px; fill: rgb(0, 0, 0); fill-opacity: 1; white-space: pre; opacity: 1;" transform="translate(224.7514523184602,0) rotate(22,0,326.96803758723246)">06</text></g><g class="xtick"><text text-anchor="start" x="0" y="333.96803758723246" style="font-family: sans-serif; font-size: 14px; fill: rgb(0, 0, 0); fill-opacity: 1; white-space: pre; opacity: 1;" transform="translate(250.9914523184602,0) rotate(22,0,326.96803758723246)">07</text></g><g class="xtick"><text text-anchor="start" x="0" y="333.96803758723246" style="font-family: sans-serif; font-size: 14px; fill: rgb(0, 0, 0); fill-opacity: 1; white-space: pre; opacity: 1;" transform="translate(277.24145231846023,0) rotate(22,0,326.96803758723246)">08</text></g><g class="xtick"><text text-anchor="start" x="0" y="333.96803758723246" style="font-family: sans-serif; font-size: 14px; fill: rgb(0, 0, 0); fill-opacity: 1; white-space: pre; opacity: 1;" transform="translate(303.4814523184602,0) rotate(22,0,326.96803758723246)">09</text></g><g class="xtick"><text text-anchor="start" x="0" y="333.96803758723246" style="font-family: sans-serif; font-size: 14px; fill: rgb(0, 0, 0); fill-opacity: 1; white-space: pre; opacity: 1;" transform="translate(329.73145231846024,0) rotate(22,0,326.96803758723246)">10</text></g><g class="xtick"><text text-anchor="start" x="0" y="333.96803758723246" style="font-family: sans-serif; font-size: 14px; fill: rgb(0, 0, 0); fill-opacity: 1; white-space: pre; opacity: 1;" transform="translate(355.98145231846024,0) rotate(22,0,326.96803758723246)">11</text></g><g class="xtick"><text text-anchor="start" x="0" y="333.96803758723246" style="font-family: sans-serif; font-size: 14px; fill: rgb(0, 0, 0); fill-opacity: 1; white-space: pre; opacity: 1;" transform="translate(382.22145231846014,0) rotate(22,0,326.96803758723246)">12</text></g><g class="xtick"><text text-anchor="start" x="0" y="333.96803758723246" style="font-family: sans-serif; font-size: 14px; fill: rgb(0, 0, 0); fill-opacity: 1; white-space: pre; opacity: 1;" transform="translate(408.47145231846014,0) rotate(22,0,326.96803758723246)">13</text></g><g class="xtick"><text text-anchor="start" x="0" y="333.96803758723246" style="font-family: sans-serif; font-size: 14px; fill: rgb(0, 0, 0); fill-opacity: 1; white-space: pre; opacity: 1;" transform="translate(434.71145231846015,0) rotate(22,0,326.96803758723246)">14</text></g><g class="xtick"><text text-anchor="start" x="0" y="333.96803758723246" style="font-family: sans-serif; font-size: 14px; fill: rgb(0, 0, 0); fill-opacity: 1; white-space: pre; opacity: 1;" transform="translate(460.96145231846015,0) rotate(22,0,326.96803758723246)">15</text></g><g class="xtick"><text text-anchor="start" x="0" y="333.96803758723246" style="font-family: sans-serif; font-size: 14px; fill: rgb(0, 0, 0); fill-opacity: 1; white-space: pre; opacity: 1;" transform="translate(487.20145231846016,0) rotate(22,0,326.96803758723246)">16</text></g><g class="xtick"><text text-anchor="start" x="0" y="333.96803758723246" style="font-family: sans-serif; font-size: 14px; fill: rgb(0, 0, 0); fill-opacity: 1; white-space: pre; opacity: 1;" transform="translate(513.4514523184602,0) rotate(22,0,326.96803758723246)">17</text></g><g class="xtick"><text text-anchor="start" x="0" y="333.96803758723246" style="font-family: sans-serif; font-size: 14px; fill: rgb(0, 0, 0); fill-opacity: 1; white-space: pre; opacity: 1;" transform="translate(539.6914523184602,0) rotate(22,0,326.96803758723246)">18</text></g><g class="xtick"><text text-anchor="start" x="0" y="333.96803758723246" style="font-family: sans-serif; font-size: 14px; fill: rgb(0, 0, 0); fill-opacity: 1; white-space: pre; opacity: 1;" transform="translate(565.9414523184602,0) rotate(22,0,326.96803758723246)">19</text></g><g class="xtick"><text text-anchor="start" x="0" y="333.96803758723246" style="font-family: sans-serif; font-size: 14px; fill: rgb(0, 0, 0); fill-opacity: 1; white-space: pre; opacity: 1;" transform="translate(592.1814523184602,0) rotate(22,0,326.96803758723246)">20</text></g><g class="xtick"><text text-anchor="start" x="0" y="333.96803758723246" style="font-family: sans-serif; font-size: 14px; fill: rgb(0, 0, 0); fill-opacity: 1; white-space: pre; opacity: 1;" transform="translate(618.4314523184602,0) rotate(22,0,326.96803758723246)">21</text></g><g class="xtick"><text text-anchor="start" x="0" y="333.96803758723246" style="font-family: sans-serif; font-size: 14px; fill: rgb(0, 0, 0); fill-opacity: 1; white-space: pre; opacity: 1;" transform="translate(644.6714523184602,0) rotate(22,0,326.96803758723246)">22</text></g><g class="xtick"><text text-anchor="start" x="0" y="333.96803758723246" style="font-family: sans-serif; font-size: 14px; fill: rgb(0, 0, 0); fill-opacity: 1; white-space: pre; opacity: 1;" transform="translate(670.9214523184602,0) rotate(22,0,326.96803758723246)">23</text></g><g class="xtick"><text text-anchor="start" x="0" y="333.96803758723246" style="font-family: sans-serif; font-size: 14px; fill: rgb(0, 0, 0); fill-opacity: 1; white-space: pre; opacity: 0;" transform="translate(697.1614523184602,0) rotate(22,0,326.96803758723246)">00 2022-10-28</text></g></g><g class="yaxislayer-above"><path class="y2tick ticks crisp" d="M48.38145231846019,0h5" transform="translate(0,312.6589794235375)" style="stroke: rgb(0, 0, 0); stroke-opacity: 1; stroke-width: 1px;"/><path class="y2tick ticks crisp" d="M48.38145231846019,0h5" transform="translate(0,275.32897942353753)" style="stroke: rgb(0, 0, 0); stroke-opacity: 1; stroke-width: 1px;"/><path class="y2tick ticks crisp" d="M48.38145231846019,0h5" transform="translate(0,237.99897942353752)" style="stroke: rgb(0, 0, 0); stroke-opacity: 1; stroke-width: 1px;"/><path class="y2tick ticks crisp" d="M48.38145231846019,0h5" transform="translate(0,200.66897942353754)" style="stroke: rgb(0, 0, 0); stroke-opacity: 1; stroke-width: 1px;"/><g class="y2tick"><text text-anchor="end" x="44.581452318460194" y="4.8999999999999995" transform="translate(0,312.6589794235375)" style="font-family: sans-serif; font-size: 14px; fill: rgb(0, 0, 0); fill-opacity: 1; white-space: pre; opacity: 1;">0.00</text></g><g class="y2tick"><text text-anchor="end" x="44.581452318460194" y="4.8999999999999995" style="font-family: sans-serif; font-size: 14px; fill: rgb(0, 0, 0); fill-opacity: 1; white-space: pre; opacity: 1;" transform="translate(0,275.32897942353753)">0.05</text></g><g class="y2tick"><text text-anchor="end" x="44.581452318460194" y="4.8999999999999995" style="font-family: sans-serif; font-size: 14px; fill: rgb(0, 0, 0); fill-opacity: 1; white-space: pre; opacity: 1;" transform="translate(0,237.99897942353752)">0.10</text></g><g class="y2tick"><text text-anchor="end" x="44.581452318460194" y="4.8999999999999995" style="font-family: sans-serif; font-size: 14px; fill: rgb(0, 0, 0); fill-opacity: 1; white-space: pre; opacity: 1;" transform="translate(0,200.66897942353754)">0.15</text></g></g><g class="overaxes-above"/></g></g><g class="polarlayer"/><g class="ternarylayer"/><g class="geolayer"/><g class="funnelarealayer"/><g class="pielayer"/><g class="iciclelayer"/><g class="treemaplayer"/><g class="sunburstlayer"/><g class="glimages"/><defs id="topdefs-9e7c90"><g class="clips"/></defs><g class="layer-above"><g class="imagelayer"/><g class="shapelayer"/></g><g class="infolayer"><g class="g-gtitle"/><g class="g-xtitle"/><g class="g-ytitle"/><g class="g-y2title"/><g class="annotation" data-index="0" style="opacity: 1;"><g class="annotation-text-g" transform="rotate(0,382.22222222222223,30.000000000000004)"><g class="cursor-pointer" transform="translate(331,20)"><rect class="bg" x="0.5" y="0.5" width="102" height="19" style="stroke-width: 1px; stroke: rgb(0, 0, 0); stroke-opacity: 0; fill: rgb(0, 0, 0); fill-opacity: 0;"/><text class="annotation-text" text-anchor="middle" x="51.275390625" y="14.7314453125" style="font-family: sans-serif; font-size: 14px; fill: rgb(0, 0, 0); fill-opacity: 1; white-space: pre;">l_write | counter</text></g></g></g><g class="annotation" data-index="1" style="opacity: 1;"><g class="annotation-text-g" transform="rotate(0,382.22222222222223,186.1056723369233)"><g class="cursor-pointer" transform="translate(342,176)"><rect class="bg" x="0.5" y="0.5" width="79" height="19" style="stroke-width: 1px; stroke: rgb(0, 0, 0); stroke-opacity: 0; fill: rgb(0, 0, 0); fill-opacity: 0;"/><text class="annotation-text" text-anchor="middle" x="39.9912109375" y="14.7314453125" style="font-family: sans-serif; font-size: 14px; fill: rgb(0, 0, 0); fill-opacity: 1; white-space: pre;">l_write | rate</text></g></g></g></g></svg>