<svg class="main-svg" xmlns="http://www.w3.org/2000/svg" xmlns:xlink="http://www.w3.org/1999/xlink" width="720" height="300" style=""><rect x="0" y="0" width="720" height="300" style="fill: rgb(255, 255, 255); fill-opacity: 1;"/><defs id="defs-167022"><g class="clips"><clipPath id="clip167022xyplot" class="plotclip"><rect width="685.4593175853018" height="188.50419396188062"/></clipPath><clipPath class="axesclip" id="clip167022x"><rect x="30.603674540682412" y="0" width="685.4593175853018" height="300"/></clipPath><clipPath class="axesclip" id="clip167022y"><rect x="0" y="40.26392534266549" width="720" height="188.50419396188062"/></clipPath><clipPath class="axesclip" id="clip167022xy"><rect x="30.603674540682412" y="40.26392534266549" width="685.4593175853018" height="188.50419396188062"/></clipPath></g><g class="gradients"/><g class="patterns"/></defs><g class="bglayer"/><g class="layer-below"><g class="imagelayer"/><g class="shapelayer"/></g><g class="cartesianlayer"><g class="subplot xy"><g class="layer-subplot"><g class="shapelayer"/><g class="imagelayer"/></g><g class="gridlayer"><g class="x"><path class="xgrid crisp" transform="translate(50.00367454068241,0)" d="M0,40.26392534266549v188.50419396188062" style="stroke: rgb(0, 0, 0); stroke-opacity: 0.1; stroke-width: 0.5px;"/><path class="xgrid crisp" transform="translate(76.94367454068242,0)" d="M0,40.26392534266549v188.50419396188062" style="stroke: rgb(0, 0, 0); stroke-opacity: 0.1; stroke-width: 0.5px;"/><path class="xgrid crisp" transform="translate(103.89367454068241,0)" d="M0,40.26392534266549v188.50419396188062" style="stroke: rgb(0, 0, 0); stroke-opacity: 0.1; stroke-width: 0.5px;"/><path class="xgrid crisp" transform="translate(130.8336745406824,0)" d="M0,40.26392534266549v188.50419396188062" style="stroke: rgb(0, 0, 0); stroke-opacity: 0.1; stroke-width: 0.5px;"/><path class="xgrid crisp" transform="translate(157.78367454068243,0)" d="M0,40.26392534266549v188.50419396188062" style="stroke: rgb(0, 0, 0); stroke-opacity: 0.1; stroke-width: 0.5px;"/><path class="xgrid crisp" transform="translate(184.72367454068242,0)" d="M0,40.26392534266549v188.50419396188062" style="stroke: rgb(0, 0, 0); stroke-opacity: 0.1; stroke-width: 0.5px;"/><path class="xgrid crisp" transform="translate(211.66367454068242,0)" d="M0,40.26392534266549v188.50419396188062" style="stroke: rgb(0, 0, 0); stroke-opacity: 0.1; stroke-width: 0.5px;"/><path class="xgrid crisp" transform="translate(238.6136745406824,0)" d="M0,40.26392534266549v188.50419396188062" style="stroke: rgb(0, 0, 0); stroke-opacity: 0.1; stroke-width: 0.5px;"/><path class="xgrid crisp" transform="translate(265.5536745406824,0)" d="M0,40.26392534266549v188.50419396188062" style="stroke: rgb(0, 0, 0); stroke-opacity: 0.1; stroke-width: 0.5px;"/><path class="xgrid crisp" transform="translate(292.50367454068237,0)" d="M0,40.26392534266549v188.50419396188062" style="stroke: rgb(0, 0, 0); stroke-opacity: 0.1; stroke-width: 0.5px;"/><path class="xgrid crisp" transform="translate(319.44367454068237,0)" d="M0,40.26392534266549v188.50419396188062" style="stroke: rgb(0, 0, 0); stroke-opacity: 0.1; stroke-width: 0.5px;"/><path class="xgrid crisp" transform="translate(346.3936745406824,0)" d="M0,40.26392534266549v188.50419396188062" style="stroke: rgb(0, 0, 0); stroke-opacity: 0.1; stroke-width: 0.5px;"/><path class="xgrid crisp" transform="translate(373.3336745406824,0)" d="M0,40.26392534266549v188.50419396188062" style="stroke: rgb(0, 0, 0); stroke-opacity: 0.1; stroke-width: 0.5px;"/><path class="xgrid crisp" transform="translate(400.2736745406824,0)" d="M0,40.26392534266549v188.50419396188062" style="stroke: rgb(0, 0, 0); stroke-opacity: 0.1; stroke-width: 0.5px;"/><path class="xgrid crisp" transform="translate(427.2236745406824,0)" d="M0,40.26392534266549v188.50419396188062" style="stroke: rgb(0, 0, 0); stroke-opacity: 0.1; stroke-width: 0.5px;"/><path class="xgrid crisp" transform="translate(454.1636745406824,0)" d="M0,40.26392534266549v188.50419396188062" style="stroke: rgb(0, 0, 0); stroke-opacity: 0.1; stroke-width: 0.5px;"/><path class="xgrid crisp" transform="translate(481.1136745406824,0)" d="M0,40.26392534266549v188.50419396188062" style="stroke: rgb(0, 0, 0); stroke-opacity: 0.1; stroke-width: 0.5px;"/><path class="xgrid crisp" transform="translate(508.0536745406824,0)" d="M0,40.26392534266549v188.50419396188062" style="stroke: rgb(0, 0, 0); stroke-opacity: 0.1; stroke-width: 0.5px;"/><path class="xgrid crisp" transform="translate(534.9936745406824,0)" d="M0,40.26392534266549v188.50419396188062" style="stroke: rgb(0, 0, 0); stroke-opacity: 0.1; stroke-width: 0.5px;"/><path class="xgrid crisp" transform="translate(561.9436745406824,0)" d="M0,40.26392534266549v188.50419396188062" style="stroke: rgb(0, 0, 0); stroke-opacity: 0.1; stroke-width: 0.5px;"/><path class="xgrid crisp" transform="translate(588.8836745406824,0)" d="M0,40.26392534266549v188.50419396188062" style="stroke: rgb(0, 0, 0); stroke-opacity: 0.1; stroke-width: 0.5px;"/><path class="xgrid crisp" transform="translate(615.8336745406824,0)" d="M0,40.26392534266549v188.50419396188062" style="stroke: rgb(0, 0, 0); stroke-opacity: 0.1; stroke-width: 0.5px;"/><path class="xgrid crisp" transform="translate(642.7736745406824,0)" d="M0,40.26392534266549v188.50419396188062" style="stroke: rgb(0, 0, 0); stroke-opacity: 0.1; stroke-width: 0.5px;"/><path class="xgrid crisp" transform="translate(669.7236745406824,0)" d="M0,40.26392534266549v188.50419396188062" style="stroke: rgb(0, 0, 0); stroke-opacity: 0.1; stroke-width: 0.5px;"/><path class="xgrid crisp" transform="translate(696.6636745406823,0)" d="M0,40.26392534266549v188.50419396188062" style="stroke: rgb(0, 0, 0); stroke-opacity: 0.1; stroke-width: 0.5px;"/></g><g class="y"><path class="ygrid crisp" transform="translate(0,223.43392534266548)" d="M30.603674540682412,0h685.4593175853018" style="stroke: rgb(0, 0, 0); stroke-opacity: 0.1; stroke-width: 0.5px;"/><path class="ygrid crisp" transform="translate(0,175.42392534266548)" d="M30.603674540682412,0h685.4593175853018" style="stroke: rgb(0, 0, 0); stroke-opacity: 0.1; stroke-width: 0.5px;"/><path class="ygrid crisp" transform="translate(0,127.4139253426655)" d="M30.603674540682412,0h685.4593175853018" style="stroke: rgb(0, 0, 0); stroke-opacity: 0.1; stroke-width: 0.5px;"/><path class="ygrid crisp" transform="translate(0,79.39392534266548)" d="M30.603674540682412,0h685.4593175853018" style="stroke: rgb(0, 0, 0); stroke-opacity: 0.1; stroke-width: 0.5px;"/></g></g><g class="zerolinelayer"/><path class="xlines-below"/><path class="ylines-below"/><g class="overlines-below"/><g class="xaxislayer-below"/><g class="yaxislayer-below"/><g class="overaxes-below"/><g class="plot" transform="translate(30.603674540682412,40.26392534266549)" clip-path="url(#clip167022xyplot)"><g class="scatterlayer mlayer"><g class="trace scatter trace85290b" style="stroke-miterlimit: 2; opacity: 1;"><g class="fills"/><g class="errorbars"/><g class="lines"><path class="js-line" d="M19.4,183.09L20.3,183.09L20.3,155.59L21.2,155.59L21.2,158.86L25.69,158.61L25.69,157.85L27.48,158.18L27.48,155.95L28.38,155.95L28.38,157.46L29.28,157.46L29.28,158.22L32.87,157.86L32.87,157.55L34.67,157.1L34.67,155.16L37.36,155.38L37.36,154.16L38.26,154.16L38.26,155.13L40.96,154.4L40.96,155.89L41.85,155.89L41.85,155.03L45.45,155.76L45.45,155.95L46.34,155.95L46.34,155.18L47.24,155.18L47.24,164.21L49.04,164.61L49.04,156.35L51.73,156.16L51.73,157.27L52.63,157.27L52.63,155.69L53.53,155.69L53.53,156.49L56.22,155.8L56.22,156.8L57.12,156.8L57.12,155.68L60.71,155.82L60.71,154.85L64.31,154.55L64.31,155.52L65.2,155.52L65.2,148.52L66.1,148.52L66.1,145.84L67,145.84L67,155.17L69.7,155.25L69.7,154.31L70.59,154.31L70.59,155.74L72.39,155.11L72.39,154.75L73.29,154.75L73.29,155.99L74.19,155.99L74.19,154.92L75.98,154.91L75.98,155.93L78.68,156.21L78.68,153.72L82.27,153.41L82.27,154.97L84.07,155.6L84.07,166.81L84.96,166.81L84.96,162.26L85.86,162.26L85.86,167.82L86.76,167.82L86.76,165.66L88.56,165.76L88.56,167.03L89.45,167.03L89.45,167.85L90.35,167.85L90.35,166.58L92.15,166.2L92.15,167.07L98.44,167.1L98.44,165.86L99.33,165.86L99.33,167.14L107.42,166.93L107.42,166.15L110.11,165.56L110.11,166.54L111.01,166.54L111.01,165.77L113.7,166.01L113.7,164.86L115.5,164.71L115.5,163.65L119.09,164.16L119.09,164.87L121.79,165.19L121.79,165.78L122.69,165.78L122.69,164.82L126.28,165.1L126.28,164.72L128.07,164.06L128.07,165.04L128.97,165.04L128.97,163.66L129.87,163.66L129.87,164.78L137.06,164.44L137.06,165.42L137.95,165.42L137.95,164.65L141.55,164.85L141.55,164.01L146.94,164.74L146.94,163.87L147.83,163.87L147.83,162.71L148.73,162.71L148.73,164.09L150.53,163.68L150.53,162.34L151.43,162.34L151.43,163.36L152.32,163.36L152.32,162.49L153.22,162.49L153.22,163.54L155.02,162.99L155.02,161.85L155.92,161.85L155.92,162.86L159.51,163.23L159.51,164.06L160.41,164.06L160.41,162.99L162.2,163.64L162.2,160.83L163.1,160.83L163.1,162.93L164.9,163.27L164.9,161.69L166.69,162.19L166.69,162.74L169.39,162.54L169.39,161.34L170.29,161.34L170.29,162.56L172.98,161.82L172.98,153.91L173.88,153.91L173.88,150.61L174.78,150.61L174.78,149.35L175.68,149.35L175.68,150.27L176.57,150.27L176.57,148.98L177.47,148.98L177.47,147.25L180.17,147.48L180.17,148.01L182.86,147.78L182.86,147.22L183.76,147.22L183.76,158.62L185.56,158.59L185.56,159.46L186.45,159.46L186.45,160.29L187.35,160.29L187.35,158.81L188.25,158.81L188.25,8.69L189.15,8.69L189.15,151.71L190.05,151.71L190.05,158.32L190.94,158.32L190.94,160.52L191.84,160.52L191.84,140.76L192.74,140.76L192.74,152.48L193.64,152.48L193.64,159.64L194.54,159.64L194.54,158.74L195.43,158.74L195.43,161.14L197.23,161.67L197.23,158.08L198.13,158.08L198.13,160.6L199.03,160.6L199.03,159.15L199.93,159.15L199.93,161.19L201.72,161.47L201.72,159.59L202.62,159.59L202.62,156.81L203.52,156.81L203.52,161.47L204.42,161.47L204.42,158.42L205.31,158.42L205.31,160.08L206.21,160.08L206.21,156.5L207.11,156.5L207.11,157.81L208.01,157.81L208.01,160.59L208.91,160.59L208.91,158.22L209.81,158.22L209.81,138.47L210.7,138.47L210.7,158.58L211.6,158.58L211.6,159.7L212.5,159.7L212.5,160.72L215.19,160.25L215.19,159.91L216.09,159.91L216.09,159.11L218.79,159.1L218.79,158.57L220.58,159.02L220.58,156.69L221.48,156.69L221.48,159.01L223.28,158.83L223.28,159.85L224.18,159.85L224.18,158.95L225.07,158.95L225.07,158.03L228.67,158.39L228.67,158.97L229.56,158.97L229.56,159.75L230.46,159.75L230.46,158.44L231.36,158.44L231.36,156.81L233.16,156.77L233.16,157.84L234.05,157.84L234.05,155.48L234.95,155.48L234.95,153.95L235.85,153.95L235.85,155.07L236.75,155.07L236.75,156.49L237.65,156.49L237.65,151.54L238.55,151.54L238.55,155.92L239.44,155.92L239.44,151.73L240.34,151.73L240.34,156.7L241.24,156.7L241.24,157.88L243.04,157.69L243.04,151.98L243.93,151.98L243.93,147.51L244.83,147.51L244.83,156.64L245.73,156.64L245.73,155.08L247.53,155.1L247.53,147.06L248.43,147.06L248.43,156.91L249.32,156.91L249.32,155.58L250.22,155.58L250.22,153.36L252.92,154.08L252.92,152.67L254.71,152.58L254.71,149.62L256.51,150.15L256.51,149.2L257.41,149.2L257.41,142.25L258.3,142.25L258.3,150.46L261.9,150.78L261.9,151.98L263.69,151.56L263.69,157.24L264.59,157.24L264.59,155.67L265.49,155.67L265.49,157.94L266.39,157.94L266.39,156.75L267.29,156.75L267.29,151.51L268.18,151.51L268.18,153.88L270.88,153.5L270.88,155.87L271.78,155.87L271.78,154.15L273.57,153.52L273.57,156.44L274.47,156.44L274.47,151.53L275.37,151.53L275.37,147.97L278.06,148.3L278.06,151.69L278.96,151.69L278.96,150.42L279.86,150.42L279.86,157.49L280.76,157.49L280.76,159.01L281.66,159.01L281.66,157.53L283.45,157.57L283.45,158.67L284.35,158.67L284.35,157.77L285.25,157.77L285.25,159.13L286.15,159.13L286.15,157.49L287.05,157.49L287.05,160.32L288.84,159.61L288.84,150.18L289.74,150.18L289.74,154.27L290.64,154.27L290.64,157.56L295.13,157.93L295.13,155.81L296.92,155.67L296.92,157.92L297.82,157.92L297.82,155.42L299.62,155.99L299.62,157.23L300.52,157.23L300.52,154.93L302.31,155.14L302.31,157.49L303.21,157.49L303.21,155.13L304.11,155.13L304.11,156.66L305.01,156.66L305.01,154.72L305.91,154.72L305.91,149.63L306.8,149.63L306.8,150.64L307.7,150.64L307.7,148.9L308.6,148.9L308.6,151.52L309.5,151.52L309.5,152.87L310.4,152.87L310.4,148.26L311.29,148.26L311.29,146.86L313.09,147.32L313.09,142.49L313.99,142.49L313.99,145.66L315.79,145.58L315.79,144.48L316.68,144.48L316.68,151.17L317.58,151.17L317.58,147.32L318.48,147.32L318.48,149.99L320.28,150.49L320.28,148.27L321.17,148.27L321.17,150.23L322.07,150.23L322.07,148.39L322.97,148.39L322.97,129.99L323.87,129.99L323.87,148.62L324.77,148.62L324.77,147.22L325.67,147.22L325.67,137.07L326.56,137.07L326.56,145.84L328.36,146.06L328.36,143.12L329.26,143.12L329.26,145.69L330.16,145.69L330.16,143.07L331.95,142.92L331.95,150.36L332.85,150.36L332.85,146.04L333.75,146.04L333.75,144.46L334.65,144.46L334.65,145.63L335.54,145.63L335.54,139.12L336.44,139.12L336.44,141.04L337.34,141.04L337.34,138.5L338.24,138.5L338.24,136.25L339.14,136.25L339.14,146.39L340.04,146.39L340.04,142.51L340.93,142.51L340.93,134.46L341.83,134.46L341.83,139.13L342.73,139.13L342.73,140.72L343.63,140.72L343.63,139.03L344.53,139.03L344.53,135.86L345.42,135.86L345.42,138.18L347.22,137.76L347.22,131.12L348.12,131.12L348.12,134.21L349.02,134.21L349.02,139.74L349.91,139.74L349.91,135.9L350.81,135.9L350.81,132.18L352.61,132.64L352.61,130.64L353.51,130.64L353.51,132.5L354.41,132.5L354.41,136.41L355.3,136.41L355.3,132.39L357.1,132.14L357.1,128.7L358.9,128.57L358.9,121.34L359.79,121.34L359.79,123.32L360.69,123.32L360.69,126.2L361.59,126.2L361.59,130.23L362.49,130.23L362.49,131.77L363.39,131.77L363.39,125.04L364.28,125.04L364.28,132.2L365.18,132.2L365.18,126.06L366.08,126.06L366.08,119.95L366.98,119.95L366.98,126.97L368.78,126.69L368.78,121.31L369.67,121.31L369.67,131.96L370.57,131.96L370.57,125.99L371.47,125.99L371.47,129.02L373.27,129.46L373.27,118.5L374.16,118.5L374.16,128.32L375.96,127.72L375.96,124.15L376.86,124.15L376.86,130.16L377.76,130.16L377.76,128.66L378.66,128.66L378.66,125.54L379.55,125.54L379.55,120.58L380.45,120.58L380.45,107.94L381.35,107.94L381.35,121L382.25,121L382.25,123.84L383.15,123.84L383.15,122.13L384.04,122.13L384.04,124.19L384.94,124.19L384.94,128.79L385.84,128.79L385.84,121.89L386.74,121.89L386.74,125.63L387.64,125.63L387.64,118.73L388.53,118.73L388.53,123.21L389.43,123.21L389.43,128.86L390.33,128.86L390.33,131.22L391.23,131.22L391.23,130.01L392.13,130.01L392.13,134.37L393.03,134.37L393.03,132.24L393.92,132.24L393.92,130.86L394.82,130.86L394.82,122.36L395.72,122.36L395.72,126.92L396.62,126.92L396.62,122.81L397.52,122.81L397.52,125.22L398.41,125.22L398.41,124.23L399.31,124.23L399.31,122.43L402.01,121.91L402.01,117.54L403.8,116.83L403.8,120.23L404.7,120.23L404.7,121.67L405.6,121.67L405.6,123.18L406.5,123.18L406.5,119.9L407.4,119.9L407.4,121.03L408.29,121.03L408.29,120.06L409.19,120.06L409.19,112.58L410.09,112.58L410.09,116.26L410.99,116.26L410.99,107.45L411.89,107.45L411.89,117.75L412.78,117.75L412.78,121.54L413.68,121.54L413.68,119.74L414.58,119.74L414.58,117.47L415.48,117.47L415.48,118.8L416.38,118.8L416.38,111.89L417.28,111.89L417.28,109.86L418.17,109.86L418.17,117.93L419.07,117.93L419.07,85.02L419.97,85.02L419.97,116.87L420.87,116.87L420.87,119.3L421.77,119.3L421.77,116.86L422.66,116.86L422.66,120.96L423.56,120.96L423.56,111.3L424.46,111.3L424.46,108.9L425.36,108.9L425.36,118.51L426.26,118.51L426.26,114.41L427.15,114.41L427.15,115.73L428.05,115.73L428.05,125.56L428.95,125.56L428.95,122.68L429.85,122.68L429.85,127.01L430.75,127.01L430.75,118.89L431.65,118.89L431.65,111.39L432.54,111.39L432.54,119.33L433.44,119.33L433.44,121.41L434.34,121.41L434.34,120.43L435.24,120.43L435.24,124.05L436.14,124.05L436.14,117.38L437.03,117.38L437.03,123.04L437.93,123.04L437.93,118.64L438.83,118.64L438.83,112.9L439.73,112.9L439.73,118.51L440.63,118.51L440.63,124.74L441.52,124.74L441.52,128.41L443.32,128.31L443.32,131.09L444.22,131.09L444.22,127.49L445.12,127.49L445.12,126.22L446.02,126.22L446.02,122.58L446.91,122.58L446.91,129.3L448.71,129.41L448.71,128.56L449.61,128.56L449.61,137.47L450.51,137.47L450.51,131.03L451.4,131.03L451.4,134.03L452.3,134.03L452.3,131.05L453.2,131.05L453.2,124.6L454.1,124.6L454.1,127.88L455,127.88L455,130.79L455.9,130.79L455.9,137.51L456.79,137.51L456.79,133.46L457.69,133.46L457.69,136.42L459.49,136.13L459.49,135.05L460.39,135.05L460.39,126.15L461.28,126.15L461.28,132.07L462.18,132.07L462.18,136.82L463.08,136.82L463.08,131.54L463.98,131.54L463.98,138.44L464.88,138.44L464.88,135.7L465.77,135.7L465.77,137.09L466.67,137.09L466.67,134.57L467.57,134.57L467.57,130.92L468.47,130.92L468.47,133.12L469.37,133.12L469.37,134.67L470.27,134.67L470.27,140.7L471.16,140.7L471.16,136.78L473.86,136.97L473.86,138.06L474.76,138.06L474.76,130.38L475.65,130.38L475.65,131.68L476.55,131.68L476.55,138.8L477.45,138.8L477.45,134.8L478.35,134.8L478.35,139.29L479.25,139.29L479.25,136.46L480.14,136.46L480.14,138.5L481.04,138.5L481.04,137.21L481.94,137.21L481.94,133.4L483.74,134.02L483.74,136L484.64,136L484.64,139.73L485.53,139.73L485.53,136.51L486.43,136.51L486.43,140.15L487.33,140.15L487.33,136.45L488.23,136.45L488.23,139.56L489.13,139.56L489.13,132.76L490.02,132.76L490.02,131.86L490.92,131.86L490.92,138.13L491.82,138.13L491.82,134.09L492.72,134.09L492.72,139.15L493.62,139.15L493.62,137.8L494.52,137.8L494.52,140.42L495.41,140.42L495.41,135.44L496.31,135.44L496.31,134.63L498.11,134.06L498.11,135.51L499.01,135.51L499.01,139.48L499.9,139.48L499.9,137.38L500.8,137.38L500.8,139.8L501.7,139.8L501.7,136.88L502.6,136.88L502.6,139.22L503.5,139.22L503.5,136.69L504.39,136.69L504.39,130.95L505.29,130.95L505.29,138.96L506.19,138.96L506.19,138.05L507.99,138.58L507.99,136.91L508.89,136.91L508.89,141.01L509.78,141.01L509.78,135.58L511.58,135.84L511.58,132.24L512.48,132.24L512.48,135.77L513.38,135.77L513.38,138.66L514.27,138.66L514.27,136.48L515.17,136.48L515.17,142.09L516.07,142.09L516.07,138.71L516.97,138.71L516.97,140.4L517.87,140.4L517.87,139.54L518.76,139.54L518.76,131.59L519.66,131.59L519.66,138.18L520.56,138.18L520.56,139.04L521.46,139.04L521.46,140.29L522.36,140.29L522.36,137.65L523.26,137.65L523.26,140.17L524.15,140.17L524.15,140.95L525.05,140.95L525.05,137.59L525.95,137.59L525.95,135.79L526.85,135.79L526.85,140.07L528.64,140.53L528.64,137.74L529.54,137.74L529.54,142.8L530.44,142.8L530.44,139.21L533.14,139.68L533.14,136L534.03,136L534.03,138.64L535.83,138L535.83,143.69L536.73,143.69L536.73,139.45L537.63,139.45L537.63,142.28L539.42,142.87L539.42,138.85L540.32,138.85L540.32,137.34L542.12,136.82L542.12,141.76L543.01,141.76L543.01,137.63L543.91,137.63L543.91,140.48L546.61,140.34L546.61,137.83L549.3,137.35L549.3,138.51L550.2,138.51L550.2,144.08L551.1,144.08L551.1,139.29L552,139.29L552,140.89L553.79,141.58L553.79,140.34L554.69,140.34L554.69,135.88L555.59,135.88L555.59,133.91L556.49,133.91L556.49,143.02L557.38,143.02L557.38,137.08L558.28,137.08L558.28,142.34L559.18,142.34L559.18,138.77L560.08,138.77L560.08,140.69L560.98,140.69L560.98,137.85L561.88,137.85L561.88,134.35L562.77,134.35L562.77,136.88L563.67,136.88L563.67,138.36L564.57,138.36L564.57,144L565.47,144L565.47,141.35L568.16,141.11L568.16,140.83L569.06,140.83L569.06,137.2L569.96,137.2L569.96,134.2L570.86,134.2L570.86,142.62L571.75,142.62L571.75,137.23L572.65,137.23L572.65,142.2L573.55,142.2L573.55,140.06L574.45,140.06L574.45,141.66L575.35,141.66L575.35,139L576.25,139L576.25,135.13L577.14,135.13L577.14,137.33L578.94,136.67L578.94,142.07L579.84,142.07L579.84,140.7L581.63,140.1L581.63,140.96L582.53,140.96L582.53,139.57L583.43,139.57L583.43,137.77L584.33,137.77L584.33,133.46L585.23,133.46L585.23,140.61L586.13,140.61L586.13,138.37L587.02,138.37L587.02,141.8L587.92,141.8L587.92,140.28L588.82,140.28L588.82,143.96L589.72,143.96L589.72,141.44L590.62,141.44L590.62,136.52L591.51,136.52L591.51,138.91L593.31,139.24L593.31,143.87L594.21,143.87L594.21,140.9L595.11,140.9L595.11,144.54L596,144.54L596,142.6L597.8,143.1L597.8,141.63L598.7,141.63L598.7,136.78L599.6,136.78L599.6,142.16L600.5,142.16L600.5,143L601.39,143L601.39,145.51L602.29,145.51L602.29,144.5L603.19,144.5L603.19,145.57L604.09,145.57L604.09,147.61L604.99,147.61L604.99,139.9L605.88,139.9L605.88,143.38L606.78,143.38L606.78,141.16L607.68,141.16L607.68,147.2L608.58,147.2L608.58,144L609.48,144L609.48,147.03L610.37,147.03L610.37,144.6L612.17,145.29L612.17,143.84L613.07,143.84L613.07,140.92L613.97,140.92L613.97,144.97L615.76,145.24L615.76,149.79L616.66,149.79L616.66,146.96L617.56,146.96L617.56,145.53L618.46,145.53L618.46,149.05L619.36,149.05L619.36,142.69L620.25,142.69L620.25,145.23L621.15,145.23L621.15,144.09L622.05,144.09L622.05,148.58L622.95,148.58L622.95,146.94L623.85,146.94L623.85,148.96L624.75,148.96L624.75,145.93L626.54,146.06L626.54,139.27L627.44,139.27L627.44,128.43L628.34,128.43L628.34,129.25L630.13,129.56L630.13,139.25L631.03,139.25L631.03,135.65L631.93,135.65L631.93,136.48L632.83,136.48L632.83,142.93L633.73,142.93L633.73,141.97L634.62,141.97L634.62,140.54L635.52,140.54L635.52,118.48L636.42,118.48L636.42,143.1L637.32,143.1L637.32,137.36L638.22,137.36L638.22,143.61L640.01,143.03L640.01,141.27L641.81,141.76L641.81,116.64L642.71,116.64L642.71,124.73L643.61,124.73L643.61,138.41L644.5,138.41L644.5,142.58L645.4,142.58L645.4,139.54L646.3,139.54L646.3,134.23L647.2,134.23L647.2,139.13L648.1,139.13L648.1,135.31L649.89,134.57L649.89,133.14L650.79,133.14L650.79,142.14L651.69,142.14L651.69,137.75L652.59,137.75L652.59,141.7L653.49,141.7L653.49,140.58L655.28,140.83L655.28,139.89L656.18,139.89L656.18,135.98L657.08,135.98L657.08,140.06L657.98,140.06L657.98,137.37L658.87,137.37L658.87,141.03L659.77,141.03L659.77,142.57L660.67,142.57L660.67,140.31L662.47,140.35L662.47,139.55L663.37,139.55L663.37,140.62L664.26,140.62L664.26,136.35L665.16,136.35L665.16,142.94L666.06,142.94L666.06,183.17" style="vector-effect: non-scaling-stroke; fill: none; stroke: rgb(0, 154, 250); stroke-opacity: 0.5; stroke-width: 1px; opacity: 1;"/></g><g class="points"/><g class="text"/></g><g class="trace scatter trace067050" style="stroke-miterlimit: 2; opacity: 1;"><g class="fills"/><g class="errorbars"/><g class="lines"><path class="js-line" d="M19.4,183.17L666.06,183.17L666.06,183.17" style="vector-effect: non-scaling-stroke; fill: none; stroke: rgb(227, 111, 71); stroke-opacity: 0.5; stroke-width: 1px; opacity: 1;"/></g><g class="points"/><g class="text"/></g><g class="trace scatter trace88f216" style="stroke-miterlimit: 2; opacity: 1;"><g class="fills"/><g class="errorbars"/><g class="lines"><path class="js-line" d="M19.4,178.04L20.3,178.04L20.3,155.57L21.2,155.57L21.2,157.11L22.09,157.11L22.09,158L24.79,157.94L24.79,159.24L25.69,159.24L25.69,156.96L26.58,156.96L26.58,159.29L27.48,159.29L27.48,156.62L28.38,156.62L28.38,158.39L31.08,158.25L31.08,156.57L31.97,156.57L31.97,159.35L32.87,159.35L32.87,157.33L33.77,157.33L33.77,156.34L34.67,156.34L34.67,153.08L35.57,153.08L35.57,161.44L36.46,161.44L36.46,152.78L37.36,152.78L37.36,159.46L38.26,159.46L38.26,156.94L39.16,156.94L39.16,158.46L40.96,158.15L40.96,155.52L41.85,155.52L41.85,161.59L42.75,161.59L42.75,153.66L43.65,153.66L43.65,160.71L44.55,160.71L44.55,154.98L45.45,154.98L45.45,158.49L46.34,158.49L46.34,156.6L47.24,156.6L47.24,159.63L48.14,159.63L48.14,155.32L49.04,155.32L49.04,156.51L49.94,156.51L49.94,157.29L51.73,156.65L51.73,159.86L52.63,159.86L52.63,155.65L53.53,155.65L53.53,159.2L55.33,158.93L55.33,156.07L56.22,156.07L56.22,159.08L57.12,159.08L57.12,159.88L58.02,159.88L58.02,158.6L58.92,158.6L58.92,157.65L59.82,157.65L59.82,155.22L60.71,155.22L60.71,159.46L61.61,159.46L61.61,155.87L62.51,155.87L62.51,157.88L64.31,157.76L64.31,158.88L65.2,158.88L65.2,156.06L66.1,156.06L66.1,159.56L67,159.56L67,158.49L69.7,158.95L69.7,157.35L70.59,157.35L70.59,155.08L72.39,155.26L72.39,159.77L73.29,159.77L73.29,157.62L74.19,157.62L74.19,156.18L75.08,156.18L75.08,158.47L78.68,158.58L78.68,156.59L79.58,156.59L79.58,158.38L81.37,158.4L81.37,155.5L82.27,155.5L82.27,156.33L83.17,156.33L83.17,153.78L84.07,153.78L84.07,159.58L84.96,159.58L84.96,155.01L85.86,155.01L85.86,161.41L86.76,161.41L86.76,151.73L87.66,151.73L87.66,159.86L88.56,159.86L88.56,155.21L89.45,155.21L89.45,157.9L90.35,157.9L90.35,158.87L91.25,158.87L91.25,157.2L92.15,157.2L92.15,159.08L93.05,159.08L93.05,151.13L93.95,151.13L93.95,162.15L94.84,162.15L94.84,153.42L95.74,153.42L95.74,159.6L96.64,159.6L96.64,156.01L97.54,156.01L97.54,158.84L98.44,158.84L98.44,156.19L99.33,156.19L99.33,157.74L100.23,157.74L100.23,159.34L101.13,159.34L101.13,153.23L102.03,153.23L102.03,160.72L102.93,160.72L102.93,155.47L103.82,155.47L103.82,157.03L104.72,157.03L104.72,154.74L105.62,154.74L105.62,158.24L106.52,158.24L106.52,156.87L107.42,156.87L107.42,158.22L109.21,157.92L109.21,155.64L110.11,155.64L110.11,157.52L111.01,157.52L111.01,154.18L111.91,154.18L111.91,158.94L112.81,158.94L112.81,157.9L113.7,157.9L113.7,156.32L114.6,156.32L114.6,158.42L115.5,158.42L115.5,156.88L117.3,157.53L117.3,154.29L118.2,154.29L118.2,158.67L119.99,158.74L119.99,155.74L120.89,155.74L120.89,158.72L121.79,158.72L121.79,156L122.69,156L122.69,160.02L123.58,160.02L123.58,155.75L124.48,155.75L124.48,159.19L126.28,158.44L126.28,156.4L127.18,156.4L127.18,155.58L128.97,156.27L128.97,157.23L130.77,156.85L130.77,158.67L131.67,158.67L131.67,155.99L132.57,155.99L132.57,159.64L133.46,159.64L133.46,157.07L135.26,157.45L135.26,158.34L137.95,157.85L137.95,156.94L138.85,156.94L138.85,156.09L139.75,156.09L139.75,157.65L140.65,157.65L140.65,155.87L141.55,155.87L141.55,157.77L143.34,158.13L143.34,156.88L144.24,156.88L144.24,159.83L145.14,159.83L145.14,157.48L146.94,157.47L146.94,156.26L147.83,156.26L147.83,155.19L148.73,155.19L148.73,156.55L149.63,156.55L149.63,158.26L150.53,158.26L150.53,157.11L152.32,156.88L152.32,158.76L153.22,158.76L153.22,155.59L154.12,155.59L154.12,162.87L155.02,162.87L155.02,154.07L155.92,154.07L155.92,159.63L156.81,159.63L156.81,155.71L157.71,155.71L157.71,158.46L158.61,158.46L158.61,153.5L159.51,153.5L159.51,156.82L160.41,156.82L160.41,159.14L161.31,159.14L161.31,155.48L162.2,155.48L162.2,160.27L163.1,160.27L163.1,156.62L164,156.62L164,160.51L164.9,160.51L164.9,155.86L165.8,155.86L165.8,162.24L166.69,162.24L166.69,159.67L170.29,159.24L170.29,160.82L171.19,160.82L171.19,158.41L172.08,158.41L172.08,164.57L172.98,164.57L172.98,158.6L173.88,158.6L173.88,161.28L174.78,161.28L174.78,155.38L175.68,155.38L175.68,160.68L177.47,160.05L177.47,158.58L179.27,159.01L179.27,160.51L181.06,160.39L181.06,157.01L181.96,157.01L181.96,163.43L182.86,163.43L182.86,158.96L184.66,159.71L184.66,158.53L186.45,158.65L186.45,160.82L187.35,160.82L187.35,158.41L188.25,158.41L188.25,162.71L189.15,162.71L189.15,158.24L190.05,158.24L190.05,160.08L190.94,160.08L190.94,161.3L191.84,161.3L191.84,159.38L193.64,159.87L193.64,158.27L194.54,158.27L194.54,159.71L196.33,159.01L196.33,161.42L197.23,161.42L197.23,164.14L198.13,164.14L198.13,157.53L199.03,157.53L199.03,162.17L199.93,162.17L199.93,157.94L200.82,157.94L200.82,165.4L201.72,165.4L201.72,155.67L202.62,155.67L202.62,159.71L204.42,159.91L204.42,160.84L206.21,160.73L206.21,159.52L207.11,159.52L207.11,163.03L208.01,163.03L208.01,159.17L208.91,159.17L208.91,162.28L209.81,162.28L209.81,157.16L210.7,157.16L210.7,161.19L211.6,161.19L211.6,159.8L212.5,159.8L212.5,160.67L213.4,160.67L213.4,163.15L214.3,163.15L214.3,160.26L215.19,160.26L215.19,162.53L216.09,162.53L216.09,159.72L216.99,159.72L216.99,163.35L217.89,163.35L217.89,154.54L218.79,154.54L218.79,158.89L219.68,158.89L219.68,160.28L221.48,160.96L221.48,162.49L222.38,162.49L222.38,159.62L223.28,159.62L223.28,163.4L224.18,163.4L224.18,159.75L225.07,159.75L225.07,163.69L225.97,163.69L225.97,159.73L226.87,159.73L226.87,158.09L227.77,158.09L227.77,160.22L230.46,160.74L230.46,159.9L231.36,159.9L231.36,161.55L232.26,161.55L232.26,159.49L233.16,159.49L233.16,164.04L234.05,164.04L234.05,157.1L234.95,157.1L234.95,163.37L235.85,163.37L235.85,157.59L236.75,157.59L236.75,162.59L237.65,162.59L237.65,159.52L239.44,159.59L239.44,161.65L240.34,161.65L240.34,158.61L241.24,158.61L241.24,162.38L242.14,162.38L242.14,158.11L243.04,158.11L243.04,157L243.93,157L243.93,154.6L244.83,154.6L244.83,160.08L245.73,160.08L245.73,152.56L246.63,152.56L246.63,154.58L247.53,154.58L247.53,151.82L248.43,151.82L248.43,154.11L249.32,154.11L249.32,151.49L250.22,151.49L250.22,155.07L252.02,155.44L252.02,151.25L252.92,151.25L252.92,155.48L253.81,155.48L253.81,152.34L254.71,152.34L254.71,156.99L255.61,156.99L255.61,153.92L256.51,153.92L256.51,156.04L257.41,156.04L257.41,152L258.3,152L258.3,155.42L259.2,155.42L259.2,153.37L261,153.23L261,155.23L261.9,155.23L261.9,154.35L262.8,154.35L262.8,158.94L263.69,158.94L263.69,157.32L264.59,157.32L264.59,155.18L265.49,155.18L265.49,159.61L266.39,159.61L266.39,156.4L267.29,156.4L267.29,157.46L268.18,157.46L268.18,155.17L269.08,155.17L269.08,157.53L269.98,157.53L269.98,154.47L270.88,154.47L270.88,153.52L271.78,153.52L271.78,156.85L272.67,156.85L272.67,154.21L273.57,154.21L273.57,156.86L274.47,156.86L274.47,151.6L275.37,151.6L275.37,156.21L276.27,156.21L276.27,154.29L277.17,154.29L277.17,151.2L278.06,151.2L278.06,153.77L278.96,153.77L278.96,152.67L279.86,152.67L279.86,155.33L280.76,155.33L280.76,156.7L281.66,156.7L281.66,154.92L282.55,154.92L282.55,150.79L283.45,150.79L283.45,155.96L284.35,155.96L284.35,154.96L285.25,154.96L285.25,157.37L286.15,157.37L286.15,159.64L287.05,159.64L287.05,157.98L287.94,157.98L287.94,151.87L288.84,151.87L288.84,155.17L290.64,154.53L290.64,159.02L291.54,159.02L291.54,154.41L292.43,154.41L292.43,159.59L293.33,159.59L293.33,149.13L294.23,149.13L294.23,158.28L295.13,158.28L295.13,155.04L296.92,155.28L296.92,147.23L297.82,147.23L297.82,149.98L298.72,149.98L298.72,151.3L299.62,151.3L299.62,149.88L300.52,149.88L300.52,151.15L302.31,151.83L302.31,152.96L303.21,152.96L303.21,150.08L304.11,150.08L304.11,153.03L305.91,153.64L305.91,151.76L307.7,151.9L307.7,152.82L308.6,152.82L308.6,151.75L310.4,152.26L310.4,153.29L312.19,153.8L312.19,155.11L313.09,155.11L313.09,156.08L313.99,156.08L313.99,155.27L314.89,155.27L314.89,154.43L315.79,154.43L315.79,156.6L316.68,156.6L316.68,159.38L317.58,159.38L317.58,157.56L318.48,157.56L318.48,155.61L319.38,155.61L319.38,156.62L320.28,156.62L320.28,149.69L321.17,149.69L321.17,157.91L322.07,157.91L322.07,149.88L322.97,149.88L322.97,131.48L323.87,131.48L323.87,149.71L324.77,149.71L324.77,152.18L325.67,152.18L325.67,149.63L327.46,149.75L327.46,153.99L328.36,153.99L328.36,153.07L329.26,153.07L329.26,156.83L330.16,156.83L330.16,151.42L331.05,151.42L331.05,158.32L331.95,158.32L331.95,156.97L332.85,156.97L332.85,154.42L334.65,154.35L334.65,151.86L335.54,151.86L335.54,152.97L336.44,152.97L336.44,156.21L337.34,156.21L337.34,152.52L338.24,152.52L338.24,149.77L339.14,149.77L339.14,150.67L340.04,150.67L340.04,156.3L340.93,156.3L340.93,153.15L341.83,153.15L341.83,155.12L342.73,155.12L342.73,154.08L343.63,154.08L343.63,152.6L344.53,152.6L344.53,117.98L345.42,117.98L345.42,134.67L346.32,134.67L346.32,135.56L347.22,135.56L347.22,124.04L348.12,124.04L348.12,122.4L349.02,122.4L349.02,123.16L349.91,123.16L349.91,128.11L350.81,128.11L350.81,127.22L351.71,127.22L351.71,120.9L352.61,120.9L352.61,129.97L353.51,129.97L353.51,131.51L354.41,131.51L354.41,134.33L355.3,134.33L355.3,130.07L356.2,130.07L356.2,137.39L357.1,137.39L357.1,131.58L358,131.58L358,121.4L358.9,121.4L358.9,124.72L359.79,124.72L359.79,131.75L360.69,131.75L360.69,140.07L361.59,140.07L361.59,132.5L362.49,132.5L362.49,139.38L363.39,139.38L363.39,134.64L364.28,134.64L364.28,136.28L365.18,136.28L365.18,149.55L366.08,149.55L366.08,132.09L366.98,132.09L366.98,134.38L367.88,134.38L367.88,124.99L368.78,124.99L368.78,132.4L370.57,132.75L370.57,141.52L371.47,141.52L371.47,149.12L372.37,149.12L372.37,143.22L373.27,143.22L373.27,135.59L374.16,135.59L374.16,146.5L375.06,146.5L375.06,140.94L375.96,140.94L375.96,146.97L376.86,146.97L376.86,143.63L377.76,143.63L377.76,145.46L378.66,145.46L378.66,140.86L379.55,140.86L379.55,146.92L382.25,147.17L382.25,148.31L383.15,148.31L383.15,145.19L384.04,145.19L384.04,143.22L384.94,143.22L384.94,144.95L388.53,144.73L388.53,141.16L389.43,141.16L389.43,136.74L390.33,136.74L390.33,143.6L392.13,143.36L392.13,138.4L393.03,138.4L393.03,139.57L393.92,139.57L393.92,140.4L395.72,140.35L395.72,135.66L396.62,135.66L396.62,130.01L397.52,130.01L397.52,82.37L398.41,82.37L398.41,9.27L399.31,9.27L399.31,18.5L400.21,18.5L400.21,23.16L401.11,23.16L401.11,52.97L402.01,52.97L402.01,15.61L404.7,15.78L404.7,18.1L405.6,18.1L405.6,10.61L406.5,10.61L406.5,22.51L408.29,23.11L408.29,31.84L409.19,31.84L409.19,24.97L410.09,24.97L410.09,15.97L410.99,15.97L410.99,12.56L411.89,12.56L411.89,15.08L412.78,15.08L412.78,18.15L413.68,18.15L413.68,11.26L414.58,11.26L414.58,18.62L416.38,17.98L416.38,34.21L417.28,34.21L417.28,5.34L418.17,5.34L418.17,31.39L419.07,31.39L419.07,61.68L419.97,61.68L419.97,36.87L420.87,36.87L420.87,133.46L421.77,133.46L421.77,135.92L423.56,136.53L423.56,90.01L424.46,90.01L424.46,116.92L425.36,116.92L425.36,141.87L426.26,141.87L426.26,135.89L427.15,135.89L427.15,140.68L428.05,140.68L428.05,136.56L428.95,136.56L428.95,142.06L429.85,142.06L429.85,140.99L430.75,140.99L430.75,144.35L431.65,144.35L431.65,143.32L433.44,143.3L433.44,140.73L434.34,140.73L434.34,143.4L436.14,143.5L436.14,141.87L437.93,142.62L437.93,143.72L438.83,143.72L438.83,139.95L439.73,139.95L439.73,141.42L440.63,141.42L440.63,143.29L441.52,143.29L441.52,145.14L442.42,145.14L442.42,139.41L443.32,139.41L443.32,137.51L444.22,137.51L444.22,139.96L445.12,139.96L445.12,137.62L446.02,137.62L446.02,138.47L446.91,138.47L446.91,142.08L447.81,142.08L447.81,146.18L448.71,146.18L448.71,137.24L449.61,137.24L449.61,143.71L450.51,143.71L450.51,145.32L451.4,145.32L451.4,141.52L453.2,141.05L453.2,142.4L455,142.25L455,141.46L455.9,141.46L455.9,145.44L456.79,145.44L456.79,144.44L457.69,144.44L457.69,143.5L458.59,143.5L458.59,140.14L459.49,140.14L459.49,143.33L460.39,143.33L460.39,146.63L461.28,146.63L461.28,147.49L462.18,147.49L462.18,146.25L463.08,146.25L463.08,148.34L463.98,148.34L463.98,144.32L464.88,144.32L464.88,141.94L465.77,141.94L465.77,146.48L466.67,146.48L466.67,144.71L467.57,144.71L467.57,145.74L468.47,145.74L468.47,148.62L469.37,148.62L469.37,143.95L470.27,143.95L470.27,148.51L471.16,148.51L471.16,141.98L472.06,141.98L472.06,143.94L473.86,144.3L473.86,148.61L475.65,149.1L475.65,147.68L476.55,147.68L476.55,149.14L477.45,149.14L477.45,145.97L478.35,145.97L478.35,147.98L479.25,147.98L479.25,142.57L480.14,142.57L480.14,149.17L481.04,149.17L481.04,146.61L482.84,146.67L482.84,151.3L484.64,151.81L484.64,148.89L485.53,148.89L485.53,143.15L486.43,143.15L486.43,145.9L487.33,145.9L487.33,155.27L488.23,155.27L488.23,154.39L489.13,154.39L489.13,163.57L490.02,163.57L490.02,154.4L490.92,154.4L490.92,159.64L491.82,159.64L491.82,158.67L493.62,158.55L493.62,162.11L494.52,162.11L494.52,159.24L495.41,159.24L495.41,156.76L496.31,156.76L496.31,159.62L498.11,160.34L498.11,160.68L499.01,160.68L499.01,155.73L499.9,155.73L499.9,160.91L500.8,160.91L500.8,155.94L501.7,155.94L501.7,161.09L502.6,161.09L502.6,157.73L503.5,157.73L503.5,161.38L504.39,161.38L504.39,160.45L505.29,160.45L505.29,162.4L506.19,162.4L506.19,160.41L508.89,159.96L508.89,159.58L511.58,159.86L511.58,166.79L512.48,166.79L512.48,161.23L513.38,161.23L513.38,163.35L514.27,163.35L514.27,165.82L515.17,165.82L515.17,168.17L516.07,168.17L516.07,165.69L516.97,165.69L516.97,166.81L518.76,167.09L518.76,165.68L519.66,165.68L519.66,166.97L520.56,166.97L520.56,166.1L525.05,166.02L525.05,169.1L525.95,169.1L525.95,166.51L526.85,166.51L526.85,168.37L527.75,168.37L527.75,166.8L530.44,167.38L530.44,168.07L532.24,168.01L532.24,165.21L533.14,165.21L533.14,163.52L535.83,164.02L535.83,164.43L537.63,163.77L537.63,166.9L538.52,166.9L538.52,168.75L539.42,168.75L539.42,165.49L540.32,165.49L540.32,164.54L541.22,164.54L541.22,163.02L543.01,163.26L543.01,164.7L543.91,164.7L543.91,109.47L544.81,109.47L544.81,114.36L545.71,114.36L545.71,163.28L546.61,163.28L546.61,165.25L547.51,165.25L547.51,167.39L548.4,167.39L548.4,168.75L549.3,168.75L549.3,167.4L550.2,167.4L550.2,165.96L552,166.41L552,169.18L552.89,169.18L552.89,165.72L553.79,165.72L553.79,164.58L554.69,164.58L554.69,169.14L555.59,169.14L555.59,165.7L556.49,165.7L556.49,168.11L559.18,167.81L559.18,164.67L560.08,164.67L560.08,166.59L560.98,166.59L560.98,169.73L561.88,169.73L561.88,166.98L562.77,166.98L562.77,169.24L563.67,169.24L563.67,166.29L565.47,167.04L565.47,163.56L566.37,163.56L566.37,164.64L569.96,164.6L569.96,166.81L571.75,167.1L571.75,168.5L572.65,168.5L572.65,169.7L573.55,169.7L573.55,166.31L574.45,166.31L574.45,167.83L576.25,167.92L576.25,166.76L578.04,166.24L578.04,164.09L578.94,164.09L578.94,167.8L580.74,168.1L580.74,164.67L582.53,165.17L582.53,166.71L583.43,166.71L583.43,167.92L585.23,167.27L585.23,164.66L586.13,164.66L586.13,167.98L587.02,167.98L587.02,169.22L587.92,169.22L587.92,167.73L588.82,167.73L588.82,168.98L590.62,168.86L590.62,167.77L591.51,167.77L591.51,168.83L593.31,168.96L593.31,167.33L594.21,167.33L594.21,166.11L595.11,166.11L595.11,164.59L596,164.59L596,168.25L596.9,168.25L596.9,166.2L597.8,166.2L597.8,164.27L598.7,164.27L598.7,167.48L599.6,167.48L599.6,168.72L601.39,169.25L601.39,168.11L604.09,167.77L604.09,168.53L604.99,168.53L604.99,166.54L605.88,166.54L605.88,167.53L608.58,166.88L608.58,168.83L609.48,168.83L609.48,167.38L612.17,166.65L612.17,168.81L613.07,168.81L613.07,167.51L614.87,168.24L614.87,168.96L616.66,168.37L616.66,164.17L617.56,164.17L617.56,168.7L618.46,168.7L618.46,166.42L619.36,166.42L619.36,167.65L620.25,167.65L620.25,168.65L622.05,168.97L622.05,168.02L622.95,168.02L622.95,168.84L623.85,168.84L623.85,169.87L624.75,169.87L624.75,164.47L625.64,164.47L625.64,165.43L626.54,165.43L626.54,162.5L627.44,162.5L627.44,165.13L629.24,165.19L629.24,166.45L630.13,166.45L630.13,168.29L631.03,168.29L631.03,169.09L631.93,169.09L631.93,165.08L633.73,164.72L633.73,165.52L634.62,165.52L634.62,164.09L635.52,164.09L635.52,167.04L636.42,167.04L636.42,168.55L639.12,169.09L639.12,167.89L640.01,167.89L640.01,166.62L640.91,166.62L640.91,168.09L641.81,168.09L641.81,169.29L642.71,169.29L642.71,170.21L643.61,170.21L643.61,166.91L644.5,166.91L644.5,165.9L646.3,166.63L646.3,166.98L647.2,166.98L647.2,168.68L648.1,168.68L648.1,167.28L650.79,167.38L650.79,168.08L652.59,168.35L652.59,169.01L653.49,169.01L653.49,167.18L654.38,167.18L654.38,169.48L655.28,169.48L655.28,168.55L656.18,168.55L656.18,163.91L657.08,163.91L657.08,167.4L658.87,166.78L658.87,164.73L659.77,164.73L659.77,166.89L660.67,166.89L660.67,168.24L661.57,168.24L661.57,167.13L663.37,167.86L663.37,169.08L666.06,168.99L666.06,183.17" style="vector-effect: non-scaling-stroke; fill: none; stroke: rgb(62, 164, 78); stroke-opacity: 0.5; stroke-width: 1px; opacity: 1;"/></g><g class="points"/><g class="text"/></g><g class="trace scatter trace1e731b" style="stroke-miterlimit: 2; opacity: 1;"><g class="fills"/><g class="errorbars"/><g class="lines"><path class="js-line" d="M19.4,183.17L666.06,183.17L666.06,183.17" style="vector-effect: non-scaling-stroke; fill: none; stroke: rgb(195, 113, 210); stroke-opacity: 0.5; stroke-width: 1px; opacity: 1;"/></g><g class="points"/><g class="text"/></g></g></g><g class="overplot"/><path class="xlines-above crisp" d="M29.603674540682412,229.2681193045461H716.0629921259842" style="fill: none; stroke-width: 1px; stroke: rgb(0, 0, 0); stroke-opacity: 1;"/><path class="ylines-above crisp" d="M30.103674540682412,40.26392534266549V228.7681193045461" style="fill: none; stroke-width: 1px; stroke: rgb(0, 0, 0); stroke-opacity: 1;"/><g class="overlines-above"/><g class="xaxislayer-above"><path class="xtick ticks crisp" d="M0,228.7681193045461v-5" transform="translate(50.00367454068241,0)" style="stroke: rgb(0, 0, 0); stroke-opacity: 1; stroke-width: 1px;"/><path class="xtick ticks crisp" d="M0,228.7681193045461v-5" transform="translate(76.94367454068242,0)" style="stroke: rgb(0, 0, 0); stroke-opacity: 1; stroke-width: 1px;"/><path class="xtick ticks crisp" d="M0,228.7681193045461v-5" transform="translate(103.89367454068241,0)" style="stroke: rgb(0, 0, 0); stroke-opacity: 1; stroke-width: 1px;"/><path class="xtick ticks crisp" d="M0,228.7681193045461v-5" transform="translate(130.8336745406824,0)" style="stroke: rgb(0, 0, 0); stroke-opacity: 1; stroke-width: 1px;"/><path class="xtick ticks crisp" d="M0,228.7681193045461v-5" transform="translate(157.78367454068243,0)" style="stroke: rgb(0, 0, 0); stroke-opacity: 1; stroke-width: 1px;"/><path class="xtick ticks crisp" d="M0,228.7681193045461v-5" transform="translate(184.72367454068242,0)" style="stroke: rgb(0, 0, 0); stroke-opacity: 1; stroke-width: 1px;"/><path class="xtick ticks crisp" d="M0,228.7681193045461v-5" transform="translate(211.66367454068242,0)" style="stroke: rgb(0, 0, 0); stroke-opacity: 1; stroke-width: 1px;"/><path class="xtick ticks crisp" d="M0,228.7681193045461v-5" transform="translate(238.6136745406824,0)" style="stroke: rgb(0, 0, 0); stroke-opacity: 1; stroke-width: 1px;"/><path class="xtick ticks crisp" d="M0,228.7681193045461v-5" transform="translate(265.5536745406824,0)" style="stroke: rgb(0, 0, 0); stroke-opacity: 1; stroke-width: 1px;"/><path class="xtick ticks crisp" d="M0,228.7681193045461v-5" transform="translate(292.50367454068237,0)" style="stroke: rgb(0, 0, 0); stroke-opacity: 1; stroke-width: 1px;"/><path class="xtick ticks crisp" d="M0,228.7681193045461v-5" transform="translate(319.44367454068237,0)" style="stroke: rgb(0, 0, 0); stroke-opacity: 1; stroke-width: 1px;"/><path class="xtick ticks crisp" d="M0,228.7681193045461v-5" transform="translate(346.3936745406824,0)" style="stroke: rgb(0, 0, 0); stroke-opacity: 1; stroke-width: 1px;"/><path class="xtick ticks crisp" d="M0,228.7681193045461v-5" transform="translate(373.3336745406824,0)" style="stroke: rgb(0, 0, 0); stroke-opacity: 1; stroke-width: 1px;"/><path class="xtick ticks crisp" d="M0,228.7681193045461v-5" transform="translate(400.2736745406824,0)" style="stroke: rgb(0, 0, 0); stroke-opacity: 1; stroke-width: 1px;"/><path class="xtick ticks crisp" d="M0,228.7681193045461v-5" transform="translate(427.2236745406824,0)" style="stroke: rgb(0, 0, 0); stroke-opacity: 1; stroke-width: 1px;"/><path class="xtick ticks crisp" d="M0,228.7681193045461v-5" transform="translate(454.1636745406824,0)" style="stroke: rgb(0, 0, 0); stroke-opacity: 1; stroke-width: 1px;"/><path class="xtick ticks crisp" d="M0,228.7681193045461v-5" transform="translate(481.1136745406824,0)" style="stroke: rgb(0, 0, 0); stroke-opacity: 1; stroke-width: 1px;"/><path class="xtick ticks crisp" d="M0,228.7681193045461v-5" transform="translate(508.0536745406824,0)" style="stroke: rgb(0, 0, 0); stroke-opacity: 1; stroke-width: 1px;"/><path class="xtick ticks crisp" d="M0,228.7681193045461v-5" transform="translate(534.9936745406824,0)" style="stroke: rgb(0, 0, 0); stroke-opacity: 1; stroke-width: 1px;"/><path class="xtick ticks crisp" d="M0,228.7681193045461v-5" transform="translate(561.9436745406824,0)" style="stroke: rgb(0, 0, 0); stroke-opacity: 1; stroke-width: 1px;"/><path class="xtick ticks crisp" d="M0,228.7681193045461v-5" transform="translate(588.8836745406824,0)" style="stroke: rgb(0, 0, 0); stroke-opacity: 1; stroke-width: 1px;"/><path class="xtick ticks crisp" d="M0,228.7681193045461v-5" transform="translate(615.8336745406824,0)" style="stroke: rgb(0, 0, 0); stroke-opacity: 1; stroke-width: 1px;"/><path class="xtick ticks crisp" d="M0,228.7681193045461v-5" transform="translate(642.7736745406824,0)" style="stroke: rgb(0, 0, 0); stroke-opacity: 1; stroke-width: 1px;"/><path class="xtick ticks crisp" d="M0,228.7681193045461v-5" transform="translate(669.7236745406824,0)" style="stroke: rgb(0, 0, 0); stroke-opacity: 1; stroke-width: 1px;"/><path class="xtick ticks crisp" d="M0,228.7681193045461v-5" transform="translate(696.6636745406823,0)" style="stroke: rgb(0, 0, 0); stroke-opacity: 1; stroke-width: 1px;"/><g class="xtick"><text text-anchor="start" x="0" y="239.3681193045461" transform="translate(50.00367454068241,0) rotate(22,0,235.3681193045461)" style="font-family: sans-serif; font-size: 8px; fill: rgb(0, 0, 0); fill-opacity: 1; white-space: pre; opacity: 1;">2022-10-27 00:00:00</text></g><g class="xtick"><text text-anchor="start" x="0" y="239.3681193045461" style="font-family: sans-serif; font-size: 8px; fill: rgb(0, 0, 0); fill-opacity: 1; white-space: pre; opacity: 1;" transform="translate(76.94367454068242,0) rotate(22,0,235.3681193045461)">01:00:00</text></g><g class="xtick"><text text-anchor="start" x="0" y="239.3681193045461" style="font-family: sans-serif; font-size: 8px; fill: rgb(0, 0, 0); fill-opacity: 1; white-space: pre; opacity: 1;" transform="translate(103.89367454068241,0) rotate(22,0,235.3681193045461)">02:00:00</text></g><g class="xtick"><text text-anchor="start" x="0" y="239.3681193045461" style="font-family: sans-serif; font-size: 8px; fill: rgb(0, 0, 0); fill-opacity: 1; white-space: pre; opacity: 1;" transform="translate(130.8336745406824,0) rotate(22,0,235.3681193045461)">03:00:00</text></g><g class="xtick"><text text-anchor="start" x="0" y="239.3681193045461" style="font-family: sans-serif; font-size: 8px; fill: rgb(0, 0, 0); fill-opacity: 1; white-space: pre; opacity: 1;" transform="translate(157.78367454068243,0) rotate(22,0,235.3681193045461)">04:00:00</text></g><g class="xtick"><text text-anchor="start" x="0" y="239.3681193045461" style="font-family: sans-serif; font-size: 8px; fill: rgb(0, 0, 0); fill-opacity: 1; white-space: pre; opacity: 1;" transform="translate(184.72367454068242,0) rotate(22,0,235.3681193045461)">05:00:00</text></g><g class="xtick"><text text-anchor="start" x="0" y="239.3681193045461" style="font-family: sans-serif; font-size: 8px; fill: rgb(0, 0, 0); fill-opacity: 1; white-space: pre; opacity: 1;" transform="translate(211.66367454068242,0) rotate(22,0,235.3681193045461)">06:00:00</text></g><g class="xtick"><text text-anchor="start" x="0" y="239.3681193045461" style="font-family: sans-serif; font-size: 8px; fill: rgb(0, 0, 0); fill-opacity: 1; white-space: pre; opacity: 1;" transform="translate(238.6136745406824,0) rotate(22,0,235.3681193045461)">07:00:00</text></g><g class="xtick"><text text-anchor="start" x="0" y="239.3681193045461" style="font-family: sans-serif; font-size: 8px; fill: rgb(0, 0, 0); fill-opacity: 1; white-space: pre; opacity: 1;" transform="translate(265.5536745406824,0) rotate(22,0,235.3681193045461)">08:00:00</text></g><g class="xtick"><text text-anchor="start" x="0" y="239.3681193045461" style="font-family: sans-serif; font-size: 8px; fill: rgb(0, 0, 0); fill-opacity: 1; white-space: pre; opacity: 1;" transform="translate(292.50367454068237,0) rotate(22,0,235.3681193045461)">09:00:00</text></g><g class="xtick"><text text-anchor="start" x="0" y="239.3681193045461" style="font-family: sans-serif; font-size: 8px; fill: rgb(0, 0, 0); fill-opacity: 1; white-space: pre; opacity: 1;" transform="translate(319.44367454068237,0) rotate(22,0,235.3681193045461)">10:00:00</text></g><g class="xtick"><text text-anchor="start" x="0" y="239.3681193045461" style="font-family: sans-serif; font-size: 8px; fill: rgb(0, 0, 0); fill-opacity: 1; white-space: pre; opacity: 1;" transform="translate(346.3936745406824,0) rotate(22,0,235.3681193045461)">11:00:00</text></g><g class="xtick"><text text-anchor="start" x="0" y="239.3681193045461" style="font-family: sans-serif; font-size: 8px; fill: rgb(0, 0, 0); fill-opacity: 1; white-space: pre; opacity: 1;" transform="translate(373.3336745406824,0) rotate(22,0,235.3681193045461)">12:00:00</text></g><g class="xtick"><text text-anchor="start" x="0" y="239.3681193045461" style="font-family: sans-serif; font-size: 8px; fill: rgb(0, 0, 0); fill-opacity: 1; white-space: pre; opacity: 1;" transform="translate(400.2736745406824,0) rotate(22,0,235.3681193045461)">13:00:00</text></g><g class="xtick"><text text-anchor="start" x="0" y="239.3681193045461" style="font-family: sans-serif; font-size: 8px; fill: rgb(0, 0, 0); fill-opacity: 1; white-space: pre; opacity: 1;" transform="translate(427.2236745406824,0) rotate(22,0,235.3681193045461)">14:00:00</text></g><g class="xtick"><text text-anchor="start" x="0" y="239.3681193045461" style="font-family: sans-serif; font-size: 8px; fill: rgb(0, 0, 0); fill-opacity: 1; white-space: pre; opacity: 1;" transform="translate(454.1636745406824,0) rotate(22,0,235.3681193045461)">15:00:00</text></g><g class="xtick"><text text-anchor="start" x="0" y="239.3681193045461" style="font-family: sans-serif; font-size: 8px; fill: rgb(0, 0, 0); fill-opacity: 1; white-space: pre; opacity: 1;" transform="translate(481.1136745406824,0) rotate(22,0,235.3681193045461)">16:00:00</text></g><g class="xtick"><text text-anchor="start" x="0" y="239.3681193045461" style="font-family: sans-serif; font-size: 8px; fill: rgb(0, 0, 0); fill-opacity: 1; white-space: pre; opacity: 1;" transform="translate(508.0536745406824,0) rotate(22,0,235.3681193045461)">17:00:00</text></g><g class="xtick"><text text-anchor="start" x="0" y="239.3681193045461" style="font-family: sans-serif; font-size: 8px; fill: rgb(0, 0, 0); fill-opacity: 1; white-space: pre; opacity: 1;" transform="translate(534.9936745406824,0) rotate(22,0,235.3681193045461)">18:00:00</text></g><g class="xtick"><text text-anchor="start" x="0" y="239.3681193045461" style="font-family: sans-serif; font-size: 8px; fill: rgb(0, 0, 0); fill-opacity: 1; white-space: pre; opacity: 1;" transform="translate(561.9436745406824,0) rotate(22,0,235.3681193045461)">19:00:00</text></g><g class="xtick"><text text-anchor="start" x="0" y="239.3681193045461" style="font-family: sans-serif; font-size: 8px; fill: rgb(0, 0, 0); fill-opacity: 1; white-space: pre; opacity: 1;" transform="translate(588.8836745406824,0) rotate(22,0,235.3681193045461)">20:00:00</text></g><g class="xtick"><text text-anchor="start" x="0" y="239.3681193045461" style="font-family: sans-serif; font-size: 8px; fill: rgb(0, 0, 0); fill-opacity: 1; white-space: pre; opacity: 1;" transform="translate(615.8336745406824,0) rotate(22,0,235.3681193045461)">21:00:00</text></g><g class="xtick"><text text-anchor="start" x="0" y="239.3681193045461" style="font-family: sans-serif; font-size: 8px; fill: rgb(0, 0, 0); fill-opacity: 1; white-space: pre; opacity: 1;" transform="translate(642.7736745406824,0) rotate(22,0,235.3681193045461)">22:00:00</text></g><g class="xtick"><text text-anchor="start" x="0" y="239.3681193045461" style="font-family: sans-serif; font-size: 8px; fill: rgb(0, 0, 0); fill-opacity: 1; white-space: pre; opacity: 1;" transform="translate(669.7236745406824,0) rotate(22,0,235.3681193045461)">23:00:00</text></g><g class="xtick"><text text-anchor="start" x="0" y="239.3681193045461" style="font-family: sans-serif; font-size: 8px; fill: rgb(0, 0, 0); fill-opacity: 1; white-space: pre; opacity: 0;" transform="translate(696.6636745406823,0) rotate(22,0,235.3681193045461)">2022-10-28 00:00:00</text></g></g><g class="yaxislayer-above"><path class="ytick ticks crisp" d="M30.603674540682412,0h5" transform="translate(0,223.43392534266548)" style="stroke: rgb(0, 0, 0); stroke-opacity: 1; stroke-width: 1px;"/><path class="ytick ticks crisp" d="M30.603674540682412,0h5" transform="translate(0,175.42392534266548)" style="stroke: rgb(0, 0, 0); stroke-opacity: 1; stroke-width: 1px;"/><path class="ytick ticks crisp" d="M30.603674540682412,0h5" transform="translate(0,127.4139253426655)" style="stroke: rgb(0, 0, 0); stroke-opacity: 1; stroke-width: 1px;"/><path class="ytick ticks crisp" d="M30.603674540682412,0h5" transform="translate(0,79.39392534266548)" style="stroke: rgb(0, 0, 0); stroke-opacity: 1; stroke-width: 1px;"/><g class="ytick"><text text-anchor="end" x="28.00367454068241" y="2.8" transform="translate(0,223.43392534266548)" style="font-family: sans-serif; font-size: 8px; fill: rgb(0, 0, 0); fill-opacity: 1; white-space: pre; opacity: 1;">0</text></g><g class="ytick"><text text-anchor="end" x="28.00367454068241" y="2.8" style="font-family: sans-serif; font-size: 8px; fill: rgb(0, 0, 0); fill-opacity: 1; white-space: pre; opacity: 1;" transform="translate(0,175.42392534266548)">1000</text></g><g class="ytick"><text text-anchor="end" x="28.00367454068241" y="2.8" style="font-family: sans-serif; font-size: 8px; fill: rgb(0, 0, 0); fill-opacity: 1; white-space: pre; opacity: 1;" transform="translate(0,127.4139253426655)">2000</text></g><g class="ytick"><text text-anchor="end" x="28.00367454068241" y="2.8" style="font-family: sans-serif; font-size: 8px; fill: rgb(0, 0, 0); fill-opacity: 1; white-space: pre; opacity: 1;" transform="translate(0,79.39392534266548)">3000</text></g></g><g class="overaxes-above"/></g></g><g class="polarlayer"/><g class="ternarylayer"/><g class="geolayer"/><g class="funnelarealayer"/><g class="pielayer"/><g class="iciclelayer"/><g class="treemaplayer"/><g class="sunburstlayer"/><g class="glimages"/><defs id="topdefs-167022"><g class="clips"/></defs><g class="layer-above"><g class="imagelayer"/><g class="shapelayer"/></g><g class="infolayer"><g class="g-gtitle"/><g class="g-xtitle"/><g class="g-ytitle"/><g class="annotation" data-index="0" style="opacity: 1;"><g class="annotation-text-g" transform="rotate(0,373.3333333333333,33.500000000000014)"><g class="cursor-pointer" transform="translate(151,20)"><rect class="bg" x="0.5" y="0.5" width="443" height="26" style="stroke-width: 1px; stroke: rgb(0, 0, 0); stroke-opacity: 0; fill: rgb(0, 0, 0); fill-opacity: 0;"/><text class="annotation-text" text-anchor="middle" x="221.9560546875" y="20.3251953125" style="font-family: sans-serif; font-size: 20px; fill: rgb(0, 0, 0); fill-opacity: 1; white-space: pre;">2022-10-27 | mdt | compute | l_open | unit/second</text></g></g></g></g></svg>