<svg version="1.1" xmlns="http://www.w3.org/2000/svg" xmlns:xlink="http://www.w3.org/1999/xlink" width="1280" height="656"><defs><clipPath id="JluqeTEkMnaO"><path fill="none" stroke="none" d=" M 0 0 L 1280 0 L 1280 656 L 0 656 L 0 0 Z"/></clipPath></defs><g transform="scale(1,1)" clip-path="url(#JluqeTEkMnaO)"><g><rect fill="rgb(255,255,255)" stroke="none" x="0" y="0" width="1280" height="656" fill-opacity="1"/><path fill="none" stroke="rgb(192,192,192)" paint-order="fill stroke markers" d=" M 10.5 0.5 L 10.5 656.5 M 10.5 0.5 L 10.5 656.5 M 100.5 0.5 L 100.5 656.5 M 190.5 0.5 L 190.5 656.5 M 281.5 0.5 L 281.5 656.5 M 371.5 0.5 L 371.5 656.5 M 461.5 0.5 L 461.5 656.5 M 551.5 0.5 L 551.5 656.5 M 642.5 0.5 L 642.5 656.5 M 732.5 0.5 L 732.5 656.5 M 822.5 0.5 L 822.5 656.5 M 912.5 0.5 L 912.5 656.5 M 1002.5 0.5 L 1002.5 656.5 M 1093.5 0.5 L 1093.5 656.5 M 1183.5 0.5 L 1183.5 656.5 M 1273.5 0.5 L 1273.5 656.5" stroke-opacity="1" stroke-linecap="round" stroke-linejoin="round" stroke-miterlimit="10"/><path fill="none" stroke="rgb(192,192,192)" paint-order="fill stroke markers" d="" stroke-opacity="0.23529411764705882" stroke-linecap="round" stroke-linejoin="round" stroke-miterlimit="10"/><path fill="none" stroke="rgb(192,192,192)" paint-order="fill stroke markers" d=" M 0.5 6.5 L 1280.5 6.5 M 0.5 6.5 L 1280.5 6.5 M 0.5 96.5 L 1280.5 96.5 M 0.5 186.5 L 1280.5 186.5 M 0.5 277.5 L 1280.5 277.5 M 0.5 367.5 L 1280.5 367.5 M 0.5 457.5 L 1280.5 457.5 M 0.5 547.5 L 1280.5 547.5 M 0.5 638.5 L 1280.5 638.5" stroke-opacity="1" stroke-linecap="round" stroke-linejoin="round" stroke-miterlimit="10"/><path fill="none" stroke="rgb(192,192,192)" paint-order="fill stroke markers" d="" stroke-opacity="0.23529411764705882" stroke-linecap="round" stroke-linejoin="round" stroke-miterlimit="10"/><path fill="none" stroke="rgb(96,96,96)" paint-order="fill stroke markers" d=" M 100.64283289878014 547.8095355592533 L 1002.9932782980759 547.8095355592533" stroke-opacity="0.6980392156862745" stroke-linecap="round" stroke-linejoin="round" stroke-miterlimit="10" stroke-width="3.5"/><path fill="none" stroke="rgb(96,96,96)" paint-order="fill stroke markers" d=" M 100.64283289878014 547.8095355592533 L 100.64283289878014 96.63431285960542" stroke-opacity="0.6980392156862745" stroke-linecap="round" stroke-linejoin="round" stroke-miterlimit="10" stroke-width="3.5"/><path fill="none" stroke="rgb(96,96,96)" paint-order="fill stroke markers" d=" M 551.818055598428 186.86935739953498 L 551.818055598428 277.10440193946454" stroke-opacity="0.6980392156862745" stroke-linejoin="round" stroke-miterlimit="10" stroke-width="4" stroke-dasharray="8,4"/><g transform="scale(27,27)"><g transform="translate(21.11111111111111,9.046296296296296)"><path fill="rgb(96,96,96)" stroke="none" paint-order="stroke fill markers" d=" M 0.264 -0.437 Q 0.213 -0.537 0.20600000000000002 -0.581 Q 0.20400000000000001 -0.595 0.20400000000000001 -0.608 Q 0.20400000000000001 -0.687 0.276 -0.706 Q 0.295 -0.711 0.318 -0.711 Q 0.34800000000000003 -0.711 0.4 -0.7000000000000001 Q 0.442 -0.6910000000000001 0.448 -0.681 Q 0.452 -0.676 0.452 -0.667 Q 0.452 -0.644 0.43 -0.632 Q 0.422 -0.627 0.41200000000000003 -0.627 Q 0.399 -0.627 0.357 -0.652 Q 0.316 -0.679 0.28600000000000003 -0.679 Q 0.247 -0.679 0.234 -0.649 Q 0.231 -0.641 0.231 -0.633 Q 0.231 -0.588 0.326 -0.46900000000000003 Q 0.374 -0.406 0.388 -0.364 Q 0.4 -0.326 0.4 -0.28300000000000003 Q 0.4 -0.169 0.34 -0.078 Q 0.281 0.012 0.2 0.012 Q 0.113 0.012 0.069 -0.058 Q 0.042 -0.1 0.042 -0.156 Q 0.042 -0.257 0.117 -0.34400000000000003 Q 0.18 -0.417 0.264 -0.437 M 0.276 -0.41500000000000004 Q 0.17200000000000001 -0.387 0.125 -0.245 Q 0.10400000000000001 -0.18 0.10400000000000001 -0.128 Q 0.10400000000000001 -0.044 0.161 -0.018000000000000002 Q 0.179 -0.01 0.2 -0.01 Q 0.268 -0.01 0.307 -0.11900000000000001 Q 0.331 -0.186 0.331 -0.243 Q 0.331 -0.313 0.28300000000000003 -0.403 Q 0.281 -0.406 0.276 -0.41500000000000004 Z"/></g><g transform="translate(21.55511111111111,9.196296296296296) scale(0.7,0.7)"><path fill="rgb(96,96,96)" stroke="none" paint-order="stroke fill markers" d=" M 0.28700000000000003 -0.683 L 0.183 -0.261 Q 0.226 -0.278 0.294 -0.354 Q 0.373 -0.442 0.44 -0.442 Q 0.488 -0.442 0.504 -0.402 Q 0.508 -0.391 0.508 -0.379 Q 0.508 -0.338 0.47400000000000003 -0.322 Q 0.463 -0.318 0.453 -0.318 Q 0.422 -0.318 0.41600000000000004 -0.34500000000000003 Q 0.41500000000000004 -0.34900000000000003 0.41500000000000004 -0.353 Q 0.41500000000000004 -0.381 0.44 -0.397 L 0.441 -0.398 L 0.441 -0.398 Q 0.454 -0.406 0.47200000000000003 -0.40700000000000003 L 0.468 -0.41100000000000003 Q 0.46 -0.417 0.447 -0.419 Q 0.445 -0.42 0.438 -0.42 Q 0.385 -0.42 0.309 -0.339 Q 0.305 -0.335 0.301 -0.33 L 0.295 -0.324 Q 0.243 -0.27 0.209 -0.25 Q 0.357 -0.231 0.357 -0.145 Q 0.357 -0.131 0.353 -0.114 Q 0.34500000000000003 -0.082 0.34500000000000003 -0.058 Q 0.34500000000000003 -0.011 0.377 -0.011 Q 0.423 -0.011 0.451 -0.094 Q 0.458 -0.111 0.464 -0.135 Q 0.47200000000000003 -0.152 0.47800000000000004 -0.153 Q 0.49 -0.153 0.49 -0.14300000000000002 Q 0.49 -0.127 0.47100000000000003 -0.078 Q 0.463 -0.058 0.454 -0.042 Q 0.422 0.011 0.375 0.011 Q 0.32 0.011 0.295 -0.037 Q 0.28300000000000003 -0.06 0.28300000000000003 -0.088 Q 0.28300000000000003 -0.099 0.28700000000000003 -0.123 Q 0.29 -0.133 0.29 -0.14400000000000002 Q 0.29 -0.20700000000000002 0.2 -0.225 Q 0.187 -0.228 0.17400000000000002 -0.229 Q 0.124 -0.021 0.11800000000000001 -0.01 Q 0.108 0.009000000000000001 0.084 0.011 Q 0.06 0.011 0.056 -0.01 Q 0.055 -0.014 0.055 -0.017 Q 0.055 -0.025 0.059000000000000004 -0.039 L 0.20400000000000001 -0.615 L 0.20700000000000002 -0.635 Q 0.20700000000000002 -0.646 0.193 -0.649 L 0.193 -0.649 Q 0.181 -0.652 0.157 -0.652 Q 0.135 -0.652 0.133 -0.664 Q 0.133 -0.681 0.152 -0.684 L 0.274 -0.6940000000000001 Q 0.28700000000000003 -0.6940000000000001 0.28700000000000003 -0.683 Z"/></g><g transform="translate(21.94151111111111,9.046296296296296)"><path fill="rgb(96,96,96)" stroke="none" paint-order="stroke fill markers" d=" M 0.331 0.24 L 0.331 0.24 Q 0.331 0.25 0.321 0.25 Q 0.309 0.25 0.268 0.209 Q 0.20600000000000002 0.147 0.165 0.062 Q 0.099 -0.074 0.099 -0.25 Q 0.099 -0.419 0.162 -0.555 Q 0.214 -0.666 0.294 -0.733 Q 0.315 -0.75 0.321 -0.75 Q 0.331 -0.75 0.331 -0.74 Q 0.331 -0.735 0.318 -0.723 Q 0.157 -0.559 0.157 -0.25 Q 0.157 0.058 0.314 0.218 Q 0.331 0.23500000000000001 0.331 0.24 Z"/></g><g transform="translate(22.33051111111111,9.046296296296296)"><path fill="rgb(96,96,96)" stroke="none" paint-order="stroke fill markers" d=" M 0.20600000000000002 -0.4 L 0.132 -0.105 Q 0.126 -0.08 0.126 -0.057 Q 0.126 -0.011 0.157 -0.011 Q 0.223 -0.011 0.273 -0.108 L 0.28700000000000003 -0.139 Q 0.293 -0.152 0.302 -0.153 Q 0.314 -0.153 0.314 -0.14300000000000002 Q 0.314 -0.13 0.28800000000000003 -0.08600000000000001 Q 0.23 0.011 0.155 0.011 Q 0.097 0.011 0.073 -0.037 Q 0.063 -0.057 0.063 -0.081 Q 0.063 -0.1 0.124 -0.34 L 0.139 -0.4 L 0.051000000000000004 -0.4 Q 0.026000000000000002 -0.4 0.024 -0.40800000000000003 L 0.023 -0.40800000000000003 L 0.023 -0.41200000000000003 Q 0.023 -0.429 0.039 -0.431 L 0.053 -0.431 L 0.147 -0.431 L 0.186 -0.59 Q 0.195 -0.625 0.226 -0.626 Q 0.252 -0.626 0.255 -0.599 Q 0.255 -0.593 0.214 -0.431 L 0.302 -0.431 Q 0.328 -0.431 0.33 -0.42 Q 0.33 -0.402 0.314 -0.4 L 0.313 -0.4 L 0.3 -0.4 L 0.20600000000000002 -0.4 Z"/></g><g transform="translate(22.69151111111111,9.196296296296296) scale(0.7,0.7)"><path fill="rgb(96,96,96)" stroke="none" paint-order="stroke fill markers" d=" M 0.028 -0.165 L 0.028 -0.196 L 0.335 -0.665 Q 0.343 -0.677 0.355 -0.677 Q 0.369 -0.677 0.371 -0.666 L 0.371 -0.651 L 0.371 -0.196 L 0.47100000000000003 -0.196 L 0.47100000000000003 -0.165 L 0.371 -0.165 L 0.371 -0.078 Q 0.371 -0.047 0.383 -0.04 Q 0.397 -0.031 0.447 -0.031 L 0.468 -0.031 L 0.468 0 Q 0.427 -0.003 0.332 -0.003 Q 0.23800000000000002 -0.003 0.197 0 L 0.197 -0.031 L 0.218 -0.031 Q 0.28 -0.031 0.29 -0.048 Q 0.294 -0.055 0.294 -0.078 L 0.294 -0.165 L 0.028 -0.165 M 0.3 -0.196 L 0.3 -0.5690000000000001 L 0.056 -0.196 L 0.3 -0.196 Z"/></g><g transform="translate(23.04151111111111,9.046296296296296)"><path fill="rgb(96,96,96)" stroke="none" paint-order="stroke fill markers" d=" M 0.203 -0.001 L 0.203 -0.001 Q 0.203 0.096 0.14 0.169 Q 0.123 0.189 0.112 0.193 Q 0.10200000000000001 0.193 0.10200000000000001 0.182 Q 0.10200000000000001 0.177 0.113 0.166 Q 0.17300000000000001 0.106 0.18 0.019 Q 0.181 0.009000000000000001 0.181 -0.001 Q 0.181 -0.016 0.179 -0.016 Q 0.178 -0.016 0.17400000000000002 -0.013000000000000001 Q 0.16 0 0.139 0 Q 0.10200000000000001 0 0.09 -0.034 Q 0.08600000000000001 -0.043000000000000003 0.08600000000000001 -0.053 Q 0.08600000000000001 -0.089 0.117 -0.10200000000000001 Q 0.127 -0.106 0.139 -0.106 Q 0.183 -0.106 0.198 -0.048 Q 0.203 -0.027 0.203 -0.001 Z"/></g><g transform="translate(23.486177777777776,9.046296296296296)"><path fill="rgb(96,96,96)" stroke="none" paint-order="stroke fill markers" d=" M 0.20600000000000002 -0.4 L 0.132 -0.105 Q 0.126 -0.08 0.126 -0.057 Q 0.126 -0.011 0.157 -0.011 Q 0.223 -0.011 0.273 -0.108 L 0.28700000000000003 -0.139 Q 0.293 -0.152 0.302 -0.153 Q 0.314 -0.153 0.314 -0.14300000000000002 Q 0.314 -0.13 0.28800000000000003 -0.08600000000000001 Q 0.23 0.011 0.155 0.011 Q 0.097 0.011 0.073 -0.037 Q 0.063 -0.057 0.063 -0.081 Q 0.063 -0.1 0.124 -0.34 L 0.139 -0.4 L 0.051000000000000004 -0.4 Q 0.026000000000000002 -0.4 0.024 -0.40800000000000003 L 0.023 -0.40800000000000003 L 0.023 -0.41200000000000003 Q 0.023 -0.429 0.039 -0.431 L 0.053 -0.431 L 0.147 -0.431 L 0.186 -0.59 Q 0.195 -0.625 0.226 -0.626 Q 0.252 -0.626 0.255 -0.599 Q 0.255 -0.593 0.214 -0.431 L 0.302 -0.431 Q 0.328 -0.431 0.33 -0.42 Q 0.33 -0.402 0.314 -0.4 L 0.313 -0.4 L 0.3 -0.4 L 0.20600000000000002 -0.4 Z"/></g><g transform="translate(23.847177777777777,9.196296296296296) scale(0.7,0.7)"><path fill="rgb(96,96,96)" stroke="none" paint-order="stroke fill markers" d=" M 0.449 -0.201 L 0.449 -0.201 Q 0.449 -0.098 0.372 -0.031 Q 0.31 0.022 0.231 0.022 Q 0.139 0.022 0.085 -0.055 Q 0.05 -0.10400000000000001 0.05 -0.161 Q 0.05 -0.20700000000000002 0.091 -0.213 Q 0.095 -0.214 0.099 -0.214 Q 0.136 -0.214 0.147 -0.181 Q 0.149 -0.17300000000000001 0.149 -0.165 Q 0.149 -0.133 0.121 -0.121 Q 0.111 -0.116 0.099 -0.116 Q 0.088 -0.116 0.082 -0.11800000000000001 Q 0.1 -0.055 0.159 -0.024 Q 0.192 -0.006 0.229 -0.006 Q 0.296 -0.006 0.336 -0.07100000000000001 Q 0.36 -0.113 0.36 -0.20800000000000002 Q 0.36 -0.292 0.342 -0.334 Q 0.314 -0.398 0.257 -0.398 Q 0.176 -0.398 0.128 -0.328 Q 0.122 -0.319 0.115 -0.319 Q 0.10200000000000001 -0.319 0.101 -0.333 L 0.101 -0.34500000000000003 L 0.101 -0.641 Q 0.101 -0.664 0.111 -0.665 Q 0.115 -0.665 0.123 -0.662 Q 0.186 -0.634 0.256 -0.634 Q 0.328 -0.634 0.392 -0.663 Q 0.397 -0.666 0.4 -0.666 Q 0.41000000000000003 -0.666 0.41000000000000003 -0.655 Q 0.41000000000000003 -0.642 0.378 -0.613 Q 0.31 -0.551 0.217 -0.551 Q 0.17500000000000002 -0.551 0.132 -0.5640000000000001 L 0.132 -0.369 Q 0.184 -0.42 0.259 -0.42 Q 0.34700000000000003 -0.42 0.404 -0.343 Q 0.449 -0.28200000000000003 0.449 -0.201 Z"/></g><g transform="translate(24.197177777777775,9.046296296296296)"><path fill="rgb(96,96,96)" stroke="none" paint-order="stroke fill markers" d=" M 0.289 -0.25 L 0.289 -0.25 Q 0.289 -0.081 0.226 0.055 Q 0.17400000000000002 0.166 0.094 0.233 Q 0.073 0.25 0.067 0.25 Q 0.057 0.25 0.057 0.24 Q 0.057 0.23500000000000001 0.07 0.223 Q 0.231 0.059000000000000004 0.231 -0.25 Q 0.231 -0.555 0.081 -0.712 L 0.076 -0.717 Q 0.057 -0.735 0.057 -0.74 Q 0.057 -0.75 0.067 -0.75 Q 0.079 -0.75 0.12 -0.709 Q 0.182 -0.647 0.223 -0.562 Q 0.289 -0.426 0.289 -0.25 Z"/></g></g><path fill="none" stroke="rgb(96,96,96)" paint-order="fill stroke markers" d=" M 461.5830110584984 277.10440193946454 L 551.818055598428 277.10440193946454" stroke-opacity="0.6980392156862745" stroke-linejoin="round" stroke-miterlimit="10" stroke-width="4" stroke-dasharray="8,4"/><g transform="scale(27,27)"><g transform="translate(17.85185185185185,11.787037037037036)"><path fill="rgb(96,96,96)" stroke="none" paint-order="stroke fill markers" d=" M 0.294 -0.373 L 0.227 -0.031 Q 0.219 0.007 0.195 0.011 Q 0.19 0.012 0.186 0.012 Q 0.16 0.012 0.157 -0.015 Q 0.157 -0.022 0.167 -0.052000000000000005 L 0.265 -0.373 L 0.182 -0.373 Q 0.10400000000000001 -0.373 0.055 -0.296 Q 0.046 -0.28400000000000003 0.039 -0.28400000000000003 Q 0.027 -0.28400000000000003 0.027 -0.294 Q 0.027 -0.305 0.063 -0.354 Q 0.076 -0.371 0.088 -0.384 Q 0.132 -0.431 0.191 -0.431 L 0.47100000000000003 -0.431 Q 0.505 -0.431 0.51 -0.41600000000000004 L 0.51 -0.41500000000000004 Q 0.511 -0.41200000000000003 0.511 -0.40700000000000003 Q 0.511 -0.373 0.462 -0.373 L 0.294 -0.373 Z"/></g><g transform="translate(18.401851851851852,11.787037037037036)"><path fill="rgb(96,96,96)" stroke="none" paint-order="stroke fill markers" d=" M 0.331 0.24 L 0.331 0.24 Q 0.331 0.25 0.321 0.25 Q 0.309 0.25 0.268 0.209 Q 0.20600000000000002 0.147 0.165 0.062 Q 0.099 -0.074 0.099 -0.25 Q 0.099 -0.419 0.162 -0.555 Q 0.214 -0.666 0.294 -0.733 Q 0.315 -0.75 0.321 -0.75 Q 0.331 -0.75 0.331 -0.74 Q 0.331 -0.735 0.318 -0.723 Q 0.157 -0.559 0.157 -0.25 Q 0.157 0.058 0.314 0.218 Q 0.331 0.23500000000000001 0.331 0.24 Z"/></g><g transform="translate(18.79085185185185,11.787037037037036)"><path fill="rgb(96,96,96)" stroke="none" paint-order="stroke fill markers" d=" M 0.20600000000000002 -0.4 L 0.132 -0.105 Q 0.126 -0.08 0.126 -0.057 Q 0.126 -0.011 0.157 -0.011 Q 0.223 -0.011 0.273 -0.108 L 0.28700000000000003 -0.139 Q 0.293 -0.152 0.302 -0.153 Q 0.314 -0.153 0.314 -0.14300000000000002 Q 0.314 -0.13 0.28800000000000003 -0.08600000000000001 Q 0.23 0.011 0.155 0.011 Q 0.097 0.011 0.073 -0.037 Q 0.063 -0.057 0.063 -0.081 Q 0.063 -0.1 0.124 -0.34 L 0.139 -0.4 L 0.051000000000000004 -0.4 Q 0.026000000000000002 -0.4 0.024 -0.40800000000000003 L 0.023 -0.40800000000000003 L 0.023 -0.41200000000000003 Q 0.023 -0.429 0.039 -0.431 L 0.053 -0.431 L 0.147 -0.431 L 0.186 -0.59 Q 0.195 -0.625 0.226 -0.626 Q 0.252 -0.626 0.255 -0.599 Q 0.255 -0.593 0.214 -0.431 L 0.302 -0.431 Q 0.328 -0.431 0.33 -0.42 Q 0.33 -0.402 0.314 -0.4 L 0.313 -0.4 L 0.3 -0.4 L 0.20600000000000002 -0.4 Z"/></g><g transform="translate(19.151851851851852,11.937037037037037) scale(0.7,0.7)"><path fill="rgb(96,96,96)" stroke="none" paint-order="stroke fill markers" d=" M 0.028 -0.165 L 0.028 -0.196 L 0.335 -0.665 Q 0.343 -0.677 0.355 -0.677 Q 0.369 -0.677 0.371 -0.666 L 0.371 -0.651 L 0.371 -0.196 L 0.47100000000000003 -0.196 L 0.47100000000000003 -0.165 L 0.371 -0.165 L 0.371 -0.078 Q 0.371 -0.047 0.383 -0.04 Q 0.397 -0.031 0.447 -0.031 L 0.468 -0.031 L 0.468 0 Q 0.427 -0.003 0.332 -0.003 Q 0.23800000000000002 -0.003 0.197 0 L 0.197 -0.031 L 0.218 -0.031 Q 0.28 -0.031 0.29 -0.048 Q 0.294 -0.055 0.294 -0.078 L 0.294 -0.165 L 0.028 -0.165 M 0.3 -0.196 L 0.3 -0.5690000000000001 L 0.056 -0.196 L 0.3 -0.196 Z"/></g><g transform="translate(19.50185185185185,11.787037037037036)"><path fill="rgb(96,96,96)" stroke="none" paint-order="stroke fill markers" d=" M 0.203 -0.001 L 0.203 -0.001 Q 0.203 0.096 0.14 0.169 Q 0.123 0.189 0.112 0.193 Q 0.10200000000000001 0.193 0.10200000000000001 0.182 Q 0.10200000000000001 0.177 0.113 0.166 Q 0.17300000000000001 0.106 0.18 0.019 Q 0.181 0.009000000000000001 0.181 -0.001 Q 0.181 -0.016 0.179 -0.016 Q 0.178 -0.016 0.17400000000000002 -0.013000000000000001 Q 0.16 0 0.139 0 Q 0.10200000000000001 0 0.09 -0.034 Q 0.08600000000000001 -0.043000000000000003 0.08600000000000001 -0.053 Q 0.08600000000000001 -0.089 0.117 -0.10200000000000001 Q 0.127 -0.106 0.139 -0.106 Q 0.183 -0.106 0.198 -0.048 Q 0.203 -0.027 0.203 -0.001 Z"/></g><g transform="translate(19.946518518518516,11.787037037037036)"><path fill="rgb(96,96,96)" stroke="none" paint-order="stroke fill markers" d=" M 0.20600000000000002 -0.4 L 0.132 -0.105 Q 0.126 -0.08 0.126 -0.057 Q 0.126 -0.011 0.157 -0.011 Q 0.223 -0.011 0.273 -0.108 L 0.28700000000000003 -0.139 Q 0.293 -0.152 0.302 -0.153 Q 0.314 -0.153 0.314 -0.14300000000000002 Q 0.314 -0.13 0.28800000000000003 -0.08600000000000001 Q 0.23 0.011 0.155 0.011 Q 0.097 0.011 0.073 -0.037 Q 0.063 -0.057 0.063 -0.081 Q 0.063 -0.1 0.124 -0.34 L 0.139 -0.4 L 0.051000000000000004 -0.4 Q 0.026000000000000002 -0.4 0.024 -0.40800000000000003 L 0.023 -0.40800000000000003 L 0.023 -0.41200000000000003 Q 0.023 -0.429 0.039 -0.431 L 0.053 -0.431 L 0.147 -0.431 L 0.186 -0.59 Q 0.195 -0.625 0.226 -0.626 Q 0.252 -0.626 0.255 -0.599 Q 0.255 -0.593 0.214 -0.431 L 0.302 -0.431 Q 0.328 -0.431 0.33 -0.42 Q 0.33 -0.402 0.314 -0.4 L 0.313 -0.4 L 0.3 -0.4 L 0.20600000000000002 -0.4 Z"/></g><g transform="translate(20.307518518518517,11.937037037037037) scale(0.7,0.7)"><path fill="rgb(96,96,96)" stroke="none" paint-order="stroke fill markers" d=" M 0.449 -0.201 L 0.449 -0.201 Q 0.449 -0.098 0.372 -0.031 Q 0.31 0.022 0.231 0.022 Q 0.139 0.022 0.085 -0.055 Q 0.05 -0.10400000000000001 0.05 -0.161 Q 0.05 -0.20700000000000002 0.091 -0.213 Q 0.095 -0.214 0.099 -0.214 Q 0.136 -0.214 0.147 -0.181 Q 0.149 -0.17300000000000001 0.149 -0.165 Q 0.149 -0.133 0.121 -0.121 Q 0.111 -0.116 0.099 -0.116 Q 0.088 -0.116 0.082 -0.11800000000000001 Q 0.1 -0.055 0.159 -0.024 Q 0.192 -0.006 0.229 -0.006 Q 0.296 -0.006 0.336 -0.07100000000000001 Q 0.36 -0.113 0.36 -0.20800000000000002 Q 0.36 -0.292 0.342 -0.334 Q 0.314 -0.398 0.257 -0.398 Q 0.176 -0.398 0.128 -0.328 Q 0.122 -0.319 0.115 -0.319 Q 0.10200000000000001 -0.319 0.101 -0.333 L 0.101 -0.34500000000000003 L 0.101 -0.641 Q 0.101 -0.664 0.111 -0.665 Q 0.115 -0.665 0.123 -0.662 Q 0.186 -0.634 0.256 -0.634 Q 0.328 -0.634 0.392 -0.663 Q 0.397 -0.666 0.4 -0.666 Q 0.41000000000000003 -0.666 0.41000000000000003 -0.655 Q 0.41000000000000003 -0.642 0.378 -0.613 Q 0.31 -0.551 0.217 -0.551 Q 0.17500000000000002 -0.551 0.132 -0.5640000000000001 L 0.132 -0.369 Q 0.184 -0.42 0.259 -0.42 Q 0.34700000000000003 -0.42 0.404 -0.343 Q 0.449 -0.28200000000000003 0.449 -0.201 Z"/></g><g transform="translate(20.657518518518515,11.787037037037036)"><path fill="rgb(96,96,96)" stroke="none" paint-order="stroke fill markers" d=" M 0.289 -0.25 L 0.289 -0.25 Q 0.289 -0.081 0.226 0.055 Q 0.17400000000000002 0.166 0.094 0.233 Q 0.073 0.25 0.067 0.25 Q 0.057 0.25 0.057 0.24 Q 0.057 0.23500000000000001 0.07 0.223 Q 0.231 0.059000000000000004 0.231 -0.25 Q 0.231 -0.555 0.081 -0.712 L 0.076 -0.717 Q 0.057 -0.735 0.057 -0.74 Q 0.057 -0.75 0.067 -0.75 Q 0.079 -0.75 0.12 -0.709 Q 0.182 -0.647 0.223 -0.562 Q 0.289 -0.426 0.289 -0.25 Z"/></g></g><path fill="none" stroke="rgb(0,0,0)" paint-order="fill stroke markers" d=" M 1009.9932782980759 547.8095355592533 L 999.4932782980759 553.8717133857443 L 999.4932782980759 541.7473577327622 L 1009.9932782980759 547.8095355592533 Z" stroke-opacity="1" stroke-linecap="square" stroke-miterlimit="10" stroke-width="3.5"/><path fill="rgb(0,0,0)" stroke="none" paint-order="stroke fill markers" fill-rule="evenodd" d=" M 1009.9932782980759 547.8095355592533 L 999.4932782980759 553.8717133857443 L 999.4932782980759 541.7473577327622 L 1009.9932782980759 547.8095355592533 Z" fill-opacity="1"/><g transform="scale(27,27)"><g transform="translate(37.629629629629626,21.42981481481481)"><path fill="rgb(0,0,0)" stroke="none" paint-order="stroke fill markers" d=" M 0.20600000000000002 -0.4 L 0.132 -0.105 Q 0.126 -0.08 0.126 -0.057 Q 0.126 -0.011 0.157 -0.011 Q 0.223 -0.011 0.273 -0.108 L 0.28700000000000003 -0.139 Q 0.293 -0.152 0.302 -0.153 Q 0.314 -0.153 0.314 -0.14300000000000002 Q 0.314 -0.13 0.28800000000000003 -0.08600000000000001 Q 0.23 0.011 0.155 0.011 Q 0.097 0.011 0.073 -0.037 Q 0.063 -0.057 0.063 -0.081 Q 0.063 -0.1 0.124 -0.34 L 0.139 -0.4 L 0.051000000000000004 -0.4 Q 0.026000000000000002 -0.4 0.024 -0.40800000000000003 L 0.023 -0.40800000000000003 L 0.023 -0.41200000000000003 Q 0.023 -0.429 0.039 -0.431 L 0.053 -0.431 L 0.147 -0.431 L 0.186 -0.59 Q 0.195 -0.625 0.226 -0.626 Q 0.252 -0.626 0.255 -0.599 Q 0.255 -0.593 0.214 -0.431 L 0.302 -0.431 Q 0.328 -0.431 0.33 -0.42 Q 0.33 -0.402 0.314 -0.4 L 0.313 -0.4 L 0.3 -0.4 L 0.20600000000000002 -0.4 Z"/></g></g><path fill="none" stroke="rgb(0,0,0)" paint-order="fill stroke markers" d=" M 100.64283289878014 89.63431285960542 L 106.70501072527121 100.13431285960542 L 94.58065507228908 100.13431285960542 L 100.64283289878014 89.63431285960542 Z" stroke-opacity="1" stroke-linecap="square" stroke-miterlimit="10" stroke-width="3.5"/><path fill="rgb(0,0,0)" stroke="none" paint-order="stroke fill markers" fill-rule="evenodd" d=" M 100.64283289878014 89.63431285960542 L 106.70501072527121 100.13431285960542 L 94.58065507228908 100.13431285960542 L 100.64283289878014 89.63431285960542 Z" fill-opacity="1"/><g transform="scale(27,27)"><g transform="translate(4.185185185185185,2.9124814814814814)"><path fill="rgb(0,0,0)" stroke="none" paint-order="stroke fill markers" d=" M 0.468 -0.372 Q 0.468 -0.317 0.438 -0.218 Q 0.38 -0.024 0.277 0.006 Q 0.261 0.011 0.243 0.011 Q 0.152 0.011 0.122 -0.052000000000000005 Q 0.109 -0.078 0.109 -0.113 Q 0.109 -0.165 0.155 -0.289 L 0.166 -0.318 Q 0.183 -0.362 0.183 -0.388 Q 0.183 -0.42 0.158 -0.42 Q 0.10400000000000001 -0.42 0.069 -0.331 Q 0.062 -0.315 0.057 -0.296 Q 0.046 -0.279 0.041 -0.278 Q 0.029 -0.278 0.029 -0.28800000000000003 Q 0.029 -0.306 0.051000000000000004 -0.35100000000000003 Q 0.094 -0.442 0.161 -0.442 Q 0.214 -0.442 0.23500000000000001 -0.397 Q 0.243 -0.38 0.243 -0.36 Q 0.243 -0.339 0.231 -0.31 Q 0.177 -0.166 0.17300000000000001 -0.111 L 0.17300000000000001 -0.098 Q 0.17300000000000001 -0.018000000000000002 0.23700000000000002 -0.011 L 0.247 -0.011 Q 0.328 -0.011 0.387 -0.147 Q 0.422 -0.227 0.425 -0.28200000000000003 Q 0.425 -0.332 0.391 -0.364 Q 0.375 -0.38 0.375 -0.394 Q 0.375 -0.419 0.401 -0.435 Q 0.41200000000000003 -0.442 0.424 -0.442 Q 0.453 -0.442 0.464 -0.405 Q 0.468 -0.391 0.468 -0.372 Z"/></g><g transform="translate(4.670185185185185,3.0624814814814814) scale(0.7,0.7)"><path fill="rgb(0,0,0)" stroke="none" paint-order="stroke fill markers" d=" M 0.28700000000000003 -0.683 L 0.183 -0.261 Q 0.226 -0.278 0.294 -0.354 Q 0.373 -0.442 0.44 -0.442 Q 0.488 -0.442 0.504 -0.402 Q 0.508 -0.391 0.508 -0.379 Q 0.508 -0.338 0.47400000000000003 -0.322 Q 0.463 -0.318 0.453 -0.318 Q 0.422 -0.318 0.41600000000000004 -0.34500000000000003 Q 0.41500000000000004 -0.34900000000000003 0.41500000000000004 -0.353 Q 0.41500000000000004 -0.381 0.44 -0.397 L 0.441 -0.398 L 0.441 -0.398 Q 0.454 -0.406 0.47200000000000003 -0.40700000000000003 L 0.468 -0.41100000000000003 Q 0.46 -0.417 0.447 -0.419 Q 0.445 -0.42 0.438 -0.42 Q 0.385 -0.42 0.309 -0.339 Q 0.305 -0.335 0.301 -0.33 L 0.295 -0.324 Q 0.243 -0.27 0.209 -0.25 Q 0.357 -0.231 0.357 -0.145 Q 0.357 -0.131 0.353 -0.114 Q 0.34500000000000003 -0.082 0.34500000000000003 -0.058 Q 0.34500000000000003 -0.011 0.377 -0.011 Q 0.423 -0.011 0.451 -0.094 Q 0.458 -0.111 0.464 -0.135 Q 0.47200000000000003 -0.152 0.47800000000000004 -0.153 Q 0.49 -0.153 0.49 -0.14300000000000002 Q 0.49 -0.127 0.47100000000000003 -0.078 Q 0.463 -0.058 0.454 -0.042 Q 0.422 0.011 0.375 0.011 Q 0.32 0.011 0.295 -0.037 Q 0.28300000000000003 -0.06 0.28300000000000003 -0.088 Q 0.28300000000000003 -0.099 0.28700000000000003 -0.123 Q 0.29 -0.133 0.29 -0.14400000000000002 Q 0.29 -0.20700000000000002 0.2 -0.225 Q 0.187 -0.228 0.17400000000000002 -0.229 Q 0.124 -0.021 0.11800000000000001 -0.01 Q 0.108 0.009000000000000001 0.084 0.011 Q 0.06 0.011 0.056 -0.01 Q 0.055 -0.014 0.055 -0.017 Q 0.055 -0.025 0.059000000000000004 -0.039 L 0.20400000000000001 -0.615 L 0.20700000000000002 -0.635 Q 0.20700000000000002 -0.646 0.193 -0.649 L 0.193 -0.649 Q 0.181 -0.652 0.157 -0.652 Q 0.135 -0.652 0.133 -0.664 Q 0.133 -0.681 0.152 -0.684 L 0.274 -0.6940000000000001 Q 0.28700000000000003 -0.6940000000000001 0.28700000000000003 -0.683 Z"/></g></g><path fill="rgb(0,0,0)" stroke="none" paint-order="stroke fill markers" d=" M 191.87787743870973 547.8095355592533 C 191.87787743870973 548.3618203090841 191.43016218854052 548.8095355592533 190.87787743870973 548.8095355592533 C 190.32559268887894 548.8095355592533 189.87787743870973 548.3618203090841 189.87787743870973 547.8095355592533 C 189.87787743870973 547.2572508094224 190.32559268887894 546.8095355592533 190.87787743870973 546.8095355592533 C 191.43016218854052 546.8095355592533 191.87787743870973 547.2572508094224 191.87787743870973 547.8095355592533 Z" fill-opacity="1"/><path fill="none" stroke="rgb(0,0,0)" paint-order="fill stroke markers" d=" M 191.87787743870973 547.8095355592533 C 191.87787743870973 548.3618203090841 191.43016218854052 548.8095355592533 190.87787743870973 548.8095355592533 C 190.32559268887894 548.8095355592533 189.87787743870973 548.3618203090841 189.87787743870973 547.8095355592533 C 189.87787743870973 547.2572508094224 190.32559268887894 546.8095355592533 190.87787743870973 546.8095355592533 C 191.43016218854052 546.8095355592533 191.87787743870973 547.2572508094224 191.87787743870973 547.8095355592533 Z" stroke-opacity="1" stroke-linecap="round" stroke-linejoin="round" stroke-miterlimit="10"/><g transform="scale(27,27)"><g transform="translate(6.851851851851852,21.800185185185185)"><path fill="rgb(0,0,0)" stroke="none" paint-order="stroke fill markers" d=" M 0.20600000000000002 -0.4 L 0.132 -0.105 Q 0.126 -0.08 0.126 -0.057 Q 0.126 -0.011 0.157 -0.011 Q 0.223 -0.011 0.273 -0.108 L 0.28700000000000003 -0.139 Q 0.293 -0.152 0.302 -0.153 Q 0.314 -0.153 0.314 -0.14300000000000002 Q 0.314 -0.13 0.28800000000000003 -0.08600000000000001 Q 0.23 0.011 0.155 0.011 Q 0.097 0.011 0.073 -0.037 Q 0.063 -0.057 0.063 -0.081 Q 0.063 -0.1 0.124 -0.34 L 0.139 -0.4 L 0.051000000000000004 -0.4 Q 0.026000000000000002 -0.4 0.024 -0.40800000000000003 L 0.023 -0.40800000000000003 L 0.023 -0.41200000000000003 Q 0.023 -0.429 0.039 -0.431 L 0.053 -0.431 L 0.147 -0.431 L 0.186 -0.59 Q 0.195 -0.625 0.226 -0.626 Q 0.252 -0.626 0.255 -0.599 Q 0.255 -0.593 0.214 -0.431 L 0.302 -0.431 Q 0.328 -0.431 0.33 -0.42 Q 0.33 -0.402 0.314 -0.4 L 0.313 -0.4 L 0.3 -0.4 L 0.20600000000000002 -0.4 Z"/></g><g transform="translate(7.212851851851852,21.950185185185184) scale(0.7,0.7)"><path fill="rgb(0,0,0)" stroke="none" paint-order="stroke fill markers" d=" M 0.294 -0.64 L 0.294 -0.079 Q 0.294 -0.049 0.306 -0.041 Q 0.323 -0.031 0.387 -0.031 L 0.419 -0.031 L 0.419 0 Q 0.384 -0.003 0.257 -0.003 Q 0.13 -0.003 0.095 0 L 0.095 -0.031 L 0.127 -0.031 Q 0.20400000000000001 -0.031 0.215 -0.049 L 0.216 -0.05 Q 0.22 -0.058 0.22 -0.079 L 0.22 -0.597 Q 0.168 -0.5710000000000001 0.089 -0.5710000000000001 L 0.089 -0.602 Q 0.209 -0.602 0.271 -0.666 Q 0.29 -0.666 0.293 -0.659 L 0.293 -0.659 L 0.293 -0.658 Q 0.294 -0.655 0.294 -0.64 Z"/></g></g><path fill="rgb(0,0,0)" stroke="none" paint-order="stroke fill markers" d=" M 282.1129219786393 547.8095355592533 C 282.1129219786393 548.3618203090841 281.6652067284701 548.8095355592533 281.1129219786393 548.8095355592533 C 280.5606372288085 548.8095355592533 280.1129219786393 548.3618203090841 280.1129219786393 547.8095355592533 C 280.1129219786393 547.2572508094224 280.5606372288085 546.8095355592533 281.1129219786393 546.8095355592533 C 281.6652067284701 546.8095355592533 282.1129219786393 547.2572508094224 282.1129219786393 547.8095355592533 Z" fill-opacity="1"/><path fill="none" stroke="rgb(0,0,0)" paint-order="fill stroke markers" d=" M 282.1129219786393 547.8095355592533 C 282.1129219786393 548.3618203090841 281.6652067284701 548.8095355592533 281.1129219786393 548.8095355592533 C 280.5606372288085 548.8095355592533 280.1129219786393 548.3618203090841 280.1129219786393 547.8095355592533 C 280.1129219786393 547.2572508094224 280.5606372288085 546.8095355592533 281.1129219786393 546.8095355592533 C 281.6652067284701 546.8095355592533 282.1129219786393 547.2572508094224 282.1129219786393 547.8095355592533 Z" stroke-opacity="1" stroke-linecap="round" stroke-linejoin="round" stroke-miterlimit="10"/><g transform="scale(27,27)"><g transform="translate(10.25925925925926,21.68907407407407)"><path fill="rgb(0,0,0)" stroke="none" paint-order="stroke fill markers" d=" M 0.20600000000000002 -0.4 L 0.132 -0.105 Q 0.126 -0.08 0.126 -0.057 Q 0.126 -0.011 0.157 -0.011 Q 0.223 -0.011 0.273 -0.108 L 0.28700000000000003 -0.139 Q 0.293 -0.152 0.302 -0.153 Q 0.314 -0.153 0.314 -0.14300000000000002 Q 0.314 -0.13 0.28800000000000003 -0.08600000000000001 Q 0.23 0.011 0.155 0.011 Q 0.097 0.011 0.073 -0.037 Q 0.063 -0.057 0.063 -0.081 Q 0.063 -0.1 0.124 -0.34 L 0.139 -0.4 L 0.051000000000000004 -0.4 Q 0.026000000000000002 -0.4 0.024 -0.40800000000000003 L 0.023 -0.40800000000000003 L 0.023 -0.41200000000000003 Q 0.023 -0.429 0.039 -0.431 L 0.053 -0.431 L 0.147 -0.431 L 0.186 -0.59 Q 0.195 -0.625 0.226 -0.626 Q 0.252 -0.626 0.255 -0.599 Q 0.255 -0.593 0.214 -0.431 L 0.302 -0.431 Q 0.328 -0.431 0.33 -0.42 Q 0.33 -0.402 0.314 -0.4 L 0.313 -0.4 L 0.3 -0.4 L 0.20600000000000002 -0.4 Z"/></g><g transform="translate(10.62025925925926,21.83907407407407) scale(0.7,0.7)"><path fill="rgb(0,0,0)" stroke="none" paint-order="stroke fill markers" d=" M 0.449 -0.17400000000000002 L 0.449 -0.17400000000000002 L 0.421 0 L 0.05 0 Q 0.05 -0.025 0.056 -0.032 L 0.061 -0.037 L 0.253 -0.251 Q 0.358 -0.369 0.358 -0.47200000000000003 Q 0.358 -0.561 0.304 -0.607 L 0.303 -0.608 L 0.302 -0.608 Q 0.27 -0.635 0.224 -0.635 Q 0.152 -0.635 0.109 -0.5730000000000001 Q 0.097 -0.555 0.089 -0.533 Q 0.092 -0.534 0.10200000000000001 -0.534 Q 0.14200000000000002 -0.534 0.153 -0.498 L 0.153 -0.497 Q 0.155 -0.49 0.155 -0.482 Q 0.155 -0.442 0.117 -0.431 Q 0.109 -0.429 0.10300000000000001 -0.429 Q 0.066 -0.429 0.054 -0.46 Q 0.05 -0.47100000000000003 0.05 -0.485 Q 0.05 -0.562 0.109 -0.617 Q 0.162 -0.666 0.23700000000000002 -0.666 Q 0.34700000000000003 -0.666 0.40800000000000003 -0.592 Q 0.443 -0.549 0.448 -0.49 Q 0.449 -0.481 0.449 -0.47200000000000003 Q 0.449 -0.399 0.394 -0.333 Q 0.365 -0.299 0.304 -0.243 L 0.243 -0.189 L 0.233 -0.18 L 0.127 -0.077 L 0.307 -0.077 Q 0.395 -0.077 0.402 -0.085 Q 0.41200000000000003 -0.099 0.424 -0.17400000000000002 L 0.449 -0.17400000000000002 Z"/></g></g><path fill="rgb(0,0,0)" stroke="none" paint-order="stroke fill markers" d=" M 372.3479665185689 547.8095355592533 C 372.3479665185689 548.3618203090841 371.9002512683997 548.8095355592533 371.3479665185689 548.8095355592533 C 370.7956817687381 548.8095355592533 370.3479665185689 548.3618203090841 370.3479665185689 547.8095355592533 C 370.3479665185689 547.2572508094224 370.7956817687381 546.8095355592533 371.3479665185689 546.8095355592533 C 371.9002512683997 546.8095355592533 372.3479665185689 547.2572508094224 372.3479665185689 547.8095355592533 Z" fill-opacity="1"/><path fill="none" stroke="rgb(0,0,0)" paint-order="fill stroke markers" d=" M 372.3479665185689 547.8095355592533 C 372.3479665185689 548.3618203090841 371.9002512683997 548.8095355592533 371.3479665185689 548.8095355592533 C 370.7956817687381 548.8095355592533 370.3479665185689 548.3618203090841 370.3479665185689 547.8095355592533 C 370.3479665185689 547.2572508094224 370.7956817687381 546.8095355592533 371.3479665185689 546.8095355592533 C 371.9002512683997 546.8095355592533 372.3479665185689 547.2572508094224 372.3479665185689 547.8095355592533 Z" stroke-opacity="1" stroke-linecap="round" stroke-linejoin="round" stroke-miterlimit="10"/><g transform="scale(27,27)"><g transform="translate(13.518518518518519,21.68907407407407)"><path fill="rgb(0,0,0)" stroke="none" paint-order="stroke fill markers" d=" M 0.20600000000000002 -0.4 L 0.132 -0.105 Q 0.126 -0.08 0.126 -0.057 Q 0.126 -0.011 0.157 -0.011 Q 0.223 -0.011 0.273 -0.108 L 0.28700000000000003 -0.139 Q 0.293 -0.152 0.302 -0.153 Q 0.314 -0.153 0.314 -0.14300000000000002 Q 0.314 -0.13 0.28800000000000003 -0.08600000000000001 Q 0.23 0.011 0.155 0.011 Q 0.097 0.011 0.073 -0.037 Q 0.063 -0.057 0.063 -0.081 Q 0.063 -0.1 0.124 -0.34 L 0.139 -0.4 L 0.051000000000000004 -0.4 Q 0.026000000000000002 -0.4 0.024 -0.40800000000000003 L 0.023 -0.40800000000000003 L 0.023 -0.41200000000000003 Q 0.023 -0.429 0.039 -0.431 L 0.053 -0.431 L 0.147 -0.431 L 0.186 -0.59 Q 0.195 -0.625 0.226 -0.626 Q 0.252 -0.626 0.255 -0.599 Q 0.255 -0.593 0.214 -0.431 L 0.302 -0.431 Q 0.328 -0.431 0.33 -0.42 Q 0.33 -0.402 0.314 -0.4 L 0.313 -0.4 L 0.3 -0.4 L 0.20600000000000002 -0.4 Z"/></g><g transform="translate(13.87951851851852,21.83907407407407) scale(0.7,0.7)"><path fill="rgb(0,0,0)" stroke="none" paint-order="stroke fill markers" d=" M 0.29 -0.352 L 0.29 -0.352 Q 0.39 -0.332 0.434 -0.254 Q 0.457 -0.215 0.457 -0.171 Q 0.457 -0.08600000000000001 0.387 -0.028 Q 0.326 0.022 0.244 0.022 Q 0.145 0.022 0.085 -0.037 Q 0.042 -0.079 0.042 -0.135 Q 0.042 -0.182 0.084 -0.191 Q 0.091 -0.193 0.098 -0.193 Q 0.136 -0.193 0.149 -0.161 Q 0.153 -0.148 0.154 -0.137 Q 0.154 -0.097 0.11800000000000001 -0.085 Q 0.10400000000000001 -0.08 0.088 -0.082 Q 0.125 -0.02 0.216 -0.008 Q 0.229 -0.006 0.241 -0.006 Q 0.305 -0.006 0.335 -0.069 Q 0.354 -0.109 0.354 -0.171 Q 0.354 -0.304 0.274 -0.331 Q 0.256 -0.337 0.23500000000000001 -0.337 L 0.191 -0.337 Q 0.169 -0.337 0.167 -0.34800000000000003 Q 0.167 -0.358 0.182 -0.36 Q 0.197 -0.36 0.221 -0.363 Q 0.272 -0.365 0.301 -0.402 L 0.301 -0.403 L 0.302 -0.404 L 0.303 -0.405 L 0.304 -0.405 L 0.31 -0.41500000000000004 Q 0.338 -0.462 0.338 -0.529 Q 0.338 -0.622 0.266 -0.638 Q 0.254 -0.641 0.242 -0.641 Q 0.17200000000000001 -0.641 0.128 -0.601 Q 0.117 -0.591 0.109 -0.579 Q 0.171 -0.579 0.171 -0.529 Q 0.171 -0.493 0.14 -0.481 Q 0.131 -0.47800000000000004 0.12 -0.47800000000000004 Q 0.081 -0.47800000000000004 0.07100000000000001 -0.513 L 0.07100000000000001 -0.513 L 0.07100000000000001 -0.514 Q 0.069 -0.522 0.069 -0.53 Q 0.069 -0.597 0.135 -0.637 Q 0.183 -0.666 0.246 -0.666 Q 0.337 -0.666 0.393 -0.612 L 0.395 -0.61 Q 0.43 -0.5740000000000001 0.43 -0.528 Q 0.43 -0.445 0.359 -0.389 Q 0.328 -0.365 0.29 -0.352 Z"/></g></g><path fill="rgb(0,0,0)" stroke="none" paint-order="stroke fill markers" d=" M 462.5830110584984 547.8095355592533 C 462.5830110584984 548.3618203090841 462.1352958083292 548.8095355592533 461.5830110584984 548.8095355592533 C 461.0307263086676 548.8095355592533 460.5830110584984 548.3618203090841 460.5830110584984 547.8095355592533 C 460.5830110584984 547.2572508094224 461.0307263086676 546.8095355592533 461.5830110584984 546.8095355592533 C 462.1352958083292 546.8095355592533 462.5830110584984 547.2572508094224 462.5830110584984 547.8095355592533 Z" fill-opacity="1"/><path fill="none" stroke="rgb(0,0,0)" paint-order="fill stroke markers" d=" M 462.5830110584984 547.8095355592533 C 462.5830110584984 548.3618203090841 462.1352958083292 548.8095355592533 461.5830110584984 548.8095355592533 C 461.0307263086676 548.8095355592533 460.5830110584984 548.3618203090841 460.5830110584984 547.8095355592533 C 460.5830110584984 547.2572508094224 461.0307263086676 546.8095355592533 461.5830110584984 546.8095355592533 C 462.1352958083292 546.8095355592533 462.5830110584984 547.2572508094224 462.5830110584984 547.8095355592533 Z" stroke-opacity="1" stroke-linecap="round" stroke-linejoin="round" stroke-miterlimit="10"/><g transform="scale(27,27)"><g transform="translate(16.925925925925927,21.652037037037037)"><path fill="rgb(0,0,0)" stroke="none" paint-order="stroke fill markers" d=" M 0.20600000000000002 -0.4 L 0.132 -0.105 Q 0.126 -0.08 0.126 -0.057 Q 0.126 -0.011 0.157 -0.011 Q 0.223 -0.011 0.273 -0.108 L 0.28700000000000003 -0.139 Q 0.293 -0.152 0.302 -0.153 Q 0.314 -0.153 0.314 -0.14300000000000002 Q 0.314 -0.13 0.28800000000000003 -0.08600000000000001 Q 0.23 0.011 0.155 0.011 Q 0.097 0.011 0.073 -0.037 Q 0.063 -0.057 0.063 -0.081 Q 0.063 -0.1 0.124 -0.34 L 0.139 -0.4 L 0.051000000000000004 -0.4 Q 0.026000000000000002 -0.4 0.024 -0.40800000000000003 L 0.023 -0.40800000000000003 L 0.023 -0.41200000000000003 Q 0.023 -0.429 0.039 -0.431 L 0.053 -0.431 L 0.147 -0.431 L 0.186 -0.59 Q 0.195 -0.625 0.226 -0.626 Q 0.252 -0.626 0.255 -0.599 Q 0.255 -0.593 0.214 -0.431 L 0.302 -0.431 Q 0.328 -0.431 0.33 -0.42 Q 0.33 -0.402 0.314 -0.4 L 0.313 -0.4 L 0.3 -0.4 L 0.20600000000000002 -0.4 Z"/></g><g transform="translate(17.286925925925928,21.802037037037035) scale(0.7,0.7)"><path fill="rgb(0,0,0)" stroke="none" paint-order="stroke fill markers" d=" M 0.028 -0.165 L 0.028 -0.196 L 0.335 -0.665 Q 0.343 -0.677 0.355 -0.677 Q 0.369 -0.677 0.371 -0.666 L 0.371 -0.651 L 0.371 -0.196 L 0.47100000000000003 -0.196 L 0.47100000000000003 -0.165 L 0.371 -0.165 L 0.371 -0.078 Q 0.371 -0.047 0.383 -0.04 Q 0.397 -0.031 0.447 -0.031 L 0.468 -0.031 L 0.468 0 Q 0.427 -0.003 0.332 -0.003 Q 0.23800000000000002 -0.003 0.197 0 L 0.197 -0.031 L 0.218 -0.031 Q 0.28 -0.031 0.29 -0.048 Q 0.294 -0.055 0.294 -0.078 L 0.294 -0.165 L 0.028 -0.165 M 0.3 -0.196 L 0.3 -0.5690000000000001 L 0.056 -0.196 L 0.3 -0.196 Z"/></g></g><path fill="rgb(0,0,0)" stroke="none" paint-order="stroke fill markers" d=" M 552.818055598428 547.8095355592533 C 552.818055598428 548.3618203090841 552.3703403482589 548.8095355592533 551.818055598428 548.8095355592533 C 551.2657708485972 548.8095355592533 550.818055598428 548.3618203090841 550.818055598428 547.8095355592533 C 550.818055598428 547.2572508094224 551.2657708485972 546.8095355592533 551.818055598428 546.8095355592533 C 552.3703403482589 546.8095355592533 552.818055598428 547.2572508094224 552.818055598428 547.8095355592533 Z" fill-opacity="1"/><path fill="none" stroke="rgb(0,0,0)" paint-order="fill stroke markers" d=" M 552.818055598428 547.8095355592533 C 552.818055598428 548.3618203090841 552.3703403482589 548.8095355592533 551.818055598428 548.8095355592533 C 551.2657708485972 548.8095355592533 550.818055598428 548.3618203090841 550.818055598428 547.8095355592533 C 550.818055598428 547.2572508094224 551.2657708485972 546.8095355592533 551.818055598428 546.8095355592533 C 552.3703403482589 546.8095355592533 552.818055598428 547.2572508094224 552.818055598428 547.8095355592533 Z" stroke-opacity="1" stroke-linecap="round" stroke-linejoin="round" stroke-miterlimit="10"/><g transform="scale(27,27)"><g transform="translate(20.14814814814815,21.72611111111111)"><path fill="rgb(0,0,0)" stroke="none" paint-order="stroke fill markers" d=" M 0.20600000000000002 -0.4 L 0.132 -0.105 Q 0.126 -0.08 0.126 -0.057 Q 0.126 -0.011 0.157 -0.011 Q 0.223 -0.011 0.273 -0.108 L 0.28700000000000003 -0.139 Q 0.293 -0.152 0.302 -0.153 Q 0.314 -0.153 0.314 -0.14300000000000002 Q 0.314 -0.13 0.28800000000000003 -0.08600000000000001 Q 0.23 0.011 0.155 0.011 Q 0.097 0.011 0.073 -0.037 Q 0.063 -0.057 0.063 -0.081 Q 0.063 -0.1 0.124 -0.34 L 0.139 -0.4 L 0.051000000000000004 -0.4 Q 0.026000000000000002 -0.4 0.024 -0.40800000000000003 L 0.023 -0.40800000000000003 L 0.023 -0.41200000000000003 Q 0.023 -0.429 0.039 -0.431 L 0.053 -0.431 L 0.147 -0.431 L 0.186 -0.59 Q 0.195 -0.625 0.226 -0.626 Q 0.252 -0.626 0.255 -0.599 Q 0.255 -0.593 0.214 -0.431 L 0.302 -0.431 Q 0.328 -0.431 0.33 -0.42 Q 0.33 -0.402 0.314 -0.4 L 0.313 -0.4 L 0.3 -0.4 L 0.20600000000000002 -0.4 Z"/></g><g transform="translate(20.50914814814815,21.876111111111108) scale(0.7,0.7)"><path fill="rgb(0,0,0)" stroke="none" paint-order="stroke fill markers" d=" M 0.449 -0.201 L 0.449 -0.201 Q 0.449 -0.098 0.372 -0.031 Q 0.31 0.022 0.231 0.022 Q 0.139 0.022 0.085 -0.055 Q 0.05 -0.10400000000000001 0.05 -0.161 Q 0.05 -0.20700000000000002 0.091 -0.213 Q 0.095 -0.214 0.099 -0.214 Q 0.136 -0.214 0.147 -0.181 Q 0.149 -0.17300000000000001 0.149 -0.165 Q 0.149 -0.133 0.121 -0.121 Q 0.111 -0.116 0.099 -0.116 Q 0.088 -0.116 0.082 -0.11800000000000001 Q 0.1 -0.055 0.159 -0.024 Q 0.192 -0.006 0.229 -0.006 Q 0.296 -0.006 0.336 -0.07100000000000001 Q 0.36 -0.113 0.36 -0.20800000000000002 Q 0.36 -0.292 0.342 -0.334 Q 0.314 -0.398 0.257 -0.398 Q 0.176 -0.398 0.128 -0.328 Q 0.122 -0.319 0.115 -0.319 Q 0.10200000000000001 -0.319 0.101 -0.333 L 0.101 -0.34500000000000003 L 0.101 -0.641 Q 0.101 -0.664 0.111 -0.665 Q 0.115 -0.665 0.123 -0.662 Q 0.186 -0.634 0.256 -0.634 Q 0.328 -0.634 0.392 -0.663 Q 0.397 -0.666 0.4 -0.666 Q 0.41000000000000003 -0.666 0.41000000000000003 -0.655 Q 0.41000000000000003 -0.642 0.378 -0.613 Q 0.31 -0.551 0.217 -0.551 Q 0.17500000000000002 -0.551 0.132 -0.5640000000000001 L 0.132 -0.369 Q 0.184 -0.42 0.259 -0.42 Q 0.34700000000000003 -0.42 0.404 -0.343 Q 0.449 -0.28200000000000003 0.449 -0.201 Z"/></g></g><path fill="rgb(0,0,0)" stroke="none" paint-order="stroke fill markers" d=" M 643.0531001383576 547.8095355592533 C 643.0531001383576 548.3618203090841 642.6053848881885 548.8095355592533 642.0531001383576 548.8095355592533 C 641.5008153885268 548.8095355592533 641.0531001383576 548.3618203090841 641.0531001383576 547.8095355592533 C 641.0531001383576 547.2572508094224 641.5008153885268 546.8095355592533 642.0531001383576 546.8095355592533 C 642.6053848881885 546.8095355592533 643.0531001383576 547.2572508094224 643.0531001383576 547.8095355592533 Z" fill-opacity="1"/><path fill="none" stroke="rgb(0,0,0)" paint-order="fill stroke markers" d=" M 643.0531001383576 547.8095355592533 C 643.0531001383576 548.3618203090841 642.6053848881885 548.8095355592533 642.0531001383576 548.8095355592533 C 641.5008153885268 548.8095355592533 641.0531001383576 548.3618203090841 641.0531001383576 547.8095355592533 C 641.0531001383576 547.2572508094224 641.5008153885268 546.8095355592533 642.0531001383576 546.8095355592533 C 642.6053848881885 546.8095355592533 643.0531001383576 547.2572508094224 643.0531001383576 547.8095355592533 Z" stroke-opacity="1" stroke-linecap="round" stroke-linejoin="round" stroke-miterlimit="10"/><g transform="scale(27,27)"><g transform="translate(23.51851851851852,21.72611111111111)"><path fill="rgb(0,0,0)" stroke="none" paint-order="stroke fill markers" d=" M 0.20600000000000002 -0.4 L 0.132 -0.105 Q 0.126 -0.08 0.126 -0.057 Q 0.126 -0.011 0.157 -0.011 Q 0.223 -0.011 0.273 -0.108 L 0.28700000000000003 -0.139 Q 0.293 -0.152 0.302 -0.153 Q 0.314 -0.153 0.314 -0.14300000000000002 Q 0.314 -0.13 0.28800000000000003 -0.08600000000000001 Q 0.23 0.011 0.155 0.011 Q 0.097 0.011 0.073 -0.037 Q 0.063 -0.057 0.063 -0.081 Q 0.063 -0.1 0.124 -0.34 L 0.139 -0.4 L 0.051000000000000004 -0.4 Q 0.026000000000000002 -0.4 0.024 -0.40800000000000003 L 0.023 -0.40800000000000003 L 0.023 -0.41200000000000003 Q 0.023 -0.429 0.039 -0.431 L 0.053 -0.431 L 0.147 -0.431 L 0.186 -0.59 Q 0.195 -0.625 0.226 -0.626 Q 0.252 -0.626 0.255 -0.599 Q 0.255 -0.593 0.214 -0.431 L 0.302 -0.431 Q 0.328 -0.431 0.33 -0.42 Q 0.33 -0.402 0.314 -0.4 L 0.313 -0.4 L 0.3 -0.4 L 0.20600000000000002 -0.4 Z"/></g><g transform="translate(23.87951851851852,21.876111111111108) scale(0.7,0.7)"><path fill="rgb(0,0,0)" stroke="none" paint-order="stroke fill markers" d=" M 0.132 -0.328 L 0.132 -0.328 Q 0.17300000000000001 -0.427 0.257 -0.427 Q 0.34900000000000003 -0.427 0.40800000000000003 -0.35100000000000003 Q 0.441 -0.31 0.452 -0.255 Q 0.457 -0.23 0.457 -0.20400000000000001 Q 0.457 -0.093 0.38 -0.026000000000000002 Q 0.324 0.022 0.251 0.022 Q 0.149 0.022 0.092 -0.075 Q 0.042 -0.162 0.042 -0.316 Q 0.042 -0.489 0.14 -0.591 Q 0.213 -0.666 0.305 -0.666 Q 0.392 -0.666 0.422 -0.605 Q 0.432 -0.584 0.432 -0.558 Q 0.432 -0.518 0.395 -0.511 Q 0.39 -0.51 0.386 -0.51 Q 0.354 -0.51 0.343 -0.538 Q 0.34 -0.546 0.34 -0.556 Q 0.34 -0.601 0.395 -0.601 Q 0.369 -0.641 0.307 -0.641 Q 0.23700000000000002 -0.641 0.189 -0.578 Q 0.132 -0.503 0.132 -0.352 L 0.132 -0.328 M 0.251 -0.006 L 0.251 -0.006 Q 0.318 -0.006 0.35000000000000003 -0.07100000000000001 Q 0.367 -0.107 0.367 -0.20500000000000002 Q 0.367 -0.305 0.34900000000000003 -0.342 Q 0.318 -0.404 0.256 -0.404 Q 0.177 -0.404 0.147 -0.31 Q 0.134 -0.271 0.134 -0.226 Q 0.134 -0.128 0.152 -0.081 Q 0.171 -0.035 0.211 -0.015 Q 0.23 -0.006 0.251 -0.006 Z"/></g></g><path fill="rgb(0,0,0)" stroke="none" paint-order="stroke fill markers" d=" M 733.2881446782872 547.8095355592533 C 733.2881446782872 548.3618203090841 732.840429428118 548.8095355592533 732.2881446782872 548.8095355592533 C 731.7358599284563 548.8095355592533 731.2881446782872 548.3618203090841 731.2881446782872 547.8095355592533 C 731.2881446782872 547.2572508094224 731.7358599284563 546.8095355592533 732.2881446782872 546.8095355592533 C 732.840429428118 546.8095355592533 733.2881446782872 547.2572508094224 733.2881446782872 547.8095355592533 Z" fill-opacity="1"/><path fill="none" stroke="rgb(0,0,0)" paint-order="fill stroke markers" d=" M 733.2881446782872 547.8095355592533 C 733.2881446782872 548.3618203090841 732.840429428118 548.8095355592533 732.2881446782872 548.8095355592533 C 731.7358599284563 548.8095355592533 731.2881446782872 548.3618203090841 731.2881446782872 547.8095355592533 C 731.2881446782872 547.2572508094224 731.7358599284563 546.8095355592533 732.2881446782872 546.8095355592533 C 732.840429428118 546.8095355592533 733.2881446782872 547.2572508094224 733.2881446782872 547.8095355592533 Z" stroke-opacity="1" stroke-linecap="round" stroke-linejoin="round" stroke-miterlimit="10"/><g transform="scale(27,27)"><g transform="translate(26.925925925925927,21.72611111111111)"><path fill="rgb(0,0,0)" stroke="none" paint-order="stroke fill markers" d=" M 0.20600000000000002 -0.4 L 0.132 -0.105 Q 0.126 -0.08 0.126 -0.057 Q 0.126 -0.011 0.157 -0.011 Q 0.223 -0.011 0.273 -0.108 L 0.28700000000000003 -0.139 Q 0.293 -0.152 0.302 -0.153 Q 0.314 -0.153 0.314 -0.14300000000000002 Q 0.314 -0.13 0.28800000000000003 -0.08600000000000001 Q 0.23 0.011 0.155 0.011 Q 0.097 0.011 0.073 -0.037 Q 0.063 -0.057 0.063 -0.081 Q 0.063 -0.1 0.124 -0.34 L 0.139 -0.4 L 0.051000000000000004 -0.4 Q 0.026000000000000002 -0.4 0.024 -0.40800000000000003 L 0.023 -0.40800000000000003 L 0.023 -0.41200000000000003 Q 0.023 -0.429 0.039 -0.431 L 0.053 -0.431 L 0.147 -0.431 L 0.186 -0.59 Q 0.195 -0.625 0.226 -0.626 Q 0.252 -0.626 0.255 -0.599 Q 0.255 -0.593 0.214 -0.431 L 0.302 -0.431 Q 0.328 -0.431 0.33 -0.42 Q 0.33 -0.402 0.314 -0.4 L 0.313 -0.4 L 0.3 -0.4 L 0.20600000000000002 -0.4 Z"/></g><g transform="translate(27.286925925925928,21.876111111111108) scale(0.7,0.7)"><path fill="rgb(0,0,0)" stroke="none" paint-order="stroke fill markers" d=" M 0.47600000000000003 -0.609 L 0.341 -0.419 Q 0.298 -0.359 0.279 -0.248 Q 0.268 -0.17400000000000002 0.268 -0.084 L 0.268 -0.033 Q 0.268 0.022 0.222 0.022 Q 0.176 0.022 0.176 -0.033 Q 0.176 -0.2 0.273 -0.368 L 0.299 -0.40900000000000003 L 0.41100000000000003 -0.5670000000000001 L 0.20400000000000001 -0.5670000000000001 Q 0.113 -0.5670000000000001 0.106 -0.561 Q 0.096 -0.552 0.081 -0.47000000000000003 L 0.056 -0.47000000000000003 L 0.089 -0.676 L 0.114 -0.676 Q 0.11800000000000001 -0.659 0.132 -0.653 L 0.133 -0.653 L 0.133 -0.653 Q 0.159 -0.644 0.242 -0.644 L 0.485 -0.644 Q 0.485 -0.621 0.47600000000000003 -0.609 Z"/></g></g><path fill="rgb(0,0,0)" stroke="none" paint-order="stroke fill markers" d=" M 823.5231892182168 547.8095355592533 C 823.5231892182168 548.3618203090841 823.0754739680476 548.8095355592533 822.5231892182168 548.8095355592533 C 821.9709044683859 548.8095355592533 821.5231892182168 548.3618203090841 821.5231892182168 547.8095355592533 C 821.5231892182168 547.2572508094224 821.9709044683859 546.8095355592533 822.5231892182168 546.8095355592533 C 823.0754739680476 546.8095355592533 823.5231892182168 547.2572508094224 823.5231892182168 547.8095355592533 Z" fill-opacity="1"/><path fill="none" stroke="rgb(0,0,0)" paint-order="fill stroke markers" d=" M 823.5231892182168 547.8095355592533 C 823.5231892182168 548.3618203090841 823.0754739680476 548.8095355592533 822.5231892182168 548.8095355592533 C 821.9709044683859 548.8095355592533 821.5231892182168 548.3618203090841 821.5231892182168 547.8095355592533 C 821.5231892182168 547.2572508094224 821.9709044683859 546.8095355592533 822.5231892182168 546.8095355592533 C 823.0754739680476 546.8095355592533 823.5231892182168 547.2572508094224 823.5231892182168 547.8095355592533 Z" stroke-opacity="1" stroke-linecap="round" stroke-linejoin="round" stroke-miterlimit="10"/><g transform="scale(27,27)"><g transform="translate(30.25925925925926,21.83722222222222)"><path fill="rgb(0,0,0)" stroke="none" paint-order="stroke fill markers" d=" M 0.20600000000000002 -0.4 L 0.132 -0.105 Q 0.126 -0.08 0.126 -0.057 Q 0.126 -0.011 0.157 -0.011 Q 0.223 -0.011 0.273 -0.108 L 0.28700000000000003 -0.139 Q 0.293 -0.152 0.302 -0.153 Q 0.314 -0.153 0.314 -0.14300000000000002 Q 0.314 -0.13 0.28800000000000003 -0.08600000000000001 Q 0.23 0.011 0.155 0.011 Q 0.097 0.011 0.073 -0.037 Q 0.063 -0.057 0.063 -0.081 Q 0.063 -0.1 0.124 -0.34 L 0.139 -0.4 L 0.051000000000000004 -0.4 Q 0.026000000000000002 -0.4 0.024 -0.40800000000000003 L 0.023 -0.40800000000000003 L 0.023 -0.41200000000000003 Q 0.023 -0.429 0.039 -0.431 L 0.053 -0.431 L 0.147 -0.431 L 0.186 -0.59 Q 0.195 -0.625 0.226 -0.626 Q 0.252 -0.626 0.255 -0.599 Q 0.255 -0.593 0.214 -0.431 L 0.302 -0.431 Q 0.328 -0.431 0.33 -0.42 Q 0.33 -0.402 0.314 -0.4 L 0.313 -0.4 L 0.3 -0.4 L 0.20600000000000002 -0.4 Z"/></g><g transform="translate(30.62025925925926,21.98722222222222) scale(0.7,0.7)"><path fill="rgb(0,0,0)" stroke="none" paint-order="stroke fill markers" d=" M 0.163 -0.457 L 0.28700000000000003 -0.377 Q 0.386 -0.435 0.386 -0.517 Q 0.386 -0.583 0.326 -0.62 Q 0.291 -0.641 0.249 -0.641 Q 0.177 -0.641 0.136 -0.596 L 0.136 -0.596 L 0.135 -0.595 Q 0.113 -0.5690000000000001 0.113 -0.538 Q 0.113 -0.49 0.163 -0.457 M 0.309 -0.362 L 0.309 -0.362 Q 0.386 -0.314 0.403 -0.296 Q 0.406 -0.294 0.40800000000000003 -0.291 Q 0.457 -0.23700000000000002 0.457 -0.168 Q 0.457 -0.079 0.383 -0.023 Q 0.325 0.022 0.249 0.022 Q 0.154 0.022 0.092 -0.037 Q 0.042 -0.085 0.042 -0.151 Q 0.042 -0.263 0.186 -0.335 Q 0.124 -0.377 0.113 -0.389 Q 0.069 -0.438 0.069 -0.499 Q 0.069 -0.579 0.136 -0.629 Q 0.186 -0.666 0.25 -0.666 Q 0.337 -0.666 0.391 -0.611 Q 0.43 -0.5710000000000001 0.43 -0.517 Q 0.43 -0.424 0.309 -0.362 M 0.209 -0.32 L 0.209 -0.32 Q 0.097 -0.25 0.092 -0.151 Q 0.092 -0.078 0.155 -0.035 Q 0.197 -0.006 0.25 -0.006 Q 0.328 -0.006 0.375 -0.055 Q 0.40700000000000003 -0.089 0.40700000000000003 -0.132 Q 0.40700000000000003 -0.19 0.343 -0.23500000000000001 Q 0.341 -0.23600000000000002 0.332 -0.242 L 0.209 -0.32 Z"/></g></g><path fill="rgb(0,0,0)" stroke="none" paint-order="stroke fill markers" d=" M 913.7582337581464 547.8095355592533 C 913.7582337581464 548.3618203090841 913.3105185079772 548.8095355592533 912.7582337581464 548.8095355592533 C 912.2059490083155 548.8095355592533 911.7582337581464 548.3618203090841 911.7582337581464 547.8095355592533 C 911.7582337581464 547.2572508094224 912.2059490083155 546.8095355592533 912.7582337581464 546.8095355592533 C 913.3105185079772 546.8095355592533 913.7582337581464 547.2572508094224 913.7582337581464 547.8095355592533 Z" fill-opacity="1"/><path fill="none" stroke="rgb(0,0,0)" paint-order="fill stroke markers" d=" M 913.7582337581464 547.8095355592533 C 913.7582337581464 548.3618203090841 913.3105185079772 548.8095355592533 912.7582337581464 548.8095355592533 C 912.2059490083155 548.8095355592533 911.7582337581464 548.3618203090841 911.7582337581464 547.8095355592533 C 911.7582337581464 547.2572508094224 912.2059490083155 546.8095355592533 912.7582337581464 546.8095355592533 C 913.3105185079772 546.8095355592533 913.7582337581464 547.2572508094224 913.7582337581464 547.8095355592533 Z" stroke-opacity="1" stroke-linecap="round" stroke-linejoin="round" stroke-miterlimit="10"/><g transform="scale(27,27)"><g transform="translate(33.55555555555556,21.83722222222222)"><path fill="rgb(0,0,0)" stroke="none" paint-order="stroke fill markers" d=" M 0.20600000000000002 -0.4 L 0.132 -0.105 Q 0.126 -0.08 0.126 -0.057 Q 0.126 -0.011 0.157 -0.011 Q 0.223 -0.011 0.273 -0.108 L 0.28700000000000003 -0.139 Q 0.293 -0.152 0.302 -0.153 Q 0.314 -0.153 0.314 -0.14300000000000002 Q 0.314 -0.13 0.28800000000000003 -0.08600000000000001 Q 0.23 0.011 0.155 0.011 Q 0.097 0.011 0.073 -0.037 Q 0.063 -0.057 0.063 -0.081 Q 0.063 -0.1 0.124 -0.34 L 0.139 -0.4 L 0.051000000000000004 -0.4 Q 0.026000000000000002 -0.4 0.024 -0.40800000000000003 L 0.023 -0.40800000000000003 L 0.023 -0.41200000000000003 Q 0.023 -0.429 0.039 -0.431 L 0.053 -0.431 L 0.147 -0.431 L 0.186 -0.59 Q 0.195 -0.625 0.226 -0.626 Q 0.252 -0.626 0.255 -0.599 Q 0.255 -0.593 0.214 -0.431 L 0.302 -0.431 Q 0.328 -0.431 0.33 -0.42 Q 0.33 -0.402 0.314 -0.4 L 0.313 -0.4 L 0.3 -0.4 L 0.20600000000000002 -0.4 Z"/></g><g transform="translate(33.916555555555554,21.98722222222222) scale(0.7,0.7)"><path fill="rgb(0,0,0)" stroke="none" paint-order="stroke fill markers" d=" M 0.367 -0.318 Q 0.327 -0.218 0.242 -0.218 Q 0.149 -0.218 0.09 -0.294 L 0.09 -0.295 Q 0.042 -0.357 0.042 -0.441 Q 0.042 -0.525 0.091 -0.586 L 0.106 -0.603 Q 0.166 -0.666 0.253 -0.666 Q 0.353 -0.666 0.40800000000000003 -0.5690000000000001 Q 0.457 -0.482 0.457 -0.329 Q 0.457 -0.158 0.365 -0.055 Q 0.296 0.022 0.20600000000000002 0.022 Q 0.108 0.022 0.077 -0.039 Q 0.067 -0.06 0.067 -0.08600000000000001 Q 0.067 -0.126 0.10400000000000001 -0.133 Q 0.109 -0.134 0.113 -0.134 Q 0.145 -0.134 0.156 -0.106 Q 0.159 -0.098 0.159 -0.088 Q 0.159 -0.048 0.11900000000000001 -0.043000000000000003 Q 0.113 -0.042 0.107 -0.042 Q 0.136 -0.006 0.20500000000000002 -0.006 Q 0.276 -0.006 0.321 -0.077 Q 0.367 -0.15 0.367 -0.28600000000000003 L 0.367 -0.318 M 0.243 -0.241 Q 0.321 -0.241 0.352 -0.333 Q 0.365 -0.374 0.365 -0.421 Q 0.365 -0.519 0.34900000000000003 -0.562 Q 0.323 -0.632 0.266 -0.64 Q 0.259 -0.641 0.253 -0.641 Q 0.187 -0.641 0.153 -0.578 Q 0.132 -0.541 0.132 -0.452 L 0.132 -0.44 Q 0.132 -0.341 0.15 -0.304 Q 0.181 -0.241 0.243 -0.241 Z"/></g></g><path fill="rgb(160,160,160)" stroke="none" paint-order="stroke fill markers" d=" M 197.87787743870973 547.8095355592533 C 197.87787743870973 551.6755288080689 194.7438706875253 554.8095355592533 190.87787743870973 554.8095355592533 C 187.01188418989418 554.8095355592533 183.87787743870973 551.6755288080689 183.87787743870973 547.8095355592533 C 183.87787743870973 543.9435423104377 187.01188418989418 540.8095355592533 190.87787743870973 540.8095355592533 C 194.7438706875253 540.8095355592533 197.87787743870973 543.9435423104377 197.87787743870973 547.8095355592533 Z" fill-opacity="1"/><path fill="none" stroke="rgb(0,0,0)" paint-order="fill stroke markers" d=" M 197.87787743870973 547.8095355592533 C 197.87787743870973 551.6755288080689 194.7438706875253 554.8095355592533 190.87787743870973 554.8095355592533 C 187.01188418989418 554.8095355592533 183.87787743870973 551.6755288080689 183.87787743870973 547.8095355592533 C 183.87787743870973 543.9435423104377 187.01188418989418 540.8095355592533 190.87787743870973 540.8095355592533 C 194.7438706875253 540.8095355592533 197.87787743870973 543.9435423104377 197.87787743870973 547.8095355592533 Z" stroke-opacity="1" stroke-linecap="round" stroke-linejoin="round" stroke-miterlimit="10"/><path fill="rgb(160,160,160)" stroke="none" paint-order="stroke fill markers" d=" M 288.1129219786393 547.8095355592533 C 288.1129219786393 551.6755288080689 284.9789152274548 554.8095355592533 281.1129219786393 554.8095355592533 C 277.24692872982376 554.8095355592533 274.1129219786393 551.6755288080689 274.1129219786393 547.8095355592533 C 274.1129219786393 543.9435423104377 277.24692872982376 540.8095355592533 281.1129219786393 540.8095355592533 C 284.9789152274548 540.8095355592533 288.1129219786393 543.9435423104377 288.1129219786393 547.8095355592533 Z" fill-opacity="1"/><path fill="none" stroke="rgb(0,0,0)" paint-order="fill stroke markers" d=" M 288.1129219786393 547.8095355592533 C 288.1129219786393 551.6755288080689 284.9789152274548 554.8095355592533 281.1129219786393 554.8095355592533 C 277.24692872982376 554.8095355592533 274.1129219786393 551.6755288080689 274.1129219786393 547.8095355592533 C 274.1129219786393 543.9435423104377 277.24692872982376 540.8095355592533 281.1129219786393 540.8095355592533 C 284.9789152274548 540.8095355592533 288.1129219786393 543.9435423104377 288.1129219786393 547.8095355592533 Z" stroke-opacity="1" stroke-linecap="round" stroke-linejoin="round" stroke-miterlimit="10"/><path fill="rgb(0,0,0)" stroke="none" paint-order="stroke fill markers" d=" M 378.3479665185689 457.5744910193237 C 378.3479665185689 461.44048426813924 375.21395976738444 464.5744910193237 371.3479665185689 464.5744910193237 C 367.4819732697534 464.5744910193237 364.3479665185689 461.44048426813924 364.3479665185689 457.5744910193237 C 364.3479665185689 453.7084977705082 367.4819732697534 450.5744910193237 371.3479665185689 450.5744910193237 C 375.21395976738444 450.5744910193237 378.3479665185689 453.7084977705082 378.3479665185689 457.5744910193237 Z" fill-opacity="1"/><path fill="none" stroke="rgb(0,0,0)" paint-order="fill stroke markers" d=" M 378.3479665185689 457.5744910193237 C 378.3479665185689 461.44048426813924 375.21395976738444 464.5744910193237 371.3479665185689 464.5744910193237 C 367.4819732697534 464.5744910193237 364.3479665185689 461.44048426813924 364.3479665185689 457.5744910193237 C 364.3479665185689 453.7084977705082 367.4819732697534 450.5744910193237 371.3479665185689 450.5744910193237 C 375.21395976738444 450.5744910193237 378.3479665185689 453.7084977705082 378.3479665185689 457.5744910193237 Z" stroke-opacity="1" stroke-linecap="round" stroke-linejoin="round" stroke-miterlimit="10"/><path fill="rgb(0,0,0)" stroke="none" paint-order="stroke fill markers" d=" M 468.5830110584984 277.10440193946454 C 468.5830110584984 280.97039518828007 465.44900430731394 284.10440193946454 461.5830110584984 284.10440193946454 C 457.7170178096829 284.10440193946454 454.5830110584984 280.97039518828007 454.5830110584984 277.10440193946454 C 454.5830110584984 273.238408690649 457.7170178096829 270.10440193946454 461.5830110584984 270.10440193946454 C 465.44900430731394 270.10440193946454 468.5830110584984 273.238408690649 468.5830110584984 277.10440193946454 Z" fill-opacity="1"/><path fill="none" stroke="rgb(0,0,0)" paint-order="fill stroke markers" d=" M 468.5830110584984 277.10440193946454 C 468.5830110584984 280.97039518828007 465.44900430731394 284.10440193946454 461.5830110584984 284.10440193946454 C 457.7170178096829 284.10440193946454 454.5830110584984 280.97039518828007 454.5830110584984 277.10440193946454 C 454.5830110584984 273.238408690649 457.7170178096829 270.10440193946454 461.5830110584984 270.10440193946454 C 465.44900430731394 270.10440193946454 468.5830110584984 273.238408690649 468.5830110584984 277.10440193946454 Z" stroke-opacity="1" stroke-linecap="round" stroke-linejoin="round" stroke-miterlimit="10"/><path fill="rgb(0,0,0)" stroke="none" paint-order="stroke fill markers" d=" M 558.818055598428 186.86935739953498 C 558.818055598428 190.73535064835053 555.6840488472436 193.86935739953498 551.818055598428 193.86935739953498 C 547.9520623496124 193.86935739953498 544.818055598428 190.73535064835053 544.818055598428 186.86935739953498 C 544.818055598428 183.00336415071942 547.9520623496124 179.86935739953498 551.818055598428 179.86935739953498 C 555.6840488472436 179.86935739953498 558.818055598428 183.00336415071942 558.818055598428 186.86935739953498 Z" fill-opacity="1"/><path fill="none" stroke="rgb(0,0,0)" paint-order="fill stroke markers" d=" M 558.818055598428 186.86935739953498 C 558.818055598428 190.73535064835053 555.6840488472436 193.86935739953498 551.818055598428 193.86935739953498 C 547.9520623496124 193.86935739953498 544.818055598428 190.73535064835053 544.818055598428 186.86935739953498 C 544.818055598428 183.00336415071942 547.9520623496124 179.86935739953498 551.818055598428 179.86935739953498 C 555.6840488472436 179.86935739953498 558.818055598428 183.00336415071942 558.818055598428 186.86935739953498 Z" stroke-opacity="1" stroke-linecap="round" stroke-linejoin="round" stroke-miterlimit="10"/><path fill="rgb(0,0,0)" stroke="none" paint-order="stroke fill markers" d=" M 649.0531001383576 186.86935739953498 C 649.0531001383576 190.73535064835053 645.9190933871732 193.86935739953498 642.0531001383576 193.86935739953498 C 638.1871068895421 193.86935739953498 635.0531001383576 190.73535064835053 635.0531001383576 186.86935739953498 C 635.0531001383576 183.00336415071942 638.1871068895421 179.86935739953498 642.0531001383576 179.86935739953498 C 645.9190933871732 179.86935739953498 649.0531001383576 183.00336415071942 649.0531001383576 186.86935739953498 Z" fill-opacity="1"/><path fill="none" stroke="rgb(0,0,0)" paint-order="fill stroke markers" d=" M 649.0531001383576 186.86935739953498 C 649.0531001383576 190.73535064835053 645.9190933871732 193.86935739953498 642.0531001383576 193.86935739953498 C 638.1871068895421 193.86935739953498 635.0531001383576 190.73535064835053 635.0531001383576 186.86935739953498 C 635.0531001383576 183.00336415071942 638.1871068895421 179.86935739953498 642.0531001383576 179.86935739953498 C 645.9190933871732 179.86935739953498 649.0531001383576 183.00336415071942 649.0531001383576 186.86935739953498 Z" stroke-opacity="1" stroke-linecap="round" stroke-linejoin="round" stroke-miterlimit="10"/><path fill="rgb(0,0,0)" stroke="none" paint-order="stroke fill markers" d=" M 739.2881446782872 186.86935739953498 C 739.2881446782872 190.73535064835053 736.1541379271027 193.86935739953498 732.2881446782872 193.86935739953498 C 728.4221514294716 193.86935739953498 725.2881446782872 190.73535064835053 725.2881446782872 186.86935739953498 C 725.2881446782872 183.00336415071942 728.4221514294716 179.86935739953498 732.2881446782872 179.86935739953498 C 736.1541379271027 179.86935739953498 739.2881446782872 183.00336415071942 739.2881446782872 186.86935739953498 Z" fill-opacity="1"/><path fill="none" stroke="rgb(0,0,0)" paint-order="fill stroke markers" d=" M 739.2881446782872 186.86935739953498 C 739.2881446782872 190.73535064835053 736.1541379271027 193.86935739953498 732.2881446782872 193.86935739953498 C 728.4221514294716 193.86935739953498 725.2881446782872 190.73535064835053 725.2881446782872 186.86935739953498 C 725.2881446782872 183.00336415071942 728.4221514294716 179.86935739953498 732.2881446782872 179.86935739953498 C 736.1541379271027 179.86935739953498 739.2881446782872 183.00336415071942 739.2881446782872 186.86935739953498 Z" stroke-opacity="1" stroke-linecap="round" stroke-linejoin="round" stroke-miterlimit="10"/><path fill="rgb(160,160,160)" stroke="none" paint-order="stroke fill markers" d=" M 829.5231892182168 547.8095355592533 C 829.5231892182168 551.6755288080689 826.3891824670324 554.8095355592533 822.5231892182168 554.8095355592533 C 818.6571959694012 554.8095355592533 815.5231892182168 551.6755288080689 815.5231892182168 547.8095355592533 C 815.5231892182168 543.9435423104377 818.6571959694012 540.8095355592533 822.5231892182168 540.8095355592533 C 826.3891824670324 540.8095355592533 829.5231892182168 543.9435423104377 829.5231892182168 547.8095355592533 Z" fill-opacity="1"/><path fill="none" stroke="rgb(0,0,0)" paint-order="fill stroke markers" d=" M 829.5231892182168 547.8095355592533 C 829.5231892182168 551.6755288080689 826.3891824670324 554.8095355592533 822.5231892182168 554.8095355592533 C 818.6571959694012 554.8095355592533 815.5231892182168 551.6755288080689 815.5231892182168 547.8095355592533 C 815.5231892182168 543.9435423104377 818.6571959694012 540.8095355592533 822.5231892182168 540.8095355592533 C 826.3891824670324 540.8095355592533 829.5231892182168 543.9435423104377 829.5231892182168 547.8095355592533 Z" stroke-opacity="1" stroke-linecap="round" stroke-linejoin="round" stroke-miterlimit="10"/><path fill="rgb(160,160,160)" stroke="none" paint-order="stroke fill markers" d=" M 919.7582337581464 547.8095355592533 C 919.7582337581464 551.6755288080689 916.624227006962 554.8095355592533 912.7582337581464 554.8095355592533 C 908.8922405093308 554.8095355592533 905.7582337581464 551.6755288080689 905.7582337581464 547.8095355592533 C 905.7582337581464 543.9435423104377 908.8922405093308 540.8095355592533 912.7582337581464 540.8095355592533 C 916.624227006962 540.8095355592533 919.7582337581464 543.9435423104377 919.7582337581464 547.8095355592533 Z" fill-opacity="1"/><path fill="none" stroke="rgb(0,0,0)" paint-order="fill stroke markers" d=" M 919.7582337581464 547.8095355592533 C 919.7582337581464 551.6755288080689 916.624227006962 554.8095355592533 912.7582337581464 554.8095355592533 C 908.8922405093308 554.8095355592533 905.7582337581464 551.6755288080689 905.7582337581464 547.8095355592533 C 905.7582337581464 543.9435423104377 908.8922405093308 540.8095355592533 912.7582337581464 540.8095355592533 C 916.624227006962 540.8095355592533 919.7582337581464 543.9435423104377 919.7582337581464 547.8095355592533 Z" stroke-opacity="1" stroke-linecap="round" stroke-linejoin="round" stroke-miterlimit="10"/><path fill="rgb(128,128,128)" stroke="none" paint-order="stroke fill markers" d=" M 555.818055598428 277.10440193946454 C 555.818055598428 279.3135409387877 554.0271945977512 281.10440193946454 551.818055598428 281.10440193946454 C 549.6089165991049 281.10440193946454 547.818055598428 279.3135409387877 547.818055598428 277.10440193946454 C 547.818055598428 274.8952629401414 549.6089165991049 273.10440193946454 551.818055598428 273.10440193946454 C 554.0271945977512 273.10440193946454 555.818055598428 274.8952629401414 555.818055598428 277.10440193946454 Z" fill-opacity="1"/><path fill="rgb(0,0,0)" stroke="none" paint-order="stroke fill markers" d=" M 1100.2283228380054 186.86935739953498 C 1100.2283228380054 190.73535064835053 1097.094316086821 193.86935739953498 1093.2283228380054 193.86935739953498 C 1089.3623295891898 193.86935739953498 1086.2283228380054 190.73535064835053 1086.2283228380054 186.86935739953498 C 1086.2283228380054 183.00336415071942 1089.3623295891898 179.86935739953498 1093.2283228380054 179.86935739953498 C 1097.094316086821 179.86935739953498 1100.2283228380054 183.00336415071942 1100.2283228380054 186.86935739953498 Z" fill-opacity="1"/><path fill="none" stroke="rgb(0,0,0)" paint-order="fill stroke markers" d=" M 1100.2283228380054 186.86935739953498 C 1100.2283228380054 190.73535064835053 1097.094316086821 193.86935739953498 1093.2283228380054 193.86935739953498 C 1089.3623295891898 193.86935739953498 1086.2283228380054 190.73535064835053 1086.2283228380054 186.86935739953498 C 1086.2283228380054 183.00336415071942 1089.3623295891898 179.86935739953498 1093.2283228380054 179.86935739953498 C 1097.094316086821 179.86935739953498 1100.2283228380054 183.00336415071942 1100.2283228380054 186.86935739953498 Z" stroke-opacity="1" stroke-linecap="round" stroke-linejoin="round" stroke-miterlimit="10"/><g transform="scale(27,27)"><g transform="translate(41.333333333333336,7.157407407407407)"><path fill="rgb(0,0,0)" stroke="none" paint-order="stroke fill markers" d=" M 0.28700000000000003 -0.683 L 0.183 -0.261 Q 0.226 -0.278 0.294 -0.354 Q 0.373 -0.442 0.44 -0.442 Q 0.488 -0.442 0.504 -0.402 Q 0.508 -0.391 0.508 -0.379 Q 0.508 -0.338 0.47400000000000003 -0.322 Q 0.463 -0.318 0.453 -0.318 Q 0.422 -0.318 0.41600000000000004 -0.34500000000000003 Q 0.41500000000000004 -0.34900000000000003 0.41500000000000004 -0.353 Q 0.41500000000000004 -0.381 0.44 -0.397 L 0.441 -0.398 L 0.441 -0.398 Q 0.454 -0.406 0.47200000000000003 -0.40700000000000003 L 0.468 -0.41100000000000003 Q 0.46 -0.417 0.447 -0.419 Q 0.445 -0.42 0.438 -0.42 Q 0.385 -0.42 0.309 -0.339 Q 0.305 -0.335 0.301 -0.33 L 0.295 -0.324 Q 0.243 -0.27 0.209 -0.25 Q 0.357 -0.231 0.357 -0.145 Q 0.357 -0.131 0.353 -0.114 Q 0.34500000000000003 -0.082 0.34500000000000003 -0.058 Q 0.34500000000000003 -0.011 0.377 -0.011 Q 0.423 -0.011 0.451 -0.094 Q 0.458 -0.111 0.464 -0.135 Q 0.47200000000000003 -0.152 0.47800000000000004 -0.153 Q 0.49 -0.153 0.49 -0.14300000000000002 Q 0.49 -0.127 0.47100000000000003 -0.078 Q 0.463 -0.058 0.454 -0.042 Q 0.422 0.011 0.375 0.011 Q 0.32 0.011 0.295 -0.037 Q 0.28300000000000003 -0.06 0.28300000000000003 -0.088 Q 0.28300000000000003 -0.099 0.28700000000000003 -0.123 Q 0.29 -0.133 0.29 -0.14400000000000002 Q 0.29 -0.20700000000000002 0.2 -0.225 Q 0.187 -0.228 0.17400000000000002 -0.229 Q 0.124 -0.021 0.11800000000000001 -0.01 Q 0.108 0.009000000000000001 0.084 0.011 Q 0.06 0.011 0.056 -0.01 Q 0.055 -0.014 0.055 -0.017 Q 0.055 -0.025 0.059000000000000004 -0.039 L 0.20400000000000001 -0.615 L 0.20700000000000002 -0.635 Q 0.20700000000000002 -0.646 0.193 -0.649 L 0.193 -0.649 Q 0.181 -0.652 0.157 -0.652 Q 0.135 -0.652 0.133 -0.664 Q 0.133 -0.681 0.152 -0.684 L 0.274 -0.6940000000000001 Q 0.28700000000000003 -0.6940000000000001 0.28700000000000003 -0.683 Z"/></g><g transform="translate(42.163111111111114,7.157407407407407)"><path fill="rgb(0,0,0)" stroke="none" paint-order="stroke fill markers" d=" M 0.55 -0.23 L 0.55 -0.23 L 0.124 -0.23 Q 0.134 -0.11800000000000001 0.226 -0.052000000000000005 Q 0.297 0 0.391 0 L 0.55 0 Q 0.582 0 0.583 0.02 Q 0.583 0.04 0.55 0.04 L 0.388 0.04 Q 0.262 0.04 0.17300000000000001 -0.044 Q 0.083 -0.129 0.083 -0.25 Q 0.083 -0.377 0.179 -0.462 Q 0.268 -0.54 0.387 -0.54 L 0.55 -0.54 Q 0.582 -0.54 0.583 -0.52 Q 0.583 -0.5 0.55 -0.5 L 0.39 -0.5 Q 0.273 -0.5 0.195 -0.422 Q 0.132 -0.359 0.124 -0.27 L 0.55 -0.27 Q 0.582 -0.27 0.583 -0.25 Q 0.583 -0.23 0.55 -0.23 Z"/></g><g transform="translate(43.107888888888894,7.157407407407407)"><path fill="rgb(0,0,0)" stroke="none" paint-order="stroke fill markers" d=" M 0.509 -0.404 L 0.509 -0.404 L 0.651 -0.076 Q 0.666 -0.042 0.6880000000000001 -0.035 L 0.6890000000000001 -0.035 L 0.6900000000000001 -0.035 L 0.6900000000000001 -0.035 Q 0.7010000000000001 -0.031 0.72 -0.031 Q 0.74 -0.031 0.74 -0.02 Q 0.74 0 0.722 0 L 0.625 -0.003 L 0.624 -0.003 L 0.505 0 L 0.502 0 Q 0.488 0 0.488 -0.011 Q 0.494 -0.03 0.51 -0.031 Q 0.562 -0.031 0.562 -0.062 Q 0.562 -0.07 0.55 -0.097 L 0.434 -0.366 L 0.28500000000000003 -0.25 Q 0.256 -0.132 0.245 -0.093 Q 0.23600000000000002 -0.048 0.23600000000000002 -0.049 Q 0.23600000000000002 -0.032 0.28200000000000003 -0.031 L 0.28200000000000003 -0.031 L 0.28200000000000003 -0.031 L 0.301 -0.031 Q 0.327 -0.031 0.329 -0.02 Q 0.329 0 0.309 0 L 0.245 -0.002 L 0.244 -0.002 L 0.182 -0.003 L 0.18 -0.003 L 0.054 0 L 0.053 0 Q 0.038 0 0.038 -0.012 Q 0.038 -0.029 0.054 -0.031 L 0.066 -0.031 Q 0.131 -0.031 0.14400000000000002 -0.045 Q 0.15 -0.052000000000000005 0.156 -0.073 Q 0.156 -0.074 0.157 -0.078 L 0.291 -0.615 Q 0.295 -0.631 0.295 -0.634 Q 0.295 -0.646 0.279 -0.649 L 0.278 -0.649 L 0.278 -0.649 Q 0.276 -0.65 0.273 -0.65 Q 0.249 -0.652 0.23 -0.652 Q 0.20400000000000001 -0.652 0.202 -0.66 Q 0.201 -0.662 0.201 -0.664 Q 0.201 -0.683 0.221 -0.683 L 0.34900000000000003 -0.68 L 0.35000000000000003 -0.68 L 0.47700000000000004 -0.683 L 0.47800000000000004 -0.683 Q 0.492 -0.683 0.492 -0.672 Q 0.492 -0.655 0.47700000000000004 -0.653 L 0.47700000000000004 -0.653 Q 0.47200000000000003 -0.652 0.458 -0.652 Q 0.397 -0.652 0.385 -0.636 Q 0.38 -0.629 0.374 -0.606 L 0.294 -0.28500000000000003 L 0.684 -0.585 Q 0.72 -0.615 0.72 -0.631 Q 0.72 -0.648 0.6930000000000001 -0.652 L 0.6930000000000001 -0.652 L 0.6890000000000001 -0.652 Q 0.677 -0.654 0.677 -0.663 Q 0.677 -0.683 0.6960000000000001 -0.683 L 0.806 -0.68 L 0.807 -0.68 L 0.877 -0.683 L 0.878 -0.683 Q 0.889 -0.683 0.889 -0.672 Q 0.889 -0.655 0.871 -0.652 Q 0.8160000000000001 -0.646 0.753 -0.607 Q 0.732 -0.594 0.708 -0.5760000000000001 L 0.533 -0.441 Q 0.504 -0.42 0.504 -0.418 L 0.509 -0.404 Z"/></g><g transform="translate(44.02888888888889,7.157407407407407)"><path fill="rgb(0,0,0)" stroke="none" paint-order="stroke fill markers" d=" M 0.331 0.24 L 0.331 0.24 Q 0.331 0.25 0.321 0.25 Q 0.309 0.25 0.268 0.209 Q 0.20600000000000002 0.147 0.165 0.062 Q 0.099 -0.074 0.099 -0.25 Q 0.099 -0.419 0.162 -0.555 Q 0.214 -0.666 0.294 -0.733 Q 0.315 -0.75 0.321 -0.75 Q 0.331 -0.75 0.331 -0.74 Q 0.331 -0.735 0.318 -0.723 Q 0.157 -0.559 0.157 -0.25 Q 0.157 0.058 0.314 0.218 Q 0.331 0.23500000000000001 0.331 0.24 Z"/></g><g transform="translate(44.417888888888896,7.157407407407407)"><path fill="rgb(0,0,0)" stroke="none" paint-order="stroke fill markers" d=" M 0.20600000000000002 -0.4 L 0.132 -0.105 Q 0.126 -0.08 0.126 -0.057 Q 0.126 -0.011 0.157 -0.011 Q 0.223 -0.011 0.273 -0.108 L 0.28700000000000003 -0.139 Q 0.293 -0.152 0.302 -0.153 Q 0.314 -0.153 0.314 -0.14300000000000002 Q 0.314 -0.13 0.28800000000000003 -0.08600000000000001 Q 0.23 0.011 0.155 0.011 Q 0.097 0.011 0.073 -0.037 Q 0.063 -0.057 0.063 -0.081 Q 0.063 -0.1 0.124 -0.34 L 0.139 -0.4 L 0.051000000000000004 -0.4 Q 0.026000000000000002 -0.4 0.024 -0.40800000000000003 L 0.023 -0.40800000000000003 L 0.023 -0.41200000000000003 Q 0.023 -0.429 0.039 -0.431 L 0.053 -0.431 L 0.147 -0.431 L 0.186 -0.59 Q 0.195 -0.625 0.226 -0.626 Q 0.252 -0.626 0.255 -0.599 Q 0.255 -0.593 0.214 -0.431 L 0.302 -0.431 Q 0.328 -0.431 0.33 -0.42 Q 0.33 -0.402 0.314 -0.4 L 0.313 -0.4 L 0.3 -0.4 L 0.20600000000000002 -0.4 Z"/></g><g transform="translate(44.77888888888889,7.157407407407407)"><path fill="rgb(0,0,0)" stroke="none" paint-order="stroke fill markers" d=" M 0.289 -0.25 L 0.289 -0.25 Q 0.289 -0.081 0.226 0.055 Q 0.17400000000000002 0.166 0.094 0.233 Q 0.073 0.25 0.067 0.25 Q 0.057 0.25 0.057 0.24 Q 0.057 0.23500000000000001 0.07 0.223 Q 0.231 0.059000000000000004 0.231 -0.25 Q 0.231 -0.555 0.081 -0.712 L 0.076 -0.717 Q 0.057 -0.735 0.057 -0.74 Q 0.057 -0.75 0.067 -0.75 Q 0.079 -0.75 0.12 -0.709 Q 0.182 -0.647 0.223 -0.562 Q 0.289 -0.426 0.289 -0.25 Z"/></g></g><path fill="rgb(128,128,128)" stroke="none" paint-order="stroke fill markers" d=" M 1100.2283228380054 277.10440193946454 C 1100.2283228380054 280.97039518828007 1097.094316086821 284.10440193946454 1093.2283228380054 284.10440193946454 C 1089.3623295891898 284.10440193946454 1086.2283228380054 280.97039518828007 1086.2283228380054 277.10440193946454 C 1086.2283228380054 273.238408690649 1089.3623295891898 270.10440193946454 1093.2283228380054 270.10440193946454 C 1097.094316086821 270.10440193946454 1100.2283228380054 273.238408690649 1100.2283228380054 277.10440193946454 Z" fill-opacity="1"/><path fill="none" stroke="rgb(0,0,0)" paint-order="fill stroke markers" d=" M 1100.2283228380054 277.10440193946454 C 1100.2283228380054 280.97039518828007 1097.094316086821 284.10440193946454 1093.2283228380054 284.10440193946454 C 1089.3623295891898 284.10440193946454 1086.2283228380054 280.97039518828007 1086.2283228380054 277.10440193946454 C 1086.2283228380054 273.238408690649 1089.3623295891898 270.10440193946454 1093.2283228380054 270.10440193946454 C 1097.094316086821 270.10440193946454 1100.2283228380054 273.238408690649 1100.2283228380054 277.10440193946454 Z" stroke-opacity="1" stroke-linecap="round" stroke-linejoin="round" stroke-miterlimit="10"/><g transform="scale(27,27)"><g transform="translate(41.55555555555556,10.416666666666666)"><path fill="rgb(128,128,128)" stroke="none" paint-order="stroke fill markers" d=" M 0.28700000000000003 -0.683 L 0.183 -0.261 Q 0.226 -0.278 0.294 -0.354 Q 0.373 -0.442 0.44 -0.442 Q 0.488 -0.442 0.504 -0.402 Q 0.508 -0.391 0.508 -0.379 Q 0.508 -0.338 0.47400000000000003 -0.322 Q 0.463 -0.318 0.453 -0.318 Q 0.422 -0.318 0.41600000000000004 -0.34500000000000003 Q 0.41500000000000004 -0.34900000000000003 0.41500000000000004 -0.353 Q 0.41500000000000004 -0.381 0.44 -0.397 L 0.441 -0.398 L 0.441 -0.398 Q 0.454 -0.406 0.47200000000000003 -0.40700000000000003 L 0.468 -0.41100000000000003 Q 0.46 -0.417 0.447 -0.419 Q 0.445 -0.42 0.438 -0.42 Q 0.385 -0.42 0.309 -0.339 Q 0.305 -0.335 0.301 -0.33 L 0.295 -0.324 Q 0.243 -0.27 0.209 -0.25 Q 0.357 -0.231 0.357 -0.145 Q 0.357 -0.131 0.353 -0.114 Q 0.34500000000000003 -0.082 0.34500000000000003 -0.058 Q 0.34500000000000003 -0.011 0.377 -0.011 Q 0.423 -0.011 0.451 -0.094 Q 0.458 -0.111 0.464 -0.135 Q 0.47200000000000003 -0.152 0.47800000000000004 -0.153 Q 0.49 -0.153 0.49 -0.14300000000000002 Q 0.49 -0.127 0.47100000000000003 -0.078 Q 0.463 -0.058 0.454 -0.042 Q 0.422 0.011 0.375 0.011 Q 0.32 0.011 0.295 -0.037 Q 0.28300000000000003 -0.06 0.28300000000000003 -0.088 Q 0.28300000000000003 -0.099 0.28700000000000003 -0.123 Q 0.29 -0.133 0.29 -0.14400000000000002 Q 0.29 -0.20700000000000002 0.2 -0.225 Q 0.187 -0.228 0.17400000000000002 -0.229 Q 0.124 -0.021 0.11800000000000001 -0.01 Q 0.108 0.009000000000000001 0.084 0.011 Q 0.06 0.011 0.056 -0.01 Q 0.055 -0.014 0.055 -0.017 Q 0.055 -0.025 0.059000000000000004 -0.039 L 0.20400000000000001 -0.615 L 0.20700000000000002 -0.635 Q 0.20700000000000002 -0.646 0.193 -0.649 L 0.193 -0.649 Q 0.181 -0.652 0.157 -0.652 Q 0.135 -0.652 0.133 -0.664 Q 0.133 -0.681 0.152 -0.684 L 0.274 -0.6940000000000001 Q 0.28700000000000003 -0.6940000000000001 0.28700000000000003 -0.683 Z"/></g><g transform="translate(42.385333333333335,10.416666666666666)"><path fill="rgb(128,128,128)" stroke="none" paint-order="stroke fill markers" d=" M 0.631 -0.678 L 0.181 0.198 Q 0.17200000000000001 0.216 0.159 0.216 Q 0.14300000000000002 0.216 0.139 0.196 Q 0.139 0.192 0.146 0.178 L 0.596 -0.6980000000000001 Q 0.605 -0.716 0.618 -0.716 Q 0.634 -0.716 0.638 -0.6960000000000001 Q 0.638 -0.6920000000000001 0.631 -0.678 Z"/></g><g transform="translate(42.385333333333335,10.416666666666666)"><path fill="rgb(128,128,128)" stroke="none" paint-order="stroke fill markers" d=" M 0.55 -0.23 L 0.55 -0.23 L 0.124 -0.23 Q 0.134 -0.11800000000000001 0.226 -0.052000000000000005 Q 0.297 0 0.391 0 L 0.55 0 Q 0.582 0 0.583 0.02 Q 0.583 0.04 0.55 0.04 L 0.388 0.04 Q 0.262 0.04 0.17300000000000001 -0.044 Q 0.083 -0.129 0.083 -0.25 Q 0.083 -0.377 0.179 -0.462 Q 0.268 -0.54 0.387 -0.54 L 0.55 -0.54 Q 0.582 -0.54 0.583 -0.52 Q 0.583 -0.5 0.55 -0.5 L 0.39 -0.5 Q 0.273 -0.5 0.195 -0.422 Q 0.132 -0.359 0.124 -0.27 L 0.55 -0.27 Q 0.582 -0.27 0.583 -0.25 Q 0.583 -0.23 0.55 -0.23 Z"/></g><g transform="translate(43.330111111111115,10.416666666666666)"><path fill="rgb(128,128,128)" stroke="none" paint-order="stroke fill markers" d=" M 0.509 -0.404 L 0.509 -0.404 L 0.651 -0.076 Q 0.666 -0.042 0.6880000000000001 -0.035 L 0.6890000000000001 -0.035 L 0.6900000000000001 -0.035 L 0.6900000000000001 -0.035 Q 0.7010000000000001 -0.031 0.72 -0.031 Q 0.74 -0.031 0.74 -0.02 Q 0.74 0 0.722 0 L 0.625 -0.003 L 0.624 -0.003 L 0.505 0 L 0.502 0 Q 0.488 0 0.488 -0.011 Q 0.494 -0.03 0.51 -0.031 Q 0.562 -0.031 0.562 -0.062 Q 0.562 -0.07 0.55 -0.097 L 0.434 -0.366 L 0.28500000000000003 -0.25 Q 0.256 -0.132 0.245 -0.093 Q 0.23600000000000002 -0.048 0.23600000000000002 -0.049 Q 0.23600000000000002 -0.032 0.28200000000000003 -0.031 L 0.28200000000000003 -0.031 L 0.28200000000000003 -0.031 L 0.301 -0.031 Q 0.327 -0.031 0.329 -0.02 Q 0.329 0 0.309 0 L 0.245 -0.002 L 0.244 -0.002 L 0.182 -0.003 L 0.18 -0.003 L 0.054 0 L 0.053 0 Q 0.038 0 0.038 -0.012 Q 0.038 -0.029 0.054 -0.031 L 0.066 -0.031 Q 0.131 -0.031 0.14400000000000002 -0.045 Q 0.15 -0.052000000000000005 0.156 -0.073 Q 0.156 -0.074 0.157 -0.078 L 0.291 -0.615 Q 0.295 -0.631 0.295 -0.634 Q 0.295 -0.646 0.279 -0.649 L 0.278 -0.649 L 0.278 -0.649 Q 0.276 -0.65 0.273 -0.65 Q 0.249 -0.652 0.23 -0.652 Q 0.20400000000000001 -0.652 0.202 -0.66 Q 0.201 -0.662 0.201 -0.664 Q 0.201 -0.683 0.221 -0.683 L 0.34900000000000003 -0.68 L 0.35000000000000003 -0.68 L 0.47700000000000004 -0.683 L 0.47800000000000004 -0.683 Q 0.492 -0.683 0.492 -0.672 Q 0.492 -0.655 0.47700000000000004 -0.653 L 0.47700000000000004 -0.653 Q 0.47200000000000003 -0.652 0.458 -0.652 Q 0.397 -0.652 0.385 -0.636 Q 0.38 -0.629 0.374 -0.606 L 0.294 -0.28500000000000003 L 0.684 -0.585 Q 0.72 -0.615 0.72 -0.631 Q 0.72 -0.648 0.6930000000000001 -0.652 L 0.6930000000000001 -0.652 L 0.6890000000000001 -0.652 Q 0.677 -0.654 0.677 -0.663 Q 0.677 -0.683 0.6960000000000001 -0.683 L 0.806 -0.68 L 0.807 -0.68 L 0.877 -0.683 L 0.878 -0.683 Q 0.889 -0.683 0.889 -0.672 Q 0.889 -0.655 0.871 -0.652 Q 0.8160000000000001 -0.646 0.753 -0.607 Q 0.732 -0.594 0.708 -0.5760000000000001 L 0.533 -0.441 Q 0.504 -0.42 0.504 -0.418 L 0.509 -0.404 Z"/></g><g transform="translate(44.251111111111115,10.416666666666666)"><path fill="rgb(128,128,128)" stroke="none" paint-order="stroke fill markers" d=" M 0.331 0.24 L 0.331 0.24 Q 0.331 0.25 0.321 0.25 Q 0.309 0.25 0.268 0.209 Q 0.20600000000000002 0.147 0.165 0.062 Q 0.099 -0.074 0.099 -0.25 Q 0.099 -0.419 0.162 -0.555 Q 0.214 -0.666 0.294 -0.733 Q 0.315 -0.75 0.321 -0.75 Q 0.331 -0.75 0.331 -0.74 Q 0.331 -0.735 0.318 -0.723 Q 0.157 -0.559 0.157 -0.25 Q 0.157 0.058 0.314 0.218 Q 0.331 0.23500000000000001 0.331 0.24 Z"/></g><g transform="translate(44.64011111111112,10.416666666666666)"><path fill="rgb(128,128,128)" stroke="none" paint-order="stroke fill markers" d=" M 0.20600000000000002 -0.4 L 0.132 -0.105 Q 0.126 -0.08 0.126 -0.057 Q 0.126 -0.011 0.157 -0.011 Q 0.223 -0.011 0.273 -0.108 L 0.28700000000000003 -0.139 Q 0.293 -0.152 0.302 -0.153 Q 0.314 -0.153 0.314 -0.14300000000000002 Q 0.314 -0.13 0.28800000000000003 -0.08600000000000001 Q 0.23 0.011 0.155 0.011 Q 0.097 0.011 0.073 -0.037 Q 0.063 -0.057 0.063 -0.081 Q 0.063 -0.1 0.124 -0.34 L 0.139 -0.4 L 0.051000000000000004 -0.4 Q 0.026000000000000002 -0.4 0.024 -0.40800000000000003 L 0.023 -0.40800000000000003 L 0.023 -0.41200000000000003 Q 0.023 -0.429 0.039 -0.431 L 0.053 -0.431 L 0.147 -0.431 L 0.186 -0.59 Q 0.195 -0.625 0.226 -0.626 Q 0.252 -0.626 0.255 -0.599 Q 0.255 -0.593 0.214 -0.431 L 0.302 -0.431 Q 0.328 -0.431 0.33 -0.42 Q 0.33 -0.402 0.314 -0.4 L 0.313 -0.4 L 0.3 -0.4 L 0.20600000000000002 -0.4 Z"/></g><g transform="translate(45.001111111111115,10.416666666666666)"><path fill="rgb(128,128,128)" stroke="none" paint-order="stroke fill markers" d=" M 0.289 -0.25 L 0.289 -0.25 Q 0.289 -0.081 0.226 0.055 Q 0.17400000000000002 0.166 0.094 0.233 Q 0.073 0.25 0.067 0.25 Q 0.057 0.25 0.057 0.24 Q 0.057 0.23500000000000001 0.07 0.223 Q 0.231 0.059000000000000004 0.231 -0.25 Q 0.231 -0.555 0.081 -0.712 L 0.076 -0.717 Q 0.057 -0.735 0.057 -0.74 Q 0.057 -0.75 0.067 -0.75 Q 0.079 -0.75 0.12 -0.709 Q 0.182 -0.647 0.223 -0.562 Q 0.289 -0.426 0.289 -0.25 Z"/></g></g></g></g></svg>